%TF.GenerationSoftware,KiCad,Pcbnew,9.0.6-9.0.6~ubuntu24.04.1*%
%TF.CreationDate,2025-11-16T07:18:10-05:00*%
%TF.ProjectId,tire_sensor_jlcpcb,74697265-5f73-4656-9e73-6f725f6a6c63,rev?*%
%TF.SameCoordinates,Original*%
%TF.FileFunction,Copper,L4,Bot*%
%TF.FilePolarity,Positive*%
%FSLAX46Y46*%
G04 Gerber Fmt 4.6, Leading zero omitted, Abs format (unit mm)*
G04 Created by KiCad (PCBNEW 9.0.6-9.0.6~ubuntu24.04.1) date 2025-11-16 07:18:10*
%MOMM*%
%LPD*%
G01*
G04 APERTURE LIST*
G04 Aperture macros list*
%AMRoundRect*
0 Rectangle with rounded corners*
0 $1 Rounding radius*
0 $2 $3 $4 $5 $6 $7 $8 $9 X,Y pos of 4 corners*
0 Add a 4 corners polygon primitive as box body*
4,1,4,$2,$3,$4,$5,$6,$7,$8,$9,$2,$3,0*
0 Add four circle primitives for the rounded corners*
1,1,$1+$1,$2,$3*
1,1,$1+$1,$4,$5*
1,1,$1+$1,$6,$7*
1,1,$1+$1,$8,$9*
0 Add four rect primitives between the rounded corners*
20,1,$1+$1,$2,$3,$4,$5,0*
20,1,$1+$1,$4,$5,$6,$7,0*
20,1,$1+$1,$6,$7,$8,$9,0*
20,1,$1+$1,$8,$9,$2,$3,0*%
G04 Aperture macros list end*
%TA.AperFunction,ComponentPad*%
%ADD10R,0.500000X0.900000*%
%TD*%
%TA.AperFunction,HeatsinkPad*%
%ADD11C,0.500000*%
%TD*%
%TA.AperFunction,HeatsinkPad*%
%ADD12R,4.100000X4.100000*%
%TD*%
%TA.AperFunction,SMDPad,CuDef*%
%ADD13RoundRect,0.200000X-1.790111X-0.638752X0.012024X-1.900620X1.790111X0.638752X-0.012024X1.900620X0*%
%TD*%
%TA.AperFunction,ViaPad*%
%ADD14C,0.600000*%
%TD*%
%TA.AperFunction,Conductor*%
%ADD15C,0.150000*%
%TD*%
%TA.AperFunction,Conductor*%
%ADD16C,0.500000*%
%TD*%
G04 APERTURE END LIST*
D10*
%TO.P,AE1,2,Shield*%
%TO.N,GND*%
X92375000Y58390685D03*
%TD*%
D11*
%TO.P,U1,49,GND*%
%TO.N,GND*%
X78730000Y62400000D03*
X78730000Y61200000D03*
X78730000Y60000000D03*
X78730000Y58800000D03*
X79930000Y62400000D03*
X79930000Y61200000D03*
X79930000Y60000000D03*
X79930000Y58800000D03*
D12*
X80530000Y60600000D03*
D11*
X81130000Y62400000D03*
X81130000Y61200000D03*
X81130000Y60000000D03*
X81130000Y58800000D03*
X82330000Y62400000D03*
X82330000Y61200000D03*
X82330000Y60000000D03*
X82330000Y58800000D03*
%TD*%
D13*
%TO.P,BT1,1,+*%
%TO.N,VDD_NRF*%
X70250000Y70181574D03*
%TO.P,BT1,2,-*%
%TO.N,GND*%
X94333072Y53318426D03*
%TD*%
D14*
%TO.N,GND*%
X85200000Y59400000D03*
%TO.N,VDD_NRF*%
X83800000Y64400000D03*
X79433440Y51890685D03*
X70250000Y70181574D03*
X86433440Y54390685D03*
X77300000Y64500000D03*
X81433440Y51890685D03*
X78900940Y70928185D03*
X71500000Y60500000D03*
X77433440Y56890685D03*
X73500000Y54000000D03*
X86433440Y52390685D03*
X72705102Y67471805D03*
%TO.N,GND*%
X87500000Y59400000D03*
X83800000Y65400000D03*
X88700000Y68000000D03*
X94433440Y56890685D03*
X90683440Y71140685D03*
X84158440Y53090685D03*
X90683440Y64390685D03*
X89750000Y59400000D03*
X86000000Y59400000D03*
X92183440Y56890685D03*
X78433440Y51890685D03*
X74500000Y73250000D03*
X90683440Y62140685D03*
X97433440Y56890685D03*
X96683440Y56890685D03*
X95183440Y56890685D03*
X89000000Y59400000D03*
X90683440Y63640685D03*
X86000000Y65750000D03*
X80433440Y51890685D03*
X90683440Y66640685D03*
X76000000Y52750000D03*
X86433440Y53390685D03*
X77300000Y66080000D03*
X84990300Y63198000D03*
X89933440Y61600000D03*
X88250000Y59400000D03*
X95933440Y56890685D03*
X82900000Y65600000D03*
X90683440Y72640685D03*
X90683440Y71890685D03*
X87250000Y64250000D03*
X86040300Y64548000D03*
X92933440Y56890685D03*
X78600000Y66300000D03*
X94333072Y53318426D03*
X98183440Y56890685D03*
X90683440Y65890685D03*
X86433440Y55390685D03*
X73794898Y69028195D03*
X69250000Y63575000D03*
X76433440Y56890685D03*
X87000000Y71800000D03*
X88433440Y61600000D03*
X80095940Y53890685D03*
X82100000Y65600000D03*
X88500000Y56500000D03*
X73950000Y61890685D03*
X71250000Y56250000D03*
X90500000Y59400000D03*
X90743215Y57390685D03*
X87683440Y61600000D03*
X90683440Y73390685D03*
X90609315Y58390685D03*
X90683440Y68890685D03*
X91433440Y56890685D03*
X90683440Y69640685D03*
X90683440Y67390685D03*
X76300000Y65640685D03*
X89183440Y61600000D03*
X90683440Y70390685D03*
X86750000Y59400000D03*
X90683440Y65140685D03*
X90683440Y62890685D03*
X93683440Y56890685D03*
X89250000Y50250000D03*
X90683440Y68140685D03*
X75500000Y65640685D03*
X86600000Y61800000D03*
%TO.N,/SWCLK*%
X72500000Y55750000D03*
X84515375Y58227089D03*
%TO.N,/nRESET*%
X84521473Y57477114D03*
X72500000Y55000000D03*
%TO.N,/SWDIO*%
X73250000Y55000000D03*
X84524737Y58977033D03*
%TO.N,/SDO*%
X79405000Y56390685D03*
X84183440Y54640685D03*
%TO.N,/CS_DPS368*%
X83450683Y56908791D03*
X84183440Y53890685D03*
%TO.N,/SDI*%
X80433440Y56415685D03*
X82312208Y55269453D03*
%TO.N,/CS_LSM6DS3*%
X82933440Y56365685D03*
X81535446Y55960002D03*
%TD*%
D15*
%TO.N,/SWDIO*%
X84305009Y56951114D02*
X83608123Y57648000D01*
X85047473Y57259237D02*
X84739350Y56951114D01*
X84524547Y58961794D02*
X85047473Y58438868D01*
X83608123Y57648000D02*
X75398000Y57648000D01*
X84524547Y58976843D02*
X84524547Y58961794D01*
X73500000Y55250000D02*
X73250000Y55000000D01*
X84739350Y56951114D02*
X84305009Y56951114D01*
X85047473Y58438868D02*
X85047473Y57259237D01*
X84524737Y58977033D02*
X84524547Y58976843D01*
X75398000Y57648000D02*
X73500000Y55750000D01*
X73500000Y55750000D02*
X73500000Y55250000D01*
D16*
%TO.N,GND*%
X92375000Y58390685D02*
X90609315Y58390685D01*
D15*
%TO.N,/SWCLK*%
X72500000Y55750000D02*
X72675678Y55925678D01*
X72675678Y55925678D02*
X72750000Y55925678D01*
X84496220Y58250000D02*
X84515375Y58230845D01*
X75074322Y58250000D02*
X84496220Y58250000D01*
X84515375Y58230845D02*
X84515375Y58227089D01*
X72750000Y55925678D02*
X75074322Y58250000D01*
%TO.N,/nRESET*%
X73026000Y55526000D02*
X72500000Y55000000D01*
X84500120Y57499880D02*
X84051000Y57949000D01*
X84521473Y57477114D02*
X84500120Y57498467D01*
X75199000Y57949000D02*
X73026000Y55776000D01*
X84500120Y57498467D02*
X84500120Y57499880D01*
X73026000Y55776000D02*
X73026000Y55526000D01*
X84051000Y57949000D02*
X75199000Y57949000D01*
%TO.N,/SDO*%
X81155000Y54640685D02*
X84183440Y54640685D01*
X79405000Y56390685D02*
X81155000Y54640685D01*
%TO.N,/CS_DPS368*%
X84183440Y53890685D02*
X84709440Y54416685D01*
X84709440Y55650034D02*
X83450683Y56908791D01*
X84709440Y54416685D02*
X84709440Y55650034D01*
%TO.N,/SDI*%
X80433440Y56318131D02*
X81482118Y55269453D01*
X81482118Y55269453D02*
X82312208Y55269453D01*
X80433440Y56415685D02*
X80433440Y56318131D01*
%TO.N,/CS_LSM6DS3*%
X81941129Y56365685D02*
X81535446Y55960002D01*
X82933440Y56365685D02*
X81941129Y56365685D01*
%TD*%
%TA.AperFunction,Conductor*%
%TO.N,GND*%
G36*
X98692539Y56980315D02*
G01*
X98738294Y56927511D01*
X98749500Y56876000D01*
X98749500Y49565889D01*
X98749499Y49565885D01*
X98749499Y49536564D01*
X98749499Y49506953D01*
X98749499Y49506951D01*
X98748719Y49493069D01*
X98738542Y49402735D01*
X98732364Y49375663D01*
X98704652Y49296465D01*
X98692603Y49271447D01*
X98647962Y49200402D01*
X98630649Y49178691D01*
X98571322Y49119366D01*
X98549612Y49102054D01*
X98478568Y49057416D01*
X98453548Y49045368D01*
X98374351Y49017659D01*
X98347280Y49011481D01*
X98256716Y49001280D01*
X98242839Y49000501D01*
X98231706Y49000501D01*
X98184128Y49000503D01*
X98184117Y49000501D01*
X98175846Y49000500D01*
X98175845Y49000501D01*
X98175844Y49000500D01*
X91000000Y49000500D01*
X91000000Y51331942D01*
X93247312Y51331942D01*
X93247312Y51331941D01*
X93989934Y50811953D01*
X93989936Y50811952D01*
X94051388Y50776745D01*
X94051392Y50776743D01*
X94213336Y50725084D01*
X94382948Y50713682D01*
X94550348Y50743199D01*
X94705835Y50811927D01*
X94840346Y50915860D01*
X94840351Y50915864D01*
X94886051Y50969958D01*
X95664151Y52081201D01*
X95664151Y52081202D01*
X94394465Y52970245D01*
X94394464Y52970244D01*
X93247312Y51331942D01*
X91000000Y51331942D01*
X91000000Y52641822D01*
X91838836Y52641822D01*
X91868353Y52474420D01*
X91937080Y52318936D01*
X92041015Y52184424D01*
X92041016Y52184423D01*
X92095112Y52138720D01*
X92837736Y51618729D01*
X92837737Y51618730D01*
X93984889Y53257033D01*
X93984889Y53257034D01*
X93913108Y53307295D01*
X93809530Y53379821D01*
X94681253Y53379821D01*
X94681254Y53379820D01*
X95950938Y52490777D01*
X95950939Y52490778D01*
X96729036Y53602016D01*
X96729037Y53602018D01*
X96764244Y53663470D01*
X96764246Y53663474D01*
X96815905Y53825418D01*
X96827307Y53995031D01*
X96797790Y54162433D01*
X96729063Y54317917D01*
X96625128Y54452429D01*
X96625127Y54452430D01*
X96571031Y54498133D01*
X95828406Y55018125D01*
X95828405Y55018124D01*
X94681253Y53379821D01*
X93809530Y53379821D01*
X92715204Y54146077D01*
X92715203Y54146077D01*
X91937107Y53034837D01*
X91937106Y53034835D01*
X91901899Y52973383D01*
X91901897Y52973379D01*
X91850238Y52811435D01*
X91838836Y52641822D01*
X91000000Y52641822D01*
X91000000Y54555652D01*
X93001991Y54555652D01*
X94271677Y53666609D01*
X94271678Y53666610D01*
X95418830Y55304912D01*
X95418830Y55304913D01*
X94676209Y55824900D01*
X94676207Y55824901D01*
X94614755Y55860108D01*
X94614751Y55860110D01*
X94452807Y55911769D01*
X94283195Y55923171D01*
X94115795Y55893654D01*
X93960308Y55824926D01*
X93825797Y55720993D01*
X93825792Y55720989D01*
X93780096Y55666899D01*
X93001992Y54555652D01*
X93001991Y54555652D01*
X91000000Y54555652D01*
X91000000Y57000000D01*
X98625500Y57000000D01*
X98692539Y56980315D01*
G37*
%TD.AperFunction*%
%TD*%
%TA.AperFunction,Conductor*%
%TO.N,GND*%
G36*
X90943039Y73979815D02*
G01*
X90988794Y73927011D01*
X91000000Y73875500D01*
X91000000Y49000500D01*
X67256988Y49000500D01*
X67243100Y49001280D01*
X67234899Y49002205D01*
X67152758Y49011463D01*
X67125689Y49017643D01*
X67046495Y49045357D01*
X67021478Y49057405D01*
X66950432Y49102049D01*
X66928723Y49119363D01*
X66869399Y49178691D01*
X66852087Y49200400D01*
X66807446Y49271450D01*
X66795400Y49296467D01*
X66767691Y49375660D01*
X66761512Y49402730D01*
X66751279Y49493564D01*
X66750500Y49507448D01*
X66750501Y49565885D01*
X66750500Y49565889D01*
X66750500Y51254750D01*
X72147290Y51254750D01*
X72147290Y51124204D01*
X72181078Y50998105D01*
X72246351Y50885049D01*
X72338662Y50792738D01*
X72451718Y50727465D01*
X72577817Y50693677D01*
X72577819Y50693677D01*
X72708361Y50693677D01*
X72708363Y50693677D01*
X72834462Y50727465D01*
X72947518Y50792738D01*
X73039829Y50885049D01*
X73105102Y50998105D01*
X73138890Y51124204D01*
X73138890Y51254750D01*
X73105102Y51380849D01*
X73039829Y51493905D01*
X72947518Y51586216D01*
X72834462Y51651489D01*
X72708363Y51685277D01*
X72577817Y51685277D01*
X72451718Y51651489D01*
X72451715Y51651488D01*
X72338665Y51586218D01*
X72338659Y51586214D01*
X72246353Y51493908D01*
X72246349Y51493902D01*
X72181079Y51380852D01*
X72181078Y51380849D01*
X72147290Y51254750D01*
X66750500Y51254750D01*
X66750500Y51949994D01*
X78982940Y51949994D01*
X78982940Y51831376D01*
X79013641Y51716799D01*
X79072951Y51614072D01*
X79156827Y51530196D01*
X79259554Y51470886D01*
X79374131Y51440185D01*
X79374134Y51440185D01*
X79492746Y51440185D01*
X79492749Y51440185D01*
X79607326Y51470886D01*
X79710053Y51530196D01*
X79793929Y51614072D01*
X79853239Y51716799D01*
X79883940Y51831376D01*
X79883940Y51949994D01*
X80982940Y51949994D01*
X80982940Y51831376D01*
X81013641Y51716799D01*
X81072951Y51614072D01*
X81156827Y51530196D01*
X81259554Y51470886D01*
X81374131Y51440185D01*
X81374134Y51440185D01*
X81492746Y51440185D01*
X81492749Y51440185D01*
X81607326Y51470886D01*
X81710053Y51530196D01*
X81793929Y51614072D01*
X81853239Y51716799D01*
X81883940Y51831376D01*
X81883940Y51949994D01*
X81853239Y52064571D01*
X81793929Y52167298D01*
X81710053Y52251174D01*
X81607326Y52310484D01*
X81503341Y52338347D01*
X81499792Y52339298D01*
X81492749Y52341185D01*
X81374131Y52341185D01*
X81259554Y52310484D01*
X81259552Y52310484D01*
X81259552Y52310483D01*
X81156827Y52251174D01*
X81156824Y52251172D01*
X81072953Y52167301D01*
X81072951Y52167298D01*
X81042220Y52114070D01*
X81013641Y52064571D01*
X80982940Y51949994D01*
X79883940Y51949994D01*
X79853239Y52064571D01*
X79793929Y52167298D01*
X79710053Y52251174D01*
X79607326Y52310484D01*
X79492749Y52341185D01*
X79374131Y52341185D01*
X79259554Y52310484D01*
X79259552Y52310484D01*
X79259552Y52310483D01*
X79156827Y52251174D01*
X79156824Y52251172D01*
X79072953Y52167301D01*
X79072951Y52167298D01*
X79042220Y52114070D01*
X79013641Y52064571D01*
X78982940Y51949994D01*
X66750500Y51949994D01*
X66750500Y52449994D01*
X85982940Y52449994D01*
X85982940Y52331376D01*
X86013641Y52216799D01*
X86072951Y52114072D01*
X86156827Y52030196D01*
X86259554Y51970886D01*
X86374131Y51940185D01*
X86374134Y51940185D01*
X86492746Y51940185D01*
X86492749Y51940185D01*
X86607326Y51970886D01*
X86710053Y52030196D01*
X86793929Y52114072D01*
X86853239Y52216799D01*
X86883940Y52331376D01*
X86883940Y52449994D01*
X86853239Y52564571D01*
X86793929Y52667298D01*
X86710053Y52751174D01*
X86607326Y52810484D01*
X86492749Y52841185D01*
X86374131Y52841185D01*
X86259554Y52810484D01*
X86259552Y52810484D01*
X86259552Y52810483D01*
X86156827Y52751174D01*
X86156824Y52751172D01*
X86072953Y52667301D01*
X86072951Y52667298D01*
X86013641Y52564571D01*
X85982940Y52449994D01*
X66750500Y52449994D01*
X66750500Y54128432D01*
X67836767Y54128432D01*
X67836767Y53997886D01*
X67870555Y53871787D01*
X67935828Y53758731D01*
X68028139Y53666420D01*
X68141195Y53601147D01*
X68267294Y53567359D01*
X68267296Y53567359D01*
X68397838Y53567359D01*
X68397840Y53567359D01*
X68523939Y53601147D01*
X68636995Y53666420D01*
X68729306Y53758731D01*
X68794579Y53871787D01*
X68828367Y53997886D01*
X68828367Y54128432D01*
X68794579Y54254531D01*
X68729306Y54367587D01*
X68636995Y54459898D01*
X68523939Y54525171D01*
X68397840Y54558959D01*
X68267294Y54558959D01*
X68141195Y54525171D01*
X68141192Y54525170D01*
X68028142Y54459900D01*
X68028136Y54459896D01*
X67935830Y54367590D01*
X67935826Y54367584D01*
X67870556Y54254534D01*
X67870555Y54254531D01*
X67836767Y54128432D01*
X66750500Y54128432D01*
X66750500Y55565273D01*
X69273608Y55565273D01*
X69273608Y55434727D01*
X69307396Y55308628D01*
X69372669Y55195572D01*
X69464980Y55103261D01*
X69578036Y55037988D01*
X69704135Y55004200D01*
X69704137Y55004200D01*
X69834679Y55004200D01*
X69834681Y55004200D01*
X69960780Y55037988D01*
X70073836Y55103261D01*
X70166147Y55195572D01*
X70231420Y55308628D01*
X70265208Y55434727D01*
X70265208Y55565273D01*
X70231420Y55691372D01*
X70166147Y55804428D01*
X70161266Y55809309D01*
X72049500Y55809309D01*
X72049500Y55690691D01*
X72080201Y55576114D01*
X72139511Y55473387D01*
X72150219Y55462679D01*
X72183702Y55401354D01*
X72178715Y55331663D01*
X72150219Y55287321D01*
X72139511Y55276614D01*
X72139511Y55276613D01*
X72092722Y55195572D01*
X72080201Y55173886D01*
X72049500Y55059309D01*
X72049500Y54940691D01*
X72080201Y54826114D01*
X72139511Y54723387D01*
X72223387Y54639511D01*
X72326114Y54580201D01*
X72440691Y54549500D01*
X72440694Y54549500D01*
X72559306Y54549500D01*
X72559309Y54549500D01*
X72673886Y54580201D01*
X72776613Y54639511D01*
X72787319Y54650217D01*
X72848642Y54683702D01*
X72918334Y54678718D01*
X72962681Y54650217D01*
X72973387Y54639511D01*
X73076114Y54580201D01*
X73158091Y54558236D01*
X73217750Y54521871D01*
X73248279Y54459024D01*
X73239984Y54389648D01*
X73213678Y54350780D01*
X73139511Y54276613D01*
X73101324Y54210471D01*
X73080201Y54173886D01*
X73049500Y54059309D01*
X73049500Y53940691D01*
X73080201Y53826114D01*
X73139511Y53723387D01*
X73223387Y53639511D01*
X73326114Y53580201D01*
X73440691Y53549500D01*
X73440694Y53549500D01*
X73559306Y53549500D01*
X73559309Y53549500D01*
X73673886Y53580201D01*
X73776613Y53639511D01*
X73860489Y53723387D01*
X73919799Y53826114D01*
X73950500Y53940691D01*
X73950500Y54059309D01*
X73919799Y54173886D01*
X73860489Y54276613D01*
X73776613Y54360489D01*
X73698098Y54405820D01*
X73673885Y54419800D01*
X73591908Y54441766D01*
X73532248Y54478131D01*
X73501720Y54540978D01*
X73510015Y54610354D01*
X73536317Y54649216D01*
X73610489Y54723387D01*
X73669799Y54826114D01*
X73700500Y54940691D01*
X73700500Y55059309D01*
X73697487Y55070554D01*
X73699148Y55140403D01*
X73702700Y55150101D01*
X73712553Y55173888D01*
X73725500Y55205145D01*
X73725500Y55294854D01*
X73725500Y55605233D01*
X73745185Y55672272D01*
X73761819Y55692914D01*
X75455087Y57386181D01*
X75516410Y57419666D01*
X75542768Y57422500D01*
X77028791Y57422500D01*
X77095830Y57402815D01*
X77141585Y57350011D01*
X77151529Y57280853D01*
X77122504Y57217297D01*
X77116472Y57210819D01*
X77072953Y57167301D01*
X77072951Y57167298D01*
X77024095Y57082677D01*
X77013641Y57064571D01*
X76982940Y56949994D01*
X76982940Y56831376D01*
X77013641Y56716799D01*
X77072951Y56614072D01*
X77156827Y56530196D01*
X77259554Y56470886D01*
X77374131Y56440185D01*
X77374134Y56440185D01*
X77492746Y56440185D01*
X77492749Y56440185D01*
X77607326Y56470886D01*
X77710053Y56530196D01*
X77793929Y56614072D01*
X77853239Y56716799D01*
X77883940Y56831376D01*
X77883940Y56949994D01*
X77853239Y57064571D01*
X77793929Y57167298D01*
X77750408Y57210819D01*
X77716923Y57272142D01*
X77721907Y57341834D01*
X77763779Y57397767D01*
X77829243Y57422184D01*
X77838089Y57422500D01*
X83027928Y57422500D01*
X83094967Y57402815D01*
X83140722Y57350011D01*
X83150666Y57280853D01*
X83121641Y57217297D01*
X83115609Y57210819D01*
X83090196Y57185407D01*
X83090194Y57185404D01*
X83030884Y57082677D01*
X83000183Y56968100D01*
X83000183Y56968098D01*
X83000183Y56940185D01*
X82980498Y56873146D01*
X82927694Y56827391D01*
X82882159Y56817486D01*
X82882191Y56817246D01*
X82879326Y56816869D01*
X82876183Y56816185D01*
X82874131Y56816185D01*
X82759554Y56785484D01*
X82759552Y56785484D01*
X82759552Y56785483D01*
X82656827Y56726174D01*
X82656824Y56726172D01*
X82572952Y56642300D01*
X82570957Y56639699D01*
X82568714Y56638062D01*
X82567204Y56636551D01*
X82566968Y56636787D01*
X82514529Y56598496D01*
X82472581Y56591185D01*
X81985983Y56591185D01*
X81896274Y56591185D01*
X81896272Y56591185D01*
X81896270Y56591184D01*
X81813395Y56556858D01*
X81813392Y56556856D01*
X81701867Y56445332D01*
X81640544Y56411847D01*
X81598005Y56410074D01*
X81594756Y56410502D01*
X81594755Y56410502D01*
X81476137Y56410502D01*
X81361560Y56379801D01*
X81361558Y56379801D01*
X81361558Y56379800D01*
X81258833Y56320491D01*
X81258830Y56320489D01*
X81174959Y56236618D01*
X81174952Y56236609D01*
X81130905Y56160318D01*
X81112812Y56143067D01*
X81097829Y56123052D01*
X81087960Y56119372D01*
X81080338Y56112103D01*
X81055790Y56107373D01*
X81032365Y56098635D01*
X81022072Y56100875D01*
X81011730Y56098881D01*
X80988520Y56108173D01*
X80964092Y56113487D01*
X80951269Y56123087D01*
X80946866Y56124849D01*
X80935838Y56134638D01*
X80898671Y56171805D01*
X80865186Y56233128D01*
X80866576Y56291577D01*
X80883940Y56356376D01*
X80883940Y56474994D01*
X80853239Y56589571D01*
X80793929Y56692298D01*
X80710053Y56776174D01*
X80607326Y56835484D01*
X80492749Y56866185D01*
X80374131Y56866185D01*
X80259554Y56835484D01*
X80259552Y56835484D01*
X80259552Y56835483D01*
X80156827Y56776174D01*
X80156824Y56776172D01*
X80072953Y56692301D01*
X80072949Y56692295D01*
X80019388Y56599528D01*
X79968820Y56551313D01*
X79900213Y56538092D01*
X79835349Y56564061D01*
X79804615Y56599530D01*
X79796219Y56614072D01*
X79765489Y56667298D01*
X79681613Y56751174D01*
X79578886Y56810484D01*
X79464309Y56841185D01*
X79345691Y56841185D01*
X79231114Y56810484D01*
X79231112Y56810484D01*
X79231112Y56810483D01*
X79128387Y56751174D01*
X79128384Y56751172D01*
X79044513Y56667301D01*
X79044511Y56667298D01*
X79004122Y56597342D01*
X78985201Y56564571D01*
X78954500Y56449994D01*
X78954500Y56331376D01*
X78985201Y56216799D01*
X79044511Y56114072D01*
X79128387Y56030196D01*
X79231114Y55970886D01*
X79345691Y55940185D01*
X79345694Y55940185D01*
X79464306Y55940185D01*
X79464309Y55940185D01*
X79464311Y55940186D01*
X79467556Y55940613D01*
X79470301Y55940185D01*
X79472436Y55940185D01*
X79472436Y55939853D01*
X79536591Y55929849D01*
X79571425Y55905355D01*
X80963829Y54512951D01*
X80963830Y54512949D01*
X81027264Y54449515D01*
X81061595Y54435295D01*
X81110146Y54415184D01*
X81110147Y54415184D01*
X81214289Y54415184D01*
X81214297Y54415185D01*
X83722581Y54415185D01*
X83754476Y54405820D01*
X83786636Y54397359D01*
X83788272Y54395896D01*
X83789620Y54395500D01*
X83813954Y54375012D01*
X83821186Y54367129D01*
X83822951Y54364072D01*
X83835537Y54351486D01*
X83837348Y54349512D01*
X83851626Y54320457D01*
X83867142Y54292039D01*
X83866944Y54289284D01*
X83868163Y54286805D01*
X83864465Y54254644D01*
X83862155Y54222348D01*
X83860448Y54219693D01*
X83860184Y54217392D01*
X83854522Y54210471D01*
X83833659Y54178006D01*
X83822951Y54167299D01*
X83822951Y54167298D01*
X83792220Y54114070D01*
X83763641Y54064571D01*
X83732940Y53949994D01*
X83732940Y53831376D01*
X83763641Y53716799D01*
X83822951Y53614072D01*
X83906827Y53530196D01*
X84009554Y53470886D01*
X84124131Y53440185D01*
X84124134Y53440185D01*
X84242746Y53440185D01*
X84242749Y53440185D01*
X84357326Y53470886D01*
X84460053Y53530196D01*
X84543929Y53614072D01*
X84603239Y53716799D01*
X84633940Y53831376D01*
X84633940Y53949994D01*
X84633939Y53949997D01*
X84633512Y53953241D01*
X84633940Y53955986D01*
X84633940Y53958121D01*
X84634273Y53958121D01*
X84644276Y54022276D01*
X84668770Y54057110D01*
X84740092Y54128432D01*
X84900610Y54288949D01*
X84900610Y54288951D01*
X84900612Y54288952D01*
X84918185Y54331379D01*
X84934940Y54371830D01*
X84934940Y54449994D01*
X85982940Y54449994D01*
X85982940Y54331376D01*
X86013641Y54216799D01*
X86072951Y54114072D01*
X86156827Y54030196D01*
X86259554Y53970886D01*
X86374131Y53940185D01*
X86374134Y53940185D01*
X86492746Y53940185D01*
X86492749Y53940185D01*
X86607326Y53970886D01*
X86710053Y54030196D01*
X86793929Y54114072D01*
X86853239Y54216799D01*
X86883940Y54331376D01*
X86883940Y54449994D01*
X86853239Y54564571D01*
X86793929Y54667298D01*
X86710053Y54751174D01*
X86607326Y54810484D01*
X86492749Y54841185D01*
X86374131Y54841185D01*
X86259554Y54810484D01*
X86259552Y54810484D01*
X86259552Y54810483D01*
X86156827Y54751174D01*
X86156824Y54751172D01*
X86072953Y54667301D01*
X86072951Y54667298D01*
X86013641Y54564571D01*
X85982940Y54449994D01*
X84934940Y54449994D01*
X84934940Y54461539D01*
X84934940Y55694889D01*
X84924558Y55719953D01*
X84900612Y55777768D01*
X84830111Y55848269D01*
X84830104Y55848275D01*
X84164447Y56513932D01*
X84153835Y56533366D01*
X84139334Y56550101D01*
X84137416Y56563434D01*
X84130962Y56575255D01*
X84132541Y56597342D01*
X84129390Y56619259D01*
X84134985Y56631512D01*
X84135946Y56644947D01*
X84149215Y56662673D01*
X84158414Y56682815D01*
X84169746Y56690099D01*
X84177818Y56700880D01*
X84198562Y56708618D01*
X84217192Y56720590D01*
X84239111Y56723742D01*
X84243282Y56725297D01*
X84252127Y56725613D01*
X84260154Y56725614D01*
X84260155Y56725613D01*
X84349864Y56725613D01*
X84349865Y56725614D01*
X84364305Y56725614D01*
X84680053Y56725614D01*
X84680061Y56725613D01*
X84694495Y56725613D01*
X84784204Y56725613D01*
X84784205Y56725613D01*
X84845913Y56751174D01*
X84867086Y56759944D01*
X84930520Y56823378D01*
X84930520Y56823380D01*
X85157767Y57050627D01*
X85157770Y57050629D01*
X85175208Y57068067D01*
X85175209Y57068067D01*
X85238643Y57131501D01*
X85265812Y57197093D01*
X85272974Y57214383D01*
X85272974Y57304092D01*
X85272973Y57304095D01*
X85272973Y58379571D01*
X85272974Y58379580D01*
X85272974Y58483722D01*
X85272974Y58483723D01*
X85238643Y58566603D01*
X85238643Y58566604D01*
X85175209Y58630038D01*
X85168144Y58637103D01*
X85168137Y58637109D01*
X85007323Y58797923D01*
X84973838Y58859246D01*
X84975037Y58909554D01*
X84974176Y58909667D01*
X84975231Y58917683D01*
X84975232Y58917707D01*
X84975237Y58917724D01*
X84975237Y59036342D01*
X84944536Y59150919D01*
X84885226Y59253646D01*
X84801350Y59337522D01*
X84698623Y59396832D01*
X84584046Y59427533D01*
X84465428Y59427533D01*
X84350851Y59396832D01*
X84350849Y59396832D01*
X84350849Y59396831D01*
X84248124Y59337522D01*
X84248121Y59337520D01*
X84164250Y59253649D01*
X84164248Y59253646D01*
X84104938Y59150919D01*
X84074237Y59036342D01*
X84074237Y58917724D01*
X84104938Y58803147D01*
X84164248Y58700420D01*
X84164250Y58700418D01*
X84170244Y58694424D01*
X84174580Y58686483D01*
X84181825Y58681060D01*
X84191062Y58656297D01*
X84203729Y58633101D01*
X84203083Y58624076D01*
X84206246Y58615598D01*
X84200630Y58589776D01*
X84198745Y58563409D01*
X84192928Y58554359D01*
X84191399Y58547324D01*
X84170250Y58519068D01*
X84163008Y58511825D01*
X84101687Y58478336D01*
X84075321Y58475500D01*
X82926429Y58475500D01*
X82859390Y58495185D01*
X82813635Y58547989D01*
X82803691Y58617147D01*
X82806654Y58631594D01*
X82834000Y58733650D01*
X82834000Y58866351D01*
X82799651Y58994541D01*
X82764693Y59055090D01*
X82507483Y58797879D01*
X82499537Y58793541D01*
X82494112Y58786293D01*
X82469352Y58777059D01*
X82446160Y58764394D01*
X82437130Y58765040D01*
X82428648Y58761876D01*
X82422960Y58763114D01*
X82430000Y58780109D01*
X82430000Y58819891D01*
X82414776Y58856645D01*
X82386645Y58884776D01*
X82349891Y58900000D01*
X82310109Y58900000D01*
X82273355Y58884776D01*
X82245224Y58856645D01*
X82230000Y58819891D01*
X82230000Y58780109D01*
X82235592Y58766609D01*
X82196863Y58769378D01*
X82152516Y58797879D01*
X81895306Y59055090D01*
X81895306Y59055089D01*
X81860347Y58994538D01*
X81849775Y58955080D01*
X81813410Y58895420D01*
X81750563Y58864891D01*
X81681187Y58873186D01*
X81627309Y58917671D01*
X81610225Y58955080D01*
X81599651Y58994541D01*
X81564693Y59055090D01*
X81307483Y58797879D01*
X81299537Y58793541D01*
X81294112Y58786293D01*
X81269352Y58777059D01*
X81246160Y58764394D01*
X81237130Y58765040D01*
X81228648Y58761876D01*
X81222960Y58763114D01*
X81230000Y58780109D01*
X81230000Y58819891D01*
X81214776Y58856645D01*
X81186645Y58884776D01*
X81149891Y58900000D01*
X81110109Y58900000D01*
X81073355Y58884776D01*
X81045224Y58856645D01*
X81030000Y58819891D01*
X81030000Y58780109D01*
X81035592Y58766609D01*
X80996863Y58769378D01*
X80952516Y58797879D01*
X80695306Y59055090D01*
X80695306Y59055089D01*
X80660347Y58994538D01*
X80649775Y58955080D01*
X80613410Y58895420D01*
X80550563Y58864891D01*
X80481187Y58873186D01*
X80427309Y58917671D01*
X80410225Y58955080D01*
X80399651Y58994541D01*
X80364693Y59055090D01*
X80364692Y59055090D01*
X80107483Y58797879D01*
X80099537Y58793541D01*
X80094112Y58786293D01*
X80069352Y58777059D01*
X80046160Y58764394D01*
X80037130Y58765040D01*
X80028648Y58761876D01*
X80022960Y58763114D01*
X80030000Y58780109D01*
X80030000Y58819891D01*
X80014776Y58856645D01*
X79986645Y58884776D01*
X79949891Y58900000D01*
X79910109Y58900000D01*
X79873355Y58884776D01*
X79845224Y58856645D01*
X79830000Y58819891D01*
X79830000Y58780109D01*
X79835592Y58766609D01*
X79796863Y58769378D01*
X79752516Y58797879D01*
X79495306Y59055090D01*
X79495306Y59055089D01*
X79460347Y58994538D01*
X79449775Y58955080D01*
X79413410Y58895420D01*
X79350563Y58864891D01*
X79281187Y58873186D01*
X79227309Y58917671D01*
X79210225Y58955080D01*
X79199651Y58994541D01*
X79164693Y59055090D01*
X79164692Y59055090D01*
X78907483Y58797879D01*
X78899537Y58793541D01*
X78894112Y58786293D01*
X78869352Y58777059D01*
X78846160Y58764394D01*
X78837130Y58765040D01*
X78828648Y58761876D01*
X78822960Y58763114D01*
X78830000Y58780109D01*
X78830000Y58819891D01*
X78814776Y58856645D01*
X78786645Y58884776D01*
X78749891Y58900000D01*
X78710109Y58900000D01*
X78673355Y58884776D01*
X78645224Y58856645D01*
X78630000Y58819891D01*
X78630000Y58780109D01*
X78635592Y58766609D01*
X78596863Y58769378D01*
X78552516Y58797879D01*
X78295306Y59055090D01*
X78295306Y59055089D01*
X78260347Y58994538D01*
X78226000Y58866351D01*
X78226000Y58733650D01*
X78253346Y58631594D01*
X78251683Y58561744D01*
X78212521Y58503881D01*
X78148292Y58476377D01*
X78133571Y58475500D01*
X75119179Y58475500D01*
X75119177Y58475501D01*
X75029468Y58475501D01*
X74983222Y58456345D01*
X74968878Y58450404D01*
X74968874Y58450403D01*
X74946586Y58441171D01*
X74883151Y58377735D01*
X72725556Y56220141D01*
X72664233Y56186656D01*
X72605784Y56188047D01*
X72559309Y56200500D01*
X72440691Y56200500D01*
X72326114Y56169799D01*
X72326112Y56169799D01*
X72326112Y56169798D01*
X72223387Y56110489D01*
X72223384Y56110487D01*
X72139513Y56026616D01*
X72139511Y56026613D01*
X72115792Y55985530D01*
X72080201Y55923886D01*
X72049500Y55809309D01*
X70161266Y55809309D01*
X70073836Y55896739D01*
X69960780Y55962012D01*
X69834681Y55995800D01*
X69704135Y55995800D01*
X69578036Y55962012D01*
X69578033Y55962011D01*
X69464983Y55896741D01*
X69464977Y55896737D01*
X69372671Y55804431D01*
X69372667Y55804425D01*
X69307397Y55691375D01*
X69307396Y55691372D01*
X69273608Y55565273D01*
X66750500Y55565273D01*
X66750500Y59565307D01*
X78474910Y59565307D01*
X78535459Y59530349D01*
X78535458Y59530349D01*
X78574920Y59519775D01*
X78634580Y59483410D01*
X78665109Y59420563D01*
X78656814Y59351187D01*
X78612329Y59297309D01*
X78574920Y59280225D01*
X78535462Y59269653D01*
X78474911Y59234694D01*
X78474910Y59234694D01*
X78729999Y58979606D01*
X78985087Y59234694D01*
X78924539Y59269652D01*
X78924536Y59269653D01*
X78885080Y59280225D01*
X78825419Y59316590D01*
X78794890Y59379437D01*
X78803185Y59448812D01*
X78847670Y59502690D01*
X78885080Y59519775D01*
X78924534Y59530347D01*
X78985086Y59565307D01*
X79674910Y59565307D01*
X79735459Y59530349D01*
X79735458Y59530349D01*
X79774920Y59519775D01*
X79834580Y59483410D01*
X79865109Y59420563D01*
X79856814Y59351187D01*
X79812329Y59297309D01*
X79774920Y59280225D01*
X79735462Y59269653D01*
X79674911Y59234694D01*
X79674910Y59234694D01*
X79929999Y58979606D01*
X80185088Y59234694D01*
X80124539Y59269652D01*
X80124536Y59269653D01*
X80085080Y59280225D01*
X80025419Y59316590D01*
X79994890Y59379437D01*
X80003185Y59448812D01*
X80047670Y59502690D01*
X80085080Y59519775D01*
X80124534Y59530347D01*
X80185086Y59565307D01*
X80874910Y59565307D01*
X80935459Y59530349D01*
X80935458Y59530349D01*
X80974920Y59519775D01*
X81034580Y59483410D01*
X81065109Y59420563D01*
X81056814Y59351187D01*
X81012329Y59297309D01*
X80974920Y59280225D01*
X80935462Y59269653D01*
X80874911Y59234694D01*
X80874910Y59234694D01*
X81129999Y58979606D01*
X81385087Y59234694D01*
X81324539Y59269652D01*
X81324536Y59269653D01*
X81285080Y59280225D01*
X81225419Y59316590D01*
X81194890Y59379437D01*
X81203185Y59448812D01*
X81247670Y59502690D01*
X81285080Y59519775D01*
X81324534Y59530347D01*
X81385086Y59565307D01*
X82074910Y59565307D01*
X82135459Y59530349D01*
X82135458Y59530349D01*
X82174920Y59519775D01*
X82234580Y59483410D01*
X82265109Y59420563D01*
X82256814Y59351187D01*
X82212329Y59297309D01*
X82174920Y59280225D01*
X82135462Y59269653D01*
X82074911Y59234694D01*
X82074910Y59234694D01*
X82329999Y58979606D01*
X82585088Y59234694D01*
X82524539Y59269652D01*
X82524536Y59269653D01*
X82485080Y59280225D01*
X82425419Y59316590D01*
X82394890Y59379437D01*
X82403185Y59448812D01*
X82447670Y59502690D01*
X82485080Y59519775D01*
X82524534Y59530347D01*
X82585088Y59565308D01*
X82330001Y59820395D01*
X82074910Y59565307D01*
X81385086Y59565307D01*
X81385088Y59565308D01*
X81130001Y59820395D01*
X80874910Y59565307D01*
X80185086Y59565307D01*
X80185088Y59565308D01*
X79930001Y59820395D01*
X79674910Y59565307D01*
X78985086Y59565307D01*
X78985088Y59565308D01*
X78730001Y59820395D01*
X78474910Y59565307D01*
X66750500Y59565307D01*
X66750500Y60559309D01*
X71049500Y60559309D01*
X71049500Y60440691D01*
X71080201Y60326114D01*
X71139511Y60223387D01*
X71223387Y60139511D01*
X71326114Y60080201D01*
X71440691Y60049500D01*
X71440694Y60049500D01*
X71559306Y60049500D01*
X71559309Y60049500D01*
X71622197Y60066351D01*
X78226000Y60066351D01*
X78226000Y59933650D01*
X78260347Y59805462D01*
X78260348Y59805461D01*
X78295306Y59744913D01*
X78295307Y59744912D01*
X78550394Y59999999D01*
X78550394Y60000000D01*
X78530503Y60019891D01*
X78630000Y60019891D01*
X78630000Y59980109D01*
X78645224Y59943355D01*
X78673355Y59915224D01*
X78710109Y59900000D01*
X78749891Y59900000D01*
X78786645Y59915224D01*
X78814776Y59943355D01*
X78830000Y59980109D01*
X78830000Y60000000D01*
X78909605Y60000000D01*
X78909605Y59999999D01*
X79164692Y59744912D01*
X79199653Y59805466D01*
X79210225Y59844920D01*
X79246590Y59904581D01*
X79309437Y59935110D01*
X79378812Y59926815D01*
X79432690Y59882330D01*
X79449775Y59844920D01*
X79460347Y59805464D01*
X79460348Y59805461D01*
X79495306Y59744913D01*
X79495307Y59744912D01*
X79750394Y59999999D01*
X79750394Y60000000D01*
X79730503Y60019891D01*
X79830000Y60019891D01*
X79830000Y59980109D01*
X79845224Y59943355D01*
X79873355Y59915224D01*
X79910109Y59900000D01*
X79949891Y59900000D01*
X79986645Y59915224D01*
X80014776Y59943355D01*
X80030000Y59980109D01*
X80030000Y60000000D01*
X80109605Y60000000D01*
X80109605Y59999999D01*
X80364692Y59744912D01*
X80399653Y59805466D01*
X80410225Y59844920D01*
X80446590Y59904581D01*
X80509437Y59935110D01*
X80578812Y59926815D01*
X80632690Y59882330D01*
X80649775Y59844920D01*
X80660347Y59805464D01*
X80660348Y59805461D01*
X80695306Y59744913D01*
X80695307Y59744912D01*
X80950394Y59999999D01*
X80950394Y60000000D01*
X80930503Y60019891D01*
X81030000Y60019891D01*
X81030000Y59980109D01*
X81045224Y59943355D01*
X81073355Y59915224D01*
X81110109Y59900000D01*
X81149891Y59900000D01*
X81186645Y59915224D01*
X81214776Y59943355D01*
X81230000Y59980109D01*
X81230000Y60000000D01*
X81309605Y60000000D01*
X81309605Y59999999D01*
X81564692Y59744912D01*
X81599653Y59805466D01*
X81610225Y59844920D01*
X81646590Y59904581D01*
X81709437Y59935110D01*
X81778812Y59926815D01*
X81832690Y59882330D01*
X81849775Y59844920D01*
X81860347Y59805464D01*
X81860348Y59805461D01*
X81895306Y59744913D01*
X81895307Y59744912D01*
X82150394Y59999999D01*
X82150394Y60000000D01*
X82130503Y60019891D01*
X82230000Y60019891D01*
X82230000Y59980109D01*
X82245224Y59943355D01*
X82273355Y59915224D01*
X82310109Y59900000D01*
X82349891Y59900000D01*
X82386645Y59915224D01*
X82414776Y59943355D01*
X82430000Y59980109D01*
X82430000Y60000000D01*
X82509605Y60000000D01*
X82509605Y59999999D01*
X82764692Y59744912D01*
X82799652Y59805465D01*
X82834000Y59933650D01*
X82834000Y60066351D01*
X82799651Y60194541D01*
X82764693Y60255090D01*
X82509605Y60000000D01*
X82430000Y60000000D01*
X82430000Y60019891D01*
X82414776Y60056645D01*
X82386645Y60084776D01*
X82349891Y60100000D01*
X82310109Y60100000D01*
X82273355Y60084776D01*
X82245224Y60056645D01*
X82230000Y60019891D01*
X82130503Y60019891D01*
X81895305Y60255089D01*
X81860347Y60194538D01*
X81849775Y60155080D01*
X81813410Y60095420D01*
X81750563Y60064891D01*
X81681187Y60073186D01*
X81627309Y60117671D01*
X81610225Y60155080D01*
X81599651Y60194541D01*
X81564693Y60255090D01*
X81309605Y60000000D01*
X81230000Y60000000D01*
X81230000Y60019891D01*
X81214776Y60056645D01*
X81186645Y60084776D01*
X81149891Y60100000D01*
X81110109Y60100000D01*
X81073355Y60084776D01*
X81045224Y60056645D01*
X81030000Y60019891D01*
X80930503Y60019891D01*
X80695306Y60255089D01*
X80660347Y60194538D01*
X80649775Y60155080D01*
X80613410Y60095420D01*
X80550563Y60064891D01*
X80481187Y60073186D01*
X80427309Y60117671D01*
X80410225Y60155080D01*
X80399651Y60194541D01*
X80364693Y60255090D01*
X80109605Y60000000D01*
X80030000Y60000000D01*
X80030000Y60019891D01*
X80014776Y60056645D01*
X79986645Y60084776D01*
X79949891Y60100000D01*
X79910109Y60100000D01*
X79873355Y60084776D01*
X79845224Y60056645D01*
X79830000Y60019891D01*
X79730503Y60019891D01*
X79495306Y60255089D01*
X79460347Y60194538D01*
X79449775Y60155080D01*
X79413410Y60095420D01*
X79350563Y60064891D01*
X79281187Y60073186D01*
X79227309Y60117671D01*
X79210225Y60155080D01*
X79199651Y60194541D01*
X79164693Y60255090D01*
X78909605Y60000000D01*
X78830000Y60000000D01*
X78830000Y60019891D01*
X78814776Y60056645D01*
X78786645Y60084776D01*
X78749891Y60100000D01*
X78710109Y60100000D01*
X78673355Y60084776D01*
X78645224Y60056645D01*
X78630000Y60019891D01*
X78530503Y60019891D01*
X78295305Y60255089D01*
X78260347Y60194538D01*
X78226000Y60066351D01*
X71622197Y60066351D01*
X71673886Y60080201D01*
X71776613Y60139511D01*
X71860489Y60223387D01*
X71919799Y60326114D01*
X71950500Y60440691D01*
X71950500Y60559309D01*
X71919799Y60673886D01*
X71867017Y60765307D01*
X78474910Y60765307D01*
X78535459Y60730349D01*
X78535458Y60730349D01*
X78574920Y60719775D01*
X78634580Y60683410D01*
X78665109Y60620563D01*
X78656814Y60551187D01*
X78612329Y60497309D01*
X78574920Y60480225D01*
X78535462Y60469653D01*
X78474911Y60434694D01*
X78730000Y60179606D01*
X78985088Y60434693D01*
X78985087Y60434694D01*
X78924539Y60469652D01*
X78924536Y60469653D01*
X78885080Y60480225D01*
X78825419Y60516590D01*
X78794890Y60579437D01*
X78803185Y60648812D01*
X78847670Y60702690D01*
X78885080Y60719775D01*
X78924534Y60730347D01*
X78985086Y60765307D01*
X79674910Y60765307D01*
X79735459Y60730349D01*
X79735458Y60730349D01*
X79774920Y60719775D01*
X79834580Y60683410D01*
X79865109Y60620563D01*
X79856814Y60551187D01*
X79812329Y60497309D01*
X79774920Y60480225D01*
X79735462Y60469653D01*
X79674911Y60434694D01*
X79930000Y60179606D01*
X80185088Y60434693D01*
X80185087Y60434694D01*
X80124539Y60469652D01*
X80124536Y60469653D01*
X80085080Y60480225D01*
X80025419Y60516590D01*
X79994890Y60579437D01*
X80003185Y60648812D01*
X80047670Y60702690D01*
X80085080Y60719775D01*
X80124534Y60730347D01*
X80185086Y60765307D01*
X80874910Y60765307D01*
X80935459Y60730349D01*
X80935458Y60730349D01*
X80974920Y60719775D01*
X81034580Y60683410D01*
X81065109Y60620563D01*
X81056814Y60551187D01*
X81012329Y60497309D01*
X80974920Y60480225D01*
X80935462Y60469653D01*
X80874911Y60434694D01*
X81130000Y60179606D01*
X81385088Y60434693D01*
X81385087Y60434694D01*
X81324539Y60469652D01*
X81324536Y60469653D01*
X81285080Y60480225D01*
X81225419Y60516590D01*
X81194890Y60579437D01*
X81203185Y60648812D01*
X81247670Y60702690D01*
X81285080Y60719775D01*
X81324534Y60730347D01*
X81385086Y60765307D01*
X82074910Y60765307D01*
X82135459Y60730349D01*
X82135458Y60730349D01*
X82174920Y60719775D01*
X82234580Y60683410D01*
X82265109Y60620563D01*
X82256814Y60551187D01*
X82212329Y60497309D01*
X82174920Y60480225D01*
X82135462Y60469653D01*
X82074911Y60434694D01*
X82330000Y60179606D01*
X82585088Y60434693D01*
X82585087Y60434694D01*
X82524539Y60469652D01*
X82524536Y60469653D01*
X82485080Y60480225D01*
X82425419Y60516590D01*
X82394890Y60579437D01*
X82403185Y60648812D01*
X82447670Y60702690D01*
X82485080Y60719775D01*
X82524534Y60730347D01*
X82585088Y60765308D01*
X82330001Y61020395D01*
X82074910Y60765307D01*
X81385086Y60765307D01*
X81385088Y60765308D01*
X81130001Y61020395D01*
X80874910Y60765307D01*
X80185086Y60765307D01*
X80185088Y60765308D01*
X79930001Y61020395D01*
X79674910Y60765307D01*
X78985086Y60765307D01*
X78985088Y60765308D01*
X78730001Y61020395D01*
X78474910Y60765307D01*
X71867017Y60765307D01*
X71860489Y60776613D01*
X71776613Y60860489D01*
X71673886Y60919799D01*
X71559309Y60950500D01*
X71440691Y60950500D01*
X71326114Y60919799D01*
X71326112Y60919799D01*
X71326112Y60919798D01*
X71223387Y60860489D01*
X71223384Y60860487D01*
X71139513Y60776616D01*
X71139511Y60776613D01*
X71080201Y60673886D01*
X71049500Y60559309D01*
X66750500Y60559309D01*
X66750500Y61266351D01*
X78226000Y61266351D01*
X78226000Y61133650D01*
X78260347Y61005462D01*
X78260348Y61005461D01*
X78295306Y60944913D01*
X78295307Y60944912D01*
X78550394Y61199999D01*
X78550394Y61200000D01*
X78530503Y61219891D01*
X78630000Y61219891D01*
X78630000Y61180109D01*
X78645224Y61143355D01*
X78673355Y61115224D01*
X78710109Y61100000D01*
X78749891Y61100000D01*
X78786645Y61115224D01*
X78814776Y61143355D01*
X78830000Y61180109D01*
X78830000Y61200000D01*
X78909605Y61200000D01*
X78909605Y61199999D01*
X79164692Y60944912D01*
X79199653Y61005466D01*
X79210225Y61044920D01*
X79246590Y61104581D01*
X79309437Y61135110D01*
X79378812Y61126815D01*
X79432690Y61082330D01*
X79449775Y61044920D01*
X79460347Y61005464D01*
X79460348Y61005461D01*
X79495306Y60944913D01*
X79495307Y60944912D01*
X79750394Y61199999D01*
X79750394Y61200000D01*
X79730503Y61219891D01*
X79830000Y61219891D01*
X79830000Y61180109D01*
X79845224Y61143355D01*
X79873355Y61115224D01*
X79910109Y61100000D01*
X79949891Y61100000D01*
X79986645Y61115224D01*
X80014776Y61143355D01*
X80030000Y61180109D01*
X80030000Y61200000D01*
X80109605Y61200000D01*
X80109605Y61199999D01*
X80364692Y60944912D01*
X80399653Y61005466D01*
X80410225Y61044920D01*
X80446590Y61104581D01*
X80509437Y61135110D01*
X80578812Y61126815D01*
X80632690Y61082330D01*
X80649775Y61044920D01*
X80660347Y61005464D01*
X80660348Y61005461D01*
X80695306Y60944913D01*
X80695307Y60944912D01*
X80950394Y61199999D01*
X80950394Y61200000D01*
X80930503Y61219891D01*
X81030000Y61219891D01*
X81030000Y61180109D01*
X81045224Y61143355D01*
X81073355Y61115224D01*
X81110109Y61100000D01*
X81149891Y61100000D01*
X81186645Y61115224D01*
X81214776Y61143355D01*
X81230000Y61180109D01*
X81230000Y61200000D01*
X81309605Y61200000D01*
X81309605Y61199999D01*
X81564692Y60944912D01*
X81599653Y61005466D01*
X81610225Y61044920D01*
X81646590Y61104581D01*
X81709437Y61135110D01*
X81778812Y61126815D01*
X81832690Y61082330D01*
X81849775Y61044920D01*
X81860347Y61005464D01*
X81860348Y61005461D01*
X81895306Y60944913D01*
X81895307Y60944912D01*
X82150394Y61199999D01*
X82150394Y61200000D01*
X82130503Y61219891D01*
X82230000Y61219891D01*
X82230000Y61180109D01*
X82245224Y61143355D01*
X82273355Y61115224D01*
X82310109Y61100000D01*
X82349891Y61100000D01*
X82386645Y61115224D01*
X82414776Y61143355D01*
X82430000Y61180109D01*
X82430000Y61200000D01*
X82509605Y61200000D01*
X82509605Y61199999D01*
X82764692Y60944912D01*
X82799652Y61005465D01*
X82834000Y61133650D01*
X82834000Y61266351D01*
X82799651Y61394541D01*
X82764693Y61455090D01*
X82509605Y61200000D01*
X82430000Y61200000D01*
X82430000Y61219891D01*
X82414776Y61256645D01*
X82386645Y61284776D01*
X82349891Y61300000D01*
X82310109Y61300000D01*
X82273355Y61284776D01*
X82245224Y61256645D01*
X82230000Y61219891D01*
X82130503Y61219891D01*
X81895306Y61455089D01*
X81860347Y61394538D01*
X81849775Y61355080D01*
X81813410Y61295420D01*
X81750563Y61264891D01*
X81681187Y61273186D01*
X81627309Y61317671D01*
X81610225Y61355080D01*
X81599651Y61394541D01*
X81564693Y61455090D01*
X81309605Y61200000D01*
X81230000Y61200000D01*
X81230000Y61219891D01*
X81214776Y61256645D01*
X81186645Y61284776D01*
X81149891Y61300000D01*
X81110109Y61300000D01*
X81073355Y61284776D01*
X81045224Y61256645D01*
X81030000Y61219891D01*
X80930503Y61219891D01*
X80695306Y61455089D01*
X80660347Y61394538D01*
X80649775Y61355080D01*
X80613410Y61295420D01*
X80550563Y61264891D01*
X80481187Y61273186D01*
X80427309Y61317671D01*
X80410225Y61355080D01*
X80399651Y61394541D01*
X80364693Y61455090D01*
X80109605Y61200000D01*
X80030000Y61200000D01*
X80030000Y61219891D01*
X80014776Y61256645D01*
X79986645Y61284776D01*
X79949891Y61300000D01*
X79910109Y61300000D01*
X79873355Y61284776D01*
X79845224Y61256645D01*
X79830000Y61219891D01*
X79730503Y61219891D01*
X79495305Y61455089D01*
X79460347Y61394538D01*
X79449775Y61355080D01*
X79413410Y61295420D01*
X79350563Y61264891D01*
X79281187Y61273186D01*
X79227309Y61317671D01*
X79210225Y61355080D01*
X79199651Y61394541D01*
X79164693Y61455090D01*
X78909605Y61200000D01*
X78830000Y61200000D01*
X78830000Y61219891D01*
X78814776Y61256645D01*
X78786645Y61284776D01*
X78749891Y61300000D01*
X78710109Y61300000D01*
X78673355Y61284776D01*
X78645224Y61256645D01*
X78630000Y61219891D01*
X78530503Y61219891D01*
X78295306Y61455089D01*
X78260347Y61394538D01*
X78226000Y61266351D01*
X66750500Y61266351D01*
X66750500Y61965307D01*
X78474910Y61965307D01*
X78535459Y61930349D01*
X78535458Y61930349D01*
X78574920Y61919775D01*
X78634580Y61883410D01*
X78665109Y61820563D01*
X78656814Y61751187D01*
X78612329Y61697309D01*
X78574920Y61680225D01*
X78535462Y61669653D01*
X78474911Y61634694D01*
X78730000Y61379606D01*
X78985088Y61634693D01*
X78985087Y61634694D01*
X78924539Y61669652D01*
X78924536Y61669653D01*
X78885080Y61680225D01*
X78825419Y61716590D01*
X78794890Y61779437D01*
X78803185Y61848812D01*
X78847670Y61902690D01*
X78885080Y61919775D01*
X78924534Y61930347D01*
X78985086Y61965307D01*
X79674910Y61965307D01*
X79735459Y61930349D01*
X79735458Y61930349D01*
X79774920Y61919775D01*
X79834580Y61883410D01*
X79865109Y61820563D01*
X79856814Y61751187D01*
X79812329Y61697309D01*
X79774920Y61680225D01*
X79735462Y61669653D01*
X79674911Y61634694D01*
X79930000Y61379606D01*
X80185088Y61634693D01*
X80185087Y61634694D01*
X80124539Y61669652D01*
X80124536Y61669653D01*
X80085080Y61680225D01*
X80025419Y61716590D01*
X79994890Y61779437D01*
X80003185Y61848812D01*
X80047670Y61902690D01*
X80085080Y61919775D01*
X80124534Y61930347D01*
X80185086Y61965307D01*
X80874910Y61965307D01*
X80935459Y61930349D01*
X80935458Y61930349D01*
X80974920Y61919775D01*
X81034580Y61883410D01*
X81065109Y61820563D01*
X81056814Y61751187D01*
X81012329Y61697309D01*
X80974920Y61680225D01*
X80935462Y61669653D01*
X80874911Y61634694D01*
X81130000Y61379606D01*
X81385088Y61634693D01*
X81385087Y61634694D01*
X81324539Y61669652D01*
X81324536Y61669653D01*
X81285080Y61680225D01*
X81225419Y61716590D01*
X81194890Y61779437D01*
X81203185Y61848812D01*
X81247670Y61902690D01*
X81285080Y61919775D01*
X81324534Y61930347D01*
X81385086Y61965307D01*
X82074910Y61965307D01*
X82135459Y61930349D01*
X82135458Y61930349D01*
X82174920Y61919775D01*
X82234580Y61883410D01*
X82265109Y61820563D01*
X82256814Y61751187D01*
X82212329Y61697309D01*
X82174920Y61680225D01*
X82135462Y61669653D01*
X82074911Y61634694D01*
X82330000Y61379606D01*
X82585088Y61634693D01*
X82585087Y61634694D01*
X82524539Y61669652D01*
X82524536Y61669653D01*
X82485080Y61680225D01*
X82425419Y61716590D01*
X82394890Y61779437D01*
X82403185Y61848812D01*
X82447670Y61902690D01*
X82485080Y61919775D01*
X82524534Y61930347D01*
X82585088Y61965308D01*
X82330001Y62220395D01*
X82074910Y61965307D01*
X81385086Y61965307D01*
X81385088Y61965308D01*
X81130001Y62220395D01*
X80874910Y61965307D01*
X80185086Y61965307D01*
X80185088Y61965308D01*
X79930001Y62220395D01*
X79674910Y61965307D01*
X78985086Y61965307D01*
X78985088Y61965308D01*
X78730001Y62220395D01*
X78474910Y61965307D01*
X66750500Y61965307D01*
X66750500Y62466351D01*
X78226000Y62466351D01*
X78226000Y62333650D01*
X78260347Y62205462D01*
X78260348Y62205461D01*
X78295306Y62144913D01*
X78295307Y62144912D01*
X78550394Y62399999D01*
X78550394Y62400000D01*
X78530503Y62419891D01*
X78630000Y62419891D01*
X78630000Y62380109D01*
X78645224Y62343355D01*
X78673355Y62315224D01*
X78710109Y62300000D01*
X78749891Y62300000D01*
X78786645Y62315224D01*
X78814776Y62343355D01*
X78830000Y62380109D01*
X78830000Y62400000D01*
X78909605Y62400000D01*
X78909605Y62399999D01*
X79164692Y62144912D01*
X79199653Y62205466D01*
X79210225Y62244920D01*
X79246590Y62304581D01*
X79309437Y62335110D01*
X79378812Y62326815D01*
X79432690Y62282330D01*
X79449775Y62244920D01*
X79460347Y62205464D01*
X79460348Y62205461D01*
X79495306Y62144913D01*
X79495307Y62144912D01*
X79750394Y62399999D01*
X79750394Y62400000D01*
X79730503Y62419891D01*
X79830000Y62419891D01*
X79830000Y62380109D01*
X79845224Y62343355D01*
X79873355Y62315224D01*
X79910109Y62300000D01*
X79949891Y62300000D01*
X79986645Y62315224D01*
X80014776Y62343355D01*
X80030000Y62380109D01*
X80030000Y62400000D01*
X80109605Y62400000D01*
X80109605Y62399999D01*
X80364692Y62144912D01*
X80399653Y62205466D01*
X80410225Y62244920D01*
X80446590Y62304581D01*
X80509437Y62335110D01*
X80578812Y62326815D01*
X80632690Y62282330D01*
X80649775Y62244920D01*
X80660347Y62205464D01*
X80660348Y62205461D01*
X80695306Y62144913D01*
X80695307Y62144912D01*
X80950394Y62399999D01*
X80950394Y62400000D01*
X80930503Y62419891D01*
X81030000Y62419891D01*
X81030000Y62380109D01*
X81045224Y62343355D01*
X81073355Y62315224D01*
X81110109Y62300000D01*
X81149891Y62300000D01*
X81186645Y62315224D01*
X81214776Y62343355D01*
X81230000Y62380109D01*
X81230000Y62400000D01*
X81309605Y62400000D01*
X81309605Y62399999D01*
X81564692Y62144912D01*
X81599653Y62205466D01*
X81610225Y62244920D01*
X81646590Y62304581D01*
X81709437Y62335110D01*
X81778812Y62326815D01*
X81832690Y62282330D01*
X81849775Y62244920D01*
X81860347Y62205464D01*
X81860348Y62205461D01*
X81895306Y62144913D01*
X81895307Y62144912D01*
X82150394Y62399999D01*
X82150394Y62400000D01*
X82130503Y62419891D01*
X82230000Y62419891D01*
X82230000Y62380109D01*
X82245224Y62343355D01*
X82273355Y62315224D01*
X82310109Y62300000D01*
X82349891Y62300000D01*
X82386645Y62315224D01*
X82414776Y62343355D01*
X82430000Y62380109D01*
X82430000Y62400000D01*
X82509605Y62400000D01*
X82509605Y62399999D01*
X82764692Y62144912D01*
X82799652Y62205465D01*
X82834000Y62333650D01*
X82834000Y62466351D01*
X82799651Y62594541D01*
X82764693Y62655090D01*
X82509605Y62400000D01*
X82430000Y62400000D01*
X82430000Y62419891D01*
X82414776Y62456645D01*
X82386645Y62484776D01*
X82349891Y62500000D01*
X82310109Y62500000D01*
X82273355Y62484776D01*
X82245224Y62456645D01*
X82230000Y62419891D01*
X82130503Y62419891D01*
X81895306Y62655089D01*
X81860347Y62594538D01*
X81849775Y62555080D01*
X81813410Y62495420D01*
X81750563Y62464891D01*
X81681187Y62473186D01*
X81627309Y62517671D01*
X81610225Y62555080D01*
X81599651Y62594541D01*
X81564693Y62655090D01*
X81309605Y62400000D01*
X81230000Y62400000D01*
X81230000Y62419891D01*
X81214776Y62456645D01*
X81186645Y62484776D01*
X81149891Y62500000D01*
X81110109Y62500000D01*
X81073355Y62484776D01*
X81045224Y62456645D01*
X81030000Y62419891D01*
X80930503Y62419891D01*
X80695306Y62655089D01*
X80660347Y62594538D01*
X80649775Y62555080D01*
X80613410Y62495420D01*
X80550563Y62464891D01*
X80481187Y62473186D01*
X80427309Y62517671D01*
X80410225Y62555080D01*
X80399651Y62594541D01*
X80364693Y62655090D01*
X80109605Y62400000D01*
X80030000Y62400000D01*
X80030000Y62419891D01*
X80014776Y62456645D01*
X79986645Y62484776D01*
X79949891Y62500000D01*
X79910109Y62500000D01*
X79873355Y62484776D01*
X79845224Y62456645D01*
X79830000Y62419891D01*
X79730503Y62419891D01*
X79495305Y62655089D01*
X79460347Y62594538D01*
X79449775Y62555080D01*
X79413410Y62495420D01*
X79350563Y62464891D01*
X79281187Y62473186D01*
X79227309Y62517671D01*
X79210225Y62555080D01*
X79199651Y62594541D01*
X79164693Y62655090D01*
X78909605Y62400000D01*
X78830000Y62400000D01*
X78830000Y62419891D01*
X78814776Y62456645D01*
X78786645Y62484776D01*
X78749891Y62500000D01*
X78710109Y62500000D01*
X78673355Y62484776D01*
X78645224Y62456645D01*
X78630000Y62419891D01*
X78530503Y62419891D01*
X78295306Y62655089D01*
X78260347Y62594538D01*
X78226000Y62466351D01*
X66750500Y62466351D01*
X66750500Y62834694D01*
X78474911Y62834694D01*
X78730000Y62579606D01*
X78985088Y62834693D01*
X78985087Y62834694D01*
X79674911Y62834694D01*
X79930000Y62579606D01*
X80185088Y62834693D01*
X80185087Y62834694D01*
X80874911Y62834694D01*
X81130000Y62579606D01*
X81385088Y62834693D01*
X81385087Y62834694D01*
X82074911Y62834694D01*
X82330000Y62579606D01*
X82585088Y62834693D01*
X82585087Y62834694D01*
X82524539Y62869652D01*
X82524538Y62869653D01*
X82396350Y62904000D01*
X82263650Y62904000D01*
X82135462Y62869653D01*
X82074911Y62834694D01*
X81385087Y62834694D01*
X81324539Y62869652D01*
X81324538Y62869653D01*
X81196350Y62904000D01*
X81063650Y62904000D01*
X80935462Y62869653D01*
X80874911Y62834694D01*
X80185087Y62834694D01*
X80124539Y62869652D01*
X80124538Y62869653D01*
X79996350Y62904000D01*
X79863650Y62904000D01*
X79735462Y62869653D01*
X79674911Y62834694D01*
X78985087Y62834694D01*
X78924539Y62869652D01*
X78924538Y62869653D01*
X78796350Y62904000D01*
X78663650Y62904000D01*
X78535462Y62869653D01*
X78474911Y62834694D01*
X66750500Y62834694D01*
X66750500Y64559309D01*
X76849500Y64559309D01*
X76849500Y64440691D01*
X76880201Y64326114D01*
X76939511Y64223387D01*
X77023387Y64139511D01*
X77126114Y64080201D01*
X77240691Y64049500D01*
X77240694Y64049500D01*
X77359306Y64049500D01*
X77359309Y64049500D01*
X77473886Y64080201D01*
X77576613Y64139511D01*
X77660489Y64223387D01*
X77719799Y64326114D01*
X77750500Y64440691D01*
X77750500Y64459309D01*
X83349500Y64459309D01*
X83349500Y64340691D01*
X83380201Y64226114D01*
X83439511Y64123387D01*
X83523387Y64039511D01*
X83626114Y63980201D01*
X83740691Y63949500D01*
X83740694Y63949500D01*
X83859306Y63949500D01*
X83859309Y63949500D01*
X83973886Y63980201D01*
X84076613Y64039511D01*
X84160489Y64123387D01*
X84219799Y64226114D01*
X84250500Y64340691D01*
X84250500Y64459309D01*
X84219799Y64573886D01*
X84160489Y64676613D01*
X84076613Y64760489D01*
X83973886Y64819799D01*
X83859309Y64850500D01*
X83740691Y64850500D01*
X83626114Y64819799D01*
X83626112Y64819799D01*
X83626112Y64819798D01*
X83523387Y64760489D01*
X83523384Y64760487D01*
X83439513Y64676616D01*
X83439511Y64676613D01*
X83380201Y64573886D01*
X83349500Y64459309D01*
X77750500Y64459309D01*
X77750500Y64559309D01*
X77719799Y64673886D01*
X77660489Y64776613D01*
X77576613Y64860489D01*
X77473886Y64919799D01*
X77359309Y64950500D01*
X77240691Y64950500D01*
X77126114Y64919799D01*
X77126112Y64919799D01*
X77126112Y64919798D01*
X77023387Y64860489D01*
X77023384Y64860487D01*
X76939513Y64776616D01*
X76939511Y64776613D01*
X76880201Y64673886D01*
X76849500Y64559309D01*
X66750500Y64559309D01*
X66750500Y67531114D01*
X72254602Y67531114D01*
X72254602Y67412496D01*
X72285303Y67297919D01*
X72344613Y67195192D01*
X72428489Y67111316D01*
X72531216Y67052006D01*
X72645793Y67021305D01*
X72645796Y67021305D01*
X72764408Y67021305D01*
X72764411Y67021305D01*
X72878988Y67052006D01*
X72981715Y67111316D01*
X73065591Y67195192D01*
X73124901Y67297919D01*
X73155602Y67412496D01*
X73155602Y67531114D01*
X73124901Y67645691D01*
X73065591Y67748418D01*
X72981715Y67832294D01*
X72878988Y67891604D01*
X72764411Y67922305D01*
X72645793Y67922305D01*
X72531216Y67891604D01*
X72531214Y67891604D01*
X72531214Y67891603D01*
X72428489Y67832294D01*
X72428486Y67832292D01*
X72344615Y67748421D01*
X72344613Y67748418D01*
X72285303Y67645691D01*
X72254602Y67531114D01*
X66750500Y67531114D01*
X66750500Y69539561D01*
X68104558Y69539561D01*
X68104558Y69539558D01*
X68124870Y69424363D01*
X68124871Y69424358D01*
X68181488Y69321998D01*
X68181488Y69321997D01*
X68231601Y69274791D01*
X68231603Y69274789D01*
X68231606Y69274787D01*
X70048543Y68002553D01*
X70088233Y67974762D01*
X70149732Y67943818D01*
X70149733Y67943818D01*
X70149735Y67943817D01*
X70265288Y67925623D01*
X70380487Y67945936D01*
X70482848Y68002553D01*
X70530059Y68052671D01*
X72346301Y70646532D01*
X72348837Y70651573D01*
X72377247Y70708034D01*
X72377247Y70708036D01*
X72377248Y70708037D01*
X72395442Y70823589D01*
X72375129Y70938789D01*
X72348190Y70987494D01*
X78450440Y70987494D01*
X78450440Y70868876D01*
X78481141Y70754299D01*
X78540451Y70651572D01*
X78624327Y70567696D01*
X78727054Y70508386D01*
X78841631Y70477685D01*
X78841634Y70477685D01*
X78960246Y70477685D01*
X78960249Y70477685D01*
X79074826Y70508386D01*
X79177553Y70567696D01*
X79261429Y70651572D01*
X79320739Y70754299D01*
X79351440Y70868876D01*
X79351440Y70987494D01*
X79320739Y71102071D01*
X79261429Y71204798D01*
X79177553Y71288674D01*
X79074826Y71347984D01*
X78960249Y71378685D01*
X78841631Y71378685D01*
X78727054Y71347984D01*
X78727052Y71347984D01*
X78727052Y71347983D01*
X78624327Y71288674D01*
X78624324Y71288672D01*
X78540453Y71204801D01*
X78540451Y71204798D01*
X78481141Y71102071D01*
X78450440Y70987494D01*
X72348190Y70987494D01*
X72318512Y71041151D01*
X72318511Y71041152D01*
X72268398Y71088358D01*
X72102100Y71204801D01*
X70451457Y72360595D01*
X70411766Y72388387D01*
X70350267Y72419331D01*
X70234714Y72437525D01*
X70234709Y72437525D01*
X70119516Y72417213D01*
X70119511Y72417212D01*
X70017153Y72360596D01*
X70017152Y72360596D01*
X70017152Y72360595D01*
X69969941Y72310477D01*
X69969939Y72310474D01*
X68153696Y69716613D01*
X68122752Y69655115D01*
X68104558Y69539561D01*
X66750500Y69539561D01*
X66750500Y73493030D01*
X66751280Y73506914D01*
X66751738Y73510981D01*
X66761461Y73597268D01*
X66767637Y73624329D01*
X66795358Y73703548D01*
X66807400Y73728553D01*
X66852050Y73799614D01*
X66869352Y73821312D01*
X66928703Y73880664D01*
X66950395Y73897964D01*
X67021464Y73942622D01*
X67046471Y73954664D01*
X67125682Y73982384D01*
X67152742Y73988562D01*
X67219830Y73996123D01*
X67242879Y73998720D01*
X67256766Y73999500D01*
X90876000Y73999500D01*
X90943039Y73979815D01*
G37*
%TD.AperFunction*%
%TD*%
M02*
