M48
; DRILL file {KiCad 9.0.6-9.0.6~ubuntu24.04.1} date 2025-11-16T07:01:41-0500
; FORMAT={-:-/ absolute / inch / decimal}
; #@! TF.CreationDate,2025-11-16T07:01:41-05:00
; #@! TF.GenerationSoftware,Kicad,Pcbnew,9.0.6-9.0.6~ubuntu24.04.1
; #@! TF.FileFunction,Plated,1,4,PTH
FMAT,2
INCH
; #@! TA.AperFunction,Plated,PTH,ComponentDrill
T1C0.0079
; #@! TA.AperFunction,Plated,PTH,ViaDrill
T2C0.0118
; #@! TA.AperFunction,Plated,PTH,ComponentDrill
T3C0.0118
%
G90
G05
T1
X3.0996Y2.4567
X3.0996Y2.4094
X3.0996Y2.3622
X3.0996Y2.315
X3.1469Y2.4567
X3.1469Y2.4094
X3.1469Y2.3622
X3.1469Y2.315
X3.1941Y2.4567
X3.1941Y2.4094
X3.1941Y2.3622
X3.1941Y2.315
X3.2413Y2.4567
X3.2413Y2.4094
X3.2413Y2.3622
X3.2413Y2.315
T2
X2.7264Y2.503
X2.7657Y2.7631
X2.8051Y2.2146
X2.815Y2.3819
X2.8543Y2.1949
X2.8543Y2.1654
X2.8624Y2.6564
X2.8839Y2.1654
X2.8937Y2.126
X2.9053Y2.7176
X2.9114Y2.4366
X2.9331Y2.8839
X2.9724Y2.5843
X2.9921Y2.0768
X3.0039Y2.5843
X3.0092Y2.2398
X3.0433Y2.6016
X3.0433Y2.5394
X3.0486Y2.2398
X3.0879Y2.0429
X3.0945Y2.6102
X3.1063Y2.7924
X3.1262Y2.2201
X3.1273Y2.0429
X3.1534Y2.1217
X3.1667Y2.2211
X3.1667Y2.0429
X3.206Y2.0429
X3.2101Y2.2031
X3.2323Y2.5827
X3.2406Y2.176
X3.2638Y2.5827
X3.2651Y2.2191
X3.2855Y2.2405
X3.2992Y2.5748
X3.2992Y2.5354
X3.3133Y2.0902
X3.3143Y2.1512
X3.3143Y2.1217
X3.3214Y2.3213
X3.3274Y2.2924
X3.3276Y2.2629
X3.3461Y2.4881
X3.3543Y2.3386
X3.3858Y2.5886
X3.3858Y2.3386
X3.3874Y2.5413
X3.4029Y2.1807
X3.4029Y2.1414
X3.4029Y2.102
X3.4029Y2.0626
X3.4094Y2.4331
X3.4154Y2.3386
X3.4252Y2.8268
X3.435Y2.5295
X3.4449Y2.3386
X3.4521Y2.4252
X3.4744Y2.3386
X3.4816Y2.4252
X3.4843Y2.2244
X3.4921Y2.6772
X3.5039Y2.3386
X3.5112Y2.4252
X3.5138Y1.9783
X3.5335Y2.3386
X3.5407Y2.4252
X3.563Y2.3386
X3.5673Y2.2988
X3.5702Y2.8894
X3.5702Y2.8599
X3.5702Y2.8303
X3.5702Y2.8008
X3.5702Y2.7713
X3.5702Y2.7418
X3.5702Y2.7122
X3.5702Y2.6827
X3.5702Y2.6532
X3.5702Y2.6236
X3.5702Y2.5941
X3.5702Y2.5646
X3.5702Y2.5351
X3.5702Y2.5055
X3.5702Y2.476
X3.5702Y2.4465
X3.5726Y2.2595
X3.5997Y2.2398
X3.6293Y2.2398
X3.6588Y2.2398
X3.6883Y2.2398
X3.7139Y2.0992
X3.7179Y2.2398
X3.7474Y2.2398
X3.7769Y2.2398
X3.8064Y2.2398
X3.836Y2.2398
X3.8655Y2.2398
T3
X3.6368Y2.2988
M30
