M48
; DRILL file {KiCad 9.0.4-9.0.4-0~ubuntu24.04.1} date 2025-08-22T01:07:09-0400
; FORMAT={-:-/ absolute / inch / decimal}
; #@! TF.CreationDate,2025-08-22T01:07:09-04:00
; #@! TF.GenerationSoftware,Kicad,Pcbnew,9.0.4-9.0.4-0~ubuntu24.04.1
; #@! TF.FileFunction,Plated,1,4,PTH
FMAT,2
INCH
; #@! TA.AperFunction,Plated,PTH,ComponentDrill
T1C0.0079
; #@! TA.AperFunction,Plated,PTH,ViaDrill
T2C0.0118
; #@! TA.AperFunction,Plated,PTH,ComponentDrill
T3C0.0118
; #@! TA.AperFunction,Plated,PTH,ViaDrill
T4C0.1181
%
G90
G05
T1
X3.0996Y2.4567
X3.0996Y2.4094
X3.0996Y2.3622
X3.0996Y2.315
X3.1469Y2.4567
X3.1469Y2.4094
X3.1469Y2.3622
X3.1469Y2.315
X3.1941Y2.4567
X3.1941Y2.4094
X3.1941Y2.3622
X3.1941Y2.315
X3.2413Y2.4567
X3.2413Y2.4094
X3.2413Y2.3622
X3.2413Y2.315
T2
X2.6791Y2.4311
X2.7165Y2.2244
X2.7657Y2.4705
X2.7657Y2.3917
X2.7953Y2.628
X2.8445Y2.2244
X2.9213Y2.8583
X2.9213Y2.4331
X2.9724Y2.5748
X2.9823Y2.313
X3.0039Y2.5748
X3.0413Y2.2244
X3.0433Y2.6016
X3.0433Y2.5394
X3.0447Y2.8105
X3.0807Y2.2244
X3.0807Y2.126
X3.0807Y1.9882
X3.0866Y2.0886
X3.0945Y2.6102
X3.1201Y2.126
X3.139Y2.2264
X3.1733Y2.2264
X3.1843Y2.1929
X3.2154Y2.2028
X3.2154Y2.1151
X3.2323Y2.5827
X3.2638Y2.5827
X3.2835Y2.6378
X3.2992Y2.5748
X3.2992Y2.5354
X3.3024Y2.2264
X3.3024Y2.1317
X3.3024Y2.0906
X3.3366Y2.185
X3.3386Y2.4045
X3.3543Y2.5157
X3.3635Y2.3382
X3.3752Y2.1083
X3.393Y2.3481
X3.4016Y2.6535
X3.4048Y2.1083
X3.4126Y2.4173
X3.4134Y2.4528
X3.4213Y2.6024
X3.4226Y2.3481
X3.4252Y2.8268
X3.4252Y2.2343
X3.4521Y2.417
X3.4521Y2.3481
X3.4803Y2.5591
X3.4816Y2.417
X3.4816Y2.3481
X3.4843Y2.126
X3.4843Y2.0866
X3.4921Y2.6772
X3.5039Y2.4606
X3.5112Y2.417
X3.5112Y2.3481
X3.5236Y2.126
X3.5407Y2.417
X3.5407Y2.3481
X3.5702Y2.8894
X3.5702Y2.8599
X3.5702Y2.8303
X3.5702Y2.8008
X3.5702Y2.7713
X3.5702Y2.7418
X3.5702Y2.7122
X3.5702Y2.6827
X3.5702Y2.6532
X3.5702Y2.6236
X3.5702Y2.5941
X3.5702Y2.5646
X3.5702Y2.5351
X3.5702Y2.5055
X3.5702Y2.476
X3.5702Y2.4465
X3.5702Y2.417
X3.5702Y2.3382
X3.5726Y2.2595
X3.5802Y2.1639
X3.5997Y2.2398
X3.6235Y2.1639
X3.6293Y2.2398
X3.6588Y2.2398
X3.685Y2.1693
X3.6883Y2.2398
X3.7179Y2.2398
X3.7474Y2.2398
X3.7769Y2.2398
X3.8064Y2.2398
X3.836Y2.2398
X3.8366Y2.2106
X3.8655Y2.2398
T3
X3.5728Y2.2992
T4
X2.7854Y2.7657
X2.7854Y2.0768
M30
