%TF.GenerationSoftware,KiCad,Pcbnew,9.0.4-9.0.4-0~ubuntu24.04.1*%
%TF.CreationDate,2025-08-23T01:51:13-04:00*%
%TF.ProjectId,tire_sensor_jlcpcb,74697265-5f73-4656-9e73-6f725f6a6c63,rev?*%
%TF.SameCoordinates,Original*%
%TF.FileFunction,Copper,L2,Inr*%
%TF.FilePolarity,Positive*%
%FSLAX46Y46*%
G04 Gerber Fmt 4.6, Leading zero omitted, Abs format (unit mm)*
G04 Created by KiCad (PCBNEW 9.0.4-9.0.4-0~ubuntu24.04.1) date 2025-08-23 01:51:13*
%MOMM*%
%LPD*%
G01*
G04 APERTURE LIST*
%TA.AperFunction,ComponentPad*%
%ADD10R,0.500000X0.900000*%
%TD*%
%TA.AperFunction,HeatsinkPad*%
%ADD11C,0.500000*%
%TD*%
%TA.AperFunction,ViaPad*%
%ADD12C,0.600000*%
%TD*%
%TA.AperFunction,ViaPad*%
%ADD13C,3.250000*%
%TD*%
G04 APERTURE END LIST*
D10*
%TO.N,GND*%
%TO.C,AE1*%
X90750000Y58400000D03*
%TD*%
D11*
%TO.N,GND*%
%TO.C,U1*%
X78730000Y62400000D03*
X78730000Y61200000D03*
X78730000Y60000000D03*
X78730000Y58800000D03*
X79930000Y62400000D03*
X79930000Y61200000D03*
X79930000Y60000000D03*
X79930000Y58800000D03*
X81130000Y62400000D03*
X81130000Y61200000D03*
X81130000Y60000000D03*
X81130000Y58800000D03*
X82330000Y62400000D03*
X82330000Y61200000D03*
X82330000Y60000000D03*
X82330000Y58800000D03*
%TD*%
D12*
%TO.N,GND*%
X80095940Y53890685D03*
%TO.N,VDD_NRF*%
X75433440Y55890685D03*
%TO.N,GND*%
X90933440Y53390685D03*
%TO.N,/nRESET*%
X90937557Y54962557D03*
%TO.N,VDD_NRF*%
X86433440Y52390685D03*
X86433440Y54390685D03*
X81433440Y51890685D03*
X79433440Y51890685D03*
X77368440Y70928185D03*
%TO.N,GND*%
X78433440Y51890685D03*
X80433440Y51890685D03*
%TO.N,/SDO*%
X84183440Y54640685D03*
X79405000Y56390685D03*
%TO.N,/CS_LSM6DS3*%
X81535446Y55960002D03*
X82933440Y56365685D03*
%TO.N,/CS_DPS368*%
X84183440Y53890685D03*
X83450683Y56908791D03*
%TO.N,/SDI*%
X80433440Y56415685D03*
%TO.N,VDD_NRF*%
X83800000Y64400000D03*
X70250000Y60750000D03*
X68050000Y61750000D03*
X93600000Y55100000D03*
X77300000Y64500000D03*
X77433440Y56890685D03*
%TO.N,GND*%
X86933440Y59640685D03*
X83800000Y65400000D03*
X88700000Y68000000D03*
X94433440Y56890685D03*
X90683440Y71140685D03*
X97450000Y56150000D03*
X70358440Y58140685D03*
X84158440Y53090685D03*
X90683440Y64390685D03*
X89183440Y59640685D03*
X85433440Y59640685D03*
X92183440Y56890685D03*
X90683440Y61390685D03*
X90683440Y62140685D03*
X83400000Y67000000D03*
X97433440Y56890685D03*
X96683440Y56890685D03*
X95183440Y56890685D03*
X88433440Y59640685D03*
X90683440Y63640685D03*
X86433440Y66890685D03*
D13*
X70750000Y70250000D03*
D12*
X87933440Y51390685D03*
X90683440Y66640685D03*
X86433440Y53390685D03*
X77300000Y66080000D03*
X85333440Y63290685D03*
X89933440Y61390685D03*
X87683440Y59640685D03*
X95933440Y56890685D03*
X82900000Y65600000D03*
X90683440Y72640685D03*
X90683440Y71890685D03*
X89000000Y62500000D03*
X73683440Y71640685D03*
X73933440Y51640685D03*
X87033440Y65490685D03*
X92933440Y56890685D03*
X78600000Y66300000D03*
X97433440Y51890685D03*
X98183440Y56890685D03*
X90683440Y65890685D03*
X86433440Y55390685D03*
X67683440Y68140685D03*
X76433440Y56890685D03*
X87000000Y71800000D03*
X88433440Y61390685D03*
X90683440Y59390685D03*
X82100000Y65600000D03*
X73950000Y61890685D03*
X67433440Y54140685D03*
X84683440Y61365685D03*
X87433440Y56140685D03*
X71000000Y66750000D03*
X89933440Y59640685D03*
X90743215Y57390685D03*
X87683440Y61390685D03*
X90683440Y73390685D03*
X90683440Y68890685D03*
X91433440Y56890685D03*
X90683440Y69640685D03*
X88183440Y64390685D03*
X90683440Y67390685D03*
X76300000Y65640685D03*
X89183440Y61390685D03*
X90683440Y70390685D03*
X86183440Y59640685D03*
X90683440Y65140685D03*
X90683440Y62890685D03*
X93683440Y56890685D03*
D13*
X70750000Y52750000D03*
D12*
X90683440Y68140685D03*
X75500000Y65640685D03*
X84683440Y59640685D03*
X86680000Y61400000D03*
X70250000Y62750000D03*
%TO.N,/nRESET*%
X92037443Y54962557D03*
%TO.N,/SDI*%
X82312208Y55269453D03*
%TD*%
%TA.AperFunction,Conductor*%
%TO.N,GND*%
G36*
X94184112Y73999499D02*
G01*
X94247300Y73999500D01*
X94252707Y73999382D01*
X94636754Y73982617D01*
X94647530Y73981674D01*
X94657147Y73980408D01*
X95025969Y73931854D01*
X95036600Y73929981D01*
X95409286Y73847360D01*
X95419712Y73844566D01*
X95783774Y73729779D01*
X95793902Y73726093D01*
X96146581Y73580009D01*
X96156372Y73575443D01*
X96494941Y73399195D01*
X96504309Y73393787D01*
X96826236Y73188697D01*
X96835094Y73182495D01*
X97137925Y72950123D01*
X97146212Y72943169D01*
X97427629Y72685296D01*
X97435278Y72677647D01*
X97693154Y72396222D01*
X97700107Y72387935D01*
X97932468Y72085112D01*
X97938673Y72076250D01*
X98143755Y71754330D01*
X98149164Y71744962D01*
X98205064Y71637576D01*
X98325412Y71406386D01*
X98329981Y71396587D01*
X98476057Y71043920D01*
X98479756Y71033754D01*
X98594526Y70669732D01*
X98597326Y70659283D01*
X98679939Y70286619D01*
X98681817Y70275965D01*
X98731631Y69897537D01*
X98732574Y69886761D01*
X98749381Y69501686D01*
X98749499Y69496281D01*
X98749499Y69463788D01*
X98749499Y69434116D01*
X98749499Y69434114D01*
X98749500Y69424122D01*
X98749500Y53502705D01*
X98749382Y53497296D01*
X98732615Y53113248D01*
X98731672Y53102472D01*
X98681851Y52724042D01*
X98679973Y52713389D01*
X98597357Y52340728D01*
X98594557Y52330279D01*
X98479778Y51966246D01*
X98476078Y51956080D01*
X98330006Y51603430D01*
X98325434Y51593626D01*
X98149187Y51255060D01*
X98143779Y51245692D01*
X97938689Y50923765D01*
X97932484Y50914903D01*
X97700110Y50612068D01*
X97693156Y50603781D01*
X97435294Y50322376D01*
X97427645Y50314727D01*
X97146213Y50056845D01*
X97137926Y50049892D01*
X96835109Y49817533D01*
X96826248Y49811328D01*
X96504318Y49606238D01*
X96494950Y49600830D01*
X96156371Y49424578D01*
X96146566Y49420006D01*
X95793926Y49273941D01*
X95783761Y49270241D01*
X95419725Y49155462D01*
X95409275Y49152662D01*
X95036612Y49070048D01*
X95025959Y49068170D01*
X94647531Y49018352D01*
X94636755Y49017409D01*
X94252130Y49000619D01*
X94246724Y49000501D01*
X94214422Y49000501D01*
X94184112Y49000501D01*
X94184108Y49000501D01*
X94176504Y49000500D01*
X94176503Y49000501D01*
X94176502Y49000500D01*
X71252712Y49000500D01*
X71247302Y49000618D01*
X70863252Y49017389D01*
X70852476Y49018332D01*
X70474044Y49068156D01*
X70463391Y49070034D01*
X70090728Y49152653D01*
X70080279Y49155453D01*
X69716242Y49270235D01*
X69706077Y49273935D01*
X69353427Y49420008D01*
X69343623Y49424580D01*
X69005056Y49600827D01*
X68995688Y49606235D01*
X68673752Y49811330D01*
X68664891Y49817535D01*
X68362072Y50049896D01*
X68353785Y50056849D01*
X68072358Y50314727D01*
X68064709Y50322376D01*
X67872358Y50532288D01*
X67857973Y50547986D01*
X67806823Y50603806D01*
X67801647Y50609975D01*
X92125582Y50609975D01*
X92125582Y50463056D01*
X92153565Y50322376D01*
X92154242Y50318973D01*
X92164626Y50293904D01*
X92210460Y50183249D01*
X92210465Y50183240D01*
X92292080Y50061096D01*
X92292083Y50061092D01*
X92395958Y49957217D01*
X92395962Y49957214D01*
X92518106Y49875599D01*
X92518112Y49875596D01*
X92518113Y49875595D01*
X92653840Y49819375D01*
X92797922Y49790716D01*
X92797926Y49790715D01*
X92797927Y49790715D01*
X92944838Y49790715D01*
X92944839Y49790716D01*
X93088924Y49819375D01*
X93224651Y49875595D01*
X93346802Y49957214D01*
X93450683Y50061095D01*
X93532302Y50183246D01*
X93588522Y50318973D01*
X93617182Y50463060D01*
X93617182Y50609970D01*
X93588522Y50754057D01*
X93532302Y50889784D01*
X93532301Y50889785D01*
X93532298Y50889791D01*
X93450683Y51011935D01*
X93450680Y51011939D01*
X93346805Y51115814D01*
X93346801Y51115817D01*
X93224657Y51197432D01*
X93224648Y51197437D01*
X93108148Y51245692D01*
X93088924Y51253655D01*
X93088920Y51253656D01*
X93088916Y51253657D01*
X92944841Y51282315D01*
X92944837Y51282315D01*
X92797927Y51282315D01*
X92797922Y51282315D01*
X92653847Y51253657D01*
X92653837Y51253654D01*
X92518115Y51197437D01*
X92518106Y51197432D01*
X92395962Y51115817D01*
X92395958Y51115814D01*
X92292083Y51011939D01*
X92292080Y51011935D01*
X92210465Y50889791D01*
X92210460Y50889782D01*
X92154243Y50754060D01*
X92154240Y50754050D01*
X92125582Y50609975D01*
X67801647Y50609975D01*
X67799875Y50612087D01*
X67746251Y50681970D01*
X67567509Y50914909D01*
X67561307Y50923766D01*
X67505136Y51011935D01*
X67356213Y51245695D01*
X67350806Y51255059D01*
X67174542Y51593650D01*
X67169978Y51603438D01*
X67163084Y51620081D01*
X67124149Y51714076D01*
X67035469Y51928166D01*
X67035469Y51928167D01*
X67023900Y51956095D01*
X67020200Y51966261D01*
X67019169Y51969532D01*
X78632940Y51969532D01*
X78632940Y51811839D01*
X78663701Y51657196D01*
X78663704Y51657184D01*
X78724042Y51511513D01*
X78724049Y51511500D01*
X78811650Y51380397D01*
X78811653Y51380393D01*
X78923147Y51268899D01*
X78923151Y51268896D01*
X79054254Y51181295D01*
X79054267Y51181288D01*
X79199938Y51120950D01*
X79199943Y51120948D01*
X79354593Y51090186D01*
X79354596Y51090185D01*
X79354598Y51090185D01*
X79512284Y51090185D01*
X79512285Y51090186D01*
X79666937Y51120948D01*
X79812619Y51181291D01*
X79943729Y51268896D01*
X80055229Y51380396D01*
X80142834Y51511506D01*
X80203177Y51657188D01*
X80233940Y51811843D01*
X80233940Y51969527D01*
X80233940Y51969530D01*
X80233939Y51969532D01*
X80632940Y51969532D01*
X80632940Y51811839D01*
X80663701Y51657196D01*
X80663704Y51657184D01*
X80724042Y51511513D01*
X80724049Y51511500D01*
X80811650Y51380397D01*
X80811653Y51380393D01*
X80923147Y51268899D01*
X80923151Y51268896D01*
X81054254Y51181295D01*
X81054267Y51181288D01*
X81199938Y51120950D01*
X81199943Y51120948D01*
X81354593Y51090186D01*
X81354596Y51090185D01*
X81354598Y51090185D01*
X81512284Y51090185D01*
X81512285Y51090186D01*
X81666937Y51120948D01*
X81812619Y51181291D01*
X81943729Y51268896D01*
X82055229Y51380396D01*
X82142834Y51511506D01*
X82203177Y51657188D01*
X82233940Y51811843D01*
X82233940Y51969527D01*
X82233940Y51969530D01*
X82233939Y51969532D01*
X82207917Y52100351D01*
X82203177Y52124182D01*
X82189502Y52157196D01*
X82142837Y52269858D01*
X82142830Y52269871D01*
X82055230Y52400973D01*
X82055224Y52400980D01*
X81986672Y52469532D01*
X85632940Y52469532D01*
X85632940Y52311839D01*
X85663701Y52157196D01*
X85663704Y52157184D01*
X85724042Y52011513D01*
X85724049Y52011500D01*
X85811650Y51880397D01*
X85811653Y51880393D01*
X85923147Y51768899D01*
X85923151Y51768896D01*
X86054254Y51681295D01*
X86054267Y51681288D01*
X86199938Y51620950D01*
X86199943Y51620948D01*
X86313113Y51598437D01*
X86354593Y51590186D01*
X86354596Y51590185D01*
X86354598Y51590185D01*
X86512284Y51590185D01*
X86512285Y51590186D01*
X86666937Y51620948D01*
X86812619Y51681291D01*
X86943729Y51768896D01*
X87055229Y51880396D01*
X87142834Y52011506D01*
X87157460Y52046816D01*
X90688741Y52046816D01*
X90688741Y51899897D01*
X90717399Y51755822D01*
X90717402Y51755812D01*
X90773619Y51620090D01*
X90773624Y51620081D01*
X90855239Y51497937D01*
X90855242Y51497933D01*
X90959117Y51394058D01*
X90959121Y51394055D01*
X91081265Y51312440D01*
X91081271Y51312437D01*
X91081272Y51312436D01*
X91216999Y51256216D01*
X91361081Y51227557D01*
X91361085Y51227556D01*
X91361086Y51227556D01*
X91507997Y51227556D01*
X91507998Y51227557D01*
X91652083Y51256216D01*
X91787810Y51312436D01*
X91909961Y51394055D01*
X92013842Y51497936D01*
X92095461Y51620087D01*
X92151681Y51755814D01*
X92180341Y51899901D01*
X92180341Y52046811D01*
X92151681Y52190898D01*
X92095461Y52326625D01*
X92095460Y52326626D01*
X92095457Y52326632D01*
X92013842Y52448776D01*
X92013839Y52448780D01*
X91909964Y52552655D01*
X91909960Y52552658D01*
X91787816Y52634273D01*
X91787807Y52634278D01*
X91652085Y52690495D01*
X91652086Y52690495D01*
X91652083Y52690496D01*
X91652079Y52690497D01*
X91652075Y52690498D01*
X91508000Y52719156D01*
X91507996Y52719156D01*
X91361086Y52719156D01*
X91361081Y52719156D01*
X91217006Y52690498D01*
X91216996Y52690495D01*
X91081274Y52634278D01*
X91081265Y52634273D01*
X90959121Y52552658D01*
X90959117Y52552655D01*
X90855242Y52448780D01*
X90855239Y52448776D01*
X90773624Y52326632D01*
X90773619Y52326623D01*
X90717402Y52190901D01*
X90717399Y52190891D01*
X90688741Y52046816D01*
X87157460Y52046816D01*
X87203177Y52157188D01*
X87233940Y52311843D01*
X87233940Y52469527D01*
X87233940Y52469530D01*
X87233939Y52469532D01*
X87225397Y52512475D01*
X87203177Y52624182D01*
X87198995Y52634278D01*
X87142837Y52769858D01*
X87142830Y52769871D01*
X87055229Y52900974D01*
X87055226Y52900978D01*
X86943732Y53012472D01*
X86943728Y53012475D01*
X86812625Y53100076D01*
X86812612Y53100083D01*
X86666941Y53160421D01*
X86666929Y53160424D01*
X86512285Y53191185D01*
X86512282Y53191185D01*
X86354598Y53191185D01*
X86354595Y53191185D01*
X86199950Y53160424D01*
X86199938Y53160421D01*
X86054267Y53100083D01*
X86054254Y53100076D01*
X85923151Y53012475D01*
X85923147Y53012472D01*
X85811653Y52900978D01*
X85811650Y52900974D01*
X85724049Y52769871D01*
X85724042Y52769858D01*
X85663704Y52624187D01*
X85663701Y52624175D01*
X85632940Y52469532D01*
X81986672Y52469532D01*
X81943732Y52512472D01*
X81943728Y52512475D01*
X81812625Y52600076D01*
X81812612Y52600083D01*
X81666941Y52660421D01*
X81666929Y52660424D01*
X81512285Y52691185D01*
X81512282Y52691185D01*
X81354598Y52691185D01*
X81354595Y52691185D01*
X81199950Y52660424D01*
X81199938Y52660421D01*
X81054267Y52600083D01*
X81054254Y52600076D01*
X80923151Y52512475D01*
X80923147Y52512472D01*
X80811653Y52400978D01*
X80811650Y52400974D01*
X80724049Y52269871D01*
X80724042Y52269858D01*
X80663704Y52124187D01*
X80663701Y52124175D01*
X80632940Y51969532D01*
X80233939Y51969532D01*
X80207917Y52100351D01*
X80203177Y52124182D01*
X80189502Y52157196D01*
X80142837Y52269858D01*
X80142830Y52269871D01*
X80055229Y52400974D01*
X80055226Y52400978D01*
X79943732Y52512472D01*
X79943728Y52512475D01*
X79812625Y52600076D01*
X79812612Y52600083D01*
X79666941Y52660421D01*
X79666929Y52660424D01*
X79512285Y52691185D01*
X79512282Y52691185D01*
X79354598Y52691185D01*
X79354595Y52691185D01*
X79199950Y52660424D01*
X79199938Y52660421D01*
X79054267Y52600083D01*
X79054254Y52600076D01*
X78923151Y52512475D01*
X78923147Y52512472D01*
X78811653Y52400978D01*
X78811650Y52400974D01*
X78724049Y52269871D01*
X78724042Y52269858D01*
X78663704Y52124187D01*
X78663701Y52124175D01*
X78632940Y51969532D01*
X67019169Y51969532D01*
X66905418Y52330288D01*
X66902618Y52340736D01*
X66889262Y52400978D01*
X66819992Y52713410D01*
X66818121Y52724021D01*
X66768287Y53102501D01*
X66767347Y53113248D01*
X66750618Y53496279D01*
X66750500Y53501689D01*
X66750500Y55969532D01*
X74632940Y55969532D01*
X74632940Y55811839D01*
X74663701Y55657196D01*
X74663704Y55657184D01*
X74724042Y55511513D01*
X74724049Y55511500D01*
X74811650Y55380397D01*
X74811653Y55380393D01*
X74923147Y55268899D01*
X74923151Y55268896D01*
X75054254Y55181295D01*
X75054267Y55181288D01*
X75127453Y55150974D01*
X75199943Y55120948D01*
X75354593Y55090186D01*
X75354596Y55090185D01*
X75354598Y55090185D01*
X75512284Y55090185D01*
X75512285Y55090186D01*
X75666937Y55120948D01*
X75812619Y55181291D01*
X75943729Y55268896D01*
X76055229Y55380396D01*
X76142834Y55511506D01*
X76203177Y55657188D01*
X76233940Y55811843D01*
X76233940Y55969527D01*
X76233940Y55969530D01*
X76233939Y55969532D01*
X76209939Y56090186D01*
X76203177Y56124182D01*
X76199861Y56132188D01*
X76142837Y56269858D01*
X76142830Y56269871D01*
X76055229Y56400974D01*
X76055226Y56400978D01*
X75943732Y56512472D01*
X75943728Y56512475D01*
X75812625Y56600076D01*
X75812612Y56600083D01*
X75666941Y56660421D01*
X75666929Y56660424D01*
X75512285Y56691185D01*
X75512282Y56691185D01*
X75354598Y56691185D01*
X75354595Y56691185D01*
X75199950Y56660424D01*
X75199938Y56660421D01*
X75054267Y56600083D01*
X75054254Y56600076D01*
X74923151Y56512475D01*
X74923147Y56512472D01*
X74811653Y56400978D01*
X74811650Y56400974D01*
X74724049Y56269871D01*
X74724042Y56269858D01*
X74663704Y56124187D01*
X74663701Y56124175D01*
X74632940Y55969532D01*
X66750500Y55969532D01*
X66750500Y56969532D01*
X76632940Y56969532D01*
X76632940Y56811839D01*
X76663701Y56657196D01*
X76663704Y56657184D01*
X76724042Y56511513D01*
X76724049Y56511500D01*
X76811650Y56380397D01*
X76811653Y56380393D01*
X76923147Y56268899D01*
X76923151Y56268896D01*
X77054254Y56181295D01*
X77054267Y56181288D01*
X77134039Y56148246D01*
X77199943Y56120948D01*
X77354593Y56090186D01*
X77354596Y56090185D01*
X77354598Y56090185D01*
X77512284Y56090185D01*
X77512285Y56090186D01*
X77666937Y56120948D01*
X77779606Y56167618D01*
X77812612Y56181288D01*
X77812612Y56181289D01*
X77812619Y56181291D01*
X77943729Y56268896D01*
X78055229Y56380396D01*
X78114788Y56469532D01*
X78604500Y56469532D01*
X78604500Y56311839D01*
X78635261Y56157196D01*
X78635264Y56157184D01*
X78695602Y56011513D01*
X78695609Y56011500D01*
X78783210Y55880397D01*
X78783213Y55880393D01*
X78894707Y55768899D01*
X78894711Y55768896D01*
X79025814Y55681295D01*
X79025827Y55681288D01*
X79170363Y55621420D01*
X79171503Y55620948D01*
X79297186Y55595948D01*
X79326153Y55590186D01*
X79326156Y55590185D01*
X79326158Y55590185D01*
X79483844Y55590185D01*
X79483845Y55590186D01*
X79638497Y55620948D01*
X79784179Y55681291D01*
X79869037Y55737992D01*
X79935713Y55758869D01*
X80003093Y55740385D01*
X80006818Y55737991D01*
X80054254Y55706295D01*
X80054267Y55706288D01*
X80199619Y55646082D01*
X80199943Y55645948D01*
X80323253Y55621420D01*
X80354593Y55615186D01*
X80354596Y55615185D01*
X80354598Y55615185D01*
X80512284Y55615185D01*
X80512285Y55615186D01*
X80666937Y55645948D01*
X80666949Y55645954D01*
X80672764Y55647716D01*
X80673259Y55646082D01*
X80734616Y55652686D01*
X80797099Y55621420D01*
X80822001Y55585562D01*
X80823182Y55586193D01*
X80826055Y55580817D01*
X80913656Y55449714D01*
X80913659Y55449710D01*
X81025153Y55338216D01*
X81025157Y55338213D01*
X81156260Y55250612D01*
X81156273Y55250605D01*
X81301123Y55190607D01*
X81301949Y55190265D01*
X81385945Y55173557D01*
X81439158Y55162972D01*
X81501069Y55130587D01*
X81535643Y55069872D01*
X81536584Y55065548D01*
X81542469Y55035961D01*
X81542472Y55035952D01*
X81602810Y54890281D01*
X81602817Y54890268D01*
X81690418Y54759165D01*
X81690421Y54759161D01*
X81801915Y54647667D01*
X81801919Y54647664D01*
X81933022Y54560063D01*
X81933035Y54560056D01*
X82063576Y54505985D01*
X82078711Y54499716D01*
X82230455Y54469532D01*
X82233361Y54468954D01*
X82233364Y54468953D01*
X82233366Y54468953D01*
X82391052Y54468953D01*
X82391053Y54468954D01*
X82545705Y54499716D01*
X82691387Y54560059D01*
X82822497Y54647664D01*
X82894365Y54719532D01*
X83382940Y54719532D01*
X83382940Y54561839D01*
X83413701Y54407196D01*
X83413704Y54407184D01*
X83452659Y54313137D01*
X83460128Y54243667D01*
X83452659Y54218233D01*
X83413704Y54124187D01*
X83413701Y54124175D01*
X83382940Y53969532D01*
X83382940Y53811839D01*
X83413701Y53657196D01*
X83413704Y53657184D01*
X83474042Y53511513D01*
X83474049Y53511500D01*
X83561650Y53380397D01*
X83561653Y53380393D01*
X83673147Y53268899D01*
X83673151Y53268896D01*
X83804254Y53181295D01*
X83804267Y53181288D01*
X83949938Y53120950D01*
X83949943Y53120948D01*
X84104593Y53090186D01*
X84104596Y53090185D01*
X84104598Y53090185D01*
X84262284Y53090185D01*
X84262285Y53090186D01*
X84416937Y53120948D01*
X84562619Y53181291D01*
X84693729Y53268896D01*
X84805229Y53380396D01*
X84892834Y53511506D01*
X84953177Y53657188D01*
X84983940Y53811843D01*
X84983940Y53969527D01*
X84983940Y53969530D01*
X84983939Y53969532D01*
X84957741Y54101238D01*
X84953177Y54124182D01*
X84914218Y54218236D01*
X84911544Y54243109D01*
X84904789Y54267200D01*
X84907522Y54280517D01*
X84906750Y54287701D01*
X84910239Y54302071D01*
X84911965Y54307695D01*
X84953177Y54407188D01*
X84965578Y54469532D01*
X85632940Y54469532D01*
X85632940Y54311839D01*
X85663701Y54157196D01*
X85663704Y54157184D01*
X85724042Y54011513D01*
X85724049Y54011500D01*
X85811650Y53880397D01*
X85811653Y53880393D01*
X85923147Y53768899D01*
X85923151Y53768896D01*
X86054254Y53681295D01*
X86054267Y53681288D01*
X86199938Y53620950D01*
X86199943Y53620948D01*
X86354593Y53590186D01*
X86354596Y53590185D01*
X86354598Y53590185D01*
X86512284Y53590185D01*
X86512285Y53590186D01*
X86666937Y53620948D01*
X86812619Y53681291D01*
X86943729Y53768896D01*
X87055229Y53880396D01*
X87142834Y54011506D01*
X87203177Y54157188D01*
X87233940Y54311843D01*
X87233940Y54469527D01*
X87233940Y54469530D01*
X87233939Y54469532D01*
X87226688Y54505985D01*
X87203177Y54624182D01*
X87163148Y54720821D01*
X87142837Y54769858D01*
X87142830Y54769871D01*
X87055229Y54900974D01*
X87055226Y54900978D01*
X86943732Y55012472D01*
X86943728Y55012475D01*
X86900433Y55041404D01*
X90137057Y55041404D01*
X90137057Y54883711D01*
X90167818Y54729068D01*
X90167821Y54729056D01*
X90228159Y54583385D01*
X90228166Y54583372D01*
X90315767Y54452269D01*
X90315770Y54452265D01*
X90427264Y54340771D01*
X90427268Y54340768D01*
X90558371Y54253167D01*
X90558384Y54253160D01*
X90704055Y54192822D01*
X90704060Y54192820D01*
X90858710Y54162058D01*
X90858713Y54162057D01*
X90858715Y54162057D01*
X91016401Y54162057D01*
X91016402Y54162058D01*
X91171054Y54192820D01*
X91292463Y54243109D01*
X91316729Y54253160D01*
X91316729Y54253161D01*
X91316736Y54253163D01*
X91418611Y54321235D01*
X91485286Y54342111D01*
X91552666Y54323627D01*
X91556344Y54321264D01*
X91658264Y54253163D01*
X91658266Y54253162D01*
X91658270Y54253160D01*
X91803941Y54192822D01*
X91803946Y54192820D01*
X91958596Y54162058D01*
X91958599Y54162057D01*
X91958601Y54162057D01*
X92116287Y54162057D01*
X92116288Y54162058D01*
X92270940Y54192820D01*
X92392349Y54243109D01*
X92416615Y54253160D01*
X92416615Y54253161D01*
X92416622Y54253163D01*
X92547732Y54340768D01*
X92659232Y54452268D01*
X92746837Y54583378D01*
X92748218Y54586713D01*
X92749408Y54588191D01*
X92749707Y54588748D01*
X92749812Y54588692D01*
X92792053Y54641118D01*
X92858345Y54663189D01*
X92926046Y54645915D01*
X92965884Y54608159D01*
X92978210Y54589712D01*
X92978213Y54589708D01*
X93089707Y54478214D01*
X93089711Y54478211D01*
X93220814Y54390610D01*
X93220827Y54390603D01*
X93337899Y54342111D01*
X93366503Y54330263D01*
X93508233Y54302071D01*
X93521153Y54299501D01*
X93521156Y54299500D01*
X93521158Y54299500D01*
X93678844Y54299500D01*
X93678845Y54299501D01*
X93833497Y54330263D01*
X93946166Y54376933D01*
X93979172Y54390603D01*
X93979172Y54390604D01*
X93979179Y54390606D01*
X94110289Y54478211D01*
X94221789Y54589711D01*
X94309394Y54720821D01*
X94369737Y54866503D01*
X94376595Y54900978D01*
X94380478Y54920498D01*
X94999264Y54920498D01*
X94999264Y54773579D01*
X95027922Y54629504D01*
X95027925Y54629494D01*
X95084142Y54493772D01*
X95084147Y54493763D01*
X95165762Y54371619D01*
X95165765Y54371615D01*
X95269640Y54267740D01*
X95269644Y54267737D01*
X95391788Y54186122D01*
X95391794Y54186119D01*
X95391795Y54186118D01*
X95527522Y54129898D01*
X95671604Y54101239D01*
X95671608Y54101238D01*
X95671609Y54101238D01*
X95818520Y54101238D01*
X95818521Y54101239D01*
X95962606Y54129898D01*
X96098333Y54186118D01*
X96220484Y54267737D01*
X96324365Y54371618D01*
X96405984Y54493769D01*
X96462204Y54629496D01*
X96490864Y54773583D01*
X96490864Y54920493D01*
X96462204Y55064580D01*
X96410000Y55190611D01*
X96405985Y55200305D01*
X96405980Y55200314D01*
X96324365Y55322458D01*
X96324362Y55322462D01*
X96220487Y55426337D01*
X96220483Y55426340D01*
X96098339Y55507955D01*
X96098330Y55507960D01*
X95962608Y55564177D01*
X95962609Y55564177D01*
X95962606Y55564178D01*
X95962602Y55564179D01*
X95962598Y55564180D01*
X95818523Y55592838D01*
X95818519Y55592838D01*
X95671609Y55592838D01*
X95671604Y55592838D01*
X95527529Y55564180D01*
X95527519Y55564177D01*
X95391797Y55507960D01*
X95391788Y55507955D01*
X95269644Y55426340D01*
X95269640Y55426337D01*
X95165765Y55322462D01*
X95165762Y55322458D01*
X95084147Y55200314D01*
X95084142Y55200305D01*
X95027925Y55064583D01*
X95027922Y55064573D01*
X94999264Y54920498D01*
X94380478Y54920498D01*
X94386501Y54950777D01*
X94386501Y54950778D01*
X94400241Y55019858D01*
X94400500Y55021158D01*
X94400500Y55178842D01*
X94400500Y55178845D01*
X94400499Y55178847D01*
X94382586Y55268899D01*
X94369737Y55333497D01*
X94366324Y55341736D01*
X94309397Y55479173D01*
X94309390Y55479186D01*
X94221789Y55610289D01*
X94221786Y55610293D01*
X94110292Y55721787D01*
X94110288Y55721790D01*
X93979185Y55809391D01*
X93979172Y55809398D01*
X93833501Y55869736D01*
X93833489Y55869739D01*
X93678845Y55900500D01*
X93678842Y55900500D01*
X93521158Y55900500D01*
X93521155Y55900500D01*
X93366510Y55869739D01*
X93366498Y55869736D01*
X93220827Y55809398D01*
X93220814Y55809391D01*
X93089711Y55721790D01*
X93089707Y55721787D01*
X92978213Y55610293D01*
X92978210Y55610289D01*
X92890609Y55479186D01*
X92890603Y55479174D01*
X92889219Y55475832D01*
X92888026Y55474352D01*
X92887736Y55473809D01*
X92887632Y55473865D01*
X92845375Y55421430D01*
X92779080Y55399369D01*
X92711381Y55416651D01*
X92671557Y55454400D01*
X92670130Y55456535D01*
X92659232Y55472846D01*
X92659230Y55472849D01*
X92547735Y55584344D01*
X92547731Y55584347D01*
X92416628Y55671948D01*
X92416615Y55671955D01*
X92270944Y55732293D01*
X92270932Y55732296D01*
X92116288Y55763057D01*
X92116285Y55763057D01*
X91958601Y55763057D01*
X91958598Y55763057D01*
X91803953Y55732296D01*
X91803941Y55732293D01*
X91658270Y55671955D01*
X91658257Y55671948D01*
X91556391Y55603882D01*
X91489714Y55583004D01*
X91422333Y55601488D01*
X91418609Y55603882D01*
X91316742Y55671948D01*
X91316729Y55671955D01*
X91171058Y55732293D01*
X91171046Y55732296D01*
X91016402Y55763057D01*
X91016399Y55763057D01*
X90858715Y55763057D01*
X90858712Y55763057D01*
X90704067Y55732296D01*
X90704055Y55732293D01*
X90558384Y55671955D01*
X90558371Y55671948D01*
X90427268Y55584347D01*
X90427264Y55584344D01*
X90315770Y55472850D01*
X90315767Y55472846D01*
X90228166Y55341743D01*
X90228159Y55341730D01*
X90167821Y55196059D01*
X90167818Y55196047D01*
X90137057Y55041404D01*
X86900433Y55041404D01*
X86812625Y55100076D01*
X86812612Y55100083D01*
X86666941Y55160421D01*
X86666929Y55160424D01*
X86512285Y55191185D01*
X86512282Y55191185D01*
X86354598Y55191185D01*
X86354595Y55191185D01*
X86199950Y55160424D01*
X86199938Y55160421D01*
X86054267Y55100083D01*
X86054254Y55100076D01*
X85923151Y55012475D01*
X85923147Y55012472D01*
X85811653Y54900978D01*
X85811650Y54900974D01*
X85724049Y54769871D01*
X85724042Y54769858D01*
X85663704Y54624187D01*
X85663701Y54624175D01*
X85632940Y54469532D01*
X84965578Y54469532D01*
X84983585Y54560056D01*
X84983940Y54561841D01*
X84983940Y54719530D01*
X84983939Y54719532D01*
X84973188Y54773582D01*
X84953177Y54874182D01*
X84946509Y54890281D01*
X84892837Y55019858D01*
X84892830Y55019871D01*
X84805229Y55150974D01*
X84805226Y55150978D01*
X84693732Y55262472D01*
X84693728Y55262475D01*
X84562625Y55350076D01*
X84562612Y55350083D01*
X84416941Y55410421D01*
X84416929Y55410424D01*
X84262285Y55441185D01*
X84262282Y55441185D01*
X84104598Y55441185D01*
X84104595Y55441185D01*
X83949950Y55410424D01*
X83949938Y55410421D01*
X83804267Y55350083D01*
X83804254Y55350076D01*
X83673151Y55262475D01*
X83673147Y55262472D01*
X83561653Y55150978D01*
X83561650Y55150974D01*
X83474049Y55019871D01*
X83474042Y55019858D01*
X83413704Y54874187D01*
X83413701Y54874175D01*
X83382940Y54719532D01*
X82894365Y54719532D01*
X82933997Y54759164D01*
X82947154Y54778856D01*
X82957615Y54794510D01*
X83021598Y54890268D01*
X83021598Y54890269D01*
X83021602Y54890274D01*
X83081945Y55035956D01*
X83112708Y55190611D01*
X83112708Y55348295D01*
X83112708Y55348298D01*
X83097184Y55426340D01*
X83091177Y55456538D01*
X83097404Y55526126D01*
X83140266Y55581304D01*
X83165342Y55595289D01*
X83166929Y55595947D01*
X83166937Y55595948D01*
X83312619Y55656291D01*
X83443729Y55743896D01*
X83555229Y55855396D01*
X83642834Y55986506D01*
X83690890Y56102526D01*
X83734728Y56156925D01*
X83757985Y56169626D01*
X83829862Y56199397D01*
X83960972Y56287002D01*
X84072472Y56398502D01*
X84160077Y56529612D01*
X84220420Y56675294D01*
X84251183Y56829949D01*
X84251183Y56987633D01*
X84251183Y56987636D01*
X84251182Y56987638D01*
X84235597Y57065987D01*
X84220420Y57142288D01*
X84202554Y57185421D01*
X84160080Y57287964D01*
X84160073Y57287977D01*
X84072472Y57419080D01*
X84072469Y57419084D01*
X83960975Y57530578D01*
X83960971Y57530581D01*
X83829868Y57618182D01*
X83829855Y57618189D01*
X83684184Y57678527D01*
X83684172Y57678530D01*
X83529528Y57709291D01*
X83529525Y57709291D01*
X83371841Y57709291D01*
X83371838Y57709291D01*
X83217193Y57678530D01*
X83217181Y57678527D01*
X83071510Y57618189D01*
X83071497Y57618182D01*
X82940394Y57530581D01*
X82940390Y57530578D01*
X82828896Y57419084D01*
X82828893Y57419080D01*
X82741292Y57287977D01*
X82741287Y57287967D01*
X82693234Y57171956D01*
X82649393Y57117553D01*
X82626127Y57104849D01*
X82554267Y57075083D01*
X82554258Y57075078D01*
X82423155Y56987478D01*
X82423147Y56987472D01*
X82311653Y56875978D01*
X82311650Y56875974D01*
X82224049Y56744871D01*
X82224046Y56744865D01*
X82190309Y56663417D01*
X82146467Y56609014D01*
X82080173Y56586950D01*
X82012474Y56604230D01*
X82006857Y56607769D01*
X81914631Y56669393D01*
X81914618Y56669400D01*
X81768947Y56729738D01*
X81768935Y56729741D01*
X81614291Y56760502D01*
X81614288Y56760502D01*
X81456604Y56760502D01*
X81456601Y56760502D01*
X81301957Y56729742D01*
X81296126Y56727972D01*
X81295631Y56729603D01*
X81234247Y56723005D01*
X81171769Y56754283D01*
X81146887Y56790126D01*
X81145704Y56789493D01*
X81142836Y56794858D01*
X81142834Y56794864D01*
X81088638Y56875974D01*
X81055229Y56925975D01*
X80943732Y57037472D01*
X80943728Y57037475D01*
X80812625Y57125076D01*
X80812612Y57125083D01*
X80666941Y57185421D01*
X80666929Y57185424D01*
X80512285Y57216185D01*
X80512282Y57216185D01*
X80354598Y57216185D01*
X80354595Y57216185D01*
X80199950Y57185424D01*
X80199938Y57185421D01*
X80054267Y57125083D01*
X80054256Y57125077D01*
X79969402Y57068379D01*
X79902725Y57047502D01*
X79835345Y57065987D01*
X79831621Y57068380D01*
X79784185Y57100076D01*
X79784172Y57100083D01*
X79638501Y57160421D01*
X79638489Y57160424D01*
X79483845Y57191185D01*
X79483842Y57191185D01*
X79326158Y57191185D01*
X79326155Y57191185D01*
X79171510Y57160424D01*
X79171498Y57160421D01*
X79025827Y57100083D01*
X79025814Y57100076D01*
X78894711Y57012475D01*
X78894707Y57012472D01*
X78783213Y56900978D01*
X78783210Y56900974D01*
X78695609Y56769871D01*
X78695602Y56769858D01*
X78635264Y56624187D01*
X78635261Y56624175D01*
X78604500Y56469532D01*
X78114788Y56469532D01*
X78142834Y56511506D01*
X78203177Y56657188D01*
X78233940Y56811843D01*
X78233940Y56969527D01*
X78233940Y56969530D01*
X78233939Y56969532D01*
X78207971Y57100079D01*
X78203177Y57124182D01*
X78202806Y57125077D01*
X78142837Y57269858D01*
X78142830Y57269871D01*
X78055229Y57400974D01*
X78055226Y57400978D01*
X77943732Y57512472D01*
X77943728Y57512475D01*
X77812625Y57600076D01*
X77812612Y57600083D01*
X77666941Y57660421D01*
X77666929Y57660424D01*
X77512285Y57691185D01*
X77512282Y57691185D01*
X77354598Y57691185D01*
X77354595Y57691185D01*
X77199950Y57660424D01*
X77199938Y57660421D01*
X77054267Y57600083D01*
X77054254Y57600076D01*
X76923151Y57512475D01*
X76923147Y57512472D01*
X76811653Y57400978D01*
X76811650Y57400974D01*
X76724049Y57269871D01*
X76724042Y57269858D01*
X76663704Y57124187D01*
X76663701Y57124175D01*
X76632940Y56969532D01*
X66750500Y56969532D01*
X66750500Y58365307D01*
X78474910Y58365307D01*
X78535459Y58330349D01*
X78535458Y58330349D01*
X78663650Y58296000D01*
X78796350Y58296000D01*
X78924535Y58330348D01*
X78985086Y58365307D01*
X79674910Y58365307D01*
X79735459Y58330349D01*
X79735458Y58330349D01*
X79863650Y58296000D01*
X79996350Y58296000D01*
X80124535Y58330348D01*
X80185086Y58365307D01*
X80874910Y58365307D01*
X80935459Y58330349D01*
X80935458Y58330349D01*
X81063650Y58296000D01*
X81196350Y58296000D01*
X81324535Y58330348D01*
X81385086Y58365307D01*
X82074910Y58365307D01*
X82135459Y58330349D01*
X82135458Y58330349D01*
X82263650Y58296000D01*
X82396350Y58296000D01*
X82524535Y58330348D01*
X82585088Y58365308D01*
X82330001Y58620395D01*
X82074910Y58365307D01*
X81385086Y58365307D01*
X81385088Y58365308D01*
X81130001Y58620395D01*
X80874910Y58365307D01*
X80185086Y58365307D01*
X80185088Y58365308D01*
X79930001Y58620395D01*
X79674910Y58365307D01*
X78985086Y58365307D01*
X78985088Y58365308D01*
X78730001Y58620395D01*
X78474910Y58365307D01*
X66750500Y58365307D01*
X66750500Y58866351D01*
X78226000Y58866351D01*
X78226000Y58733650D01*
X78260347Y58605462D01*
X78260348Y58605461D01*
X78295306Y58544913D01*
X78295307Y58544912D01*
X78550394Y58799999D01*
X78550394Y58800000D01*
X78530503Y58819891D01*
X78630000Y58819891D01*
X78630000Y58780109D01*
X78645224Y58743355D01*
X78673355Y58715224D01*
X78710109Y58700000D01*
X78749891Y58700000D01*
X78786645Y58715224D01*
X78814776Y58743355D01*
X78830000Y58780109D01*
X78830000Y58800000D01*
X78909605Y58800000D01*
X78909605Y58799999D01*
X79164692Y58544912D01*
X79199653Y58605466D01*
X79210225Y58644920D01*
X79246590Y58704581D01*
X79309437Y58735110D01*
X79378812Y58726815D01*
X79432690Y58682330D01*
X79449775Y58644920D01*
X79460347Y58605464D01*
X79460348Y58605461D01*
X79495306Y58544913D01*
X79495307Y58544912D01*
X79750394Y58799999D01*
X79750394Y58800000D01*
X79730503Y58819891D01*
X79830000Y58819891D01*
X79830000Y58780109D01*
X79845224Y58743355D01*
X79873355Y58715224D01*
X79910109Y58700000D01*
X79949891Y58700000D01*
X79986645Y58715224D01*
X80014776Y58743355D01*
X80030000Y58780109D01*
X80030000Y58800000D01*
X80109605Y58800000D01*
X80109605Y58799999D01*
X80364692Y58544912D01*
X80399653Y58605466D01*
X80410225Y58644920D01*
X80446590Y58704581D01*
X80509437Y58735110D01*
X80578812Y58726815D01*
X80632690Y58682330D01*
X80649775Y58644920D01*
X80660347Y58605464D01*
X80660348Y58605461D01*
X80695306Y58544913D01*
X80695307Y58544912D01*
X80950394Y58799999D01*
X80950394Y58800000D01*
X80930503Y58819891D01*
X81030000Y58819891D01*
X81030000Y58780109D01*
X81045224Y58743355D01*
X81073355Y58715224D01*
X81110109Y58700000D01*
X81149891Y58700000D01*
X81186645Y58715224D01*
X81214776Y58743355D01*
X81230000Y58780109D01*
X81230000Y58800000D01*
X81309605Y58800000D01*
X81309605Y58799999D01*
X81564692Y58544912D01*
X81599653Y58605466D01*
X81610225Y58644920D01*
X81646590Y58704581D01*
X81709437Y58735110D01*
X81778812Y58726815D01*
X81832690Y58682330D01*
X81849775Y58644920D01*
X81860347Y58605464D01*
X81860348Y58605461D01*
X81895306Y58544913D01*
X81895307Y58544912D01*
X82150394Y58799999D01*
X82150394Y58800000D01*
X82130503Y58819891D01*
X82230000Y58819891D01*
X82230000Y58780109D01*
X82245224Y58743355D01*
X82273355Y58715224D01*
X82310109Y58700000D01*
X82349891Y58700000D01*
X82386645Y58715224D01*
X82414776Y58743355D01*
X82430000Y58780109D01*
X82430000Y58800000D01*
X82509605Y58800000D01*
X82509605Y58799999D01*
X82764692Y58544912D01*
X82799652Y58605465D01*
X82834000Y58733650D01*
X82834000Y58866351D01*
X82799651Y58994541D01*
X82764693Y59055090D01*
X82509605Y58800000D01*
X82430000Y58800000D01*
X82430000Y58819891D01*
X82414776Y58856645D01*
X82386645Y58884776D01*
X82349891Y58900000D01*
X82310109Y58900000D01*
X82273355Y58884776D01*
X82245224Y58856645D01*
X82230000Y58819891D01*
X82130503Y58819891D01*
X81895306Y59055089D01*
X81860347Y58994538D01*
X81849775Y58955080D01*
X81813410Y58895420D01*
X81750563Y58864891D01*
X81681187Y58873186D01*
X81627309Y58917671D01*
X81610225Y58955080D01*
X81599651Y58994541D01*
X81564693Y59055090D01*
X81309605Y58800000D01*
X81230000Y58800000D01*
X81230000Y58819891D01*
X81214776Y58856645D01*
X81186645Y58884776D01*
X81149891Y58900000D01*
X81110109Y58900000D01*
X81073355Y58884776D01*
X81045224Y58856645D01*
X81030000Y58819891D01*
X80930503Y58819891D01*
X80695306Y59055089D01*
X80660347Y58994538D01*
X80649775Y58955080D01*
X80613410Y58895420D01*
X80550563Y58864891D01*
X80481187Y58873186D01*
X80427309Y58917671D01*
X80410225Y58955080D01*
X80399651Y58994541D01*
X80364693Y59055090D01*
X80109605Y58800000D01*
X80030000Y58800000D01*
X80030000Y58819891D01*
X80014776Y58856645D01*
X79986645Y58884776D01*
X79949891Y58900000D01*
X79910109Y58900000D01*
X79873355Y58884776D01*
X79845224Y58856645D01*
X79830000Y58819891D01*
X79730503Y58819891D01*
X79495305Y59055089D01*
X79460347Y58994538D01*
X79449775Y58955080D01*
X79413410Y58895420D01*
X79350563Y58864891D01*
X79281187Y58873186D01*
X79227309Y58917671D01*
X79210225Y58955080D01*
X79199651Y58994541D01*
X79164693Y59055090D01*
X78909605Y58800000D01*
X78830000Y58800000D01*
X78830000Y58819891D01*
X78814776Y58856645D01*
X78786645Y58884776D01*
X78749891Y58900000D01*
X78710109Y58900000D01*
X78673355Y58884776D01*
X78645224Y58856645D01*
X78630000Y58819891D01*
X78530503Y58819891D01*
X78295306Y59055089D01*
X78260347Y58994538D01*
X78226000Y58866351D01*
X66750500Y58866351D01*
X66750500Y59565307D01*
X78474910Y59565307D01*
X78535459Y59530349D01*
X78535458Y59530349D01*
X78574920Y59519775D01*
X78634580Y59483410D01*
X78665109Y59420563D01*
X78656814Y59351187D01*
X78612329Y59297309D01*
X78574920Y59280225D01*
X78535462Y59269653D01*
X78474911Y59234694D01*
X78730000Y58979606D01*
X78985088Y59234693D01*
X78985087Y59234694D01*
X78924539Y59269652D01*
X78924536Y59269653D01*
X78885080Y59280225D01*
X78825419Y59316590D01*
X78794890Y59379437D01*
X78803185Y59448812D01*
X78847670Y59502690D01*
X78885080Y59519775D01*
X78924534Y59530347D01*
X78985086Y59565307D01*
X79674910Y59565307D01*
X79735459Y59530349D01*
X79735458Y59530349D01*
X79774920Y59519775D01*
X79834580Y59483410D01*
X79865109Y59420563D01*
X79856814Y59351187D01*
X79812329Y59297309D01*
X79774920Y59280225D01*
X79735462Y59269653D01*
X79674911Y59234694D01*
X79930000Y58979606D01*
X80185088Y59234693D01*
X80185087Y59234694D01*
X80124539Y59269652D01*
X80124536Y59269653D01*
X80085080Y59280225D01*
X80025419Y59316590D01*
X79994890Y59379437D01*
X80003185Y59448812D01*
X80047670Y59502690D01*
X80085080Y59519775D01*
X80124534Y59530347D01*
X80185086Y59565307D01*
X80874910Y59565307D01*
X80935459Y59530349D01*
X80935458Y59530349D01*
X80974920Y59519775D01*
X81034580Y59483410D01*
X81065109Y59420563D01*
X81056814Y59351187D01*
X81012329Y59297309D01*
X80974920Y59280225D01*
X80935462Y59269653D01*
X80874911Y59234694D01*
X81130000Y58979606D01*
X81385088Y59234693D01*
X81385087Y59234694D01*
X81324539Y59269652D01*
X81324536Y59269653D01*
X81285080Y59280225D01*
X81225419Y59316590D01*
X81194890Y59379437D01*
X81203185Y59448812D01*
X81247670Y59502690D01*
X81285080Y59519775D01*
X81324534Y59530347D01*
X81385086Y59565307D01*
X82074910Y59565307D01*
X82135459Y59530349D01*
X82135458Y59530349D01*
X82174920Y59519775D01*
X82234580Y59483410D01*
X82265109Y59420563D01*
X82256814Y59351187D01*
X82212329Y59297309D01*
X82174920Y59280225D01*
X82135462Y59269653D01*
X82074911Y59234694D01*
X82330000Y58979606D01*
X82585088Y59234693D01*
X82585087Y59234694D01*
X82524539Y59269652D01*
X82524536Y59269653D01*
X82485080Y59280225D01*
X82425419Y59316590D01*
X82394890Y59379437D01*
X82403185Y59448812D01*
X82447670Y59502690D01*
X82485080Y59519775D01*
X82524534Y59530347D01*
X82585088Y59565308D01*
X82330001Y59820395D01*
X82074910Y59565307D01*
X81385086Y59565307D01*
X81385088Y59565308D01*
X81130001Y59820395D01*
X80874910Y59565307D01*
X80185086Y59565307D01*
X80185088Y59565308D01*
X79930001Y59820395D01*
X79674910Y59565307D01*
X78985086Y59565307D01*
X78985088Y59565308D01*
X78730001Y59820395D01*
X78474910Y59565307D01*
X66750500Y59565307D01*
X66750500Y60828847D01*
X69449500Y60828847D01*
X69449500Y60671154D01*
X69480261Y60516511D01*
X69480264Y60516499D01*
X69540602Y60370828D01*
X69540609Y60370815D01*
X69628210Y60239712D01*
X69628213Y60239708D01*
X69739707Y60128214D01*
X69739711Y60128211D01*
X69870814Y60040610D01*
X69870827Y60040603D01*
X70016498Y59980265D01*
X70016503Y59980263D01*
X70171153Y59949501D01*
X70171156Y59949500D01*
X70171158Y59949500D01*
X70328844Y59949500D01*
X70328845Y59949501D01*
X70483497Y59980263D01*
X70629179Y60040606D01*
X70667709Y60066351D01*
X78226000Y60066351D01*
X78226000Y59933650D01*
X78260347Y59805462D01*
X78260348Y59805461D01*
X78295306Y59744913D01*
X78295307Y59744912D01*
X78550394Y59999999D01*
X78550394Y60000000D01*
X78530503Y60019891D01*
X78630000Y60019891D01*
X78630000Y59980109D01*
X78645224Y59943355D01*
X78673355Y59915224D01*
X78710109Y59900000D01*
X78749891Y59900000D01*
X78786645Y59915224D01*
X78814776Y59943355D01*
X78830000Y59980109D01*
X78830000Y60000000D01*
X78909605Y60000000D01*
X78909605Y59999999D01*
X79164692Y59744912D01*
X79199653Y59805466D01*
X79210225Y59844920D01*
X79246590Y59904581D01*
X79309437Y59935110D01*
X79378812Y59926815D01*
X79432690Y59882330D01*
X79449775Y59844920D01*
X79460347Y59805464D01*
X79460348Y59805461D01*
X79495306Y59744913D01*
X79495307Y59744912D01*
X79750394Y59999999D01*
X79750394Y60000000D01*
X79730503Y60019891D01*
X79830000Y60019891D01*
X79830000Y59980109D01*
X79845224Y59943355D01*
X79873355Y59915224D01*
X79910109Y59900000D01*
X79949891Y59900000D01*
X79986645Y59915224D01*
X80014776Y59943355D01*
X80030000Y59980109D01*
X80030000Y60000000D01*
X80109605Y60000000D01*
X80109605Y59999999D01*
X80364692Y59744912D01*
X80399653Y59805466D01*
X80410225Y59844920D01*
X80446590Y59904581D01*
X80509437Y59935110D01*
X80578812Y59926815D01*
X80632690Y59882330D01*
X80649775Y59844920D01*
X80660347Y59805464D01*
X80660348Y59805461D01*
X80695306Y59744913D01*
X80695307Y59744912D01*
X80950394Y59999999D01*
X80950394Y60000000D01*
X80930503Y60019891D01*
X81030000Y60019891D01*
X81030000Y59980109D01*
X81045224Y59943355D01*
X81073355Y59915224D01*
X81110109Y59900000D01*
X81149891Y59900000D01*
X81186645Y59915224D01*
X81214776Y59943355D01*
X81230000Y59980109D01*
X81230000Y60000000D01*
X81309605Y60000000D01*
X81309605Y59999999D01*
X81564692Y59744912D01*
X81599653Y59805466D01*
X81610225Y59844920D01*
X81646590Y59904581D01*
X81709437Y59935110D01*
X81778812Y59926815D01*
X81832690Y59882330D01*
X81849775Y59844920D01*
X81860347Y59805464D01*
X81860348Y59805461D01*
X81895306Y59744913D01*
X81895307Y59744912D01*
X82150394Y59999999D01*
X82150394Y60000000D01*
X82130503Y60019891D01*
X82230000Y60019891D01*
X82230000Y59980109D01*
X82245224Y59943355D01*
X82273355Y59915224D01*
X82310109Y59900000D01*
X82349891Y59900000D01*
X82386645Y59915224D01*
X82414776Y59943355D01*
X82430000Y59980109D01*
X82430000Y60000000D01*
X82509605Y60000000D01*
X82509605Y59999999D01*
X82764692Y59744912D01*
X82799652Y59805465D01*
X82834000Y59933650D01*
X82834000Y60066351D01*
X82799651Y60194541D01*
X82764693Y60255090D01*
X82509605Y60000000D01*
X82430000Y60000000D01*
X82430000Y60019891D01*
X82414776Y60056645D01*
X82386645Y60084776D01*
X82349891Y60100000D01*
X82310109Y60100000D01*
X82273355Y60084776D01*
X82245224Y60056645D01*
X82230000Y60019891D01*
X82130503Y60019891D01*
X81895305Y60255089D01*
X81860347Y60194538D01*
X81849775Y60155080D01*
X81813410Y60095420D01*
X81750563Y60064891D01*
X81681187Y60073186D01*
X81627309Y60117671D01*
X81610225Y60155080D01*
X81599651Y60194541D01*
X81564693Y60255090D01*
X81309605Y60000000D01*
X81230000Y60000000D01*
X81230000Y60019891D01*
X81214776Y60056645D01*
X81186645Y60084776D01*
X81149891Y60100000D01*
X81110109Y60100000D01*
X81073355Y60084776D01*
X81045224Y60056645D01*
X81030000Y60019891D01*
X80930503Y60019891D01*
X80695306Y60255089D01*
X80660347Y60194538D01*
X80649775Y60155080D01*
X80613410Y60095420D01*
X80550563Y60064891D01*
X80481187Y60073186D01*
X80427309Y60117671D01*
X80410225Y60155080D01*
X80399651Y60194541D01*
X80364693Y60255090D01*
X80109605Y60000000D01*
X80030000Y60000000D01*
X80030000Y60019891D01*
X80014776Y60056645D01*
X79986645Y60084776D01*
X79949891Y60100000D01*
X79910109Y60100000D01*
X79873355Y60084776D01*
X79845224Y60056645D01*
X79830000Y60019891D01*
X79730503Y60019891D01*
X79495306Y60255089D01*
X79460347Y60194538D01*
X79449775Y60155080D01*
X79413410Y60095420D01*
X79350563Y60064891D01*
X79281187Y60073186D01*
X79227309Y60117671D01*
X79210225Y60155080D01*
X79199651Y60194541D01*
X79164693Y60255090D01*
X78909605Y60000000D01*
X78830000Y60000000D01*
X78830000Y60019891D01*
X78814776Y60056645D01*
X78786645Y60084776D01*
X78749891Y60100000D01*
X78710109Y60100000D01*
X78673355Y60084776D01*
X78645224Y60056645D01*
X78630000Y60019891D01*
X78530503Y60019891D01*
X78295305Y60255089D01*
X78260347Y60194538D01*
X78226000Y60066351D01*
X70667709Y60066351D01*
X70760289Y60128211D01*
X70760292Y60128214D01*
X70794240Y60162161D01*
X70871786Y60239708D01*
X70871789Y60239711D01*
X70959394Y60370821D01*
X71019737Y60516503D01*
X71050500Y60671158D01*
X71050500Y60765307D01*
X78474910Y60765307D01*
X78535459Y60730349D01*
X78535458Y60730349D01*
X78574920Y60719775D01*
X78634580Y60683410D01*
X78665109Y60620563D01*
X78656814Y60551187D01*
X78612329Y60497309D01*
X78574920Y60480225D01*
X78535462Y60469653D01*
X78474911Y60434694D01*
X78730000Y60179606D01*
X78985088Y60434693D01*
X78985087Y60434694D01*
X78924539Y60469652D01*
X78924536Y60469653D01*
X78885080Y60480225D01*
X78825419Y60516590D01*
X78794890Y60579437D01*
X78803185Y60648812D01*
X78847670Y60702690D01*
X78885080Y60719775D01*
X78924534Y60730347D01*
X78985086Y60765307D01*
X79674910Y60765307D01*
X79735459Y60730349D01*
X79735458Y60730349D01*
X79774920Y60719775D01*
X79834580Y60683410D01*
X79865109Y60620563D01*
X79856814Y60551187D01*
X79812329Y60497309D01*
X79774920Y60480225D01*
X79735462Y60469653D01*
X79674911Y60434694D01*
X79930000Y60179606D01*
X80185088Y60434693D01*
X80185087Y60434694D01*
X80124539Y60469652D01*
X80124536Y60469653D01*
X80085080Y60480225D01*
X80025419Y60516590D01*
X79994890Y60579437D01*
X80003185Y60648812D01*
X80047670Y60702690D01*
X80085080Y60719775D01*
X80124534Y60730347D01*
X80185086Y60765307D01*
X80874910Y60765307D01*
X80935459Y60730349D01*
X80935458Y60730349D01*
X80974920Y60719775D01*
X81034580Y60683410D01*
X81065109Y60620563D01*
X81056814Y60551187D01*
X81012329Y60497309D01*
X80974920Y60480225D01*
X80935462Y60469653D01*
X80874911Y60434694D01*
X81130000Y60179606D01*
X81385088Y60434693D01*
X81385087Y60434694D01*
X81324539Y60469652D01*
X81324536Y60469653D01*
X81285080Y60480225D01*
X81225419Y60516590D01*
X81194890Y60579437D01*
X81203185Y60648812D01*
X81247670Y60702690D01*
X81285080Y60719775D01*
X81324534Y60730347D01*
X81385086Y60765307D01*
X82074910Y60765307D01*
X82135459Y60730349D01*
X82135458Y60730349D01*
X82174920Y60719775D01*
X82234580Y60683410D01*
X82265109Y60620563D01*
X82256814Y60551187D01*
X82212329Y60497309D01*
X82174920Y60480225D01*
X82135462Y60469653D01*
X82074911Y60434694D01*
X82330000Y60179606D01*
X82585088Y60434693D01*
X82585087Y60434694D01*
X82524539Y60469652D01*
X82524536Y60469653D01*
X82485080Y60480225D01*
X82425419Y60516590D01*
X82394890Y60579437D01*
X82403185Y60648812D01*
X82447670Y60702690D01*
X82485080Y60719775D01*
X82524534Y60730347D01*
X82585088Y60765308D01*
X82330001Y61020395D01*
X82074910Y60765307D01*
X81385086Y60765307D01*
X81385088Y60765308D01*
X81130001Y61020395D01*
X80874910Y60765307D01*
X80185086Y60765307D01*
X80185088Y60765308D01*
X79930001Y61020395D01*
X79674910Y60765307D01*
X78985086Y60765307D01*
X78985088Y60765308D01*
X78730001Y61020395D01*
X78474910Y60765307D01*
X71050500Y60765307D01*
X71050500Y60828842D01*
X71050500Y60828845D01*
X71050499Y60828847D01*
X71019738Y60983490D01*
X71019737Y60983497D01*
X71010637Y61005466D01*
X70959397Y61129173D01*
X70959390Y61129186D01*
X70908339Y61205589D01*
X70871789Y61260289D01*
X70871786Y61260293D01*
X70865728Y61266351D01*
X78226000Y61266351D01*
X78226000Y61133650D01*
X78260347Y61005462D01*
X78260348Y61005461D01*
X78295306Y60944913D01*
X78295307Y60944912D01*
X78550394Y61199999D01*
X78550394Y61200000D01*
X78530503Y61219891D01*
X78630000Y61219891D01*
X78630000Y61180109D01*
X78645224Y61143355D01*
X78673355Y61115224D01*
X78710109Y61100000D01*
X78749891Y61100000D01*
X78786645Y61115224D01*
X78814776Y61143355D01*
X78830000Y61180109D01*
X78830000Y61200000D01*
X78909605Y61200000D01*
X78909605Y61199999D01*
X79164692Y60944912D01*
X79199653Y61005466D01*
X79210225Y61044920D01*
X79246590Y61104581D01*
X79309437Y61135110D01*
X79378812Y61126815D01*
X79432690Y61082330D01*
X79449775Y61044920D01*
X79460347Y61005464D01*
X79460348Y61005461D01*
X79495306Y60944913D01*
X79495307Y60944912D01*
X79750394Y61199999D01*
X79750394Y61200000D01*
X79730503Y61219891D01*
X79830000Y61219891D01*
X79830000Y61180109D01*
X79845224Y61143355D01*
X79873355Y61115224D01*
X79910109Y61100000D01*
X79949891Y61100000D01*
X79986645Y61115224D01*
X80014776Y61143355D01*
X80030000Y61180109D01*
X80030000Y61200000D01*
X80109605Y61200000D01*
X80109605Y61199999D01*
X80364692Y60944912D01*
X80399653Y61005466D01*
X80410225Y61044920D01*
X80446590Y61104581D01*
X80509437Y61135110D01*
X80578812Y61126815D01*
X80632690Y61082330D01*
X80649775Y61044920D01*
X80660347Y61005464D01*
X80660348Y61005461D01*
X80695306Y60944913D01*
X80695307Y60944912D01*
X80950394Y61199999D01*
X80950394Y61200000D01*
X80930503Y61219891D01*
X81030000Y61219891D01*
X81030000Y61180109D01*
X81045224Y61143355D01*
X81073355Y61115224D01*
X81110109Y61100000D01*
X81149891Y61100000D01*
X81186645Y61115224D01*
X81214776Y61143355D01*
X81230000Y61180109D01*
X81230000Y61200000D01*
X81309605Y61200000D01*
X81309605Y61199999D01*
X81564692Y60944912D01*
X81599653Y61005466D01*
X81610225Y61044920D01*
X81646590Y61104581D01*
X81709437Y61135110D01*
X81778812Y61126815D01*
X81832690Y61082330D01*
X81849775Y61044920D01*
X81860347Y61005464D01*
X81860348Y61005461D01*
X81895306Y60944913D01*
X81895307Y60944912D01*
X82150394Y61199999D01*
X82150394Y61200000D01*
X82130503Y61219891D01*
X82230000Y61219891D01*
X82230000Y61180109D01*
X82245224Y61143355D01*
X82273355Y61115224D01*
X82310109Y61100000D01*
X82349891Y61100000D01*
X82386645Y61115224D01*
X82414776Y61143355D01*
X82430000Y61180109D01*
X82430000Y61200000D01*
X82509605Y61200000D01*
X82509605Y61199999D01*
X82764692Y60944912D01*
X82799652Y61005465D01*
X82834000Y61133650D01*
X82834000Y61266351D01*
X82799651Y61394541D01*
X82764693Y61455090D01*
X82509605Y61200000D01*
X82430000Y61200000D01*
X82430000Y61219891D01*
X82414776Y61256645D01*
X82386645Y61284776D01*
X82349891Y61300000D01*
X82310109Y61300000D01*
X82273355Y61284776D01*
X82245224Y61256645D01*
X82230000Y61219891D01*
X82130503Y61219891D01*
X81895306Y61455089D01*
X81860347Y61394538D01*
X81849775Y61355080D01*
X81813410Y61295420D01*
X81750563Y61264891D01*
X81681187Y61273186D01*
X81627309Y61317671D01*
X81610225Y61355080D01*
X81599651Y61394541D01*
X81564693Y61455090D01*
X81309605Y61200000D01*
X81230000Y61200000D01*
X81230000Y61219891D01*
X81214776Y61256645D01*
X81186645Y61284776D01*
X81149891Y61300000D01*
X81110109Y61300000D01*
X81073355Y61284776D01*
X81045224Y61256645D01*
X81030000Y61219891D01*
X80930503Y61219891D01*
X80695305Y61455089D01*
X80660347Y61394538D01*
X80649775Y61355080D01*
X80613410Y61295420D01*
X80550563Y61264891D01*
X80481187Y61273186D01*
X80427309Y61317671D01*
X80410225Y61355080D01*
X80399651Y61394541D01*
X80364693Y61455090D01*
X80109605Y61200000D01*
X80030000Y61200000D01*
X80030000Y61219891D01*
X80014776Y61256645D01*
X79986645Y61284776D01*
X79949891Y61300000D01*
X79910109Y61300000D01*
X79873355Y61284776D01*
X79845224Y61256645D01*
X79830000Y61219891D01*
X79730503Y61219891D01*
X79495305Y61455089D01*
X79460347Y61394538D01*
X79449775Y61355080D01*
X79413410Y61295420D01*
X79350563Y61264891D01*
X79281187Y61273186D01*
X79227309Y61317671D01*
X79210225Y61355080D01*
X79199651Y61394541D01*
X79164693Y61455090D01*
X78909605Y61200000D01*
X78830000Y61200000D01*
X78830000Y61219891D01*
X78814776Y61256645D01*
X78786645Y61284776D01*
X78749891Y61300000D01*
X78710109Y61300000D01*
X78673355Y61284776D01*
X78645224Y61256645D01*
X78630000Y61219891D01*
X78530503Y61219891D01*
X78295306Y61455089D01*
X78260347Y61394538D01*
X78226000Y61266351D01*
X70865728Y61266351D01*
X70760292Y61371787D01*
X70760288Y61371790D01*
X70629185Y61459391D01*
X70629172Y61459398D01*
X70483501Y61519736D01*
X70483489Y61519739D01*
X70328845Y61550500D01*
X70328842Y61550500D01*
X70171158Y61550500D01*
X70171155Y61550500D01*
X70016510Y61519739D01*
X70016498Y61519736D01*
X69870827Y61459398D01*
X69870814Y61459391D01*
X69739711Y61371790D01*
X69739707Y61371787D01*
X69628213Y61260293D01*
X69628210Y61260289D01*
X69540609Y61129186D01*
X69540602Y61129173D01*
X69480264Y60983502D01*
X69480261Y60983490D01*
X69449500Y60828847D01*
X66750500Y60828847D01*
X66750500Y61828847D01*
X67249500Y61828847D01*
X67249500Y61671154D01*
X67280261Y61516511D01*
X67280264Y61516499D01*
X67340602Y61370828D01*
X67340609Y61370815D01*
X67428210Y61239712D01*
X67428213Y61239708D01*
X67539707Y61128214D01*
X67539711Y61128211D01*
X67670814Y61040610D01*
X67670827Y61040603D01*
X67755669Y61005461D01*
X67816503Y60980263D01*
X67971153Y60949501D01*
X67971156Y60949500D01*
X67971158Y60949500D01*
X68128844Y60949500D01*
X68128845Y60949501D01*
X68139179Y60951557D01*
X68164287Y60956550D01*
X68164292Y60956551D01*
X68249800Y60973561D01*
X68283497Y60980263D01*
X68429179Y61040606D01*
X68560289Y61128211D01*
X68671789Y61239711D01*
X68759394Y61370821D01*
X68819737Y61516503D01*
X68850500Y61671158D01*
X68850500Y61828842D01*
X68850500Y61828845D01*
X68850499Y61828847D01*
X68823356Y61965307D01*
X78474910Y61965307D01*
X78535459Y61930349D01*
X78535458Y61930349D01*
X78574920Y61919775D01*
X78634580Y61883410D01*
X78665109Y61820563D01*
X78656814Y61751187D01*
X78612329Y61697309D01*
X78574920Y61680225D01*
X78535462Y61669653D01*
X78474911Y61634694D01*
X78730000Y61379606D01*
X78985088Y61634693D01*
X78985087Y61634694D01*
X78924539Y61669652D01*
X78924536Y61669653D01*
X78885080Y61680225D01*
X78825419Y61716590D01*
X78794890Y61779437D01*
X78803185Y61848812D01*
X78847670Y61902690D01*
X78885080Y61919775D01*
X78924534Y61930347D01*
X78985086Y61965307D01*
X79674910Y61965307D01*
X79735459Y61930349D01*
X79735458Y61930349D01*
X79774920Y61919775D01*
X79834580Y61883410D01*
X79865109Y61820563D01*
X79856814Y61751187D01*
X79812329Y61697309D01*
X79774920Y61680225D01*
X79735462Y61669653D01*
X79674911Y61634694D01*
X79930000Y61379606D01*
X80185088Y61634693D01*
X80185087Y61634694D01*
X80124539Y61669652D01*
X80124536Y61669653D01*
X80085080Y61680225D01*
X80025419Y61716590D01*
X79994890Y61779437D01*
X80003185Y61848812D01*
X80047670Y61902690D01*
X80085080Y61919775D01*
X80124534Y61930347D01*
X80185086Y61965307D01*
X80874910Y61965307D01*
X80935459Y61930349D01*
X80935458Y61930349D01*
X80974920Y61919775D01*
X81034580Y61883410D01*
X81065109Y61820563D01*
X81056814Y61751187D01*
X81012329Y61697309D01*
X80974920Y61680225D01*
X80935462Y61669653D01*
X80874911Y61634694D01*
X81130000Y61379606D01*
X81385088Y61634693D01*
X81385087Y61634694D01*
X81324539Y61669652D01*
X81324536Y61669653D01*
X81285080Y61680225D01*
X81225419Y61716590D01*
X81194890Y61779437D01*
X81203185Y61848812D01*
X81247670Y61902690D01*
X81285080Y61919775D01*
X81324534Y61930347D01*
X81385086Y61965307D01*
X82074910Y61965307D01*
X82135459Y61930349D01*
X82135458Y61930349D01*
X82174920Y61919775D01*
X82234580Y61883410D01*
X82265109Y61820563D01*
X82256814Y61751187D01*
X82212329Y61697309D01*
X82174920Y61680225D01*
X82135462Y61669653D01*
X82074911Y61634694D01*
X82330000Y61379606D01*
X82585088Y61634693D01*
X82585087Y61634694D01*
X82524539Y61669652D01*
X82524536Y61669653D01*
X82485080Y61680225D01*
X82425419Y61716590D01*
X82394890Y61779437D01*
X82403185Y61848812D01*
X82447670Y61902690D01*
X82485080Y61919775D01*
X82524534Y61930347D01*
X82585088Y61965308D01*
X82330001Y62220395D01*
X82074910Y61965307D01*
X81385086Y61965307D01*
X81385088Y61965308D01*
X81130001Y62220395D01*
X80874910Y61965307D01*
X80185086Y61965307D01*
X80185088Y61965308D01*
X79930001Y62220395D01*
X79674910Y61965307D01*
X78985086Y61965307D01*
X78985088Y61965308D01*
X78730001Y62220395D01*
X78474910Y61965307D01*
X68823356Y61965307D01*
X68819740Y61983486D01*
X68819735Y61983502D01*
X68759397Y62129173D01*
X68759390Y62129186D01*
X68671789Y62260289D01*
X68671786Y62260293D01*
X68560292Y62371787D01*
X68560287Y62371791D01*
X68429185Y62459391D01*
X68429172Y62459398D01*
X68412386Y62466351D01*
X78226000Y62466351D01*
X78226000Y62333650D01*
X78260347Y62205462D01*
X78260348Y62205461D01*
X78295306Y62144913D01*
X78295307Y62144912D01*
X78550394Y62399999D01*
X78550394Y62400000D01*
X78530503Y62419891D01*
X78630000Y62419891D01*
X78630000Y62380109D01*
X78645224Y62343355D01*
X78673355Y62315224D01*
X78710109Y62300000D01*
X78749891Y62300000D01*
X78786645Y62315224D01*
X78814776Y62343355D01*
X78830000Y62380109D01*
X78830000Y62400000D01*
X78909605Y62400000D01*
X78909605Y62399999D01*
X79164692Y62144912D01*
X79199653Y62205466D01*
X79210225Y62244920D01*
X79246590Y62304581D01*
X79309437Y62335110D01*
X79378812Y62326815D01*
X79432690Y62282330D01*
X79449775Y62244920D01*
X79460347Y62205464D01*
X79460348Y62205461D01*
X79495306Y62144913D01*
X79495307Y62144912D01*
X79750394Y62399999D01*
X79750394Y62400000D01*
X79730503Y62419891D01*
X79830000Y62419891D01*
X79830000Y62380109D01*
X79845224Y62343355D01*
X79873355Y62315224D01*
X79910109Y62300000D01*
X79949891Y62300000D01*
X79986645Y62315224D01*
X80014776Y62343355D01*
X80030000Y62380109D01*
X80030000Y62400000D01*
X80109605Y62400000D01*
X80109605Y62399999D01*
X80364692Y62144912D01*
X80399653Y62205466D01*
X80410225Y62244920D01*
X80446590Y62304581D01*
X80509437Y62335110D01*
X80578812Y62326815D01*
X80632690Y62282330D01*
X80649775Y62244920D01*
X80660347Y62205464D01*
X80660348Y62205461D01*
X80695306Y62144913D01*
X80695307Y62144912D01*
X80950394Y62399999D01*
X80950394Y62400000D01*
X80930503Y62419891D01*
X81030000Y62419891D01*
X81030000Y62380109D01*
X81045224Y62343355D01*
X81073355Y62315224D01*
X81110109Y62300000D01*
X81149891Y62300000D01*
X81186645Y62315224D01*
X81214776Y62343355D01*
X81230000Y62380109D01*
X81230000Y62400000D01*
X81309605Y62400000D01*
X81309605Y62399999D01*
X81564692Y62144912D01*
X81599653Y62205466D01*
X81610225Y62244920D01*
X81646590Y62304581D01*
X81709437Y62335110D01*
X81778812Y62326815D01*
X81832690Y62282330D01*
X81849775Y62244920D01*
X81860347Y62205464D01*
X81860348Y62205461D01*
X81895306Y62144913D01*
X81895307Y62144912D01*
X82150394Y62399999D01*
X82150394Y62400000D01*
X82130503Y62419891D01*
X82230000Y62419891D01*
X82230000Y62380109D01*
X82245224Y62343355D01*
X82273355Y62315224D01*
X82310109Y62300000D01*
X82349891Y62300000D01*
X82386645Y62315224D01*
X82414776Y62343355D01*
X82430000Y62380109D01*
X82430000Y62400000D01*
X82509605Y62400000D01*
X82509605Y62399999D01*
X82764692Y62144912D01*
X82799652Y62205465D01*
X82834000Y62333650D01*
X82834000Y62466351D01*
X82799651Y62594541D01*
X82764693Y62655090D01*
X82509605Y62400000D01*
X82430000Y62400000D01*
X82430000Y62419891D01*
X82414776Y62456645D01*
X82386645Y62484776D01*
X82349891Y62500000D01*
X82310109Y62500000D01*
X82273355Y62484776D01*
X82245224Y62456645D01*
X82230000Y62419891D01*
X82130503Y62419891D01*
X81895306Y62655089D01*
X81860347Y62594538D01*
X81849775Y62555080D01*
X81813410Y62495420D01*
X81750563Y62464891D01*
X81681187Y62473186D01*
X81627309Y62517671D01*
X81610225Y62555080D01*
X81599651Y62594541D01*
X81564693Y62655090D01*
X81309605Y62400000D01*
X81230000Y62400000D01*
X81230000Y62419891D01*
X81214776Y62456645D01*
X81186645Y62484776D01*
X81149891Y62500000D01*
X81110109Y62500000D01*
X81073355Y62484776D01*
X81045224Y62456645D01*
X81030000Y62419891D01*
X80930503Y62419891D01*
X80695306Y62655089D01*
X80660347Y62594538D01*
X80649775Y62555080D01*
X80613410Y62495420D01*
X80550563Y62464891D01*
X80481187Y62473186D01*
X80427309Y62517671D01*
X80410225Y62555080D01*
X80399651Y62594541D01*
X80364693Y62655090D01*
X80109605Y62400000D01*
X80030000Y62400000D01*
X80030000Y62419891D01*
X80014776Y62456645D01*
X79986645Y62484776D01*
X79949891Y62500000D01*
X79910109Y62500000D01*
X79873355Y62484776D01*
X79845224Y62456645D01*
X79830000Y62419891D01*
X79730503Y62419891D01*
X79495305Y62655089D01*
X79460347Y62594538D01*
X79449775Y62555080D01*
X79413410Y62495420D01*
X79350563Y62464891D01*
X79281187Y62473186D01*
X79227309Y62517671D01*
X79210225Y62555080D01*
X79199651Y62594541D01*
X79164693Y62655090D01*
X78909605Y62400000D01*
X78830000Y62400000D01*
X78830000Y62419891D01*
X78814776Y62456645D01*
X78786645Y62484776D01*
X78749891Y62500000D01*
X78710109Y62500000D01*
X78673355Y62484776D01*
X78645224Y62456645D01*
X78630000Y62419891D01*
X78530503Y62419891D01*
X78295306Y62655089D01*
X78260347Y62594538D01*
X78226000Y62466351D01*
X68412386Y62466351D01*
X68283501Y62519736D01*
X68283489Y62519739D01*
X68128845Y62550500D01*
X68128842Y62550500D01*
X67971158Y62550500D01*
X67971155Y62550500D01*
X67816510Y62519739D01*
X67816498Y62519736D01*
X67670827Y62459398D01*
X67670814Y62459391D01*
X67539711Y62371790D01*
X67539707Y62371787D01*
X67428213Y62260293D01*
X67428210Y62260289D01*
X67340609Y62129186D01*
X67340602Y62129173D01*
X67280264Y61983502D01*
X67280261Y61983490D01*
X67249500Y61828847D01*
X66750500Y61828847D01*
X66750500Y62834694D01*
X78474911Y62834694D01*
X78730000Y62579606D01*
X78985088Y62834693D01*
X78985087Y62834694D01*
X79674911Y62834694D01*
X79930000Y62579606D01*
X80185088Y62834693D01*
X80185087Y62834694D01*
X80874911Y62834694D01*
X81130000Y62579606D01*
X81385088Y62834693D01*
X81385087Y62834694D01*
X82074911Y62834694D01*
X82330000Y62579606D01*
X82585088Y62834693D01*
X82585087Y62834694D01*
X82524539Y62869652D01*
X82524538Y62869653D01*
X82396350Y62904000D01*
X82263650Y62904000D01*
X82135462Y62869653D01*
X82074911Y62834694D01*
X81385087Y62834694D01*
X81324539Y62869652D01*
X81324538Y62869653D01*
X81196350Y62904000D01*
X81063650Y62904000D01*
X80935462Y62869653D01*
X80874911Y62834694D01*
X80185087Y62834694D01*
X80124539Y62869652D01*
X80124538Y62869653D01*
X79996350Y62904000D01*
X79863650Y62904000D01*
X79735462Y62869653D01*
X79674911Y62834694D01*
X78985087Y62834694D01*
X78924539Y62869652D01*
X78924538Y62869653D01*
X78796350Y62904000D01*
X78663650Y62904000D01*
X78535462Y62869653D01*
X78474911Y62834694D01*
X66750500Y62834694D01*
X66750500Y64578847D01*
X76499500Y64578847D01*
X76499500Y64421154D01*
X76530261Y64266511D01*
X76530264Y64266499D01*
X76590602Y64120828D01*
X76590609Y64120815D01*
X76678210Y63989712D01*
X76678213Y63989708D01*
X76789707Y63878214D01*
X76789711Y63878211D01*
X76920814Y63790610D01*
X76920827Y63790603D01*
X77066498Y63730265D01*
X77066503Y63730263D01*
X77221153Y63699501D01*
X77221156Y63699500D01*
X77221158Y63699500D01*
X77378844Y63699500D01*
X77378845Y63699501D01*
X77533497Y63730263D01*
X77679179Y63790606D01*
X77810289Y63878211D01*
X77921789Y63989711D01*
X78009394Y64120821D01*
X78069737Y64266503D01*
X78100500Y64421158D01*
X78100500Y64478847D01*
X82999500Y64478847D01*
X82999500Y64321154D01*
X83030261Y64166511D01*
X83030264Y64166499D01*
X83090602Y64020828D01*
X83090609Y64020815D01*
X83178210Y63889712D01*
X83178213Y63889708D01*
X83289707Y63778214D01*
X83289711Y63778211D01*
X83420814Y63690610D01*
X83420827Y63690603D01*
X83566498Y63630265D01*
X83566503Y63630263D01*
X83721153Y63599501D01*
X83721156Y63599500D01*
X83721158Y63599500D01*
X83878844Y63599500D01*
X83878845Y63599501D01*
X84033497Y63630263D01*
X84179179Y63690606D01*
X84310289Y63778211D01*
X84421789Y63889711D01*
X84509394Y64020821D01*
X84569737Y64166503D01*
X84600500Y64321158D01*
X84600500Y64478842D01*
X84600500Y64478845D01*
X84600499Y64478847D01*
X84569737Y64633497D01*
X84528314Y64733502D01*
X84509397Y64779173D01*
X84509390Y64779186D01*
X84421789Y64910289D01*
X84421786Y64910293D01*
X84310292Y65021787D01*
X84310288Y65021790D01*
X84179185Y65109391D01*
X84179172Y65109398D01*
X84033501Y65169736D01*
X84033489Y65169739D01*
X83878845Y65200500D01*
X83878842Y65200500D01*
X83721158Y65200500D01*
X83721155Y65200500D01*
X83566510Y65169739D01*
X83566498Y65169736D01*
X83420827Y65109398D01*
X83420814Y65109391D01*
X83289711Y65021790D01*
X83289707Y65021787D01*
X83178213Y64910293D01*
X83178210Y64910289D01*
X83090609Y64779186D01*
X83090602Y64779173D01*
X83030264Y64633502D01*
X83030261Y64633490D01*
X82999500Y64478847D01*
X78100500Y64478847D01*
X78100500Y64578842D01*
X78100500Y64578845D01*
X78100499Y64578847D01*
X78069738Y64733490D01*
X78069737Y64733497D01*
X78050812Y64779186D01*
X78009397Y64879173D01*
X78009390Y64879186D01*
X77921789Y65010289D01*
X77921786Y65010293D01*
X77810292Y65121787D01*
X77810288Y65121790D01*
X77679185Y65209391D01*
X77679172Y65209398D01*
X77533501Y65269736D01*
X77533489Y65269739D01*
X77378845Y65300500D01*
X77378842Y65300500D01*
X77221158Y65300500D01*
X77221155Y65300500D01*
X77066510Y65269739D01*
X77066498Y65269736D01*
X76920827Y65209398D01*
X76920814Y65209391D01*
X76789711Y65121790D01*
X76789707Y65121787D01*
X76678213Y65010293D01*
X76678210Y65010289D01*
X76590609Y64879186D01*
X76590602Y64879173D01*
X76530264Y64733502D01*
X76530261Y64733490D01*
X76499500Y64578847D01*
X66750500Y64578847D01*
X66750500Y69497303D01*
X66750618Y69502712D01*
X66760433Y69727494D01*
X66767387Y69886770D01*
X66768327Y69897504D01*
X66818153Y70275965D01*
X66820031Y70286613D01*
X66902652Y70659296D01*
X66905439Y70669696D01*
X67011800Y71007032D01*
X76567940Y71007032D01*
X76567940Y70849339D01*
X76598701Y70694696D01*
X76598704Y70694684D01*
X76659042Y70549013D01*
X76659049Y70549000D01*
X76746650Y70417897D01*
X76746653Y70417893D01*
X76858147Y70306399D01*
X76858151Y70306396D01*
X76989254Y70218795D01*
X76989267Y70218788D01*
X77134938Y70158450D01*
X77134943Y70158448D01*
X77289593Y70127686D01*
X77289596Y70127685D01*
X77289598Y70127685D01*
X77447284Y70127685D01*
X77447285Y70127686D01*
X77601937Y70158448D01*
X77747619Y70218791D01*
X77878729Y70306396D01*
X77990229Y70417896D01*
X78077834Y70549006D01*
X78138177Y70694688D01*
X78168940Y70849343D01*
X78168940Y71007027D01*
X78168940Y71007030D01*
X78168939Y71007032D01*
X78138178Y71161675D01*
X78138177Y71161682D01*
X78138175Y71161687D01*
X78077837Y71307358D01*
X78077830Y71307371D01*
X77990229Y71438474D01*
X77990226Y71438478D01*
X77878732Y71549972D01*
X77878728Y71549975D01*
X77747625Y71637576D01*
X77747612Y71637583D01*
X77601941Y71697921D01*
X77601929Y71697924D01*
X77447285Y71728685D01*
X77447282Y71728685D01*
X77289598Y71728685D01*
X77289595Y71728685D01*
X77134950Y71697924D01*
X77134938Y71697921D01*
X76989267Y71637583D01*
X76989254Y71637576D01*
X76858151Y71549975D01*
X76858147Y71549972D01*
X76746653Y71438478D01*
X76746650Y71438474D01*
X76659049Y71307371D01*
X76659042Y71307358D01*
X76598704Y71161687D01*
X76598701Y71161675D01*
X76567940Y71007032D01*
X67011800Y71007032D01*
X67020235Y71033783D01*
X67023919Y71043904D01*
X67170007Y71396590D01*
X67174565Y71406364D01*
X67350826Y71744957D01*
X67356221Y71754302D01*
X67561329Y72076260D01*
X67567519Y72085099D01*
X67799894Y72387935D01*
X67806841Y72396215D01*
X68064730Y72677653D01*
X68072357Y72685280D01*
X68353798Y72943175D01*
X68362062Y72950110D01*
X68664921Y73182504D01*
X68673760Y73188691D01*
X68995697Y73393789D01*
X69005038Y73399183D01*
X69343633Y73575447D01*
X69353424Y73580013D01*
X69706093Y73726095D01*
X69716229Y73729784D01*
X70080293Y73844576D01*
X70090731Y73847371D01*
X70463392Y73929991D01*
X70474028Y73931868D01*
X70852498Y73981696D01*
X70863232Y73982636D01*
X71225738Y73998466D01*
X71246731Y73999382D01*
X71252140Y73999500D01*
X71315896Y73999500D01*
X94184108Y73999500D01*
X94184112Y73999499D01*
G37*
%TD.AperFunction*%
%TD*%
M02*
