%TF.GenerationSoftware,KiCad,Pcbnew,9.0.4-9.0.4-0~ubuntu24.04.1*%
%TF.CreationDate,2025-08-23T01:51:13-04:00*%
%TF.ProjectId,tire_sensor_jlcpcb,74697265-5f73-4656-9e73-6f725f6a6c63,rev?*%
%TF.SameCoordinates,Original*%
%TF.FileFunction,Legend,Top*%
%TF.FilePolarity,Positive*%
%FSLAX46Y46*%
G04 Gerber Fmt 4.6, Leading zero omitted, Abs format (unit mm)*
G04 Created by KiCad (PCBNEW 9.0.4-9.0.4-0~ubuntu24.04.1) date 2025-08-23 01:51:13*
%MOMM*%
%LPD*%
G01*
G04 APERTURE LIST*
G04 Aperture macros list*
%AMRoundRect*
0 Rectangle with rounded corners*
0 $1 Rounding radius*
0 $2 $3 $4 $5 $6 $7 $8 $9 X,Y pos of 4 corners*
0 Add a 4 corners polygon primitive as box body*
4,1,4,$2,$3,$4,$5,$6,$7,$8,$9,$2,$3,0*
0 Add four circle primitives for the rounded corners*
1,1,$1+$1,$2,$3*
1,1,$1+$1,$4,$5*
1,1,$1+$1,$6,$7*
1,1,$1+$1,$8,$9*
0 Add four rect primitives between the rounded corners*
20,1,$1+$1,$2,$3,$4,$5,0*
20,1,$1+$1,$4,$5,$6,$7,0*
20,1,$1+$1,$6,$7,$8,$9,0*
20,1,$1+$1,$8,$9,$2,$3,0*%
G04 Aperture macros list end*
%ADD10C,0.100000*%
%ADD11C,0.120000*%
%ADD12C,0.150000*%
%ADD13C,0.127000*%
%ADD14C,0.200000*%
%ADD15C,0.250000*%
%ADD16RoundRect,0.087500X-0.087500X-0.225000X0.087500X-0.225000X0.087500X0.225000X-0.087500X0.225000X0*%
%ADD17RoundRect,0.087500X-0.225000X-0.087500X0.225000X-0.087500X0.225000X0.087500X-0.225000X0.087500X0*%
%ADD18RoundRect,0.159000X0.159000X0.189000X-0.159000X0.189000X-0.159000X-0.189000X0.159000X-0.189000X0*%
%ADD19RoundRect,0.256850X0.294350X-0.256850X0.294350X0.256850X-0.294350X0.256850X-0.294350X-0.256850X0*%
%ADD20RoundRect,0.159000X-0.159000X-0.189000X0.159000X-0.189000X0.159000X0.189000X-0.159000X0.189000X0*%
%ADD21RoundRect,0.159000X0.189000X-0.159000X0.189000X0.159000X-0.189000X0.159000X-0.189000X-0.159000X0*%
%ADD22RoundRect,0.269000X0.494000X-0.269000X0.494000X0.269000X-0.494000X0.269000X-0.494000X-0.269000X0*%
%ADD23RoundRect,0.159000X-0.189000X0.159000X-0.189000X-0.159000X0.189000X-0.159000X0.189000X0.159000X0*%
%ADD24C,1.143000*%
%ADD25C,0.939800*%
%ADD26RoundRect,0.088100X-0.388100X-0.088100X0.388100X-0.088100X0.388100X0.088100X-0.388100X0.088100X0*%
%ADD27RoundRect,0.088100X-0.088100X-0.388100X0.088100X-0.388100X0.088100X0.388100X-0.088100X0.388100X0*%
%ADD28RoundRect,0.076200X-2.300000X-2.300000X2.300000X-2.300000X2.300000X2.300000X-2.300000X2.300000X0*%
%ADD29RoundRect,0.244000X0.269000X-0.244000X0.269000X0.244000X-0.269000X0.244000X-0.269000X-0.244000X0*%
%ADD30RoundRect,0.288100X0.688100X0.288100X-0.688100X0.288100X-0.688100X-0.288100X0.688100X-0.288100X0*%
%ADD31RoundRect,0.281750X0.394450X-0.494450X0.394450X0.494450X-0.394450X0.494450X-0.394450X-0.494450X0*%
%ADD32RoundRect,0.287778X0.489222X0.714222X-0.489222X0.714222X-0.489222X-0.714222X0.489222X-0.714222X0*%
%ADD33RoundRect,0.101600X0.175000X-0.175000X0.175000X0.175000X-0.175000X0.175000X-0.175000X-0.175000X0*%
G04 APERTURE END LIST*
D10*
X75773038Y73268266D02*
X75773038Y72553981D01*
X75773038Y72553981D02*
X75725419Y72411124D01*
X75725419Y72411124D02*
X75630181Y72315885D01*
X75630181Y72315885D02*
X75487324Y72268266D01*
X75487324Y72268266D02*
X75392086Y72268266D01*
X76725419Y72268266D02*
X76249229Y72268266D01*
X76249229Y72268266D02*
X76249229Y73268266D01*
X77630181Y72363505D02*
X77582562Y72315885D01*
X77582562Y72315885D02*
X77439705Y72268266D01*
X77439705Y72268266D02*
X77344467Y72268266D01*
X77344467Y72268266D02*
X77201610Y72315885D01*
X77201610Y72315885D02*
X77106372Y72411124D01*
X77106372Y72411124D02*
X77058753Y72506362D01*
X77058753Y72506362D02*
X77011134Y72696838D01*
X77011134Y72696838D02*
X77011134Y72839695D01*
X77011134Y72839695D02*
X77058753Y73030171D01*
X77058753Y73030171D02*
X77106372Y73125409D01*
X77106372Y73125409D02*
X77201610Y73220647D01*
X77201610Y73220647D02*
X77344467Y73268266D01*
X77344467Y73268266D02*
X77439705Y73268266D01*
X77439705Y73268266D02*
X77582562Y73220647D01*
X77582562Y73220647D02*
X77630181Y73173028D01*
X78344467Y73268266D02*
X78344467Y72553981D01*
X78344467Y72553981D02*
X78296848Y72411124D01*
X78296848Y72411124D02*
X78201610Y72315885D01*
X78201610Y72315885D02*
X78058753Y72268266D01*
X78058753Y72268266D02*
X77963515Y72268266D01*
X79296848Y72268266D02*
X78820658Y72268266D01*
X78820658Y72268266D02*
X78820658Y73268266D01*
X80201610Y72363505D02*
X80153991Y72315885D01*
X80153991Y72315885D02*
X80011134Y72268266D01*
X80011134Y72268266D02*
X79915896Y72268266D01*
X79915896Y72268266D02*
X79773039Y72315885D01*
X79773039Y72315885D02*
X79677801Y72411124D01*
X79677801Y72411124D02*
X79630182Y72506362D01*
X79630182Y72506362D02*
X79582563Y72696838D01*
X79582563Y72696838D02*
X79582563Y72839695D01*
X79582563Y72839695D02*
X79630182Y73030171D01*
X79630182Y73030171D02*
X79677801Y73125409D01*
X79677801Y73125409D02*
X79773039Y73220647D01*
X79773039Y73220647D02*
X79915896Y73268266D01*
X79915896Y73268266D02*
X80011134Y73268266D01*
X80011134Y73268266D02*
X80153991Y73220647D01*
X80153991Y73220647D02*
X80201610Y73173028D01*
X80915896Y73268266D02*
X80915896Y72553981D01*
X80915896Y72553981D02*
X80868277Y72411124D01*
X80868277Y72411124D02*
X80773039Y72315885D01*
X80773039Y72315885D02*
X80630182Y72268266D01*
X80630182Y72268266D02*
X80534944Y72268266D01*
X81868277Y72268266D02*
X81392087Y72268266D01*
X81392087Y72268266D02*
X81392087Y73268266D01*
X82773039Y72363505D02*
X82725420Y72315885D01*
X82725420Y72315885D02*
X82582563Y72268266D01*
X82582563Y72268266D02*
X82487325Y72268266D01*
X82487325Y72268266D02*
X82344468Y72315885D01*
X82344468Y72315885D02*
X82249230Y72411124D01*
X82249230Y72411124D02*
X82201611Y72506362D01*
X82201611Y72506362D02*
X82153992Y72696838D01*
X82153992Y72696838D02*
X82153992Y72839695D01*
X82153992Y72839695D02*
X82201611Y73030171D01*
X82201611Y73030171D02*
X82249230Y73125409D01*
X82249230Y73125409D02*
X82344468Y73220647D01*
X82344468Y73220647D02*
X82487325Y73268266D01*
X82487325Y73268266D02*
X82582563Y73268266D01*
X82582563Y73268266D02*
X82725420Y73220647D01*
X82725420Y73220647D02*
X82773039Y73173028D01*
X83487325Y73268266D02*
X83487325Y72553981D01*
X83487325Y72553981D02*
X83439706Y72411124D01*
X83439706Y72411124D02*
X83344468Y72315885D01*
X83344468Y72315885D02*
X83201611Y72268266D01*
X83201611Y72268266D02*
X83106373Y72268266D01*
X84439706Y72268266D02*
X83963516Y72268266D01*
X83963516Y72268266D02*
X83963516Y73268266D01*
X85344468Y72363505D02*
X85296849Y72315885D01*
X85296849Y72315885D02*
X85153992Y72268266D01*
X85153992Y72268266D02*
X85058754Y72268266D01*
X85058754Y72268266D02*
X84915897Y72315885D01*
X84915897Y72315885D02*
X84820659Y72411124D01*
X84820659Y72411124D02*
X84773040Y72506362D01*
X84773040Y72506362D02*
X84725421Y72696838D01*
X84725421Y72696838D02*
X84725421Y72839695D01*
X84725421Y72839695D02*
X84773040Y73030171D01*
X84773040Y73030171D02*
X84820659Y73125409D01*
X84820659Y73125409D02*
X84915897Y73220647D01*
X84915897Y73220647D02*
X85058754Y73268266D01*
X85058754Y73268266D02*
X85153992Y73268266D01*
X85153992Y73268266D02*
X85296849Y73220647D01*
X85296849Y73220647D02*
X85344468Y73173028D01*
D11*
%TO.C,U3*%
X78485940Y55250685D02*
X78345940Y55440685D01*
X78625940Y55440685D01*
X78485940Y55250685D01*
G36*
X78485940Y55250685D02*
G01*
X78345940Y55440685D01*
X78625940Y55440685D01*
X78485940Y55250685D01*
G37*
X81705940Y52530685D02*
X81705940Y52705685D01*
X81705940Y55250685D02*
X81705940Y55075685D01*
X81030940Y52530685D02*
X81705940Y52530685D01*
X81030940Y55250685D02*
X81705940Y55250685D01*
X79160940Y52530685D02*
X78485940Y52530685D01*
X79160940Y55250685D02*
X78785940Y55250685D01*
X78485940Y52530685D02*
X78485940Y52705685D01*
%TO.C,D5*%
X78103440Y68655685D02*
X78103440Y70940685D01*
X76633440Y68655685D02*
X78103440Y68655685D01*
X76633440Y70940685D02*
X76633440Y68655685D01*
%TO.C,D1*%
X84233440Y68655685D02*
X84233440Y70940685D01*
X82763440Y68655685D02*
X84233440Y68655685D01*
X82763440Y70940685D02*
X82763440Y68655685D01*
%TO.C,D3*%
X81168440Y68655685D02*
X81168440Y70940685D01*
X79698440Y68655685D02*
X81168440Y68655685D01*
X79698440Y70940685D02*
X79698440Y68655685D01*
%TO.C,D4*%
X79635940Y68655685D02*
X79635940Y70940685D01*
X78165940Y68655685D02*
X79635940Y68655685D01*
X78165940Y70940685D02*
X78165940Y68655685D01*
%TO.C,D2*%
X82700940Y68655685D02*
X82700940Y70940685D01*
X81230940Y68655685D02*
X82700940Y68655685D01*
X81230940Y70940685D02*
X81230940Y68655685D01*
%TO.C,J1*%
X93949013Y54847038D02*
X94398026Y55296051D01*
X94398026Y55296051D02*
X94847039Y54847038D01*
%TO.C,U1*%
X77420000Y63160000D02*
X77420000Y63470000D01*
X77420000Y57490000D02*
X77420000Y58040000D01*
X77970000Y63710000D02*
X77720000Y63710000D01*
X77970000Y57490000D02*
X77420000Y57490000D01*
X83090000Y63710000D02*
X83640000Y63710000D01*
X83090000Y57490000D02*
X83640000Y57490000D01*
X83640000Y63710000D02*
X83640000Y63160000D01*
X83640000Y57490000D02*
X83640000Y58040000D01*
X77420000Y63710000D02*
X77180000Y64040000D01*
X77660000Y64040000D01*
X77420000Y63710000D01*
G36*
X77420000Y63710000D02*
G01*
X77180000Y64040000D01*
X77660000Y64040000D01*
X77420000Y63710000D01*
G37*
D12*
%TO.C,X2*%
X74633440Y61540685D02*
X74633440Y62740685D01*
X76233440Y62740685D02*
X76233440Y61540685D01*
%TO.C,X1*%
X86483440Y62390685D02*
X87783440Y62390685D01*
X87783440Y62390685D02*
X87783440Y63890685D01*
D13*
%TO.C,S1*%
X70433440Y59590685D02*
X70433440Y59360685D01*
X70433440Y59590685D02*
X74433440Y59590685D01*
X70433440Y56690685D02*
X70433440Y56920685D01*
X74433440Y59590685D02*
X74433440Y59360685D01*
X74433440Y56920685D02*
X74433440Y56690685D01*
X74433440Y56690685D02*
X70433440Y56690685D01*
D14*
%TO.C,U2*%
X82858440Y52065685D02*
X82858440Y55265685D01*
X85458440Y55265685D02*
X82858440Y55265685D01*
X85458440Y52065685D02*
X82858440Y52065685D01*
X85458440Y52065685D02*
X85458440Y55265685D01*
D15*
X82333440Y52690685D02*
G75*
G02*
X82083440Y52690685I-125000J0D01*
G01*
X82083440Y52690685D02*
G75*
G02*
X82333440Y52690685I125000J0D01*
G01*
%TD*%
%LPC*%
D16*
%TO.C,U3*%
X79595940Y54803185D03*
X80095940Y54803185D03*
X80595940Y54803185D03*
D17*
X81258440Y54640685D03*
X81258440Y54140685D03*
X81258440Y53640685D03*
X81258440Y53140685D03*
D16*
X80595940Y52978185D03*
X80095940Y52978185D03*
X79595940Y52978185D03*
D17*
X78933440Y53140685D03*
X78933440Y53640685D03*
X78933440Y54140685D03*
X78933440Y54640685D03*
%TD*%
D18*
%TO.C,R2*%
X81765940Y68240685D03*
X82765940Y68240685D03*
%TD*%
%TO.C,R3*%
X79965940Y68240685D03*
X80965940Y68240685D03*
%TD*%
D19*
%TO.C,D5*%
X77368440Y70928185D03*
X77368440Y69353185D03*
%TD*%
D20*
%TO.C,R5*%
X77365940Y68240685D03*
X76365940Y68240685D03*
%TD*%
D19*
%TO.C,D1*%
X83498440Y70928185D03*
X83498440Y69353185D03*
%TD*%
%TO.C,D3*%
X80433440Y70928185D03*
X80433440Y69353185D03*
%TD*%
D18*
%TO.C,R1*%
X83565940Y68240685D03*
X84565940Y68240685D03*
%TD*%
D19*
%TO.C,D4*%
X78900940Y70928185D03*
X78900940Y69353185D03*
%TD*%
%TO.C,D2*%
X81965940Y70928185D03*
X81965940Y69353185D03*
%TD*%
D20*
%TO.C,R4*%
X79165940Y68240685D03*
X78165940Y68240685D03*
%TD*%
D18*
%TO.C,C17*%
X79433440Y51890685D03*
X78433440Y51890685D03*
%TD*%
%TO.C,C16*%
X81433440Y51890685D03*
X80433440Y51890685D03*
%TD*%
D21*
%TO.C,C13*%
X82900000Y64600000D03*
X82900000Y65600000D03*
%TD*%
%TO.C,C18*%
X86433440Y52390685D03*
X86433440Y53390685D03*
%TD*%
D18*
%TO.C,C5*%
X77433440Y56890685D03*
X76433440Y56890685D03*
%TD*%
D21*
%TO.C,C19*%
X86433440Y54390685D03*
X86433440Y55390685D03*
%TD*%
D18*
%TO.C,R6*%
X75433440Y55890685D03*
X74433440Y55890685D03*
%TD*%
D20*
%TO.C,C2*%
X85433440Y66890685D03*
X86433440Y66890685D03*
%TD*%
D21*
%TO.C,C1*%
X88183440Y63390685D03*
X88183440Y64390685D03*
%TD*%
D22*
%TO.C,C15*%
X70250000Y60800000D03*
X70250000Y62700000D03*
%TD*%
D20*
%TO.C,L1*%
X85700000Y60500000D03*
X86700000Y60500000D03*
%TD*%
D23*
%TO.C,C12*%
X73950000Y61890685D03*
X73950000Y60890685D03*
%TD*%
%TO.C,C11*%
X75500000Y65640685D03*
X75500000Y64640685D03*
%TD*%
D24*
%TO.C,J1*%
X95745064Y54847038D03*
X92871382Y50536515D03*
X91434541Y51973356D03*
D25*
X94398026Y54398025D03*
X95296051Y53500000D03*
X93500000Y53500000D03*
X94398026Y52601974D03*
X92601975Y52601974D03*
X93500000Y51703949D03*
%TD*%
D26*
%TO.C,U1*%
X77580000Y62800000D03*
X77580000Y62400000D03*
X77580000Y62000000D03*
X77580000Y61600000D03*
X77580000Y61200000D03*
X77580000Y60800000D03*
X77580000Y60400000D03*
X77580000Y60000000D03*
X77580000Y59600000D03*
X77580000Y59200000D03*
X77580000Y58800000D03*
X77580000Y58400000D03*
D27*
X78330000Y57650000D03*
X78730000Y57650000D03*
X79130000Y57650000D03*
X79530000Y57650000D03*
X79930000Y57650000D03*
X80330000Y57650000D03*
X80730000Y57650000D03*
X81130000Y57650000D03*
X81530000Y57650000D03*
X81930000Y57650000D03*
X82330000Y57650000D03*
X82730000Y57650000D03*
D26*
X83480000Y58400000D03*
X83480000Y58800000D03*
X83480000Y59200000D03*
X83480000Y59600000D03*
X83480000Y60000000D03*
X83480000Y60400000D03*
X83480000Y60800000D03*
X83480000Y61200000D03*
X83480000Y61600000D03*
X83480000Y62000000D03*
X83480000Y62400000D03*
X83480000Y62800000D03*
D27*
X82730000Y63550000D03*
X82330000Y63550000D03*
X81930000Y63550000D03*
X81530000Y63550000D03*
X81130000Y63550000D03*
X80730000Y63550000D03*
X80330000Y63550000D03*
X79930000Y63550000D03*
X79530000Y63550000D03*
X79130000Y63550000D03*
X78730000Y63550000D03*
X78330000Y63550000D03*
D28*
X80530000Y60600000D03*
%TD*%
D29*
%TO.C,C10*%
X78600000Y64820000D03*
X78600000Y66380000D03*
%TD*%
D21*
%TO.C,C3*%
X84683440Y60390685D03*
X84683440Y61390685D03*
%TD*%
%TO.C,C14*%
X82100000Y64600000D03*
X82100000Y65600000D03*
%TD*%
D30*
%TO.C,X2*%
X75433440Y60890685D03*
X75433440Y63390685D03*
%TD*%
D20*
%TO.C,C7*%
X85683440Y61390685D03*
X86683440Y61390685D03*
%TD*%
D31*
%TO.C,X1*%
X87033440Y63290685D03*
X87033440Y65490685D03*
X85333440Y65490685D03*
X85333440Y63290685D03*
%TD*%
D21*
%TO.C,C8*%
X83800000Y64400000D03*
X83800000Y65400000D03*
%TD*%
D29*
%TO.C,C9*%
X77300000Y64520000D03*
X77300000Y66080000D03*
%TD*%
D32*
%TO.C,S1*%
X74508440Y58140685D03*
X70358440Y58140685D03*
%TD*%
D33*
%TO.C,U2*%
X83433440Y52690685D03*
X83433440Y53340685D03*
X83433440Y53990685D03*
X83433440Y54640685D03*
X84883440Y54640685D03*
X84883440Y53990685D03*
X84883440Y53340685D03*
X84883440Y52690685D03*
%TD*%
D21*
%TO.C,C4*%
X76300000Y64640685D03*
X76300000Y65640685D03*
%TD*%
%LPD*%
M02*
