%TF.GenerationSoftware,KiCad,Pcbnew,9.0.3-9.0.3-0~ubuntu24.04.1*%
%TF.CreationDate,2025-07-11T01:45:30-04:00*%
%TF.ProjectId,tire_sensor,74697265-5f73-4656-9e73-6f722e6b6963,rev?*%
%TF.SameCoordinates,Original*%
%TF.FileFunction,Copper,L3,Inr*%
%TF.FilePolarity,Positive*%
%FSLAX46Y46*%
G04 Gerber Fmt 4.6, Leading zero omitted, Abs format (unit mm)*
G04 Created by KiCad (PCBNEW 9.0.3-9.0.3-0~ubuntu24.04.1) date 2025-07-11 01:45:30*
%MOMM*%
%LPD*%
G01*
G04 APERTURE LIST*
%TA.AperFunction,HeatsinkPad*%
%ADD10C,0.500000*%
%TD*%
%TA.AperFunction,ComponentPad*%
%ADD11R,0.500000X0.900000*%
%TD*%
%TA.AperFunction,ViaPad*%
%ADD12C,0.300000*%
%TD*%
%TA.AperFunction,ViaPad*%
%ADD13C,0.600000*%
%TD*%
%TA.AperFunction,ViaPad*%
%ADD14C,3.250000*%
%TD*%
G04 APERTURE END LIST*
D10*
%TO.N,GND*%
%TO.C,U1*%
X82330000Y58800000D03*
X82330000Y60000000D03*
X82330000Y61200000D03*
X82330000Y62400000D03*
X81130000Y58800000D03*
X81130000Y60000000D03*
X81130000Y61200000D03*
X81130000Y62400000D03*
X79930000Y58800000D03*
X79930000Y60000000D03*
X79930000Y61200000D03*
X79930000Y62400000D03*
X78730000Y58800000D03*
X78730000Y60000000D03*
X78730000Y61200000D03*
X78730000Y62400000D03*
%TD*%
D11*
%TO.N,GND*%
%TO.C,AE1*%
X90750000Y58400000D03*
%TD*%
D12*
%TO.N,GND*%
X87000000Y61100000D03*
D13*
X75750000Y58750000D03*
X89000000Y62500000D03*
X71000000Y66750000D03*
X69000000Y56500000D03*
X78250000Y50500000D03*
X87000000Y56750000D03*
X86250000Y71250000D03*
%TO.N,VDD_NRF*%
X72250000Y56500000D03*
%TO.N,GND*%
X84750000Y55500000D03*
%TO.N,VDD_NRF*%
X75685000Y71287500D03*
%TO.N,GND*%
X87000000Y63400000D03*
%TO.N,VDD_NRF*%
X78250000Y56500000D03*
X78400000Y53050000D03*
X68050000Y61750000D03*
%TO.N,GND*%
X74970000Y63750000D03*
X87400000Y66900000D03*
%TO.N,VDD_NRF*%
X93600000Y55100000D03*
%TO.N,/nRESET*%
X92037443Y54962557D03*
X90937557Y54962557D03*
%TO.N,VDD_NRF*%
X88500000Y53000000D03*
D12*
%TO.N,GND*%
X90700000Y59100000D03*
X90443879Y59926017D03*
X90657697Y61050000D03*
X90192136Y61039320D03*
X90000000Y60000000D03*
X89600000Y60000000D03*
X89200000Y60000000D03*
X88800000Y60000000D03*
X88400000Y60000000D03*
X88000000Y60000000D03*
X87600000Y60000000D03*
X87400000Y61000000D03*
X87800000Y61000000D03*
X88200000Y61000000D03*
X88600000Y61000000D03*
X89000000Y61000000D03*
X89400000Y61000000D03*
D14*
X70750000Y52750000D03*
X70750000Y70250000D03*
D13*
%TO.N,VDD_NRF*%
X76530000Y63750000D03*
X70250000Y60750000D03*
X83600000Y64900000D03*
D12*
%TO.N,GND*%
X85200000Y59780000D03*
X85600000Y59780000D03*
D13*
X86250000Y62500000D03*
D12*
X89800000Y60980000D03*
D13*
X83600000Y65900000D03*
X75250000Y62750000D03*
X77220000Y65050000D03*
X82600000Y65900000D03*
X88500000Y54000000D03*
X84600000Y66100000D03*
D12*
X86000000Y59780000D03*
X87200000Y60000000D03*
D13*
X77250000Y56500000D03*
X78250000Y54000000D03*
X81600000Y65900000D03*
X79250000Y54000000D03*
X73000000Y59000000D03*
X84750000Y59500000D03*
X85700000Y64700000D03*
D12*
X86800000Y59780000D03*
D13*
X72750000Y63500000D03*
D12*
X86400000Y59780000D03*
D13*
X86250000Y61500000D03*
X70250000Y62750000D03*
%TO.N,/SDO*%
X81671956Y53722419D03*
X81671956Y55950000D03*
X83880000Y53100000D03*
%TO.N,/CS_DPS368*%
X80880000Y55700000D03*
%TO.N,/SDI*%
X83880000Y54145400D03*
%TO.N,/SCK*%
X83880000Y56550000D03*
%TO.N,/INT_LIS3DHTR*%
X86482403Y53550000D03*
X79730000Y56550000D03*
%TO.N,/CS_LIS3DHTR*%
X80601400Y56550000D03*
X85730000Y53550000D03*
%TO.N,GND*%
X97400000Y56100000D03*
D12*
X97600000Y56800000D03*
X96800000Y56800000D03*
X90800000Y70200000D03*
X93600000Y56800000D03*
X90800000Y67400000D03*
X90700000Y59500000D03*
X90800000Y66200000D03*
D13*
X97400000Y55400000D03*
D12*
X90800000Y65400000D03*
X92400000Y56800000D03*
X90800000Y64600000D03*
X96000000Y56800000D03*
X90800000Y69000000D03*
X98400000Y56800000D03*
X98000000Y56800000D03*
X90800000Y63400000D03*
X90800000Y61400000D03*
X90800000Y66600000D03*
X94800000Y56800000D03*
X90800000Y57600000D03*
X90800000Y56800000D03*
X90800000Y70600000D03*
X94400000Y56800000D03*
X90800000Y65800000D03*
X90800000Y63800000D03*
X93200000Y56800000D03*
X90800000Y71000000D03*
X90800000Y68200000D03*
X90800000Y62600000D03*
X90800000Y73000000D03*
X97200000Y56800000D03*
X90800000Y69800000D03*
X92000000Y56800000D03*
X90800000Y65000000D03*
X90800000Y68600000D03*
X92800000Y56800000D03*
X90800000Y73400000D03*
X95600000Y56800000D03*
X90800000Y72200000D03*
X90800000Y71400000D03*
X90800000Y69400000D03*
X90800000Y71800000D03*
X94000000Y56800000D03*
X90800000Y63000000D03*
X91600000Y56800000D03*
X96400000Y56800000D03*
X90800000Y62200000D03*
X95200000Y56800000D03*
X90800000Y72600000D03*
X90800000Y67000000D03*
X91200000Y56800000D03*
X90800000Y73800000D03*
X90800000Y64200000D03*
X90800000Y57200000D03*
X90800000Y61800000D03*
X90800000Y67800000D03*
D13*
X89500000Y54000000D03*
%TD*%
%TA.AperFunction,Conductor*%
%TO.N,VDD_NRF*%
G36*
X98595957Y56174483D02*
G01*
X98659366Y56175052D01*
X98718481Y56137806D01*
X98748075Y56074514D01*
X98749500Y56055766D01*
X98749500Y53502705D01*
X98749382Y53497296D01*
X98732615Y53113248D01*
X98731672Y53102472D01*
X98681851Y52724042D01*
X98679973Y52713389D01*
X98597357Y52340728D01*
X98594557Y52330279D01*
X98479778Y51966246D01*
X98476078Y51956080D01*
X98330006Y51603430D01*
X98325434Y51593626D01*
X98149187Y51255060D01*
X98143779Y51245692D01*
X97938689Y50923765D01*
X97932484Y50914903D01*
X97700110Y50612068D01*
X97693156Y50603781D01*
X97435294Y50322376D01*
X97427645Y50314727D01*
X97146213Y50056845D01*
X97137926Y50049892D01*
X96835109Y49817533D01*
X96826248Y49811328D01*
X96504318Y49606238D01*
X96494950Y49600830D01*
X96156371Y49424578D01*
X96146566Y49420006D01*
X95793926Y49273941D01*
X95783761Y49270241D01*
X95419725Y49155462D01*
X95409275Y49152662D01*
X95036612Y49070048D01*
X95025959Y49068170D01*
X94647531Y49018352D01*
X94636755Y49017409D01*
X94252130Y49000619D01*
X94246724Y49000501D01*
X94214422Y49000501D01*
X94184112Y49000501D01*
X94184108Y49000501D01*
X94176504Y49000500D01*
X94176503Y49000501D01*
X94176502Y49000500D01*
X91000000Y49000500D01*
X91000000Y50609975D01*
X92125582Y50609975D01*
X92125582Y50463056D01*
X92153565Y50322376D01*
X92154242Y50318973D01*
X92164626Y50293904D01*
X92210460Y50183249D01*
X92210465Y50183240D01*
X92292080Y50061096D01*
X92292083Y50061092D01*
X92395958Y49957217D01*
X92395962Y49957214D01*
X92518106Y49875599D01*
X92518112Y49875596D01*
X92518113Y49875595D01*
X92653840Y49819375D01*
X92797922Y49790716D01*
X92797926Y49790715D01*
X92797927Y49790715D01*
X92944838Y49790715D01*
X92944839Y49790716D01*
X93088924Y49819375D01*
X93224651Y49875595D01*
X93346802Y49957214D01*
X93450683Y50061095D01*
X93532302Y50183246D01*
X93588522Y50318973D01*
X93617182Y50463060D01*
X93617182Y50609970D01*
X93588522Y50754057D01*
X93532302Y50889784D01*
X93532301Y50889785D01*
X93532298Y50889791D01*
X93450683Y51011935D01*
X93450680Y51011939D01*
X93346805Y51115814D01*
X93346801Y51115817D01*
X93224657Y51197432D01*
X93224648Y51197437D01*
X93108148Y51245692D01*
X93088924Y51253655D01*
X93088920Y51253656D01*
X93088916Y51253657D01*
X92944841Y51282315D01*
X92944837Y51282315D01*
X92797927Y51282315D01*
X92797922Y51282315D01*
X92653847Y51253657D01*
X92653837Y51253654D01*
X92518115Y51197437D01*
X92518106Y51197432D01*
X92395962Y51115817D01*
X92395958Y51115814D01*
X92292083Y51011939D01*
X92292080Y51011935D01*
X92210465Y50889791D01*
X92210460Y50889782D01*
X92154243Y50754060D01*
X92154240Y50754050D01*
X92125582Y50609975D01*
X91000000Y50609975D01*
X91000000Y51366741D01*
X91081265Y51312440D01*
X91081271Y51312437D01*
X91081272Y51312436D01*
X91216999Y51256216D01*
X91361081Y51227557D01*
X91361085Y51227556D01*
X91361086Y51227556D01*
X91507997Y51227556D01*
X91507998Y51227557D01*
X91652083Y51256216D01*
X91787810Y51312436D01*
X91909961Y51394055D01*
X92013842Y51497936D01*
X92095461Y51620087D01*
X92151681Y51755814D01*
X92180341Y51899901D01*
X92180341Y52046811D01*
X92151681Y52190898D01*
X92095461Y52326625D01*
X92095460Y52326626D01*
X92095457Y52326632D01*
X92013842Y52448776D01*
X92013839Y52448780D01*
X91909964Y52552655D01*
X91909960Y52552658D01*
X91787816Y52634273D01*
X91787807Y52634278D01*
X91652085Y52690495D01*
X91652086Y52690495D01*
X91652083Y52690496D01*
X91652079Y52690497D01*
X91652075Y52690498D01*
X91508000Y52719156D01*
X91507996Y52719156D01*
X91361086Y52719156D01*
X91361081Y52719156D01*
X91217006Y52690498D01*
X91216996Y52690495D01*
X91081274Y52634278D01*
X91081265Y52634273D01*
X91000000Y52579973D01*
X91000000Y54162057D01*
X91016401Y54162057D01*
X91016402Y54162058D01*
X91171054Y54192820D01*
X91316736Y54253163D01*
X91418611Y54321235D01*
X91485286Y54342111D01*
X91552666Y54323627D01*
X91556344Y54321264D01*
X91658264Y54253163D01*
X91658266Y54253162D01*
X91658270Y54253160D01*
X91803941Y54192822D01*
X91803946Y54192820D01*
X91958596Y54162058D01*
X91958599Y54162057D01*
X91958601Y54162057D01*
X92116287Y54162057D01*
X92116288Y54162058D01*
X92270940Y54192820D01*
X92416622Y54253163D01*
X92547732Y54340768D01*
X92659232Y54452268D01*
X92746837Y54583378D01*
X92807180Y54729060D01*
X92837943Y54883715D01*
X92837943Y55041399D01*
X92837943Y55041402D01*
X92837942Y55041404D01*
X92813058Y55166503D01*
X92807180Y55196054D01*
X92805418Y55200307D01*
X92746840Y55341730D01*
X92746833Y55341743D01*
X92659232Y55472846D01*
X92659229Y55472850D01*
X92547735Y55584344D01*
X92547731Y55584347D01*
X92416628Y55671948D01*
X92416615Y55671955D01*
X92270944Y55732293D01*
X92270932Y55732296D01*
X92116288Y55763057D01*
X92116285Y55763057D01*
X91958601Y55763057D01*
X91958598Y55763057D01*
X91803953Y55732296D01*
X91803941Y55732293D01*
X91658270Y55671955D01*
X91658257Y55671948D01*
X91556391Y55603882D01*
X91489714Y55583004D01*
X91422333Y55601488D01*
X91418609Y55603882D01*
X91316742Y55671948D01*
X91316729Y55671955D01*
X91171058Y55732293D01*
X91171046Y55732296D01*
X91016402Y55763057D01*
X91016399Y55763057D01*
X91000000Y55763057D01*
X91000000Y56171728D01*
X91024186Y56171728D01*
X91121277Y56152415D01*
X91135930Y56149500D01*
X91135931Y56149500D01*
X91264070Y56149500D01*
X91278722Y56152415D01*
X91375814Y56171728D01*
X91424186Y56171728D01*
X91521277Y56152415D01*
X91535930Y56149500D01*
X91535931Y56149500D01*
X91664070Y56149500D01*
X91678722Y56152415D01*
X91775814Y56171728D01*
X91824186Y56171728D01*
X91921277Y56152415D01*
X91935930Y56149500D01*
X91935931Y56149500D01*
X92064070Y56149500D01*
X92078722Y56152415D01*
X92175814Y56171728D01*
X92224186Y56171728D01*
X92321277Y56152415D01*
X92335930Y56149500D01*
X92335931Y56149500D01*
X92464070Y56149500D01*
X92478722Y56152415D01*
X92575814Y56171728D01*
X92624186Y56171728D01*
X92721277Y56152415D01*
X92735930Y56149500D01*
X92735931Y56149500D01*
X92864070Y56149500D01*
X92878722Y56152415D01*
X92975814Y56171728D01*
X93024186Y56171728D01*
X93121277Y56152415D01*
X93135930Y56149500D01*
X93135931Y56149500D01*
X93264070Y56149500D01*
X93278722Y56152415D01*
X93375814Y56171728D01*
X93424186Y56171728D01*
X93521277Y56152415D01*
X93535930Y56149500D01*
X93535931Y56149500D01*
X93664070Y56149500D01*
X93678722Y56152415D01*
X93775814Y56171728D01*
X93824186Y56171728D01*
X93921277Y56152415D01*
X93935930Y56149500D01*
X93935931Y56149500D01*
X94064070Y56149500D01*
X94078722Y56152415D01*
X94175814Y56171728D01*
X94224186Y56171728D01*
X94321277Y56152415D01*
X94335930Y56149500D01*
X94335931Y56149500D01*
X94464070Y56149500D01*
X94478722Y56152415D01*
X94575814Y56171728D01*
X94624186Y56171728D01*
X94721277Y56152415D01*
X94735930Y56149500D01*
X94735931Y56149500D01*
X94864070Y56149500D01*
X94878722Y56152415D01*
X94975814Y56171728D01*
X95024186Y56171728D01*
X95121277Y56152415D01*
X95135930Y56149500D01*
X95135931Y56149500D01*
X95264070Y56149500D01*
X95278722Y56152415D01*
X95375814Y56171728D01*
X95424186Y56171728D01*
X95521277Y56152415D01*
X95535930Y56149500D01*
X95535931Y56149500D01*
X95664070Y56149500D01*
X95678722Y56152415D01*
X95775814Y56171728D01*
X95824186Y56171728D01*
X95921277Y56152415D01*
X95935930Y56149500D01*
X95935931Y56149500D01*
X96064070Y56149500D01*
X96078722Y56152415D01*
X96175814Y56171728D01*
X96224186Y56171728D01*
X96321277Y56152415D01*
X96335930Y56149500D01*
X96470161Y56149500D01*
X96470161Y56148136D01*
X96531989Y56136412D01*
X96582700Y56088348D01*
X96599500Y56026026D01*
X96599500Y56021154D01*
X96630260Y55866512D01*
X96630262Y55866507D01*
X96630263Y55866503D01*
X96658864Y55797453D01*
X96658865Y55797451D01*
X96666333Y55727982D01*
X96658865Y55702553D01*
X96630263Y55633497D01*
X96630262Y55633494D01*
X96630260Y55633489D01*
X96599500Y55478847D01*
X96599500Y55319464D01*
X96579815Y55252425D01*
X96527011Y55206670D01*
X96457853Y55196726D01*
X96394297Y55225751D01*
X96372398Y55250573D01*
X96324365Y55322458D01*
X96324362Y55322462D01*
X96220487Y55426337D01*
X96220483Y55426340D01*
X96098339Y55507955D01*
X96098330Y55507960D01*
X95962608Y55564177D01*
X95962609Y55564177D01*
X95962606Y55564178D01*
X95962602Y55564179D01*
X95962598Y55564180D01*
X95818523Y55592838D01*
X95818519Y55592838D01*
X95671609Y55592838D01*
X95671604Y55592838D01*
X95527529Y55564180D01*
X95527519Y55564177D01*
X95391797Y55507960D01*
X95391788Y55507955D01*
X95269644Y55426340D01*
X95269640Y55426337D01*
X95165765Y55322462D01*
X95165762Y55322458D01*
X95084147Y55200314D01*
X95084142Y55200305D01*
X95027925Y55064583D01*
X95027922Y55064573D01*
X94999264Y54920498D01*
X94999264Y54773579D01*
X95027922Y54629504D01*
X95027925Y54629494D01*
X95084142Y54493772D01*
X95084147Y54493763D01*
X95165762Y54371619D01*
X95165765Y54371615D01*
X95269640Y54267740D01*
X95269644Y54267737D01*
X95391788Y54186122D01*
X95391794Y54186119D01*
X95391795Y54186118D01*
X95527522Y54129898D01*
X95671604Y54101239D01*
X95671608Y54101238D01*
X95671609Y54101238D01*
X95818520Y54101238D01*
X95818521Y54101239D01*
X95962606Y54129898D01*
X96098333Y54186118D01*
X96220484Y54267737D01*
X96324365Y54371618D01*
X96405984Y54493769D01*
X96462204Y54629496D01*
X96490864Y54773583D01*
X96490864Y54910983D01*
X96510549Y54978022D01*
X96563353Y55023777D01*
X96632511Y55033721D01*
X96696067Y55004696D01*
X96717966Y54979873D01*
X96778207Y54889716D01*
X96778213Y54889708D01*
X96889707Y54778214D01*
X96889711Y54778211D01*
X97020814Y54690610D01*
X97020827Y54690603D01*
X97166498Y54630265D01*
X97166503Y54630263D01*
X97321153Y54599501D01*
X97321156Y54599500D01*
X97321158Y54599500D01*
X97478844Y54599500D01*
X97478845Y54599501D01*
X97633497Y54630263D01*
X97779179Y54690606D01*
X97910289Y54778211D01*
X98021789Y54889711D01*
X98109394Y55020821D01*
X98169737Y55166503D01*
X98200500Y55321158D01*
X98200500Y55478842D01*
X98200500Y55478845D01*
X98200499Y55478847D01*
X98194708Y55507960D01*
X98169737Y55633497D01*
X98141134Y55702550D01*
X98133666Y55772016D01*
X98141133Y55797448D01*
X98169737Y55866503D01*
X98200500Y56021158D01*
X98200500Y56026026D01*
X98220185Y56093065D01*
X98272989Y56138820D01*
X98329839Y56148293D01*
X98329839Y56149500D01*
X98464071Y56149500D01*
X98595718Y56175687D01*
X98595957Y56174483D01*
G37*
%TD.AperFunction*%
%TD*%
%TA.AperFunction,Conductor*%
%TO.N,VDD_NRF*%
G36*
X90093065Y73979815D02*
G01*
X90138820Y73927011D01*
X90148293Y73870161D01*
X90149500Y73870161D01*
X90149500Y73735927D01*
X90171726Y73624191D01*
X90171726Y73575809D01*
X90149500Y73464074D01*
X90149500Y73335927D01*
X90171726Y73224191D01*
X90171726Y73175809D01*
X90149500Y73064074D01*
X90149500Y72935927D01*
X90171726Y72824191D01*
X90171726Y72775809D01*
X90149500Y72664074D01*
X90149500Y72535927D01*
X90171726Y72424191D01*
X90171726Y72375809D01*
X90149500Y72264074D01*
X90149500Y72135927D01*
X90171726Y72024191D01*
X90171726Y71975809D01*
X90149500Y71864074D01*
X90149500Y71735927D01*
X90171726Y71624191D01*
X90171726Y71575809D01*
X90149500Y71464074D01*
X90149500Y71335927D01*
X90171726Y71224191D01*
X90171726Y71175809D01*
X90149500Y71064074D01*
X90149500Y70935927D01*
X90171726Y70824191D01*
X90171726Y70775809D01*
X90149500Y70664074D01*
X90149500Y70535927D01*
X90171726Y70424191D01*
X90171726Y70375809D01*
X90149500Y70264074D01*
X90149500Y70135927D01*
X90171726Y70024191D01*
X90171726Y69975809D01*
X90149500Y69864074D01*
X90149500Y69735927D01*
X90171726Y69624191D01*
X90171726Y69575809D01*
X90149500Y69464074D01*
X90149500Y69335927D01*
X90171726Y69224191D01*
X90171726Y69175809D01*
X90149500Y69064074D01*
X90149500Y68935927D01*
X90171726Y68824191D01*
X90171726Y68775809D01*
X90149500Y68664074D01*
X90149500Y68535927D01*
X90171726Y68424191D01*
X90171726Y68375809D01*
X90149500Y68264074D01*
X90149500Y68135927D01*
X90171726Y68024191D01*
X90171726Y67975809D01*
X90149500Y67864074D01*
X90149500Y67735927D01*
X90171726Y67624191D01*
X90171726Y67575809D01*
X90149500Y67464074D01*
X90149500Y67335927D01*
X90171726Y67224191D01*
X90171726Y67175809D01*
X90149500Y67064074D01*
X90149500Y66935927D01*
X90171726Y66824191D01*
X90171726Y66775809D01*
X90149500Y66664074D01*
X90149500Y66535927D01*
X90171726Y66424191D01*
X90171726Y66375809D01*
X90149500Y66264074D01*
X90149500Y66135927D01*
X90171726Y66024191D01*
X90171726Y65975809D01*
X90149500Y65864074D01*
X90149500Y65735927D01*
X90171726Y65624191D01*
X90171726Y65575809D01*
X90149500Y65464074D01*
X90149500Y65335927D01*
X90171726Y65224191D01*
X90171726Y65175809D01*
X90149500Y65064074D01*
X90149500Y64935927D01*
X90171726Y64824191D01*
X90171726Y64775809D01*
X90149500Y64664074D01*
X90149500Y64535927D01*
X90171726Y64424191D01*
X90171726Y64375809D01*
X90149500Y64264074D01*
X90149500Y64135927D01*
X90171726Y64024191D01*
X90171726Y63975809D01*
X90149500Y63864074D01*
X90149500Y63735927D01*
X90171726Y63624191D01*
X90171726Y63575809D01*
X90149500Y63464074D01*
X90149500Y63335927D01*
X90171726Y63224191D01*
X90171726Y63175809D01*
X90149500Y63064074D01*
X90149500Y62935927D01*
X90171726Y62824191D01*
X90171726Y62775809D01*
X90149500Y62664074D01*
X90149500Y62535927D01*
X90171726Y62424191D01*
X90171726Y62375809D01*
X90149500Y62264074D01*
X90149500Y62135927D01*
X90171726Y62024191D01*
X90171822Y62021662D01*
X90172412Y62020445D01*
X90172256Y62010318D01*
X90173218Y61985160D01*
X90172650Y61980450D01*
X90149500Y61864069D01*
X90149500Y61788400D01*
X90148609Y61781008D01*
X90137642Y61755468D01*
X90129815Y61728809D01*
X90124052Y61723817D01*
X90121043Y61716806D01*
X90098009Y61701250D01*
X90077011Y61683054D01*
X90065623Y61679377D01*
X90063142Y61677700D01*
X90060228Y61677634D01*
X90049694Y61674231D01*
X90002395Y61664822D01*
X90002393Y61664822D01*
X90002392Y61664821D01*
X89977412Y61654474D01*
X89936289Y61637441D01*
X89870174Y61630335D01*
X89870132Y61629903D01*
X89868058Y61630108D01*
X89866819Y61629974D01*
X89864655Y61630384D01*
X89864073Y61630500D01*
X89864069Y61630500D01*
X89735931Y61630500D01*
X89721940Y61627717D01*
X89665908Y61616572D01*
X89612997Y61617562D01*
X89603387Y61619851D01*
X89589744Y61625501D01*
X89528428Y61637698D01*
X89526151Y61638240D01*
X89497754Y61654474D01*
X89468768Y61669637D01*
X89467579Y61671725D01*
X89465494Y61672917D01*
X89450386Y61701919D01*
X89434195Y61730353D01*
X89434323Y61732753D01*
X89433214Y61734883D01*
X89436184Y61767460D01*
X89437936Y61800123D01*
X89439340Y61802072D01*
X89439559Y61804464D01*
X89459673Y61830267D01*
X89478803Y61856794D01*
X89482342Y61859347D01*
X89482516Y61859569D01*
X89482779Y61859662D01*
X89485957Y61861954D01*
X89510289Y61878211D01*
X89621789Y61989711D01*
X89709394Y62120821D01*
X89769737Y62266503D01*
X89800500Y62421158D01*
X89800500Y62578842D01*
X89800500Y62578845D01*
X89800499Y62578847D01*
X89778269Y62690603D01*
X89769737Y62733497D01*
X89709794Y62878214D01*
X89709397Y62879173D01*
X89709390Y62879186D01*
X89621789Y63010289D01*
X89621786Y63010293D01*
X89510292Y63121787D01*
X89510288Y63121790D01*
X89379185Y63209391D01*
X89379172Y63209398D01*
X89233501Y63269736D01*
X89233489Y63269739D01*
X89078845Y63300500D01*
X89078842Y63300500D01*
X88921158Y63300500D01*
X88921155Y63300500D01*
X88766510Y63269739D01*
X88766498Y63269736D01*
X88620827Y63209398D01*
X88620814Y63209391D01*
X88489711Y63121790D01*
X88489707Y63121787D01*
X88378213Y63010293D01*
X88378210Y63010289D01*
X88290609Y62879186D01*
X88290602Y62879173D01*
X88230264Y62733502D01*
X88230261Y62733490D01*
X88199500Y62578847D01*
X88199500Y62421154D01*
X88230261Y62266511D01*
X88230264Y62266499D01*
X88290602Y62120828D01*
X88290609Y62120815D01*
X88378210Y61989712D01*
X88378213Y61989708D01*
X88489707Y61878214D01*
X88489712Y61878210D01*
X88514016Y61861971D01*
X88528215Y61844981D01*
X88545704Y61831396D01*
X88550185Y61818695D01*
X88558822Y61808360D01*
X88561582Y61786389D01*
X88568949Y61765507D01*
X88565851Y61752401D01*
X88567531Y61739035D01*
X88557973Y61719059D01*
X88552882Y61697510D01*
X88543190Y61688158D01*
X88537377Y61676007D01*
X88518537Y61664369D01*
X88502603Y61648993D01*
X88481721Y61641627D01*
X88477935Y61639287D01*
X88469320Y61637251D01*
X88424193Y61628274D01*
X88375809Y61628274D01*
X88264072Y61650500D01*
X88264069Y61650500D01*
X88135931Y61650500D01*
X88135928Y61650500D01*
X88024191Y61628274D01*
X87975809Y61628274D01*
X87864072Y61650500D01*
X87864069Y61650500D01*
X87735931Y61650500D01*
X87735928Y61650500D01*
X87624191Y61628274D01*
X87622165Y61628191D01*
X87621204Y61627717D01*
X87613117Y61627817D01*
X87585925Y61626692D01*
X87580830Y61627275D01*
X87464069Y61650500D01*
X87377537Y61650500D01*
X87370526Y61651301D01*
X87344575Y61662253D01*
X87317562Y61670185D01*
X87315747Y61671374D01*
X87308127Y61676465D01*
X87308124Y61676467D01*
X87308123Y61676467D01*
X87189744Y61725501D01*
X87189738Y61725503D01*
X87073086Y61748707D01*
X87071617Y61749476D01*
X87069962Y61749370D01*
X87040771Y61765611D01*
X87011175Y61781092D01*
X87009889Y61782792D01*
X87008906Y61783339D01*
X87004887Y61789406D01*
X86987979Y61811760D01*
X86985073Y61817183D01*
X86959394Y61879179D01*
X86921339Y61936131D01*
X86918497Y61941436D01*
X86912526Y61969969D01*
X86903816Y61997785D01*
X86905455Y62003761D01*
X86904186Y62009825D01*
X86914589Y62037059D01*
X86922300Y62065165D01*
X86924676Y62068864D01*
X86959394Y62120821D01*
X87019737Y62266503D01*
X87050500Y62421158D01*
X87050500Y62492099D01*
X87070185Y62559138D01*
X87122989Y62604893D01*
X87150301Y62613715D01*
X87233497Y62630263D01*
X87379179Y62690606D01*
X87510289Y62778211D01*
X87621789Y62889711D01*
X87709394Y63020821D01*
X87769737Y63166503D01*
X87800500Y63321158D01*
X87800500Y63478842D01*
X87800500Y63478845D01*
X87800499Y63478847D01*
X87795245Y63505262D01*
X87769737Y63633497D01*
X87754138Y63671156D01*
X87709397Y63779173D01*
X87709390Y63779186D01*
X87621789Y63910289D01*
X87621786Y63910293D01*
X87510292Y64021787D01*
X87510288Y64021790D01*
X87379185Y64109391D01*
X87379172Y64109398D01*
X87233501Y64169736D01*
X87233489Y64169739D01*
X87078845Y64200500D01*
X87078842Y64200500D01*
X86921158Y64200500D01*
X86921155Y64200500D01*
X86766510Y64169739D01*
X86766498Y64169736D01*
X86620827Y64109398D01*
X86620814Y64109391D01*
X86512132Y64036772D01*
X86512126Y64036767D01*
X86489711Y64021789D01*
X86378211Y63910289D01*
X86363233Y63887874D01*
X86363228Y63887868D01*
X86290609Y63779186D01*
X86290602Y63779173D01*
X86230264Y63633502D01*
X86230261Y63633490D01*
X86199500Y63478847D01*
X86199500Y63407902D01*
X86179815Y63340863D01*
X86127011Y63295108D01*
X86099692Y63286285D01*
X86016508Y63269739D01*
X86016498Y63269736D01*
X85870827Y63209398D01*
X85870814Y63209391D01*
X85739711Y63121790D01*
X85739707Y63121787D01*
X85628213Y63010293D01*
X85628210Y63010289D01*
X85540609Y62879186D01*
X85540602Y62879173D01*
X85480264Y62733502D01*
X85480261Y62733490D01*
X85449500Y62578847D01*
X85449500Y62421154D01*
X85480261Y62266511D01*
X85480264Y62266499D01*
X85540602Y62120828D01*
X85540609Y62120815D01*
X85575304Y62068891D01*
X85596182Y62002214D01*
X85577698Y61934833D01*
X85575304Y61931109D01*
X85540609Y61879186D01*
X85540602Y61879173D01*
X85480264Y61733502D01*
X85480261Y61733490D01*
X85449500Y61578847D01*
X85449500Y61421154D01*
X85480261Y61266511D01*
X85480264Y61266499D01*
X85540602Y61120828D01*
X85540609Y61120815D01*
X85628210Y60989712D01*
X85628213Y60989708D01*
X85739707Y60878214D01*
X85739711Y60878211D01*
X85870814Y60790610D01*
X85870827Y60790603D01*
X86016498Y60730265D01*
X86016503Y60730263D01*
X86128607Y60707964D01*
X86171153Y60699501D01*
X86171156Y60699500D01*
X86171158Y60699500D01*
X86328844Y60699500D01*
X86390377Y60711740D01*
X86398284Y60711033D01*
X86405723Y60713807D01*
X86432586Y60707964D01*
X86459969Y60705513D01*
X86467978Y60700265D01*
X86473996Y60698955D01*
X86502250Y60677804D01*
X86537873Y60642181D01*
X86571358Y60580858D01*
X86566374Y60511166D01*
X86524502Y60455233D01*
X86459038Y60430816D01*
X86450192Y60430500D01*
X86335928Y60430500D01*
X86224191Y60408274D01*
X86175809Y60408274D01*
X86064072Y60430500D01*
X86064069Y60430500D01*
X85935931Y60430500D01*
X85935928Y60430500D01*
X85824191Y60408274D01*
X85775809Y60408274D01*
X85664072Y60430500D01*
X85664069Y60430500D01*
X85535931Y60430500D01*
X85535928Y60430500D01*
X85424191Y60408274D01*
X85375809Y60408274D01*
X85264072Y60430500D01*
X85264069Y60430500D01*
X85135931Y60430500D01*
X85135929Y60430500D01*
X85010261Y60405503D01*
X85010255Y60405501D01*
X84891873Y60356466D01*
X84857091Y60333225D01*
X84839390Y60321398D01*
X84772715Y60300520D01*
X84770501Y60300500D01*
X84671155Y60300500D01*
X84516510Y60269739D01*
X84516498Y60269736D01*
X84370827Y60209398D01*
X84370814Y60209391D01*
X84239711Y60121790D01*
X84239707Y60121787D01*
X84128213Y60010293D01*
X84128210Y60010289D01*
X84040609Y59879186D01*
X84040602Y59879173D01*
X83980264Y59733502D01*
X83980261Y59733490D01*
X83949500Y59578847D01*
X83949500Y59421154D01*
X83980261Y59266511D01*
X83980264Y59266499D01*
X84040602Y59120828D01*
X84040609Y59120815D01*
X84128210Y58989712D01*
X84128213Y58989708D01*
X84239707Y58878214D01*
X84239711Y58878211D01*
X84370814Y58790610D01*
X84370827Y58790603D01*
X84516498Y58730265D01*
X84516503Y58730263D01*
X84671153Y58699501D01*
X84671156Y58699500D01*
X84671158Y58699500D01*
X84828844Y58699500D01*
X84828845Y58699501D01*
X84983497Y58730263D01*
X85129179Y58790606D01*
X85260289Y58878211D01*
X85371789Y58989711D01*
X85428348Y59074357D01*
X85428371Y59074391D01*
X85481983Y59119196D01*
X85531473Y59129500D01*
X85664070Y59129500D01*
X85678722Y59132415D01*
X85775814Y59151728D01*
X85824186Y59151728D01*
X85921277Y59132415D01*
X85935930Y59129500D01*
X85935931Y59129500D01*
X86064070Y59129500D01*
X86078722Y59132415D01*
X86175814Y59151728D01*
X86224186Y59151728D01*
X86321277Y59132415D01*
X86335930Y59129500D01*
X86335931Y59129500D01*
X86464070Y59129500D01*
X86478722Y59132415D01*
X86575814Y59151728D01*
X86624186Y59151728D01*
X86721277Y59132415D01*
X86735930Y59129500D01*
X86735931Y59129500D01*
X86864071Y59129500D01*
X86948615Y59146318D01*
X86989744Y59154499D01*
X87108127Y59203535D01*
X87214669Y59274724D01*
X87269148Y59329205D01*
X87285746Y59338269D01*
X87299358Y59351401D01*
X87328847Y59361804D01*
X87330471Y59362690D01*
X87332526Y59363118D01*
X87375813Y59371728D01*
X87424191Y59371728D01*
X87499906Y59356666D01*
X87535930Y59349500D01*
X87535931Y59349500D01*
X87664070Y59349500D01*
X87678722Y59352415D01*
X87775814Y59371728D01*
X87824186Y59371728D01*
X87921277Y59352415D01*
X87935930Y59349500D01*
X87935931Y59349500D01*
X88064070Y59349500D01*
X88078722Y59352415D01*
X88175814Y59371728D01*
X88224186Y59371728D01*
X88321277Y59352415D01*
X88335930Y59349500D01*
X88335931Y59349500D01*
X88464070Y59349500D01*
X88478722Y59352415D01*
X88575814Y59371728D01*
X88624186Y59371728D01*
X88721277Y59352415D01*
X88735930Y59349500D01*
X88735931Y59349500D01*
X88864070Y59349500D01*
X88878722Y59352415D01*
X88975814Y59371728D01*
X89024186Y59371728D01*
X89121277Y59352415D01*
X89135930Y59349500D01*
X89135931Y59349500D01*
X89264070Y59349500D01*
X89278722Y59352415D01*
X89375814Y59371728D01*
X89424186Y59371728D01*
X89521277Y59352415D01*
X89535930Y59349500D01*
X89535931Y59349500D01*
X89664070Y59349500D01*
X89678722Y59352415D01*
X89775813Y59371729D01*
X89782963Y59371787D01*
X89786923Y59373420D01*
X89816779Y59372065D01*
X89822193Y59372109D01*
X89823105Y59371943D01*
X89935931Y59349500D01*
X89946478Y59349500D01*
X89957483Y59347498D01*
X89979111Y59336633D01*
X90002329Y59329815D01*
X90009765Y59321233D01*
X90019917Y59316133D01*
X90032237Y59295299D01*
X90048084Y59277011D01*
X90049700Y59265769D01*
X90055482Y59255992D01*
X90054583Y59231809D01*
X90058028Y59207853D01*
X90056907Y59201308D01*
X90049500Y59164072D01*
X90049500Y59096729D01*
X90041682Y59053396D01*
X90005908Y58957483D01*
X89999501Y58897884D01*
X89999500Y58897865D01*
X89999500Y57902130D01*
X89999501Y57902124D01*
X90005908Y57842517D01*
X90056202Y57707672D01*
X90056203Y57707670D01*
X90124767Y57616081D01*
X90147673Y57562977D01*
X90149500Y57552452D01*
X90149500Y57535931D01*
X90172017Y57422733D01*
X90172282Y57421207D01*
X90171726Y57416340D01*
X90171726Y57375809D01*
X90149500Y57264074D01*
X90149500Y57135927D01*
X90171726Y57024191D01*
X90171726Y56975809D01*
X90149500Y56864074D01*
X90149500Y56864069D01*
X90149500Y56735931D01*
X90149500Y56735929D01*
X90149499Y56735929D01*
X90174497Y56610262D01*
X90174499Y56610256D01*
X90223533Y56491876D01*
X90223538Y56491867D01*
X90294723Y56385332D01*
X90294726Y56385328D01*
X90385327Y56294727D01*
X90385331Y56294724D01*
X90491866Y56223539D01*
X90491872Y56223536D01*
X90491873Y56223535D01*
X90610256Y56174499D01*
X90610260Y56174499D01*
X90610261Y56174498D01*
X90735928Y56149500D01*
X90735931Y56149500D01*
X90864070Y56149500D01*
X90878722Y56152415D01*
X90975813Y56171729D01*
X90983692Y56171754D01*
X90988163Y56173545D01*
X91000000Y56172949D01*
X91000000Y55763057D01*
X90858712Y55763057D01*
X90704067Y55732296D01*
X90704055Y55732293D01*
X90558384Y55671955D01*
X90558371Y55671948D01*
X90427268Y55584347D01*
X90427264Y55584344D01*
X90315770Y55472850D01*
X90315767Y55472846D01*
X90228166Y55341743D01*
X90228159Y55341730D01*
X90167821Y55196059D01*
X90167818Y55196047D01*
X90137057Y55041404D01*
X90137057Y54883711D01*
X90158171Y54777565D01*
X90151944Y54707974D01*
X90109081Y54652796D01*
X90043191Y54629552D01*
X89975194Y54645620D01*
X89967664Y54650272D01*
X89879190Y54709388D01*
X89879172Y54709398D01*
X89733501Y54769736D01*
X89733489Y54769739D01*
X89578845Y54800500D01*
X89578842Y54800500D01*
X89421158Y54800500D01*
X89421155Y54800500D01*
X89266510Y54769739D01*
X89266498Y54769736D01*
X89120827Y54709398D01*
X89120814Y54709391D01*
X89068891Y54674696D01*
X89002214Y54653818D01*
X88934833Y54672302D01*
X88931109Y54674696D01*
X88879185Y54709391D01*
X88879172Y54709398D01*
X88733501Y54769736D01*
X88733489Y54769739D01*
X88578845Y54800500D01*
X88578842Y54800500D01*
X88421158Y54800500D01*
X88421155Y54800500D01*
X88266510Y54769739D01*
X88266498Y54769736D01*
X88120827Y54709398D01*
X88120814Y54709391D01*
X87989711Y54621790D01*
X87989707Y54621787D01*
X87878213Y54510293D01*
X87878210Y54510289D01*
X87790609Y54379186D01*
X87790602Y54379173D01*
X87730264Y54233502D01*
X87730261Y54233490D01*
X87699500Y54078847D01*
X87699500Y53921154D01*
X87730261Y53766511D01*
X87730264Y53766499D01*
X87790602Y53620828D01*
X87790609Y53620815D01*
X87878210Y53489712D01*
X87878213Y53489708D01*
X87989707Y53378214D01*
X87989711Y53378211D01*
X88120814Y53290610D01*
X88120827Y53290603D01*
X88266498Y53230265D01*
X88266503Y53230263D01*
X88421153Y53199501D01*
X88421156Y53199500D01*
X88421158Y53199500D01*
X88578844Y53199500D01*
X88578845Y53199501D01*
X88733497Y53230263D01*
X88879179Y53290606D01*
X88931110Y53325306D01*
X88997785Y53346184D01*
X89065165Y53327700D01*
X89068863Y53325324D01*
X89120821Y53290606D01*
X89120823Y53290605D01*
X89120825Y53290604D01*
X89266498Y53230265D01*
X89266503Y53230263D01*
X89421153Y53199501D01*
X89421156Y53199500D01*
X89421158Y53199500D01*
X89578844Y53199500D01*
X89578845Y53199501D01*
X89733497Y53230263D01*
X89879179Y53290606D01*
X90010289Y53378211D01*
X90121789Y53489711D01*
X90209394Y53620821D01*
X90212719Y53628847D01*
X90243777Y53703829D01*
X90269737Y53766503D01*
X90300500Y53921158D01*
X90300500Y54078842D01*
X90300500Y54078845D01*
X90282012Y54171787D01*
X90279385Y54184994D01*
X90285612Y54254583D01*
X90328474Y54309761D01*
X90394364Y54333006D01*
X90462361Y54316939D01*
X90469893Y54312286D01*
X90558371Y54253167D01*
X90558384Y54253160D01*
X90704055Y54192822D01*
X90704060Y54192820D01*
X90858710Y54162058D01*
X90858713Y54162057D01*
X91000000Y54162057D01*
X91000000Y52579973D01*
X90959121Y52552658D01*
X90959117Y52552655D01*
X90855242Y52448780D01*
X90855239Y52448776D01*
X90773624Y52326632D01*
X90773619Y52326623D01*
X90717402Y52190901D01*
X90717399Y52190891D01*
X90688741Y52046816D01*
X90688741Y51899897D01*
X90717399Y51755822D01*
X90717402Y51755812D01*
X90773619Y51620090D01*
X90773624Y51620081D01*
X90855239Y51497937D01*
X90855242Y51497933D01*
X90959117Y51394058D01*
X90959121Y51394055D01*
X91000000Y51366741D01*
X91000000Y49000500D01*
X71252712Y49000500D01*
X71247302Y49000618D01*
X70863252Y49017389D01*
X70852476Y49018332D01*
X70474044Y49068156D01*
X70463391Y49070034D01*
X70090728Y49152653D01*
X70080279Y49155453D01*
X69716242Y49270235D01*
X69706077Y49273935D01*
X69353427Y49420008D01*
X69343623Y49424580D01*
X69005056Y49600827D01*
X68995688Y49606235D01*
X68673752Y49811330D01*
X68664891Y49817535D01*
X68362072Y50049896D01*
X68353785Y50056849D01*
X68072358Y50314727D01*
X68064709Y50322376D01*
X68045973Y50342822D01*
X67829694Y50578847D01*
X77449500Y50578847D01*
X77449500Y50421154D01*
X77480261Y50266511D01*
X77480264Y50266499D01*
X77540602Y50120828D01*
X77540609Y50120815D01*
X77628210Y49989712D01*
X77628213Y49989708D01*
X77739707Y49878214D01*
X77739711Y49878211D01*
X77870814Y49790610D01*
X77870827Y49790603D01*
X78016498Y49730265D01*
X78016503Y49730263D01*
X78171153Y49699501D01*
X78171156Y49699500D01*
X78171158Y49699500D01*
X78328844Y49699500D01*
X78328845Y49699501D01*
X78483497Y49730263D01*
X78629179Y49790606D01*
X78760289Y49878211D01*
X78871789Y49989711D01*
X78959394Y50120821D01*
X79019737Y50266503D01*
X79050500Y50421158D01*
X79050500Y50578842D01*
X79050500Y50578845D01*
X79050499Y50578847D01*
X79019737Y50733497D01*
X78975784Y50839610D01*
X78959397Y50879173D01*
X78959390Y50879186D01*
X78871789Y51010289D01*
X78871786Y51010293D01*
X78760292Y51121787D01*
X78760288Y51121790D01*
X78629185Y51209391D01*
X78629172Y51209398D01*
X78483501Y51269736D01*
X78483489Y51269739D01*
X78328845Y51300500D01*
X78328842Y51300500D01*
X78171158Y51300500D01*
X78171155Y51300500D01*
X78016510Y51269739D01*
X78016498Y51269736D01*
X77870827Y51209398D01*
X77870814Y51209391D01*
X77739711Y51121790D01*
X77739707Y51121787D01*
X77628213Y51010293D01*
X77628210Y51010289D01*
X77540609Y50879186D01*
X77540602Y50879173D01*
X77480264Y50733502D01*
X77480261Y50733490D01*
X77449500Y50578847D01*
X67829694Y50578847D01*
X67806823Y50603806D01*
X67799875Y50612087D01*
X67790350Y50624500D01*
X67567509Y50914909D01*
X67561307Y50923766D01*
X67506182Y51010293D01*
X67356213Y51245695D01*
X67350806Y51255059D01*
X67350204Y51256216D01*
X67174542Y51593650D01*
X67169985Y51603421D01*
X67023899Y51956096D01*
X67020200Y51966261D01*
X66905418Y52330288D01*
X66902618Y52340736D01*
X66891562Y52390603D01*
X66819992Y52713410D01*
X66818121Y52724021D01*
X66796358Y52889307D01*
X68624500Y52889307D01*
X68624500Y52610694D01*
X68624501Y52610678D01*
X68660866Y52334457D01*
X68660867Y52334452D01*
X68660868Y52334446D01*
X68699333Y52190891D01*
X68732981Y52065315D01*
X68732984Y52065305D01*
X68839604Y51807902D01*
X68839609Y51807891D01*
X68978914Y51566610D01*
X68978925Y51566594D01*
X69148533Y51345555D01*
X69148539Y51345548D01*
X69345547Y51148540D01*
X69345553Y51148535D01*
X69566602Y50978919D01*
X69566609Y50978915D01*
X69807890Y50839610D01*
X69807895Y50839608D01*
X69807898Y50839606D01*
X70065314Y50732981D01*
X70334446Y50660868D01*
X70610687Y50624500D01*
X70610694Y50624500D01*
X70889306Y50624500D01*
X70889313Y50624500D01*
X71165554Y50660868D01*
X71434686Y50732981D01*
X71692102Y50839606D01*
X71933398Y50978919D01*
X72154447Y51148535D01*
X72351465Y51345553D01*
X72521081Y51566602D01*
X72660394Y51807898D01*
X72767019Y52065314D01*
X72839132Y52334446D01*
X72875500Y52610687D01*
X72875500Y52889313D01*
X72839132Y53165554D01*
X72767019Y53434686D01*
X72751913Y53471154D01*
X72689922Y53620815D01*
X72660394Y53692102D01*
X72660392Y53692105D01*
X72660390Y53692110D01*
X72521085Y53933391D01*
X72521081Y53933398D01*
X72418904Y54066558D01*
X72409474Y54078847D01*
X77449500Y54078847D01*
X77449500Y53921154D01*
X77480261Y53766511D01*
X77480264Y53766499D01*
X77540602Y53620828D01*
X77540609Y53620815D01*
X77628210Y53489712D01*
X77628213Y53489708D01*
X77739707Y53378214D01*
X77739711Y53378211D01*
X77870814Y53290610D01*
X77870827Y53290603D01*
X78016498Y53230265D01*
X78016503Y53230263D01*
X78171153Y53199501D01*
X78171156Y53199500D01*
X78171158Y53199500D01*
X78328844Y53199500D01*
X78328845Y53199501D01*
X78483497Y53230263D01*
X78629179Y53290606D01*
X78681110Y53325306D01*
X78747785Y53346184D01*
X78815165Y53327700D01*
X78818863Y53325324D01*
X78870821Y53290606D01*
X78870823Y53290605D01*
X78870825Y53290604D01*
X79016498Y53230265D01*
X79016503Y53230263D01*
X79171153Y53199501D01*
X79171156Y53199500D01*
X79171158Y53199500D01*
X79328844Y53199500D01*
X79328845Y53199501D01*
X79483497Y53230263D01*
X79629179Y53290606D01*
X79760289Y53378211D01*
X79871789Y53489711D01*
X79959394Y53620821D01*
X79962719Y53628847D01*
X79993777Y53703829D01*
X80019737Y53766503D01*
X80026652Y53801266D01*
X80871456Y53801266D01*
X80871456Y53643573D01*
X80902217Y53488930D01*
X80902220Y53488918D01*
X80962558Y53343247D01*
X80962565Y53343234D01*
X81050166Y53212131D01*
X81050169Y53212127D01*
X81161663Y53100633D01*
X81161667Y53100630D01*
X81292770Y53013029D01*
X81292783Y53013022D01*
X81438454Y52952684D01*
X81438459Y52952682D01*
X81593109Y52921920D01*
X81593112Y52921919D01*
X81593114Y52921919D01*
X81750800Y52921919D01*
X81750801Y52921920D01*
X81905453Y52952682D01*
X82051135Y53013025D01*
X82182245Y53100630D01*
X82293745Y53212130D01*
X82381350Y53343240D01*
X82382570Y53346184D01*
X82441691Y53488918D01*
X82441693Y53488922D01*
X82472456Y53643577D01*
X82472456Y53801261D01*
X82472456Y53801264D01*
X82472455Y53801266D01*
X82466432Y53831545D01*
X82441693Y53955916D01*
X82441691Y53955921D01*
X82381353Y54101592D01*
X82381346Y54101605D01*
X82293745Y54232708D01*
X82293742Y54232712D01*
X82182248Y54344206D01*
X82182244Y54344209D01*
X82051141Y54431810D01*
X82051128Y54431817D01*
X81905457Y54492155D01*
X81905445Y54492158D01*
X81750801Y54522919D01*
X81750798Y54522919D01*
X81593114Y54522919D01*
X81593111Y54522919D01*
X81438466Y54492158D01*
X81438454Y54492155D01*
X81292783Y54431817D01*
X81292770Y54431810D01*
X81161667Y54344209D01*
X81161663Y54344206D01*
X81050169Y54232712D01*
X81050166Y54232708D01*
X80962565Y54101605D01*
X80962558Y54101592D01*
X80902220Y53955921D01*
X80902217Y53955909D01*
X80871456Y53801266D01*
X80026652Y53801266D01*
X80032675Y53831545D01*
X80050500Y53921156D01*
X80050500Y54078845D01*
X80050499Y54078847D01*
X80045975Y54101592D01*
X80019737Y54233497D01*
X80019735Y54233502D01*
X79959397Y54379173D01*
X79959390Y54379186D01*
X79871789Y54510289D01*
X79871786Y54510293D01*
X79760292Y54621787D01*
X79760288Y54621790D01*
X79629185Y54709391D01*
X79629172Y54709398D01*
X79483501Y54769736D01*
X79483489Y54769739D01*
X79328845Y54800500D01*
X79328842Y54800500D01*
X79171158Y54800500D01*
X79171155Y54800500D01*
X79016510Y54769739D01*
X79016498Y54769736D01*
X78870827Y54709398D01*
X78870814Y54709391D01*
X78818891Y54674696D01*
X78752214Y54653818D01*
X78684833Y54672302D01*
X78681109Y54674696D01*
X78629185Y54709391D01*
X78629172Y54709398D01*
X78483501Y54769736D01*
X78483489Y54769739D01*
X78328845Y54800500D01*
X78328842Y54800500D01*
X78171158Y54800500D01*
X78171155Y54800500D01*
X78016510Y54769739D01*
X78016498Y54769736D01*
X77870827Y54709398D01*
X77870814Y54709391D01*
X77739711Y54621790D01*
X77739707Y54621787D01*
X77628213Y54510293D01*
X77628210Y54510289D01*
X77540609Y54379186D01*
X77540602Y54379173D01*
X77480264Y54233502D01*
X77480261Y54233490D01*
X77449500Y54078847D01*
X72409474Y54078847D01*
X72351466Y54154446D01*
X72351460Y54154453D01*
X72154452Y54351461D01*
X72154445Y54351467D01*
X71933406Y54521075D01*
X71933404Y54521077D01*
X71933398Y54521081D01*
X71933393Y54521084D01*
X71933390Y54521086D01*
X71692109Y54660391D01*
X71692098Y54660396D01*
X71434695Y54767016D01*
X71434688Y54767018D01*
X71434686Y54767019D01*
X71165554Y54839132D01*
X71165548Y54839133D01*
X71165543Y54839134D01*
X70889322Y54875499D01*
X70889319Y54875500D01*
X70889313Y54875500D01*
X70610687Y54875500D01*
X70610681Y54875500D01*
X70610677Y54875499D01*
X70334456Y54839134D01*
X70334449Y54839133D01*
X70334446Y54839132D01*
X70190268Y54800500D01*
X70065314Y54767019D01*
X70065304Y54767016D01*
X69807901Y54660396D01*
X69807890Y54660391D01*
X69566609Y54521086D01*
X69566593Y54521075D01*
X69345554Y54351467D01*
X69345547Y54351461D01*
X69148539Y54154453D01*
X69148533Y54154446D01*
X68978925Y53933407D01*
X68978914Y53933391D01*
X68839609Y53692110D01*
X68839604Y53692099D01*
X68732984Y53434696D01*
X68732981Y53434686D01*
X68664429Y53178842D01*
X68660869Y53165557D01*
X68660866Y53165544D01*
X68624501Y52889323D01*
X68624500Y52889307D01*
X66796358Y52889307D01*
X66768287Y53102501D01*
X66767347Y53113242D01*
X66751365Y53479184D01*
X66750618Y53496279D01*
X66750500Y53501689D01*
X66750500Y56578847D01*
X68199500Y56578847D01*
X68199500Y56421154D01*
X68230261Y56266511D01*
X68230264Y56266499D01*
X68290602Y56120828D01*
X68290609Y56120815D01*
X68378210Y55989712D01*
X68378213Y55989708D01*
X68489707Y55878214D01*
X68489711Y55878211D01*
X68620814Y55790610D01*
X68620827Y55790603D01*
X68761602Y55732293D01*
X68766503Y55730263D01*
X68921153Y55699501D01*
X68921156Y55699500D01*
X68921158Y55699500D01*
X69078844Y55699500D01*
X69078845Y55699501D01*
X69233497Y55730263D01*
X69379179Y55790606D01*
X69510289Y55878211D01*
X69621789Y55989711D01*
X69709394Y56120821D01*
X69769737Y56266503D01*
X69800500Y56421158D01*
X69800500Y56578842D01*
X69800500Y56578845D01*
X69800499Y56578847D01*
X76449500Y56578847D01*
X76449500Y56421154D01*
X76480261Y56266511D01*
X76480264Y56266499D01*
X76540602Y56120828D01*
X76540609Y56120815D01*
X76628210Y55989712D01*
X76628213Y55989708D01*
X76739707Y55878214D01*
X76739711Y55878211D01*
X76870814Y55790610D01*
X76870827Y55790603D01*
X77011602Y55732293D01*
X77016503Y55730263D01*
X77171153Y55699501D01*
X77171156Y55699500D01*
X77171158Y55699500D01*
X77328844Y55699500D01*
X77328845Y55699501D01*
X77483497Y55730263D01*
X77629179Y55790606D01*
X77760289Y55878211D01*
X77871789Y55989711D01*
X77959394Y56120821D01*
X78019737Y56266503D01*
X78050500Y56421158D01*
X78050500Y56578842D01*
X78050500Y56578845D01*
X78044155Y56610742D01*
X78044155Y56610743D01*
X78040554Y56628847D01*
X78929500Y56628847D01*
X78929500Y56471154D01*
X78960261Y56316511D01*
X78960264Y56316499D01*
X79020602Y56170828D01*
X79020609Y56170815D01*
X79108210Y56039712D01*
X79108213Y56039708D01*
X79219707Y55928214D01*
X79219711Y55928211D01*
X79350814Y55840610D01*
X79350827Y55840603D01*
X79496498Y55780265D01*
X79496503Y55780263D01*
X79620587Y55755581D01*
X79651153Y55749501D01*
X79651156Y55749500D01*
X79651158Y55749500D01*
X79808844Y55749500D01*
X79931308Y55773860D01*
X80000900Y55767633D01*
X80056077Y55724770D01*
X80079322Y55658880D01*
X80079500Y55652243D01*
X80079500Y55621154D01*
X80110261Y55466511D01*
X80110264Y55466499D01*
X80170602Y55320828D01*
X80170609Y55320815D01*
X80258210Y55189712D01*
X80258213Y55189708D01*
X80369707Y55078214D01*
X80369711Y55078211D01*
X80500814Y54990610D01*
X80500827Y54990603D01*
X80646498Y54930265D01*
X80646503Y54930263D01*
X80801153Y54899501D01*
X80801156Y54899500D01*
X80801158Y54899500D01*
X80958844Y54899500D01*
X80958845Y54899501D01*
X81113497Y54930263D01*
X81259179Y54990606D01*
X81390289Y55078211D01*
X81436534Y55124457D01*
X81497856Y55157942D01*
X81548407Y55158393D01*
X81550675Y55157942D01*
X81593113Y55149500D01*
X81593114Y55149500D01*
X81750800Y55149500D01*
X81750801Y55149501D01*
X81905453Y55180263D01*
X82051135Y55240606D01*
X82182245Y55328211D01*
X82293745Y55439711D01*
X82381350Y55570821D01*
X82384675Y55578847D01*
X82434650Y55699500D01*
X82441693Y55716503D01*
X82472456Y55871158D01*
X82472456Y56028842D01*
X82472456Y56028845D01*
X82472455Y56028847D01*
X82454160Y56120821D01*
X82441693Y56183497D01*
X82441691Y56183502D01*
X82381353Y56329173D01*
X82381346Y56329186D01*
X82293745Y56460289D01*
X82293742Y56460293D01*
X82182248Y56571787D01*
X82182244Y56571790D01*
X82096853Y56628847D01*
X83079500Y56628847D01*
X83079500Y56471154D01*
X83110261Y56316511D01*
X83110264Y56316499D01*
X83170602Y56170828D01*
X83170609Y56170815D01*
X83258210Y56039712D01*
X83258213Y56039708D01*
X83369707Y55928214D01*
X83369711Y55928211D01*
X83500814Y55840610D01*
X83500827Y55840603D01*
X83646498Y55780265D01*
X83646503Y55780263D01*
X83770587Y55755581D01*
X83801153Y55749501D01*
X83801156Y55749500D01*
X83832351Y55749500D01*
X83899390Y55729815D01*
X83945145Y55677011D01*
X83955089Y55607853D01*
X83953969Y55601310D01*
X83949500Y55578842D01*
X83949500Y55421154D01*
X83980261Y55266511D01*
X83980264Y55266499D01*
X84042042Y55117352D01*
X84049511Y55047883D01*
X84018235Y54985404D01*
X83958146Y54949752D01*
X83927481Y54945900D01*
X83801155Y54945900D01*
X83646510Y54915139D01*
X83646498Y54915136D01*
X83500827Y54854798D01*
X83500814Y54854791D01*
X83369711Y54767190D01*
X83369707Y54767187D01*
X83258213Y54655693D01*
X83258210Y54655689D01*
X83170609Y54524586D01*
X83170602Y54524573D01*
X83110264Y54378902D01*
X83110261Y54378890D01*
X83079500Y54224247D01*
X83079500Y54066554D01*
X83110261Y53911911D01*
X83110264Y53911899D01*
X83170602Y53766228D01*
X83170608Y53766217D01*
X83220472Y53691590D01*
X83241349Y53624913D01*
X83222864Y53557533D01*
X83220472Y53553810D01*
X83170608Y53479184D01*
X83170602Y53479173D01*
X83110264Y53333502D01*
X83110261Y53333490D01*
X83079500Y53178847D01*
X83079500Y53021154D01*
X83110261Y52866511D01*
X83110264Y52866499D01*
X83170602Y52720828D01*
X83170609Y52720815D01*
X83258210Y52589712D01*
X83258213Y52589708D01*
X83369707Y52478214D01*
X83369711Y52478211D01*
X83500814Y52390610D01*
X83500827Y52390603D01*
X83646498Y52330265D01*
X83646503Y52330263D01*
X83801153Y52299501D01*
X83801156Y52299500D01*
X83801158Y52299500D01*
X83958844Y52299500D01*
X83958845Y52299501D01*
X84113497Y52330263D01*
X84259179Y52390606D01*
X84390289Y52478211D01*
X84501789Y52589711D01*
X84589394Y52720821D01*
X84649737Y52866503D01*
X84680500Y53021158D01*
X84680500Y53178842D01*
X84680500Y53178845D01*
X84680499Y53178847D01*
X84673879Y53212127D01*
X84649737Y53333497D01*
X84645701Y53343240D01*
X84589397Y53479173D01*
X84589390Y53479186D01*
X84539528Y53553809D01*
X84533553Y53572888D01*
X84523047Y53589898D01*
X84523326Y53605550D01*
X84518650Y53620486D01*
X84520943Y53628847D01*
X84929500Y53628847D01*
X84929500Y53471154D01*
X84960261Y53316511D01*
X84960264Y53316499D01*
X85020602Y53170828D01*
X85020609Y53170815D01*
X85108210Y53039712D01*
X85108213Y53039708D01*
X85219707Y52928214D01*
X85219711Y52928211D01*
X85350814Y52840610D01*
X85350827Y52840603D01*
X85496498Y52780265D01*
X85496503Y52780263D01*
X85651153Y52749501D01*
X85651156Y52749500D01*
X85651158Y52749500D01*
X85808844Y52749500D01*
X85808845Y52749501D01*
X85963497Y52780263D01*
X86058750Y52819719D01*
X86128217Y52827187D01*
X86153649Y52819720D01*
X86248906Y52780263D01*
X86403556Y52749501D01*
X86403559Y52749500D01*
X86403561Y52749500D01*
X86561247Y52749500D01*
X86561248Y52749501D01*
X86715900Y52780263D01*
X86861582Y52840606D01*
X86992692Y52928211D01*
X87104192Y53039711D01*
X87191797Y53170821D01*
X87195122Y53178847D01*
X87252138Y53316499D01*
X87252140Y53316503D01*
X87282903Y53471158D01*
X87282903Y53628842D01*
X87282903Y53628845D01*
X87282902Y53628847D01*
X87271162Y53687866D01*
X87252140Y53783497D01*
X87244780Y53801266D01*
X87191800Y53929173D01*
X87191793Y53929186D01*
X87104192Y54060289D01*
X87104189Y54060293D01*
X86992695Y54171787D01*
X86992691Y54171790D01*
X86861588Y54259391D01*
X86861575Y54259398D01*
X86715904Y54319736D01*
X86715892Y54319739D01*
X86561248Y54350500D01*
X86561245Y54350500D01*
X86403561Y54350500D01*
X86403558Y54350500D01*
X86248914Y54319740D01*
X86248913Y54319739D01*
X86248910Y54319738D01*
X86248906Y54319737D01*
X86153650Y54280282D01*
X86084183Y54272814D01*
X86058749Y54280283D01*
X85963498Y54319737D01*
X85963488Y54319740D01*
X85808845Y54350500D01*
X85808842Y54350500D01*
X85651158Y54350500D01*
X85651155Y54350500D01*
X85496510Y54319739D01*
X85496498Y54319736D01*
X85350827Y54259398D01*
X85350814Y54259391D01*
X85219711Y54171790D01*
X85219707Y54171787D01*
X85108213Y54060293D01*
X85108210Y54060289D01*
X85020609Y53929186D01*
X85020602Y53929173D01*
X84960264Y53783502D01*
X84960261Y53783490D01*
X84929500Y53628847D01*
X84520943Y53628847D01*
X84523938Y53639765D01*
X84524296Y53659756D01*
X84536311Y53684868D01*
X84537134Y53687866D01*
X84539530Y53691594D01*
X84547705Y53703828D01*
X84547705Y53703829D01*
X84589390Y53766215D01*
X84589391Y53766217D01*
X84589394Y53766221D01*
X84649737Y53911903D01*
X84680500Y54066558D01*
X84680500Y54224242D01*
X84680500Y54224245D01*
X84680499Y54224247D01*
X84661505Y54319736D01*
X84649737Y54378897D01*
X84619346Y54452268D01*
X84587958Y54528048D01*
X84580489Y54597517D01*
X84611765Y54659996D01*
X84671854Y54695648D01*
X84702519Y54699500D01*
X84828844Y54699500D01*
X84828845Y54699501D01*
X84983497Y54730263D01*
X85129179Y54790606D01*
X85260289Y54878211D01*
X85371789Y54989711D01*
X85459394Y55120821D01*
X85519737Y55266503D01*
X85550500Y55421158D01*
X85550500Y55578842D01*
X85550500Y55578845D01*
X85550499Y55578847D01*
X85544729Y55607853D01*
X85519737Y55733497D01*
X85519735Y55733502D01*
X85459397Y55879173D01*
X85459390Y55879186D01*
X85371789Y56010289D01*
X85371786Y56010293D01*
X85260292Y56121787D01*
X85260288Y56121790D01*
X85129185Y56209391D01*
X85129172Y56209398D01*
X84983501Y56269736D01*
X84983489Y56269739D01*
X84828845Y56300500D01*
X84828842Y56300500D01*
X84797649Y56300500D01*
X84730610Y56320185D01*
X84684855Y56372989D01*
X84674911Y56442147D01*
X84676031Y56448690D01*
X84680500Y56471159D01*
X84680500Y56628845D01*
X84680499Y56628847D01*
X84674422Y56659398D01*
X84649737Y56783497D01*
X84648084Y56787488D01*
X84630953Y56828847D01*
X86199500Y56828847D01*
X86199500Y56671154D01*
X86230261Y56516511D01*
X86230264Y56516499D01*
X86290602Y56370828D01*
X86290609Y56370815D01*
X86378210Y56239712D01*
X86378213Y56239708D01*
X86489707Y56128214D01*
X86489711Y56128211D01*
X86620814Y56040610D01*
X86620827Y56040603D01*
X86766498Y55980265D01*
X86766503Y55980263D01*
X86921153Y55949501D01*
X86921156Y55949500D01*
X86921158Y55949500D01*
X87078844Y55949500D01*
X87078845Y55949501D01*
X87233497Y55980263D01*
X87379179Y56040606D01*
X87510289Y56128211D01*
X87621789Y56239711D01*
X87709394Y56370821D01*
X87769737Y56516503D01*
X87800500Y56671158D01*
X87800500Y56828842D01*
X87800500Y56828845D01*
X87800499Y56828847D01*
X87780543Y56929173D01*
X87769737Y56983497D01*
X87769735Y56983502D01*
X87709397Y57129173D01*
X87709390Y57129186D01*
X87621789Y57260289D01*
X87621786Y57260293D01*
X87510292Y57371787D01*
X87510288Y57371790D01*
X87379185Y57459391D01*
X87379172Y57459398D01*
X87233501Y57519736D01*
X87233489Y57519739D01*
X87078845Y57550500D01*
X87078842Y57550500D01*
X86921158Y57550500D01*
X86921155Y57550500D01*
X86766510Y57519739D01*
X86766498Y57519736D01*
X86620827Y57459398D01*
X86620814Y57459391D01*
X86489711Y57371790D01*
X86489707Y57371787D01*
X86378213Y57260293D01*
X86378210Y57260289D01*
X86290609Y57129186D01*
X86290602Y57129173D01*
X86230264Y56983502D01*
X86230261Y56983490D01*
X86199500Y56828847D01*
X84630953Y56828847D01*
X84589397Y56929173D01*
X84589390Y56929186D01*
X84501789Y57060289D01*
X84501786Y57060293D01*
X84390292Y57171787D01*
X84390288Y57171790D01*
X84259185Y57259391D01*
X84259172Y57259398D01*
X84113501Y57319736D01*
X84113489Y57319739D01*
X83958845Y57350500D01*
X83958842Y57350500D01*
X83801158Y57350500D01*
X83801155Y57350500D01*
X83646510Y57319739D01*
X83646498Y57319736D01*
X83500827Y57259398D01*
X83500814Y57259391D01*
X83369711Y57171790D01*
X83369707Y57171787D01*
X83258213Y57060293D01*
X83258210Y57060289D01*
X83170609Y56929186D01*
X83170602Y56929173D01*
X83110264Y56783502D01*
X83110261Y56783490D01*
X83079500Y56628847D01*
X82096853Y56628847D01*
X82051141Y56659391D01*
X82051128Y56659398D01*
X81905457Y56719736D01*
X81905445Y56719739D01*
X81750801Y56750500D01*
X81750798Y56750500D01*
X81593114Y56750500D01*
X81560188Y56743951D01*
X81500469Y56732072D01*
X81430877Y56738300D01*
X81375700Y56781164D01*
X81361721Y56806228D01*
X81310794Y56929179D01*
X81310792Y56929182D01*
X81310790Y56929186D01*
X81223189Y57060289D01*
X81223186Y57060293D01*
X81111692Y57171787D01*
X81111688Y57171790D01*
X80980585Y57259391D01*
X80980572Y57259398D01*
X80834901Y57319736D01*
X80834889Y57319739D01*
X80680245Y57350500D01*
X80680242Y57350500D01*
X80522558Y57350500D01*
X80522555Y57350500D01*
X80367910Y57319739D01*
X80367898Y57319736D01*
X80216592Y57257063D01*
X80215911Y57258708D01*
X80155730Y57246187D01*
X80115229Y57258080D01*
X80114808Y57257063D01*
X79963501Y57319736D01*
X79963489Y57319739D01*
X79808845Y57350500D01*
X79808842Y57350500D01*
X79651158Y57350500D01*
X79651155Y57350500D01*
X79496510Y57319739D01*
X79496498Y57319736D01*
X79350827Y57259398D01*
X79350814Y57259391D01*
X79219711Y57171790D01*
X79219707Y57171787D01*
X79108213Y57060293D01*
X79108210Y57060289D01*
X79020609Y56929186D01*
X79020602Y56929173D01*
X78960264Y56783502D01*
X78960261Y56783490D01*
X78929500Y56628847D01*
X78040554Y56628847D01*
X78022474Y56719737D01*
X78019737Y56733497D01*
X77999993Y56781164D01*
X77959397Y56879173D01*
X77959390Y56879186D01*
X77871789Y57010289D01*
X77871786Y57010293D01*
X77760292Y57121787D01*
X77760288Y57121790D01*
X77629185Y57209391D01*
X77629172Y57209398D01*
X77483501Y57269736D01*
X77483489Y57269739D01*
X77328845Y57300500D01*
X77328842Y57300500D01*
X77171158Y57300500D01*
X77171155Y57300500D01*
X77016510Y57269739D01*
X77016498Y57269736D01*
X76870827Y57209398D01*
X76870814Y57209391D01*
X76739711Y57121790D01*
X76739707Y57121787D01*
X76628213Y57010293D01*
X76628210Y57010289D01*
X76540609Y56879186D01*
X76540602Y56879173D01*
X76480264Y56733502D01*
X76480261Y56733490D01*
X76449500Y56578847D01*
X69800499Y56578847D01*
X69790553Y56628847D01*
X69769737Y56733497D01*
X69749993Y56781164D01*
X69709397Y56879173D01*
X69709390Y56879186D01*
X69621789Y57010289D01*
X69621786Y57010293D01*
X69510292Y57121787D01*
X69510288Y57121790D01*
X69379185Y57209391D01*
X69379172Y57209398D01*
X69233501Y57269736D01*
X69233489Y57269739D01*
X69078845Y57300500D01*
X69078842Y57300500D01*
X68921158Y57300500D01*
X68921155Y57300500D01*
X68766510Y57269739D01*
X68766498Y57269736D01*
X68620827Y57209398D01*
X68620814Y57209391D01*
X68489711Y57121790D01*
X68489707Y57121787D01*
X68378213Y57010293D01*
X68378210Y57010289D01*
X68290609Y56879186D01*
X68290602Y56879173D01*
X68230264Y56733502D01*
X68230261Y56733490D01*
X68199500Y56578847D01*
X66750500Y56578847D01*
X66750500Y59078847D01*
X72199500Y59078847D01*
X72199500Y58921154D01*
X72230261Y58766511D01*
X72230264Y58766499D01*
X72290602Y58620828D01*
X72290609Y58620815D01*
X72378210Y58489712D01*
X72378213Y58489708D01*
X72489707Y58378214D01*
X72489711Y58378211D01*
X72620814Y58290610D01*
X72620827Y58290603D01*
X72766498Y58230265D01*
X72766503Y58230263D01*
X72921153Y58199501D01*
X72921156Y58199500D01*
X72921158Y58199500D01*
X73078844Y58199500D01*
X73078845Y58199501D01*
X73233497Y58230263D01*
X73379179Y58290606D01*
X73510289Y58378211D01*
X73621789Y58489711D01*
X73709394Y58620821D01*
X73769737Y58766503D01*
X73782138Y58828847D01*
X74949500Y58828847D01*
X74949500Y58671154D01*
X74980261Y58516511D01*
X74980264Y58516499D01*
X75040602Y58370828D01*
X75040609Y58370815D01*
X75128210Y58239712D01*
X75128213Y58239708D01*
X75239707Y58128214D01*
X75239711Y58128211D01*
X75370814Y58040610D01*
X75370827Y58040603D01*
X75516498Y57980265D01*
X75516503Y57980263D01*
X75671153Y57949501D01*
X75671156Y57949500D01*
X75671158Y57949500D01*
X75828844Y57949500D01*
X75828845Y57949501D01*
X75983497Y57980263D01*
X76129179Y58040606D01*
X76260289Y58128211D01*
X76371789Y58239711D01*
X76459394Y58370821D01*
X76519737Y58516503D01*
X76550500Y58671158D01*
X76550500Y58828842D01*
X76550500Y58828845D01*
X76550499Y58828847D01*
X76536769Y58897873D01*
X76519737Y58983497D01*
X76517163Y58989712D01*
X76459397Y59129173D01*
X76459390Y59129186D01*
X76371789Y59260289D01*
X76371786Y59260293D01*
X76260292Y59371787D01*
X76260288Y59371790D01*
X76129185Y59459391D01*
X76129172Y59459398D01*
X75983501Y59519736D01*
X75983489Y59519739D01*
X75828845Y59550500D01*
X75828842Y59550500D01*
X75671158Y59550500D01*
X75671155Y59550500D01*
X75516510Y59519739D01*
X75516498Y59519736D01*
X75370827Y59459398D01*
X75370814Y59459391D01*
X75239711Y59371790D01*
X75239707Y59371787D01*
X75128213Y59260293D01*
X75128210Y59260289D01*
X75040609Y59129186D01*
X75040602Y59129173D01*
X74980264Y58983502D01*
X74980261Y58983490D01*
X74949500Y58828847D01*
X73782138Y58828847D01*
X73795868Y58897872D01*
X73800500Y58921156D01*
X73800500Y59078845D01*
X73800499Y59078847D01*
X73785451Y59154499D01*
X73769737Y59233497D01*
X73760419Y59255992D01*
X73709397Y59379173D01*
X73709390Y59379186D01*
X73621789Y59510289D01*
X73621786Y59510293D01*
X73510292Y59621787D01*
X73510288Y59621790D01*
X73379185Y59709391D01*
X73379172Y59709398D01*
X73233501Y59769736D01*
X73233489Y59769739D01*
X73078845Y59800500D01*
X73078842Y59800500D01*
X72921158Y59800500D01*
X72921155Y59800500D01*
X72766510Y59769739D01*
X72766498Y59769736D01*
X72620827Y59709398D01*
X72620814Y59709391D01*
X72489711Y59621790D01*
X72489707Y59621787D01*
X72378213Y59510293D01*
X72378210Y59510289D01*
X72290609Y59379186D01*
X72290602Y59379173D01*
X72230264Y59233502D01*
X72230261Y59233490D01*
X72199500Y59078847D01*
X66750500Y59078847D01*
X66750500Y62828847D01*
X69449500Y62828847D01*
X69449500Y62671154D01*
X69480261Y62516511D01*
X69480264Y62516499D01*
X69540602Y62370828D01*
X69540609Y62370815D01*
X69628210Y62239712D01*
X69628213Y62239708D01*
X69739707Y62128214D01*
X69739711Y62128211D01*
X69870814Y62040610D01*
X69870827Y62040603D01*
X70016498Y61980265D01*
X70016503Y61980263D01*
X70171153Y61949501D01*
X70171156Y61949500D01*
X70171158Y61949500D01*
X70328844Y61949500D01*
X70328845Y61949501D01*
X70483497Y61980263D01*
X70629179Y62040606D01*
X70760289Y62128211D01*
X70871789Y62239711D01*
X70959394Y62370821D01*
X71019737Y62516503D01*
X71050500Y62671158D01*
X71050500Y62828842D01*
X71050500Y62828845D01*
X71050499Y62828847D01*
X71029199Y62935927D01*
X71019737Y62983497D01*
X71013372Y62998864D01*
X70959397Y63129173D01*
X70959390Y63129186D01*
X70871789Y63260289D01*
X70871786Y63260293D01*
X70760292Y63371787D01*
X70760288Y63371790D01*
X70629185Y63459391D01*
X70629173Y63459398D01*
X70602674Y63470373D01*
X70483501Y63519736D01*
X70483489Y63519739D01*
X70328845Y63550500D01*
X70328842Y63550500D01*
X70171158Y63550500D01*
X70171155Y63550500D01*
X70016510Y63519739D01*
X70016498Y63519736D01*
X69870827Y63459398D01*
X69870814Y63459391D01*
X69739711Y63371790D01*
X69739707Y63371787D01*
X69628213Y63260293D01*
X69628210Y63260289D01*
X69540609Y63129186D01*
X69540602Y63129173D01*
X69480264Y62983502D01*
X69480261Y62983490D01*
X69449500Y62828847D01*
X66750500Y62828847D01*
X66750500Y63578847D01*
X71949500Y63578847D01*
X71949500Y63421154D01*
X71980261Y63266511D01*
X71980264Y63266499D01*
X72040602Y63120828D01*
X72040609Y63120815D01*
X72128210Y62989712D01*
X72128213Y62989708D01*
X72239707Y62878214D01*
X72239711Y62878211D01*
X72370814Y62790610D01*
X72370827Y62790603D01*
X72508683Y62733502D01*
X72516503Y62730263D01*
X72671153Y62699501D01*
X72671156Y62699500D01*
X72671158Y62699500D01*
X72828844Y62699500D01*
X72828845Y62699501D01*
X72983497Y62730263D01*
X73129179Y62790606D01*
X73260289Y62878211D01*
X73371789Y62989711D01*
X73459394Y63120821D01*
X73462854Y63129173D01*
X73492191Y63200000D01*
X73519737Y63266503D01*
X73550500Y63421158D01*
X73550500Y63578842D01*
X73550500Y63578845D01*
X73550499Y63578847D01*
X73519738Y63733490D01*
X73519737Y63733497D01*
X73480242Y63828847D01*
X74169500Y63828847D01*
X74169500Y63671154D01*
X74200261Y63516511D01*
X74200264Y63516499D01*
X74260602Y63370828D01*
X74260609Y63370815D01*
X74348210Y63239712D01*
X74348213Y63239708D01*
X74458042Y63129879D01*
X74491527Y63068556D01*
X74486543Y62998864D01*
X74484930Y62994766D01*
X74482837Y62989711D01*
X74480262Y62983494D01*
X74480260Y62983489D01*
X74449500Y62828847D01*
X74449500Y62671154D01*
X74480261Y62516511D01*
X74480264Y62516499D01*
X74540602Y62370828D01*
X74540609Y62370815D01*
X74628210Y62239712D01*
X74628213Y62239708D01*
X74739707Y62128214D01*
X74739711Y62128211D01*
X74870814Y62040610D01*
X74870827Y62040603D01*
X75016498Y61980265D01*
X75016503Y61980263D01*
X75171153Y61949501D01*
X75171156Y61949500D01*
X75171158Y61949500D01*
X75328844Y61949500D01*
X75328845Y61949501D01*
X75483497Y61980263D01*
X75629179Y62040606D01*
X75760289Y62128211D01*
X75871789Y62239711D01*
X75929499Y62326080D01*
X77979499Y62326080D01*
X78008340Y62181093D01*
X78008343Y62181083D01*
X78064912Y62044512D01*
X78064919Y62044499D01*
X78147048Y61921585D01*
X78147051Y61921581D01*
X78180951Y61887681D01*
X78214436Y61826358D01*
X78209452Y61756666D01*
X78180951Y61712319D01*
X78147051Y61678420D01*
X78147048Y61678416D01*
X78064919Y61555502D01*
X78064912Y61555489D01*
X78008343Y61418918D01*
X78008340Y61418908D01*
X77979500Y61273921D01*
X77979500Y61273918D01*
X77979500Y61126082D01*
X77979500Y61126080D01*
X77979499Y61126080D01*
X78008340Y60981093D01*
X78008343Y60981083D01*
X78064912Y60844512D01*
X78064919Y60844499D01*
X78147048Y60721585D01*
X78147051Y60721581D01*
X78180951Y60687681D01*
X78214436Y60626358D01*
X78209452Y60556666D01*
X78180951Y60512319D01*
X78147051Y60478420D01*
X78147048Y60478416D01*
X78064919Y60355502D01*
X78064912Y60355489D01*
X78008343Y60218918D01*
X78008340Y60218908D01*
X77979500Y60073921D01*
X77979500Y60073918D01*
X77979500Y59926082D01*
X77979500Y59926080D01*
X77979499Y59926080D01*
X78008340Y59781093D01*
X78008343Y59781083D01*
X78064912Y59644512D01*
X78064919Y59644499D01*
X78147048Y59521585D01*
X78147051Y59521581D01*
X78180951Y59487681D01*
X78214436Y59426358D01*
X78209452Y59356666D01*
X78180951Y59312319D01*
X78147051Y59278420D01*
X78147048Y59278416D01*
X78064919Y59155502D01*
X78064912Y59155489D01*
X78008343Y59018918D01*
X78008340Y59018908D01*
X77979500Y58873921D01*
X77979500Y58873918D01*
X77979500Y58726082D01*
X77979500Y58726080D01*
X77979499Y58726080D01*
X78008340Y58581093D01*
X78008343Y58581083D01*
X78064912Y58444512D01*
X78064919Y58444499D01*
X78147048Y58321585D01*
X78147051Y58321581D01*
X78251580Y58217052D01*
X78251584Y58217049D01*
X78374498Y58134920D01*
X78374511Y58134913D01*
X78511082Y58078344D01*
X78511087Y58078342D01*
X78511091Y58078342D01*
X78511092Y58078341D01*
X78656079Y58049500D01*
X78656082Y58049500D01*
X78803920Y58049500D01*
X78901462Y58068904D01*
X78948913Y58078342D01*
X79085495Y58134916D01*
X79208416Y58217049D01*
X79221632Y58230265D01*
X79242319Y58250951D01*
X79303642Y58284436D01*
X79373334Y58279452D01*
X79417681Y58250951D01*
X79451580Y58217052D01*
X79451584Y58217049D01*
X79574498Y58134920D01*
X79574511Y58134913D01*
X79711082Y58078344D01*
X79711087Y58078342D01*
X79711091Y58078342D01*
X79711092Y58078341D01*
X79856079Y58049500D01*
X79856082Y58049500D01*
X80003920Y58049500D01*
X80101462Y58068904D01*
X80148913Y58078342D01*
X80285495Y58134916D01*
X80408416Y58217049D01*
X80421632Y58230265D01*
X80442319Y58250951D01*
X80503642Y58284436D01*
X80573334Y58279452D01*
X80617681Y58250951D01*
X80651580Y58217052D01*
X80651584Y58217049D01*
X80774498Y58134920D01*
X80774511Y58134913D01*
X80911082Y58078344D01*
X80911087Y58078342D01*
X80911091Y58078342D01*
X80911092Y58078341D01*
X81056079Y58049500D01*
X81056082Y58049500D01*
X81203920Y58049500D01*
X81301462Y58068904D01*
X81348913Y58078342D01*
X81485495Y58134916D01*
X81608416Y58217049D01*
X81621632Y58230265D01*
X81642319Y58250951D01*
X81703642Y58284436D01*
X81773334Y58279452D01*
X81817681Y58250951D01*
X81851580Y58217052D01*
X81851584Y58217049D01*
X81974498Y58134920D01*
X81974511Y58134913D01*
X82111082Y58078344D01*
X82111087Y58078342D01*
X82111091Y58078342D01*
X82111092Y58078341D01*
X82256079Y58049500D01*
X82256082Y58049500D01*
X82403920Y58049500D01*
X82501462Y58068904D01*
X82548913Y58078342D01*
X82685495Y58134916D01*
X82808416Y58217049D01*
X82912951Y58321584D01*
X82995084Y58444505D01*
X83051658Y58581087D01*
X83069575Y58671158D01*
X83080500Y58726080D01*
X83080500Y58873921D01*
X83051659Y59018908D01*
X83051658Y59018909D01*
X83051658Y59018913D01*
X83037375Y59053396D01*
X82995087Y59155489D01*
X82995080Y59155502D01*
X82912951Y59278416D01*
X82912948Y59278420D01*
X82879049Y59312319D01*
X82845564Y59373642D01*
X82850548Y59443334D01*
X82879049Y59487681D01*
X82912948Y59521581D01*
X82912951Y59521584D01*
X82995084Y59644505D01*
X83051658Y59781087D01*
X83080500Y59926082D01*
X83080500Y60073918D01*
X83080500Y60073921D01*
X83051659Y60218908D01*
X83051658Y60218909D01*
X83051658Y60218913D01*
X83045349Y60234144D01*
X82995087Y60355489D01*
X82995080Y60355502D01*
X82912951Y60478416D01*
X82912948Y60478420D01*
X82879049Y60512319D01*
X82845564Y60573642D01*
X82850548Y60643334D01*
X82879049Y60687681D01*
X82912948Y60721581D01*
X82912951Y60721584D01*
X82995084Y60844505D01*
X83051658Y60981087D01*
X83073695Y61091873D01*
X83080500Y61126080D01*
X83080500Y61273921D01*
X83051659Y61418908D01*
X83051658Y61418909D01*
X83051658Y61418913D01*
X83032954Y61464069D01*
X82995087Y61555489D01*
X82995080Y61555502D01*
X82912951Y61678416D01*
X82912948Y61678420D01*
X82879049Y61712319D01*
X82845564Y61773642D01*
X82850548Y61843334D01*
X82879049Y61887681D01*
X82912948Y61921581D01*
X82912951Y61921584D01*
X82995084Y62044505D01*
X83051658Y62181087D01*
X83080500Y62326082D01*
X83080500Y62473918D01*
X83080500Y62473921D01*
X83051659Y62618908D01*
X83051658Y62618909D01*
X83051658Y62618913D01*
X83030019Y62671154D01*
X82995087Y62755489D01*
X82995080Y62755502D01*
X82912951Y62878416D01*
X82912948Y62878420D01*
X82808419Y62982949D01*
X82808415Y62982952D01*
X82685501Y63065081D01*
X82685488Y63065088D01*
X82548917Y63121657D01*
X82548907Y63121660D01*
X82403920Y63150500D01*
X82403918Y63150500D01*
X82256082Y63150500D01*
X82256080Y63150500D01*
X82111092Y63121660D01*
X82111082Y63121657D01*
X81974511Y63065088D01*
X81974498Y63065081D01*
X81851584Y62982952D01*
X81851580Y62982949D01*
X81817681Y62949049D01*
X81756358Y62915564D01*
X81686666Y62920548D01*
X81642319Y62949049D01*
X81608419Y62982949D01*
X81608415Y62982952D01*
X81485501Y63065081D01*
X81485488Y63065088D01*
X81348917Y63121657D01*
X81348907Y63121660D01*
X81203920Y63150500D01*
X81203918Y63150500D01*
X81056082Y63150500D01*
X81056080Y63150500D01*
X80911092Y63121660D01*
X80911082Y63121657D01*
X80774511Y63065088D01*
X80774498Y63065081D01*
X80651584Y62982952D01*
X80651580Y62982949D01*
X80617681Y62949049D01*
X80556358Y62915564D01*
X80486666Y62920548D01*
X80442319Y62949049D01*
X80408419Y62982949D01*
X80408415Y62982952D01*
X80285501Y63065081D01*
X80285488Y63065088D01*
X80148917Y63121657D01*
X80148907Y63121660D01*
X80003920Y63150500D01*
X80003918Y63150500D01*
X79856082Y63150500D01*
X79856080Y63150500D01*
X79711092Y63121660D01*
X79711082Y63121657D01*
X79574511Y63065088D01*
X79574498Y63065081D01*
X79451584Y62982952D01*
X79451580Y62982949D01*
X79417681Y62949049D01*
X79356358Y62915564D01*
X79286666Y62920548D01*
X79242319Y62949049D01*
X79208419Y62982949D01*
X79208415Y62982952D01*
X79085501Y63065081D01*
X79085488Y63065088D01*
X78948917Y63121657D01*
X78948907Y63121660D01*
X78803920Y63150500D01*
X78803918Y63150500D01*
X78656082Y63150500D01*
X78656080Y63150500D01*
X78511092Y63121660D01*
X78511082Y63121657D01*
X78374511Y63065088D01*
X78374498Y63065081D01*
X78251584Y62982952D01*
X78251580Y62982949D01*
X78147051Y62878420D01*
X78147048Y62878416D01*
X78064919Y62755502D01*
X78064912Y62755489D01*
X78008343Y62618918D01*
X78008340Y62618908D01*
X77979500Y62473921D01*
X77979500Y62473918D01*
X77979500Y62326082D01*
X77979500Y62326080D01*
X77979499Y62326080D01*
X75929499Y62326080D01*
X75959394Y62370821D01*
X76019737Y62516503D01*
X76023602Y62535931D01*
X76050499Y62671154D01*
X76050500Y62671156D01*
X76050500Y62828845D01*
X76050499Y62828847D01*
X76029199Y62935927D01*
X76019737Y62983497D01*
X76013372Y62998864D01*
X75959397Y63129173D01*
X75959390Y63129186D01*
X75871789Y63260289D01*
X75871786Y63260293D01*
X75761957Y63370122D01*
X75728472Y63431445D01*
X75733456Y63501137D01*
X75735065Y63505226D01*
X75739737Y63516503D01*
X75770500Y63671158D01*
X75770500Y63828842D01*
X75770500Y63828845D01*
X75770499Y63828847D01*
X75750326Y63930263D01*
X75739737Y63983497D01*
X75739735Y63983502D01*
X75679397Y64129173D01*
X75679390Y64129186D01*
X75591789Y64260289D01*
X75591786Y64260293D01*
X75480292Y64371787D01*
X75480288Y64371790D01*
X75349185Y64459391D01*
X75349172Y64459398D01*
X75203501Y64519736D01*
X75203489Y64519739D01*
X75048845Y64550500D01*
X75048842Y64550500D01*
X74891158Y64550500D01*
X74891155Y64550500D01*
X74736510Y64519739D01*
X74736498Y64519736D01*
X74590827Y64459398D01*
X74590814Y64459391D01*
X74459711Y64371790D01*
X74459707Y64371787D01*
X74348213Y64260293D01*
X74348210Y64260289D01*
X74260609Y64129186D01*
X74260602Y64129173D01*
X74200264Y63983502D01*
X74200261Y63983490D01*
X74169500Y63828847D01*
X73480242Y63828847D01*
X73465651Y63864074D01*
X73459397Y63879173D01*
X73459390Y63879186D01*
X73371789Y64010289D01*
X73371786Y64010293D01*
X73260292Y64121787D01*
X73260288Y64121790D01*
X73129185Y64209391D01*
X73129172Y64209398D01*
X72983501Y64269736D01*
X72983489Y64269739D01*
X72828845Y64300500D01*
X72828842Y64300500D01*
X72671158Y64300500D01*
X72671155Y64300500D01*
X72516510Y64269739D01*
X72516498Y64269736D01*
X72370827Y64209398D01*
X72370814Y64209391D01*
X72239711Y64121790D01*
X72239707Y64121787D01*
X72128213Y64010293D01*
X72128210Y64010289D01*
X72040609Y63879186D01*
X72040602Y63879173D01*
X71980264Y63733502D01*
X71980261Y63733490D01*
X71949500Y63578847D01*
X66750500Y63578847D01*
X66750500Y65128847D01*
X76419500Y65128847D01*
X76419500Y64971154D01*
X76450261Y64816511D01*
X76450264Y64816499D01*
X76510602Y64670828D01*
X76510609Y64670815D01*
X76598210Y64539712D01*
X76598213Y64539708D01*
X76709707Y64428214D01*
X76709711Y64428211D01*
X76840814Y64340610D01*
X76840827Y64340603D01*
X76937646Y64300500D01*
X76986503Y64280263D01*
X77141153Y64249501D01*
X77141156Y64249500D01*
X77141158Y64249500D01*
X77298844Y64249500D01*
X77298845Y64249501D01*
X77453497Y64280263D01*
X77599179Y64340606D01*
X77730289Y64428211D01*
X77841789Y64539711D01*
X77929394Y64670821D01*
X77989737Y64816503D01*
X78020500Y64971158D01*
X78020500Y65128842D01*
X78020500Y65128845D01*
X78020499Y65128847D01*
X78020217Y65130265D01*
X77989737Y65283497D01*
X77989735Y65283502D01*
X77929397Y65429173D01*
X77929390Y65429186D01*
X77841789Y65560289D01*
X77841786Y65560293D01*
X77730292Y65671787D01*
X77730288Y65671790D01*
X77599185Y65759391D01*
X77599172Y65759398D01*
X77453501Y65819736D01*
X77453489Y65819739D01*
X77298845Y65850500D01*
X77298842Y65850500D01*
X77141158Y65850500D01*
X77141155Y65850500D01*
X76986510Y65819739D01*
X76986498Y65819736D01*
X76840827Y65759398D01*
X76840814Y65759391D01*
X76709711Y65671790D01*
X76709707Y65671787D01*
X76598213Y65560293D01*
X76598210Y65560289D01*
X76510609Y65429186D01*
X76510602Y65429173D01*
X76450264Y65283502D01*
X76450261Y65283490D01*
X76419500Y65128847D01*
X66750500Y65128847D01*
X66750500Y66828847D01*
X70199500Y66828847D01*
X70199500Y66671154D01*
X70230261Y66516511D01*
X70230264Y66516499D01*
X70290602Y66370828D01*
X70290609Y66370815D01*
X70378210Y66239712D01*
X70378213Y66239708D01*
X70489707Y66128214D01*
X70489711Y66128211D01*
X70620814Y66040610D01*
X70620827Y66040603D01*
X70766498Y65980265D01*
X70766503Y65980263D01*
X70921153Y65949501D01*
X70921156Y65949500D01*
X70921158Y65949500D01*
X71078844Y65949500D01*
X71078845Y65949501D01*
X71226378Y65978847D01*
X80799500Y65978847D01*
X80799500Y65821154D01*
X80830261Y65666511D01*
X80830264Y65666499D01*
X80890602Y65520828D01*
X80890609Y65520815D01*
X80978210Y65389712D01*
X80978213Y65389708D01*
X81089707Y65278214D01*
X81089711Y65278211D01*
X81220814Y65190610D01*
X81220827Y65190603D01*
X81366498Y65130265D01*
X81366503Y65130263D01*
X81521153Y65099501D01*
X81521156Y65099500D01*
X81521158Y65099500D01*
X81678844Y65099500D01*
X81678845Y65099501D01*
X81833497Y65130263D01*
X81979179Y65190606D01*
X82031110Y65225306D01*
X82097785Y65246184D01*
X82165165Y65227700D01*
X82168863Y65225324D01*
X82220821Y65190606D01*
X82220823Y65190605D01*
X82220825Y65190604D01*
X82256544Y65175809D01*
X82366503Y65130263D01*
X82521153Y65099501D01*
X82521156Y65099500D01*
X82521158Y65099500D01*
X82678844Y65099500D01*
X82678845Y65099501D01*
X82833497Y65130263D01*
X82979179Y65190606D01*
X83031110Y65225306D01*
X83097785Y65246184D01*
X83165165Y65227700D01*
X83168863Y65225324D01*
X83220821Y65190606D01*
X83220823Y65190605D01*
X83220825Y65190604D01*
X83256544Y65175809D01*
X83366503Y65130263D01*
X83521153Y65099501D01*
X83521156Y65099500D01*
X83521158Y65099500D01*
X83678844Y65099500D01*
X83678845Y65099501D01*
X83833497Y65130263D01*
X83979179Y65190606D01*
X84110289Y65278211D01*
X84163551Y65331473D01*
X84224874Y65364959D01*
X84294566Y65359975D01*
X84298677Y65358358D01*
X84366503Y65330263D01*
X84366506Y65330263D01*
X84366511Y65330261D01*
X84521153Y65299501D01*
X84521156Y65299500D01*
X84521158Y65299500D01*
X84678844Y65299500D01*
X84678845Y65299501D01*
X84833497Y65330263D01*
X84905043Y65359899D01*
X84974512Y65367367D01*
X85036991Y65336092D01*
X85072643Y65276003D01*
X85070149Y65206178D01*
X85055597Y65176446D01*
X84990609Y65079186D01*
X84990602Y65079173D01*
X84930264Y64933502D01*
X84930261Y64933490D01*
X84899500Y64778847D01*
X84899500Y64621154D01*
X84930261Y64466511D01*
X84930264Y64466499D01*
X84990602Y64320828D01*
X84990609Y64320815D01*
X85078210Y64189712D01*
X85078213Y64189708D01*
X85189707Y64078214D01*
X85189711Y64078211D01*
X85320814Y63990610D01*
X85320827Y63990603D01*
X85466498Y63930265D01*
X85466503Y63930263D01*
X85621153Y63899501D01*
X85621156Y63899500D01*
X85621158Y63899500D01*
X85778844Y63899500D01*
X85778845Y63899501D01*
X85933497Y63930263D01*
X86079179Y63990606D01*
X86210289Y64078211D01*
X86321789Y64189711D01*
X86409394Y64320821D01*
X86469737Y64466503D01*
X86500500Y64621158D01*
X86500500Y64778842D01*
X86500500Y64778845D01*
X86500499Y64778847D01*
X86494251Y64810256D01*
X86469737Y64933497D01*
X86469735Y64933502D01*
X86409397Y65079173D01*
X86409390Y65079186D01*
X86321789Y65210289D01*
X86321786Y65210293D01*
X86210292Y65321787D01*
X86210288Y65321790D01*
X86079185Y65409391D01*
X86079172Y65409398D01*
X85933501Y65469736D01*
X85933489Y65469739D01*
X85778845Y65500500D01*
X85778842Y65500500D01*
X85621158Y65500500D01*
X85621155Y65500500D01*
X85466510Y65469739D01*
X85466502Y65469737D01*
X85394955Y65440102D01*
X85325485Y65432635D01*
X85263007Y65463910D01*
X85227355Y65524000D01*
X85229850Y65593825D01*
X85244401Y65623554D01*
X85309394Y65720821D01*
X85369737Y65866503D01*
X85400500Y66021158D01*
X85400500Y66178842D01*
X85400500Y66178845D01*
X85400499Y66178847D01*
X85380734Y66278211D01*
X85369737Y66333497D01*
X85369735Y66333502D01*
X85309397Y66479173D01*
X85309390Y66479186D01*
X85221789Y66610289D01*
X85221786Y66610293D01*
X85110292Y66721787D01*
X85110288Y66721790D01*
X84979185Y66809391D01*
X84979172Y66809398D01*
X84833501Y66869736D01*
X84833489Y66869739D01*
X84678845Y66900500D01*
X84678842Y66900500D01*
X84521158Y66900500D01*
X84521155Y66900500D01*
X84366510Y66869739D01*
X84366498Y66869736D01*
X84220827Y66809398D01*
X84220814Y66809391D01*
X84089711Y66721790D01*
X84089706Y66721786D01*
X84036446Y66668526D01*
X83975123Y66635042D01*
X83905431Y66640027D01*
X83901354Y66641631D01*
X83833497Y66669737D01*
X83833490Y66669739D01*
X83833489Y66669739D01*
X83833488Y66669740D01*
X83678845Y66700500D01*
X83678842Y66700500D01*
X83521158Y66700500D01*
X83521155Y66700500D01*
X83366510Y66669739D01*
X83366498Y66669736D01*
X83220827Y66609398D01*
X83220814Y66609391D01*
X83168891Y66574696D01*
X83102214Y66553818D01*
X83034833Y66572302D01*
X83031109Y66574696D01*
X82979185Y66609391D01*
X82979172Y66609398D01*
X82833501Y66669736D01*
X82833489Y66669739D01*
X82678845Y66700500D01*
X82678842Y66700500D01*
X82521158Y66700500D01*
X82521155Y66700500D01*
X82366510Y66669739D01*
X82366498Y66669736D01*
X82220827Y66609398D01*
X82220814Y66609391D01*
X82168891Y66574696D01*
X82102214Y66553818D01*
X82034833Y66572302D01*
X82031109Y66574696D01*
X81979185Y66609391D01*
X81979172Y66609398D01*
X81833501Y66669736D01*
X81833489Y66669739D01*
X81678845Y66700500D01*
X81678842Y66700500D01*
X81521158Y66700500D01*
X81521155Y66700500D01*
X81366510Y66669739D01*
X81366498Y66669736D01*
X81220827Y66609398D01*
X81220814Y66609391D01*
X81089711Y66521790D01*
X81089707Y66521787D01*
X80978213Y66410293D01*
X80978210Y66410289D01*
X80890609Y66279186D01*
X80890602Y66279173D01*
X80830264Y66133502D01*
X80830261Y66133490D01*
X80799500Y65978847D01*
X71226378Y65978847D01*
X71233497Y65980263D01*
X71379179Y66040606D01*
X71510289Y66128211D01*
X71621789Y66239711D01*
X71709394Y66370821D01*
X71769737Y66516503D01*
X71800500Y66671158D01*
X71800500Y66828842D01*
X71800500Y66828845D01*
X71800499Y66828847D01*
X71779199Y66935927D01*
X71770662Y66978847D01*
X86599500Y66978847D01*
X86599500Y66821154D01*
X86630261Y66666511D01*
X86630264Y66666499D01*
X86690602Y66520828D01*
X86690609Y66520815D01*
X86778210Y66389712D01*
X86778213Y66389708D01*
X86889707Y66278214D01*
X86889711Y66278211D01*
X87020814Y66190610D01*
X87020827Y66190603D01*
X87152819Y66135931D01*
X87166503Y66130263D01*
X87321153Y66099501D01*
X87321156Y66099500D01*
X87321158Y66099500D01*
X87478844Y66099500D01*
X87478845Y66099501D01*
X87633497Y66130263D01*
X87779179Y66190606D01*
X87910289Y66278211D01*
X88021789Y66389711D01*
X88109394Y66520821D01*
X88169737Y66666503D01*
X88200500Y66821158D01*
X88200500Y66978842D01*
X88200500Y66978845D01*
X88200499Y66978847D01*
X88170596Y67129179D01*
X88169737Y67133497D01*
X88132171Y67224191D01*
X88109397Y67279173D01*
X88109390Y67279186D01*
X88021789Y67410289D01*
X88021786Y67410293D01*
X87910292Y67521787D01*
X87910288Y67521790D01*
X87779185Y67609391D01*
X87779172Y67609398D01*
X87633501Y67669736D01*
X87633489Y67669739D01*
X87478845Y67700500D01*
X87478842Y67700500D01*
X87321158Y67700500D01*
X87321155Y67700500D01*
X87166510Y67669739D01*
X87166498Y67669736D01*
X87020827Y67609398D01*
X87020814Y67609391D01*
X86889711Y67521790D01*
X86889707Y67521787D01*
X86778213Y67410293D01*
X86778210Y67410289D01*
X86690609Y67279186D01*
X86690602Y67279173D01*
X86630264Y67133502D01*
X86630261Y67133490D01*
X86599500Y66978847D01*
X71770662Y66978847D01*
X71769737Y66983497D01*
X71769735Y66983502D01*
X71709397Y67129173D01*
X71709390Y67129186D01*
X71621789Y67260289D01*
X71621786Y67260293D01*
X71510292Y67371787D01*
X71510288Y67371790D01*
X71379185Y67459391D01*
X71379172Y67459398D01*
X71233501Y67519736D01*
X71233489Y67519739D01*
X71078845Y67550500D01*
X71078842Y67550500D01*
X70921158Y67550500D01*
X70921155Y67550500D01*
X70766510Y67519739D01*
X70766498Y67519736D01*
X70620827Y67459398D01*
X70620814Y67459391D01*
X70489711Y67371790D01*
X70489707Y67371787D01*
X70378213Y67260293D01*
X70378210Y67260289D01*
X70290609Y67129186D01*
X70290602Y67129173D01*
X70230264Y66983502D01*
X70230261Y66983490D01*
X70199500Y66828847D01*
X66750500Y66828847D01*
X66750500Y69497296D01*
X66750618Y69502705D01*
X66755314Y69610256D01*
X66767387Y69886770D01*
X66768327Y69897504D01*
X66818153Y70275965D01*
X66820031Y70286613D01*
X66839805Y70375809D01*
X66842797Y70389307D01*
X68624500Y70389307D01*
X68624500Y70110694D01*
X68624501Y70110678D01*
X68660866Y69834457D01*
X68660867Y69834452D01*
X68660868Y69834446D01*
X68660869Y69834444D01*
X68732981Y69565315D01*
X68732984Y69565305D01*
X68839604Y69307902D01*
X68839609Y69307891D01*
X68978914Y69066610D01*
X68978925Y69066594D01*
X69148533Y68845555D01*
X69148539Y68845548D01*
X69345547Y68648540D01*
X69345553Y68648535D01*
X69566602Y68478919D01*
X69566609Y68478915D01*
X69807890Y68339610D01*
X69807895Y68339608D01*
X69807898Y68339606D01*
X70065314Y68232981D01*
X70334446Y68160868D01*
X70610687Y68124500D01*
X70610694Y68124500D01*
X70889306Y68124500D01*
X70889313Y68124500D01*
X71165554Y68160868D01*
X71434686Y68232981D01*
X71692102Y68339606D01*
X71933398Y68478919D01*
X72154447Y68648535D01*
X72351465Y68845553D01*
X72521081Y69066602D01*
X72660394Y69307898D01*
X72767019Y69565314D01*
X72839132Y69834446D01*
X72875500Y70110687D01*
X72875500Y70389313D01*
X72839132Y70665554D01*
X72767019Y70934686D01*
X72660394Y71192102D01*
X72660392Y71192105D01*
X72660390Y71192110D01*
X72613727Y71272932D01*
X72613726Y71272933D01*
X72610978Y71277693D01*
X72581444Y71328847D01*
X85449500Y71328847D01*
X85449500Y71171154D01*
X85480261Y71016511D01*
X85480264Y71016499D01*
X85540602Y70870828D01*
X85540609Y70870815D01*
X85628210Y70739712D01*
X85628213Y70739708D01*
X85739707Y70628214D01*
X85739711Y70628211D01*
X85870814Y70540610D01*
X85870827Y70540603D01*
X86016498Y70480265D01*
X86016503Y70480263D01*
X86171153Y70449501D01*
X86171156Y70449500D01*
X86171158Y70449500D01*
X86328844Y70449500D01*
X86328845Y70449501D01*
X86483497Y70480263D01*
X86617883Y70535927D01*
X86629172Y70540603D01*
X86629172Y70540604D01*
X86629179Y70540606D01*
X86760289Y70628211D01*
X86871789Y70739711D01*
X86959394Y70870821D01*
X87019737Y71016503D01*
X87050500Y71171158D01*
X87050500Y71328842D01*
X87050500Y71328845D01*
X87050499Y71328847D01*
X87029702Y71433398D01*
X87019737Y71483497D01*
X87012410Y71501187D01*
X86959397Y71629173D01*
X86959390Y71629186D01*
X86871789Y71760289D01*
X86871786Y71760293D01*
X86760292Y71871787D01*
X86760288Y71871790D01*
X86629185Y71959391D01*
X86629172Y71959398D01*
X86483501Y72019736D01*
X86483489Y72019739D01*
X86328845Y72050500D01*
X86328842Y72050500D01*
X86171158Y72050500D01*
X86171155Y72050500D01*
X86016510Y72019739D01*
X86016498Y72019736D01*
X85870827Y71959398D01*
X85870814Y71959391D01*
X85739711Y71871790D01*
X85739707Y71871787D01*
X85628213Y71760293D01*
X85628210Y71760289D01*
X85540609Y71629186D01*
X85540602Y71629173D01*
X85480264Y71483502D01*
X85480261Y71483490D01*
X85449500Y71328847D01*
X72581444Y71328847D01*
X72521081Y71433398D01*
X72401113Y71589744D01*
X72351466Y71654446D01*
X72351460Y71654453D01*
X72154452Y71851461D01*
X72154445Y71851467D01*
X71933406Y72021075D01*
X71933404Y72021077D01*
X71933398Y72021081D01*
X71933393Y72021084D01*
X71933390Y72021086D01*
X71692109Y72160391D01*
X71692098Y72160396D01*
X71434695Y72267016D01*
X71434688Y72267018D01*
X71434686Y72267019D01*
X71165554Y72339132D01*
X71165548Y72339133D01*
X71165543Y72339134D01*
X70889322Y72375499D01*
X70889319Y72375500D01*
X70889313Y72375500D01*
X70610687Y72375500D01*
X70610681Y72375500D01*
X70610677Y72375499D01*
X70334456Y72339134D01*
X70334449Y72339133D01*
X70334446Y72339132D01*
X70255703Y72318033D01*
X70065314Y72267019D01*
X70065304Y72267016D01*
X69807901Y72160396D01*
X69807890Y72160391D01*
X69566609Y72021086D01*
X69566593Y72021075D01*
X69345554Y71851467D01*
X69345547Y71851461D01*
X69148539Y71654453D01*
X69148533Y71654446D01*
X68978925Y71433407D01*
X68978914Y71433391D01*
X68839609Y71192110D01*
X68839604Y71192099D01*
X68732984Y70934696D01*
X68732981Y70934686D01*
X68680739Y70739712D01*
X68660869Y70665557D01*
X68660866Y70665544D01*
X68624501Y70389323D01*
X68624500Y70389307D01*
X66842797Y70389307D01*
X66902652Y70659296D01*
X66905439Y70669696D01*
X67020235Y71033783D01*
X67023919Y71043904D01*
X67170007Y71396590D01*
X67174565Y71406364D01*
X67350826Y71744957D01*
X67356221Y71754302D01*
X67561329Y72076260D01*
X67567519Y72085099D01*
X67799891Y72387932D01*
X67806841Y72396215D01*
X68064730Y72677653D01*
X68072357Y72685280D01*
X68353798Y72943175D01*
X68362062Y72950110D01*
X68664921Y73182504D01*
X68673760Y73188691D01*
X68995697Y73393789D01*
X69005038Y73399183D01*
X69343633Y73575447D01*
X69353424Y73580013D01*
X69706093Y73726095D01*
X69716229Y73729784D01*
X70080293Y73844576D01*
X70090731Y73847371D01*
X70463392Y73929991D01*
X70474028Y73931868D01*
X70852498Y73981696D01*
X70863232Y73982636D01*
X71225738Y73998466D01*
X71246731Y73999382D01*
X71252140Y73999500D01*
X71315896Y73999500D01*
X90026026Y73999500D01*
X90093065Y73979815D01*
G37*
%TD.AperFunction*%
%TD*%
M02*
