%TF.GenerationSoftware,KiCad,Pcbnew,9.0.4-9.0.4-0~ubuntu24.04.1*%
%TF.CreationDate,2025-08-23T01:51:13-04:00*%
%TF.ProjectId,tire_sensor_jlcpcb,74697265-5f73-4656-9e73-6f725f6a6c63,rev?*%
%TF.SameCoordinates,Original*%
%TF.FileFunction,Copper,L1,Top*%
%TF.FilePolarity,Positive*%
%FSLAX46Y46*%
G04 Gerber Fmt 4.6, Leading zero omitted, Abs format (unit mm)*
G04 Created by KiCad (PCBNEW 9.0.4-9.0.4-0~ubuntu24.04.1) date 2025-08-23 01:51:13*
%MOMM*%
%LPD*%
G01*
G04 APERTURE LIST*
G04 Aperture macros list*
%AMRoundRect*
0 Rectangle with rounded corners*
0 $1 Rounding radius*
0 $2 $3 $4 $5 $6 $7 $8 $9 X,Y pos of 4 corners*
0 Add a 4 corners polygon primitive as box body*
4,1,4,$2,$3,$4,$5,$6,$7,$8,$9,$2,$3,0*
0 Add four circle primitives for the rounded corners*
1,1,$1+$1,$2,$3*
1,1,$1+$1,$4,$5*
1,1,$1+$1,$6,$7*
1,1,$1+$1,$8,$9*
0 Add four rect primitives between the rounded corners*
20,1,$1+$1,$2,$3,$4,$5,0*
20,1,$1+$1,$4,$5,$6,$7,0*
20,1,$1+$1,$6,$7,$8,$9,0*
20,1,$1+$1,$8,$9,$2,$3,0*%
G04 Aperture macros list end*
%TA.AperFunction,EtchedComponent*%
%ADD10C,0.000000*%
%TD*%
%TA.AperFunction,SMDPad,CuDef*%
%ADD11RoundRect,0.087500X-0.087500X-0.225000X0.087500X-0.225000X0.087500X0.225000X-0.087500X0.225000X0*%
%TD*%
%TA.AperFunction,SMDPad,CuDef*%
%ADD12RoundRect,0.087500X-0.225000X-0.087500X0.225000X-0.087500X0.225000X0.087500X-0.225000X0.087500X0*%
%TD*%
%TA.AperFunction,SMDPad,CuDef*%
%ADD13RoundRect,0.140000X0.140000X0.170000X-0.140000X0.170000X-0.140000X-0.170000X0.140000X-0.170000X0*%
%TD*%
%TA.AperFunction,SMDPad,CuDef*%
%ADD14RoundRect,0.218750X0.256250X-0.218750X0.256250X0.218750X-0.256250X0.218750X-0.256250X-0.218750X0*%
%TD*%
%TA.AperFunction,SMDPad,CuDef*%
%ADD15RoundRect,0.140000X-0.140000X-0.170000X0.140000X-0.170000X0.140000X0.170000X-0.140000X0.170000X0*%
%TD*%
%TA.AperFunction,SMDPad,CuDef*%
%ADD16RoundRect,0.140000X0.170000X-0.140000X0.170000X0.140000X-0.170000X0.140000X-0.170000X-0.140000X0*%
%TD*%
%TA.AperFunction,ConnectorPad*%
%ADD17R,0.500000X0.500000*%
%TD*%
%TA.AperFunction,ComponentPad*%
%ADD18R,0.500000X0.900000*%
%TD*%
%TA.AperFunction,SMDPad,CuDef*%
%ADD19RoundRect,0.250000X0.475000X-0.250000X0.475000X0.250000X-0.475000X0.250000X-0.475000X-0.250000X0*%
%TD*%
%TA.AperFunction,SMDPad,CuDef*%
%ADD20RoundRect,0.140000X-0.170000X0.140000X-0.170000X-0.140000X0.170000X-0.140000X0.170000X0.140000X0*%
%TD*%
%TA.AperFunction,ConnectorPad*%
%ADD21C,0.787400*%
%TD*%
%TA.AperFunction,SMDPad,CuDef*%
%ADD22RoundRect,0.050000X-0.350000X-0.050000X0.350000X-0.050000X0.350000X0.050000X-0.350000X0.050000X0*%
%TD*%
%TA.AperFunction,SMDPad,CuDef*%
%ADD23RoundRect,0.050000X-0.050000X-0.350000X0.050000X-0.350000X0.050000X0.350000X-0.050000X0.350000X0*%
%TD*%
%TA.AperFunction,HeatsinkPad*%
%ADD24C,0.500000*%
%TD*%
%TA.AperFunction,HeatsinkPad*%
%ADD25R,4.600000X4.600000*%
%TD*%
%TA.AperFunction,SMDPad,CuDef*%
%ADD26RoundRect,0.225000X0.250000X-0.225000X0.250000X0.225000X-0.250000X0.225000X-0.250000X-0.225000X0*%
%TD*%
%TA.AperFunction,SMDPad,CuDef*%
%ADD27RoundRect,0.250000X0.650000X0.250000X-0.650000X0.250000X-0.650000X-0.250000X0.650000X-0.250000X0*%
%TD*%
%TA.AperFunction,SMDPad,CuDef*%
%ADD28RoundRect,0.250000X0.350000X-0.450000X0.350000X0.450000X-0.350000X0.450000X-0.350000X-0.450000X0*%
%TD*%
%TA.AperFunction,SMDPad,CuDef*%
%ADD29RoundRect,0.250000X0.425000X0.650000X-0.425000X0.650000X-0.425000X-0.650000X0.425000X-0.650000X0*%
%TD*%
%TA.AperFunction,SMDPad,CuDef*%
%ADD30R,0.350000X0.350000*%
%TD*%
%TA.AperFunction,ViaPad*%
%ADD31C,0.600000*%
%TD*%
%TA.AperFunction,ViaPad*%
%ADD32C,3.250000*%
%TD*%
%TA.AperFunction,Conductor*%
%ADD33C,0.150000*%
%TD*%
%TA.AperFunction,Conductor*%
%ADD34C,0.300000*%
%TD*%
%TA.AperFunction,Conductor*%
%ADD35C,0.400000*%
%TD*%
%TA.AperFunction,Conductor*%
%ADD36C,0.500000*%
%TD*%
G04 APERTURE END LIST*
D10*
%TA.AperFunction,EtchedComponent*%
%TO.C,AE1*%
G36*
X95900000Y69650000D02*
G01*
X93260000Y69650000D01*
X93260000Y67650000D01*
X95900000Y67650000D01*
X95900000Y64950000D01*
X93260000Y64950000D01*
X93260000Y62950000D01*
X95900000Y62950000D01*
X95900000Y57950000D01*
X90743215Y57950000D01*
X90500000Y57950000D01*
X90500000Y58374844D01*
X90603957Y58374844D01*
X90616065Y58332181D01*
X90620419Y58324269D01*
X90653203Y58286326D01*
X90695605Y58262258D01*
X90743215Y58252417D01*
X90791622Y58257153D01*
X90836416Y58276815D01*
X90873186Y58311755D01*
X90890092Y58344647D01*
X90897982Y58392733D01*
X90891408Y58442318D01*
X90871313Y58487628D01*
X90838643Y58522888D01*
X90806417Y58539782D01*
X90758158Y58548222D01*
X90708632Y58541691D01*
X90663447Y58521132D01*
X90628213Y58487489D01*
X90617600Y58468878D01*
X90604700Y58423363D01*
X90603957Y58374844D01*
X90500000Y58374844D01*
X90500000Y58850000D01*
X95400000Y58850000D01*
X95400000Y60250000D01*
X90500000Y60250000D01*
X90500000Y60750000D01*
X95400000Y60750000D01*
X95400000Y62450000D01*
X92760000Y62450000D01*
X92760000Y65450000D01*
X95400000Y65450000D01*
X95400000Y67150000D01*
X92760000Y67150000D01*
X92760000Y70150000D01*
X95400000Y70150000D01*
X95400000Y71850000D01*
X91460000Y71850000D01*
X91460000Y72350000D01*
X95900000Y72350000D01*
X95900000Y69650000D01*
G37*
%TD.AperFunction*%
%TD*%
D11*
%TO.P,U3,14,SDA*%
%TO.N,/SDI*%
X79595940Y54803185D03*
%TO.P,U3,13,SCL*%
%TO.N,/SCK*%
X80095940Y54803185D03*
%TO.P,U3,12,CS*%
%TO.N,/CS_LSM6DS3*%
X80595940Y54803185D03*
D12*
%TO.P,U3,11,NC*%
%TO.N,unconnected-(U3-NC-Pad11)*%
X81258440Y54640685D03*
%TO.P,U3,10,NC*%
%TO.N,unconnected-(U3-NC-Pad10)*%
X81258440Y54140685D03*
%TO.P,U3,9,INT2*%
%TO.N,unconnected-(U3-INT2-Pad9)*%
X81258440Y53640685D03*
%TO.P,U3,8,VDD*%
%TO.N,VDD_NRF*%
X81258440Y53140685D03*
D11*
%TO.P,U3,7,GND*%
%TO.N,GND*%
X80595940Y52978185D03*
%TO.P,U3,6,GND*%
X80095940Y52978185D03*
%TO.P,U3,5,VDDIO*%
%TO.N,VDD_NRF*%
X79595940Y52978185D03*
D12*
%TO.P,U3,4,INT1*%
%TO.N,/INT_LSM6DS3*%
X78933440Y53140685D03*
%TO.P,U3,3,SCX*%
%TO.N,GND*%
X78933440Y53640685D03*
%TO.P,U3,2,SDX*%
X78933440Y54140685D03*
%TO.P,U3,1,SDO/SA0*%
%TO.N,/SDO*%
X78933440Y54640685D03*
%TD*%
D13*
%TO.P,R2,2*%
%TO.N,/LED1*%
X81765940Y68240685D03*
%TO.P,R2,1*%
%TO.N,Net-(D2-K)*%
X82765940Y68240685D03*
%TD*%
%TO.P,R3,2*%
%TO.N,/LED2*%
X79965940Y68240685D03*
%TO.P,R3,1*%
%TO.N,Net-(D3-K)*%
X80965940Y68240685D03*
%TD*%
D14*
%TO.P,D5,2,A*%
%TO.N,VDD_NRF*%
X77368440Y70928185D03*
%TO.P,D5,1,K*%
%TO.N,Net-(D5-K)*%
X77368440Y69353185D03*
%TD*%
D15*
%TO.P,R5,2*%
%TO.N,/LED4*%
X77365940Y68240685D03*
%TO.P,R5,1*%
%TO.N,Net-(D5-K)*%
X76365940Y68240685D03*
%TD*%
D14*
%TO.P,D1,2,A*%
%TO.N,VDD_NRF*%
X83498440Y70928185D03*
%TO.P,D1,1,K*%
%TO.N,Net-(D1-K)*%
X83498440Y69353185D03*
%TD*%
%TO.P,D3,2,A*%
%TO.N,VDD_NRF*%
X80433440Y70928185D03*
%TO.P,D3,1,K*%
%TO.N,Net-(D3-K)*%
X80433440Y69353185D03*
%TD*%
D13*
%TO.P,R1,2*%
%TO.N,/LED0*%
X83565940Y68240685D03*
%TO.P,R1,1*%
%TO.N,Net-(D1-K)*%
X84565940Y68240685D03*
%TD*%
D14*
%TO.P,D4,2,A*%
%TO.N,VDD_NRF*%
X78900940Y70928185D03*
%TO.P,D4,1,K*%
%TO.N,Net-(D4-K)*%
X78900940Y69353185D03*
%TD*%
%TO.P,D2,2,A*%
%TO.N,VDD_NRF*%
X81965940Y70928185D03*
%TO.P,D2,1,K*%
%TO.N,Net-(D2-K)*%
X81965940Y69353185D03*
%TD*%
D15*
%TO.P,R4,2*%
%TO.N,/LED3*%
X79165940Y68240685D03*
%TO.P,R4,1*%
%TO.N,Net-(D4-K)*%
X78165940Y68240685D03*
%TD*%
D13*
%TO.P,C17,1*%
%TO.N,VDD_NRF*%
X79433440Y51890685D03*
%TO.P,C17,2*%
%TO.N,GND*%
X78433440Y51890685D03*
%TD*%
%TO.P,C16,1*%
%TO.N,VDD_NRF*%
X81433440Y51890685D03*
%TO.P,C16,2*%
%TO.N,GND*%
X80433440Y51890685D03*
%TD*%
D16*
%TO.P,C13,1*%
%TO.N,/P0.25*%
X82900000Y64600000D03*
%TO.P,C13,2*%
%TO.N,GND*%
X82900000Y65600000D03*
%TD*%
%TO.P,C18,1*%
%TO.N,VDD_NRF*%
X86433440Y52390685D03*
%TO.P,C18,2*%
%TO.N,GND*%
X86433440Y53390685D03*
%TD*%
D13*
%TO.P,C5,1*%
%TO.N,VDD_NRF*%
X77433440Y56890685D03*
%TO.P,C5,2*%
%TO.N,GND*%
X76433440Y56890685D03*
%TD*%
D16*
%TO.P,C19,1*%
%TO.N,VDD_NRF*%
X86433440Y54390685D03*
%TO.P,C19,2*%
%TO.N,GND*%
X86433440Y55390685D03*
%TD*%
D13*
%TO.P,R6,1*%
%TO.N,VDD_NRF*%
X75433440Y55890685D03*
%TO.P,R6,2*%
%TO.N,/BTN*%
X74433440Y55890685D03*
%TD*%
D15*
%TO.P,C2,1*%
%TO.N,/XC2*%
X85433440Y66890685D03*
%TO.P,C2,2*%
%TO.N,GND*%
X86433440Y66890685D03*
%TD*%
D17*
%TO.P,AE1,1,A*%
%TO.N,/RF*%
X90750000Y60500000D03*
D18*
%TO.P,AE1,2,Shield*%
%TO.N,GND*%
X90750000Y58400000D03*
%TD*%
D16*
%TO.P,C1,1*%
%TO.N,/XC1*%
X88183440Y63390685D03*
%TO.P,C1,2*%
%TO.N,GND*%
X88183440Y64390685D03*
%TD*%
D19*
%TO.P,C15,1*%
%TO.N,VDD_NRF*%
X70250000Y60800000D03*
%TO.P,C15,2*%
%TO.N,GND*%
X70250000Y62700000D03*
%TD*%
D15*
%TO.P,L1,1*%
%TO.N,Net-(U1-ANT)*%
X85700000Y60500000D03*
%TO.P,L1,2*%
%TO.N,/RF*%
X86700000Y60500000D03*
%TD*%
D20*
%TO.P,C12,1*%
%TO.N,GND*%
X73950000Y61890685D03*
%TO.P,C12,2*%
%TO.N,/P0.01{slash}XL2*%
X73950000Y60890685D03*
%TD*%
%TO.P,C11,1*%
%TO.N,GND*%
X75500000Y65640685D03*
%TO.P,C11,2*%
%TO.N,/P0.00{slash}XL1*%
X75500000Y64640685D03*
%TD*%
D21*
%TO.P,J1,1,VCC*%
%TO.N,VDD_NRF*%
X94398026Y54398025D03*
%TO.P,J1,2,SWDIO*%
%TO.N,/SWDIO*%
X95296051Y53500000D03*
%TO.P,J1,3,~{RESET}*%
%TO.N,/nRESET*%
X93500000Y53500000D03*
%TO.P,J1,4,SWCLK*%
%TO.N,/SWCLK*%
X94398026Y52601974D03*
%TO.P,J1,5,GND*%
%TO.N,GND*%
X92601975Y52601974D03*
%TO.P,J1,6,SWO*%
%TO.N,unconnected-(J1-SWO-Pad6)*%
X93500000Y51703949D03*
%TD*%
D22*
%TO.P,U1,1,DEC1*%
%TO.N,/DEC1*%
X77580000Y62800000D03*
%TO.P,U1,2,P0.00/XL1*%
%TO.N,/P0.00{slash}XL1*%
X77580000Y62400000D03*
%TO.P,U1,3,P0.01/XL2*%
%TO.N,/P0.01{slash}XL2*%
X77580000Y62000000D03*
%TO.P,U1,4,P0.02/AIN0*%
%TO.N,unconnected-(U1-P0.02{slash}AIN0-Pad4)*%
X77580000Y61600000D03*
%TO.P,U1,5,P0.03/AIN1*%
%TO.N,unconnected-(U1-P0.03{slash}AIN1-Pad5)*%
X77580000Y61200000D03*
%TO.P,U1,6,P0.04/AIN2*%
%TO.N,unconnected-(U1-P0.04{slash}AIN2-Pad6)*%
X77580000Y60800000D03*
%TO.P,U1,7,P0.05/AIN3*%
%TO.N,unconnected-(U1-P0.05{slash}AIN3-Pad7)*%
X77580000Y60400000D03*
%TO.P,U1,8,P0.06*%
%TO.N,unconnected-(U1-P0.06-Pad8)*%
X77580000Y60000000D03*
%TO.P,U1,9,P0.07*%
%TO.N,unconnected-(U1-P0.07-Pad9)*%
X77580000Y59600000D03*
%TO.P,U1,10,P0.08*%
%TO.N,unconnected-(U1-P0.08-Pad10)*%
X77580000Y59200000D03*
%TO.P,U1,11,P0.09*%
%TO.N,unconnected-(U1-P0.09-Pad11)*%
X77580000Y58800000D03*
%TO.P,U1,12,P0.10*%
%TO.N,/BTN*%
X77580000Y58400000D03*
D23*
%TO.P,U1,13,VDD*%
%TO.N,VDD_NRF*%
X78330000Y57650000D03*
%TO.P,U1,14,P0.11*%
%TO.N,/INT_LSM6DS3*%
X78730000Y57650000D03*
%TO.P,U1,15,P0.12*%
%TO.N,unconnected-(U1-P0.12-Pad15)*%
X79130000Y57650000D03*
%TO.P,U1,16,P0.13*%
%TO.N,/SDO*%
X79530000Y57650000D03*
%TO.P,U1,17,P0.14*%
%TO.N,/SDI*%
X79930000Y57650000D03*
%TO.P,U1,18,P0.15*%
%TO.N,unconnected-(U1-P0.15-Pad18)*%
X80330000Y57650000D03*
%TO.P,U1,19,P0.16*%
%TO.N,unconnected-(U1-P0.16-Pad19)*%
X80730000Y57650000D03*
%TO.P,U1,20,P0.17*%
%TO.N,/SCK*%
X81130000Y57650000D03*
%TO.P,U1,21,P0.18*%
%TO.N,unconnected-(U1-P0.18-Pad21)*%
X81530000Y57650000D03*
%TO.P,U1,22,P0.19*%
%TO.N,/CS_LSM6DS3*%
X81930000Y57650000D03*
%TO.P,U1,23,P0.20*%
%TO.N,/CS_DPS368*%
X82330000Y57650000D03*
%TO.P,U1,24,P0.21/RESET*%
%TO.N,/nRESET*%
X82730000Y57650000D03*
D22*
%TO.P,U1,25,SWDCLK*%
%TO.N,/SWCLK*%
X83480000Y58400000D03*
%TO.P,U1,26,SWDIO*%
%TO.N,/SWDIO*%
X83480000Y58800000D03*
%TO.P,U1,27,P0.22*%
%TO.N,unconnected-(U1-P0.22-Pad27)*%
X83480000Y59200000D03*
%TO.P,U1,28,P0.23*%
%TO.N,unconnected-(U1-P0.23-Pad28)*%
X83480000Y59600000D03*
%TO.P,U1,29,P0.24*%
%TO.N,unconnected-(U1-P0.24-Pad29)*%
X83480000Y60000000D03*
%TO.P,U1,30,ANT*%
%TO.N,Net-(U1-ANT)*%
X83480000Y60400000D03*
%TO.P,U1,31,VSS*%
%TO.N,GND*%
X83480000Y60800000D03*
%TO.P,U1,32,DEC2*%
%TO.N,/DEC2*%
X83480000Y61200000D03*
%TO.P,U1,33,DEC3*%
%TO.N,/DEC3*%
X83480000Y61600000D03*
%TO.P,U1,34,XC1*%
%TO.N,/XC1*%
X83480000Y62000000D03*
%TO.P,U1,35,XC2*%
%TO.N,/XC2*%
X83480000Y62400000D03*
%TO.P,U1,36,VDD*%
%TO.N,VDD_NRF*%
X83480000Y62800000D03*
D23*
%TO.P,U1,37,P0.25*%
%TO.N,/P0.25*%
X82730000Y63550000D03*
%TO.P,U1,38,P0.26*%
%TO.N,Net-(U1-P0.26)*%
X82330000Y63550000D03*
%TO.P,U1,39,P0.27*%
%TO.N,unconnected-(U1-P0.27-Pad39)*%
X81930000Y63550000D03*
%TO.P,U1,40,P0.28/AIN4*%
%TO.N,/LED0*%
X81530000Y63550000D03*
%TO.P,U1,41,P0.29/AIN5*%
%TO.N,/LED1*%
X81130000Y63550000D03*
%TO.P,U1,42,P0.30/AIN6*%
%TO.N,/LED2*%
X80730000Y63550000D03*
%TO.P,U1,43,P0.31/AIN7*%
%TO.N,/LED3*%
X80330000Y63550000D03*
%TO.P,U1,44,N.C.*%
%TO.N,/LED4*%
X79930000Y63550000D03*
%TO.P,U1,45,VSS*%
%TO.N,GND*%
X79530000Y63550000D03*
%TO.P,U1,46,DEC4*%
%TO.N,/DEC4*%
X79130000Y63550000D03*
%TO.P,U1,47,DCC*%
%TO.N,unconnected-(U1-DCC-Pad47)*%
X78730000Y63550000D03*
%TO.P,U1,48,VDD*%
%TO.N,VDD_NRF*%
X78330000Y63550000D03*
D24*
%TO.P,U1,49,GND*%
%TO.N,GND*%
X78730000Y62400000D03*
X78730000Y61200000D03*
X78730000Y60000000D03*
X78730000Y58800000D03*
X79930000Y62400000D03*
X79930000Y61200000D03*
X79930000Y60000000D03*
X79930000Y58800000D03*
D25*
X80530000Y60600000D03*
D24*
X81130000Y62400000D03*
X81130000Y61200000D03*
X81130000Y60000000D03*
X81130000Y58800000D03*
X82330000Y62400000D03*
X82330000Y61200000D03*
X82330000Y60000000D03*
X82330000Y58800000D03*
%TD*%
D26*
%TO.P,C10,1*%
%TO.N,/DEC4*%
X78600000Y64820000D03*
%TO.P,C10,2*%
%TO.N,GND*%
X78600000Y66380000D03*
%TD*%
D16*
%TO.P,C3,1*%
%TO.N,Net-(U1-ANT)*%
X84683440Y60390685D03*
%TO.P,C3,2*%
%TO.N,GND*%
X84683440Y61390685D03*
%TD*%
%TO.P,C14,1*%
%TO.N,Net-(U1-P0.26)*%
X82100000Y64600000D03*
%TO.P,C14,2*%
%TO.N,GND*%
X82100000Y65600000D03*
%TD*%
D27*
%TO.P,X2,1,1*%
%TO.N,/P0.01{slash}XL2*%
X75433440Y60890685D03*
%TO.P,X2,2,2*%
%TO.N,/P0.00{slash}XL1*%
X75433440Y63390685D03*
%TD*%
D15*
%TO.P,C7,1*%
%TO.N,/DEC3*%
X85683440Y61390685D03*
%TO.P,C7,2*%
%TO.N,GND*%
X86683440Y61390685D03*
%TD*%
D28*
%TO.P,X1,1,OSC*%
%TO.N,/XC1*%
X87033440Y63290685D03*
%TO.P,X1,2,GND*%
%TO.N,GND*%
X87033440Y65490685D03*
%TO.P,X1,3,OSC*%
%TO.N,/XC2*%
X85333440Y65490685D03*
%TO.P,X1,4,GND*%
%TO.N,GND*%
X85333440Y63290685D03*
%TD*%
D16*
%TO.P,C8,1*%
%TO.N,VDD_NRF*%
X83800000Y64400000D03*
%TO.P,C8,2*%
%TO.N,GND*%
X83800000Y65400000D03*
%TD*%
D26*
%TO.P,C9,1*%
%TO.N,VDD_NRF*%
X77300000Y64520000D03*
%TO.P,C9,2*%
%TO.N,GND*%
X77300000Y66080000D03*
%TD*%
D29*
%TO.P,S1,1,A*%
%TO.N,/BTN*%
X74508440Y58140685D03*
%TO.P,S1,2,B*%
%TO.N,GND*%
X70358440Y58140685D03*
%TD*%
D30*
%TO.P,U2,1,GND_1*%
%TO.N,GND*%
X83433440Y52690685D03*
%TO.P,U2,2,CSB_N*%
%TO.N,/CS_DPS368*%
X83433440Y53340685D03*
%TO.P,U2,3,SDI*%
%TO.N,/SDI*%
X83433440Y53990685D03*
%TO.P,U2,4,SCK*%
%TO.N,/SCK*%
X83433440Y54640685D03*
%TO.P,U2,5,SDO*%
%TO.N,/SDO*%
X84883440Y54640685D03*
%TO.P,U2,6,VDDIO*%
%TO.N,VDD_NRF*%
X84883440Y53990685D03*
%TO.P,U2,7,GND_2*%
%TO.N,GND*%
X84883440Y53340685D03*
%TO.P,U2,8,VDD*%
%TO.N,VDD_NRF*%
X84883440Y52690685D03*
%TD*%
D16*
%TO.P,C4,1*%
%TO.N,/DEC1*%
X76300000Y64640685D03*
%TO.P,C4,2*%
%TO.N,GND*%
X76300000Y65640685D03*
%TD*%
D31*
%TO.N,GND*%
X80095940Y53890685D03*
%TO.N,VDD_NRF*%
X75433440Y55890685D03*
%TO.N,GND*%
X90933440Y53390685D03*
%TO.N,/nRESET*%
X90937557Y54962557D03*
%TO.N,VDD_NRF*%
X86433440Y52390685D03*
X86433440Y54390685D03*
X81433440Y51890685D03*
X79433440Y51890685D03*
X77368440Y70928185D03*
%TO.N,GND*%
X78433440Y51890685D03*
X80433440Y51890685D03*
%TO.N,/SDO*%
X84183440Y54640685D03*
X79405000Y56390685D03*
%TO.N,/CS_LSM6DS3*%
X81535446Y55960002D03*
X82933440Y56365685D03*
%TO.N,/CS_DPS368*%
X84183440Y53890685D03*
X83450683Y56908791D03*
%TO.N,/SDI*%
X80433440Y56415685D03*
%TO.N,VDD_NRF*%
X83800000Y64400000D03*
X70250000Y60750000D03*
X68050000Y61750000D03*
X93600000Y55100000D03*
X77300000Y64500000D03*
X77433440Y56890685D03*
%TO.N,GND*%
X86933440Y59640685D03*
X83800000Y65400000D03*
X88700000Y68000000D03*
X94433440Y56890685D03*
X90683440Y71140685D03*
X97450000Y56150000D03*
X70358440Y58140685D03*
X84158440Y53090685D03*
X90683440Y64390685D03*
X89183440Y59640685D03*
X85433440Y59640685D03*
X92183440Y56890685D03*
X90683440Y61390685D03*
X90683440Y62140685D03*
X83400000Y67000000D03*
X97433440Y56890685D03*
X96683440Y56890685D03*
X95183440Y56890685D03*
X88433440Y59640685D03*
X90683440Y63640685D03*
X86433440Y66890685D03*
D32*
X70750000Y70250000D03*
D31*
X87933440Y51390685D03*
X90683440Y66640685D03*
X86433440Y53390685D03*
X77300000Y66080000D03*
X85333440Y63290685D03*
X89933440Y61390685D03*
X87683440Y59640685D03*
X95933440Y56890685D03*
X82900000Y65600000D03*
X90683440Y72640685D03*
X90683440Y71890685D03*
X89000000Y62500000D03*
X73683440Y71640685D03*
X73933440Y51640685D03*
X87033440Y65490685D03*
X92933440Y56890685D03*
X78600000Y66300000D03*
X97433440Y51890685D03*
X98183440Y56890685D03*
X90683440Y65890685D03*
X86433440Y55390685D03*
X67683440Y68140685D03*
X76433440Y56890685D03*
X87000000Y71800000D03*
X88433440Y61390685D03*
X90683440Y59390685D03*
X82100000Y65600000D03*
X73950000Y61890685D03*
X67433440Y54140685D03*
X84683440Y61365685D03*
X87433440Y56140685D03*
X71000000Y66750000D03*
X89933440Y59640685D03*
X90743215Y57390685D03*
X87683440Y61390685D03*
X90683440Y73390685D03*
X90683440Y68890685D03*
X91433440Y56890685D03*
X90683440Y69640685D03*
X88183440Y64390685D03*
X90683440Y67390685D03*
X76300000Y65640685D03*
X89183440Y61390685D03*
X90683440Y70390685D03*
X86183440Y59640685D03*
X90683440Y65140685D03*
X90683440Y62890685D03*
X93683440Y56890685D03*
D32*
X70750000Y52750000D03*
D31*
X90683440Y68140685D03*
X75500000Y65640685D03*
X84683440Y59640685D03*
X86680000Y61400000D03*
X70250000Y62750000D03*
%TO.N,/nRESET*%
X92037443Y54962557D03*
%TO.N,/SDI*%
X82312208Y55269453D03*
%TD*%
D33*
%TO.N,GND*%
X84883440Y53340685D02*
X85133440Y53340685D01*
X85133440Y53340685D02*
X85183440Y53390685D01*
X85183440Y53390685D02*
X86433440Y53390685D01*
X80095940Y52978185D02*
X80095940Y52228185D01*
X80095940Y52228185D02*
X80433440Y51890685D01*
X80595940Y52978185D02*
X80595940Y52053185D01*
X80595940Y52053185D02*
X80433440Y51890685D01*
X80595940Y52978185D02*
X80595940Y53390685D01*
X80595940Y53390685D02*
X80095940Y53890685D01*
X80095940Y52978185D02*
X80095940Y53890685D01*
X78933440Y53640685D02*
X79845940Y53640685D01*
X79845940Y53640685D02*
X80095940Y53890685D01*
X78933440Y54140685D02*
X79845940Y54140685D01*
X79845940Y54140685D02*
X80095940Y53890685D01*
X90933440Y53390685D02*
X91813264Y53390685D01*
X91813264Y53390685D02*
X92601975Y52601974D01*
%TO.N,/SDI*%
X83433440Y53990685D02*
X83333440Y53990685D01*
X83333440Y53990685D02*
X82312208Y55011917D01*
X82312208Y55011917D02*
X82312208Y55269453D01*
D34*
%TO.N,VDD_NRF*%
X84883440Y52690685D02*
X85183440Y52390685D01*
X85183440Y52390685D02*
X86433440Y52390685D01*
X84883440Y53990685D02*
X86033440Y53990685D01*
X86033440Y53990685D02*
X86433440Y54390685D01*
X81433440Y51890685D02*
X81433440Y52965685D01*
X81433440Y52965685D02*
X81258440Y53140685D01*
X79433440Y51890685D02*
X79595940Y52053185D01*
X79595940Y52053185D02*
X79595940Y52978185D01*
D33*
%TO.N,/LED0*%
X81530000Y63550000D02*
X81530000Y66737245D01*
X81530000Y66737245D02*
X82497440Y67704685D01*
X82497440Y67704685D02*
X83339939Y67704685D01*
X83339939Y67704685D02*
X83565940Y67930686D01*
X83565940Y67930686D02*
X83565940Y68240685D01*
%TO.N,/LED1*%
X81130000Y63550000D02*
X81130000Y66837245D01*
X81130000Y66837245D02*
X81765940Y67473185D01*
X81765940Y67473185D02*
X81765940Y68240685D01*
%TO.N,/LED4*%
X77365940Y68240685D02*
X77365940Y67930686D01*
X77365940Y67930686D02*
X77655941Y67640685D01*
X77655941Y67640685D02*
X79183440Y67640685D01*
X79183440Y67640685D02*
X79930000Y66894125D01*
X79930000Y66894125D02*
X79930000Y63550000D01*
%TO.N,/LED3*%
X79165940Y68240685D02*
X79165940Y68158185D01*
X79165940Y68158185D02*
X80330000Y66994125D01*
X80330000Y66994125D02*
X80330000Y63550000D01*
%TO.N,/LED2*%
X79965940Y68240685D02*
X80730000Y67476625D01*
X80730000Y67476625D02*
X80730000Y63550000D01*
D35*
%TO.N,VDD_NRF*%
X77368440Y70928185D02*
X83498440Y70928185D01*
D33*
%TO.N,Net-(D1-K)*%
X84565940Y68285685D02*
X83498440Y69353185D01*
X84565940Y68240685D02*
X84565940Y68285685D01*
%TO.N,Net-(D2-K)*%
X82765940Y68240685D02*
X82765940Y68553185D01*
X82765940Y68553185D02*
X81965940Y69353185D01*
%TO.N,Net-(D3-K)*%
X80965940Y68820685D02*
X80433440Y69353185D01*
X80965940Y68240685D02*
X80965940Y68820685D01*
%TO.N,Net-(D4-K)*%
X78165940Y68618185D02*
X78900940Y69353185D01*
X78165940Y68240685D02*
X78165940Y68618185D01*
%TO.N,Net-(D5-K)*%
X76365940Y68350685D02*
X77368440Y69353185D01*
X76365940Y68240685D02*
X76365940Y68350685D01*
%TO.N,/CS_LSM6DS3*%
X80595940Y54803185D02*
X80595940Y55020496D01*
X80595940Y55020496D02*
X81535446Y55960002D01*
%TO.N,/SDO*%
X79405000Y56390685D02*
X79530000Y56515685D01*
X79530000Y56515685D02*
X79530000Y57650000D01*
X79172916Y56901209D02*
X79530000Y57258292D01*
X84183440Y54640685D02*
X84883440Y54640685D01*
X78933440Y54640685D02*
X78933440Y56661732D01*
X78933440Y56661732D02*
X79172916Y56901209D01*
X79530000Y57258292D02*
X79530000Y57650000D01*
%TO.N,/CS_DPS368*%
X82677317Y56890685D02*
X82330000Y57238002D01*
X83450683Y56908791D02*
X83432577Y56890685D01*
X83432577Y56890685D02*
X82677317Y56890685D01*
X82330000Y57238002D02*
X82330000Y57650000D01*
%TO.N,/CS_LSM6DS3*%
X82776639Y56365685D02*
X81930000Y57212324D01*
X81930000Y57212324D02*
X81930000Y57650000D01*
X82933440Y56365685D02*
X82776639Y56365685D01*
%TO.N,/SDI*%
X80433440Y56415685D02*
X79930000Y56919125D01*
X79930000Y56919125D02*
X79930000Y57650000D01*
%TO.N,/SCK*%
X81130000Y57650000D02*
X81130000Y56293527D01*
X81130000Y56293527D02*
X80095940Y55259467D01*
X80095940Y55259467D02*
X80095940Y54803185D01*
%TO.N,/SDI*%
X79930000Y57144125D02*
X79930000Y56890685D01*
%TO.N,/SCK*%
X83433440Y54640685D02*
X83433440Y54890685D01*
X83433440Y54890685D02*
X81130000Y57194125D01*
X81130000Y57194125D02*
X81130000Y57650000D01*
%TO.N,/CS_DPS368*%
X84183440Y53890685D02*
X83633440Y53340685D01*
X83633440Y53340685D02*
X83433440Y53340685D01*
%TO.N,/INT_LSM6DS3*%
X78730000Y57650000D02*
X78730000Y57230794D01*
X78730000Y57230794D02*
X78394940Y56895734D01*
X78394940Y56895734D02*
X78394940Y53420903D01*
X78394940Y53420903D02*
X78675158Y53140685D01*
X78675158Y53140685D02*
X78933440Y53140685D01*
%TO.N,/SDI*%
X79930000Y56890685D02*
X79930000Y55640685D01*
X79930000Y55640685D02*
X79595940Y55306625D01*
X79595940Y55306625D02*
X79595940Y54803185D01*
X79930000Y57650000D02*
X79930000Y57144125D01*
D34*
%TO.N,VDD_NRF*%
X78330000Y57650000D02*
X78192755Y57650000D01*
X78192755Y57650000D02*
X77433440Y56890685D01*
D33*
%TO.N,GND*%
X84233440Y53090685D02*
X84483440Y53340685D01*
X84158440Y53090685D02*
X84233440Y53090685D01*
X84158440Y53090685D02*
X83758440Y52690685D01*
X84483440Y53340685D02*
X84883440Y53340685D01*
X83758440Y52690685D02*
X83433440Y52690685D01*
D34*
%TO.N,VDD_NRF*%
X77300000Y64500000D02*
X77380000Y64500000D01*
X77380000Y64500000D02*
X78330000Y63550000D01*
X83480000Y62800000D02*
X83480000Y64080000D01*
D35*
X93546051Y55250000D02*
X94398026Y54398025D01*
D33*
X93562126Y55100000D02*
X93546051Y55116075D01*
D34*
X83480000Y64080000D02*
X83800000Y64400000D01*
D33*
X93546051Y55116075D02*
X93546051Y55250000D01*
X93600000Y55100000D02*
X93562126Y55100000D01*
%TO.N,GND*%
X84117755Y60800000D02*
X84683440Y61365685D01*
X79530000Y63550000D02*
X79530000Y65450000D01*
X79530000Y65450000D02*
X78600000Y66380000D01*
X84683440Y61365685D02*
X84683440Y61390685D01*
X83480000Y60800000D02*
X84117755Y60800000D01*
%TO.N,/XC1*%
X84035595Y62000000D02*
X84400280Y62364685D01*
X88333440Y63290685D02*
X88433440Y63390685D01*
X83480000Y62000000D02*
X84035595Y62000000D01*
X87033440Y63290685D02*
X88333440Y63290685D01*
X86107440Y62364685D02*
X87033440Y63290685D01*
X84400280Y62364685D02*
X86107440Y62364685D01*
%TO.N,/XC2*%
X84176000Y62704292D02*
X84176000Y63633245D01*
X84176000Y63633245D02*
X85333440Y64790685D01*
X83871708Y62400000D02*
X84176000Y62704292D01*
X85333440Y64790685D02*
X85333440Y65490685D01*
X85333440Y66790685D02*
X85433440Y66890685D01*
X85333440Y65490685D02*
X85333440Y66790685D01*
X83480000Y62400000D02*
X83871708Y62400000D01*
%TO.N,Net-(U1-ANT)*%
X85600000Y60400000D02*
X85700000Y60500000D01*
X83480000Y60400000D02*
X85600000Y60400000D01*
%TO.N,/DEC1*%
X77530000Y62750000D02*
X77580000Y62800000D01*
X76559440Y64381245D02*
X76559440Y63820560D01*
X76300000Y64640685D02*
X76559440Y64381245D01*
X76300000Y64740685D02*
X76300000Y64420685D01*
X76559440Y63820560D02*
X77580000Y62800000D01*
%TO.N,/DEC3*%
X84061273Y61600000D02*
X84357958Y61896685D01*
X85177440Y61896685D02*
X85683440Y61390685D01*
X84357958Y61896685D02*
X85177440Y61896685D01*
X83480000Y61600000D02*
X84061273Y61600000D01*
%TO.N,/DEC4*%
X79130000Y64290000D02*
X79130000Y63550000D01*
X78600000Y64820000D02*
X79130000Y64290000D01*
%TO.N,/P0.00{slash}XL1*%
X76424125Y62400000D02*
X75433440Y63390685D01*
X77580000Y62400000D02*
X76424125Y62400000D01*
X75500000Y64490685D02*
X75500000Y63340685D01*
%TO.N,/P0.01{slash}XL2*%
X76292755Y62000000D02*
X75433440Y61140685D01*
X77580000Y62000000D02*
X76292755Y62000000D01*
X73950000Y60890685D02*
X75433440Y60890685D01*
X75433440Y61140685D02*
X75433440Y60890685D01*
%TO.N,/P0.25*%
X82730000Y63550000D02*
X82730000Y64430000D01*
X82730000Y64430000D02*
X82900000Y64600000D01*
%TO.N,Net-(U1-P0.26)*%
X82330000Y63550000D02*
X82330000Y64370000D01*
X82330000Y64370000D02*
X82100000Y64600000D01*
%TO.N,/nRESET*%
X92037443Y54962557D02*
X93500000Y53500000D01*
%TO.N,/SWDIO*%
X94419662Y53500000D02*
X95296051Y53500000D01*
X88268255Y58800000D02*
X91568255Y55500000D01*
X92419662Y55500000D02*
X94419662Y53500000D01*
X83480000Y58800000D02*
X88268255Y58800000D01*
X91568255Y55500000D02*
X92419662Y55500000D01*
D34*
%TO.N,/RF*%
X90300000Y60500000D02*
X88322500Y60500000D01*
D36*
X90750000Y60500000D02*
X90300000Y60500000D01*
D34*
X86630000Y60500000D02*
X88322500Y60500000D01*
D33*
%TO.N,/BTN*%
X74433440Y55890685D02*
X74433440Y58065685D01*
X74767755Y58400000D02*
X74508440Y58140685D01*
X77580000Y58400000D02*
X74767755Y58400000D01*
X74433440Y58065685D02*
X74508440Y58140685D01*
%TO.N,/SWCLK*%
X83480000Y58400000D02*
X88242578Y58400000D01*
X88242578Y58400000D02*
X91500000Y55142578D01*
X91500000Y54623611D02*
X93521637Y52601974D01*
X91500000Y55142578D02*
X91500000Y54623611D01*
X93521637Y52601974D02*
X94398026Y52601974D01*
%TO.N,/nRESET*%
X82730000Y57650000D02*
X83080000Y58000000D01*
X83080000Y58000000D02*
X88216900Y58000000D01*
X88216900Y58000000D02*
X90937557Y55279343D01*
X90937557Y55279343D02*
X90937557Y54962557D01*
%TD*%
%TA.AperFunction,Conductor*%
%TO.N,GND*%
G36*
X90943039Y73979815D02*
G01*
X90988794Y73927011D01*
X91000000Y73875500D01*
X91000000Y61374500D01*
X90980315Y61307461D01*
X90927511Y61261706D01*
X90876000Y61250500D01*
X90226080Y61250500D01*
X90081092Y61221660D01*
X90081086Y61221658D01*
X89988948Y61183493D01*
X89955500Y61169638D01*
X89938878Y61162753D01*
X89938520Y61163615D01*
X89886160Y61150500D01*
X87341440Y61150500D01*
X87274401Y61170185D01*
X87228646Y61222989D01*
X87220447Y61260677D01*
X87217440Y61263685D01*
X87109943Y61263685D01*
X87075348Y61268609D01*
X87054696Y61274609D01*
X86995810Y61312215D01*
X86966604Y61375688D01*
X86976350Y61444874D01*
X87021954Y61497809D01*
X87088937Y61517684D01*
X87089291Y61517685D01*
X87217439Y61517685D01*
X87217439Y61591691D01*
X87202826Y61683957D01*
X87146164Y61795160D01*
X87146161Y61795165D01*
X87062821Y61878505D01*
X87029336Y61939828D01*
X87034320Y62009520D01*
X87076192Y62065453D01*
X87141656Y62089870D01*
X87150502Y62090186D01*
X87433442Y62090186D01*
X87433448Y62090186D01*
X87536237Y62100686D01*
X87702774Y62155871D01*
X87852096Y62247973D01*
X87976152Y62372029D01*
X88068254Y62521351D01*
X88069527Y62525192D01*
X88071113Y62527484D01*
X88071306Y62527896D01*
X88071376Y62527864D01*
X88109301Y62582636D01*
X88173818Y62609457D01*
X88187232Y62610185D01*
X88418122Y62610185D01*
X88418130Y62610185D01*
X88454433Y62613042D01*
X88454435Y62613043D01*
X88454437Y62613043D01*
X88495415Y62624949D01*
X88609835Y62658191D01*
X88749127Y62740568D01*
X88863557Y62854998D01*
X88945934Y62994290D01*
X88991083Y63149692D01*
X88993940Y63185995D01*
X88993940Y63242613D01*
X88998165Y63274706D01*
X89008940Y63314918D01*
X89008940Y63466451D01*
X88998165Y63506666D01*
X88993940Y63538758D01*
X88993940Y63595368D01*
X88993939Y63595383D01*
X88991083Y63631677D01*
X88991082Y63631683D01*
X88945935Y63787076D01*
X88945934Y63787079D01*
X88945934Y63787080D01*
X88863557Y63926372D01*
X88863555Y63926374D01*
X88863552Y63926378D01*
X88767889Y64022041D01*
X88734404Y64083364D01*
X88733097Y64129121D01*
X88747440Y64219674D01*
X88747440Y64263685D01*
X88307440Y64263685D01*
X88298754Y64266236D01*
X88289793Y64264947D01*
X88265752Y64275926D01*
X88240401Y64283370D01*
X88234473Y64290211D01*
X88226237Y64293972D01*
X88211947Y64316207D01*
X88194646Y64336174D01*
X88192358Y64346689D01*
X88188463Y64352750D01*
X88183440Y64387685D01*
X88183440Y64390685D01*
X88180440Y64390685D01*
X88113401Y64410370D01*
X88067646Y64463174D01*
X88056440Y64514685D01*
X88056440Y64517685D01*
X88310440Y64517685D01*
X88747439Y64517685D01*
X88747439Y64561691D01*
X88732826Y64653957D01*
X88676164Y64765160D01*
X88676161Y64765165D01*
X88587919Y64853407D01*
X88587915Y64853410D01*
X88476705Y64910074D01*
X88384452Y64924685D01*
X88310440Y64924685D01*
X88310440Y64517685D01*
X88056440Y64517685D01*
X88056440Y64924685D01*
X88056439Y64924686D01*
X88011441Y64924685D01*
X87944402Y64944369D01*
X87898646Y64997172D01*
X87887440Y65048685D01*
X87887440Y65363685D01*
X87883139Y65367986D01*
X87865752Y65375926D01*
X87840401Y65383370D01*
X87834473Y65390211D01*
X87826237Y65393972D01*
X87811947Y65416207D01*
X87794646Y65436174D01*
X87792358Y65446689D01*
X87788463Y65452750D01*
X87783440Y65487685D01*
X87783440Y65493685D01*
X87803125Y65560724D01*
X87855929Y65606479D01*
X87881878Y65612125D01*
X87887439Y65617685D01*
X87887439Y65988893D01*
X87887438Y65988902D01*
X87880987Y66048921D01*
X87880986Y66048924D01*
X87830340Y66184707D01*
X87830336Y66184713D01*
X87808171Y66214324D01*
X87783756Y66279789D01*
X87783440Y66288632D01*
X87783440Y66390685D01*
X87641522Y66390685D01*
X87598188Y66398504D01*
X87491676Y66438232D01*
X87491673Y66438233D01*
X87431667Y66444685D01*
X87160440Y66444685D01*
X87142759Y66427004D01*
X87115831Y66412301D01*
X87090013Y66395708D01*
X87083812Y66394817D01*
X87081436Y66393519D01*
X87055078Y66390685D01*
X87049843Y66390685D01*
X86982804Y66410370D01*
X86937049Y66463174D01*
X86927105Y66532332D01*
X86939357Y66570978D01*
X86952827Y66597417D01*
X86967440Y66689673D01*
X86967440Y66763685D01*
X86557440Y66763685D01*
X86548754Y66766236D01*
X86539793Y66764947D01*
X86515752Y66775926D01*
X86490401Y66783370D01*
X86484473Y66790211D01*
X86476237Y66793972D01*
X86461947Y66816207D01*
X86444646Y66836174D01*
X86442358Y66846689D01*
X86438463Y66852750D01*
X86433440Y66887685D01*
X86433440Y66890685D01*
X86430440Y66890685D01*
X86363401Y66910370D01*
X86317646Y66963174D01*
X86306440Y67014685D01*
X86306440Y67017685D01*
X86560440Y67017685D01*
X86967439Y67017685D01*
X86967439Y67091691D01*
X86952826Y67183957D01*
X86896164Y67295160D01*
X86896161Y67295165D01*
X86807919Y67383407D01*
X86807915Y67383410D01*
X86696705Y67440074D01*
X86604452Y67454685D01*
X86560440Y67454685D01*
X86560440Y67017685D01*
X86306440Y67017685D01*
X86306440Y67454685D01*
X86262434Y67454685D01*
X86171872Y67440342D01*
X86102579Y67449298D01*
X86064795Y67475135D01*
X85969132Y67570798D01*
X85969124Y67570804D01*
X85829833Y67653180D01*
X85829830Y67653181D01*
X85674437Y67698328D01*
X85674431Y67698329D01*
X85638137Y67701185D01*
X85638130Y67701185D01*
X85430727Y67701185D01*
X85363688Y67720870D01*
X85317933Y67773674D01*
X85307989Y67842832D01*
X85311651Y67859780D01*
X85343582Y67969688D01*
X85343583Y67969694D01*
X85346439Y68005988D01*
X85346440Y68005995D01*
X85346440Y68475375D01*
X85343583Y68511678D01*
X85298434Y68667080D01*
X85216057Y68806372D01*
X85216055Y68806374D01*
X85216052Y68806378D01*
X85101632Y68920798D01*
X85101624Y68920804D01*
X84962333Y69003180D01*
X84962330Y69003181D01*
X84806937Y69048328D01*
X84806931Y69048329D01*
X84770637Y69051185D01*
X84770630Y69051185D01*
X84665682Y69051185D01*
X84636241Y69059830D01*
X84606255Y69066353D01*
X84601239Y69070108D01*
X84598643Y69070870D01*
X84578001Y69087504D01*
X84510259Y69155246D01*
X84476774Y69216569D01*
X84473940Y69242927D01*
X84473940Y69619854D01*
X84473939Y69619867D01*
X84463876Y69718369D01*
X84460849Y69727504D01*
X84410989Y69877972D01*
X84410985Y69877978D01*
X84410984Y69877981D01*
X84322723Y70021073D01*
X84322720Y70021077D01*
X84290793Y70053004D01*
X84257308Y70114327D01*
X84262292Y70184019D01*
X84290793Y70228366D01*
X84322721Y70260294D01*
X84410989Y70403398D01*
X84463876Y70563000D01*
X84473940Y70661511D01*
X84473940Y71194859D01*
X84463876Y71293370D01*
X84410989Y71452972D01*
X84410985Y71452978D01*
X84410984Y71452981D01*
X84322723Y71596073D01*
X84322720Y71596077D01*
X84203831Y71714966D01*
X84203827Y71714969D01*
X84060735Y71803230D01*
X84060729Y71803233D01*
X84060727Y71803234D01*
X83901125Y71856121D01*
X83901123Y71856122D01*
X83802621Y71866185D01*
X83802614Y71866185D01*
X83194266Y71866185D01*
X83194258Y71866185D01*
X83095756Y71856122D01*
X83095755Y71856121D01*
X83016659Y71829912D01*
X82936155Y71803235D01*
X82936150Y71803233D01*
X82797287Y71717580D01*
X82729895Y71699140D01*
X82667093Y71717580D01*
X82528229Y71803233D01*
X82528224Y71803235D01*
X82526816Y71803702D01*
X82368625Y71856121D01*
X82368623Y71856122D01*
X82270121Y71866185D01*
X82270114Y71866185D01*
X81661766Y71866185D01*
X81661758Y71866185D01*
X81563256Y71856122D01*
X81563255Y71856121D01*
X81484159Y71829912D01*
X81403655Y71803235D01*
X81403650Y71803233D01*
X81264787Y71717580D01*
X81197395Y71699140D01*
X81134593Y71717580D01*
X80995729Y71803233D01*
X80995724Y71803235D01*
X80994316Y71803702D01*
X80836125Y71856121D01*
X80836123Y71856122D01*
X80737621Y71866185D01*
X80737614Y71866185D01*
X80129266Y71866185D01*
X80129258Y71866185D01*
X80030756Y71856122D01*
X80030755Y71856121D01*
X79951659Y71829912D01*
X79871155Y71803235D01*
X79871150Y71803233D01*
X79732287Y71717580D01*
X79664895Y71699140D01*
X79602093Y71717580D01*
X79463229Y71803233D01*
X79463224Y71803235D01*
X79461816Y71803702D01*
X79303625Y71856121D01*
X79303623Y71856122D01*
X79205121Y71866185D01*
X79205114Y71866185D01*
X78596766Y71866185D01*
X78596758Y71866185D01*
X78498256Y71856122D01*
X78498255Y71856121D01*
X78419159Y71829912D01*
X78338655Y71803235D01*
X78338650Y71803233D01*
X78199787Y71717580D01*
X78132395Y71699140D01*
X78069593Y71717580D01*
X77930729Y71803233D01*
X77930724Y71803235D01*
X77929316Y71803702D01*
X77771125Y71856121D01*
X77771123Y71856122D01*
X77672621Y71866185D01*
X77672614Y71866185D01*
X77064266Y71866185D01*
X77064258Y71866185D01*
X76965756Y71856122D01*
X76965755Y71856121D01*
X76886659Y71829912D01*
X76806155Y71803235D01*
X76806144Y71803230D01*
X76663052Y71714969D01*
X76663048Y71714966D01*
X76544159Y71596077D01*
X76544156Y71596073D01*
X76455895Y71452981D01*
X76455890Y71452970D01*
X76438859Y71401573D01*
X76403004Y71293370D01*
X76403004Y71293369D01*
X76403003Y71293369D01*
X76392940Y71194867D01*
X76392940Y70661504D01*
X76403003Y70563002D01*
X76455890Y70403401D01*
X76455895Y70403390D01*
X76544156Y70260298D01*
X76544159Y70260294D01*
X76576087Y70228366D01*
X76609572Y70167043D01*
X76604588Y70097351D01*
X76576087Y70053004D01*
X76544159Y70021077D01*
X76544156Y70021073D01*
X76455895Y69877981D01*
X76455891Y69877972D01*
X76403004Y69718370D01*
X76403004Y69718369D01*
X76403003Y69718369D01*
X76392940Y69619867D01*
X76392940Y69242927D01*
X76384295Y69213487D01*
X76377772Y69183500D01*
X76374017Y69178485D01*
X76373255Y69175888D01*
X76356621Y69155246D01*
X76288879Y69087504D01*
X76227556Y69054019D01*
X76201198Y69051185D01*
X76161242Y69051185D01*
X76124948Y69048329D01*
X76124942Y69048328D01*
X75969549Y69003181D01*
X75969546Y69003180D01*
X75830255Y68920804D01*
X75830247Y68920798D01*
X75715827Y68806378D01*
X75715821Y68806370D01*
X75633445Y68667079D01*
X75633444Y68667076D01*
X75588297Y68511683D01*
X75588296Y68511677D01*
X75585440Y68475383D01*
X75585440Y68005988D01*
X75588296Y67969694D01*
X75588297Y67969688D01*
X75633444Y67814295D01*
X75633445Y67814292D01*
X75715821Y67675001D01*
X75715827Y67674993D01*
X75830247Y67560573D01*
X75830251Y67560570D01*
X75830253Y67560568D01*
X75969545Y67478191D01*
X75980064Y67475135D01*
X76124942Y67433043D01*
X76124945Y67433043D01*
X76124947Y67433042D01*
X76161250Y67430185D01*
X76161258Y67430185D01*
X76570622Y67430185D01*
X76570630Y67430185D01*
X76606933Y67433042D01*
X76606935Y67433043D01*
X76606937Y67433043D01*
X76662886Y67449298D01*
X76762335Y67478191D01*
X76802819Y67502134D01*
X76810280Y67504027D01*
X76816178Y67508979D01*
X76843671Y67512499D01*
X76870542Y67519317D01*
X76879591Y67517098D01*
X76885482Y67517852D01*
X76904526Y67510983D01*
X76919189Y67507387D01*
X76924232Y67504989D01*
X76969545Y67478191D01*
X76997934Y67469944D01*
X77006972Y67465646D01*
X77019997Y67454002D01*
X77041404Y67441342D01*
X77195426Y67287320D01*
X77302576Y67180170D01*
X77401147Y67123260D01*
X77433806Y67104404D01*
X77580174Y67065185D01*
X77580175Y67065185D01*
X77848424Y67065185D01*
X77853760Y67063619D01*
X77859214Y67064715D01*
X77886925Y67053880D01*
X77915463Y67045500D01*
X77919104Y67041298D01*
X77924287Y67039271D01*
X77941743Y67015172D01*
X77961218Y66992696D01*
X77962009Y66987192D01*
X77965273Y66982686D01*
X77966928Y66952981D01*
X77971162Y66923538D01*
X77968933Y66917014D01*
X77969161Y66912924D01*
X77963083Y66899889D01*
X77956308Y66880054D01*
X77907700Y66794271D01*
X77889397Y66776536D01*
X77874123Y66756132D01*
X77864725Y66752628D01*
X77857524Y66745649D01*
X77832537Y66740624D01*
X77808658Y66731718D01*
X77796763Y66733429D01*
X77789026Y66731872D01*
X77778231Y66736093D01*
X77756482Y66739220D01*
X77652866Y66777868D01*
X77595836Y66784000D01*
X77427000Y66784000D01*
X77427000Y66204000D01*
X77424449Y66195315D01*
X77425738Y66186353D01*
X77414759Y66162313D01*
X77407315Y66136961D01*
X77400474Y66131034D01*
X77396713Y66122797D01*
X77374478Y66108508D01*
X77354511Y66091206D01*
X77343996Y66088919D01*
X77337935Y66085023D01*
X77303000Y66080000D01*
X77297000Y66080000D01*
X77229961Y66099685D01*
X77184206Y66152489D01*
X77173000Y66204000D01*
X77173000Y66784000D01*
X77004163Y66784000D01*
X76947132Y66777867D01*
X76947127Y66777866D01*
X76818078Y66729733D01*
X76818075Y66729731D01*
X76707814Y66647189D01*
X76707811Y66647186D01*
X76625269Y66536925D01*
X76625267Y66536922D01*
X76577134Y66407873D01*
X76577133Y66407868D01*
X76571000Y66350837D01*
X76571000Y66298685D01*
X76551315Y66231646D01*
X76498511Y66185891D01*
X76447000Y66174685D01*
X76427000Y66174685D01*
X76427000Y65764685D01*
X76424449Y65756000D01*
X76425738Y65747038D01*
X76414759Y65722998D01*
X76407315Y65697646D01*
X76400474Y65691719D01*
X76396713Y65683482D01*
X76374478Y65669193D01*
X76354511Y65651891D01*
X76343996Y65649604D01*
X76337935Y65645708D01*
X76303000Y65640685D01*
X76300000Y65640685D01*
X76300000Y65637685D01*
X76280315Y65570646D01*
X76227511Y65524891D01*
X76176000Y65513685D01*
X74936001Y65513685D01*
X74936001Y65469679D01*
X74950343Y65379117D01*
X74941387Y65309824D01*
X74915550Y65272040D01*
X74819887Y65176378D01*
X74819881Y65176370D01*
X74737505Y65037079D01*
X74737504Y65037076D01*
X74692357Y64881683D01*
X74692356Y64881677D01*
X74689500Y64845383D01*
X74689500Y64489728D01*
X74669815Y64422689D01*
X74617011Y64376934D01*
X74604510Y64372025D01*
X74546344Y64352750D01*
X74464108Y64325500D01*
X74464103Y64325498D01*
X74314782Y64233396D01*
X74190729Y64109343D01*
X74098627Y63960022D01*
X74098626Y63960019D01*
X74043441Y63793482D01*
X74043441Y63793481D01*
X74043440Y63793481D01*
X74032940Y63690702D01*
X74032940Y63090684D01*
X74032941Y63090666D01*
X74043440Y62987889D01*
X74043441Y62987886D01*
X74098625Y62821354D01*
X74098627Y62821349D01*
X74190729Y62672028D01*
X74226391Y62636366D01*
X74259876Y62575043D01*
X74254892Y62505351D01*
X74213020Y62449418D01*
X74147556Y62425001D01*
X74138710Y62424685D01*
X74077000Y62424685D01*
X74077000Y62017685D01*
X74338450Y62017685D01*
X74339595Y62017349D01*
X74340748Y62017664D01*
X74373045Y62007527D01*
X74405489Y61998000D01*
X74406270Y61997098D01*
X74407411Y61996740D01*
X74429108Y61970743D01*
X74451244Y61945196D01*
X74451413Y61944016D01*
X74452180Y61943097D01*
X74456376Y61909504D01*
X74461188Y61876038D01*
X74460691Y61874952D01*
X74460840Y61873766D01*
X74446213Y61843249D01*
X74432163Y61812482D01*
X74430989Y61811485D01*
X74430642Y61810759D01*
X74403545Y61788145D01*
X74393817Y61782145D01*
X74328722Y61763685D01*
X73386001Y61763685D01*
X73386001Y61719679D01*
X73400343Y61629117D01*
X73391387Y61559824D01*
X73365550Y61522040D01*
X73269887Y61426378D01*
X73269881Y61426370D01*
X73187505Y61287079D01*
X73187504Y61287076D01*
X73142357Y61131683D01*
X73142356Y61131677D01*
X73139500Y61095383D01*
X73139500Y60685988D01*
X73142356Y60649694D01*
X73142357Y60649688D01*
X73187504Y60494295D01*
X73187505Y60494292D01*
X73269881Y60355001D01*
X73269887Y60354993D01*
X73384307Y60240573D01*
X73384311Y60240570D01*
X73384313Y60240568D01*
X73523605Y60158191D01*
X73534313Y60155080D01*
X73679002Y60113043D01*
X73679005Y60113043D01*
X73679007Y60113042D01*
X73715310Y60110185D01*
X73715318Y60110185D01*
X74184682Y60110185D01*
X74184690Y60110185D01*
X74189379Y60110555D01*
X74190626Y60110652D01*
X74259004Y60096291D01*
X74288041Y60074716D01*
X74314784Y60047973D01*
X74464106Y59955871D01*
X74630643Y59900686D01*
X74733431Y59890185D01*
X76133448Y59890186D01*
X76236237Y59900686D01*
X76402774Y59955871D01*
X76490403Y60009922D01*
X76491046Y60010098D01*
X76491499Y60010590D01*
X76524704Y60019308D01*
X76557795Y60028362D01*
X76558433Y60028162D01*
X76559078Y60028331D01*
X76591654Y60017736D01*
X76624459Y60007440D01*
X76624887Y60006927D01*
X76625522Y60006720D01*
X76647235Y59980150D01*
X76669228Y59953798D01*
X76669451Y59952964D01*
X76669734Y59952618D01*
X76670319Y59949728D01*
X76678696Y59918481D01*
X76679500Y59911456D01*
X76679500Y59906898D01*
X76690123Y59818436D01*
X76690153Y59818359D01*
X76690641Y59814098D01*
X76690561Y59813637D01*
X76690561Y59785217D01*
X76685722Y59744913D01*
X76679500Y59693102D01*
X76679500Y59506898D01*
X76683271Y59475499D01*
X76690561Y59414783D01*
X76690561Y59385217D01*
X76686475Y59351187D01*
X76679500Y59293102D01*
X76679500Y59293097D01*
X76679500Y59103192D01*
X76678645Y59103192D01*
X76663856Y59038813D01*
X76613880Y58989985D01*
X76555721Y58975500D01*
X75752370Y58975500D01*
X75685331Y58995185D01*
X75639576Y59047989D01*
X75634664Y59060496D01*
X75619288Y59106898D01*
X75618254Y59110019D01*
X75526152Y59259341D01*
X75402096Y59383397D01*
X75252774Y59475499D01*
X75086237Y59530684D01*
X75086235Y59530685D01*
X74983450Y59541185D01*
X74033438Y59541185D01*
X74033420Y59541184D01*
X73930643Y59530685D01*
X73930640Y59530684D01*
X73764108Y59475500D01*
X73764103Y59475498D01*
X73614782Y59383396D01*
X73490729Y59259343D01*
X73398627Y59110022D01*
X73398625Y59110017D01*
X73382216Y59060496D01*
X73343441Y58943482D01*
X73343441Y58943481D01*
X73343440Y58943481D01*
X73332940Y58840702D01*
X73332940Y57440684D01*
X73332941Y57440667D01*
X73343440Y57337889D01*
X73343441Y57337886D01*
X73394451Y57183951D01*
X73398626Y57171351D01*
X73490728Y57022029D01*
X73614784Y56897973D01*
X73764106Y56805871D01*
X73772938Y56802945D01*
X73792975Y56789074D01*
X73815143Y56778950D01*
X73821188Y56769543D01*
X73830384Y56763177D01*
X73839741Y56740674D01*
X73852917Y56720172D01*
X73855374Y56703080D01*
X73857211Y56698663D01*
X73857940Y56685237D01*
X73857940Y56582352D01*
X73838255Y56515313D01*
X73821621Y56494671D01*
X73783327Y56456378D01*
X73783321Y56456370D01*
X73700945Y56317079D01*
X73700944Y56317076D01*
X73655797Y56161683D01*
X73655796Y56161677D01*
X73652940Y56125383D01*
X73652940Y55655988D01*
X73655796Y55619694D01*
X73655797Y55619688D01*
X73700944Y55464295D01*
X73700945Y55464292D01*
X73783321Y55325001D01*
X73783327Y55324993D01*
X73897747Y55210573D01*
X73897751Y55210570D01*
X73897753Y55210568D01*
X74037045Y55128191D01*
X74067410Y55119369D01*
X74192442Y55083043D01*
X74192445Y55083043D01*
X74192447Y55083042D01*
X74228750Y55080185D01*
X74228758Y55080185D01*
X74638122Y55080185D01*
X74638130Y55080185D01*
X74674433Y55083042D01*
X74674435Y55083043D01*
X74674437Y55083043D01*
X74715415Y55094949D01*
X74829835Y55128191D01*
X74870319Y55152134D01*
X74938042Y55169317D01*
X74996560Y55152134D01*
X75037045Y55128191D01*
X75067410Y55119369D01*
X75192442Y55083043D01*
X75192445Y55083043D01*
X75192447Y55083042D01*
X75228750Y55080185D01*
X75228758Y55080185D01*
X75638122Y55080185D01*
X75638130Y55080185D01*
X75674433Y55083042D01*
X75674435Y55083043D01*
X75674437Y55083043D01*
X75715415Y55094949D01*
X75829835Y55128191D01*
X75969127Y55210568D01*
X76083557Y55324998D01*
X76165934Y55464290D01*
X76211083Y55619692D01*
X76213940Y55655995D01*
X76213940Y55699086D01*
X76216323Y55723278D01*
X76233940Y55811841D01*
X76233940Y55969528D01*
X76233939Y55969531D01*
X76216323Y56058095D01*
X76214336Y56072385D01*
X76213940Y56077329D01*
X76213940Y56125375D01*
X76211083Y56161678D01*
X76205699Y56180208D01*
X76204692Y56192786D01*
X76209353Y56215134D01*
X76209419Y56237962D01*
X76216353Y56248685D01*
X76218961Y56261184D01*
X76234963Y56277462D01*
X76247361Y56296632D01*
X76258992Y56301904D01*
X76267943Y56311008D01*
X76290205Y56316051D01*
X76300444Y56320691D01*
X76306440Y56326687D01*
X76306440Y56763685D01*
X75899441Y56763685D01*
X75885130Y56749375D01*
X75879756Y56731071D01*
X75826952Y56685316D01*
X75757794Y56675372D01*
X75740847Y56679033D01*
X75674431Y56698329D01*
X75638137Y56701185D01*
X75638130Y56701185D01*
X75504670Y56701185D01*
X75437631Y56720870D01*
X75391876Y56773674D01*
X75381932Y56842832D01*
X75410957Y56906388D01*
X75416989Y56912866D01*
X75526152Y57022029D01*
X75569124Y57091698D01*
X75899440Y57091698D01*
X75899440Y57017685D01*
X76306440Y57017685D01*
X76306440Y57454685D01*
X76262435Y57454685D01*
X76170168Y57440072D01*
X76058965Y57383410D01*
X76058960Y57383407D01*
X75970718Y57295165D01*
X75970715Y57295161D01*
X75914051Y57183951D01*
X75899440Y57091698D01*
X75569124Y57091698D01*
X75618254Y57171351D01*
X75673439Y57337888D01*
X75683940Y57440676D01*
X75683940Y57700500D01*
X75703625Y57767539D01*
X75756429Y57813294D01*
X75807940Y57824500D01*
X76873465Y57824500D01*
X76940504Y57804815D01*
X76986259Y57752011D01*
X76996203Y57682853D01*
X76967178Y57619297D01*
X76954620Y57606745D01*
X76946188Y57599447D01*
X76897753Y57570802D01*
X76798929Y57471979D01*
X76795559Y57469061D01*
X76767659Y57456338D01*
X76740762Y57441650D01*
X76735100Y57441489D01*
X76731988Y57440069D01*
X76724292Y57441180D01*
X76695006Y57440343D01*
X76604452Y57454685D01*
X76560440Y57454685D01*
X76560440Y56326686D01*
X76604451Y56326686D01*
X76604451Y56326687D01*
X76695006Y56341028D01*
X76764299Y56332073D01*
X76802084Y56306236D01*
X76897747Y56210573D01*
X76897751Y56210570D01*
X76897753Y56210568D01*
X77037045Y56128191D01*
X77046738Y56125375D01*
X77192442Y56083043D01*
X77192445Y56083043D01*
X77192447Y56083042D01*
X77228750Y56080185D01*
X77228758Y56080185D01*
X77638122Y56080185D01*
X77638130Y56080185D01*
X77670629Y56082743D01*
X77680750Y56083539D01*
X77680871Y56081995D01*
X77742630Y56075498D01*
X77797134Y56031781D01*
X77819351Y55965538D01*
X77819440Y55960828D01*
X77819440Y53496669D01*
X77819440Y53345137D01*
X77834157Y53290211D01*
X77858659Y53198767D01*
X77896542Y53133153D01*
X77934425Y53067538D01*
X77934427Y53067536D01*
X78141678Y52860285D01*
X78158816Y52838854D01*
X78164492Y52829874D01*
X78194823Y52756648D01*
X78285298Y52638738D01*
X78288307Y52633977D01*
X78296411Y52605584D01*
X78307058Y52578044D01*
X78305893Y52572365D01*
X78307484Y52566791D01*
X78298953Y52538532D01*
X78293020Y52509599D01*
X78288968Y52505451D01*
X78287294Y52499902D01*
X78264834Y52480736D01*
X78244205Y52459610D01*
X78237245Y52457193D01*
X78234146Y52454547D01*
X78226726Y52453538D01*
X78202885Y52445254D01*
X78170171Y52440073D01*
X78170170Y52440073D01*
X78058965Y52383410D01*
X78058960Y52383407D01*
X77970718Y52295165D01*
X77970715Y52295161D01*
X77914051Y52183951D01*
X77899440Y52091698D01*
X77899440Y52017685D01*
X78309440Y52017685D01*
X78318125Y52015135D01*
X78327087Y52016423D01*
X78351127Y52005445D01*
X78376479Y51998000D01*
X78382406Y51991160D01*
X78390643Y51987398D01*
X78404932Y51965164D01*
X78422234Y51945196D01*
X78424521Y51934682D01*
X78428417Y51928620D01*
X78433440Y51893685D01*
X78433440Y51890685D01*
X78436440Y51890685D01*
X78503479Y51871000D01*
X78549234Y51818196D01*
X78560440Y51766685D01*
X78560440Y51326686D01*
X78604451Y51326686D01*
X78604451Y51326687D01*
X78695006Y51341028D01*
X78764299Y51332073D01*
X78802084Y51306236D01*
X78897747Y51210573D01*
X78897751Y51210570D01*
X78897753Y51210568D01*
X79037045Y51128191D01*
X79078027Y51116285D01*
X79192442Y51083043D01*
X79192445Y51083043D01*
X79192447Y51083042D01*
X79228750Y51080185D01*
X79228758Y51080185D01*
X79638122Y51080185D01*
X79638130Y51080185D01*
X79674433Y51083042D01*
X79674435Y51083043D01*
X79674437Y51083043D01*
X79715415Y51094949D01*
X79829835Y51128191D01*
X79969127Y51210568D01*
X80064795Y51306237D01*
X80126116Y51339721D01*
X80171873Y51341028D01*
X80262428Y51326686D01*
X80306439Y51326686D01*
X80306440Y51326687D01*
X80306440Y51766685D01*
X80308990Y51775371D01*
X80307702Y51784332D01*
X80318680Y51808373D01*
X80326125Y51833724D01*
X80332965Y51839652D01*
X80336727Y51847888D01*
X80358961Y51862178D01*
X80378929Y51879479D01*
X80389443Y51881767D01*
X80395505Y51885662D01*
X80430440Y51890685D01*
X80436440Y51890685D01*
X80503479Y51871000D01*
X80549234Y51818196D01*
X80560440Y51766685D01*
X80560440Y51326686D01*
X80604451Y51326686D01*
X80604451Y51326687D01*
X80695006Y51341028D01*
X80764299Y51332073D01*
X80802084Y51306236D01*
X80897747Y51210573D01*
X80897751Y51210570D01*
X80897753Y51210568D01*
X81037045Y51128191D01*
X81078027Y51116285D01*
X81192442Y51083043D01*
X81192445Y51083043D01*
X81192447Y51083042D01*
X81228750Y51080185D01*
X81228758Y51080185D01*
X81638122Y51080185D01*
X81638130Y51080185D01*
X81674433Y51083042D01*
X81674435Y51083043D01*
X81674437Y51083043D01*
X81715415Y51094949D01*
X81829835Y51128191D01*
X81969127Y51210568D01*
X82083557Y51324998D01*
X82165934Y51464290D01*
X82204908Y51598437D01*
X82211082Y51619688D01*
X82211083Y51619694D01*
X82213940Y51655995D01*
X82213940Y51699086D01*
X82216323Y51723278D01*
X82233940Y51811841D01*
X82233940Y51969528D01*
X82233939Y51969531D01*
X82230043Y51989116D01*
X82216323Y52058095D01*
X82213940Y52082286D01*
X82213940Y52125368D01*
X82213939Y52125383D01*
X82212026Y52149688D01*
X82211083Y52161678D01*
X82204020Y52185988D01*
X82165935Y52317076D01*
X82165934Y52317080D01*
X82151944Y52340736D01*
X82101208Y52426528D01*
X82083940Y52489648D01*
X82083940Y53029757D01*
X82073823Y53080615D01*
X82071440Y53104807D01*
X82071440Y53266719D01*
X82071439Y53266731D01*
X82070681Y53272489D01*
X82057250Y53374507D01*
X82057250Y53406864D01*
X82071440Y53514645D01*
X82071440Y53766725D01*
X82057249Y53874510D01*
X82056421Y53898273D01*
X82056684Y53902567D01*
X82071440Y54014645D01*
X82071440Y54143247D01*
X82071672Y54147031D01*
X82082312Y54176469D01*
X82091125Y54206482D01*
X82094088Y54209050D01*
X82095422Y54212740D01*
X82120289Y54231753D01*
X82143929Y54252237D01*
X82147810Y54252796D01*
X82150927Y54255178D01*
X82182115Y54257728D01*
X82213087Y54262181D01*
X82216655Y54260552D01*
X82220565Y54260871D01*
X82248176Y54246157D01*
X82276643Y54233156D01*
X82282092Y54228082D01*
X82282225Y54228011D01*
X82282286Y54227902D01*
X82283121Y54227124D01*
X82728876Y53781369D01*
X82762361Y53720046D01*
X82764131Y53709123D01*
X82766133Y53700651D01*
X82764670Y53700306D01*
X82769025Y53639313D01*
X82764613Y53624287D01*
X82764348Y53623168D01*
X82757941Y53563568D01*
X82757940Y53563549D01*
X82757940Y53117815D01*
X82757941Y53117809D01*
X82764348Y53058202D01*
X82814642Y52923357D01*
X82814646Y52923350D01*
X82900892Y52808141D01*
X82900895Y52808138D01*
X83016104Y52721892D01*
X83016111Y52721888D01*
X83061058Y52705124D01*
X83150957Y52671594D01*
X83210567Y52665185D01*
X83656312Y52665186D01*
X83715923Y52671594D01*
X83850771Y52721889D01*
X83965986Y52808139D01*
X83984673Y52833103D01*
X84040606Y52874974D01*
X84110298Y52879958D01*
X84171621Y52846473D01*
X84205106Y52785150D01*
X84207940Y52758792D01*
X84207940Y52467816D01*
X84207941Y52467809D01*
X84214348Y52408202D01*
X84264642Y52273357D01*
X84264646Y52273350D01*
X84350892Y52158141D01*
X84350895Y52158138D01*
X84466104Y52071892D01*
X84466111Y52071888D01*
X84470975Y52070074D01*
X84600957Y52021594D01*
X84600965Y52021594D01*
X84608092Y52019909D01*
X84667266Y51986913D01*
X84719497Y51934682D01*
X84768771Y51885408D01*
X84768772Y51885407D01*
X84856760Y51826616D01*
X84856761Y51826616D01*
X84875313Y51814220D01*
X84993696Y51765184D01*
X84993700Y51765184D01*
X84993701Y51765183D01*
X85119368Y51740185D01*
X85119371Y51740185D01*
X85834479Y51740185D01*
X85897599Y51722918D01*
X86007045Y51658191D01*
X86014604Y51655995D01*
X86162442Y51613043D01*
X86162445Y51613043D01*
X86162447Y51613042D01*
X86198750Y51610185D01*
X86241841Y51610185D01*
X86266031Y51607803D01*
X86287976Y51603437D01*
X86354596Y51590185D01*
X86354598Y51590185D01*
X86512283Y51590185D01*
X86557838Y51599247D01*
X86600848Y51607803D01*
X86625039Y51610185D01*
X86668122Y51610185D01*
X86668130Y51610185D01*
X86704433Y51613042D01*
X86704435Y51613043D01*
X86704437Y51613043D01*
X86745415Y51624949D01*
X86859835Y51658191D01*
X86999127Y51740568D01*
X87113557Y51854998D01*
X87195934Y51994290D01*
X87234018Y52125375D01*
X87241082Y52149688D01*
X87241083Y52149694D01*
X87243940Y52185995D01*
X87243940Y52595375D01*
X87241083Y52631678D01*
X87240461Y52633818D01*
X87204775Y52756648D01*
X87195934Y52787080D01*
X87113557Y52926372D01*
X87113555Y52926374D01*
X87113552Y52926378D01*
X87017889Y53022041D01*
X86984404Y53083364D01*
X86983097Y53129121D01*
X86997440Y53219674D01*
X86997440Y53263685D01*
X86557440Y53263685D01*
X86548754Y53266236D01*
X86539793Y53264947D01*
X86515752Y53275926D01*
X86490401Y53283370D01*
X86484473Y53290211D01*
X86476237Y53293972D01*
X86461947Y53316207D01*
X86444646Y53336174D01*
X86442358Y53346689D01*
X86438463Y53352750D01*
X86433440Y53387685D01*
X86433440Y53393685D01*
X86453125Y53460724D01*
X86505929Y53506479D01*
X86557440Y53517685D01*
X86997439Y53517685D01*
X86997439Y53561691D01*
X86983096Y53652253D01*
X86992052Y53721546D01*
X87017887Y53759329D01*
X87113557Y53854998D01*
X87195934Y53994290D01*
X87241083Y54149692D01*
X87243940Y54185995D01*
X87243940Y54595375D01*
X87241083Y54631678D01*
X87195934Y54787080D01*
X87113557Y54926372D01*
X87113555Y54926374D01*
X87113552Y54926378D01*
X87017889Y55022041D01*
X86984404Y55083364D01*
X86983097Y55129121D01*
X86997440Y55219674D01*
X86997440Y55263685D01*
X85869441Y55263685D01*
X85869441Y55219679D01*
X85883783Y55129117D01*
X85883134Y55124098D01*
X85884933Y55119369D01*
X85878701Y55089803D01*
X85874827Y55059824D01*
X85871283Y55054607D01*
X85870524Y55051001D01*
X85851064Y55024830D01*
X85849557Y55022610D01*
X85849250Y55022300D01*
X85753323Y54926372D01*
X85751474Y54923247D01*
X85743585Y54915254D01*
X85719231Y54901750D01*
X85696667Y54885456D01*
X85689106Y54885046D01*
X85682481Y54881372D01*
X85654696Y54883179D01*
X85626900Y54881670D01*
X85620315Y54885414D01*
X85612758Y54885905D01*
X85590362Y54902445D01*
X85566162Y54916204D01*
X85561308Y54923901D01*
X85556554Y54927412D01*
X85552692Y54937565D01*
X85539155Y54959032D01*
X85502237Y55058014D01*
X85502233Y55058021D01*
X85415987Y55173230D01*
X85415984Y55173233D01*
X85300775Y55259479D01*
X85300768Y55259483D01*
X85165926Y55309775D01*
X85165925Y55309776D01*
X85165923Y55309776D01*
X85106313Y55316185D01*
X85106303Y55316185D01*
X84660551Y55316185D01*
X84658043Y55316050D01*
X84657476Y55316185D01*
X84657248Y55316184D01*
X84657248Y55316238D01*
X84590048Y55332129D01*
X84582537Y55336771D01*
X84562629Y55350073D01*
X84562622Y55350077D01*
X84562619Y55350079D01*
X84562615Y55350081D01*
X84562611Y55350083D01*
X84416941Y55410421D01*
X84416929Y55410424D01*
X84262285Y55441185D01*
X84262282Y55441185D01*
X84104598Y55441185D01*
X84104595Y55441185D01*
X83949950Y55410424D01*
X83949943Y55410422D01*
X83869255Y55377001D01*
X83849378Y55374865D01*
X83830650Y55367879D01*
X83815351Y55371208D01*
X83799786Y55369534D01*
X83781911Y55378482D01*
X83762377Y55382731D01*
X83740086Y55399418D01*
X83737307Y55400809D01*
X83734123Y55403882D01*
X83576307Y55561698D01*
X85869440Y55561698D01*
X85869440Y55517685D01*
X86306440Y55517685D01*
X86560440Y55517685D01*
X86997439Y55517685D01*
X86997439Y55561691D01*
X86982826Y55653957D01*
X86926164Y55765160D01*
X86926161Y55765165D01*
X86837919Y55853407D01*
X86837915Y55853410D01*
X86726705Y55910074D01*
X86634452Y55924685D01*
X86560440Y55924685D01*
X86560440Y55517685D01*
X86306440Y55517685D01*
X86306440Y55924685D01*
X86306439Y55924686D01*
X86232435Y55924685D01*
X86140168Y55910072D01*
X86028965Y55853410D01*
X86028960Y55853407D01*
X85940718Y55765165D01*
X85940715Y55765161D01*
X85884051Y55653951D01*
X85869440Y55561698D01*
X83576307Y55561698D01*
X83506600Y55631405D01*
X83473115Y55692728D01*
X83478099Y55762420D01*
X83506601Y55806768D01*
X83555226Y55855393D01*
X83555229Y55855396D01*
X83642834Y55986506D01*
X83690890Y56102526D01*
X83734728Y56156925D01*
X83757985Y56169626D01*
X83829862Y56199397D01*
X83960972Y56287002D01*
X84072472Y56398502D01*
X84160077Y56529612D01*
X84220420Y56675294D01*
X84251183Y56829949D01*
X84251183Y56987633D01*
X84251183Y56987636D01*
X84251182Y56987638D01*
X84244341Y57022029D01*
X84220420Y57142288D01*
X84212395Y57161662D01*
X84174543Y57253048D01*
X84167074Y57322518D01*
X84198350Y57384997D01*
X84258439Y57420648D01*
X84289104Y57424500D01*
X87927158Y57424500D01*
X87994197Y57404815D01*
X88014839Y57388181D01*
X90127447Y55275573D01*
X90160932Y55214250D01*
X90161383Y55163701D01*
X90137057Y55041404D01*
X90137057Y54883711D01*
X90167818Y54729068D01*
X90167821Y54729056D01*
X90228159Y54583385D01*
X90228166Y54583372D01*
X90315767Y54452269D01*
X90315770Y54452265D01*
X90427264Y54340771D01*
X90427268Y54340768D01*
X90558371Y54253167D01*
X90558384Y54253160D01*
X90704055Y54192822D01*
X90704060Y54192820D01*
X90858710Y54162058D01*
X90858713Y54162057D01*
X91000000Y54162057D01*
X91000000Y52579973D01*
X90959121Y52552658D01*
X90959117Y52552655D01*
X90855242Y52448780D01*
X90855239Y52448776D01*
X90773624Y52326632D01*
X90773619Y52326623D01*
X90717402Y52190901D01*
X90717399Y52190891D01*
X90688741Y52046816D01*
X90688741Y51899897D01*
X90717399Y51755822D01*
X90717402Y51755812D01*
X90773619Y51620090D01*
X90773624Y51620081D01*
X90855239Y51497937D01*
X90855242Y51497933D01*
X90959117Y51394058D01*
X90959121Y51394055D01*
X91000000Y51366741D01*
X91000000Y49000500D01*
X71252712Y49000500D01*
X71247302Y49000618D01*
X70863252Y49017389D01*
X70852476Y49018332D01*
X70474044Y49068156D01*
X70463391Y49070034D01*
X70090728Y49152653D01*
X70080279Y49155453D01*
X69716242Y49270235D01*
X69706077Y49273935D01*
X69353427Y49420008D01*
X69343623Y49424580D01*
X69005056Y49600827D01*
X68995688Y49606235D01*
X68673752Y49811330D01*
X68664891Y49817535D01*
X68362072Y50049896D01*
X68353785Y50056849D01*
X68072358Y50314727D01*
X68064709Y50322376D01*
X67806828Y50603800D01*
X67799875Y50612087D01*
X67746251Y50681970D01*
X67567509Y50914909D01*
X67561307Y50923766D01*
X67459835Y51083042D01*
X67356213Y51245695D01*
X67350806Y51255059D01*
X67324164Y51306236D01*
X67174542Y51593650D01*
X67169985Y51603421D01*
X67134255Y51689680D01*
X77899441Y51689680D01*
X77914053Y51597414D01*
X77970715Y51486211D01*
X77970718Y51486206D01*
X78058960Y51397964D01*
X78058964Y51397961D01*
X78170174Y51341297D01*
X78262427Y51326686D01*
X78306439Y51326686D01*
X78306440Y51326687D01*
X78306440Y51763685D01*
X77899441Y51763685D01*
X77899441Y51689680D01*
X67134255Y51689680D01*
X67023899Y51956096D01*
X67020200Y51966261D01*
X66905418Y52330288D01*
X66902618Y52340736D01*
X66896076Y52370242D01*
X66819992Y52713410D01*
X66818121Y52724021D01*
X66768287Y53102501D01*
X66767347Y53113242D01*
X66750618Y53496279D01*
X66750500Y53501689D01*
X66750500Y57442469D01*
X69429441Y57442469D01*
X69435892Y57382450D01*
X69435893Y57382447D01*
X69486539Y57246664D01*
X69486543Y57246658D01*
X69573392Y57130638D01*
X69689412Y57043789D01*
X69689414Y57043788D01*
X69825208Y56993138D01*
X69885220Y56986686D01*
X70231439Y56986686D01*
X70485440Y56986686D01*
X70831647Y56986686D01*
X70831656Y56986687D01*
X70891675Y56993138D01*
X70891678Y56993139D01*
X71027461Y57043785D01*
X71027467Y57043789D01*
X71143487Y57130638D01*
X71230336Y57246658D01*
X71230337Y57246660D01*
X71280987Y57382454D01*
X71287439Y57442458D01*
X71287440Y57442475D01*
X71287440Y58013685D01*
X70485440Y58013685D01*
X70485440Y56986686D01*
X70231439Y56986686D01*
X70231440Y56986687D01*
X70231440Y58013685D01*
X69429441Y58013685D01*
X69429441Y57442469D01*
X66750500Y57442469D01*
X66750500Y58838913D01*
X69429440Y58838913D01*
X69429440Y58267685D01*
X70231440Y58267685D01*
X70485440Y58267685D01*
X71287439Y58267685D01*
X71287439Y58838893D01*
X71287438Y58838902D01*
X71280987Y58898921D01*
X71280986Y58898924D01*
X71230340Y59034707D01*
X71230336Y59034713D01*
X71143487Y59150733D01*
X71027467Y59237582D01*
X71027465Y59237583D01*
X70891671Y59288233D01*
X70831667Y59294685D01*
X70485440Y59294685D01*
X70485440Y58267685D01*
X70231440Y58267685D01*
X70231440Y59294685D01*
X69885232Y59294685D01*
X69885223Y59294684D01*
X69825204Y59288233D01*
X69825201Y59288232D01*
X69689418Y59237586D01*
X69689412Y59237582D01*
X69573392Y59150733D01*
X69486543Y59034713D01*
X69486542Y59034711D01*
X69435892Y58898917D01*
X69429440Y58838913D01*
X66750500Y58838913D01*
X66750500Y61828847D01*
X67249500Y61828847D01*
X67249500Y61671154D01*
X67280261Y61516511D01*
X67280264Y61516499D01*
X67340602Y61370828D01*
X67340609Y61370815D01*
X67428210Y61239712D01*
X67428213Y61239708D01*
X67539707Y61128214D01*
X67539711Y61128211D01*
X67670814Y61040610D01*
X67670827Y61040603D01*
X67755669Y61005461D01*
X67816503Y60980263D01*
X67971153Y60949501D01*
X67971156Y60949500D01*
X67971158Y60949500D01*
X68128844Y60949500D01*
X68128845Y60949501D01*
X68283497Y60980263D01*
X68429179Y61040606D01*
X68518094Y61100017D01*
X69024500Y61100017D01*
X69024500Y60499999D01*
X69024501Y60499981D01*
X69035000Y60397204D01*
X69035001Y60397201D01*
X69090185Y60230669D01*
X69090187Y60230664D01*
X69107789Y60202127D01*
X69182288Y60081344D01*
X69306344Y59957288D01*
X69455666Y59865186D01*
X69622203Y59810001D01*
X69724991Y59799500D01*
X70775008Y59799501D01*
X70775016Y59799502D01*
X70775019Y59799502D01*
X70833402Y59805466D01*
X70877797Y59810001D01*
X71044334Y59865186D01*
X71193656Y59957288D01*
X71317712Y60081344D01*
X71409814Y60230666D01*
X71464999Y60397203D01*
X71475500Y60499991D01*
X71475499Y61100008D01*
X71472723Y61127180D01*
X71464999Y61202797D01*
X71464998Y61202800D01*
X71452767Y61239711D01*
X71409814Y61369334D01*
X71317712Y61518656D01*
X71193656Y61642712D01*
X71068872Y61719679D01*
X71044336Y61734813D01*
X71044335Y61734814D01*
X71044334Y61734814D01*
X70957906Y61763454D01*
X70900463Y61803226D01*
X70873640Y61867742D01*
X70885955Y61936518D01*
X70933499Y61987718D01*
X70953581Y61997342D01*
X70969026Y62003103D01*
X70969027Y62003104D01*
X71047302Y62061698D01*
X73386000Y62061698D01*
X73386000Y62017685D01*
X73823000Y62017685D01*
X73823000Y62424685D01*
X73822999Y62424686D01*
X73748995Y62424685D01*
X73656728Y62410072D01*
X73545525Y62353410D01*
X73545520Y62353407D01*
X73457278Y62265165D01*
X73457275Y62265161D01*
X73400611Y62153951D01*
X73386000Y62061698D01*
X71047302Y62061698D01*
X71085047Y62089953D01*
X71123165Y62140873D01*
X71123165Y62140874D01*
X71171898Y62205976D01*
X71222547Y62341769D01*
X71228999Y62401773D01*
X71229000Y62401790D01*
X71229000Y62573000D01*
X69271001Y62573000D01*
X69271001Y62401784D01*
X69277452Y62341765D01*
X69277453Y62341762D01*
X69328099Y62205979D01*
X69328103Y62205973D01*
X69414952Y62089953D01*
X69530972Y62003104D01*
X69530975Y62003102D01*
X69546420Y61997341D01*
X69602354Y61955470D01*
X69626771Y61890006D01*
X69611920Y61821733D01*
X69562515Y61772327D01*
X69542092Y61763453D01*
X69455666Y61734814D01*
X69455663Y61734813D01*
X69306342Y61642711D01*
X69182289Y61518658D01*
X69090187Y61369337D01*
X69090185Y61369332D01*
X69069683Y61307461D01*
X69035001Y61202797D01*
X69035001Y61202796D01*
X69035000Y61202796D01*
X69024500Y61100017D01*
X68518094Y61100017D01*
X68560289Y61128211D01*
X68585609Y61153531D01*
X68622926Y61190847D01*
X68671786Y61239708D01*
X68671789Y61239711D01*
X68759394Y61370821D01*
X68819737Y61516503D01*
X68850500Y61671158D01*
X68850500Y61828842D01*
X68850500Y61828845D01*
X68850499Y61828847D01*
X68839646Y61883410D01*
X68819737Y61983497D01*
X68813730Y61998000D01*
X68759397Y62129173D01*
X68759390Y62129186D01*
X68671789Y62260289D01*
X68671786Y62260293D01*
X68560292Y62371787D01*
X68560288Y62371790D01*
X68429185Y62459391D01*
X68429172Y62459398D01*
X68283501Y62519736D01*
X68283489Y62519739D01*
X68128845Y62550500D01*
X68128842Y62550500D01*
X67971158Y62550500D01*
X67971155Y62550500D01*
X67816510Y62519739D01*
X67816498Y62519736D01*
X67670827Y62459398D01*
X67670814Y62459391D01*
X67539711Y62371790D01*
X67539707Y62371787D01*
X67428213Y62260293D01*
X67428210Y62260289D01*
X67340609Y62129186D01*
X67340602Y62129173D01*
X67280264Y61983502D01*
X67280261Y61983490D01*
X67249500Y61828847D01*
X66750500Y61828847D01*
X66750500Y62998228D01*
X69271000Y62998228D01*
X69271000Y62827000D01*
X70123000Y62827000D01*
X70377000Y62827000D01*
X71228999Y62827000D01*
X71228999Y62998208D01*
X71228998Y62998217D01*
X71222547Y63058236D01*
X71222546Y63058239D01*
X71171900Y63194022D01*
X71171896Y63194028D01*
X71085047Y63310048D01*
X70969027Y63396897D01*
X70969025Y63396898D01*
X70833231Y63447548D01*
X70773227Y63454000D01*
X70377000Y63454000D01*
X70377000Y62827000D01*
X70123000Y62827000D01*
X70123000Y63454000D01*
X69726792Y63454000D01*
X69726783Y63453999D01*
X69666764Y63447548D01*
X69666761Y63447547D01*
X69530978Y63396901D01*
X69530972Y63396897D01*
X69414952Y63310048D01*
X69328103Y63194028D01*
X69328102Y63194026D01*
X69277452Y63058232D01*
X69271000Y62998228D01*
X66750500Y62998228D01*
X66750500Y65811698D01*
X74936000Y65811698D01*
X74936000Y65767685D01*
X75373000Y65767685D01*
X75373000Y66174685D01*
X75627000Y66174685D01*
X75627000Y65767685D01*
X76173000Y65767685D01*
X76173000Y66174685D01*
X76172999Y66174686D01*
X76098995Y66174685D01*
X76006727Y66160072D01*
X76006725Y66160071D01*
X75956293Y66134374D01*
X75887624Y66121478D01*
X75843705Y66134374D01*
X75793267Y66160074D01*
X75701012Y66174685D01*
X75627000Y66174685D01*
X75373000Y66174685D01*
X75372999Y66174686D01*
X75298995Y66174685D01*
X75206728Y66160072D01*
X75095525Y66103410D01*
X75095520Y66103407D01*
X75007278Y66015165D01*
X75007275Y66015161D01*
X74950611Y65903951D01*
X74936000Y65811698D01*
X66750500Y65811698D01*
X66750500Y69497296D01*
X66750618Y69502705D01*
X66755733Y69619859D01*
X66767387Y69886770D01*
X66768327Y69897504D01*
X66818153Y70275965D01*
X66820031Y70286613D01*
X66902652Y70659296D01*
X66905439Y70669696D01*
X67020235Y71033783D01*
X67023919Y71043904D01*
X67170007Y71396590D01*
X67174565Y71406364D01*
X67350826Y71744957D01*
X67356221Y71754302D01*
X67561329Y72076260D01*
X67567519Y72085099D01*
X67799891Y72387932D01*
X67806841Y72396215D01*
X68064730Y72677653D01*
X68072357Y72685280D01*
X68353798Y72943175D01*
X68362062Y72950110D01*
X68664921Y73182504D01*
X68673760Y73188691D01*
X68995697Y73393789D01*
X69005038Y73399183D01*
X69343633Y73575447D01*
X69353424Y73580013D01*
X69706093Y73726095D01*
X69716229Y73729784D01*
X70080293Y73844576D01*
X70090731Y73847371D01*
X70463392Y73929991D01*
X70474028Y73931868D01*
X70852498Y73981696D01*
X70863232Y73982636D01*
X71225738Y73998466D01*
X71246731Y73999382D01*
X71252140Y73999500D01*
X90876000Y73999500D01*
X90943039Y73979815D01*
G37*
%TD.AperFunction*%
%TA.AperFunction,Conductor*%
G36*
X80388136Y53992207D02*
G01*
X80440392Y53945827D01*
X80459278Y53878558D01*
X80458226Y53863848D01*
X80445441Y53766736D01*
X80445440Y53766719D01*
X80445440Y53652457D01*
X80425755Y53585418D01*
X80372951Y53539663D01*
X80303793Y53529719D01*
X80301129Y53530132D01*
X80203395Y53546360D01*
X80180772Y53557292D01*
X80156667Y53564370D01*
X80146202Y53573998D01*
X80140485Y53576760D01*
X80136983Y53582479D01*
X80125330Y53593199D01*
X80112296Y53610185D01*
X80102807Y53622552D01*
X80041392Y53669677D01*
X79979978Y53716802D01*
X79887329Y53755178D01*
X79832926Y53799019D01*
X79810861Y53865313D01*
X79828140Y53933013D01*
X79879277Y53980623D01*
X79948037Y53993029D01*
X79950896Y53992687D01*
X79969900Y53990185D01*
X79969907Y53990185D01*
X80221973Y53990185D01*
X80221980Y53990185D01*
X80319102Y54002972D01*
X80388136Y53992207D01*
G37*
%TD.AperFunction*%
%TA.AperFunction,Conductor*%
G36*
X89938520Y59836386D02*
G01*
X89938878Y59837247D01*
X89944504Y59834917D01*
X89944505Y59834916D01*
X90081087Y59778342D01*
X90081091Y59778342D01*
X90081092Y59778341D01*
X90226079Y59749500D01*
X90226082Y59749500D01*
X90833908Y59749500D01*
X90833920Y59749501D01*
X90876000Y59749501D01*
X90943039Y59729816D01*
X90988794Y59677012D01*
X91000000Y59625501D01*
X91000000Y57181497D01*
X90980315Y57114458D01*
X90927511Y57068703D01*
X90858353Y57058759D01*
X90794797Y57087784D01*
X90788319Y57093816D01*
X88621622Y59260513D01*
X88621620Y59260515D01*
X88524496Y59316590D01*
X88490391Y59336281D01*
X88417205Y59355891D01*
X88344021Y59375500D01*
X88344020Y59375500D01*
X85008077Y59375500D01*
X84941038Y59395185D01*
X84895283Y59447989D01*
X84885339Y59517147D01*
X84914364Y59580703D01*
X84973142Y59618477D01*
X84973482Y59618576D01*
X85029216Y59634769D01*
X85109835Y59658191D01*
X85217415Y59721814D01*
X85285136Y59738997D01*
X85315127Y59734159D01*
X85459007Y59692357D01*
X85495310Y59689500D01*
X85495318Y59689500D01*
X85904682Y59689500D01*
X85904690Y59689500D01*
X85940993Y59692357D01*
X85940995Y59692358D01*
X85940997Y59692358D01*
X85981975Y59704264D01*
X86096395Y59737506D01*
X86136879Y59761449D01*
X86204602Y59778632D01*
X86263120Y59761449D01*
X86303605Y59737506D01*
X86315129Y59734158D01*
X86459002Y59692358D01*
X86459005Y59692358D01*
X86459007Y59692357D01*
X86495310Y59689500D01*
X86495318Y59689500D01*
X86904682Y59689500D01*
X86904690Y59689500D01*
X86940993Y59692357D01*
X86940995Y59692358D01*
X86940997Y59692358D01*
X86981975Y59704264D01*
X87096395Y59737506D01*
X87235687Y59819883D01*
X87235692Y59819889D01*
X87240324Y59823480D01*
X87305361Y59849014D01*
X87316324Y59849500D01*
X88258431Y59849500D01*
X89886160Y59849500D01*
X89938520Y59836386D01*
G37*
%TD.AperFunction*%
%TA.AperFunction,Conductor*%
G36*
X81037040Y62436888D02*
G01*
X81030000Y62419891D01*
X81030000Y62380109D01*
X81045224Y62343355D01*
X81073355Y62315224D01*
X81110109Y62300000D01*
X81149891Y62300000D01*
X81186645Y62315224D01*
X81214776Y62343355D01*
X81230000Y62380109D01*
X81230000Y62419891D01*
X81224407Y62433393D01*
X81263122Y62430628D01*
X81307483Y62402122D01*
X81564692Y62144912D01*
X81599653Y62205466D01*
X81610225Y62244920D01*
X81646590Y62304581D01*
X81709437Y62335110D01*
X81778812Y62326815D01*
X81832690Y62282330D01*
X81849775Y62244920D01*
X81860347Y62205464D01*
X81860348Y62205461D01*
X81895306Y62144913D01*
X82152516Y62402122D01*
X82213839Y62435607D01*
X82235857Y62434033D01*
X82230000Y62419891D01*
X82230000Y62380109D01*
X82245224Y62343355D01*
X82273355Y62315224D01*
X82310109Y62300000D01*
X82349891Y62300000D01*
X82363391Y62305593D01*
X82360622Y62266864D01*
X82332121Y62222517D01*
X82074910Y61965308D01*
X82074910Y61965307D01*
X82135459Y61930349D01*
X82135458Y61930349D01*
X82174920Y61919775D01*
X82234580Y61883410D01*
X82265109Y61820563D01*
X82256814Y61751187D01*
X82212329Y61697309D01*
X82174920Y61680225D01*
X82135462Y61669653D01*
X82074911Y61634694D01*
X82074910Y61634694D01*
X82332121Y61377484D01*
X82336459Y61369539D01*
X82343707Y61364113D01*
X82352941Y61339354D01*
X82365606Y61316161D01*
X82364960Y61307132D01*
X82368124Y61298649D01*
X82366886Y61292961D01*
X82349891Y61300000D01*
X82310109Y61300000D01*
X82273355Y61284776D01*
X82245224Y61256645D01*
X82230000Y61219891D01*
X82230000Y61180109D01*
X82245224Y61143355D01*
X82273355Y61115224D01*
X82310109Y61100000D01*
X82349891Y61100000D01*
X82363391Y61105593D01*
X82360622Y61066864D01*
X82332121Y61022517D01*
X82074910Y60765308D01*
X82074910Y60765307D01*
X82135459Y60730349D01*
X82135458Y60730349D01*
X82174920Y60719775D01*
X82234580Y60683410D01*
X82265109Y60620563D01*
X82256814Y60551187D01*
X82212329Y60497309D01*
X82174920Y60480225D01*
X82135462Y60469653D01*
X82074911Y60434694D01*
X82074910Y60434694D01*
X82332121Y60177484D01*
X82336459Y60169539D01*
X82343707Y60164113D01*
X82352941Y60139354D01*
X82365606Y60116161D01*
X82364960Y60107132D01*
X82368124Y60098649D01*
X82366886Y60092961D01*
X82349891Y60100000D01*
X82310109Y60100000D01*
X82273355Y60084776D01*
X82245224Y60056645D01*
X82230000Y60019891D01*
X82230000Y59980109D01*
X82245224Y59943355D01*
X82273355Y59915224D01*
X82310109Y59900000D01*
X82349891Y59900000D01*
X82363391Y59905593D01*
X82360622Y59866864D01*
X82332121Y59822517D01*
X82074910Y59565308D01*
X82074910Y59565307D01*
X82135459Y59530349D01*
X82135458Y59530349D01*
X82174920Y59519775D01*
X82234580Y59483410D01*
X82265109Y59420563D01*
X82256814Y59351187D01*
X82212329Y59297309D01*
X82174920Y59280225D01*
X82135462Y59269653D01*
X82074911Y59234694D01*
X82074910Y59234694D01*
X82332121Y58977484D01*
X82336459Y58969539D01*
X82343707Y58964113D01*
X82352941Y58939354D01*
X82365606Y58916161D01*
X82364960Y58907132D01*
X82368124Y58898649D01*
X82366886Y58892961D01*
X82349891Y58900000D01*
X82310109Y58900000D01*
X82273355Y58884776D01*
X82245224Y58856645D01*
X82230000Y58819891D01*
X82230000Y58780109D01*
X82235592Y58766609D01*
X82196863Y58769378D01*
X82152516Y58797879D01*
X81895306Y59055090D01*
X81895306Y59055089D01*
X81860347Y58994538D01*
X81849775Y58955080D01*
X81813410Y58895420D01*
X81750563Y58864891D01*
X81681187Y58873186D01*
X81627309Y58917671D01*
X81610225Y58955080D01*
X81599651Y58994541D01*
X81564693Y59055090D01*
X81307483Y58797879D01*
X81299537Y58793541D01*
X81294112Y58786293D01*
X81269352Y58777059D01*
X81246160Y58764394D01*
X81237130Y58765040D01*
X81228648Y58761876D01*
X81222960Y58763114D01*
X81230000Y58780109D01*
X81230000Y58819891D01*
X81214776Y58856645D01*
X81186645Y58884776D01*
X81149891Y58900000D01*
X81110109Y58900000D01*
X81073355Y58884776D01*
X81045224Y58856645D01*
X81030000Y58819891D01*
X81030000Y58780109D01*
X81035592Y58766609D01*
X80996863Y58769378D01*
X80952516Y58797879D01*
X80695306Y59055090D01*
X80695306Y59055089D01*
X80660347Y58994538D01*
X80649775Y58955080D01*
X80613410Y58895420D01*
X80550563Y58864891D01*
X80481187Y58873186D01*
X80427309Y58917671D01*
X80410225Y58955080D01*
X80399651Y58994541D01*
X80364693Y59055090D01*
X80107483Y58797879D01*
X80099537Y58793541D01*
X80094112Y58786293D01*
X80069352Y58777059D01*
X80046160Y58764394D01*
X80037130Y58765040D01*
X80028648Y58761876D01*
X80022960Y58763114D01*
X80030000Y58780109D01*
X80030000Y58819891D01*
X80014776Y58856645D01*
X79986645Y58884776D01*
X79949891Y58900000D01*
X79910109Y58900000D01*
X79873355Y58884776D01*
X79845224Y58856645D01*
X79830000Y58819891D01*
X79830000Y58780109D01*
X79835592Y58766609D01*
X79796863Y58769378D01*
X79752516Y58797879D01*
X79495306Y59055090D01*
X79495306Y59055089D01*
X79460347Y58994538D01*
X79449775Y58955080D01*
X79413410Y58895420D01*
X79350563Y58864891D01*
X79281187Y58873186D01*
X79227309Y58917671D01*
X79210225Y58955080D01*
X79199651Y58994541D01*
X79164693Y59055090D01*
X79164692Y59055090D01*
X78907483Y58797879D01*
X78899537Y58793541D01*
X78894112Y58786293D01*
X78869352Y58777059D01*
X78846160Y58764394D01*
X78837130Y58765040D01*
X78828648Y58761876D01*
X78822960Y58763114D01*
X78830000Y58780109D01*
X78830000Y58819891D01*
X78814776Y58856645D01*
X78786645Y58884776D01*
X78749891Y58900000D01*
X78710109Y58900000D01*
X78696607Y58894408D01*
X78699377Y58933137D01*
X78727878Y58977484D01*
X78985087Y59234694D01*
X78924539Y59269652D01*
X78924536Y59269653D01*
X78885080Y59280225D01*
X78825419Y59316590D01*
X78794890Y59379437D01*
X78803185Y59448812D01*
X78847670Y59502690D01*
X78885080Y59519775D01*
X78924534Y59530347D01*
X78985086Y59565307D01*
X79674910Y59565307D01*
X79735459Y59530349D01*
X79735458Y59530349D01*
X79774920Y59519775D01*
X79834580Y59483410D01*
X79865109Y59420563D01*
X79856814Y59351187D01*
X79812329Y59297309D01*
X79774920Y59280225D01*
X79735462Y59269653D01*
X79674911Y59234694D01*
X79674910Y59234694D01*
X79929999Y58979606D01*
X80185087Y59234694D01*
X80124539Y59269652D01*
X80124536Y59269653D01*
X80085080Y59280225D01*
X80025419Y59316590D01*
X79994890Y59379437D01*
X80003185Y59448812D01*
X80047670Y59502690D01*
X80085080Y59519775D01*
X80124534Y59530347D01*
X80185086Y59565307D01*
X80874910Y59565307D01*
X80935459Y59530349D01*
X80935458Y59530349D01*
X80974920Y59519775D01*
X81034580Y59483410D01*
X81065109Y59420563D01*
X81056814Y59351187D01*
X81012329Y59297309D01*
X80974920Y59280225D01*
X80935462Y59269653D01*
X80874911Y59234694D01*
X80874910Y59234694D01*
X81129999Y58979606D01*
X81385088Y59234694D01*
X81324539Y59269652D01*
X81324536Y59269653D01*
X81285080Y59280225D01*
X81225419Y59316590D01*
X81194890Y59379437D01*
X81203185Y59448812D01*
X81247670Y59502690D01*
X81285080Y59519775D01*
X81324534Y59530347D01*
X81385088Y59565308D01*
X81130001Y59820395D01*
X80874910Y59565307D01*
X80185086Y59565307D01*
X80185088Y59565308D01*
X79930001Y59820395D01*
X79674910Y59565307D01*
X78985086Y59565307D01*
X78985088Y59565308D01*
X78727878Y59822517D01*
X78723536Y59830468D01*
X78716283Y59835899D01*
X78707053Y59860656D01*
X78694393Y59883840D01*
X78695039Y59892878D01*
X78691874Y59901367D01*
X78693109Y59907042D01*
X78710109Y59900000D01*
X78749891Y59900000D01*
X78786645Y59915224D01*
X78814776Y59943355D01*
X78830000Y59980109D01*
X78830000Y60000001D01*
X78909603Y60000001D01*
X79164692Y59744912D01*
X79199653Y59805466D01*
X79210225Y59844920D01*
X79246590Y59904581D01*
X79309437Y59935110D01*
X79378812Y59926815D01*
X79432690Y59882330D01*
X79449775Y59844920D01*
X79460347Y59805464D01*
X79460348Y59805461D01*
X79495306Y59744913D01*
X79495307Y59744912D01*
X79750394Y59999999D01*
X79750394Y60000000D01*
X79730503Y60019891D01*
X79830000Y60019891D01*
X79830000Y59980109D01*
X79845224Y59943355D01*
X79873355Y59915224D01*
X79910109Y59900000D01*
X79949891Y59900000D01*
X79986645Y59915224D01*
X80014776Y59943355D01*
X80030000Y59980109D01*
X80030000Y60000000D01*
X80109605Y60000000D01*
X80109605Y59999999D01*
X80364692Y59744912D01*
X80399653Y59805466D01*
X80410225Y59844920D01*
X80446590Y59904581D01*
X80509437Y59935110D01*
X80578812Y59926815D01*
X80632690Y59882330D01*
X80649775Y59844920D01*
X80660347Y59805464D01*
X80660348Y59805461D01*
X80695306Y59744913D01*
X80695307Y59744912D01*
X80950394Y59999999D01*
X80950394Y60000000D01*
X80930503Y60019891D01*
X81030000Y60019891D01*
X81030000Y59980109D01*
X81045224Y59943355D01*
X81073355Y59915224D01*
X81110109Y59900000D01*
X81149891Y59900000D01*
X81186645Y59915224D01*
X81214776Y59943355D01*
X81230000Y59980109D01*
X81230000Y60000000D01*
X81309605Y60000000D01*
X81309605Y59999999D01*
X81564692Y59744912D01*
X81599653Y59805466D01*
X81610225Y59844920D01*
X81646590Y59904581D01*
X81709437Y59935110D01*
X81778812Y59926815D01*
X81832690Y59882330D01*
X81849775Y59844920D01*
X81860347Y59805464D01*
X81860348Y59805461D01*
X81895306Y59744913D01*
X82150394Y60000001D01*
X81895306Y60255090D01*
X81895306Y60255089D01*
X81860347Y60194538D01*
X81849775Y60155080D01*
X81813410Y60095420D01*
X81750563Y60064891D01*
X81681187Y60073186D01*
X81627309Y60117671D01*
X81610225Y60155080D01*
X81599651Y60194541D01*
X81564693Y60255090D01*
X81309605Y60000000D01*
X81230000Y60000000D01*
X81230000Y60019891D01*
X81214776Y60056645D01*
X81186645Y60084776D01*
X81149891Y60100000D01*
X81110109Y60100000D01*
X81073355Y60084776D01*
X81045224Y60056645D01*
X81030000Y60019891D01*
X80930503Y60019891D01*
X80695306Y60255089D01*
X80660347Y60194538D01*
X80649775Y60155080D01*
X80613410Y60095420D01*
X80550563Y60064891D01*
X80481187Y60073186D01*
X80427309Y60117671D01*
X80410225Y60155080D01*
X80399651Y60194541D01*
X80364693Y60255090D01*
X80109605Y60000000D01*
X80030000Y60000000D01*
X80030000Y60019891D01*
X80014776Y60056645D01*
X79986645Y60084776D01*
X79949891Y60100000D01*
X79910109Y60100000D01*
X79873355Y60084776D01*
X79845224Y60056645D01*
X79830000Y60019891D01*
X79730503Y60019891D01*
X79495305Y60255089D01*
X79460347Y60194538D01*
X79449775Y60155080D01*
X79413410Y60095420D01*
X79350563Y60064891D01*
X79281187Y60073186D01*
X79227309Y60117671D01*
X79210225Y60155080D01*
X79199651Y60194541D01*
X79164693Y60255090D01*
X78909603Y60000001D01*
X78830000Y60000001D01*
X78830000Y60019891D01*
X78814776Y60056645D01*
X78786645Y60084776D01*
X78749891Y60100000D01*
X78710109Y60100000D01*
X78696607Y60094408D01*
X78699377Y60133137D01*
X78727878Y60177484D01*
X78985087Y60434694D01*
X78924539Y60469652D01*
X78924536Y60469653D01*
X78885080Y60480225D01*
X78825419Y60516590D01*
X78794890Y60579437D01*
X78803185Y60648812D01*
X78847670Y60702690D01*
X78885080Y60719775D01*
X78924534Y60730347D01*
X78985086Y60765307D01*
X79674910Y60765307D01*
X79735459Y60730349D01*
X79735458Y60730349D01*
X79774920Y60719775D01*
X79834580Y60683410D01*
X79865109Y60620563D01*
X79856814Y60551187D01*
X79812329Y60497309D01*
X79774920Y60480225D01*
X79735462Y60469653D01*
X79674911Y60434694D01*
X79930000Y60179606D01*
X80185088Y60434693D01*
X80185087Y60434694D01*
X80124539Y60469652D01*
X80124536Y60469653D01*
X80085080Y60480225D01*
X80025419Y60516590D01*
X79994890Y60579437D01*
X80003185Y60648812D01*
X80047670Y60702690D01*
X80085080Y60719775D01*
X80124534Y60730347D01*
X80185086Y60765307D01*
X80874910Y60765307D01*
X80935459Y60730349D01*
X80935458Y60730349D01*
X80974920Y60719775D01*
X81034580Y60683410D01*
X81065109Y60620563D01*
X81056814Y60551187D01*
X81012329Y60497309D01*
X80974920Y60480225D01*
X80935462Y60469653D01*
X80874911Y60434694D01*
X81130000Y60179606D01*
X81385088Y60434693D01*
X81385087Y60434694D01*
X81324539Y60469652D01*
X81324536Y60469653D01*
X81285080Y60480225D01*
X81225419Y60516590D01*
X81194890Y60579437D01*
X81203185Y60648812D01*
X81247670Y60702690D01*
X81285080Y60719775D01*
X81324534Y60730347D01*
X81385088Y60765308D01*
X81130001Y61020395D01*
X80874910Y60765307D01*
X80185086Y60765307D01*
X80185088Y60765308D01*
X79930001Y61020395D01*
X79674910Y60765307D01*
X78985086Y60765307D01*
X78985088Y60765308D01*
X78727878Y61022517D01*
X78723536Y61030468D01*
X78716283Y61035899D01*
X78707053Y61060656D01*
X78694393Y61083840D01*
X78695039Y61092878D01*
X78691874Y61101367D01*
X78693109Y61107042D01*
X78710109Y61100000D01*
X78749891Y61100000D01*
X78786645Y61115224D01*
X78814776Y61143355D01*
X78830000Y61180109D01*
X78830000Y61200001D01*
X78909603Y61200001D01*
X79164692Y60944912D01*
X79199653Y61005466D01*
X79210225Y61044920D01*
X79246590Y61104581D01*
X79309437Y61135110D01*
X79378812Y61126815D01*
X79432690Y61082330D01*
X79449775Y61044920D01*
X79460347Y61005464D01*
X79460348Y61005461D01*
X79495306Y60944913D01*
X79495307Y60944912D01*
X79750394Y61199999D01*
X79750394Y61200000D01*
X79730503Y61219891D01*
X79830000Y61219891D01*
X79830000Y61180109D01*
X79845224Y61143355D01*
X79873355Y61115224D01*
X79910109Y61100000D01*
X79949891Y61100000D01*
X79986645Y61115224D01*
X80014776Y61143355D01*
X80030000Y61180109D01*
X80030000Y61200000D01*
X80109605Y61200000D01*
X80109605Y61199999D01*
X80364692Y60944912D01*
X80399653Y61005466D01*
X80410225Y61044920D01*
X80446590Y61104581D01*
X80509437Y61135110D01*
X80578812Y61126815D01*
X80632690Y61082330D01*
X80649775Y61044920D01*
X80660347Y61005464D01*
X80660348Y61005461D01*
X80695306Y60944913D01*
X80695307Y60944912D01*
X80950394Y61199999D01*
X80950394Y61200000D01*
X80930503Y61219891D01*
X81030000Y61219891D01*
X81030000Y61180109D01*
X81045224Y61143355D01*
X81073355Y61115224D01*
X81110109Y61100000D01*
X81149891Y61100000D01*
X81186645Y61115224D01*
X81214776Y61143355D01*
X81230000Y61180109D01*
X81230000Y61200000D01*
X81309605Y61200000D01*
X81309605Y61199999D01*
X81564692Y60944912D01*
X81599653Y61005466D01*
X81610225Y61044920D01*
X81646590Y61104581D01*
X81709437Y61135110D01*
X81778812Y61126815D01*
X81832690Y61082330D01*
X81849775Y61044920D01*
X81860347Y61005464D01*
X81860348Y61005461D01*
X81895306Y60944913D01*
X82150394Y61200001D01*
X81895306Y61455090D01*
X81895306Y61455089D01*
X81860347Y61394538D01*
X81849775Y61355080D01*
X81813410Y61295420D01*
X81750563Y61264891D01*
X81681187Y61273186D01*
X81627309Y61317671D01*
X81610225Y61355080D01*
X81599651Y61394541D01*
X81564693Y61455090D01*
X81309605Y61200000D01*
X81230000Y61200000D01*
X81230000Y61219891D01*
X81214776Y61256645D01*
X81186645Y61284776D01*
X81149891Y61300000D01*
X81110109Y61300000D01*
X81073355Y61284776D01*
X81045224Y61256645D01*
X81030000Y61219891D01*
X80930503Y61219891D01*
X80695306Y61455089D01*
X80660347Y61394538D01*
X80649775Y61355080D01*
X80613410Y61295420D01*
X80550563Y61264891D01*
X80481187Y61273186D01*
X80427309Y61317671D01*
X80410225Y61355080D01*
X80399651Y61394541D01*
X80364693Y61455090D01*
X80109605Y61200000D01*
X80030000Y61200000D01*
X80030000Y61219891D01*
X80014776Y61256645D01*
X79986645Y61284776D01*
X79949891Y61300000D01*
X79910109Y61300000D01*
X79873355Y61284776D01*
X79845224Y61256645D01*
X79830000Y61219891D01*
X79730503Y61219891D01*
X79495305Y61455089D01*
X79460347Y61394538D01*
X79449775Y61355080D01*
X79413410Y61295420D01*
X79350563Y61264891D01*
X79281187Y61273186D01*
X79227309Y61317671D01*
X79210225Y61355080D01*
X79199651Y61394541D01*
X79164693Y61455090D01*
X79164692Y61455090D01*
X78909603Y61200001D01*
X78830000Y61200001D01*
X78830000Y61219891D01*
X78814776Y61256645D01*
X78786645Y61284776D01*
X78749891Y61300000D01*
X78710109Y61300000D01*
X78696607Y61294408D01*
X78699377Y61333137D01*
X78727878Y61377484D01*
X78985087Y61634694D01*
X78924539Y61669652D01*
X78924536Y61669653D01*
X78885080Y61680225D01*
X78825419Y61716590D01*
X78794890Y61779437D01*
X78803185Y61848812D01*
X78847670Y61902690D01*
X78885080Y61919775D01*
X78924534Y61930347D01*
X78985088Y61965308D01*
X79674910Y61965308D01*
X79674910Y61965307D01*
X79735459Y61930349D01*
X79735458Y61930349D01*
X79774920Y61919775D01*
X79834580Y61883410D01*
X79865109Y61820563D01*
X79856814Y61751187D01*
X79812329Y61697309D01*
X79774920Y61680225D01*
X79735462Y61669653D01*
X79674911Y61634694D01*
X79930000Y61379606D01*
X80185088Y61634693D01*
X80185087Y61634694D01*
X80124539Y61669652D01*
X80124536Y61669653D01*
X80085080Y61680225D01*
X80025419Y61716590D01*
X79994890Y61779437D01*
X80003185Y61848812D01*
X80047670Y61902690D01*
X80085080Y61919775D01*
X80124534Y61930347D01*
X80185088Y61965308D01*
X80874910Y61965308D01*
X80874910Y61965307D01*
X80935459Y61930349D01*
X80935458Y61930349D01*
X80974920Y61919775D01*
X81034580Y61883410D01*
X81065109Y61820563D01*
X81056814Y61751187D01*
X81012329Y61697309D01*
X80974920Y61680225D01*
X80935462Y61669653D01*
X80874911Y61634694D01*
X81130000Y61379606D01*
X81385088Y61634693D01*
X81385087Y61634694D01*
X81324539Y61669652D01*
X81324536Y61669653D01*
X81285080Y61680225D01*
X81225419Y61716590D01*
X81194890Y61779437D01*
X81203185Y61848812D01*
X81247670Y61902690D01*
X81285080Y61919775D01*
X81324534Y61930347D01*
X81385088Y61965308D01*
X81129999Y62220397D01*
X80874910Y61965308D01*
X80185088Y61965308D01*
X79929999Y62220397D01*
X79674910Y61965308D01*
X78985088Y61965308D01*
X78727878Y62222517D01*
X78723539Y62230463D01*
X78716292Y62235888D01*
X78707057Y62260648D01*
X78694393Y62283840D01*
X78695038Y62292870D01*
X78691875Y62301352D01*
X78693112Y62307041D01*
X78710109Y62300000D01*
X78749891Y62300000D01*
X78786645Y62315224D01*
X78814776Y62343355D01*
X78830000Y62380109D01*
X78830000Y62419891D01*
X78824407Y62433393D01*
X78863136Y62430623D01*
X78907483Y62402122D01*
X79164692Y62144912D01*
X79199653Y62205466D01*
X79210225Y62244920D01*
X79246590Y62304581D01*
X79309437Y62335110D01*
X79378812Y62326815D01*
X79432690Y62282330D01*
X79449775Y62244920D01*
X79460347Y62205464D01*
X79460348Y62205461D01*
X79495306Y62144913D01*
X79752516Y62402122D01*
X79760461Y62406461D01*
X79765887Y62413708D01*
X79790646Y62422943D01*
X79813839Y62435607D01*
X79822868Y62434962D01*
X79831351Y62438125D01*
X79837040Y62436888D01*
X79830000Y62419891D01*
X79830000Y62380109D01*
X79845224Y62343355D01*
X79873355Y62315224D01*
X79910109Y62300000D01*
X79949891Y62300000D01*
X79986645Y62315224D01*
X80014776Y62343355D01*
X80030000Y62380109D01*
X80030000Y62419891D01*
X80024407Y62433393D01*
X80063122Y62430628D01*
X80107483Y62402122D01*
X80364692Y62144912D01*
X80399653Y62205466D01*
X80410225Y62244920D01*
X80446590Y62304581D01*
X80509437Y62335110D01*
X80578812Y62326815D01*
X80632690Y62282330D01*
X80649775Y62244920D01*
X80660347Y62205464D01*
X80660348Y62205461D01*
X80695306Y62144913D01*
X80952516Y62402122D01*
X80960461Y62406461D01*
X80965887Y62413708D01*
X80990646Y62422943D01*
X81013839Y62435607D01*
X81022868Y62434962D01*
X81031351Y62438125D01*
X81037040Y62436888D01*
G37*
%TD.AperFunction*%
%TA.AperFunction,Conductor*%
G36*
X84076494Y67517570D02*
G01*
X84081689Y67518398D01*
X84097980Y67511260D01*
X84129060Y67502134D01*
X84169545Y67478191D01*
X84180064Y67475135D01*
X84324942Y67433043D01*
X84324945Y67433043D01*
X84324947Y67433042D01*
X84361250Y67430185D01*
X84568653Y67430185D01*
X84635692Y67410500D01*
X84681447Y67357696D01*
X84691391Y67288538D01*
X84687729Y67271590D01*
X84655797Y67161683D01*
X84655796Y67161677D01*
X84652940Y67125383D01*
X84652940Y66687820D01*
X84633255Y66620781D01*
X84594038Y66582282D01*
X84514784Y66533398D01*
X84390729Y66409343D01*
X84298627Y66260022D01*
X84298625Y66260017D01*
X84284372Y66217004D01*
X84245497Y66099685D01*
X84243441Y66093481D01*
X84243440Y66093480D01*
X84236866Y66029125D01*
X84210470Y65964434D01*
X84153289Y65924282D01*
X84094110Y65919255D01*
X84001012Y65934000D01*
X83927000Y65934000D01*
X83927000Y65524000D01*
X83924449Y65515315D01*
X83925738Y65506353D01*
X83914759Y65482313D01*
X83907315Y65456961D01*
X83900474Y65451034D01*
X83896713Y65442797D01*
X83874478Y65428508D01*
X83854511Y65411206D01*
X83843996Y65408919D01*
X83837935Y65405023D01*
X83803000Y65400000D01*
X83797000Y65400000D01*
X83729961Y65419685D01*
X83684206Y65472489D01*
X83673000Y65524000D01*
X83673000Y65934000D01*
X83672999Y65934001D01*
X83598993Y65934000D01*
X83515434Y65920766D01*
X83446140Y65929722D01*
X83395725Y65970347D01*
X83392728Y65974471D01*
X83304475Y66062725D01*
X83193265Y66119389D01*
X83101012Y66134000D01*
X83027000Y66134000D01*
X83027000Y65724000D01*
X83024449Y65715315D01*
X83025738Y65706353D01*
X83014759Y65682313D01*
X83007315Y65656961D01*
X83000474Y65651034D01*
X82996713Y65642797D01*
X82974478Y65628508D01*
X82954511Y65611206D01*
X82943996Y65608919D01*
X82937935Y65605023D01*
X82903000Y65600000D01*
X82900000Y65600000D01*
X82900000Y65597000D01*
X82880315Y65529961D01*
X82827511Y65484206D01*
X82776000Y65473000D01*
X82229500Y65473000D01*
X82162461Y65492685D01*
X82116706Y65545489D01*
X82105500Y65597000D01*
X82105500Y65603000D01*
X82125185Y65670039D01*
X82177989Y65715794D01*
X82229500Y65727000D01*
X82773000Y65727000D01*
X82773000Y66134000D01*
X82772999Y66134001D01*
X82698995Y66134000D01*
X82606727Y66119387D01*
X82606725Y66119386D01*
X82556293Y66093689D01*
X82487624Y66080793D01*
X82443705Y66093689D01*
X82393267Y66119389D01*
X82301012Y66134000D01*
X82229500Y66134000D01*
X82220814Y66136551D01*
X82211853Y66135262D01*
X82187812Y66146241D01*
X82162461Y66153685D01*
X82156533Y66160526D01*
X82148297Y66164287D01*
X82134007Y66186522D01*
X82116706Y66206489D01*
X82114418Y66217004D01*
X82110523Y66223065D01*
X82105500Y66258000D01*
X82105500Y66447503D01*
X82125185Y66514542D01*
X82141819Y66535184D01*
X82699501Y67092866D01*
X82760824Y67126351D01*
X82787182Y67129185D01*
X83415703Y67129185D01*
X83415705Y67129185D01*
X83562074Y67168404D01*
X83693304Y67244170D01*
X83890480Y67441348D01*
X83924907Y67465646D01*
X83933943Y67469944D01*
X83962335Y67478191D01*
X84007643Y67504987D01*
X84012692Y67507387D01*
X84041886Y67512047D01*
X84070542Y67519317D01*
X84076494Y67517570D01*
G37*
%TD.AperFunction*%
%TD*%
%TA.AperFunction,Conductor*%
%TO.N,GND*%
G36*
X98692539Y56980315D02*
G01*
X98738294Y56927511D01*
X98749500Y56876000D01*
X98749500Y53502705D01*
X98749382Y53497296D01*
X98732615Y53113248D01*
X98731672Y53102472D01*
X98681851Y52724042D01*
X98679973Y52713389D01*
X98597357Y52340728D01*
X98594557Y52330279D01*
X98479778Y51966246D01*
X98476078Y51956080D01*
X98330006Y51603430D01*
X98325434Y51593626D01*
X98149187Y51255060D01*
X98143779Y51245692D01*
X97938689Y50923765D01*
X97932484Y50914903D01*
X97700110Y50612068D01*
X97693156Y50603781D01*
X97435294Y50322376D01*
X97427645Y50314727D01*
X97146213Y50056845D01*
X97137926Y50049892D01*
X96835109Y49817533D01*
X96826248Y49811328D01*
X96504318Y49606238D01*
X96494950Y49600830D01*
X96156371Y49424578D01*
X96146566Y49420006D01*
X95793926Y49273941D01*
X95783761Y49270241D01*
X95419725Y49155462D01*
X95409275Y49152662D01*
X95036612Y49070048D01*
X95025959Y49068170D01*
X94647531Y49018352D01*
X94636755Y49017409D01*
X94252130Y49000619D01*
X94246724Y49000501D01*
X94214422Y49000501D01*
X94184112Y49000501D01*
X94184108Y49000501D01*
X94176504Y49000500D01*
X94176503Y49000501D01*
X94176502Y49000500D01*
X91000000Y49000500D01*
X91000000Y51366741D01*
X91037443Y51341722D01*
X91081265Y51312440D01*
X91081271Y51312437D01*
X91081272Y51312436D01*
X91216999Y51256216D01*
X91353253Y51229114D01*
X91361081Y51227557D01*
X91361085Y51227556D01*
X91361086Y51227556D01*
X91507997Y51227556D01*
X91507998Y51227557D01*
X91652083Y51256216D01*
X91787810Y51312436D01*
X91909961Y51394055D01*
X92013842Y51497936D01*
X92095461Y51620087D01*
X92127332Y51697032D01*
X92171169Y51751431D01*
X92237463Y51773497D01*
X92289344Y51764137D01*
X92341291Y51742620D01*
X92341299Y51742618D01*
X92351974Y51740494D01*
X92351975Y51740495D01*
X92351975Y52477974D01*
X92371660Y52545013D01*
X92424464Y52590768D01*
X92475975Y52601974D01*
X92550613Y52601974D01*
X92580053Y52593330D01*
X92610040Y52586806D01*
X92615055Y52583052D01*
X92617652Y52582289D01*
X92638294Y52565655D01*
X92783359Y52420590D01*
X92816844Y52359267D01*
X92811860Y52289575D01*
X92798780Y52264018D01*
X92707573Y52127519D01*
X92707568Y52127510D01*
X92640163Y51964779D01*
X92640161Y51964771D01*
X92605800Y51792025D01*
X92605800Y51615874D01*
X92640161Y51443128D01*
X92640163Y51443120D01*
X92661699Y51391128D01*
X92669168Y51321658D01*
X92637893Y51259179D01*
X92594591Y51229114D01*
X92518116Y51197437D01*
X92518106Y51197432D01*
X92395962Y51115817D01*
X92395958Y51115814D01*
X92292083Y51011939D01*
X92292080Y51011935D01*
X92210465Y50889791D01*
X92210460Y50889782D01*
X92154243Y50754060D01*
X92154240Y50754050D01*
X92125582Y50609975D01*
X92125582Y50463056D01*
X92153565Y50322376D01*
X92154242Y50318973D01*
X92164626Y50293904D01*
X92210460Y50183249D01*
X92210465Y50183240D01*
X92292080Y50061096D01*
X92292083Y50061092D01*
X92395958Y49957217D01*
X92395962Y49957214D01*
X92518106Y49875599D01*
X92518112Y49875596D01*
X92518113Y49875595D01*
X92653840Y49819375D01*
X92797922Y49790716D01*
X92797926Y49790715D01*
X92797927Y49790715D01*
X92944838Y49790715D01*
X92944839Y49790716D01*
X93088924Y49819375D01*
X93224651Y49875595D01*
X93346802Y49957214D01*
X93450683Y50061095D01*
X93532302Y50183246D01*
X93588522Y50318973D01*
X93617182Y50463060D01*
X93617182Y50609970D01*
X93602039Y50686100D01*
X93608266Y50755688D01*
X93651128Y50810866D01*
X93699463Y50831906D01*
X93760829Y50844112D01*
X93923563Y50911519D01*
X94070019Y51009378D01*
X94194571Y51133930D01*
X94292430Y51280386D01*
X94359837Y51443120D01*
X94393282Y51611268D01*
X94425666Y51673175D01*
X94486381Y51707750D01*
X94490663Y51708683D01*
X94658855Y51742137D01*
X94821589Y51809544D01*
X94968045Y51907403D01*
X95092597Y52031955D01*
X95190456Y52178411D01*
X95257863Y52341145D01*
X95291309Y52509295D01*
X95323693Y52571203D01*
X95384409Y52605777D01*
X95388670Y52606705D01*
X95556880Y52640163D01*
X95719614Y52707570D01*
X95866070Y52805429D01*
X95990622Y52929981D01*
X96088481Y53076437D01*
X96155888Y53239171D01*
X96190251Y53411929D01*
X96190251Y53588071D01*
X96155888Y53760829D01*
X96088481Y53923563D01*
X96088480Y53923564D01*
X96088477Y53923570D01*
X96037156Y54000377D01*
X96016278Y54067055D01*
X96034762Y54134435D01*
X96086741Y54181125D01*
X96092780Y54183819D01*
X96098333Y54186118D01*
X96220484Y54267737D01*
X96324365Y54371618D01*
X96405984Y54493769D01*
X96462204Y54629496D01*
X96490864Y54773583D01*
X96490864Y54920493D01*
X96462204Y55064580D01*
X96405984Y55200307D01*
X96405983Y55200308D01*
X96405980Y55200314D01*
X96324365Y55322458D01*
X96324362Y55322462D01*
X96220487Y55426337D01*
X96220483Y55426340D01*
X96098339Y55507955D01*
X96098330Y55507960D01*
X95962608Y55564177D01*
X95962609Y55564177D01*
X95962606Y55564178D01*
X95962602Y55564179D01*
X95962598Y55564180D01*
X95818523Y55592838D01*
X95818519Y55592838D01*
X95671609Y55592838D01*
X95671604Y55592838D01*
X95527529Y55564180D01*
X95527519Y55564177D01*
X95391797Y55507960D01*
X95391788Y55507955D01*
X95269644Y55426340D01*
X95269640Y55426337D01*
X95165765Y55322462D01*
X95165762Y55322458D01*
X95084147Y55200314D01*
X95084140Y55200300D01*
X95081852Y55194776D01*
X95038010Y55140374D01*
X94971715Y55118312D01*
X94904016Y55135593D01*
X94898402Y55139131D01*
X94821595Y55190452D01*
X94821586Y55190457D01*
X94658856Y55257862D01*
X94634751Y55262657D01*
X94533454Y55282806D01*
X94516697Y55291571D01*
X94498221Y55295590D01*
X94473186Y55314331D01*
X94471546Y55315189D01*
X94469967Y55316741D01*
X94321788Y55464920D01*
X94306367Y55483710D01*
X94221789Y55610289D01*
X94221786Y55610293D01*
X94110289Y55721790D01*
X93979184Y55809391D01*
X93979181Y55809393D01*
X93979179Y55809394D01*
X93965589Y55815023D01*
X93944151Y55826482D01*
X93877867Y55870772D01*
X93877855Y55870779D01*
X93750383Y55923579D01*
X93750373Y55923582D01*
X93615047Y55950500D01*
X93615045Y55950500D01*
X93477057Y55950500D01*
X93477055Y55950500D01*
X93341728Y55923582D01*
X93341718Y55923579D01*
X93214243Y55870778D01*
X93099496Y55794107D01*
X93098443Y55793242D01*
X93097784Y55792963D01*
X93094442Y55790729D01*
X93094018Y55791364D01*
X93034129Y55765940D01*
X92965263Y55777743D01*
X92932114Y55801428D01*
X92773029Y55960513D01*
X92773027Y55960515D01*
X92707412Y55998398D01*
X92641798Y56036281D01*
X92568612Y56055891D01*
X92495428Y56075500D01*
X92495427Y56075500D01*
X91857997Y56075500D01*
X91790958Y56095185D01*
X91770316Y56111819D01*
X91093816Y56788319D01*
X91060331Y56849642D01*
X91065315Y56919334D01*
X91107187Y56975267D01*
X91172651Y56999684D01*
X91181497Y57000000D01*
X98625500Y57000000D01*
X98692539Y56980315D01*
G37*
%TD.AperFunction*%
%TA.AperFunction,Conductor*%
G36*
X91104181Y54167034D02*
G01*
X91130476Y54164681D01*
X91139724Y54158621D01*
X91146480Y54157021D01*
X91153886Y54149340D01*
X91172760Y54136971D01*
X91935243Y53374488D01*
X91968728Y53313165D01*
X91963744Y53243473D01*
X91935245Y53199127D01*
X91907792Y53171674D01*
X91809992Y53025307D01*
X91809987Y53025298D01*
X91742620Y52862658D01*
X91742619Y52862655D01*
X91730422Y52801340D01*
X91698036Y52739430D01*
X91637319Y52704857D01*
X91584615Y52703916D01*
X91536989Y52713389D01*
X91507996Y52719156D01*
X91361086Y52719156D01*
X91361081Y52719156D01*
X91217006Y52690498D01*
X91216996Y52690495D01*
X91081274Y52634278D01*
X91081265Y52634273D01*
X91000000Y52579973D01*
X91000000Y54162057D01*
X91016399Y54162057D01*
X91069614Y54172643D01*
X91078489Y54173115D01*
X91104181Y54167034D01*
G37*
%TD.AperFunction*%
%TD*%
M02*
