%TF.GenerationSoftware,KiCad,Pcbnew,9.0.4-9.0.4-0~ubuntu24.04.1*%
%TF.CreationDate,2025-08-22T01:07:09-04:00*%
%TF.ProjectId,tire_sensor_jlcpcb,74697265-5f73-4656-9e73-6f725f6a6c63,rev?*%
%TF.SameCoordinates,Original*%
%TF.FileFunction,Copper,L4,Bot*%
%TF.FilePolarity,Positive*%
%FSLAX46Y46*%
G04 Gerber Fmt 4.6, Leading zero omitted, Abs format (unit mm)*
G04 Created by KiCad (PCBNEW 9.0.4-9.0.4-0~ubuntu24.04.1) date 2025-08-22 01:07:09*
%MOMM*%
%LPD*%
G01*
G04 APERTURE LIST*
G04 Aperture macros list*
%AMRoundRect*
0 Rectangle with rounded corners*
0 $1 Rounding radius*
0 $2 $3 $4 $5 $6 $7 $8 $9 X,Y pos of 4 corners*
0 Add a 4 corners polygon primitive as box body*
4,1,4,$2,$3,$4,$5,$6,$7,$8,$9,$2,$3,0*
0 Add four circle primitives for the rounded corners*
1,1,$1+$1,$2,$3*
1,1,$1+$1,$4,$5*
1,1,$1+$1,$6,$7*
1,1,$1+$1,$8,$9*
0 Add four rect primitives between the rounded corners*
20,1,$1+$1,$2,$3,$4,$5,0*
20,1,$1+$1,$4,$5,$6,$7,0*
20,1,$1+$1,$6,$7,$8,$9,0*
20,1,$1+$1,$8,$9,$2,$3,0*%
G04 Aperture macros list end*
%TA.AperFunction,ComponentPad*%
%ADD10R,0.500000X0.900000*%
%TD*%
%TA.AperFunction,HeatsinkPad*%
%ADD11C,0.500000*%
%TD*%
%TA.AperFunction,HeatsinkPad*%
%ADD12R,4.100000X4.100000*%
%TD*%
%TA.AperFunction,SMDPad,CuDef*%
%ADD13RoundRect,0.200000X-1.100000X-1.550000X1.100000X-1.550000X1.100000X1.550000X-1.100000X1.550000X0*%
%TD*%
%TA.AperFunction,ViaPad*%
%ADD14C,0.600000*%
%TD*%
%TA.AperFunction,ViaPad*%
%ADD15C,3.250000*%
%TD*%
%TA.AperFunction,Conductor*%
%ADD16C,0.500000*%
%TD*%
%TA.AperFunction,Conductor*%
%ADD17C,0.150000*%
%TD*%
%TA.AperFunction,Conductor*%
%ADD18C,0.152400*%
%TD*%
G04 APERTURE END LIST*
D10*
%TO.P,AE1,2,Shield*%
%TO.N,GND*%
X90750000Y58400000D03*
%TD*%
D11*
%TO.P,U1,49,GND*%
%TO.N,GND*%
X78730000Y62400000D03*
X78730000Y61200000D03*
X78730000Y60000000D03*
X78730000Y58800000D03*
X79930000Y62400000D03*
X79930000Y61200000D03*
X79930000Y60000000D03*
X79930000Y58800000D03*
D12*
X80530000Y60600000D03*
D11*
X81130000Y62400000D03*
X81130000Y61200000D03*
X81130000Y60000000D03*
X81130000Y58800000D03*
X82330000Y62400000D03*
X82330000Y61200000D03*
X82330000Y60000000D03*
X82330000Y58800000D03*
%TD*%
D13*
%TO.P,BT1,1,+*%
%TO.N,VDD_NRF*%
X68050000Y61750000D03*
%TO.P,BT1,2,-*%
%TO.N,GND*%
X97450000Y61750000D03*
%TD*%
D14*
%TO.N,GND*%
X98183440Y56890685D03*
X97433440Y56890685D03*
X96683440Y56890685D03*
X95933440Y56890685D03*
X95183440Y56890685D03*
X94433440Y56890685D03*
X93683440Y56890685D03*
X92933440Y56890685D03*
X92183440Y56890685D03*
X91433440Y56890685D03*
X90743215Y57390685D03*
X85433440Y59390685D03*
X86183440Y59640685D03*
X86933440Y59640685D03*
X87683440Y59640685D03*
X88433440Y59640685D03*
X89183440Y59640685D03*
X89933440Y59640685D03*
X90683440Y59390685D03*
X87683440Y61390685D03*
X88433440Y61390685D03*
X89183440Y61390685D03*
X89933440Y61390685D03*
X90683440Y61390685D03*
X90683440Y62140685D03*
X90683440Y62890685D03*
X90683440Y63640685D03*
X90683440Y64390685D03*
X90683440Y65140685D03*
X90683440Y65890685D03*
X90683440Y66640685D03*
X90683440Y67390685D03*
X90683440Y68140685D03*
X90683440Y68890685D03*
X90683440Y69640685D03*
X90683440Y70390685D03*
X90683440Y71140685D03*
X90683440Y71890685D03*
X90683440Y72640685D03*
X90683440Y73390685D03*
X86400000Y67400000D03*
%TO.N,VDD_NRF*%
X88500000Y53000000D03*
X83800000Y64400000D03*
X72250000Y56500000D03*
X70250000Y60750000D03*
X68050000Y61750000D03*
X93600000Y55100000D03*
X77300000Y64500000D03*
X77335000Y71387500D03*
X78400000Y53050000D03*
X78250000Y56500000D03*
%TO.N,GND*%
X83800000Y65400000D03*
X88700000Y68000000D03*
X97450000Y56150000D03*
X69000000Y56500000D03*
X86700000Y62300000D03*
X89500000Y54000000D03*
X83400000Y67000000D03*
D15*
X70750000Y70250000D03*
D14*
X77300000Y66080000D03*
X85200000Y63900000D03*
X88500000Y54000000D03*
X82900000Y65600000D03*
X89000000Y62500000D03*
X78250000Y50500000D03*
X84750000Y55500000D03*
X74200000Y72600000D03*
X86900000Y66100000D03*
X78600000Y66300000D03*
X87000000Y56750000D03*
X77250000Y56500000D03*
X87000000Y71800000D03*
X78250000Y54000000D03*
X82100000Y65600000D03*
X79250000Y54000000D03*
X74200000Y61800000D03*
X84800000Y61075000D03*
X71000000Y66750000D03*
X88400000Y65000000D03*
X76300000Y65400000D03*
X75750000Y58750000D03*
D15*
X70750000Y52750000D03*
D14*
X75500000Y65400000D03*
X86680000Y61400000D03*
X70250000Y62750000D03*
%TO.N,/nRESET*%
X90937557Y54962557D03*
X92037443Y54962557D03*
%TO.N,/SDO*%
X81671956Y53722419D03*
X81671956Y55950000D03*
X83880000Y53100000D03*
%TO.N,/CS_DPS368*%
X80880000Y55700000D03*
%TO.N,/SDI*%
X83880000Y54145400D03*
%TO.N,/SCK*%
X83880000Y56550000D03*
%TO.N,/INT_LIS3DHTR*%
X86482403Y53550000D03*
X79730000Y56550000D03*
%TO.N,/CS_LIS3DHTR*%
X80601400Y56550000D03*
X85730000Y53550000D03*
%TD*%
D16*
%TO.N,GND*%
X97450000Y56150000D02*
X97450000Y61750000D01*
D17*
%TO.N,VDD_NRF*%
X69100000Y62800000D02*
X68050000Y61750000D01*
%TO.N,/nRESET*%
X92037443Y54962557D02*
X90937557Y54962557D01*
D18*
%TO.N,/SDO*%
X81671956Y55950000D02*
X81671956Y53722419D01*
%TO.N,/INT_LIS3DHTR*%
X85380000Y53950000D02*
X85507200Y54077200D01*
X79730000Y56550000D02*
X80257200Y57077200D01*
X80257200Y57077200D02*
X82252800Y57077200D01*
X85507200Y54077200D02*
X85955203Y54077200D01*
X85955203Y54077200D02*
X86482403Y53550000D01*
X82252800Y57077200D02*
X85380000Y53950000D01*
%TO.N,/CS_LIS3DHTR*%
X85280000Y53550000D02*
X85730000Y53550000D01*
X82280000Y56550000D02*
X85280000Y53550000D01*
X80601400Y56550000D02*
X82280000Y56550000D01*
X80601400Y56550000D02*
X80701400Y56450000D01*
%TD*%
M02*
