%TF.GenerationSoftware,KiCad,Pcbnew,9.0.4-9.0.4-0~ubuntu24.04.1*%
%TF.CreationDate,2025-08-22T01:07:09-04:00*%
%TF.ProjectId,tire_sensor_jlcpcb,74697265-5f73-4656-9e73-6f725f6a6c63,rev?*%
%TF.SameCoordinates,Original*%
%TF.FileFunction,Copper,L3,Inr*%
%TF.FilePolarity,Positive*%
%FSLAX46Y46*%
G04 Gerber Fmt 4.6, Leading zero omitted, Abs format (unit mm)*
G04 Created by KiCad (PCBNEW 9.0.4-9.0.4-0~ubuntu24.04.1) date 2025-08-22 01:07:09*
%MOMM*%
%LPD*%
G01*
G04 APERTURE LIST*
%TA.AperFunction,ComponentPad*%
%ADD10R,0.500000X0.900000*%
%TD*%
%TA.AperFunction,HeatsinkPad*%
%ADD11C,0.500000*%
%TD*%
%TA.AperFunction,ViaPad*%
%ADD12C,0.600000*%
%TD*%
%TA.AperFunction,ViaPad*%
%ADD13C,3.250000*%
%TD*%
G04 APERTURE END LIST*
D10*
%TO.N,GND*%
%TO.C,AE1*%
X90750000Y58400000D03*
%TD*%
D11*
%TO.N,GND*%
%TO.C,U1*%
X78730000Y62400000D03*
X78730000Y61200000D03*
X78730000Y60000000D03*
X78730000Y58800000D03*
X79930000Y62400000D03*
X79930000Y61200000D03*
X79930000Y60000000D03*
X79930000Y58800000D03*
X81130000Y62400000D03*
X81130000Y61200000D03*
X81130000Y60000000D03*
X81130000Y58800000D03*
X82330000Y62400000D03*
X82330000Y61200000D03*
X82330000Y60000000D03*
X82330000Y58800000D03*
%TD*%
D12*
%TO.N,GND*%
X98183440Y56890685D03*
X97433440Y56890685D03*
X96683440Y56890685D03*
X95933440Y56890685D03*
X95183440Y56890685D03*
X94433440Y56890685D03*
X93683440Y56890685D03*
X92933440Y56890685D03*
X92183440Y56890685D03*
X91433440Y56890685D03*
X90743215Y57390685D03*
X85433440Y59390685D03*
X86183440Y59640685D03*
X86933440Y59640685D03*
X87683440Y59640685D03*
X88433440Y59640685D03*
X89183440Y59640685D03*
X89933440Y59640685D03*
X90683440Y59390685D03*
X87683440Y61390685D03*
X88433440Y61390685D03*
X89183440Y61390685D03*
X89933440Y61390685D03*
X90683440Y61390685D03*
X90683440Y62140685D03*
X90683440Y62890685D03*
X90683440Y63640685D03*
X90683440Y64390685D03*
X90683440Y65140685D03*
X90683440Y65890685D03*
X90683440Y66640685D03*
X90683440Y67390685D03*
X90683440Y68140685D03*
X90683440Y68890685D03*
X90683440Y69640685D03*
X90683440Y70390685D03*
X90683440Y71140685D03*
X90683440Y71890685D03*
X90683440Y72640685D03*
X90683440Y73390685D03*
X86400000Y67400000D03*
%TO.N,VDD_NRF*%
X88500000Y53000000D03*
X83800000Y64400000D03*
X72250000Y56500000D03*
X70250000Y60750000D03*
X68050000Y61750000D03*
X93600000Y55100000D03*
X77300000Y64500000D03*
X77335000Y71387500D03*
X78400000Y53050000D03*
X78250000Y56500000D03*
%TO.N,GND*%
X83800000Y65400000D03*
X88700000Y68000000D03*
X97450000Y56150000D03*
X69000000Y56500000D03*
X86700000Y62300000D03*
X89500000Y54000000D03*
X83400000Y67000000D03*
D13*
X70750000Y70250000D03*
D12*
X77300000Y66080000D03*
X85200000Y63900000D03*
X88500000Y54000000D03*
X82900000Y65600000D03*
X89000000Y62500000D03*
X78250000Y50500000D03*
X84750000Y55500000D03*
X74200000Y72600000D03*
X86900000Y66100000D03*
X78600000Y66300000D03*
X87000000Y56750000D03*
X77250000Y56500000D03*
X87000000Y71800000D03*
X78250000Y54000000D03*
X82100000Y65600000D03*
X79250000Y54000000D03*
X74200000Y61800000D03*
X84800000Y61075000D03*
X71000000Y66750000D03*
X88400000Y65000000D03*
X76300000Y65400000D03*
X75750000Y58750000D03*
D13*
X70750000Y52750000D03*
D12*
X75500000Y65400000D03*
X86680000Y61400000D03*
X70250000Y62750000D03*
%TO.N,/nRESET*%
X90937557Y54962557D03*
X92037443Y54962557D03*
%TO.N,/SDO*%
X81671956Y53722419D03*
X81671956Y55950000D03*
X83880000Y53100000D03*
%TO.N,/CS_DPS368*%
X80880000Y55700000D03*
%TO.N,/SDI*%
X83880000Y54145400D03*
%TO.N,/SCK*%
X83880000Y56550000D03*
%TO.N,/INT_LIS3DHTR*%
X86482403Y53550000D03*
X79730000Y56550000D03*
%TO.N,/CS_LIS3DHTR*%
X80601400Y56550000D03*
X85730000Y53550000D03*
%TD*%
%TA.AperFunction,Conductor*%
%TO.N,VDD_NRF*%
G36*
X89962535Y73979815D02*
G01*
X90008290Y73927011D01*
X90018234Y73857853D01*
X89998598Y73806609D01*
X89974049Y73769870D01*
X89974042Y73769858D01*
X89913704Y73624187D01*
X89913701Y73624175D01*
X89882940Y73469532D01*
X89882940Y73311839D01*
X89913701Y73157196D01*
X89913704Y73157184D01*
X89952659Y73063137D01*
X89960128Y72993667D01*
X89952659Y72968233D01*
X89913704Y72874187D01*
X89913701Y72874175D01*
X89882940Y72719532D01*
X89882940Y72561839D01*
X89913701Y72407196D01*
X89913704Y72407184D01*
X89952659Y72313137D01*
X89960128Y72243667D01*
X89952659Y72218233D01*
X89913704Y72124187D01*
X89913701Y72124175D01*
X89882940Y71969532D01*
X89882940Y71811839D01*
X89913701Y71657196D01*
X89913704Y71657184D01*
X89952659Y71563137D01*
X89960128Y71493667D01*
X89952659Y71468233D01*
X89913704Y71374187D01*
X89913701Y71374175D01*
X89882940Y71219532D01*
X89882940Y71061839D01*
X89913701Y70907196D01*
X89913704Y70907184D01*
X89952659Y70813137D01*
X89960128Y70743667D01*
X89952659Y70718233D01*
X89913704Y70624187D01*
X89913701Y70624175D01*
X89882940Y70469532D01*
X89882940Y70311839D01*
X89913701Y70157196D01*
X89913704Y70157184D01*
X89952659Y70063137D01*
X89960128Y69993667D01*
X89952659Y69968233D01*
X89913704Y69874187D01*
X89913701Y69874175D01*
X89882940Y69719532D01*
X89882940Y69561839D01*
X89913701Y69407196D01*
X89913704Y69407184D01*
X89952659Y69313137D01*
X89960128Y69243667D01*
X89952659Y69218233D01*
X89913704Y69124187D01*
X89913701Y69124175D01*
X89882940Y68969532D01*
X89882940Y68811839D01*
X89913701Y68657196D01*
X89913704Y68657184D01*
X89952659Y68563137D01*
X89960128Y68493667D01*
X89952659Y68468233D01*
X89913704Y68374187D01*
X89913701Y68374175D01*
X89882940Y68219532D01*
X89882940Y68061839D01*
X89913701Y67907196D01*
X89913704Y67907184D01*
X89952659Y67813137D01*
X89960128Y67743667D01*
X89952659Y67718233D01*
X89913704Y67624187D01*
X89913701Y67624175D01*
X89882940Y67469532D01*
X89882940Y67311839D01*
X89913701Y67157196D01*
X89913704Y67157184D01*
X89952659Y67063137D01*
X89960128Y66993667D01*
X89952659Y66968233D01*
X89913704Y66874187D01*
X89913701Y66874175D01*
X89882940Y66719532D01*
X89882940Y66561839D01*
X89913701Y66407196D01*
X89913704Y66407184D01*
X89952659Y66313137D01*
X89960128Y66243667D01*
X89952659Y66218233D01*
X89913704Y66124187D01*
X89913701Y66124175D01*
X89882940Y65969532D01*
X89882940Y65811839D01*
X89913701Y65657196D01*
X89913704Y65657184D01*
X89952659Y65563137D01*
X89960128Y65493667D01*
X89952659Y65468233D01*
X89913704Y65374187D01*
X89913701Y65374175D01*
X89882940Y65219532D01*
X89882940Y65061839D01*
X89913701Y64907196D01*
X89913704Y64907184D01*
X89952659Y64813137D01*
X89960128Y64743667D01*
X89952659Y64718233D01*
X89913704Y64624187D01*
X89913701Y64624175D01*
X89882940Y64469532D01*
X89882940Y64311839D01*
X89913701Y64157196D01*
X89913704Y64157184D01*
X89952659Y64063137D01*
X89960128Y63993667D01*
X89952659Y63968233D01*
X89913704Y63874187D01*
X89913701Y63874175D01*
X89882940Y63719532D01*
X89882940Y63561839D01*
X89913701Y63407196D01*
X89913704Y63407184D01*
X89952659Y63313137D01*
X89960128Y63243667D01*
X89952659Y63218233D01*
X89913704Y63124187D01*
X89913701Y63124177D01*
X89887681Y62993368D01*
X89855296Y62931457D01*
X89794580Y62896883D01*
X89724810Y62900624D01*
X89668138Y62941490D01*
X89662968Y62948660D01*
X89621789Y63010289D01*
X89621787Y63010292D01*
X89510292Y63121787D01*
X89510288Y63121790D01*
X89379185Y63209391D01*
X89379172Y63209398D01*
X89233501Y63269736D01*
X89233489Y63269739D01*
X89078845Y63300500D01*
X89078842Y63300500D01*
X88921158Y63300500D01*
X88921155Y63300500D01*
X88766510Y63269739D01*
X88766498Y63269736D01*
X88620827Y63209398D01*
X88620814Y63209391D01*
X88489711Y63121790D01*
X88489707Y63121787D01*
X88378213Y63010293D01*
X88378210Y63010289D01*
X88290609Y62879186D01*
X88290602Y62879173D01*
X88230264Y62733502D01*
X88230261Y62733490D01*
X88199500Y62578847D01*
X88199500Y62421154D01*
X88227595Y62279909D01*
X88224765Y62248283D01*
X88223632Y62216559D01*
X88221674Y62213740D01*
X88221368Y62210317D01*
X88201884Y62185238D01*
X88183784Y62159167D01*
X88179792Y62156799D01*
X88178504Y62155140D01*
X88153431Y62141157D01*
X88105893Y62121466D01*
X88036424Y62113997D01*
X88010988Y62121466D01*
X87916941Y62160421D01*
X87916929Y62160424D01*
X87762285Y62191185D01*
X87762282Y62191185D01*
X87624500Y62191185D01*
X87557461Y62210870D01*
X87511706Y62263674D01*
X87500500Y62315185D01*
X87500500Y62378845D01*
X87500499Y62378847D01*
X87469737Y62533497D01*
X87469735Y62533502D01*
X87409397Y62679173D01*
X87409390Y62679186D01*
X87321789Y62810289D01*
X87321786Y62810293D01*
X87210292Y62921787D01*
X87210288Y62921790D01*
X87079185Y63009391D01*
X87079172Y63009398D01*
X86933501Y63069736D01*
X86933489Y63069739D01*
X86778845Y63100500D01*
X86778842Y63100500D01*
X86621158Y63100500D01*
X86621155Y63100500D01*
X86466510Y63069739D01*
X86466498Y63069736D01*
X86320827Y63009398D01*
X86320814Y63009391D01*
X86189711Y62921790D01*
X86189707Y62921787D01*
X86078213Y62810293D01*
X86078210Y62810289D01*
X85990609Y62679186D01*
X85990602Y62679173D01*
X85930264Y62533502D01*
X85930261Y62533490D01*
X85899500Y62378847D01*
X85899500Y62221154D01*
X85930261Y62066511D01*
X85930264Y62066499D01*
X85992937Y61915192D01*
X85990824Y61914317D01*
X86002985Y61855894D01*
X85982488Y61796963D01*
X85970611Y61779188D01*
X85970602Y61779172D01*
X85910264Y61633502D01*
X85910261Y61633490D01*
X85879500Y61478847D01*
X85879500Y61321154D01*
X85910261Y61166511D01*
X85910264Y61166499D01*
X85970602Y61020828D01*
X85970609Y61020815D01*
X86058210Y60889712D01*
X86058213Y60889708D01*
X86169707Y60778214D01*
X86169711Y60778211D01*
X86300814Y60690610D01*
X86300821Y60690606D01*
X86331740Y60677799D01*
X86386143Y60633960D01*
X86408209Y60567666D01*
X86390931Y60499966D01*
X86339794Y60452355D01*
X86271035Y60439948D01*
X86264125Y60441004D01*
X86262285Y60441185D01*
X86262282Y60441185D01*
X86104598Y60441185D01*
X86104595Y60441185D01*
X85949950Y60410424D01*
X85949938Y60410421D01*
X85804267Y60350083D01*
X85804254Y60350076D01*
X85673154Y60262477D01*
X85673148Y60262473D01*
X85633863Y60223188D01*
X85572539Y60189704D01*
X85546221Y60186871D01*
X85533988Y60186868D01*
X85512282Y60191185D01*
X85354598Y60191185D01*
X85332591Y60186808D01*
X85320392Y60186804D01*
X85298094Y60193344D01*
X85274949Y60195416D01*
X85265195Y60202994D01*
X85253346Y60206469D01*
X85238123Y60224026D01*
X85219774Y60238282D01*
X85215665Y60249929D01*
X85207576Y60259259D01*
X85204262Y60282258D01*
X85196532Y60304173D01*
X85199373Y60316193D01*
X85197612Y60328415D01*
X85207258Y60349556D01*
X85212604Y60372169D01*
X85222359Y60382647D01*
X85226618Y60391979D01*
X85237659Y60399080D01*
X85251462Y60413905D01*
X85310289Y60453211D01*
X85421789Y60564711D01*
X85509394Y60695821D01*
X85569737Y60841503D01*
X85600500Y60996158D01*
X85600500Y61153842D01*
X85600500Y61153845D01*
X85600499Y61153847D01*
X85576615Y61273918D01*
X85569737Y61308497D01*
X85524002Y61418913D01*
X85509397Y61454173D01*
X85509390Y61454186D01*
X85421789Y61585289D01*
X85421786Y61585293D01*
X85310292Y61696787D01*
X85310288Y61696790D01*
X85179185Y61784391D01*
X85179172Y61784398D01*
X85033501Y61844736D01*
X85033489Y61844739D01*
X84878845Y61875500D01*
X84878842Y61875500D01*
X84721158Y61875500D01*
X84721155Y61875500D01*
X84566510Y61844739D01*
X84566498Y61844736D01*
X84420827Y61784398D01*
X84420814Y61784391D01*
X84289711Y61696790D01*
X84289707Y61696787D01*
X84178213Y61585293D01*
X84178210Y61585289D01*
X84090609Y61454186D01*
X84090602Y61454173D01*
X84030264Y61308502D01*
X84030261Y61308490D01*
X83999500Y61153847D01*
X83999500Y60996154D01*
X84030261Y60841511D01*
X84030264Y60841499D01*
X84090602Y60695828D01*
X84090609Y60695815D01*
X84178210Y60564712D01*
X84178213Y60564708D01*
X84289707Y60453214D01*
X84289711Y60453211D01*
X84420814Y60365610D01*
X84420827Y60365603D01*
X84540115Y60316193D01*
X84566503Y60305263D01*
X84721153Y60274501D01*
X84721156Y60274500D01*
X84721158Y60274500D01*
X84878842Y60274500D01*
X84888891Y60276499D01*
X84958481Y60270273D01*
X85013660Y60227411D01*
X85036906Y60161522D01*
X85020840Y60093525D01*
X84981976Y60051780D01*
X84923147Y60012472D01*
X84811653Y59900978D01*
X84811650Y59900974D01*
X84724049Y59769871D01*
X84724042Y59769858D01*
X84663704Y59624187D01*
X84663701Y59624175D01*
X84632940Y59469532D01*
X84632940Y59311839D01*
X84663701Y59157196D01*
X84663704Y59157184D01*
X84724042Y59011513D01*
X84724049Y59011500D01*
X84811650Y58880397D01*
X84811653Y58880393D01*
X84923147Y58768899D01*
X84923151Y58768896D01*
X85054254Y58681295D01*
X85054267Y58681288D01*
X85199938Y58620950D01*
X85199943Y58620948D01*
X85354593Y58590186D01*
X85354596Y58590185D01*
X85354598Y58590185D01*
X85512284Y58590185D01*
X85512285Y58590186D01*
X85666937Y58620948D01*
X85812619Y58681291D01*
X85943729Y58768896D01*
X85983013Y58808181D01*
X86044335Y58841666D01*
X86094890Y58842116D01*
X86104595Y58840185D01*
X86104598Y58840185D01*
X86262284Y58840185D01*
X86262285Y58840186D01*
X86416937Y58870948D01*
X86510990Y58909907D01*
X86580456Y58917375D01*
X86605883Y58909910D01*
X86699943Y58870948D01*
X86844890Y58842116D01*
X86854593Y58840186D01*
X86854596Y58840185D01*
X86854598Y58840185D01*
X87012284Y58840185D01*
X87012285Y58840186D01*
X87166937Y58870948D01*
X87260990Y58909907D01*
X87330456Y58917375D01*
X87355883Y58909910D01*
X87449943Y58870948D01*
X87594890Y58842116D01*
X87604593Y58840186D01*
X87604596Y58840185D01*
X87604598Y58840185D01*
X87762284Y58840185D01*
X87762285Y58840186D01*
X87916937Y58870948D01*
X88010990Y58909907D01*
X88080456Y58917375D01*
X88105883Y58909910D01*
X88199943Y58870948D01*
X88344890Y58842116D01*
X88354593Y58840186D01*
X88354596Y58840185D01*
X88354598Y58840185D01*
X88512284Y58840185D01*
X88512285Y58840186D01*
X88666937Y58870948D01*
X88760990Y58909907D01*
X88830456Y58917375D01*
X88855883Y58909910D01*
X88949943Y58870948D01*
X89094890Y58842116D01*
X89104593Y58840186D01*
X89104596Y58840185D01*
X89104598Y58840185D01*
X89262284Y58840185D01*
X89262285Y58840186D01*
X89416937Y58870948D01*
X89510990Y58909907D01*
X89580456Y58917375D01*
X89605883Y58909910D01*
X89699943Y58870948D01*
X89844890Y58842116D01*
X89854593Y58840186D01*
X89854596Y58840185D01*
X89854598Y58840185D01*
X89875500Y58840185D01*
X89942539Y58820500D01*
X89988294Y58767696D01*
X89999500Y58716185D01*
X89999500Y57902130D01*
X89999501Y57902124D01*
X90005908Y57842518D01*
X90016343Y57814542D01*
X90021327Y57744850D01*
X90014723Y57723758D01*
X89973477Y57624179D01*
X89973475Y57624174D01*
X89942715Y57469532D01*
X89942715Y57311839D01*
X89973476Y57157196D01*
X89973479Y57157184D01*
X90033817Y57011513D01*
X90033824Y57011500D01*
X90121425Y56880397D01*
X90121428Y56880393D01*
X90232922Y56768899D01*
X90232926Y56768896D01*
X90364029Y56681295D01*
X90364042Y56681288D01*
X90490660Y56628842D01*
X90509718Y56620948D01*
X90628881Y56597245D01*
X90690792Y56564861D01*
X90719250Y56523082D01*
X90724041Y56511515D01*
X90724049Y56511500D01*
X90811650Y56380397D01*
X90811653Y56380393D01*
X90923147Y56268899D01*
X90923151Y56268896D01*
X91000000Y56217547D01*
X91000000Y55763057D01*
X90858712Y55763057D01*
X90704067Y55732296D01*
X90704055Y55732293D01*
X90558384Y55671955D01*
X90558371Y55671948D01*
X90427268Y55584347D01*
X90427264Y55584344D01*
X90315770Y55472850D01*
X90315767Y55472846D01*
X90228166Y55341743D01*
X90228159Y55341730D01*
X90167821Y55196059D01*
X90167818Y55196047D01*
X90137057Y55041404D01*
X90137057Y54883711D01*
X90158171Y54777565D01*
X90151944Y54707974D01*
X90109081Y54652796D01*
X90043191Y54629552D01*
X89975194Y54645620D01*
X89967664Y54650272D01*
X89879190Y54709388D01*
X89879172Y54709398D01*
X89733501Y54769736D01*
X89733489Y54769739D01*
X89578845Y54800500D01*
X89578842Y54800500D01*
X89421158Y54800500D01*
X89421155Y54800500D01*
X89266510Y54769739D01*
X89266498Y54769736D01*
X89120827Y54709398D01*
X89120814Y54709391D01*
X89068891Y54674696D01*
X89002214Y54653818D01*
X88934833Y54672302D01*
X88931109Y54674696D01*
X88879185Y54709391D01*
X88879172Y54709398D01*
X88733501Y54769736D01*
X88733489Y54769739D01*
X88578845Y54800500D01*
X88578842Y54800500D01*
X88421158Y54800500D01*
X88421155Y54800500D01*
X88266510Y54769739D01*
X88266498Y54769736D01*
X88120827Y54709398D01*
X88120814Y54709391D01*
X87989711Y54621790D01*
X87989707Y54621787D01*
X87878213Y54510293D01*
X87878210Y54510289D01*
X87790609Y54379186D01*
X87790602Y54379173D01*
X87730264Y54233502D01*
X87730261Y54233490D01*
X87699500Y54078847D01*
X87699500Y53921154D01*
X87730261Y53766511D01*
X87730264Y53766499D01*
X87790602Y53620828D01*
X87790609Y53620815D01*
X87878210Y53489712D01*
X87878213Y53489708D01*
X87989707Y53378214D01*
X87989711Y53378211D01*
X88120814Y53290610D01*
X88120827Y53290603D01*
X88266498Y53230265D01*
X88266503Y53230263D01*
X88421153Y53199501D01*
X88421156Y53199500D01*
X88421158Y53199500D01*
X88578844Y53199500D01*
X88578845Y53199501D01*
X88733497Y53230263D01*
X88879179Y53290606D01*
X88931110Y53325306D01*
X88997785Y53346184D01*
X89065165Y53327700D01*
X89068863Y53325324D01*
X89120821Y53290606D01*
X89120823Y53290605D01*
X89120825Y53290604D01*
X89266498Y53230265D01*
X89266503Y53230263D01*
X89421153Y53199501D01*
X89421156Y53199500D01*
X89421158Y53199500D01*
X89578844Y53199500D01*
X89578845Y53199501D01*
X89733497Y53230263D01*
X89879179Y53290606D01*
X90010289Y53378211D01*
X90121789Y53489711D01*
X90209394Y53620821D01*
X90212719Y53628847D01*
X90243777Y53703829D01*
X90269737Y53766503D01*
X90300500Y53921158D01*
X90300500Y54078842D01*
X90300500Y54078845D01*
X90282012Y54171787D01*
X90279385Y54184994D01*
X90285612Y54254583D01*
X90328474Y54309761D01*
X90394364Y54333006D01*
X90462361Y54316939D01*
X90469893Y54312286D01*
X90558371Y54253167D01*
X90558384Y54253160D01*
X90704055Y54192822D01*
X90704060Y54192820D01*
X90858710Y54162058D01*
X90858713Y54162057D01*
X91000000Y54162057D01*
X91000000Y52579973D01*
X90959121Y52552658D01*
X90959117Y52552655D01*
X90855242Y52448780D01*
X90855239Y52448776D01*
X90773624Y52326632D01*
X90773619Y52326623D01*
X90717402Y52190901D01*
X90717399Y52190891D01*
X90688741Y52046816D01*
X90688741Y51899897D01*
X90717399Y51755822D01*
X90717402Y51755812D01*
X90773619Y51620090D01*
X90773624Y51620081D01*
X90855239Y51497937D01*
X90855242Y51497933D01*
X90959117Y51394058D01*
X90959121Y51394055D01*
X91000000Y51366741D01*
X91000000Y49000500D01*
X71252712Y49000500D01*
X71247302Y49000618D01*
X70863252Y49017389D01*
X70852476Y49018332D01*
X70474044Y49068156D01*
X70463391Y49070034D01*
X70090728Y49152653D01*
X70080279Y49155453D01*
X69716242Y49270235D01*
X69706077Y49273935D01*
X69353427Y49420008D01*
X69343623Y49424580D01*
X69005056Y49600827D01*
X68995688Y49606235D01*
X68673752Y49811330D01*
X68664891Y49817535D01*
X68362072Y50049896D01*
X68353785Y50056849D01*
X68072358Y50314727D01*
X68064709Y50322376D01*
X68045973Y50342822D01*
X67829694Y50578847D01*
X77449500Y50578847D01*
X77449500Y50421154D01*
X77480261Y50266511D01*
X77480264Y50266499D01*
X77540602Y50120828D01*
X77540609Y50120815D01*
X77628210Y49989712D01*
X77628213Y49989708D01*
X77739707Y49878214D01*
X77739711Y49878211D01*
X77870814Y49790610D01*
X77870827Y49790603D01*
X78016498Y49730265D01*
X78016503Y49730263D01*
X78171153Y49699501D01*
X78171156Y49699500D01*
X78171158Y49699500D01*
X78328844Y49699500D01*
X78328845Y49699501D01*
X78483497Y49730263D01*
X78629179Y49790606D01*
X78760289Y49878211D01*
X78871789Y49989711D01*
X78959394Y50120821D01*
X79019737Y50266503D01*
X79050500Y50421158D01*
X79050500Y50578842D01*
X79050500Y50578845D01*
X79050499Y50578847D01*
X79019737Y50733497D01*
X78975784Y50839610D01*
X78959397Y50879173D01*
X78959390Y50879186D01*
X78871789Y51010289D01*
X78871786Y51010293D01*
X78760292Y51121787D01*
X78760288Y51121790D01*
X78629185Y51209391D01*
X78629172Y51209398D01*
X78483501Y51269736D01*
X78483489Y51269739D01*
X78328845Y51300500D01*
X78328842Y51300500D01*
X78171158Y51300500D01*
X78171155Y51300500D01*
X78016510Y51269739D01*
X78016498Y51269736D01*
X77870827Y51209398D01*
X77870814Y51209391D01*
X77739711Y51121790D01*
X77739707Y51121787D01*
X77628213Y51010293D01*
X77628210Y51010289D01*
X77540609Y50879186D01*
X77540602Y50879173D01*
X77480264Y50733502D01*
X77480261Y50733490D01*
X77449500Y50578847D01*
X67829694Y50578847D01*
X67806823Y50603806D01*
X67799875Y50612087D01*
X67790350Y50624500D01*
X67567509Y50914909D01*
X67561307Y50923766D01*
X67506182Y51010293D01*
X67356213Y51245695D01*
X67350806Y51255059D01*
X67350204Y51256216D01*
X67174542Y51593650D01*
X67169985Y51603421D01*
X67023899Y51956096D01*
X67020200Y51966261D01*
X66905418Y52330288D01*
X66902618Y52340736D01*
X66891562Y52390603D01*
X66819992Y52713410D01*
X66818121Y52724021D01*
X66796358Y52889307D01*
X68624500Y52889307D01*
X68624500Y52610694D01*
X68624501Y52610678D01*
X68660866Y52334457D01*
X68660867Y52334452D01*
X68660868Y52334446D01*
X68699333Y52190891D01*
X68732981Y52065315D01*
X68732984Y52065305D01*
X68839604Y51807902D01*
X68839609Y51807891D01*
X68978914Y51566610D01*
X68978925Y51566594D01*
X69148533Y51345555D01*
X69148539Y51345548D01*
X69345547Y51148540D01*
X69345553Y51148535D01*
X69566602Y50978919D01*
X69566609Y50978915D01*
X69807890Y50839610D01*
X69807895Y50839608D01*
X69807898Y50839606D01*
X70065314Y50732981D01*
X70334446Y50660868D01*
X70610687Y50624500D01*
X70610694Y50624500D01*
X70889306Y50624500D01*
X70889313Y50624500D01*
X71165554Y50660868D01*
X71434686Y50732981D01*
X71692102Y50839606D01*
X71933398Y50978919D01*
X72154447Y51148535D01*
X72351465Y51345553D01*
X72521081Y51566602D01*
X72660394Y51807898D01*
X72767019Y52065314D01*
X72839132Y52334446D01*
X72875500Y52610687D01*
X72875500Y52889313D01*
X72839132Y53165554D01*
X72767019Y53434686D01*
X72751913Y53471154D01*
X72689922Y53620815D01*
X72660394Y53692102D01*
X72660392Y53692105D01*
X72660390Y53692110D01*
X72521085Y53933391D01*
X72521081Y53933398D01*
X72418904Y54066558D01*
X72409474Y54078847D01*
X77449500Y54078847D01*
X77449500Y53921154D01*
X77480261Y53766511D01*
X77480264Y53766499D01*
X77540602Y53620828D01*
X77540609Y53620815D01*
X77628210Y53489712D01*
X77628213Y53489708D01*
X77739707Y53378214D01*
X77739711Y53378211D01*
X77870814Y53290610D01*
X77870827Y53290603D01*
X78016498Y53230265D01*
X78016503Y53230263D01*
X78171153Y53199501D01*
X78171156Y53199500D01*
X78171158Y53199500D01*
X78328844Y53199500D01*
X78328845Y53199501D01*
X78483497Y53230263D01*
X78629179Y53290606D01*
X78681110Y53325306D01*
X78747785Y53346184D01*
X78815165Y53327700D01*
X78818863Y53325324D01*
X78870821Y53290606D01*
X78870823Y53290605D01*
X78870825Y53290604D01*
X79016498Y53230265D01*
X79016503Y53230263D01*
X79171153Y53199501D01*
X79171156Y53199500D01*
X79171158Y53199500D01*
X79328844Y53199500D01*
X79328845Y53199501D01*
X79483497Y53230263D01*
X79629179Y53290606D01*
X79760289Y53378211D01*
X79871789Y53489711D01*
X79959394Y53620821D01*
X79962719Y53628847D01*
X79993777Y53703829D01*
X80019737Y53766503D01*
X80026652Y53801266D01*
X80871456Y53801266D01*
X80871456Y53643573D01*
X80902217Y53488930D01*
X80902220Y53488918D01*
X80962558Y53343247D01*
X80962565Y53343234D01*
X81050166Y53212131D01*
X81050169Y53212127D01*
X81161663Y53100633D01*
X81161667Y53100630D01*
X81292770Y53013029D01*
X81292783Y53013022D01*
X81438454Y52952684D01*
X81438459Y52952682D01*
X81593109Y52921920D01*
X81593112Y52921919D01*
X81593114Y52921919D01*
X81750800Y52921919D01*
X81750801Y52921920D01*
X81905453Y52952682D01*
X82051135Y53013025D01*
X82182245Y53100630D01*
X82293745Y53212130D01*
X82381350Y53343240D01*
X82382570Y53346184D01*
X82441691Y53488918D01*
X82441693Y53488922D01*
X82472456Y53643577D01*
X82472456Y53801261D01*
X82472456Y53801264D01*
X82472455Y53801266D01*
X82466432Y53831545D01*
X82441693Y53955916D01*
X82441691Y53955921D01*
X82381353Y54101592D01*
X82381346Y54101605D01*
X82293745Y54232708D01*
X82293742Y54232712D01*
X82182248Y54344206D01*
X82182244Y54344209D01*
X82051141Y54431810D01*
X82051128Y54431817D01*
X81905457Y54492155D01*
X81905445Y54492158D01*
X81750801Y54522919D01*
X81750798Y54522919D01*
X81593114Y54522919D01*
X81593111Y54522919D01*
X81438466Y54492158D01*
X81438454Y54492155D01*
X81292783Y54431817D01*
X81292770Y54431810D01*
X81161667Y54344209D01*
X81161663Y54344206D01*
X81050169Y54232712D01*
X81050166Y54232708D01*
X80962565Y54101605D01*
X80962558Y54101592D01*
X80902220Y53955921D01*
X80902217Y53955909D01*
X80871456Y53801266D01*
X80026652Y53801266D01*
X80032675Y53831545D01*
X80050500Y53921156D01*
X80050500Y54078845D01*
X80050499Y54078847D01*
X80045975Y54101592D01*
X80019737Y54233497D01*
X80019735Y54233502D01*
X79959397Y54379173D01*
X79959390Y54379186D01*
X79871789Y54510289D01*
X79871786Y54510293D01*
X79760292Y54621787D01*
X79760288Y54621790D01*
X79629185Y54709391D01*
X79629172Y54709398D01*
X79483501Y54769736D01*
X79483489Y54769739D01*
X79328845Y54800500D01*
X79328842Y54800500D01*
X79171158Y54800500D01*
X79171155Y54800500D01*
X79016510Y54769739D01*
X79016498Y54769736D01*
X78870827Y54709398D01*
X78870814Y54709391D01*
X78818891Y54674696D01*
X78752214Y54653818D01*
X78684833Y54672302D01*
X78681109Y54674696D01*
X78629185Y54709391D01*
X78629172Y54709398D01*
X78483501Y54769736D01*
X78483489Y54769739D01*
X78328845Y54800500D01*
X78328842Y54800500D01*
X78171158Y54800500D01*
X78171155Y54800500D01*
X78016510Y54769739D01*
X78016498Y54769736D01*
X77870827Y54709398D01*
X77870814Y54709391D01*
X77739711Y54621790D01*
X77739707Y54621787D01*
X77628213Y54510293D01*
X77628210Y54510289D01*
X77540609Y54379186D01*
X77540602Y54379173D01*
X77480264Y54233502D01*
X77480261Y54233490D01*
X77449500Y54078847D01*
X72409474Y54078847D01*
X72351466Y54154446D01*
X72351460Y54154453D01*
X72154452Y54351461D01*
X72154445Y54351467D01*
X71933406Y54521075D01*
X71933404Y54521077D01*
X71933398Y54521081D01*
X71933393Y54521084D01*
X71933390Y54521086D01*
X71692109Y54660391D01*
X71692098Y54660396D01*
X71434695Y54767016D01*
X71434688Y54767018D01*
X71434686Y54767019D01*
X71165554Y54839132D01*
X71165548Y54839133D01*
X71165543Y54839134D01*
X70889322Y54875499D01*
X70889319Y54875500D01*
X70889313Y54875500D01*
X70610687Y54875500D01*
X70610681Y54875500D01*
X70610677Y54875499D01*
X70334456Y54839134D01*
X70334449Y54839133D01*
X70334446Y54839132D01*
X70190268Y54800500D01*
X70065314Y54767019D01*
X70065304Y54767016D01*
X69807901Y54660396D01*
X69807890Y54660391D01*
X69566609Y54521086D01*
X69566593Y54521075D01*
X69345554Y54351467D01*
X69345547Y54351461D01*
X69148539Y54154453D01*
X69148533Y54154446D01*
X68978925Y53933407D01*
X68978914Y53933391D01*
X68839609Y53692110D01*
X68839604Y53692099D01*
X68732984Y53434696D01*
X68732981Y53434686D01*
X68664429Y53178842D01*
X68660869Y53165557D01*
X68660866Y53165544D01*
X68624501Y52889323D01*
X68624500Y52889307D01*
X66796358Y52889307D01*
X66768287Y53102501D01*
X66767347Y53113242D01*
X66751365Y53479184D01*
X66750618Y53496279D01*
X66750500Y53501689D01*
X66750500Y56578847D01*
X68199500Y56578847D01*
X68199500Y56421154D01*
X68230261Y56266511D01*
X68230264Y56266499D01*
X68290602Y56120828D01*
X68290609Y56120815D01*
X68378210Y55989712D01*
X68378213Y55989708D01*
X68489707Y55878214D01*
X68489711Y55878211D01*
X68620814Y55790610D01*
X68620827Y55790603D01*
X68761602Y55732293D01*
X68766503Y55730263D01*
X68921153Y55699501D01*
X68921156Y55699500D01*
X68921158Y55699500D01*
X69078844Y55699500D01*
X69078845Y55699501D01*
X69233497Y55730263D01*
X69379179Y55790606D01*
X69510289Y55878211D01*
X69621789Y55989711D01*
X69709394Y56120821D01*
X69769737Y56266503D01*
X69800500Y56421158D01*
X69800500Y56578842D01*
X69800500Y56578845D01*
X69800499Y56578847D01*
X76449500Y56578847D01*
X76449500Y56421154D01*
X76480261Y56266511D01*
X76480264Y56266499D01*
X76540602Y56120828D01*
X76540609Y56120815D01*
X76628210Y55989712D01*
X76628213Y55989708D01*
X76739707Y55878214D01*
X76739711Y55878211D01*
X76870814Y55790610D01*
X76870827Y55790603D01*
X77011602Y55732293D01*
X77016503Y55730263D01*
X77171153Y55699501D01*
X77171156Y55699500D01*
X77171158Y55699500D01*
X77328844Y55699500D01*
X77328845Y55699501D01*
X77483497Y55730263D01*
X77629179Y55790606D01*
X77760289Y55878211D01*
X77871789Y55989711D01*
X77959394Y56120821D01*
X78019737Y56266503D01*
X78050500Y56421158D01*
X78050500Y56578842D01*
X78050500Y56578845D01*
X78044155Y56610742D01*
X78044155Y56610743D01*
X78040554Y56628847D01*
X78929500Y56628847D01*
X78929500Y56471154D01*
X78960261Y56316511D01*
X78960264Y56316499D01*
X79020602Y56170828D01*
X79020609Y56170815D01*
X79108210Y56039712D01*
X79108213Y56039708D01*
X79219707Y55928214D01*
X79219711Y55928211D01*
X79350814Y55840610D01*
X79350827Y55840603D01*
X79496498Y55780265D01*
X79496503Y55780263D01*
X79620587Y55755581D01*
X79651153Y55749501D01*
X79651156Y55749500D01*
X79651158Y55749500D01*
X79808844Y55749500D01*
X79931308Y55773860D01*
X80000900Y55767633D01*
X80056077Y55724770D01*
X80079322Y55658880D01*
X80079500Y55652243D01*
X80079500Y55621154D01*
X80110261Y55466511D01*
X80110264Y55466499D01*
X80170602Y55320828D01*
X80170609Y55320815D01*
X80258210Y55189712D01*
X80258213Y55189708D01*
X80369707Y55078214D01*
X80369711Y55078211D01*
X80500814Y54990610D01*
X80500827Y54990603D01*
X80646498Y54930265D01*
X80646503Y54930263D01*
X80801153Y54899501D01*
X80801156Y54899500D01*
X80801158Y54899500D01*
X80958844Y54899500D01*
X80958845Y54899501D01*
X81113497Y54930263D01*
X81259179Y54990606D01*
X81390289Y55078211D01*
X81436534Y55124457D01*
X81497856Y55157942D01*
X81548407Y55158393D01*
X81550675Y55157942D01*
X81593113Y55149500D01*
X81593114Y55149500D01*
X81750800Y55149500D01*
X81750801Y55149501D01*
X81905453Y55180263D01*
X82051135Y55240606D01*
X82182245Y55328211D01*
X82293745Y55439711D01*
X82381350Y55570821D01*
X82384675Y55578847D01*
X82434650Y55699500D01*
X82441693Y55716503D01*
X82472456Y55871158D01*
X82472456Y56028842D01*
X82472456Y56028845D01*
X82472455Y56028847D01*
X82454160Y56120821D01*
X82441693Y56183497D01*
X82441691Y56183502D01*
X82381353Y56329173D01*
X82381346Y56329186D01*
X82293745Y56460289D01*
X82293742Y56460293D01*
X82182248Y56571787D01*
X82182244Y56571790D01*
X82096853Y56628847D01*
X83079500Y56628847D01*
X83079500Y56471154D01*
X83110261Y56316511D01*
X83110264Y56316499D01*
X83170602Y56170828D01*
X83170609Y56170815D01*
X83258210Y56039712D01*
X83258213Y56039708D01*
X83369707Y55928214D01*
X83369711Y55928211D01*
X83500814Y55840610D01*
X83500827Y55840603D01*
X83646498Y55780265D01*
X83646503Y55780263D01*
X83770587Y55755581D01*
X83801153Y55749501D01*
X83801156Y55749500D01*
X83832351Y55749500D01*
X83899390Y55729815D01*
X83945145Y55677011D01*
X83955089Y55607853D01*
X83953969Y55601310D01*
X83949500Y55578842D01*
X83949500Y55421154D01*
X83980261Y55266511D01*
X83980264Y55266499D01*
X84042042Y55117352D01*
X84049511Y55047883D01*
X84018235Y54985404D01*
X83958146Y54949752D01*
X83927481Y54945900D01*
X83801155Y54945900D01*
X83646510Y54915139D01*
X83646498Y54915136D01*
X83500827Y54854798D01*
X83500814Y54854791D01*
X83369711Y54767190D01*
X83369707Y54767187D01*
X83258213Y54655693D01*
X83258210Y54655689D01*
X83170609Y54524586D01*
X83170602Y54524573D01*
X83110264Y54378902D01*
X83110261Y54378890D01*
X83079500Y54224247D01*
X83079500Y54066554D01*
X83110261Y53911911D01*
X83110264Y53911899D01*
X83170602Y53766228D01*
X83170608Y53766217D01*
X83220472Y53691590D01*
X83241349Y53624913D01*
X83222864Y53557533D01*
X83220472Y53553810D01*
X83170608Y53479184D01*
X83170602Y53479173D01*
X83110264Y53333502D01*
X83110261Y53333490D01*
X83079500Y53178847D01*
X83079500Y53021154D01*
X83110261Y52866511D01*
X83110264Y52866499D01*
X83170602Y52720828D01*
X83170609Y52720815D01*
X83258210Y52589712D01*
X83258213Y52589708D01*
X83369707Y52478214D01*
X83369711Y52478211D01*
X83500814Y52390610D01*
X83500827Y52390603D01*
X83646498Y52330265D01*
X83646503Y52330263D01*
X83801153Y52299501D01*
X83801156Y52299500D01*
X83801158Y52299500D01*
X83958844Y52299500D01*
X83958845Y52299501D01*
X84113497Y52330263D01*
X84259179Y52390606D01*
X84390289Y52478211D01*
X84501789Y52589711D01*
X84589394Y52720821D01*
X84649737Y52866503D01*
X84680500Y53021158D01*
X84680500Y53178842D01*
X84680500Y53178845D01*
X84680499Y53178847D01*
X84673879Y53212127D01*
X84649737Y53333497D01*
X84645701Y53343240D01*
X84589397Y53479173D01*
X84589390Y53479186D01*
X84539528Y53553809D01*
X84533553Y53572888D01*
X84523047Y53589898D01*
X84523326Y53605550D01*
X84518650Y53620486D01*
X84520943Y53628847D01*
X84929500Y53628847D01*
X84929500Y53471154D01*
X84960261Y53316511D01*
X84960264Y53316499D01*
X85020602Y53170828D01*
X85020609Y53170815D01*
X85108210Y53039712D01*
X85108213Y53039708D01*
X85219707Y52928214D01*
X85219711Y52928211D01*
X85350814Y52840610D01*
X85350827Y52840603D01*
X85496498Y52780265D01*
X85496503Y52780263D01*
X85651153Y52749501D01*
X85651156Y52749500D01*
X85651158Y52749500D01*
X85808844Y52749500D01*
X85808845Y52749501D01*
X85963497Y52780263D01*
X86058750Y52819719D01*
X86128217Y52827187D01*
X86153649Y52819720D01*
X86248906Y52780263D01*
X86403556Y52749501D01*
X86403559Y52749500D01*
X86403561Y52749500D01*
X86561247Y52749500D01*
X86561248Y52749501D01*
X86715900Y52780263D01*
X86861582Y52840606D01*
X86992692Y52928211D01*
X87104192Y53039711D01*
X87191797Y53170821D01*
X87195122Y53178847D01*
X87252138Y53316499D01*
X87252140Y53316503D01*
X87282903Y53471158D01*
X87282903Y53628842D01*
X87282903Y53628845D01*
X87282902Y53628847D01*
X87271162Y53687866D01*
X87252140Y53783497D01*
X87244780Y53801266D01*
X87191800Y53929173D01*
X87191793Y53929186D01*
X87104192Y54060289D01*
X87104189Y54060293D01*
X86992695Y54171787D01*
X86992691Y54171790D01*
X86861588Y54259391D01*
X86861575Y54259398D01*
X86715904Y54319736D01*
X86715892Y54319739D01*
X86561248Y54350500D01*
X86561245Y54350500D01*
X86403561Y54350500D01*
X86403558Y54350500D01*
X86248914Y54319740D01*
X86248913Y54319739D01*
X86248910Y54319738D01*
X86248906Y54319737D01*
X86153650Y54280282D01*
X86084183Y54272814D01*
X86058749Y54280283D01*
X85963498Y54319737D01*
X85963488Y54319740D01*
X85808845Y54350500D01*
X85808842Y54350500D01*
X85651158Y54350500D01*
X85651155Y54350500D01*
X85496510Y54319739D01*
X85496498Y54319736D01*
X85350827Y54259398D01*
X85350814Y54259391D01*
X85219711Y54171790D01*
X85219707Y54171787D01*
X85108213Y54060293D01*
X85108210Y54060289D01*
X85020609Y53929186D01*
X85020602Y53929173D01*
X84960264Y53783502D01*
X84960261Y53783490D01*
X84929500Y53628847D01*
X84520943Y53628847D01*
X84523938Y53639765D01*
X84524296Y53659756D01*
X84536311Y53684868D01*
X84537134Y53687866D01*
X84539530Y53691594D01*
X84547705Y53703828D01*
X84547705Y53703829D01*
X84589390Y53766215D01*
X84589391Y53766217D01*
X84589394Y53766221D01*
X84649737Y53911903D01*
X84680500Y54066558D01*
X84680500Y54224242D01*
X84680500Y54224245D01*
X84680499Y54224247D01*
X84661505Y54319736D01*
X84649737Y54378897D01*
X84619346Y54452268D01*
X84587958Y54528048D01*
X84580489Y54597517D01*
X84611765Y54659996D01*
X84671854Y54695648D01*
X84702519Y54699500D01*
X84828844Y54699500D01*
X84828845Y54699501D01*
X84983497Y54730263D01*
X85129179Y54790606D01*
X85260289Y54878211D01*
X85371789Y54989711D01*
X85459394Y55120821D01*
X85519737Y55266503D01*
X85550500Y55421158D01*
X85550500Y55578842D01*
X85550500Y55578845D01*
X85550499Y55578847D01*
X85544729Y55607853D01*
X85519737Y55733497D01*
X85519735Y55733502D01*
X85459397Y55879173D01*
X85459390Y55879186D01*
X85371789Y56010289D01*
X85371786Y56010293D01*
X85260292Y56121787D01*
X85260288Y56121790D01*
X85129185Y56209391D01*
X85129172Y56209398D01*
X84983501Y56269736D01*
X84983489Y56269739D01*
X84828845Y56300500D01*
X84828842Y56300500D01*
X84797649Y56300500D01*
X84730610Y56320185D01*
X84684855Y56372989D01*
X84674911Y56442147D01*
X84676031Y56448690D01*
X84680500Y56471159D01*
X84680500Y56628845D01*
X84680499Y56628847D01*
X84674422Y56659398D01*
X84649737Y56783497D01*
X84648084Y56787488D01*
X84630953Y56828847D01*
X86199500Y56828847D01*
X86199500Y56671154D01*
X86230261Y56516511D01*
X86230264Y56516499D01*
X86290602Y56370828D01*
X86290609Y56370815D01*
X86378210Y56239712D01*
X86378213Y56239708D01*
X86489707Y56128214D01*
X86489711Y56128211D01*
X86620814Y56040610D01*
X86620827Y56040603D01*
X86766498Y55980265D01*
X86766503Y55980263D01*
X86921153Y55949501D01*
X86921156Y55949500D01*
X86921158Y55949500D01*
X87078844Y55949500D01*
X87078845Y55949501D01*
X87233497Y55980263D01*
X87379179Y56040606D01*
X87510289Y56128211D01*
X87621789Y56239711D01*
X87709394Y56370821D01*
X87713361Y56380397D01*
X87741648Y56448690D01*
X87769737Y56516503D01*
X87800500Y56671158D01*
X87800500Y56828842D01*
X87800500Y56828845D01*
X87800499Y56828847D01*
X87780543Y56929173D01*
X87769737Y56983497D01*
X87769735Y56983502D01*
X87709397Y57129173D01*
X87709390Y57129186D01*
X87621789Y57260289D01*
X87621786Y57260293D01*
X87510292Y57371787D01*
X87510288Y57371790D01*
X87379185Y57459391D01*
X87379172Y57459398D01*
X87233501Y57519736D01*
X87233489Y57519739D01*
X87078845Y57550500D01*
X87078842Y57550500D01*
X86921158Y57550500D01*
X86921155Y57550500D01*
X86766510Y57519739D01*
X86766498Y57519736D01*
X86620827Y57459398D01*
X86620814Y57459391D01*
X86489711Y57371790D01*
X86489707Y57371787D01*
X86378213Y57260293D01*
X86378210Y57260289D01*
X86290609Y57129186D01*
X86290602Y57129173D01*
X86230264Y56983502D01*
X86230261Y56983490D01*
X86199500Y56828847D01*
X84630953Y56828847D01*
X84589397Y56929173D01*
X84589390Y56929186D01*
X84501789Y57060289D01*
X84501786Y57060293D01*
X84390292Y57171787D01*
X84390288Y57171790D01*
X84259185Y57259391D01*
X84259172Y57259398D01*
X84113501Y57319736D01*
X84113489Y57319739D01*
X83958845Y57350500D01*
X83958842Y57350500D01*
X83801158Y57350500D01*
X83801155Y57350500D01*
X83646510Y57319739D01*
X83646498Y57319736D01*
X83500827Y57259398D01*
X83500814Y57259391D01*
X83369711Y57171790D01*
X83369707Y57171787D01*
X83258213Y57060293D01*
X83258210Y57060289D01*
X83170609Y56929186D01*
X83170602Y56929173D01*
X83110264Y56783502D01*
X83110261Y56783490D01*
X83079500Y56628847D01*
X82096853Y56628847D01*
X82051141Y56659391D01*
X82051128Y56659398D01*
X81905457Y56719736D01*
X81905445Y56719739D01*
X81750801Y56750500D01*
X81750798Y56750500D01*
X81593114Y56750500D01*
X81560188Y56743951D01*
X81500469Y56732072D01*
X81430877Y56738300D01*
X81375700Y56781164D01*
X81361721Y56806228D01*
X81310794Y56929179D01*
X81310792Y56929182D01*
X81310790Y56929186D01*
X81223189Y57060289D01*
X81223186Y57060293D01*
X81111692Y57171787D01*
X81111688Y57171790D01*
X80980585Y57259391D01*
X80980572Y57259398D01*
X80834901Y57319736D01*
X80834889Y57319739D01*
X80680245Y57350500D01*
X80680242Y57350500D01*
X80522558Y57350500D01*
X80522555Y57350500D01*
X80367910Y57319739D01*
X80367898Y57319736D01*
X80216592Y57257063D01*
X80215911Y57258708D01*
X80155730Y57246187D01*
X80115229Y57258080D01*
X80114808Y57257063D01*
X79963501Y57319736D01*
X79963489Y57319739D01*
X79808845Y57350500D01*
X79808842Y57350500D01*
X79651158Y57350500D01*
X79651155Y57350500D01*
X79496510Y57319739D01*
X79496498Y57319736D01*
X79350827Y57259398D01*
X79350814Y57259391D01*
X79219711Y57171790D01*
X79219707Y57171787D01*
X79108213Y57060293D01*
X79108210Y57060289D01*
X79020609Y56929186D01*
X79020602Y56929173D01*
X78960264Y56783502D01*
X78960261Y56783490D01*
X78929500Y56628847D01*
X78040554Y56628847D01*
X78022474Y56719737D01*
X78019737Y56733497D01*
X78012694Y56750500D01*
X77959397Y56879173D01*
X77959390Y56879186D01*
X77871789Y57010289D01*
X77871786Y57010293D01*
X77760292Y57121787D01*
X77760288Y57121790D01*
X77629185Y57209391D01*
X77629172Y57209398D01*
X77483501Y57269736D01*
X77483489Y57269739D01*
X77328845Y57300500D01*
X77328842Y57300500D01*
X77171158Y57300500D01*
X77171155Y57300500D01*
X77016510Y57269739D01*
X77016498Y57269736D01*
X76870827Y57209398D01*
X76870814Y57209391D01*
X76739711Y57121790D01*
X76739707Y57121787D01*
X76628213Y57010293D01*
X76628210Y57010289D01*
X76540609Y56879186D01*
X76540602Y56879173D01*
X76480264Y56733502D01*
X76480261Y56733490D01*
X76449500Y56578847D01*
X69800499Y56578847D01*
X69792125Y56620947D01*
X69769737Y56733497D01*
X69762694Y56750500D01*
X69709397Y56879173D01*
X69709390Y56879186D01*
X69621789Y57010289D01*
X69621786Y57010293D01*
X69510292Y57121787D01*
X69510288Y57121790D01*
X69379185Y57209391D01*
X69379172Y57209398D01*
X69233501Y57269736D01*
X69233489Y57269739D01*
X69078845Y57300500D01*
X69078842Y57300500D01*
X68921158Y57300500D01*
X68921155Y57300500D01*
X68766510Y57269739D01*
X68766498Y57269736D01*
X68620827Y57209398D01*
X68620814Y57209391D01*
X68489711Y57121790D01*
X68489707Y57121787D01*
X68378213Y57010293D01*
X68378210Y57010289D01*
X68290609Y56879186D01*
X68290602Y56879173D01*
X68230264Y56733502D01*
X68230261Y56733490D01*
X68199500Y56578847D01*
X66750500Y56578847D01*
X66750500Y58828847D01*
X74949500Y58828847D01*
X74949500Y58671154D01*
X74980261Y58516511D01*
X74980264Y58516499D01*
X75040602Y58370828D01*
X75040609Y58370815D01*
X75128210Y58239712D01*
X75128213Y58239708D01*
X75239707Y58128214D01*
X75239711Y58128211D01*
X75370814Y58040610D01*
X75370827Y58040603D01*
X75516498Y57980265D01*
X75516503Y57980263D01*
X75671153Y57949501D01*
X75671156Y57949500D01*
X75671158Y57949500D01*
X75828844Y57949500D01*
X75828845Y57949501D01*
X75983497Y57980263D01*
X76129179Y58040606D01*
X76260289Y58128211D01*
X76371789Y58239711D01*
X76459394Y58370821D01*
X76519737Y58516503D01*
X76550500Y58671158D01*
X76550500Y58828842D01*
X76550500Y58828845D01*
X76550499Y58828847D01*
X76548244Y58840185D01*
X76519737Y58983497D01*
X76508138Y59011500D01*
X76459397Y59129173D01*
X76459390Y59129186D01*
X76371789Y59260289D01*
X76371786Y59260293D01*
X76260292Y59371787D01*
X76260288Y59371790D01*
X76129185Y59459391D01*
X76129172Y59459398D01*
X75983501Y59519736D01*
X75983489Y59519739D01*
X75828845Y59550500D01*
X75828842Y59550500D01*
X75671158Y59550500D01*
X75671155Y59550500D01*
X75516510Y59519739D01*
X75516498Y59519736D01*
X75370827Y59459398D01*
X75370814Y59459391D01*
X75239711Y59371790D01*
X75239707Y59371787D01*
X75128213Y59260293D01*
X75128210Y59260289D01*
X75040609Y59129186D01*
X75040602Y59129173D01*
X74980264Y58983502D01*
X74980261Y58983490D01*
X74949500Y58828847D01*
X66750500Y58828847D01*
X66750500Y61878847D01*
X73399500Y61878847D01*
X73399500Y61721154D01*
X73430261Y61566511D01*
X73430264Y61566499D01*
X73490602Y61420828D01*
X73490609Y61420815D01*
X73578210Y61289712D01*
X73578213Y61289708D01*
X73689707Y61178214D01*
X73689711Y61178211D01*
X73820814Y61090610D01*
X73820827Y61090603D01*
X73966498Y61030265D01*
X73966503Y61030263D01*
X74121153Y60999501D01*
X74121156Y60999500D01*
X74121158Y60999500D01*
X74278844Y60999500D01*
X74278845Y60999501D01*
X74433497Y61030263D01*
X74579179Y61090606D01*
X74710289Y61178211D01*
X74821789Y61289711D01*
X74909394Y61420821D01*
X74969737Y61566503D01*
X75000500Y61721158D01*
X75000500Y61878842D01*
X75000500Y61878845D01*
X75000499Y61878847D01*
X74994862Y61907188D01*
X74969737Y62033497D01*
X74965177Y62044505D01*
X74909397Y62179173D01*
X74909390Y62179186D01*
X74821789Y62310289D01*
X74821786Y62310293D01*
X74805999Y62326080D01*
X77979499Y62326080D01*
X78008340Y62181093D01*
X78008343Y62181083D01*
X78064912Y62044512D01*
X78064919Y62044499D01*
X78147048Y61921585D01*
X78147051Y61921581D01*
X78180951Y61887681D01*
X78214436Y61826358D01*
X78209452Y61756666D01*
X78180951Y61712319D01*
X78147051Y61678420D01*
X78147048Y61678416D01*
X78064919Y61555502D01*
X78064912Y61555489D01*
X78008343Y61418918D01*
X78008340Y61418908D01*
X77979500Y61273921D01*
X77979500Y61273918D01*
X77979500Y61126082D01*
X77979500Y61126080D01*
X77979499Y61126080D01*
X78008340Y60981093D01*
X78008343Y60981083D01*
X78064912Y60844512D01*
X78064919Y60844499D01*
X78147048Y60721585D01*
X78147051Y60721581D01*
X78180951Y60687681D01*
X78214436Y60626358D01*
X78209452Y60556666D01*
X78180951Y60512319D01*
X78147051Y60478420D01*
X78147048Y60478416D01*
X78064919Y60355502D01*
X78064912Y60355489D01*
X78008343Y60218918D01*
X78008340Y60218908D01*
X77979500Y60073921D01*
X77979500Y60073918D01*
X77979500Y59926082D01*
X77979500Y59926080D01*
X77979499Y59926080D01*
X78008340Y59781093D01*
X78008343Y59781083D01*
X78064912Y59644512D01*
X78064919Y59644499D01*
X78147048Y59521585D01*
X78147051Y59521581D01*
X78180951Y59487681D01*
X78214436Y59426358D01*
X78209452Y59356666D01*
X78180951Y59312319D01*
X78147051Y59278420D01*
X78147048Y59278416D01*
X78064919Y59155502D01*
X78064912Y59155489D01*
X78008343Y59018918D01*
X78008340Y59018908D01*
X77979500Y58873921D01*
X77979500Y58873918D01*
X77979500Y58726082D01*
X77979500Y58726080D01*
X77979499Y58726080D01*
X78008340Y58581093D01*
X78008343Y58581083D01*
X78064912Y58444512D01*
X78064919Y58444499D01*
X78147048Y58321585D01*
X78147051Y58321581D01*
X78251580Y58217052D01*
X78251584Y58217049D01*
X78374498Y58134920D01*
X78374511Y58134913D01*
X78511082Y58078344D01*
X78511087Y58078342D01*
X78511091Y58078342D01*
X78511092Y58078341D01*
X78656079Y58049500D01*
X78656082Y58049500D01*
X78803920Y58049500D01*
X78901462Y58068904D01*
X78948913Y58078342D01*
X79085495Y58134916D01*
X79208416Y58217049D01*
X79208419Y58217052D01*
X79242319Y58250951D01*
X79303642Y58284436D01*
X79373334Y58279452D01*
X79417681Y58250951D01*
X79451580Y58217052D01*
X79451584Y58217049D01*
X79574498Y58134920D01*
X79574511Y58134913D01*
X79711082Y58078344D01*
X79711087Y58078342D01*
X79711091Y58078342D01*
X79711092Y58078341D01*
X79856079Y58049500D01*
X79856082Y58049500D01*
X80003920Y58049500D01*
X80101462Y58068904D01*
X80148913Y58078342D01*
X80285495Y58134916D01*
X80408416Y58217049D01*
X80408419Y58217052D01*
X80442319Y58250951D01*
X80503642Y58284436D01*
X80573334Y58279452D01*
X80617681Y58250951D01*
X80651580Y58217052D01*
X80651584Y58217049D01*
X80774498Y58134920D01*
X80774511Y58134913D01*
X80911082Y58078344D01*
X80911087Y58078342D01*
X80911091Y58078342D01*
X80911092Y58078341D01*
X81056079Y58049500D01*
X81056082Y58049500D01*
X81203920Y58049500D01*
X81301462Y58068904D01*
X81348913Y58078342D01*
X81485495Y58134916D01*
X81608416Y58217049D01*
X81608419Y58217052D01*
X81642319Y58250951D01*
X81703642Y58284436D01*
X81773334Y58279452D01*
X81817681Y58250951D01*
X81851580Y58217052D01*
X81851584Y58217049D01*
X81974498Y58134920D01*
X81974511Y58134913D01*
X82111082Y58078344D01*
X82111087Y58078342D01*
X82111091Y58078342D01*
X82111092Y58078341D01*
X82256079Y58049500D01*
X82256082Y58049500D01*
X82403920Y58049500D01*
X82501462Y58068904D01*
X82548913Y58078342D01*
X82685495Y58134916D01*
X82808416Y58217049D01*
X82912951Y58321584D01*
X82995084Y58444505D01*
X83051658Y58581087D01*
X83071590Y58681288D01*
X83080500Y58726080D01*
X83080500Y58873921D01*
X83051659Y59018908D01*
X83051658Y59018909D01*
X83051658Y59018913D01*
X83051656Y59018918D01*
X82995087Y59155489D01*
X82995080Y59155502D01*
X82912951Y59278416D01*
X82912948Y59278420D01*
X82879049Y59312319D01*
X82845564Y59373642D01*
X82850548Y59443334D01*
X82879049Y59487681D01*
X82912948Y59521581D01*
X82912951Y59521584D01*
X82995084Y59644505D01*
X83051658Y59781087D01*
X83075506Y59900974D01*
X83080500Y59926080D01*
X83080500Y60073921D01*
X83051659Y60218908D01*
X83051658Y60218909D01*
X83051658Y60218913D01*
X83034946Y60259259D01*
X82995087Y60355489D01*
X82995080Y60355502D01*
X82912951Y60478416D01*
X82912948Y60478420D01*
X82879049Y60512319D01*
X82845564Y60573642D01*
X82850548Y60643334D01*
X82879049Y60687681D01*
X82912948Y60721581D01*
X82912951Y60721584D01*
X82995084Y60844505D01*
X83051658Y60981087D01*
X83080500Y61126082D01*
X83080500Y61273918D01*
X83080500Y61273921D01*
X83051659Y61418908D01*
X83051658Y61418909D01*
X83051658Y61418913D01*
X83037053Y61454173D01*
X82995087Y61555489D01*
X82995080Y61555502D01*
X82912951Y61678416D01*
X82912948Y61678420D01*
X82879049Y61712319D01*
X82845564Y61773642D01*
X82850548Y61843334D01*
X82879049Y61887681D01*
X82912948Y61921581D01*
X82912951Y61921584D01*
X82995084Y62044505D01*
X83051658Y62181087D01*
X83063320Y62239712D01*
X83080500Y62326080D01*
X83080500Y62473921D01*
X83051659Y62618908D01*
X83051658Y62618909D01*
X83051658Y62618913D01*
X83030019Y62671154D01*
X82995087Y62755489D01*
X82995080Y62755502D01*
X82912951Y62878416D01*
X82912948Y62878420D01*
X82808419Y62982949D01*
X82808415Y62982952D01*
X82685501Y63065081D01*
X82685488Y63065088D01*
X82548917Y63121657D01*
X82548907Y63121660D01*
X82403920Y63150500D01*
X82403918Y63150500D01*
X82256082Y63150500D01*
X82256080Y63150500D01*
X82111092Y63121660D01*
X82111082Y63121657D01*
X81974511Y63065088D01*
X81974498Y63065081D01*
X81851584Y62982952D01*
X81851580Y62982949D01*
X81817681Y62949049D01*
X81756358Y62915564D01*
X81686666Y62920548D01*
X81642319Y62949049D01*
X81608419Y62982949D01*
X81608415Y62982952D01*
X81485501Y63065081D01*
X81485488Y63065088D01*
X81348917Y63121657D01*
X81348907Y63121660D01*
X81203920Y63150500D01*
X81203918Y63150500D01*
X81056082Y63150500D01*
X81056080Y63150500D01*
X80911092Y63121660D01*
X80911082Y63121657D01*
X80774511Y63065088D01*
X80774498Y63065081D01*
X80651584Y62982952D01*
X80651580Y62982949D01*
X80617681Y62949049D01*
X80556358Y62915564D01*
X80486666Y62920548D01*
X80442319Y62949049D01*
X80408419Y62982949D01*
X80408415Y62982952D01*
X80285501Y63065081D01*
X80285488Y63065088D01*
X80148917Y63121657D01*
X80148907Y63121660D01*
X80003920Y63150500D01*
X80003918Y63150500D01*
X79856082Y63150500D01*
X79856080Y63150500D01*
X79711092Y63121660D01*
X79711082Y63121657D01*
X79574511Y63065088D01*
X79574498Y63065081D01*
X79451584Y62982952D01*
X79451580Y62982949D01*
X79417681Y62949049D01*
X79356358Y62915564D01*
X79286666Y62920548D01*
X79242319Y62949049D01*
X79208419Y62982949D01*
X79208415Y62982952D01*
X79085501Y63065081D01*
X79085488Y63065088D01*
X78948917Y63121657D01*
X78948907Y63121660D01*
X78803920Y63150500D01*
X78803918Y63150500D01*
X78656082Y63150500D01*
X78656080Y63150500D01*
X78511092Y63121660D01*
X78511082Y63121657D01*
X78374511Y63065088D01*
X78374498Y63065081D01*
X78251584Y62982952D01*
X78251580Y62982949D01*
X78147051Y62878420D01*
X78147048Y62878416D01*
X78064919Y62755502D01*
X78064912Y62755489D01*
X78008343Y62618918D01*
X78008340Y62618908D01*
X77979500Y62473921D01*
X77979500Y62473918D01*
X77979500Y62326082D01*
X77979500Y62326080D01*
X77979499Y62326080D01*
X74805999Y62326080D01*
X74710292Y62421787D01*
X74710288Y62421790D01*
X74579185Y62509391D01*
X74579172Y62509398D01*
X74433501Y62569736D01*
X74433489Y62569739D01*
X74278845Y62600500D01*
X74278842Y62600500D01*
X74121158Y62600500D01*
X74121155Y62600500D01*
X73966510Y62569739D01*
X73966498Y62569736D01*
X73820827Y62509398D01*
X73820814Y62509391D01*
X73689711Y62421790D01*
X73689707Y62421787D01*
X73578213Y62310293D01*
X73578210Y62310289D01*
X73490609Y62179186D01*
X73490602Y62179173D01*
X73430264Y62033502D01*
X73430261Y62033490D01*
X73399500Y61878847D01*
X66750500Y61878847D01*
X66750500Y62828847D01*
X69449500Y62828847D01*
X69449500Y62671154D01*
X69480261Y62516511D01*
X69480264Y62516499D01*
X69540602Y62370828D01*
X69540609Y62370815D01*
X69628210Y62239712D01*
X69628213Y62239708D01*
X69739707Y62128214D01*
X69739711Y62128211D01*
X69870814Y62040610D01*
X69870827Y62040603D01*
X69970070Y61999496D01*
X70016503Y61980263D01*
X70171153Y61949501D01*
X70171156Y61949500D01*
X70171158Y61949500D01*
X70328844Y61949500D01*
X70328845Y61949501D01*
X70483497Y61980263D01*
X70629179Y62040606D01*
X70760289Y62128211D01*
X70871789Y62239711D01*
X70959394Y62370821D01*
X70962719Y62378847D01*
X71019735Y62516499D01*
X71019737Y62516503D01*
X71050500Y62671158D01*
X71050500Y62828842D01*
X71050500Y62828845D01*
X71050499Y62828847D01*
X71036966Y62896883D01*
X71019737Y62983497D01*
X71015648Y62993368D01*
X70959397Y63129173D01*
X70959390Y63129186D01*
X70871789Y63260289D01*
X70871786Y63260293D01*
X70760292Y63371787D01*
X70760288Y63371790D01*
X70629185Y63459391D01*
X70629172Y63459398D01*
X70483501Y63519736D01*
X70483489Y63519739D01*
X70328845Y63550500D01*
X70328842Y63550500D01*
X70171158Y63550500D01*
X70171155Y63550500D01*
X70016510Y63519739D01*
X70016498Y63519736D01*
X69870827Y63459398D01*
X69870814Y63459391D01*
X69739711Y63371790D01*
X69739707Y63371787D01*
X69628213Y63260293D01*
X69628210Y63260289D01*
X69540609Y63129186D01*
X69540602Y63129173D01*
X69480264Y62983502D01*
X69480261Y62983490D01*
X69449500Y62828847D01*
X66750500Y62828847D01*
X66750500Y63978847D01*
X84399500Y63978847D01*
X84399500Y63821154D01*
X84430261Y63666511D01*
X84430264Y63666499D01*
X84490602Y63520828D01*
X84490609Y63520815D01*
X84578210Y63389712D01*
X84578213Y63389708D01*
X84689707Y63278214D01*
X84689711Y63278211D01*
X84820814Y63190610D01*
X84820827Y63190603D01*
X84917646Y63150500D01*
X84966503Y63130263D01*
X85116131Y63100500D01*
X85121153Y63099501D01*
X85121156Y63099500D01*
X85121158Y63099500D01*
X85278844Y63099500D01*
X85278845Y63099501D01*
X85433497Y63130263D01*
X85579179Y63190606D01*
X85710289Y63278211D01*
X85821789Y63389711D01*
X85909394Y63520821D01*
X85969737Y63666503D01*
X86000500Y63821158D01*
X86000500Y63978842D01*
X86000500Y63978845D01*
X86000499Y63978847D01*
X85993171Y64015685D01*
X85969737Y64133497D01*
X85942398Y64199500D01*
X85909397Y64279173D01*
X85909390Y64279186D01*
X85821789Y64410289D01*
X85821786Y64410293D01*
X85710292Y64521787D01*
X85710288Y64521790D01*
X85579185Y64609391D01*
X85579172Y64609398D01*
X85433501Y64669736D01*
X85433489Y64669739D01*
X85278845Y64700500D01*
X85278842Y64700500D01*
X85121158Y64700500D01*
X85121155Y64700500D01*
X84966510Y64669739D01*
X84966498Y64669736D01*
X84820827Y64609398D01*
X84820814Y64609391D01*
X84689711Y64521790D01*
X84689707Y64521787D01*
X84578213Y64410293D01*
X84578210Y64410289D01*
X84490609Y64279186D01*
X84490602Y64279173D01*
X84430264Y64133502D01*
X84430261Y64133490D01*
X84399500Y63978847D01*
X66750500Y63978847D01*
X66750500Y65478847D01*
X74699500Y65478847D01*
X74699500Y65321154D01*
X74730261Y65166511D01*
X74730264Y65166499D01*
X74790602Y65020828D01*
X74790609Y65020815D01*
X74878210Y64889712D01*
X74878213Y64889708D01*
X74989707Y64778214D01*
X74989711Y64778211D01*
X75120814Y64690610D01*
X75120827Y64690603D01*
X75266498Y64630265D01*
X75266503Y64630263D01*
X75421153Y64599501D01*
X75421156Y64599500D01*
X75421158Y64599500D01*
X75578844Y64599500D01*
X75578845Y64599501D01*
X75733497Y64630263D01*
X75828794Y64669736D01*
X75852548Y64679575D01*
X75922017Y64687044D01*
X75947452Y64679575D01*
X75971206Y64669736D01*
X76066503Y64630263D01*
X76221153Y64599501D01*
X76221156Y64599500D01*
X76221158Y64599500D01*
X76378844Y64599500D01*
X76378845Y64599501D01*
X76533497Y64630263D01*
X76679179Y64690606D01*
X76810289Y64778211D01*
X76921789Y64889711D01*
X77009394Y65020821D01*
X77069737Y65166503D01*
X77072929Y65182555D01*
X77105313Y65244465D01*
X77166028Y65279040D01*
X77215075Y65279915D01*
X77215093Y65280097D01*
X77216658Y65279943D01*
X77218743Y65279980D01*
X77221155Y65279500D01*
X77221158Y65279500D01*
X77378844Y65279500D01*
X77378845Y65279501D01*
X77533497Y65310263D01*
X77669264Y65366499D01*
X77679172Y65370603D01*
X77679172Y65370604D01*
X77679179Y65370606D01*
X77810289Y65458211D01*
X77921789Y65569711D01*
X77954849Y65619189D01*
X78008459Y65663994D01*
X78077784Y65672703D01*
X78126841Y65653402D01*
X78220821Y65590606D01*
X78220823Y65590605D01*
X78220827Y65590603D01*
X78366498Y65530265D01*
X78366503Y65530263D01*
X78521153Y65499501D01*
X78521156Y65499500D01*
X78521158Y65499500D01*
X78678844Y65499500D01*
X78678845Y65499501D01*
X78833497Y65530263D01*
X78979179Y65590606D01*
X79110289Y65678211D01*
X79110925Y65678847D01*
X81299500Y65678847D01*
X81299500Y65521154D01*
X81330261Y65366511D01*
X81330264Y65366499D01*
X81390602Y65220828D01*
X81390609Y65220815D01*
X81478210Y65089712D01*
X81478213Y65089708D01*
X81589707Y64978214D01*
X81589711Y64978211D01*
X81720814Y64890610D01*
X81720827Y64890603D01*
X81851349Y64836540D01*
X81866503Y64830263D01*
X81992080Y64805284D01*
X82021153Y64799501D01*
X82021156Y64799500D01*
X82021158Y64799500D01*
X82178844Y64799500D01*
X82178845Y64799501D01*
X82333497Y64830263D01*
X82452548Y64879575D01*
X82522017Y64887044D01*
X82547453Y64879575D01*
X82666503Y64830263D01*
X82792080Y64805284D01*
X82821153Y64799501D01*
X82821156Y64799500D01*
X82821158Y64799500D01*
X82978844Y64799500D01*
X82978845Y64799501D01*
X83133497Y64830263D01*
X83133507Y64830268D01*
X83139328Y64832032D01*
X83139926Y64830060D01*
X83200036Y64836540D01*
X83262525Y64805284D01*
X83265710Y64802212D01*
X83289708Y64778214D01*
X83289712Y64778210D01*
X83420814Y64690610D01*
X83420827Y64690603D01*
X83566498Y64630265D01*
X83566503Y64630263D01*
X83721153Y64599501D01*
X83721156Y64599500D01*
X83721158Y64599500D01*
X83878844Y64599500D01*
X83878845Y64599501D01*
X84033497Y64630263D01*
X84179179Y64690606D01*
X84310289Y64778211D01*
X84421789Y64889711D01*
X84509394Y65020821D01*
X84533429Y65078847D01*
X87599500Y65078847D01*
X87599500Y64921154D01*
X87630261Y64766511D01*
X87630264Y64766499D01*
X87690602Y64620828D01*
X87690609Y64620815D01*
X87778210Y64489712D01*
X87778213Y64489708D01*
X87889707Y64378214D01*
X87889711Y64378211D01*
X88020814Y64290610D01*
X88020827Y64290603D01*
X88166498Y64230265D01*
X88166503Y64230263D01*
X88321153Y64199501D01*
X88321156Y64199500D01*
X88321158Y64199500D01*
X88478844Y64199500D01*
X88478845Y64199501D01*
X88633497Y64230263D01*
X88751592Y64279179D01*
X88779172Y64290603D01*
X88779172Y64290604D01*
X88779179Y64290606D01*
X88910289Y64378211D01*
X89021789Y64489711D01*
X89109394Y64620821D01*
X89169737Y64766503D01*
X89200500Y64921158D01*
X89200500Y65078842D01*
X89200500Y65078845D01*
X89200499Y65078847D01*
X89179870Y65182553D01*
X89169737Y65233497D01*
X89142398Y65299500D01*
X89109397Y65379173D01*
X89109390Y65379186D01*
X89021789Y65510289D01*
X89021786Y65510293D01*
X88910292Y65621787D01*
X88910288Y65621790D01*
X88779185Y65709391D01*
X88779172Y65709398D01*
X88633501Y65769736D01*
X88633489Y65769739D01*
X88478845Y65800500D01*
X88478842Y65800500D01*
X88321158Y65800500D01*
X88321155Y65800500D01*
X88166510Y65769739D01*
X88166498Y65769736D01*
X88020827Y65709398D01*
X88020814Y65709391D01*
X87889711Y65621790D01*
X87889707Y65621787D01*
X87778213Y65510293D01*
X87778210Y65510289D01*
X87690609Y65379186D01*
X87690602Y65379173D01*
X87630264Y65233502D01*
X87630261Y65233490D01*
X87599500Y65078847D01*
X84533429Y65078847D01*
X84537929Y65089711D01*
X84555603Y65132379D01*
X84555605Y65132386D01*
X84569737Y65166503D01*
X84600500Y65321158D01*
X84600500Y65478842D01*
X84600500Y65478845D01*
X84600499Y65478847D01*
X84593171Y65515685D01*
X84569737Y65633497D01*
X84557105Y65663994D01*
X84509397Y65779173D01*
X84509390Y65779186D01*
X84421789Y65910289D01*
X84421786Y65910293D01*
X84310292Y66021787D01*
X84310288Y66021790D01*
X84179185Y66109391D01*
X84179172Y66109398D01*
X84033501Y66169736D01*
X84033491Y66169739D01*
X83984374Y66179509D01*
X83922463Y66211894D01*
X83887889Y66272611D01*
X83891630Y66342380D01*
X83920883Y66388806D01*
X84021789Y66489711D01*
X84109394Y66620821D01*
X84169737Y66766503D01*
X84200500Y66921158D01*
X84200500Y67078842D01*
X84200500Y67078845D01*
X84200499Y67078847D01*
X84169738Y67233490D01*
X84169737Y67233497D01*
X84169735Y67233502D01*
X84109397Y67379173D01*
X84109390Y67379186D01*
X84084763Y67416043D01*
X84042798Y67478847D01*
X85599500Y67478847D01*
X85599500Y67321154D01*
X85630261Y67166511D01*
X85630264Y67166499D01*
X85690602Y67020828D01*
X85690609Y67020815D01*
X85778210Y66889712D01*
X85778213Y66889708D01*
X85889707Y66778214D01*
X85889711Y66778211D01*
X86020814Y66690610D01*
X86020821Y66690606D01*
X86125957Y66647058D01*
X86180358Y66603219D01*
X86202424Y66536925D01*
X86190639Y66485759D01*
X86192937Y66484807D01*
X86130264Y66333502D01*
X86130261Y66333490D01*
X86099500Y66178847D01*
X86099500Y66021154D01*
X86130261Y65866511D01*
X86130264Y65866499D01*
X86190602Y65720828D01*
X86190609Y65720815D01*
X86278210Y65589712D01*
X86278213Y65589708D01*
X86389707Y65478214D01*
X86389711Y65478211D01*
X86520814Y65390610D01*
X86520827Y65390603D01*
X86666498Y65330265D01*
X86666503Y65330263D01*
X86821153Y65299501D01*
X86821156Y65299500D01*
X86821158Y65299500D01*
X86978844Y65299500D01*
X86978845Y65299501D01*
X87133497Y65330263D01*
X87251592Y65379179D01*
X87279172Y65390603D01*
X87279172Y65390604D01*
X87279179Y65390606D01*
X87410289Y65478211D01*
X87521789Y65589711D01*
X87609394Y65720821D01*
X87669737Y65866503D01*
X87700500Y66021158D01*
X87700500Y66178842D01*
X87700500Y66178845D01*
X87700499Y66178847D01*
X87696100Y66200960D01*
X87669737Y66333497D01*
X87666058Y66342380D01*
X87609397Y66479173D01*
X87609390Y66479186D01*
X87521789Y66610289D01*
X87521786Y66610293D01*
X87410292Y66721787D01*
X87410288Y66721790D01*
X87279185Y66809391D01*
X87279172Y66809398D01*
X87174045Y66852942D01*
X87119641Y66896783D01*
X87097576Y66963077D01*
X87109445Y67014206D01*
X87107063Y67015192D01*
X87146697Y67110880D01*
X87169737Y67166503D01*
X87200500Y67321158D01*
X87200500Y67478842D01*
X87200500Y67478845D01*
X87200499Y67478847D01*
X87186246Y67550500D01*
X87169737Y67633497D01*
X87138298Y67709398D01*
X87109397Y67779173D01*
X87109390Y67779186D01*
X87021789Y67910289D01*
X87021786Y67910293D01*
X86910292Y68021787D01*
X86910288Y68021790D01*
X86824897Y68078847D01*
X87899500Y68078847D01*
X87899500Y67921154D01*
X87930261Y67766511D01*
X87930264Y67766499D01*
X87990602Y67620828D01*
X87990609Y67620815D01*
X88078210Y67489712D01*
X88078213Y67489708D01*
X88189707Y67378214D01*
X88189711Y67378211D01*
X88320814Y67290610D01*
X88320827Y67290603D01*
X88394013Y67260289D01*
X88466503Y67230263D01*
X88621153Y67199501D01*
X88621156Y67199500D01*
X88621158Y67199500D01*
X88778844Y67199500D01*
X88778845Y67199501D01*
X88933497Y67230263D01*
X89079179Y67290606D01*
X89210289Y67378211D01*
X89321789Y67489711D01*
X89409394Y67620821D01*
X89469737Y67766503D01*
X89500500Y67921158D01*
X89500500Y68078842D01*
X89500500Y68078845D01*
X89500499Y68078847D01*
X89491418Y68124500D01*
X89469737Y68233497D01*
X89411462Y68374187D01*
X89409397Y68379173D01*
X89409390Y68379186D01*
X89321789Y68510289D01*
X89321786Y68510293D01*
X89210292Y68621787D01*
X89210288Y68621790D01*
X89079185Y68709391D01*
X89079172Y68709398D01*
X88933501Y68769736D01*
X88933489Y68769739D01*
X88778845Y68800500D01*
X88778842Y68800500D01*
X88621158Y68800500D01*
X88621155Y68800500D01*
X88466510Y68769739D01*
X88466498Y68769736D01*
X88320827Y68709398D01*
X88320814Y68709391D01*
X88189711Y68621790D01*
X88189707Y68621787D01*
X88078213Y68510293D01*
X88078210Y68510289D01*
X87990609Y68379186D01*
X87990602Y68379173D01*
X87930264Y68233502D01*
X87930261Y68233490D01*
X87899500Y68078847D01*
X86824897Y68078847D01*
X86779185Y68109391D01*
X86779172Y68109398D01*
X86633501Y68169736D01*
X86633489Y68169739D01*
X86478845Y68200500D01*
X86478842Y68200500D01*
X86321158Y68200500D01*
X86321155Y68200500D01*
X86166510Y68169739D01*
X86166498Y68169736D01*
X86020827Y68109398D01*
X86020814Y68109391D01*
X85889711Y68021790D01*
X85889707Y68021787D01*
X85778213Y67910293D01*
X85778210Y67910289D01*
X85690609Y67779186D01*
X85690602Y67779173D01*
X85630264Y67633502D01*
X85630261Y67633490D01*
X85599500Y67478847D01*
X84042798Y67478847D01*
X84021789Y67510289D01*
X84021786Y67510293D01*
X83910292Y67621787D01*
X83910288Y67621790D01*
X83779185Y67709391D01*
X83779172Y67709398D01*
X83633501Y67769736D01*
X83633489Y67769739D01*
X83478845Y67800500D01*
X83478842Y67800500D01*
X83321158Y67800500D01*
X83321155Y67800500D01*
X83166510Y67769739D01*
X83166498Y67769736D01*
X83020827Y67709398D01*
X83020814Y67709391D01*
X82889711Y67621790D01*
X82889707Y67621787D01*
X82778213Y67510293D01*
X82778210Y67510289D01*
X82690609Y67379186D01*
X82690602Y67379173D01*
X82630264Y67233502D01*
X82630261Y67233490D01*
X82599500Y67078847D01*
X82599500Y66921154D01*
X82630261Y66766511D01*
X82630264Y66766499D01*
X82690602Y66620828D01*
X82690609Y66620815D01*
X82733149Y66557150D01*
X82739514Y66536820D01*
X82750314Y66518455D01*
X82749746Y66504142D01*
X82754027Y66490472D01*
X82748390Y66469927D01*
X82747547Y66448640D01*
X82739331Y66436906D01*
X82735542Y66423092D01*
X82719693Y66408856D01*
X82707475Y66391404D01*
X82690057Y66382236D01*
X82683564Y66376402D01*
X82677051Y66373513D01*
X82669088Y66370252D01*
X82666503Y66369737D01*
X82547382Y66320396D01*
X82547004Y66320241D01*
X82512424Y66316661D01*
X82477982Y66312957D01*
X82477638Y66313058D01*
X82477506Y66313044D01*
X82477256Y66313170D01*
X82452548Y66320426D01*
X82333501Y66369736D01*
X82333489Y66369739D01*
X82178845Y66400500D01*
X82178842Y66400500D01*
X82021158Y66400500D01*
X82021155Y66400500D01*
X81866510Y66369739D01*
X81866498Y66369736D01*
X81720827Y66309398D01*
X81720814Y66309391D01*
X81589711Y66221790D01*
X81589707Y66221787D01*
X81478213Y66110293D01*
X81478210Y66110289D01*
X81390609Y65979186D01*
X81390602Y65979173D01*
X81330264Y65833502D01*
X81330261Y65833490D01*
X81299500Y65678847D01*
X79110925Y65678847D01*
X79152906Y65720828D01*
X79204694Y65772615D01*
X79221786Y65789708D01*
X79221789Y65789711D01*
X79309394Y65920821D01*
X79369737Y66066503D01*
X79400500Y66221158D01*
X79400500Y66378842D01*
X79400500Y66378845D01*
X79400499Y66378847D01*
X79380543Y66479173D01*
X79369737Y66533497D01*
X79359940Y66557150D01*
X79309397Y66679173D01*
X79309390Y66679186D01*
X79221789Y66810289D01*
X79221786Y66810293D01*
X79110292Y66921787D01*
X79110288Y66921790D01*
X78979185Y67009391D01*
X78979172Y67009398D01*
X78833501Y67069736D01*
X78833489Y67069739D01*
X78678845Y67100500D01*
X78678842Y67100500D01*
X78521158Y67100500D01*
X78521155Y67100500D01*
X78366510Y67069739D01*
X78366498Y67069736D01*
X78220827Y67009398D01*
X78220814Y67009391D01*
X78089711Y66921790D01*
X78089707Y66921787D01*
X77978213Y66810293D01*
X77978208Y66810287D01*
X77945149Y66760811D01*
X77891536Y66716006D01*
X77822211Y66707300D01*
X77773158Y66726601D01*
X77679190Y66789388D01*
X77679172Y66789398D01*
X77533501Y66849736D01*
X77533489Y66849739D01*
X77378845Y66880500D01*
X77378842Y66880500D01*
X77221158Y66880500D01*
X77221155Y66880500D01*
X77066510Y66849739D01*
X77066498Y66849736D01*
X76920827Y66789398D01*
X76920814Y66789391D01*
X76789711Y66701790D01*
X76789707Y66701787D01*
X76678213Y66590293D01*
X76678210Y66590289D01*
X76590609Y66459186D01*
X76590602Y66459173D01*
X76530264Y66313502D01*
X76530262Y66313496D01*
X76527069Y66297442D01*
X76494681Y66235532D01*
X76433965Y66200960D01*
X76384922Y66200084D01*
X76384905Y66199903D01*
X76383358Y66200056D01*
X76381270Y66200018D01*
X76378848Y66200500D01*
X76378842Y66200500D01*
X76221158Y66200500D01*
X76221155Y66200500D01*
X76066510Y66169739D01*
X76066498Y66169736D01*
X75947452Y66120426D01*
X75877982Y66112957D01*
X75852548Y66120426D01*
X75733501Y66169736D01*
X75733489Y66169739D01*
X75578845Y66200500D01*
X75578842Y66200500D01*
X75421158Y66200500D01*
X75421155Y66200500D01*
X75266510Y66169739D01*
X75266498Y66169736D01*
X75120827Y66109398D01*
X75120814Y66109391D01*
X74989711Y66021790D01*
X74989707Y66021787D01*
X74878213Y65910293D01*
X74878210Y65910289D01*
X74790609Y65779186D01*
X74790602Y65779173D01*
X74730264Y65633502D01*
X74730261Y65633490D01*
X74699500Y65478847D01*
X66750500Y65478847D01*
X66750500Y66828847D01*
X70199500Y66828847D01*
X70199500Y66671154D01*
X70230261Y66516511D01*
X70230264Y66516499D01*
X70290602Y66370828D01*
X70290609Y66370815D01*
X70378210Y66239712D01*
X70378213Y66239708D01*
X70489707Y66128214D01*
X70489711Y66128211D01*
X70620814Y66040610D01*
X70620827Y66040603D01*
X70766498Y65980265D01*
X70766503Y65980263D01*
X70921153Y65949501D01*
X70921156Y65949500D01*
X70921158Y65949500D01*
X71078844Y65949500D01*
X71078845Y65949501D01*
X71233497Y65980263D01*
X71379179Y66040606D01*
X71510289Y66128211D01*
X71621789Y66239711D01*
X71709394Y66370821D01*
X71712719Y66378847D01*
X71750445Y66469927D01*
X71769737Y66516503D01*
X71800500Y66671158D01*
X71800500Y66828842D01*
X71800500Y66828845D01*
X71800499Y66828847D01*
X71791480Y66874187D01*
X71769737Y66983497D01*
X71769735Y66983502D01*
X71709397Y67129173D01*
X71709390Y67129186D01*
X71621789Y67260289D01*
X71621786Y67260293D01*
X71510292Y67371787D01*
X71510288Y67371790D01*
X71379185Y67459391D01*
X71379172Y67459398D01*
X71233501Y67519736D01*
X71233489Y67519739D01*
X71078845Y67550500D01*
X71078842Y67550500D01*
X70921158Y67550500D01*
X70921155Y67550500D01*
X70766510Y67519739D01*
X70766498Y67519736D01*
X70620827Y67459398D01*
X70620814Y67459391D01*
X70489711Y67371790D01*
X70489707Y67371787D01*
X70378213Y67260293D01*
X70378210Y67260289D01*
X70290609Y67129186D01*
X70290602Y67129173D01*
X70230264Y66983502D01*
X70230261Y66983490D01*
X70199500Y66828847D01*
X66750500Y66828847D01*
X66750500Y69497296D01*
X66750618Y69502705D01*
X66760085Y69719527D01*
X66767387Y69886770D01*
X66768327Y69897504D01*
X66818153Y70275965D01*
X66820031Y70286613D01*
X66842797Y70389307D01*
X68624500Y70389307D01*
X68624500Y70110694D01*
X68624501Y70110678D01*
X68660866Y69834457D01*
X68660867Y69834452D01*
X68660868Y69834446D01*
X68732826Y69565892D01*
X68732981Y69565315D01*
X68732984Y69565305D01*
X68839604Y69307902D01*
X68839609Y69307891D01*
X68978914Y69066610D01*
X68978925Y69066594D01*
X69148533Y68845555D01*
X69148539Y68845548D01*
X69345547Y68648540D01*
X69345553Y68648535D01*
X69566602Y68478919D01*
X69566609Y68478915D01*
X69807890Y68339610D01*
X69807895Y68339608D01*
X69807898Y68339606D01*
X70065314Y68232981D01*
X70334446Y68160868D01*
X70610687Y68124500D01*
X70610694Y68124500D01*
X70889306Y68124500D01*
X70889313Y68124500D01*
X71165554Y68160868D01*
X71434686Y68232981D01*
X71692102Y68339606D01*
X71933398Y68478919D01*
X72154447Y68648535D01*
X72351465Y68845553D01*
X72521081Y69066602D01*
X72660394Y69307898D01*
X72767019Y69565314D01*
X72839132Y69834446D01*
X72875500Y70110687D01*
X72875500Y70389313D01*
X72839132Y70665554D01*
X72767019Y70934686D01*
X72660394Y71192102D01*
X72660392Y71192105D01*
X72660390Y71192110D01*
X72521085Y71433391D01*
X72521081Y71433398D01*
X72418950Y71566499D01*
X72351466Y71654446D01*
X72351460Y71654453D01*
X72154452Y71851461D01*
X72154445Y71851467D01*
X71933406Y72021075D01*
X71933404Y72021077D01*
X71933398Y72021081D01*
X71933393Y72021084D01*
X71933390Y72021086D01*
X71692109Y72160391D01*
X71692098Y72160396D01*
X71434695Y72267016D01*
X71434688Y72267018D01*
X71434686Y72267019D01*
X71165554Y72339132D01*
X71165548Y72339133D01*
X71165543Y72339134D01*
X70889322Y72375499D01*
X70889319Y72375500D01*
X70889313Y72375500D01*
X70610687Y72375500D01*
X70610681Y72375500D01*
X70610677Y72375499D01*
X70334456Y72339134D01*
X70334449Y72339133D01*
X70334446Y72339132D01*
X70065314Y72267019D01*
X70065304Y72267016D01*
X69807901Y72160396D01*
X69807890Y72160391D01*
X69566609Y72021086D01*
X69566593Y72021075D01*
X69345554Y71851467D01*
X69345547Y71851461D01*
X69148539Y71654453D01*
X69148533Y71654446D01*
X68978925Y71433407D01*
X68978914Y71433391D01*
X68839609Y71192110D01*
X68839604Y71192099D01*
X68732984Y70934696D01*
X68732981Y70934686D01*
X68660869Y70665557D01*
X68660866Y70665544D01*
X68624501Y70389323D01*
X68624500Y70389307D01*
X66842797Y70389307D01*
X66902652Y70659296D01*
X66905439Y70669696D01*
X67020235Y71033783D01*
X67023919Y71043904D01*
X67170007Y71396590D01*
X67174565Y71406364D01*
X67350826Y71744957D01*
X67356221Y71754302D01*
X67561329Y72076260D01*
X67567519Y72085099D01*
X67799891Y72387932D01*
X67806841Y72396215D01*
X68064730Y72677653D01*
X68065924Y72678847D01*
X73399500Y72678847D01*
X73399500Y72521154D01*
X73430261Y72366511D01*
X73430264Y72366499D01*
X73490602Y72220828D01*
X73490609Y72220815D01*
X73578210Y72089712D01*
X73578213Y72089708D01*
X73689707Y71978214D01*
X73689711Y71978211D01*
X73820814Y71890610D01*
X73820827Y71890603D01*
X73915316Y71851465D01*
X73966503Y71830263D01*
X74121153Y71799501D01*
X74121156Y71799500D01*
X74121158Y71799500D01*
X74278844Y71799500D01*
X74278845Y71799501D01*
X74433497Y71830263D01*
X74550790Y71878847D01*
X86199500Y71878847D01*
X86199500Y71721154D01*
X86230261Y71566511D01*
X86230264Y71566499D01*
X86290602Y71420828D01*
X86290609Y71420815D01*
X86378210Y71289712D01*
X86378213Y71289708D01*
X86489707Y71178214D01*
X86489711Y71178211D01*
X86620814Y71090610D01*
X86620827Y71090603D01*
X86758058Y71033761D01*
X86766503Y71030263D01*
X86921153Y70999501D01*
X86921156Y70999500D01*
X86921158Y70999500D01*
X87078844Y70999500D01*
X87078845Y70999501D01*
X87233497Y71030263D01*
X87379179Y71090606D01*
X87510289Y71178211D01*
X87621789Y71289711D01*
X87709394Y71420821D01*
X87769737Y71566503D01*
X87800500Y71721158D01*
X87800500Y71878842D01*
X87800500Y71878845D01*
X87800499Y71878847D01*
X87792737Y71917868D01*
X87769737Y72033497D01*
X87752029Y72076248D01*
X87709397Y72179173D01*
X87709390Y72179186D01*
X87621789Y72310289D01*
X87621786Y72310293D01*
X87510292Y72421787D01*
X87510288Y72421790D01*
X87379185Y72509391D01*
X87379172Y72509398D01*
X87233501Y72569736D01*
X87233489Y72569739D01*
X87078845Y72600500D01*
X87078842Y72600500D01*
X86921158Y72600500D01*
X86921155Y72600500D01*
X86766510Y72569739D01*
X86766498Y72569736D01*
X86620827Y72509398D01*
X86620814Y72509391D01*
X86489711Y72421790D01*
X86489707Y72421787D01*
X86378213Y72310293D01*
X86378210Y72310289D01*
X86290609Y72179186D01*
X86290602Y72179173D01*
X86230264Y72033502D01*
X86230261Y72033490D01*
X86199500Y71878847D01*
X74550790Y71878847D01*
X74579179Y71890606D01*
X74710289Y71978211D01*
X74821789Y72089711D01*
X74909394Y72220821D01*
X74969737Y72366503D01*
X75000500Y72521158D01*
X75000500Y72678842D01*
X75000500Y72678845D01*
X75000499Y72678847D01*
X74981103Y72776356D01*
X74969737Y72833497D01*
X74952883Y72874187D01*
X74909397Y72979173D01*
X74909390Y72979186D01*
X74821789Y73110289D01*
X74821786Y73110293D01*
X74710292Y73221787D01*
X74710288Y73221790D01*
X74579185Y73309391D01*
X74579172Y73309398D01*
X74433501Y73369736D01*
X74433489Y73369739D01*
X74278845Y73400500D01*
X74278842Y73400500D01*
X74121158Y73400500D01*
X74121155Y73400500D01*
X73966510Y73369739D01*
X73966498Y73369736D01*
X73820827Y73309398D01*
X73820814Y73309391D01*
X73689711Y73221790D01*
X73689707Y73221787D01*
X73578213Y73110293D01*
X73578210Y73110289D01*
X73490609Y72979186D01*
X73490602Y72979173D01*
X73430264Y72833502D01*
X73430261Y72833490D01*
X73399500Y72678847D01*
X68065924Y72678847D01*
X68072357Y72685280D01*
X68353788Y72943165D01*
X68362062Y72950110D01*
X68664921Y73182504D01*
X68673760Y73188691D01*
X68995697Y73393789D01*
X69005038Y73399183D01*
X69343633Y73575447D01*
X69353424Y73580013D01*
X69706093Y73726095D01*
X69716229Y73729784D01*
X70080293Y73844576D01*
X70090731Y73847371D01*
X70463392Y73929991D01*
X70474028Y73931868D01*
X70852498Y73981696D01*
X70863232Y73982636D01*
X71225738Y73998466D01*
X71246731Y73999382D01*
X71252140Y73999500D01*
X71315896Y73999500D01*
X89895496Y73999500D01*
X89962535Y73979815D01*
G37*
%TD.AperFunction*%
%TD*%
%TA.AperFunction,Conductor*%
%TO.N,VDD_NRF*%
G36*
X91054254Y56181295D02*
G01*
X91054267Y56181288D01*
X91199938Y56120950D01*
X91199943Y56120948D01*
X91354593Y56090186D01*
X91354596Y56090185D01*
X91354598Y56090185D01*
X91512284Y56090185D01*
X91512285Y56090186D01*
X91666937Y56120948D01*
X91760990Y56159907D01*
X91830456Y56167375D01*
X91855883Y56159910D01*
X91949943Y56120948D01*
X92104593Y56090186D01*
X92104596Y56090185D01*
X92104598Y56090185D01*
X92262284Y56090185D01*
X92262285Y56090186D01*
X92416937Y56120948D01*
X92510990Y56159907D01*
X92580456Y56167375D01*
X92605883Y56159910D01*
X92699943Y56120948D01*
X92854593Y56090186D01*
X92854596Y56090185D01*
X92854598Y56090185D01*
X93012284Y56090185D01*
X93012285Y56090186D01*
X93166937Y56120948D01*
X93260990Y56159907D01*
X93330456Y56167375D01*
X93355883Y56159910D01*
X93449943Y56120948D01*
X93604593Y56090186D01*
X93604596Y56090185D01*
X93604598Y56090185D01*
X93762284Y56090185D01*
X93762285Y56090186D01*
X93916937Y56120948D01*
X94010990Y56159907D01*
X94080456Y56167375D01*
X94105883Y56159910D01*
X94199943Y56120948D01*
X94354593Y56090186D01*
X94354596Y56090185D01*
X94354598Y56090185D01*
X94512284Y56090185D01*
X94512285Y56090186D01*
X94666937Y56120948D01*
X94760990Y56159907D01*
X94830456Y56167375D01*
X94855883Y56159910D01*
X94949943Y56120948D01*
X95104593Y56090186D01*
X95104596Y56090185D01*
X95104598Y56090185D01*
X95262284Y56090185D01*
X95262285Y56090186D01*
X95416937Y56120948D01*
X95510990Y56159907D01*
X95580456Y56167375D01*
X95605883Y56159910D01*
X95699943Y56120948D01*
X95854593Y56090186D01*
X95854596Y56090185D01*
X95854598Y56090185D01*
X96012284Y56090185D01*
X96012285Y56090186D01*
X96166937Y56120948D01*
X96260990Y56159907D01*
X96285267Y56162517D01*
X96308715Y56169345D01*
X96322719Y56166544D01*
X96330456Y56167375D01*
X96343639Y56164244D01*
X96349874Y56162398D01*
X96449943Y56120948D01*
X96571707Y56096728D01*
X96577154Y56095115D01*
X96601931Y56079115D01*
X96628057Y56065448D01*
X96630944Y56060378D01*
X96635848Y56057211D01*
X96648040Y56030356D01*
X96662632Y56004732D01*
X96663572Y56000408D01*
X96680261Y55916509D01*
X96680264Y55916499D01*
X96740602Y55770828D01*
X96740609Y55770815D01*
X96828210Y55639712D01*
X96828213Y55639708D01*
X96939707Y55528214D01*
X96939711Y55528211D01*
X97070814Y55440610D01*
X97070827Y55440603D01*
X97216498Y55380265D01*
X97216503Y55380263D01*
X97371153Y55349501D01*
X97371156Y55349500D01*
X97371158Y55349500D01*
X97528844Y55349500D01*
X97528845Y55349501D01*
X97683497Y55380263D01*
X97829179Y55440606D01*
X97960289Y55528211D01*
X98071789Y55639711D01*
X98159394Y55770821D01*
X98219737Y55916503D01*
X98237791Y56007270D01*
X98270175Y56069178D01*
X98330891Y56103752D01*
X98335163Y56104683D01*
X98416937Y56120948D01*
X98562619Y56181291D01*
X98562622Y56181294D01*
X98567049Y56183658D01*
X98635452Y56197899D01*
X98700695Y56172898D01*
X98742065Y56116592D01*
X98749500Y56074299D01*
X98749500Y53502705D01*
X98749382Y53497296D01*
X98732615Y53113248D01*
X98731672Y53102472D01*
X98681851Y52724042D01*
X98679973Y52713389D01*
X98597357Y52340728D01*
X98594557Y52330279D01*
X98479778Y51966246D01*
X98476078Y51956080D01*
X98330006Y51603430D01*
X98325434Y51593626D01*
X98149187Y51255060D01*
X98143779Y51245692D01*
X97938689Y50923765D01*
X97932484Y50914903D01*
X97700110Y50612068D01*
X97693156Y50603781D01*
X97435294Y50322376D01*
X97427645Y50314727D01*
X97146213Y50056845D01*
X97137926Y50049892D01*
X96835109Y49817533D01*
X96826248Y49811328D01*
X96504318Y49606238D01*
X96494950Y49600830D01*
X96156371Y49424578D01*
X96146566Y49420006D01*
X95793926Y49273941D01*
X95783761Y49270241D01*
X95419725Y49155462D01*
X95409275Y49152662D01*
X95036612Y49070048D01*
X95025959Y49068170D01*
X94647531Y49018352D01*
X94636755Y49017409D01*
X94252130Y49000619D01*
X94246724Y49000501D01*
X94214422Y49000501D01*
X94184112Y49000501D01*
X94184108Y49000501D01*
X94176504Y49000500D01*
X94176503Y49000501D01*
X94176502Y49000500D01*
X91000000Y49000500D01*
X91000000Y50609975D01*
X92125582Y50609975D01*
X92125582Y50463056D01*
X92153565Y50322376D01*
X92154242Y50318973D01*
X92164626Y50293904D01*
X92210460Y50183249D01*
X92210465Y50183240D01*
X92292080Y50061096D01*
X92292083Y50061092D01*
X92395958Y49957217D01*
X92395962Y49957214D01*
X92518106Y49875599D01*
X92518112Y49875596D01*
X92518113Y49875595D01*
X92653840Y49819375D01*
X92797922Y49790716D01*
X92797926Y49790715D01*
X92797927Y49790715D01*
X92944838Y49790715D01*
X92944839Y49790716D01*
X93088924Y49819375D01*
X93224651Y49875595D01*
X93346802Y49957214D01*
X93450683Y50061095D01*
X93532302Y50183246D01*
X93588522Y50318973D01*
X93617182Y50463060D01*
X93617182Y50609970D01*
X93588522Y50754057D01*
X93532302Y50889784D01*
X93532301Y50889785D01*
X93532298Y50889791D01*
X93450683Y51011935D01*
X93450680Y51011939D01*
X93346805Y51115814D01*
X93346801Y51115817D01*
X93224657Y51197432D01*
X93224648Y51197437D01*
X93108148Y51245692D01*
X93088924Y51253655D01*
X93088920Y51253656D01*
X93088916Y51253657D01*
X92944841Y51282315D01*
X92944837Y51282315D01*
X92797927Y51282315D01*
X92797922Y51282315D01*
X92653847Y51253657D01*
X92653837Y51253654D01*
X92518115Y51197437D01*
X92518106Y51197432D01*
X92395962Y51115817D01*
X92395958Y51115814D01*
X92292083Y51011939D01*
X92292080Y51011935D01*
X92210465Y50889791D01*
X92210460Y50889782D01*
X92154243Y50754060D01*
X92154240Y50754050D01*
X92125582Y50609975D01*
X91000000Y50609975D01*
X91000000Y51366741D01*
X91081265Y51312440D01*
X91081271Y51312437D01*
X91081272Y51312436D01*
X91216999Y51256216D01*
X91361081Y51227557D01*
X91361085Y51227556D01*
X91361086Y51227556D01*
X91507997Y51227556D01*
X91507998Y51227557D01*
X91652083Y51256216D01*
X91787810Y51312436D01*
X91909961Y51394055D01*
X92013842Y51497936D01*
X92095461Y51620087D01*
X92151681Y51755814D01*
X92180341Y51899901D01*
X92180341Y52046811D01*
X92151681Y52190898D01*
X92095461Y52326625D01*
X92095460Y52326626D01*
X92095457Y52326632D01*
X92013842Y52448776D01*
X92013839Y52448780D01*
X91909964Y52552655D01*
X91909960Y52552658D01*
X91787816Y52634273D01*
X91787807Y52634278D01*
X91652085Y52690495D01*
X91652086Y52690495D01*
X91652083Y52690496D01*
X91652079Y52690497D01*
X91652075Y52690498D01*
X91508000Y52719156D01*
X91507996Y52719156D01*
X91361086Y52719156D01*
X91361081Y52719156D01*
X91217006Y52690498D01*
X91216996Y52690495D01*
X91081274Y52634278D01*
X91081265Y52634273D01*
X91000000Y52579973D01*
X91000000Y54162057D01*
X91016401Y54162057D01*
X91016402Y54162058D01*
X91171054Y54192820D01*
X91316736Y54253163D01*
X91418611Y54321235D01*
X91485286Y54342111D01*
X91552666Y54323627D01*
X91556344Y54321264D01*
X91658264Y54253163D01*
X91658266Y54253162D01*
X91658270Y54253160D01*
X91803941Y54192822D01*
X91803946Y54192820D01*
X91958596Y54162058D01*
X91958599Y54162057D01*
X91958601Y54162057D01*
X92116287Y54162057D01*
X92116288Y54162058D01*
X92270940Y54192820D01*
X92416622Y54253163D01*
X92547732Y54340768D01*
X92659232Y54452268D01*
X92746837Y54583378D01*
X92807180Y54729060D01*
X92837943Y54883715D01*
X92837943Y54920498D01*
X94999264Y54920498D01*
X94999264Y54773579D01*
X95027922Y54629504D01*
X95027925Y54629494D01*
X95084142Y54493772D01*
X95084147Y54493763D01*
X95165762Y54371619D01*
X95165765Y54371615D01*
X95269640Y54267740D01*
X95269644Y54267737D01*
X95391788Y54186122D01*
X95391794Y54186119D01*
X95391795Y54186118D01*
X95527522Y54129898D01*
X95671604Y54101239D01*
X95671608Y54101238D01*
X95671609Y54101238D01*
X95818520Y54101238D01*
X95818521Y54101239D01*
X95962606Y54129898D01*
X96098333Y54186118D01*
X96220484Y54267737D01*
X96324365Y54371618D01*
X96405984Y54493769D01*
X96462204Y54629496D01*
X96490864Y54773583D01*
X96490864Y54920493D01*
X96462204Y55064580D01*
X96405984Y55200307D01*
X96405983Y55200308D01*
X96405980Y55200314D01*
X96324365Y55322458D01*
X96324362Y55322462D01*
X96220487Y55426337D01*
X96220483Y55426340D01*
X96098339Y55507955D01*
X96098330Y55507960D01*
X95962608Y55564177D01*
X95962609Y55564177D01*
X95962606Y55564178D01*
X95962602Y55564179D01*
X95962598Y55564180D01*
X95818523Y55592838D01*
X95818519Y55592838D01*
X95671609Y55592838D01*
X95671604Y55592838D01*
X95527529Y55564180D01*
X95527519Y55564177D01*
X95391797Y55507960D01*
X95391788Y55507955D01*
X95269644Y55426340D01*
X95269640Y55426337D01*
X95165765Y55322462D01*
X95165762Y55322458D01*
X95084147Y55200314D01*
X95084142Y55200305D01*
X95027925Y55064583D01*
X95027922Y55064573D01*
X94999264Y54920498D01*
X92837943Y54920498D01*
X92837943Y55041399D01*
X92837943Y55041402D01*
X92837942Y55041404D01*
X92807181Y55196047D01*
X92807180Y55196054D01*
X92805418Y55200307D01*
X92746840Y55341730D01*
X92746833Y55341743D01*
X92659232Y55472846D01*
X92659229Y55472850D01*
X92547735Y55584344D01*
X92547731Y55584347D01*
X92416628Y55671948D01*
X92416615Y55671955D01*
X92270944Y55732293D01*
X92270932Y55732296D01*
X92116288Y55763057D01*
X92116285Y55763057D01*
X91958601Y55763057D01*
X91958598Y55763057D01*
X91803953Y55732296D01*
X91803941Y55732293D01*
X91658270Y55671955D01*
X91658257Y55671948D01*
X91556391Y55603882D01*
X91489714Y55583004D01*
X91422333Y55601488D01*
X91418609Y55603882D01*
X91316742Y55671948D01*
X91316729Y55671955D01*
X91171058Y55732293D01*
X91171046Y55732296D01*
X91016402Y55763057D01*
X91016399Y55763057D01*
X91000000Y55763057D01*
X91000000Y56217547D01*
X91054254Y56181295D01*
G37*
%TD.AperFunction*%
%TD*%
M02*
