%TF.GenerationSoftware,KiCad,Pcbnew,9.0.6-9.0.6~ubuntu24.04.1*%
%TF.CreationDate,2025-11-12T21:39:12-05:00*%
%TF.ProjectId,tire_sensor_jlcpcb,74697265-5f73-4656-9e73-6f725f6a6c63,rev?*%
%TF.SameCoordinates,Original*%
%TF.FileFunction,Soldermask,Top*%
%TF.FilePolarity,Negative*%
%FSLAX46Y46*%
G04 Gerber Fmt 4.6, Leading zero omitted, Abs format (unit mm)*
G04 Created by KiCad (PCBNEW 9.0.6-9.0.6~ubuntu24.04.1) date 2025-11-12 21:39:12*
%MOMM*%
%LPD*%
G01*
G04 APERTURE LIST*
G04 Aperture macros list*
%AMRoundRect*
0 Rectangle with rounded corners*
0 $1 Rounding radius*
0 $2 $3 $4 $5 $6 $7 $8 $9 X,Y pos of 4 corners*
0 Add a 4 corners polygon primitive as box body*
4,1,4,$2,$3,$4,$5,$6,$7,$8,$9,$2,$3,0*
0 Add four circle primitives for the rounded corners*
1,1,$1+$1,$2,$3*
1,1,$1+$1,$4,$5*
1,1,$1+$1,$6,$7*
1,1,$1+$1,$8,$9*
0 Add four rect primitives between the rounded corners*
20,1,$1+$1,$2,$3,$4,$5,0*
20,1,$1+$1,$4,$5,$6,$7,0*
20,1,$1+$1,$6,$7,$8,$9,0*
20,1,$1+$1,$8,$9,$2,$3,0*%
G04 Aperture macros list end*
%ADD10RoundRect,0.159000X-0.159000X-0.189000X0.159000X-0.189000X0.159000X0.189000X-0.159000X0.189000X0*%
%ADD11RoundRect,0.159000X0.189000X-0.159000X0.189000X0.159000X-0.189000X0.159000X-0.189000X-0.159000X0*%
%ADD12RoundRect,0.076200X0.381000X0.419100X-0.381000X0.419100X-0.381000X-0.419100X0.381000X-0.419100X0*%
%ADD13RoundRect,0.159000X0.159000X0.189000X-0.159000X0.189000X-0.159000X-0.189000X0.159000X-0.189000X0*%
%ADD14RoundRect,0.159000X-0.189000X0.159000X-0.189000X-0.159000X0.189000X-0.159000X0.189000X0.159000X0*%
%ADD15RoundRect,0.269000X0.250369X-0.503699X0.558953X-0.062995X-0.250369X0.503699X-0.558953X0.062995X0*%
%ADD16C,1.143000*%
%ADD17C,0.939800*%
%ADD18RoundRect,0.088100X-0.388100X-0.088100X0.388100X-0.088100X0.388100X0.088100X-0.388100X0.088100X0*%
%ADD19RoundRect,0.088100X-0.088100X-0.388100X0.088100X-0.388100X0.088100X0.388100X-0.088100X0.388100X0*%
%ADD20RoundRect,0.076200X-2.300000X-2.300000X2.300000X-2.300000X2.300000X2.300000X-2.300000X2.300000X0*%
%ADD21RoundRect,0.244000X0.269000X-0.244000X0.269000X0.244000X-0.269000X0.244000X-0.269000X-0.244000X0*%
%ADD22RoundRect,0.288100X0.688100X0.288100X-0.688100X0.288100X-0.688100X-0.288100X0.688100X-0.288100X0*%
%ADD23RoundRect,0.087500X-0.225000X-0.087500X0.225000X-0.087500X0.225000X0.087500X-0.225000X0.087500X0*%
%ADD24RoundRect,0.087500X-0.087500X-0.225000X0.087500X-0.225000X0.087500X0.225000X-0.087500X0.225000X0*%
%ADD25RoundRect,0.287778X0.714222X-0.489222X0.714222X0.489222X-0.714222X0.489222X-0.714222X-0.489222X0*%
%ADD26RoundRect,0.101600X0.175000X-0.175000X0.175000X0.175000X-0.175000X0.175000X-0.175000X-0.175000X0*%
%ADD27RoundRect,0.256850X0.294350X-0.256850X0.294350X0.256850X-0.294350X0.256850X-0.294350X-0.256850X0*%
G04 APERTURE END LIST*
D10*
%TO.C,C2*%
X86000000Y65750000D03*
X85000000Y65750000D03*
%TD*%
D11*
%TO.C,C1*%
X87250000Y64250000D03*
X87250000Y63250000D03*
%TD*%
D12*
%TO.C,X1*%
X84990300Y63198000D03*
X84990300Y64548000D03*
X86040300Y64548000D03*
X86040300Y63198000D03*
%TD*%
D11*
%TO.C,C13*%
X82900000Y64600000D03*
X82900000Y65600000D03*
%TD*%
D13*
%TO.C,R2*%
X82765940Y68240685D03*
X81765940Y68240685D03*
%TD*%
D11*
%TO.C,C18*%
X86433440Y52390685D03*
X86433440Y53390685D03*
%TD*%
D13*
%TO.C,C5*%
X77433440Y56890685D03*
X76433440Y56890685D03*
%TD*%
D11*
%TO.C,C19*%
X86433440Y54390685D03*
X86433440Y55390685D03*
%TD*%
D14*
%TO.C,R6*%
X71500000Y60500000D03*
X71500000Y59500000D03*
%TD*%
D13*
%TO.C,R3*%
X80965940Y68240685D03*
X79965940Y68240685D03*
%TD*%
D15*
%TO.C,C15*%
X72705102Y67471805D03*
X73794898Y69028195D03*
%TD*%
D10*
%TO.C,L1*%
X85700000Y60500000D03*
X86700000Y60500000D03*
%TD*%
D14*
%TO.C,C12*%
X73950000Y61890685D03*
X73950000Y60890685D03*
%TD*%
%TO.C,C11*%
X75500000Y65640685D03*
X75500000Y64640685D03*
%TD*%
D16*
%TO.C,J1*%
X72643090Y51189477D03*
X68332567Y54063159D03*
X69769408Y55500000D03*
D17*
X72194078Y52536514D03*
X71296052Y51638490D03*
X71296052Y53434541D03*
X70398026Y52536515D03*
X70398026Y54332566D03*
X69500000Y53434542D03*
%TD*%
D18*
%TO.C,U1*%
X77580000Y62800000D03*
X77580000Y62400000D03*
X77580000Y62000000D03*
X77580000Y61600000D03*
X77580000Y61200000D03*
X77580000Y60800000D03*
X77580000Y60400000D03*
X77580000Y60000000D03*
X77580000Y59600000D03*
X77580000Y59200000D03*
X77580000Y58800000D03*
X77580000Y58400000D03*
D19*
X78330000Y57650000D03*
X78730000Y57650000D03*
X79130000Y57650000D03*
X79530000Y57650000D03*
X79930000Y57650000D03*
X80330000Y57650000D03*
X80730000Y57650000D03*
X81130000Y57650000D03*
X81530000Y57650000D03*
X81930000Y57650000D03*
X82330000Y57650000D03*
X82730000Y57650000D03*
D18*
X83480000Y58400000D03*
X83480000Y58800000D03*
X83480000Y59200000D03*
X83480000Y59600000D03*
X83480000Y60000000D03*
X83480000Y60400000D03*
X83480000Y60800000D03*
X83480000Y61200000D03*
X83480000Y61600000D03*
X83480000Y62000000D03*
X83480000Y62400000D03*
X83480000Y62800000D03*
D19*
X82730000Y63550000D03*
X82330000Y63550000D03*
X81930000Y63550000D03*
X81530000Y63550000D03*
X81130000Y63550000D03*
X80730000Y63550000D03*
X80330000Y63550000D03*
X79930000Y63550000D03*
X79530000Y63550000D03*
X79130000Y63550000D03*
X78730000Y63550000D03*
X78330000Y63550000D03*
D20*
X80530000Y60600000D03*
%TD*%
D21*
%TO.C,C10*%
X78600000Y64820000D03*
X78600000Y66380000D03*
%TD*%
D11*
%TO.C,C3*%
X84683440Y60390685D03*
X84683440Y61390685D03*
%TD*%
%TO.C,C14*%
X82100000Y64600000D03*
X82100000Y65600000D03*
%TD*%
D22*
%TO.C,X2*%
X75433440Y60890685D03*
X75433440Y63390685D03*
%TD*%
D13*
%TO.C,C17*%
X79433440Y51890685D03*
X78433440Y51890685D03*
%TD*%
D10*
%TO.C,C7*%
X85683440Y61390685D03*
X86683440Y61390685D03*
%TD*%
D11*
%TO.C,C8*%
X83800000Y64400000D03*
X83800000Y65400000D03*
%TD*%
D21*
%TO.C,C9*%
X77300000Y64520000D03*
X77300000Y66080000D03*
%TD*%
D23*
%TO.C,U3*%
X78933440Y54640685D03*
X78933440Y54140685D03*
X78933440Y53640685D03*
X78933440Y53140685D03*
D24*
X79595940Y52978185D03*
X80095940Y52978185D03*
X80595940Y52978185D03*
D23*
X81258440Y53140685D03*
X81258440Y53640685D03*
X81258440Y54140685D03*
X81258440Y54640685D03*
D24*
X80595940Y54803185D03*
X80095940Y54803185D03*
X79595940Y54803185D03*
%TD*%
D25*
%TO.C,S1*%
X69250000Y59425000D03*
X69250000Y63575000D03*
%TD*%
D26*
%TO.C,U2*%
X83433440Y52690685D03*
X83433440Y53340685D03*
X83433440Y53990685D03*
X83433440Y54640685D03*
X84883440Y54640685D03*
X84883440Y53990685D03*
X84883440Y53340685D03*
X84883440Y52690685D03*
%TD*%
D11*
%TO.C,C4*%
X76300000Y64640685D03*
X76300000Y65640685D03*
%TD*%
D27*
%TO.C,D1*%
X83498440Y69353185D03*
X83498440Y70928185D03*
%TD*%
%TO.C,D3*%
X80433440Y69353185D03*
X80433440Y70928185D03*
%TD*%
D13*
%TO.C,R1*%
X84565940Y68240685D03*
X83565940Y68240685D03*
%TD*%
D27*
%TO.C,D4*%
X78900940Y69353185D03*
X78900940Y70928185D03*
%TD*%
%TO.C,D2*%
X81965940Y69353185D03*
X81965940Y70928185D03*
%TD*%
D13*
%TO.C,C16*%
X81433440Y51890685D03*
X80433440Y51890685D03*
%TD*%
D10*
%TO.C,R4*%
X78165940Y68240685D03*
X79165940Y68240685D03*
%TD*%
M02*
