%TF.GenerationSoftware,KiCad,Pcbnew,9.0.3-9.0.3-0~ubuntu24.04.1*%
%TF.CreationDate,2025-07-11T01:45:30-04:00*%
%TF.ProjectId,tire_sensor,74697265-5f73-4656-9e73-6f722e6b6963,rev?*%
%TF.SameCoordinates,Original*%
%TF.FileFunction,Copper,L2,Inr*%
%TF.FilePolarity,Positive*%
%FSLAX46Y46*%
G04 Gerber Fmt 4.6, Leading zero omitted, Abs format (unit mm)*
G04 Created by KiCad (PCBNEW 9.0.3-9.0.3-0~ubuntu24.04.1) date 2025-07-11 01:45:30*
%MOMM*%
%LPD*%
G01*
G04 APERTURE LIST*
%TA.AperFunction,HeatsinkPad*%
%ADD10C,0.500000*%
%TD*%
%TA.AperFunction,ComponentPad*%
%ADD11R,0.500000X0.900000*%
%TD*%
%TA.AperFunction,ViaPad*%
%ADD12C,0.300000*%
%TD*%
%TA.AperFunction,ViaPad*%
%ADD13C,0.600000*%
%TD*%
%TA.AperFunction,ViaPad*%
%ADD14C,3.250000*%
%TD*%
G04 APERTURE END LIST*
D10*
%TO.N,GND*%
%TO.C,U1*%
X82330000Y58800000D03*
X82330000Y60000000D03*
X82330000Y61200000D03*
X82330000Y62400000D03*
X81130000Y58800000D03*
X81130000Y60000000D03*
X81130000Y61200000D03*
X81130000Y62400000D03*
X79930000Y58800000D03*
X79930000Y60000000D03*
X79930000Y61200000D03*
X79930000Y62400000D03*
X78730000Y58800000D03*
X78730000Y60000000D03*
X78730000Y61200000D03*
X78730000Y62400000D03*
%TD*%
D11*
%TO.N,GND*%
%TO.C,AE1*%
X90750000Y58400000D03*
%TD*%
D12*
%TO.N,GND*%
X87000000Y61100000D03*
D13*
X75750000Y58750000D03*
X89000000Y62500000D03*
X71000000Y66750000D03*
X69000000Y56500000D03*
X78250000Y50500000D03*
X87000000Y56750000D03*
X86250000Y71250000D03*
%TO.N,VDD_NRF*%
X72250000Y56500000D03*
%TO.N,GND*%
X84750000Y55500000D03*
%TO.N,VDD_NRF*%
X75685000Y71287500D03*
%TO.N,GND*%
X87000000Y63400000D03*
%TO.N,VDD_NRF*%
X78250000Y56500000D03*
X78400000Y53050000D03*
X68050000Y61750000D03*
%TO.N,GND*%
X74970000Y63750000D03*
X87400000Y66900000D03*
%TO.N,VDD_NRF*%
X93600000Y55100000D03*
%TO.N,/nRESET*%
X92037443Y54962557D03*
X90937557Y54962557D03*
%TO.N,VDD_NRF*%
X88500000Y53000000D03*
D12*
%TO.N,GND*%
X90700000Y59100000D03*
X90443879Y59926017D03*
X90657697Y61050000D03*
X90192136Y61039320D03*
X90000000Y60000000D03*
X89600000Y60000000D03*
X89200000Y60000000D03*
X88800000Y60000000D03*
X88400000Y60000000D03*
X88000000Y60000000D03*
X87600000Y60000000D03*
X87400000Y61000000D03*
X87800000Y61000000D03*
X88200000Y61000000D03*
X88600000Y61000000D03*
X89000000Y61000000D03*
X89400000Y61000000D03*
D14*
X70750000Y52750000D03*
X70750000Y70250000D03*
D13*
%TO.N,VDD_NRF*%
X76530000Y63750000D03*
X70250000Y60750000D03*
X83600000Y64900000D03*
D12*
%TO.N,GND*%
X85200000Y59780000D03*
X85600000Y59780000D03*
D13*
X86250000Y62500000D03*
D12*
X89800000Y60980000D03*
D13*
X83600000Y65900000D03*
X75250000Y62750000D03*
X77220000Y65050000D03*
X82600000Y65900000D03*
X88500000Y54000000D03*
X84600000Y66100000D03*
D12*
X86000000Y59780000D03*
X87200000Y60000000D03*
D13*
X77250000Y56500000D03*
X78250000Y54000000D03*
X81600000Y65900000D03*
X79250000Y54000000D03*
X73000000Y59000000D03*
X84750000Y59500000D03*
X85700000Y64700000D03*
D12*
X86800000Y59780000D03*
D13*
X72750000Y63500000D03*
D12*
X86400000Y59780000D03*
D13*
X86250000Y61500000D03*
X70250000Y62750000D03*
%TO.N,/SDO*%
X81671956Y53722419D03*
X81671956Y55950000D03*
X83880000Y53100000D03*
%TO.N,/CS_DPS368*%
X80880000Y55700000D03*
%TO.N,/SDI*%
X83880000Y54145400D03*
%TO.N,/SCK*%
X83880000Y56550000D03*
%TO.N,/INT_LIS3DHTR*%
X86482403Y53550000D03*
X79730000Y56550000D03*
%TO.N,/CS_LIS3DHTR*%
X80601400Y56550000D03*
X85730000Y53550000D03*
%TO.N,GND*%
X97400000Y56100000D03*
D12*
X97600000Y56800000D03*
X96800000Y56800000D03*
X90800000Y70200000D03*
X93600000Y56800000D03*
X90800000Y67400000D03*
X90700000Y59500000D03*
X90800000Y66200000D03*
D13*
X97400000Y55400000D03*
D12*
X90800000Y65400000D03*
X92400000Y56800000D03*
X90800000Y64600000D03*
X96000000Y56800000D03*
X90800000Y69000000D03*
X98400000Y56800000D03*
X98000000Y56800000D03*
X90800000Y63400000D03*
X90800000Y61400000D03*
X90800000Y66600000D03*
X94800000Y56800000D03*
X90800000Y57600000D03*
X90800000Y56800000D03*
X90800000Y70600000D03*
X94400000Y56800000D03*
X90800000Y65800000D03*
X90800000Y63800000D03*
X93200000Y56800000D03*
X90800000Y71000000D03*
X90800000Y68200000D03*
X90800000Y62600000D03*
X90800000Y73000000D03*
X97200000Y56800000D03*
X90800000Y69800000D03*
X92000000Y56800000D03*
X90800000Y65000000D03*
X90800000Y68600000D03*
X92800000Y56800000D03*
X90800000Y73400000D03*
X95600000Y56800000D03*
X90800000Y72200000D03*
X90800000Y71400000D03*
X90800000Y69400000D03*
X90800000Y71800000D03*
X94000000Y56800000D03*
X90800000Y63000000D03*
X91600000Y56800000D03*
X96400000Y56800000D03*
X90800000Y62200000D03*
X95200000Y56800000D03*
X90800000Y72600000D03*
X90800000Y67000000D03*
X91200000Y56800000D03*
X90800000Y73800000D03*
X90800000Y64200000D03*
X90800000Y57200000D03*
X90800000Y61800000D03*
X90800000Y67800000D03*
D13*
X89500000Y54000000D03*
%TD*%
%TA.AperFunction,Conductor*%
%TO.N,GND*%
G36*
X94184112Y73999499D02*
G01*
X94247300Y73999500D01*
X94252707Y73999382D01*
X94636754Y73982617D01*
X94647530Y73981674D01*
X94657147Y73980408D01*
X95025969Y73931854D01*
X95036600Y73929981D01*
X95409286Y73847360D01*
X95419712Y73844566D01*
X95783774Y73729779D01*
X95793902Y73726093D01*
X96146581Y73580009D01*
X96156372Y73575443D01*
X96494941Y73399195D01*
X96504309Y73393787D01*
X96826236Y73188697D01*
X96835094Y73182495D01*
X97137925Y72950123D01*
X97146212Y72943169D01*
X97427629Y72685296D01*
X97435278Y72677647D01*
X97693154Y72396222D01*
X97700107Y72387935D01*
X97932468Y72085112D01*
X97938673Y72076250D01*
X98143755Y71754330D01*
X98149164Y71744962D01*
X98325412Y71406386D01*
X98329981Y71396587D01*
X98476057Y71043920D01*
X98479756Y71033754D01*
X98594526Y70669732D01*
X98597326Y70659283D01*
X98679939Y70286619D01*
X98681817Y70275965D01*
X98731631Y69897537D01*
X98732574Y69886761D01*
X98749381Y69501686D01*
X98749499Y69496281D01*
X98749499Y69463788D01*
X98749499Y69434116D01*
X98749499Y69434114D01*
X98749500Y69424122D01*
X98749500Y53502705D01*
X98749382Y53497296D01*
X98732615Y53113248D01*
X98731672Y53102472D01*
X98681851Y52724042D01*
X98679973Y52713389D01*
X98597357Y52340728D01*
X98594557Y52330279D01*
X98479778Y51966246D01*
X98476078Y51956080D01*
X98330006Y51603430D01*
X98325434Y51593626D01*
X98149187Y51255060D01*
X98143779Y51245692D01*
X97938689Y50923765D01*
X97932484Y50914903D01*
X97700110Y50612068D01*
X97693156Y50603781D01*
X97435294Y50322376D01*
X97427645Y50314727D01*
X97146213Y50056845D01*
X97137926Y50049892D01*
X96835109Y49817533D01*
X96826248Y49811328D01*
X96504318Y49606238D01*
X96494950Y49600830D01*
X96156371Y49424578D01*
X96146566Y49420006D01*
X95793926Y49273941D01*
X95783761Y49270241D01*
X95419725Y49155462D01*
X95409275Y49152662D01*
X95036612Y49070048D01*
X95025959Y49068170D01*
X94647531Y49018352D01*
X94636755Y49017409D01*
X94252130Y49000619D01*
X94246724Y49000501D01*
X94214422Y49000501D01*
X94184112Y49000501D01*
X94184108Y49000501D01*
X94176504Y49000500D01*
X94176503Y49000501D01*
X94176502Y49000500D01*
X71252712Y49000500D01*
X71247302Y49000618D01*
X70863252Y49017389D01*
X70852476Y49018332D01*
X70474044Y49068156D01*
X70463391Y49070034D01*
X70090728Y49152653D01*
X70080279Y49155453D01*
X69716242Y49270235D01*
X69706077Y49273935D01*
X69353427Y49420008D01*
X69343623Y49424580D01*
X69005056Y49600827D01*
X68995688Y49606235D01*
X68673752Y49811330D01*
X68664891Y49817535D01*
X68362072Y50049896D01*
X68353785Y50056849D01*
X68072358Y50314727D01*
X68064709Y50322376D01*
X67872358Y50532288D01*
X67857973Y50547986D01*
X67806823Y50603806D01*
X67801647Y50609975D01*
X92125582Y50609975D01*
X92125582Y50463056D01*
X92153565Y50322376D01*
X92154242Y50318973D01*
X92164626Y50293904D01*
X92210460Y50183249D01*
X92210465Y50183240D01*
X92292080Y50061096D01*
X92292083Y50061092D01*
X92395958Y49957217D01*
X92395962Y49957214D01*
X92518106Y49875599D01*
X92518112Y49875596D01*
X92518113Y49875595D01*
X92653840Y49819375D01*
X92797922Y49790716D01*
X92797926Y49790715D01*
X92797927Y49790715D01*
X92944838Y49790715D01*
X92944839Y49790716D01*
X93088924Y49819375D01*
X93224651Y49875595D01*
X93346802Y49957214D01*
X93450683Y50061095D01*
X93532302Y50183246D01*
X93588522Y50318973D01*
X93617182Y50463060D01*
X93617182Y50609970D01*
X93588522Y50754057D01*
X93532302Y50889784D01*
X93532301Y50889785D01*
X93532298Y50889791D01*
X93450683Y51011935D01*
X93450680Y51011939D01*
X93346805Y51115814D01*
X93346801Y51115817D01*
X93224657Y51197432D01*
X93224648Y51197437D01*
X93108148Y51245692D01*
X93088924Y51253655D01*
X93088920Y51253656D01*
X93088916Y51253657D01*
X92944841Y51282315D01*
X92944837Y51282315D01*
X92797927Y51282315D01*
X92797922Y51282315D01*
X92653847Y51253657D01*
X92653837Y51253654D01*
X92518115Y51197437D01*
X92518106Y51197432D01*
X92395962Y51115817D01*
X92395958Y51115814D01*
X92292083Y51011939D01*
X92292080Y51011935D01*
X92210465Y50889791D01*
X92210460Y50889782D01*
X92154243Y50754060D01*
X92154240Y50754050D01*
X92125582Y50609975D01*
X67801647Y50609975D01*
X67799875Y50612087D01*
X67746251Y50681970D01*
X67567509Y50914909D01*
X67561307Y50923766D01*
X67505136Y51011935D01*
X67356213Y51245695D01*
X67350806Y51255059D01*
X67174542Y51593650D01*
X67169985Y51603421D01*
X67035053Y51929168D01*
X67023899Y51956096D01*
X67020200Y51966260D01*
X66994800Y52046816D01*
X90688741Y52046816D01*
X90688741Y51899897D01*
X90717399Y51755822D01*
X90717402Y51755812D01*
X90773619Y51620090D01*
X90773624Y51620081D01*
X90855239Y51497937D01*
X90855242Y51497933D01*
X90959117Y51394058D01*
X90959121Y51394055D01*
X91081265Y51312440D01*
X91081271Y51312437D01*
X91081272Y51312436D01*
X91216999Y51256216D01*
X91361081Y51227557D01*
X91361085Y51227556D01*
X91361086Y51227556D01*
X91507997Y51227556D01*
X91507998Y51227557D01*
X91652083Y51256216D01*
X91787810Y51312436D01*
X91909961Y51394055D01*
X92013842Y51497936D01*
X92095461Y51620087D01*
X92151681Y51755814D01*
X92180341Y51899901D01*
X92180341Y52046811D01*
X92151681Y52190898D01*
X92095461Y52326625D01*
X92095460Y52326626D01*
X92095457Y52326632D01*
X92013842Y52448776D01*
X92013839Y52448780D01*
X91909964Y52552655D01*
X91909960Y52552658D01*
X91787816Y52634273D01*
X91787807Y52634278D01*
X91652085Y52690495D01*
X91652086Y52690495D01*
X91652083Y52690496D01*
X91652079Y52690497D01*
X91652075Y52690498D01*
X91508000Y52719156D01*
X91507996Y52719156D01*
X91361086Y52719156D01*
X91361081Y52719156D01*
X91217006Y52690498D01*
X91216996Y52690495D01*
X91081274Y52634278D01*
X91081265Y52634273D01*
X90959121Y52552658D01*
X90959117Y52552655D01*
X90855242Y52448780D01*
X90855239Y52448776D01*
X90773624Y52326632D01*
X90773619Y52326623D01*
X90717402Y52190901D01*
X90717399Y52190891D01*
X90688741Y52046816D01*
X66994800Y52046816D01*
X66905411Y52330309D01*
X66902618Y52340736D01*
X66896075Y52370249D01*
X66819992Y52713410D01*
X66818121Y52724021D01*
X66768287Y53102501D01*
X66767347Y53113248D01*
X66766666Y53128847D01*
X77599500Y53128847D01*
X77599500Y52971154D01*
X77630261Y52816511D01*
X77630264Y52816499D01*
X77690602Y52670828D01*
X77690609Y52670815D01*
X77778210Y52539712D01*
X77778213Y52539708D01*
X77889707Y52428214D01*
X77889711Y52428211D01*
X78020814Y52340610D01*
X78020827Y52340603D01*
X78166498Y52280265D01*
X78166503Y52280263D01*
X78321153Y52249501D01*
X78321156Y52249500D01*
X78321158Y52249500D01*
X78478844Y52249500D01*
X78478845Y52249501D01*
X78633497Y52280263D01*
X78779179Y52340606D01*
X78910289Y52428211D01*
X79021789Y52539711D01*
X79109394Y52670821D01*
X79169737Y52816503D01*
X79200500Y52971158D01*
X79200500Y53128842D01*
X79200500Y53128845D01*
X79200499Y53128847D01*
X79200364Y53129526D01*
X79169737Y53283497D01*
X79156062Y53316511D01*
X79109397Y53429173D01*
X79109390Y53429186D01*
X79021789Y53560289D01*
X79021786Y53560293D01*
X78910292Y53671787D01*
X78910288Y53671790D01*
X78861707Y53704251D01*
X78779185Y53759391D01*
X78779172Y53759398D01*
X78678092Y53801266D01*
X80871456Y53801266D01*
X80871456Y53643573D01*
X80902217Y53488930D01*
X80902220Y53488918D01*
X80962558Y53343247D01*
X80962565Y53343234D01*
X81050166Y53212131D01*
X81050169Y53212127D01*
X81161663Y53100633D01*
X81161667Y53100630D01*
X81292770Y53013029D01*
X81292783Y53013022D01*
X81393858Y52971156D01*
X81438459Y52952682D01*
X81593109Y52921920D01*
X81593112Y52921919D01*
X81593114Y52921919D01*
X81750800Y52921919D01*
X81750801Y52921920D01*
X81905453Y52952682D01*
X82051135Y53013025D01*
X82182245Y53100630D01*
X82293745Y53212130D01*
X82381350Y53343240D01*
X82441693Y53488922D01*
X82472456Y53643577D01*
X82472456Y53801261D01*
X82472456Y53801264D01*
X82472455Y53801266D01*
X82462662Y53850500D01*
X82441693Y53955916D01*
X82395864Y54066558D01*
X82381353Y54101592D01*
X82381351Y54101596D01*
X82381350Y54101598D01*
X82334449Y54171790D01*
X82299399Y54224247D01*
X83079500Y54224247D01*
X83079500Y54066554D01*
X83110261Y53911911D01*
X83110264Y53911899D01*
X83170602Y53766228D01*
X83170608Y53766217D01*
X83220472Y53691590D01*
X83241349Y53624913D01*
X83222864Y53557533D01*
X83220472Y53553810D01*
X83170608Y53479184D01*
X83170602Y53479173D01*
X83110264Y53333502D01*
X83110261Y53333490D01*
X83079500Y53178847D01*
X83079500Y53021154D01*
X83110261Y52866511D01*
X83110264Y52866499D01*
X83170602Y52720828D01*
X83170609Y52720815D01*
X83258210Y52589712D01*
X83258213Y52589708D01*
X83369707Y52478214D01*
X83369711Y52478211D01*
X83500814Y52390610D01*
X83500827Y52390603D01*
X83646464Y52330279D01*
X83646503Y52330263D01*
X83801153Y52299501D01*
X83801156Y52299500D01*
X83801158Y52299500D01*
X83958844Y52299500D01*
X83958845Y52299501D01*
X84113497Y52330263D01*
X84259179Y52390606D01*
X84390289Y52478211D01*
X84501789Y52589711D01*
X84589394Y52720821D01*
X84649737Y52866503D01*
X84680500Y53021158D01*
X84680500Y53178842D01*
X84680500Y53178845D01*
X84680499Y53178847D01*
X84673879Y53212127D01*
X84649737Y53333497D01*
X84645701Y53343240D01*
X84589397Y53479173D01*
X84589390Y53479186D01*
X84539528Y53553809D01*
X84533553Y53572888D01*
X84523047Y53589898D01*
X84523326Y53605550D01*
X84518650Y53620486D01*
X84520943Y53628847D01*
X84929500Y53628847D01*
X84929500Y53471154D01*
X84960261Y53316511D01*
X84960264Y53316499D01*
X85020602Y53170828D01*
X85020609Y53170815D01*
X85108210Y53039712D01*
X85108213Y53039708D01*
X85219707Y52928214D01*
X85219711Y52928211D01*
X85350814Y52840610D01*
X85350827Y52840603D01*
X85496498Y52780265D01*
X85496503Y52780263D01*
X85651153Y52749501D01*
X85651156Y52749500D01*
X85651158Y52749500D01*
X85808844Y52749500D01*
X85808845Y52749501D01*
X85963497Y52780263D01*
X86058750Y52819719D01*
X86128217Y52827187D01*
X86153649Y52819720D01*
X86248906Y52780263D01*
X86403556Y52749501D01*
X86403559Y52749500D01*
X86403561Y52749500D01*
X86561247Y52749500D01*
X86561248Y52749501D01*
X86715900Y52780263D01*
X86861582Y52840606D01*
X86992692Y52928211D01*
X87104192Y53039711D01*
X87130342Y53078847D01*
X87699500Y53078847D01*
X87699500Y52921154D01*
X87730261Y52766511D01*
X87730264Y52766499D01*
X87790602Y52620828D01*
X87790609Y52620815D01*
X87878210Y52489712D01*
X87878213Y52489708D01*
X87989707Y52378214D01*
X87989711Y52378211D01*
X88120814Y52290610D01*
X88120827Y52290603D01*
X88220060Y52249500D01*
X88266503Y52230263D01*
X88421153Y52199501D01*
X88421156Y52199500D01*
X88421158Y52199500D01*
X88578844Y52199500D01*
X88578845Y52199501D01*
X88733497Y52230263D01*
X88879179Y52290606D01*
X89010289Y52378211D01*
X89121789Y52489711D01*
X89209394Y52620821D01*
X89269737Y52766503D01*
X89300500Y52921158D01*
X89300500Y53078842D01*
X89300500Y53078845D01*
X89300499Y53078847D01*
X89295798Y53102482D01*
X89269737Y53233497D01*
X89253582Y53272499D01*
X89209397Y53379173D01*
X89209390Y53379186D01*
X89121789Y53510289D01*
X89121786Y53510293D01*
X89010292Y53621787D01*
X89010288Y53621790D01*
X88879185Y53709391D01*
X88879172Y53709398D01*
X88733501Y53769736D01*
X88733489Y53769739D01*
X88578845Y53800500D01*
X88578842Y53800500D01*
X88421158Y53800500D01*
X88421155Y53800500D01*
X88266510Y53769739D01*
X88266498Y53769736D01*
X88120827Y53709398D01*
X88120814Y53709391D01*
X87989711Y53621790D01*
X87989707Y53621787D01*
X87878213Y53510293D01*
X87878210Y53510289D01*
X87790609Y53379186D01*
X87790602Y53379173D01*
X87730264Y53233502D01*
X87730261Y53233490D01*
X87699500Y53078847D01*
X87130342Y53078847D01*
X87153337Y53113261D01*
X87180441Y53153825D01*
X87180441Y53153826D01*
X87191797Y53170821D01*
X87195122Y53178847D01*
X87233913Y53272499D01*
X87252140Y53316503D01*
X87282903Y53471158D01*
X87282903Y53628842D01*
X87282903Y53628845D01*
X87282902Y53628847D01*
X87271162Y53687866D01*
X87252140Y53783497D01*
X87244780Y53801266D01*
X87191800Y53929173D01*
X87191793Y53929186D01*
X87104192Y54060289D01*
X87104189Y54060293D01*
X86992695Y54171787D01*
X86992691Y54171790D01*
X86861588Y54259391D01*
X86861575Y54259398D01*
X86715904Y54319736D01*
X86715892Y54319739D01*
X86561248Y54350500D01*
X86561245Y54350500D01*
X86403561Y54350500D01*
X86403558Y54350500D01*
X86248914Y54319740D01*
X86248913Y54319739D01*
X86248910Y54319738D01*
X86248906Y54319737D01*
X86153650Y54280282D01*
X86084183Y54272814D01*
X86058749Y54280283D01*
X85963498Y54319737D01*
X85963488Y54319740D01*
X85808845Y54350500D01*
X85808842Y54350500D01*
X85651158Y54350500D01*
X85651155Y54350500D01*
X85496510Y54319739D01*
X85496498Y54319736D01*
X85350827Y54259398D01*
X85350814Y54259391D01*
X85219711Y54171790D01*
X85219707Y54171787D01*
X85108213Y54060293D01*
X85108210Y54060289D01*
X85020609Y53929186D01*
X85020602Y53929173D01*
X84960264Y53783502D01*
X84960261Y53783490D01*
X84929500Y53628847D01*
X84520943Y53628847D01*
X84523938Y53639765D01*
X84524296Y53659756D01*
X84536311Y53684868D01*
X84537134Y53687866D01*
X84539530Y53691594D01*
X84547705Y53703828D01*
X84547705Y53703829D01*
X84589390Y53766215D01*
X84589391Y53766217D01*
X84589394Y53766221D01*
X84649737Y53911903D01*
X84680500Y54066558D01*
X84680500Y54224242D01*
X84680500Y54224245D01*
X84680499Y54224247D01*
X84661505Y54319736D01*
X84649737Y54378897D01*
X84627817Y54431817D01*
X84589397Y54524573D01*
X84589390Y54524586D01*
X84501789Y54655689D01*
X84501786Y54655693D01*
X84390292Y54767187D01*
X84390288Y54767190D01*
X84259185Y54854791D01*
X84259172Y54854798D01*
X84113501Y54915136D01*
X84113491Y54915139D01*
X84059521Y54925874D01*
X84059520Y54925875D01*
X83958845Y54945900D01*
X83958842Y54945900D01*
X83801158Y54945900D01*
X83801155Y54945900D01*
X83646510Y54915139D01*
X83646498Y54915136D01*
X83500827Y54854798D01*
X83500814Y54854791D01*
X83369711Y54767190D01*
X83369707Y54767187D01*
X83258213Y54655693D01*
X83258210Y54655689D01*
X83170609Y54524586D01*
X83170602Y54524573D01*
X83110264Y54378902D01*
X83110261Y54378890D01*
X83079500Y54224247D01*
X82299399Y54224247D01*
X82293745Y54232709D01*
X82182248Y54344206D01*
X82182244Y54344209D01*
X82051141Y54431810D01*
X82051128Y54431817D01*
X81905457Y54492155D01*
X81905445Y54492158D01*
X81750801Y54522919D01*
X81750798Y54522919D01*
X81593114Y54522919D01*
X81593111Y54522919D01*
X81438466Y54492158D01*
X81438454Y54492155D01*
X81292783Y54431817D01*
X81292770Y54431810D01*
X81161667Y54344209D01*
X81161663Y54344206D01*
X81050169Y54232712D01*
X81050166Y54232708D01*
X80962565Y54101605D01*
X80962558Y54101592D01*
X80902220Y53955921D01*
X80902217Y53955909D01*
X80871456Y53801266D01*
X78678092Y53801266D01*
X78633501Y53819736D01*
X78633489Y53819739D01*
X78478845Y53850500D01*
X78478842Y53850500D01*
X78321158Y53850500D01*
X78321155Y53850500D01*
X78166510Y53819739D01*
X78166498Y53819736D01*
X78020827Y53759398D01*
X78020814Y53759391D01*
X77889711Y53671790D01*
X77889707Y53671787D01*
X77778213Y53560293D01*
X77778210Y53560289D01*
X77690609Y53429186D01*
X77690602Y53429173D01*
X77630264Y53283502D01*
X77630261Y53283490D01*
X77599500Y53128847D01*
X66766666Y53128847D01*
X66750618Y53496278D01*
X66750500Y53501689D01*
X66750500Y56578847D01*
X71449500Y56578847D01*
X71449500Y56421154D01*
X71480261Y56266511D01*
X71480264Y56266499D01*
X71540602Y56120828D01*
X71540609Y56120815D01*
X71628210Y55989712D01*
X71628213Y55989708D01*
X71739707Y55878214D01*
X71739711Y55878211D01*
X71870814Y55790610D01*
X71870827Y55790603D01*
X72011602Y55732293D01*
X72016503Y55730263D01*
X72171153Y55699501D01*
X72171156Y55699500D01*
X72171158Y55699500D01*
X72328844Y55699500D01*
X72328845Y55699501D01*
X72483497Y55730263D01*
X72629179Y55790606D01*
X72760289Y55878211D01*
X72871789Y55989711D01*
X72959394Y56120821D01*
X73019737Y56266503D01*
X73050500Y56421158D01*
X73050500Y56578842D01*
X73050500Y56578845D01*
X73050499Y56578847D01*
X77449500Y56578847D01*
X77449500Y56421154D01*
X77480261Y56266511D01*
X77480264Y56266499D01*
X77540602Y56120828D01*
X77540609Y56120815D01*
X77628210Y55989712D01*
X77628213Y55989708D01*
X77739707Y55878214D01*
X77739711Y55878211D01*
X77870814Y55790610D01*
X77870827Y55790603D01*
X78011602Y55732293D01*
X78016503Y55730263D01*
X78171153Y55699501D01*
X78171156Y55699500D01*
X78171158Y55699500D01*
X78328844Y55699500D01*
X78328845Y55699501D01*
X78483497Y55730263D01*
X78629179Y55790606D01*
X78760289Y55878211D01*
X78871789Y55989711D01*
X78903602Y56037324D01*
X78957213Y56082127D01*
X79026538Y56090835D01*
X79089566Y56060681D01*
X79103944Y56044089D01*
X79104347Y56044419D01*
X79108213Y56039708D01*
X79219707Y55928214D01*
X79219711Y55928211D01*
X79350814Y55840610D01*
X79350827Y55840603D01*
X79496498Y55780265D01*
X79496503Y55780263D01*
X79651153Y55749501D01*
X79651156Y55749500D01*
X79651158Y55749500D01*
X79808844Y55749500D01*
X79931308Y55773860D01*
X80000900Y55767633D01*
X80056077Y55724770D01*
X80079322Y55658880D01*
X80079500Y55652243D01*
X80079500Y55621154D01*
X80110261Y55466511D01*
X80110264Y55466499D01*
X80170602Y55320828D01*
X80170609Y55320815D01*
X80258210Y55189712D01*
X80258213Y55189708D01*
X80369707Y55078214D01*
X80369711Y55078211D01*
X80500814Y54990610D01*
X80500827Y54990603D01*
X80646498Y54930265D01*
X80646503Y54930263D01*
X80801153Y54899501D01*
X80801156Y54899500D01*
X80801158Y54899500D01*
X80958844Y54899500D01*
X80958845Y54899501D01*
X81113497Y54930263D01*
X81259179Y54990606D01*
X81335203Y55041404D01*
X90137057Y55041404D01*
X90137057Y54883711D01*
X90167818Y54729068D01*
X90167821Y54729056D01*
X90228159Y54583385D01*
X90228166Y54583372D01*
X90315767Y54452269D01*
X90315770Y54452265D01*
X90427264Y54340771D01*
X90427268Y54340768D01*
X90558371Y54253167D01*
X90558384Y54253160D01*
X90704055Y54192822D01*
X90704060Y54192820D01*
X90858710Y54162058D01*
X90858713Y54162057D01*
X90858715Y54162057D01*
X91016401Y54162057D01*
X91016402Y54162058D01*
X91171054Y54192820D01*
X91316736Y54253163D01*
X91418611Y54321235D01*
X91485286Y54342111D01*
X91552666Y54323627D01*
X91556344Y54321264D01*
X91658264Y54253163D01*
X91658266Y54253162D01*
X91658270Y54253160D01*
X91803941Y54192822D01*
X91803946Y54192820D01*
X91958596Y54162058D01*
X91958599Y54162057D01*
X91958601Y54162057D01*
X92116287Y54162057D01*
X92116288Y54162058D01*
X92270940Y54192820D01*
X92416622Y54253163D01*
X92547732Y54340768D01*
X92659232Y54452268D01*
X92746837Y54583378D01*
X92748218Y54586713D01*
X92749408Y54588191D01*
X92749707Y54588748D01*
X92749812Y54588692D01*
X92792053Y54641118D01*
X92858345Y54663189D01*
X92926046Y54645915D01*
X92965884Y54608159D01*
X92978210Y54589712D01*
X92978213Y54589708D01*
X93089707Y54478214D01*
X93089711Y54478211D01*
X93220814Y54390610D01*
X93220827Y54390603D01*
X93332841Y54344206D01*
X93366503Y54330263D01*
X93521153Y54299501D01*
X93521156Y54299500D01*
X93521158Y54299500D01*
X93678844Y54299500D01*
X93678845Y54299501D01*
X93833497Y54330263D01*
X93950923Y54378902D01*
X93979172Y54390603D01*
X93979172Y54390604D01*
X93979179Y54390606D01*
X94110289Y54478211D01*
X94221789Y54589711D01*
X94309394Y54720821D01*
X94369737Y54866503D01*
X94379411Y54915137D01*
X94380477Y54920498D01*
X94999264Y54920498D01*
X94999264Y54773579D01*
X95027922Y54629504D01*
X95027925Y54629494D01*
X95084142Y54493772D01*
X95084147Y54493763D01*
X95165762Y54371619D01*
X95165765Y54371615D01*
X95269640Y54267740D01*
X95269644Y54267737D01*
X95391788Y54186122D01*
X95391794Y54186119D01*
X95391795Y54186118D01*
X95527522Y54129898D01*
X95669764Y54101605D01*
X95671604Y54101239D01*
X95671608Y54101238D01*
X95671609Y54101238D01*
X95818520Y54101238D01*
X95818521Y54101239D01*
X95962606Y54129898D01*
X96098333Y54186118D01*
X96220484Y54267737D01*
X96324365Y54371618D01*
X96405984Y54493769D01*
X96462204Y54629496D01*
X96490864Y54773583D01*
X96490864Y54920493D01*
X96462204Y55064580D01*
X96405984Y55200307D01*
X96405983Y55200308D01*
X96405980Y55200314D01*
X96324365Y55322458D01*
X96324362Y55322462D01*
X96220487Y55426337D01*
X96220483Y55426340D01*
X96098339Y55507955D01*
X96098330Y55507960D01*
X95962608Y55564177D01*
X95962609Y55564177D01*
X95962606Y55564178D01*
X95962602Y55564179D01*
X95962598Y55564180D01*
X95818523Y55592838D01*
X95818519Y55592838D01*
X95671609Y55592838D01*
X95671604Y55592838D01*
X95527529Y55564180D01*
X95527519Y55564177D01*
X95391797Y55507960D01*
X95391788Y55507955D01*
X95269644Y55426340D01*
X95269640Y55426337D01*
X95165765Y55322462D01*
X95165762Y55322458D01*
X95084147Y55200314D01*
X95084142Y55200305D01*
X95027925Y55064583D01*
X95027922Y55064573D01*
X94999264Y54920498D01*
X94380477Y54920498D01*
X94386501Y54950777D01*
X94386501Y54950778D01*
X94400499Y55021154D01*
X94400500Y55021156D01*
X94400500Y55178845D01*
X94400499Y55178847D01*
X94388213Y55240610D01*
X94369737Y55333497D01*
X94366324Y55341736D01*
X94309397Y55479173D01*
X94309390Y55479186D01*
X94221789Y55610289D01*
X94221786Y55610293D01*
X94110292Y55721787D01*
X94110288Y55721790D01*
X93979185Y55809391D01*
X93979172Y55809398D01*
X93833501Y55869736D01*
X93833489Y55869739D01*
X93678845Y55900500D01*
X93678842Y55900500D01*
X93521158Y55900500D01*
X93521155Y55900500D01*
X93366510Y55869739D01*
X93366498Y55869736D01*
X93220827Y55809398D01*
X93220814Y55809391D01*
X93089711Y55721790D01*
X93089707Y55721787D01*
X92978213Y55610293D01*
X92978210Y55610289D01*
X92890609Y55479186D01*
X92890603Y55479174D01*
X92889219Y55475832D01*
X92888026Y55474352D01*
X92887736Y55473809D01*
X92887632Y55473865D01*
X92845375Y55421430D01*
X92779080Y55399369D01*
X92711381Y55416651D01*
X92671557Y55454400D01*
X92659230Y55472849D01*
X92547735Y55584344D01*
X92547731Y55584347D01*
X92416628Y55671948D01*
X92416615Y55671955D01*
X92270944Y55732293D01*
X92270932Y55732296D01*
X92116288Y55763057D01*
X92116285Y55763057D01*
X91958601Y55763057D01*
X91958598Y55763057D01*
X91803953Y55732296D01*
X91803941Y55732293D01*
X91658270Y55671955D01*
X91658257Y55671948D01*
X91556391Y55603882D01*
X91489714Y55583004D01*
X91422333Y55601488D01*
X91418609Y55603882D01*
X91316742Y55671948D01*
X91316729Y55671955D01*
X91171058Y55732293D01*
X91171046Y55732296D01*
X91016402Y55763057D01*
X91016399Y55763057D01*
X90858715Y55763057D01*
X90858712Y55763057D01*
X90704067Y55732296D01*
X90704055Y55732293D01*
X90558384Y55671955D01*
X90558371Y55671948D01*
X90427268Y55584347D01*
X90427264Y55584344D01*
X90315770Y55472850D01*
X90315767Y55472846D01*
X90228166Y55341743D01*
X90228159Y55341730D01*
X90167821Y55196059D01*
X90167818Y55196047D01*
X90137057Y55041404D01*
X81335203Y55041404D01*
X81390289Y55078211D01*
X81436534Y55124457D01*
X81497856Y55157942D01*
X81548407Y55158393D01*
X81550675Y55157942D01*
X81593113Y55149500D01*
X81593114Y55149500D01*
X81750800Y55149500D01*
X81750801Y55149501D01*
X81905453Y55180263D01*
X82051135Y55240606D01*
X82182245Y55328211D01*
X82293745Y55439711D01*
X82381350Y55570821D01*
X82441693Y55716503D01*
X82472456Y55871158D01*
X82472456Y56028842D01*
X82472456Y56028845D01*
X82472455Y56028847D01*
X82469423Y56044089D01*
X82441693Y56183497D01*
X82407308Y56266511D01*
X82381353Y56329173D01*
X82381346Y56329186D01*
X82293745Y56460289D01*
X82293742Y56460293D01*
X82182248Y56571787D01*
X82182244Y56571790D01*
X82096853Y56628847D01*
X83079500Y56628847D01*
X83079500Y56471154D01*
X83110261Y56316511D01*
X83110264Y56316499D01*
X83170602Y56170828D01*
X83170609Y56170815D01*
X83258210Y56039712D01*
X83258213Y56039708D01*
X83369707Y55928214D01*
X83369711Y55928211D01*
X83500814Y55840610D01*
X83500827Y55840603D01*
X83646498Y55780265D01*
X83646503Y55780263D01*
X83801153Y55749501D01*
X83801156Y55749500D01*
X83801158Y55749500D01*
X83958844Y55749500D01*
X83958845Y55749501D01*
X84113497Y55780263D01*
X84259179Y55840606D01*
X84390289Y55928211D01*
X84501789Y56039711D01*
X84589394Y56170821D01*
X84649737Y56316503D01*
X84680500Y56471158D01*
X84680500Y56628842D01*
X84680500Y56628845D01*
X84680499Y56628847D01*
X84659684Y56733490D01*
X84649737Y56783497D01*
X84649735Y56783502D01*
X84589397Y56929173D01*
X84589390Y56929186D01*
X84501789Y57060289D01*
X84501786Y57060293D01*
X84390292Y57171787D01*
X84390288Y57171790D01*
X84259185Y57259391D01*
X84259172Y57259398D01*
X84113501Y57319736D01*
X84113489Y57319739D01*
X83958845Y57350500D01*
X83958842Y57350500D01*
X83801158Y57350500D01*
X83801155Y57350500D01*
X83646510Y57319739D01*
X83646498Y57319736D01*
X83500827Y57259398D01*
X83500814Y57259391D01*
X83369711Y57171790D01*
X83369707Y57171787D01*
X83258213Y57060293D01*
X83258210Y57060289D01*
X83170609Y56929186D01*
X83170602Y56929173D01*
X83110264Y56783502D01*
X83110261Y56783490D01*
X83079500Y56628847D01*
X82096853Y56628847D01*
X82051141Y56659391D01*
X82051128Y56659398D01*
X81905457Y56719736D01*
X81905445Y56719739D01*
X81750801Y56750500D01*
X81750798Y56750500D01*
X81593114Y56750500D01*
X81560188Y56743951D01*
X81500469Y56732072D01*
X81430877Y56738300D01*
X81375700Y56781164D01*
X81361721Y56806228D01*
X81310794Y56929179D01*
X81310792Y56929182D01*
X81310790Y56929186D01*
X81223189Y57060289D01*
X81223186Y57060293D01*
X81111692Y57171787D01*
X81111688Y57171790D01*
X80980585Y57259391D01*
X80980572Y57259398D01*
X80834901Y57319736D01*
X80834889Y57319739D01*
X80680245Y57350500D01*
X80680242Y57350500D01*
X80522558Y57350500D01*
X80522555Y57350500D01*
X80367910Y57319739D01*
X80367898Y57319736D01*
X80216592Y57257063D01*
X80215911Y57258708D01*
X80155730Y57246187D01*
X80115229Y57258080D01*
X80114808Y57257063D01*
X79963501Y57319736D01*
X79963489Y57319739D01*
X79808845Y57350500D01*
X79808842Y57350500D01*
X79651158Y57350500D01*
X79651155Y57350500D01*
X79496510Y57319739D01*
X79496498Y57319736D01*
X79350827Y57259398D01*
X79350814Y57259391D01*
X79219711Y57171790D01*
X79219707Y57171787D01*
X79108213Y57060293D01*
X79108208Y57060287D01*
X79076396Y57012677D01*
X79022783Y56967873D01*
X78953458Y56959166D01*
X78890431Y56989321D01*
X78876056Y57005912D01*
X78875653Y57005581D01*
X78871786Y57010293D01*
X78760292Y57121787D01*
X78760288Y57121790D01*
X78629185Y57209391D01*
X78629172Y57209398D01*
X78483501Y57269736D01*
X78483489Y57269739D01*
X78328845Y57300500D01*
X78328842Y57300500D01*
X78171158Y57300500D01*
X78171155Y57300500D01*
X78016510Y57269739D01*
X78016498Y57269736D01*
X77870827Y57209398D01*
X77870814Y57209391D01*
X77739711Y57121790D01*
X77739707Y57121787D01*
X77628213Y57010293D01*
X77628210Y57010289D01*
X77540609Y56879186D01*
X77540602Y56879173D01*
X77480264Y56733502D01*
X77480261Y56733490D01*
X77449500Y56578847D01*
X73050499Y56578847D01*
X73040553Y56628847D01*
X73019737Y56733497D01*
X72999993Y56781164D01*
X72959397Y56879173D01*
X72959390Y56879186D01*
X72871789Y57010289D01*
X72871786Y57010293D01*
X72760292Y57121787D01*
X72760288Y57121790D01*
X72629185Y57209391D01*
X72629172Y57209398D01*
X72483501Y57269736D01*
X72483489Y57269739D01*
X72328845Y57300500D01*
X72328842Y57300500D01*
X72171158Y57300500D01*
X72171155Y57300500D01*
X72016510Y57269739D01*
X72016498Y57269736D01*
X71870827Y57209398D01*
X71870814Y57209391D01*
X71739711Y57121790D01*
X71739707Y57121787D01*
X71628213Y57010293D01*
X71628210Y57010289D01*
X71540609Y56879186D01*
X71540602Y56879173D01*
X71480264Y56733502D01*
X71480261Y56733490D01*
X71449500Y56578847D01*
X66750500Y56578847D01*
X66750500Y58365307D01*
X78474910Y58365307D01*
X78535459Y58330349D01*
X78535458Y58330349D01*
X78663650Y58296000D01*
X78796350Y58296000D01*
X78924535Y58330348D01*
X78985086Y58365307D01*
X79674910Y58365307D01*
X79735459Y58330349D01*
X79735458Y58330349D01*
X79863650Y58296000D01*
X79996350Y58296000D01*
X80124535Y58330348D01*
X80185086Y58365307D01*
X80874910Y58365307D01*
X80935459Y58330349D01*
X80935458Y58330349D01*
X81063650Y58296000D01*
X81196350Y58296000D01*
X81324535Y58330348D01*
X81385086Y58365307D01*
X82074910Y58365307D01*
X82135459Y58330349D01*
X82135458Y58330349D01*
X82263650Y58296000D01*
X82396350Y58296000D01*
X82524535Y58330348D01*
X82585088Y58365308D01*
X82330001Y58620395D01*
X82074910Y58365307D01*
X81385086Y58365307D01*
X81385088Y58365308D01*
X81130001Y58620395D01*
X80874910Y58365307D01*
X80185086Y58365307D01*
X80185088Y58365308D01*
X79930001Y58620395D01*
X79674910Y58365307D01*
X78985086Y58365307D01*
X78985088Y58365308D01*
X78730001Y58620395D01*
X78474910Y58365307D01*
X66750500Y58365307D01*
X66750500Y58866351D01*
X78226000Y58866351D01*
X78226000Y58733650D01*
X78260347Y58605462D01*
X78260348Y58605461D01*
X78295306Y58544913D01*
X78295307Y58544912D01*
X78550394Y58799999D01*
X78550394Y58800000D01*
X78530503Y58819891D01*
X78630000Y58819891D01*
X78630000Y58780109D01*
X78645224Y58743355D01*
X78673355Y58715224D01*
X78710109Y58700000D01*
X78749891Y58700000D01*
X78786645Y58715224D01*
X78814776Y58743355D01*
X78830000Y58780109D01*
X78830000Y58800000D01*
X78909605Y58800000D01*
X78909605Y58799999D01*
X79164692Y58544912D01*
X79199653Y58605466D01*
X79210225Y58644920D01*
X79246590Y58704581D01*
X79309437Y58735110D01*
X79378812Y58726815D01*
X79432690Y58682330D01*
X79449775Y58644920D01*
X79460347Y58605464D01*
X79460348Y58605461D01*
X79495306Y58544913D01*
X79495307Y58544912D01*
X79750394Y58799999D01*
X79750394Y58800000D01*
X79730503Y58819891D01*
X79830000Y58819891D01*
X79830000Y58780109D01*
X79845224Y58743355D01*
X79873355Y58715224D01*
X79910109Y58700000D01*
X79949891Y58700000D01*
X79986645Y58715224D01*
X80014776Y58743355D01*
X80030000Y58780109D01*
X80030000Y58800000D01*
X80109605Y58800000D01*
X80109605Y58799999D01*
X80364692Y58544912D01*
X80399653Y58605466D01*
X80410225Y58644920D01*
X80446590Y58704581D01*
X80509437Y58735110D01*
X80578812Y58726815D01*
X80632690Y58682330D01*
X80649775Y58644920D01*
X80660347Y58605464D01*
X80660348Y58605461D01*
X80695306Y58544913D01*
X80695307Y58544912D01*
X80950394Y58799999D01*
X80950394Y58800000D01*
X80930503Y58819891D01*
X81030000Y58819891D01*
X81030000Y58780109D01*
X81045224Y58743355D01*
X81073355Y58715224D01*
X81110109Y58700000D01*
X81149891Y58700000D01*
X81186645Y58715224D01*
X81214776Y58743355D01*
X81230000Y58780109D01*
X81230000Y58800000D01*
X81309605Y58800000D01*
X81309605Y58799999D01*
X81564692Y58544912D01*
X81599653Y58605466D01*
X81610225Y58644920D01*
X81646590Y58704581D01*
X81709437Y58735110D01*
X81778812Y58726815D01*
X81832690Y58682330D01*
X81849775Y58644920D01*
X81860347Y58605464D01*
X81860348Y58605461D01*
X81895306Y58544913D01*
X81895307Y58544912D01*
X82150394Y58799999D01*
X82150394Y58800000D01*
X82130503Y58819891D01*
X82230000Y58819891D01*
X82230000Y58780109D01*
X82245224Y58743355D01*
X82273355Y58715224D01*
X82310109Y58700000D01*
X82349891Y58700000D01*
X82386645Y58715224D01*
X82414776Y58743355D01*
X82430000Y58780109D01*
X82430000Y58800000D01*
X82509605Y58800000D01*
X82509605Y58799999D01*
X82764692Y58544912D01*
X82799652Y58605465D01*
X82834000Y58733650D01*
X82834000Y58866351D01*
X82799651Y58994541D01*
X82764693Y59055090D01*
X82509605Y58800000D01*
X82430000Y58800000D01*
X82430000Y58819891D01*
X82414776Y58856645D01*
X82386645Y58884776D01*
X82349891Y58900000D01*
X82310109Y58900000D01*
X82273355Y58884776D01*
X82245224Y58856645D01*
X82230000Y58819891D01*
X82130503Y58819891D01*
X81895306Y59055089D01*
X81860347Y58994538D01*
X81849775Y58955080D01*
X81813410Y58895420D01*
X81750563Y58864891D01*
X81681187Y58873186D01*
X81627309Y58917671D01*
X81610225Y58955080D01*
X81599651Y58994541D01*
X81564693Y59055090D01*
X81309605Y58800000D01*
X81230000Y58800000D01*
X81230000Y58819891D01*
X81214776Y58856645D01*
X81186645Y58884776D01*
X81149891Y58900000D01*
X81110109Y58900000D01*
X81073355Y58884776D01*
X81045224Y58856645D01*
X81030000Y58819891D01*
X80930503Y58819891D01*
X80695306Y59055089D01*
X80660347Y58994538D01*
X80649775Y58955080D01*
X80613410Y58895420D01*
X80550563Y58864891D01*
X80481187Y58873186D01*
X80427309Y58917671D01*
X80410225Y58955080D01*
X80399651Y58994541D01*
X80364693Y59055090D01*
X80109605Y58800000D01*
X80030000Y58800000D01*
X80030000Y58819891D01*
X80014776Y58856645D01*
X79986645Y58884776D01*
X79949891Y58900000D01*
X79910109Y58900000D01*
X79873355Y58884776D01*
X79845224Y58856645D01*
X79830000Y58819891D01*
X79730503Y58819891D01*
X79495305Y59055089D01*
X79460347Y58994538D01*
X79449775Y58955080D01*
X79413410Y58895420D01*
X79350563Y58864891D01*
X79281187Y58873186D01*
X79227309Y58917671D01*
X79210225Y58955080D01*
X79199651Y58994541D01*
X79164693Y59055090D01*
X78909605Y58800000D01*
X78830000Y58800000D01*
X78830000Y58819891D01*
X78814776Y58856645D01*
X78786645Y58884776D01*
X78749891Y58900000D01*
X78710109Y58900000D01*
X78673355Y58884776D01*
X78645224Y58856645D01*
X78630000Y58819891D01*
X78530503Y58819891D01*
X78295306Y59055089D01*
X78260347Y58994538D01*
X78226000Y58866351D01*
X66750500Y58866351D01*
X66750500Y59565307D01*
X78474910Y59565307D01*
X78535459Y59530349D01*
X78535458Y59530349D01*
X78574920Y59519775D01*
X78634580Y59483410D01*
X78665109Y59420563D01*
X78656814Y59351187D01*
X78612329Y59297309D01*
X78574920Y59280225D01*
X78535462Y59269653D01*
X78474911Y59234694D01*
X78730000Y58979606D01*
X78985088Y59234693D01*
X78985087Y59234694D01*
X78924539Y59269652D01*
X78924536Y59269653D01*
X78885080Y59280225D01*
X78825419Y59316590D01*
X78794890Y59379437D01*
X78803185Y59448812D01*
X78847670Y59502690D01*
X78885080Y59519775D01*
X78924534Y59530347D01*
X78985086Y59565307D01*
X79674910Y59565307D01*
X79735459Y59530349D01*
X79735458Y59530349D01*
X79774920Y59519775D01*
X79834580Y59483410D01*
X79865109Y59420563D01*
X79856814Y59351187D01*
X79812329Y59297309D01*
X79774920Y59280225D01*
X79735462Y59269653D01*
X79674911Y59234694D01*
X79930000Y58979606D01*
X80185088Y59234693D01*
X80185087Y59234694D01*
X80124539Y59269652D01*
X80124536Y59269653D01*
X80085080Y59280225D01*
X80025419Y59316590D01*
X79994890Y59379437D01*
X80003185Y59448812D01*
X80047670Y59502690D01*
X80085080Y59519775D01*
X80124534Y59530347D01*
X80185086Y59565307D01*
X80874910Y59565307D01*
X80935459Y59530349D01*
X80935458Y59530349D01*
X80974920Y59519775D01*
X81034580Y59483410D01*
X81065109Y59420563D01*
X81056814Y59351187D01*
X81012329Y59297309D01*
X80974920Y59280225D01*
X80935462Y59269653D01*
X80874911Y59234694D01*
X81130000Y58979606D01*
X81385088Y59234693D01*
X81385087Y59234694D01*
X81324539Y59269652D01*
X81324536Y59269653D01*
X81285080Y59280225D01*
X81225419Y59316590D01*
X81194890Y59379437D01*
X81203185Y59448812D01*
X81247670Y59502690D01*
X81285080Y59519775D01*
X81324534Y59530347D01*
X81385086Y59565307D01*
X82074910Y59565307D01*
X82135459Y59530349D01*
X82135458Y59530349D01*
X82174920Y59519775D01*
X82234580Y59483410D01*
X82265109Y59420563D01*
X82256814Y59351187D01*
X82212329Y59297309D01*
X82174920Y59280225D01*
X82135462Y59269653D01*
X82074911Y59234694D01*
X82330000Y58979606D01*
X82585088Y59234693D01*
X82585087Y59234694D01*
X82524539Y59269652D01*
X82524536Y59269653D01*
X82485080Y59280225D01*
X82425419Y59316590D01*
X82394890Y59379437D01*
X82403185Y59448812D01*
X82447670Y59502690D01*
X82485080Y59519775D01*
X82524534Y59530347D01*
X82585088Y59565308D01*
X82330001Y59820395D01*
X82074910Y59565307D01*
X81385086Y59565307D01*
X81385088Y59565308D01*
X81130001Y59820395D01*
X80874910Y59565307D01*
X80185086Y59565307D01*
X80185088Y59565308D01*
X79930001Y59820395D01*
X79674910Y59565307D01*
X78985086Y59565307D01*
X78985088Y59565308D01*
X78730001Y59820395D01*
X78474910Y59565307D01*
X66750500Y59565307D01*
X66750500Y60828847D01*
X69449500Y60828847D01*
X69449500Y60671154D01*
X69480261Y60516511D01*
X69480264Y60516499D01*
X69540602Y60370828D01*
X69540609Y60370815D01*
X69628210Y60239712D01*
X69628213Y60239708D01*
X69739707Y60128214D01*
X69739711Y60128211D01*
X69870814Y60040610D01*
X69870827Y60040603D01*
X70016498Y59980265D01*
X70016503Y59980263D01*
X70171153Y59949501D01*
X70171156Y59949500D01*
X70171158Y59949500D01*
X70328844Y59949500D01*
X70328845Y59949501D01*
X70483497Y59980263D01*
X70629179Y60040606D01*
X70667709Y60066351D01*
X78226000Y60066351D01*
X78226000Y59933650D01*
X78260347Y59805462D01*
X78260348Y59805461D01*
X78295306Y59744913D01*
X78295307Y59744912D01*
X78550394Y59999999D01*
X78550394Y60000000D01*
X78530503Y60019891D01*
X78630000Y60019891D01*
X78630000Y59980109D01*
X78645224Y59943355D01*
X78673355Y59915224D01*
X78710109Y59900000D01*
X78749891Y59900000D01*
X78786645Y59915224D01*
X78814776Y59943355D01*
X78830000Y59980109D01*
X78830000Y60000000D01*
X78909605Y60000000D01*
X78909605Y59999999D01*
X79164692Y59744912D01*
X79199653Y59805466D01*
X79210225Y59844920D01*
X79246590Y59904581D01*
X79309437Y59935110D01*
X79378812Y59926815D01*
X79432690Y59882330D01*
X79449775Y59844920D01*
X79460347Y59805464D01*
X79460348Y59805461D01*
X79495306Y59744913D01*
X79495307Y59744912D01*
X79750394Y59999999D01*
X79750394Y60000000D01*
X79730503Y60019891D01*
X79830000Y60019891D01*
X79830000Y59980109D01*
X79845224Y59943355D01*
X79873355Y59915224D01*
X79910109Y59900000D01*
X79949891Y59900000D01*
X79986645Y59915224D01*
X80014776Y59943355D01*
X80030000Y59980109D01*
X80030000Y60000000D01*
X80109605Y60000000D01*
X80109605Y59999999D01*
X80364692Y59744912D01*
X80399653Y59805466D01*
X80410225Y59844920D01*
X80446590Y59904581D01*
X80509437Y59935110D01*
X80578812Y59926815D01*
X80632690Y59882330D01*
X80649775Y59844920D01*
X80660347Y59805464D01*
X80660348Y59805461D01*
X80695306Y59744913D01*
X80695307Y59744912D01*
X80950394Y59999999D01*
X80950394Y60000000D01*
X80930503Y60019891D01*
X81030000Y60019891D01*
X81030000Y59980109D01*
X81045224Y59943355D01*
X81073355Y59915224D01*
X81110109Y59900000D01*
X81149891Y59900000D01*
X81186645Y59915224D01*
X81214776Y59943355D01*
X81230000Y59980109D01*
X81230000Y60000000D01*
X81309605Y60000000D01*
X81309605Y59999999D01*
X81564692Y59744912D01*
X81599653Y59805466D01*
X81610225Y59844920D01*
X81646590Y59904581D01*
X81709437Y59935110D01*
X81778812Y59926815D01*
X81832690Y59882330D01*
X81849775Y59844920D01*
X81860347Y59805464D01*
X81860348Y59805461D01*
X81895306Y59744913D01*
X81895307Y59744912D01*
X82150394Y59999999D01*
X82150394Y60000000D01*
X82130503Y60019891D01*
X82230000Y60019891D01*
X82230000Y59980109D01*
X82245224Y59943355D01*
X82273355Y59915224D01*
X82310109Y59900000D01*
X82349891Y59900000D01*
X82386645Y59915224D01*
X82414776Y59943355D01*
X82430000Y59980109D01*
X82430000Y60000000D01*
X82509605Y60000000D01*
X82509605Y59999999D01*
X82764692Y59744912D01*
X82799652Y59805465D01*
X82834000Y59933650D01*
X82834000Y60066351D01*
X82799651Y60194541D01*
X82764693Y60255090D01*
X82509605Y60000000D01*
X82430000Y60000000D01*
X82430000Y60019891D01*
X82414776Y60056645D01*
X82386645Y60084776D01*
X82349891Y60100000D01*
X82310109Y60100000D01*
X82273355Y60084776D01*
X82245224Y60056645D01*
X82230000Y60019891D01*
X82130503Y60019891D01*
X81895305Y60255089D01*
X81860347Y60194538D01*
X81849775Y60155080D01*
X81813410Y60095420D01*
X81750563Y60064891D01*
X81681187Y60073186D01*
X81627309Y60117671D01*
X81610225Y60155080D01*
X81599651Y60194541D01*
X81564693Y60255090D01*
X81309605Y60000000D01*
X81230000Y60000000D01*
X81230000Y60019891D01*
X81214776Y60056645D01*
X81186645Y60084776D01*
X81149891Y60100000D01*
X81110109Y60100000D01*
X81073355Y60084776D01*
X81045224Y60056645D01*
X81030000Y60019891D01*
X80930503Y60019891D01*
X80695306Y60255089D01*
X80660347Y60194538D01*
X80649775Y60155080D01*
X80613410Y60095420D01*
X80550563Y60064891D01*
X80481187Y60073186D01*
X80427309Y60117671D01*
X80410225Y60155080D01*
X80399651Y60194541D01*
X80364693Y60255090D01*
X80109605Y60000000D01*
X80030000Y60000000D01*
X80030000Y60019891D01*
X80014776Y60056645D01*
X79986645Y60084776D01*
X79949891Y60100000D01*
X79910109Y60100000D01*
X79873355Y60084776D01*
X79845224Y60056645D01*
X79830000Y60019891D01*
X79730503Y60019891D01*
X79495306Y60255089D01*
X79460347Y60194538D01*
X79449775Y60155080D01*
X79413410Y60095420D01*
X79350563Y60064891D01*
X79281187Y60073186D01*
X79227309Y60117671D01*
X79210225Y60155080D01*
X79199651Y60194541D01*
X79164693Y60255090D01*
X78909605Y60000000D01*
X78830000Y60000000D01*
X78830000Y60019891D01*
X78814776Y60056645D01*
X78786645Y60084776D01*
X78749891Y60100000D01*
X78710109Y60100000D01*
X78673355Y60084776D01*
X78645224Y60056645D01*
X78630000Y60019891D01*
X78530503Y60019891D01*
X78295305Y60255089D01*
X78260347Y60194538D01*
X78226000Y60066351D01*
X70667709Y60066351D01*
X70760289Y60128211D01*
X70760292Y60128214D01*
X70794240Y60162161D01*
X70871786Y60239708D01*
X70871789Y60239711D01*
X70959394Y60370821D01*
X71019737Y60516503D01*
X71050500Y60671158D01*
X71050500Y60765307D01*
X78474910Y60765307D01*
X78535459Y60730349D01*
X78535458Y60730349D01*
X78574920Y60719775D01*
X78634580Y60683410D01*
X78665109Y60620563D01*
X78656814Y60551187D01*
X78612329Y60497309D01*
X78574920Y60480225D01*
X78535462Y60469653D01*
X78474911Y60434694D01*
X78730000Y60179606D01*
X78985088Y60434693D01*
X78985087Y60434694D01*
X78924539Y60469652D01*
X78924536Y60469653D01*
X78885080Y60480225D01*
X78825419Y60516590D01*
X78794890Y60579437D01*
X78803185Y60648812D01*
X78847670Y60702690D01*
X78885080Y60719775D01*
X78924534Y60730347D01*
X78985086Y60765307D01*
X79674910Y60765307D01*
X79735459Y60730349D01*
X79735458Y60730349D01*
X79774920Y60719775D01*
X79834580Y60683410D01*
X79865109Y60620563D01*
X79856814Y60551187D01*
X79812329Y60497309D01*
X79774920Y60480225D01*
X79735462Y60469653D01*
X79674911Y60434694D01*
X79930000Y60179606D01*
X80185088Y60434693D01*
X80185087Y60434694D01*
X80124539Y60469652D01*
X80124536Y60469653D01*
X80085080Y60480225D01*
X80025419Y60516590D01*
X79994890Y60579437D01*
X80003185Y60648812D01*
X80047670Y60702690D01*
X80085080Y60719775D01*
X80124534Y60730347D01*
X80185086Y60765307D01*
X80874910Y60765307D01*
X80935459Y60730349D01*
X80935458Y60730349D01*
X80974920Y60719775D01*
X81034580Y60683410D01*
X81065109Y60620563D01*
X81056814Y60551187D01*
X81012329Y60497309D01*
X80974920Y60480225D01*
X80935462Y60469653D01*
X80874911Y60434694D01*
X81130000Y60179606D01*
X81385088Y60434693D01*
X81385087Y60434694D01*
X81324539Y60469652D01*
X81324536Y60469653D01*
X81285080Y60480225D01*
X81225419Y60516590D01*
X81194890Y60579437D01*
X81203185Y60648812D01*
X81247670Y60702690D01*
X81285080Y60719775D01*
X81324534Y60730347D01*
X81385086Y60765307D01*
X82074910Y60765307D01*
X82135459Y60730349D01*
X82135458Y60730349D01*
X82174920Y60719775D01*
X82234580Y60683410D01*
X82265109Y60620563D01*
X82256814Y60551187D01*
X82212329Y60497309D01*
X82174920Y60480225D01*
X82135462Y60469653D01*
X82074911Y60434694D01*
X82330000Y60179606D01*
X82585088Y60434693D01*
X82585087Y60434694D01*
X82524539Y60469652D01*
X82524536Y60469653D01*
X82485080Y60480225D01*
X82425419Y60516590D01*
X82394890Y60579437D01*
X82403185Y60648812D01*
X82447670Y60702690D01*
X82485080Y60719775D01*
X82524534Y60730347D01*
X82585088Y60765308D01*
X82330001Y61020395D01*
X82074910Y60765307D01*
X81385086Y60765307D01*
X81385088Y60765308D01*
X81130001Y61020395D01*
X80874910Y60765307D01*
X80185086Y60765307D01*
X80185088Y60765308D01*
X79930001Y61020395D01*
X79674910Y60765307D01*
X78985086Y60765307D01*
X78985088Y60765308D01*
X78730001Y61020395D01*
X78474910Y60765307D01*
X71050500Y60765307D01*
X71050500Y60828842D01*
X71050500Y60828845D01*
X71050499Y60828847D01*
X71019738Y60983490D01*
X71019737Y60983497D01*
X71010637Y61005466D01*
X70959397Y61129173D01*
X70959390Y61129186D01*
X70908339Y61205589D01*
X70871789Y61260289D01*
X70871786Y61260293D01*
X70865728Y61266351D01*
X78226000Y61266351D01*
X78226000Y61133650D01*
X78260347Y61005462D01*
X78260348Y61005461D01*
X78295306Y60944913D01*
X78295307Y60944912D01*
X78550394Y61199999D01*
X78550394Y61200000D01*
X78530503Y61219891D01*
X78630000Y61219891D01*
X78630000Y61180109D01*
X78645224Y61143355D01*
X78673355Y61115224D01*
X78710109Y61100000D01*
X78749891Y61100000D01*
X78786645Y61115224D01*
X78814776Y61143355D01*
X78830000Y61180109D01*
X78830000Y61200000D01*
X78909605Y61200000D01*
X78909605Y61199999D01*
X79164692Y60944912D01*
X79199653Y61005466D01*
X79210225Y61044920D01*
X79246590Y61104581D01*
X79309437Y61135110D01*
X79378812Y61126815D01*
X79432690Y61082330D01*
X79449775Y61044920D01*
X79460347Y61005464D01*
X79460348Y61005461D01*
X79495306Y60944913D01*
X79495307Y60944912D01*
X79750394Y61199999D01*
X79750394Y61200000D01*
X79730503Y61219891D01*
X79830000Y61219891D01*
X79830000Y61180109D01*
X79845224Y61143355D01*
X79873355Y61115224D01*
X79910109Y61100000D01*
X79949891Y61100000D01*
X79986645Y61115224D01*
X80014776Y61143355D01*
X80030000Y61180109D01*
X80030000Y61200000D01*
X80109605Y61200000D01*
X80109605Y61199999D01*
X80364692Y60944912D01*
X80399653Y61005466D01*
X80410225Y61044920D01*
X80446590Y61104581D01*
X80509437Y61135110D01*
X80578812Y61126815D01*
X80632690Y61082330D01*
X80649775Y61044920D01*
X80660347Y61005464D01*
X80660348Y61005461D01*
X80695306Y60944913D01*
X80695307Y60944912D01*
X80950394Y61199999D01*
X80950394Y61200000D01*
X80930503Y61219891D01*
X81030000Y61219891D01*
X81030000Y61180109D01*
X81045224Y61143355D01*
X81073355Y61115224D01*
X81110109Y61100000D01*
X81149891Y61100000D01*
X81186645Y61115224D01*
X81214776Y61143355D01*
X81230000Y61180109D01*
X81230000Y61200000D01*
X81309605Y61200000D01*
X81309605Y61199999D01*
X81564692Y60944912D01*
X81599653Y61005466D01*
X81610225Y61044920D01*
X81646590Y61104581D01*
X81709437Y61135110D01*
X81778812Y61126815D01*
X81832690Y61082330D01*
X81849775Y61044920D01*
X81860347Y61005464D01*
X81860348Y61005461D01*
X81895306Y60944913D01*
X81895307Y60944912D01*
X82150394Y61199999D01*
X82150394Y61200000D01*
X82130503Y61219891D01*
X82230000Y61219891D01*
X82230000Y61180109D01*
X82245224Y61143355D01*
X82273355Y61115224D01*
X82310109Y61100000D01*
X82349891Y61100000D01*
X82386645Y61115224D01*
X82414776Y61143355D01*
X82430000Y61180109D01*
X82430000Y61200000D01*
X82509605Y61200000D01*
X82509605Y61199999D01*
X82764692Y60944912D01*
X82799652Y61005465D01*
X82834000Y61133650D01*
X82834000Y61266351D01*
X82799651Y61394541D01*
X82764693Y61455090D01*
X82509605Y61200000D01*
X82430000Y61200000D01*
X82430000Y61219891D01*
X82414776Y61256645D01*
X82386645Y61284776D01*
X82349891Y61300000D01*
X82310109Y61300000D01*
X82273355Y61284776D01*
X82245224Y61256645D01*
X82230000Y61219891D01*
X82130503Y61219891D01*
X81895306Y61455089D01*
X81860347Y61394538D01*
X81849775Y61355080D01*
X81813410Y61295420D01*
X81750563Y61264891D01*
X81681187Y61273186D01*
X81627309Y61317671D01*
X81610225Y61355080D01*
X81599651Y61394541D01*
X81564693Y61455090D01*
X81309605Y61200000D01*
X81230000Y61200000D01*
X81230000Y61219891D01*
X81214776Y61256645D01*
X81186645Y61284776D01*
X81149891Y61300000D01*
X81110109Y61300000D01*
X81073355Y61284776D01*
X81045224Y61256645D01*
X81030000Y61219891D01*
X80930503Y61219891D01*
X80695305Y61455089D01*
X80660347Y61394538D01*
X80649775Y61355080D01*
X80613410Y61295420D01*
X80550563Y61264891D01*
X80481187Y61273186D01*
X80427309Y61317671D01*
X80410225Y61355080D01*
X80399651Y61394541D01*
X80364693Y61455090D01*
X80109605Y61200000D01*
X80030000Y61200000D01*
X80030000Y61219891D01*
X80014776Y61256645D01*
X79986645Y61284776D01*
X79949891Y61300000D01*
X79910109Y61300000D01*
X79873355Y61284776D01*
X79845224Y61256645D01*
X79830000Y61219891D01*
X79730503Y61219891D01*
X79495305Y61455089D01*
X79460347Y61394538D01*
X79449775Y61355080D01*
X79413410Y61295420D01*
X79350563Y61264891D01*
X79281187Y61273186D01*
X79227309Y61317671D01*
X79210225Y61355080D01*
X79199651Y61394541D01*
X79164693Y61455090D01*
X78909605Y61200000D01*
X78830000Y61200000D01*
X78830000Y61219891D01*
X78814776Y61256645D01*
X78786645Y61284776D01*
X78749891Y61300000D01*
X78710109Y61300000D01*
X78673355Y61284776D01*
X78645224Y61256645D01*
X78630000Y61219891D01*
X78530503Y61219891D01*
X78295306Y61455089D01*
X78260347Y61394538D01*
X78226000Y61266351D01*
X70865728Y61266351D01*
X70760292Y61371787D01*
X70760288Y61371790D01*
X70629185Y61459391D01*
X70629172Y61459398D01*
X70483501Y61519736D01*
X70483489Y61519739D01*
X70328845Y61550500D01*
X70328842Y61550500D01*
X70171158Y61550500D01*
X70171155Y61550500D01*
X70016510Y61519739D01*
X70016498Y61519736D01*
X69870827Y61459398D01*
X69870814Y61459391D01*
X69739711Y61371790D01*
X69739707Y61371787D01*
X69628213Y61260293D01*
X69628210Y61260289D01*
X69540609Y61129186D01*
X69540602Y61129173D01*
X69480264Y60983502D01*
X69480261Y60983490D01*
X69449500Y60828847D01*
X66750500Y60828847D01*
X66750500Y61828847D01*
X67249500Y61828847D01*
X67249500Y61671154D01*
X67280261Y61516511D01*
X67280264Y61516499D01*
X67340602Y61370828D01*
X67340609Y61370815D01*
X67428210Y61239712D01*
X67428213Y61239708D01*
X67539707Y61128214D01*
X67539711Y61128211D01*
X67670814Y61040610D01*
X67670827Y61040603D01*
X67755669Y61005461D01*
X67816503Y60980263D01*
X67971153Y60949501D01*
X67971156Y60949500D01*
X67971158Y60949500D01*
X68128844Y60949500D01*
X68128845Y60949501D01*
X68139179Y60951557D01*
X68164287Y60956550D01*
X68164292Y60956551D01*
X68249800Y60973561D01*
X68283497Y60980263D01*
X68429179Y61040606D01*
X68560289Y61128211D01*
X68671789Y61239711D01*
X68759394Y61370821D01*
X68819737Y61516503D01*
X68850500Y61671158D01*
X68850500Y61828842D01*
X68850500Y61828845D01*
X68850499Y61828847D01*
X68823356Y61965307D01*
X78474910Y61965307D01*
X78535459Y61930349D01*
X78535458Y61930349D01*
X78574920Y61919775D01*
X78634580Y61883410D01*
X78665109Y61820563D01*
X78656814Y61751187D01*
X78612329Y61697309D01*
X78574920Y61680225D01*
X78535462Y61669653D01*
X78474911Y61634694D01*
X78730000Y61379606D01*
X78985088Y61634693D01*
X78985087Y61634694D01*
X78924539Y61669652D01*
X78924536Y61669653D01*
X78885080Y61680225D01*
X78825419Y61716590D01*
X78794890Y61779437D01*
X78803185Y61848812D01*
X78847670Y61902690D01*
X78885080Y61919775D01*
X78924534Y61930347D01*
X78985086Y61965307D01*
X79674910Y61965307D01*
X79735459Y61930349D01*
X79735458Y61930349D01*
X79774920Y61919775D01*
X79834580Y61883410D01*
X79865109Y61820563D01*
X79856814Y61751187D01*
X79812329Y61697309D01*
X79774920Y61680225D01*
X79735462Y61669653D01*
X79674911Y61634694D01*
X79930000Y61379606D01*
X80185088Y61634693D01*
X80185087Y61634694D01*
X80124539Y61669652D01*
X80124536Y61669653D01*
X80085080Y61680225D01*
X80025419Y61716590D01*
X79994890Y61779437D01*
X80003185Y61848812D01*
X80047670Y61902690D01*
X80085080Y61919775D01*
X80124534Y61930347D01*
X80185086Y61965307D01*
X80874910Y61965307D01*
X80935459Y61930349D01*
X80935458Y61930349D01*
X80974920Y61919775D01*
X81034580Y61883410D01*
X81065109Y61820563D01*
X81056814Y61751187D01*
X81012329Y61697309D01*
X80974920Y61680225D01*
X80935462Y61669653D01*
X80874911Y61634694D01*
X81130000Y61379606D01*
X81385088Y61634693D01*
X81385087Y61634694D01*
X81324539Y61669652D01*
X81324536Y61669653D01*
X81285080Y61680225D01*
X81225419Y61716590D01*
X81194890Y61779437D01*
X81203185Y61848812D01*
X81247670Y61902690D01*
X81285080Y61919775D01*
X81324534Y61930347D01*
X81385086Y61965307D01*
X82074910Y61965307D01*
X82135459Y61930349D01*
X82135458Y61930349D01*
X82174920Y61919775D01*
X82234580Y61883410D01*
X82265109Y61820563D01*
X82256814Y61751187D01*
X82212329Y61697309D01*
X82174920Y61680225D01*
X82135462Y61669653D01*
X82074911Y61634694D01*
X82330000Y61379606D01*
X82585088Y61634693D01*
X82585087Y61634694D01*
X82524539Y61669652D01*
X82524536Y61669653D01*
X82485080Y61680225D01*
X82425419Y61716590D01*
X82394890Y61779437D01*
X82403185Y61848812D01*
X82447670Y61902690D01*
X82485080Y61919775D01*
X82524534Y61930347D01*
X82585088Y61965308D01*
X82330001Y62220395D01*
X82074910Y61965307D01*
X81385086Y61965307D01*
X81385088Y61965308D01*
X81130001Y62220395D01*
X80874910Y61965307D01*
X80185086Y61965307D01*
X80185088Y61965308D01*
X79930001Y62220395D01*
X79674910Y61965307D01*
X78985086Y61965307D01*
X78985088Y61965308D01*
X78730001Y62220395D01*
X78474910Y61965307D01*
X68823356Y61965307D01*
X68819740Y61983486D01*
X68819735Y61983502D01*
X68759397Y62129173D01*
X68759390Y62129186D01*
X68671789Y62260289D01*
X68671786Y62260293D01*
X68560292Y62371787D01*
X68560287Y62371791D01*
X68429185Y62459391D01*
X68429172Y62459398D01*
X68412386Y62466351D01*
X78226000Y62466351D01*
X78226000Y62333650D01*
X78260347Y62205462D01*
X78260348Y62205461D01*
X78295306Y62144913D01*
X78295307Y62144912D01*
X78550394Y62399999D01*
X78550394Y62400000D01*
X78530503Y62419891D01*
X78630000Y62419891D01*
X78630000Y62380109D01*
X78645224Y62343355D01*
X78673355Y62315224D01*
X78710109Y62300000D01*
X78749891Y62300000D01*
X78786645Y62315224D01*
X78814776Y62343355D01*
X78830000Y62380109D01*
X78830000Y62400000D01*
X78909605Y62400000D01*
X78909605Y62399999D01*
X79164692Y62144912D01*
X79199653Y62205466D01*
X79210225Y62244920D01*
X79246590Y62304581D01*
X79309437Y62335110D01*
X79378812Y62326815D01*
X79432690Y62282330D01*
X79449775Y62244920D01*
X79460347Y62205464D01*
X79460348Y62205461D01*
X79495306Y62144913D01*
X79495307Y62144912D01*
X79750394Y62399999D01*
X79750394Y62400000D01*
X79730503Y62419891D01*
X79830000Y62419891D01*
X79830000Y62380109D01*
X79845224Y62343355D01*
X79873355Y62315224D01*
X79910109Y62300000D01*
X79949891Y62300000D01*
X79986645Y62315224D01*
X80014776Y62343355D01*
X80030000Y62380109D01*
X80030000Y62400000D01*
X80109605Y62400000D01*
X80109605Y62399999D01*
X80364692Y62144912D01*
X80399653Y62205466D01*
X80410225Y62244920D01*
X80446590Y62304581D01*
X80509437Y62335110D01*
X80578812Y62326815D01*
X80632690Y62282330D01*
X80649775Y62244920D01*
X80660347Y62205464D01*
X80660348Y62205461D01*
X80695306Y62144913D01*
X80695307Y62144912D01*
X80950394Y62399999D01*
X80950394Y62400000D01*
X80930503Y62419891D01*
X81030000Y62419891D01*
X81030000Y62380109D01*
X81045224Y62343355D01*
X81073355Y62315224D01*
X81110109Y62300000D01*
X81149891Y62300000D01*
X81186645Y62315224D01*
X81214776Y62343355D01*
X81230000Y62380109D01*
X81230000Y62400000D01*
X81309605Y62400000D01*
X81309605Y62399999D01*
X81564692Y62144912D01*
X81599653Y62205466D01*
X81610225Y62244920D01*
X81646590Y62304581D01*
X81709437Y62335110D01*
X81778812Y62326815D01*
X81832690Y62282330D01*
X81849775Y62244920D01*
X81860347Y62205464D01*
X81860348Y62205461D01*
X81895306Y62144913D01*
X81895307Y62144912D01*
X82150394Y62399999D01*
X82150394Y62400000D01*
X82130503Y62419891D01*
X82230000Y62419891D01*
X82230000Y62380109D01*
X82245224Y62343355D01*
X82273355Y62315224D01*
X82310109Y62300000D01*
X82349891Y62300000D01*
X82386645Y62315224D01*
X82414776Y62343355D01*
X82430000Y62380109D01*
X82430000Y62400000D01*
X82509605Y62400000D01*
X82509605Y62399999D01*
X82764692Y62144912D01*
X82799652Y62205465D01*
X82834000Y62333650D01*
X82834000Y62466351D01*
X82799651Y62594541D01*
X82764693Y62655090D01*
X82509605Y62400000D01*
X82430000Y62400000D01*
X82430000Y62419891D01*
X82414776Y62456645D01*
X82386645Y62484776D01*
X82349891Y62500000D01*
X82310109Y62500000D01*
X82273355Y62484776D01*
X82245224Y62456645D01*
X82230000Y62419891D01*
X82130503Y62419891D01*
X81895306Y62655089D01*
X81860347Y62594538D01*
X81849775Y62555080D01*
X81813410Y62495420D01*
X81750563Y62464891D01*
X81681187Y62473186D01*
X81627309Y62517671D01*
X81610225Y62555080D01*
X81599651Y62594541D01*
X81564693Y62655090D01*
X81309605Y62400000D01*
X81230000Y62400000D01*
X81230000Y62419891D01*
X81214776Y62456645D01*
X81186645Y62484776D01*
X81149891Y62500000D01*
X81110109Y62500000D01*
X81073355Y62484776D01*
X81045224Y62456645D01*
X81030000Y62419891D01*
X80930503Y62419891D01*
X80695306Y62655089D01*
X80660347Y62594538D01*
X80649775Y62555080D01*
X80613410Y62495420D01*
X80550563Y62464891D01*
X80481187Y62473186D01*
X80427309Y62517671D01*
X80410225Y62555080D01*
X80399651Y62594541D01*
X80364693Y62655090D01*
X80109605Y62400000D01*
X80030000Y62400000D01*
X80030000Y62419891D01*
X80014776Y62456645D01*
X79986645Y62484776D01*
X79949891Y62500000D01*
X79910109Y62500000D01*
X79873355Y62484776D01*
X79845224Y62456645D01*
X79830000Y62419891D01*
X79730503Y62419891D01*
X79495305Y62655089D01*
X79460347Y62594538D01*
X79449775Y62555080D01*
X79413410Y62495420D01*
X79350563Y62464891D01*
X79281187Y62473186D01*
X79227309Y62517671D01*
X79210225Y62555080D01*
X79199651Y62594541D01*
X79164693Y62655090D01*
X78909605Y62400000D01*
X78830000Y62400000D01*
X78830000Y62419891D01*
X78814776Y62456645D01*
X78786645Y62484776D01*
X78749891Y62500000D01*
X78710109Y62500000D01*
X78673355Y62484776D01*
X78645224Y62456645D01*
X78630000Y62419891D01*
X78530503Y62419891D01*
X78295306Y62655089D01*
X78260347Y62594538D01*
X78226000Y62466351D01*
X68412386Y62466351D01*
X68283501Y62519736D01*
X68283489Y62519739D01*
X68128845Y62550500D01*
X68128842Y62550500D01*
X67971158Y62550500D01*
X67971155Y62550500D01*
X67816510Y62519739D01*
X67816498Y62519736D01*
X67670827Y62459398D01*
X67670814Y62459391D01*
X67539711Y62371790D01*
X67539707Y62371787D01*
X67428213Y62260293D01*
X67428210Y62260289D01*
X67340609Y62129186D01*
X67340602Y62129173D01*
X67280264Y61983502D01*
X67280261Y61983490D01*
X67249500Y61828847D01*
X66750500Y61828847D01*
X66750500Y62834694D01*
X78474911Y62834694D01*
X78730000Y62579606D01*
X78985088Y62834693D01*
X78985087Y62834694D01*
X79674911Y62834694D01*
X79930000Y62579606D01*
X80185088Y62834693D01*
X80185087Y62834694D01*
X80874911Y62834694D01*
X81130000Y62579606D01*
X81385088Y62834693D01*
X81385087Y62834694D01*
X82074911Y62834694D01*
X82330000Y62579606D01*
X82585088Y62834693D01*
X82585087Y62834694D01*
X82524539Y62869652D01*
X82524538Y62869653D01*
X82396350Y62904000D01*
X82263650Y62904000D01*
X82135462Y62869653D01*
X82074911Y62834694D01*
X81385087Y62834694D01*
X81324539Y62869652D01*
X81324538Y62869653D01*
X81196350Y62904000D01*
X81063650Y62904000D01*
X80935462Y62869653D01*
X80874911Y62834694D01*
X80185087Y62834694D01*
X80124539Y62869652D01*
X80124538Y62869653D01*
X79996350Y62904000D01*
X79863650Y62904000D01*
X79735462Y62869653D01*
X79674911Y62834694D01*
X78985087Y62834694D01*
X78924539Y62869652D01*
X78924538Y62869653D01*
X78796350Y62904000D01*
X78663650Y62904000D01*
X78535462Y62869653D01*
X78474911Y62834694D01*
X66750500Y62834694D01*
X66750500Y63828847D01*
X75729500Y63828847D01*
X75729500Y63671154D01*
X75760261Y63516511D01*
X75760264Y63516499D01*
X75820602Y63370828D01*
X75820609Y63370815D01*
X75908210Y63239712D01*
X75908213Y63239708D01*
X76019707Y63128214D01*
X76019711Y63128211D01*
X76150814Y63040610D01*
X76150827Y63040603D01*
X76296498Y62980265D01*
X76296503Y62980263D01*
X76451153Y62949501D01*
X76451156Y62949500D01*
X76451158Y62949500D01*
X76608844Y62949500D01*
X76608845Y62949501D01*
X76763497Y62980263D01*
X76909179Y63040606D01*
X77040289Y63128211D01*
X77151789Y63239711D01*
X77239394Y63370821D01*
X77299737Y63516503D01*
X77330500Y63671158D01*
X77330500Y63828842D01*
X77330500Y63828845D01*
X77330499Y63828847D01*
X77299738Y63983490D01*
X77299737Y63983497D01*
X77299735Y63983502D01*
X77239397Y64129173D01*
X77239390Y64129186D01*
X77151789Y64260289D01*
X77151786Y64260293D01*
X77040292Y64371787D01*
X77040288Y64371790D01*
X76909185Y64459391D01*
X76909172Y64459398D01*
X76763501Y64519736D01*
X76763489Y64519739D01*
X76608845Y64550500D01*
X76608842Y64550500D01*
X76451158Y64550500D01*
X76451155Y64550500D01*
X76296510Y64519739D01*
X76296498Y64519736D01*
X76150827Y64459398D01*
X76150814Y64459391D01*
X76019711Y64371790D01*
X76019707Y64371787D01*
X75908213Y64260293D01*
X75908210Y64260289D01*
X75820609Y64129186D01*
X75820602Y64129173D01*
X75760264Y63983502D01*
X75760261Y63983490D01*
X75729500Y63828847D01*
X66750500Y63828847D01*
X66750500Y64978847D01*
X82799500Y64978847D01*
X82799500Y64821154D01*
X82830261Y64666511D01*
X82830264Y64666499D01*
X82890602Y64520828D01*
X82890609Y64520815D01*
X82978210Y64389712D01*
X82978213Y64389708D01*
X83089707Y64278214D01*
X83089711Y64278211D01*
X83220814Y64190610D01*
X83220827Y64190603D01*
X83366498Y64130265D01*
X83366503Y64130263D01*
X83521153Y64099501D01*
X83521156Y64099500D01*
X83521158Y64099500D01*
X83678844Y64099500D01*
X83678845Y64099501D01*
X83833497Y64130263D01*
X83979179Y64190606D01*
X84110289Y64278211D01*
X84221789Y64389711D01*
X84309394Y64520821D01*
X84369737Y64666503D01*
X84400500Y64821158D01*
X84400500Y64978842D01*
X84400500Y64978845D01*
X84400499Y64978847D01*
X84369738Y65133490D01*
X84369737Y65133497D01*
X84369735Y65133502D01*
X84309397Y65279173D01*
X84309390Y65279186D01*
X84221789Y65410289D01*
X84221786Y65410293D01*
X84110292Y65521787D01*
X84110288Y65521790D01*
X83979185Y65609391D01*
X83979172Y65609398D01*
X83833501Y65669736D01*
X83833489Y65669739D01*
X83678845Y65700500D01*
X83678842Y65700500D01*
X83521158Y65700500D01*
X83521155Y65700500D01*
X83366510Y65669739D01*
X83366498Y65669736D01*
X83220827Y65609398D01*
X83220814Y65609391D01*
X83089711Y65521790D01*
X83089707Y65521787D01*
X82978213Y65410293D01*
X82978210Y65410289D01*
X82890609Y65279186D01*
X82890602Y65279173D01*
X82830264Y65133502D01*
X82830261Y65133490D01*
X82799500Y64978847D01*
X66750500Y64978847D01*
X66750500Y69497303D01*
X66750618Y69502712D01*
X66760433Y69727494D01*
X66767387Y69886770D01*
X66768327Y69897504D01*
X66818153Y70275965D01*
X66820031Y70286613D01*
X66902652Y70659296D01*
X66905439Y70669696D01*
X67020235Y71033783D01*
X67023919Y71043904D01*
X67157480Y71366347D01*
X74884500Y71366347D01*
X74884500Y71208654D01*
X74915261Y71054011D01*
X74915264Y71053999D01*
X74975602Y70908328D01*
X74975609Y70908315D01*
X75063210Y70777212D01*
X75063213Y70777208D01*
X75174707Y70665714D01*
X75174711Y70665711D01*
X75305814Y70578110D01*
X75305827Y70578103D01*
X75451498Y70517765D01*
X75451503Y70517763D01*
X75606153Y70487001D01*
X75606156Y70487000D01*
X75606158Y70487000D01*
X75763844Y70487000D01*
X75763845Y70487001D01*
X75918497Y70517763D01*
X76064179Y70578106D01*
X76195289Y70665711D01*
X76306789Y70777211D01*
X76394394Y70908321D01*
X76454737Y71054003D01*
X76485500Y71208658D01*
X76485500Y71366342D01*
X76485500Y71366345D01*
X76485499Y71366347D01*
X76477535Y71406386D01*
X76454737Y71520997D01*
X76454735Y71521002D01*
X76394397Y71666673D01*
X76394390Y71666686D01*
X76306789Y71797789D01*
X76306786Y71797793D01*
X76195292Y71909287D01*
X76195288Y71909290D01*
X76064185Y71996891D01*
X76064172Y71996898D01*
X75918501Y72057236D01*
X75918489Y72057239D01*
X75763845Y72088000D01*
X75763842Y72088000D01*
X75606158Y72088000D01*
X75606155Y72088000D01*
X75451510Y72057239D01*
X75451498Y72057236D01*
X75305827Y71996898D01*
X75305814Y71996891D01*
X75174711Y71909290D01*
X75174707Y71909287D01*
X75063213Y71797793D01*
X75063210Y71797789D01*
X74975609Y71666686D01*
X74975602Y71666673D01*
X74915264Y71521002D01*
X74915261Y71520990D01*
X74884500Y71366347D01*
X67157480Y71366347D01*
X67170007Y71396590D01*
X67174566Y71406365D01*
X67350826Y71744957D01*
X67356221Y71754302D01*
X67561329Y72076260D01*
X67567519Y72085099D01*
X67799894Y72387935D01*
X67806841Y72396215D01*
X68064730Y72677653D01*
X68072357Y72685280D01*
X68353798Y72943175D01*
X68362062Y72950110D01*
X68664921Y73182504D01*
X68673760Y73188691D01*
X68995697Y73393789D01*
X69005038Y73399183D01*
X69343633Y73575447D01*
X69353424Y73580013D01*
X69706093Y73726095D01*
X69716229Y73729784D01*
X70080293Y73844576D01*
X70090731Y73847371D01*
X70463392Y73929991D01*
X70474028Y73931868D01*
X70852498Y73981696D01*
X70863232Y73982636D01*
X71225738Y73998466D01*
X71246731Y73999382D01*
X71252140Y73999500D01*
X71315896Y73999500D01*
X94184108Y73999500D01*
X94184112Y73999499D01*
G37*
%TD.AperFunction*%
%TD*%
M02*
