%TF.GenerationSoftware,KiCad,Pcbnew,9.0.6-9.0.6~ubuntu24.04.1*%
%TF.CreationDate,2025-11-16T07:01:41-05:00*%
%TF.ProjectId,tire_sensor_jlcpcb,74697265-5f73-4656-9e73-6f725f6a6c63,rev?*%
%TF.SameCoordinates,Original*%
%TF.FileFunction,Legend,Bot*%
%TF.FilePolarity,Positive*%
%FSLAX46Y46*%
G04 Gerber Fmt 4.6, Leading zero omitted, Abs format (unit mm)*
G04 Created by KiCad (PCBNEW 9.0.6-9.0.6~ubuntu24.04.1) date 2025-11-16 07:01:41*
%MOMM*%
%LPD*%
G01*
G04 APERTURE LIST*
G04 Aperture macros list*
%AMRoundRect*
0 Rectangle with rounded corners*
0 $1 Rounding radius*
0 $2 $3 $4 $5 $6 $7 $8 $9 X,Y pos of 4 corners*
0 Add a 4 corners polygon primitive as box body*
4,1,4,$2,$3,$4,$5,$6,$7,$8,$9,$2,$3,0*
0 Add four circle primitives for the rounded corners*
1,1,$1+$1,$2,$3*
1,1,$1+$1,$4,$5*
1,1,$1+$1,$6,$7*
1,1,$1+$1,$8,$9*
0 Add four rect primitives between the rounded corners*
20,1,$1+$1,$2,$3,$4,$5,0*
20,1,$1+$1,$4,$5,$6,$7,0*
20,1,$1+$1,$6,$7,$8,$9,0*
20,1,$1+$1,$8,$9,$2,$3,0*%
G04 Aperture macros list end*
%ADD10C,0.150000*%
%ADD11C,0.120000*%
%ADD12C,1.143000*%
%ADD13RoundRect,0.211723X-1.879910X-0.654586X0.027858X-1.990419X1.879910X0.654586X-0.027858X1.990419X0*%
G04 APERTURE END LIST*
D10*
X77812537Y53983478D02*
X77668203Y54026410D01*
X77668203Y54026410D02*
X77601882Y54014716D01*
X77601882Y54014716D02*
X77508249Y53964015D01*
X77508249Y53964015D02*
X77426309Y53846993D01*
X77426309Y53846993D02*
X77410690Y53741665D01*
X77410690Y53741665D02*
X77422384Y53675345D01*
X77422384Y53675345D02*
X77473085Y53581711D01*
X77473085Y53581711D02*
X77785143Y53363206D01*
X77785143Y53363206D02*
X78358720Y54182358D01*
X78358720Y54182358D02*
X78085669Y54373550D01*
X78085669Y54373550D02*
X77980341Y54389169D01*
X77980341Y54389169D02*
X77914021Y54377475D01*
X77914021Y54377475D02*
X77820387Y54326774D01*
X77820387Y54326774D02*
X77765761Y54248760D01*
X77765761Y54248760D02*
X77750142Y54143432D01*
X77750142Y54143432D02*
X77761836Y54077111D01*
X77761836Y54077111D02*
X77812537Y53983478D01*
X77812537Y53983478D02*
X78085588Y53792286D01*
X77656589Y54673995D02*
X77188503Y55001753D01*
X76848970Y54018722D02*
X77422546Y54837874D01*
X75912796Y54674238D02*
X76380882Y54346480D01*
X76146839Y54510359D02*
X76720415Y55329511D01*
X76720415Y55329511D02*
X76716490Y55157863D01*
X76716490Y55157863D02*
X76739879Y55025222D01*
X76739879Y55025222D02*
X76790580Y54931589D01*
X68430789Y67965368D02*
X67806673Y68402378D01*
X67900226Y67871815D02*
X68337236Y68495931D01*
D11*
%TO.C,BT1*%
X68443974Y67026963D02*
X71602380Y64815424D01*
X69367432Y68345798D02*
X68443974Y67026963D01*
X71426061Y59384359D02*
X83784772Y50730697D01*
X72596668Y72957624D02*
X71673210Y71638789D01*
X75755072Y70746085D02*
X72596668Y72957624D01*
X88828000Y52753915D02*
X91986404Y50542376D01*
X91986404Y50542376D02*
X92909862Y51861211D01*
X93157011Y64115641D02*
X80798300Y72769303D01*
X95215640Y55154202D02*
X96139098Y56473037D01*
X96139098Y56473037D02*
X92980692Y58684576D01*
X71426061Y59384359D02*
G75*
G02*
X71602381Y64815424I10939162J2363254D01*
G01*
X75755072Y70746085D02*
G75*
G02*
X80798300Y72769304I6563938J-9064593D01*
G01*
X88828000Y52753915D02*
G75*
G02*
X83784772Y50730697I-6563910J9064526D01*
G01*
X93157011Y64115641D02*
G75*
G02*
X92980692Y58684576I-10939159J-2363256D01*
G01*
%TD*%
%LPC*%
D12*
%TO.C,J1*%
X69769408Y55500000D03*
X68332567Y54063159D03*
X72643090Y51189477D03*
%TD*%
D13*
%TO.C,BT1*%
X70250000Y70181574D03*
X94333072Y53318426D03*
%TD*%
%LPD*%
M02*
