%TF.GenerationSoftware,KiCad,Pcbnew,9.0.6-9.0.6~ubuntu24.04.1*%
%TF.CreationDate,2025-11-16T07:01:41-05:00*%
%TF.ProjectId,tire_sensor_jlcpcb,74697265-5f73-4656-9e73-6f725f6a6c63,rev?*%
%TF.SameCoordinates,Original*%
%TF.FileFunction,Copper,L1,Top*%
%TF.FilePolarity,Positive*%
%FSLAX46Y46*%
G04 Gerber Fmt 4.6, Leading zero omitted, Abs format (unit mm)*
G04 Created by KiCad (PCBNEW 9.0.6-9.0.6~ubuntu24.04.1) date 2025-11-16 07:01:41*
%MOMM*%
%LPD*%
G01*
G04 APERTURE LIST*
G04 Aperture macros list*
%AMRoundRect*
0 Rectangle with rounded corners*
0 $1 Rounding radius*
0 $2 $3 $4 $5 $6 $7 $8 $9 X,Y pos of 4 corners*
0 Add a 4 corners polygon primitive as box body*
4,1,4,$2,$3,$4,$5,$6,$7,$8,$9,$2,$3,0*
0 Add four circle primitives for the rounded corners*
1,1,$1+$1,$2,$3*
1,1,$1+$1,$4,$5*
1,1,$1+$1,$6,$7*
1,1,$1+$1,$8,$9*
0 Add four rect primitives between the rounded corners*
20,1,$1+$1,$2,$3,$4,$5,0*
20,1,$1+$1,$4,$5,$6,$7,0*
20,1,$1+$1,$6,$7,$8,$9,0*
20,1,$1+$1,$8,$9,$2,$3,0*%
G04 Aperture macros list end*
%TA.AperFunction,EtchedComponent*%
%ADD10C,0.000000*%
%TD*%
%TA.AperFunction,ConnectorPad*%
%ADD11C,0.787400*%
%TD*%
%TA.AperFunction,SMDPad,CuDef*%
%ADD12RoundRect,0.140000X0.170000X-0.140000X0.170000X0.140000X-0.170000X0.140000X-0.170000X-0.140000X0*%
%TD*%
%TA.AperFunction,SMDPad,CuDef*%
%ADD13RoundRect,0.140000X0.140000X0.170000X-0.140000X0.170000X-0.140000X-0.170000X0.140000X-0.170000X0*%
%TD*%
%TA.AperFunction,SMDPad,CuDef*%
%ADD14RoundRect,0.140000X-0.170000X0.140000X-0.170000X-0.140000X0.170000X-0.140000X0.170000X0.140000X0*%
%TD*%
%TA.AperFunction,SMDPad,CuDef*%
%ADD15RoundRect,0.140000X-0.140000X-0.170000X0.140000X-0.170000X0.140000X0.170000X-0.140000X0.170000X0*%
%TD*%
%TA.AperFunction,ConnectorPad*%
%ADD16R,0.500000X0.500000*%
%TD*%
%TA.AperFunction,ComponentPad*%
%ADD17R,0.500000X0.900000*%
%TD*%
%TA.AperFunction,SMDPad,CuDef*%
%ADD18RoundRect,0.250000X0.245703X-0.477237X0.532491X-0.067661X-0.245703X0.477237X-0.532491X0.067661X0*%
%TD*%
%TA.AperFunction,SMDPad,CuDef*%
%ADD19R,0.762000X0.838200*%
%TD*%
%TA.AperFunction,SMDPad,CuDef*%
%ADD20RoundRect,0.050000X-0.350000X-0.050000X0.350000X-0.050000X0.350000X0.050000X-0.350000X0.050000X0*%
%TD*%
%TA.AperFunction,SMDPad,CuDef*%
%ADD21RoundRect,0.050000X-0.050000X-0.350000X0.050000X-0.350000X0.050000X0.350000X-0.050000X0.350000X0*%
%TD*%
%TA.AperFunction,HeatsinkPad*%
%ADD22C,0.500000*%
%TD*%
%TA.AperFunction,HeatsinkPad*%
%ADD23R,4.600000X4.600000*%
%TD*%
%TA.AperFunction,SMDPad,CuDef*%
%ADD24RoundRect,0.225000X0.250000X-0.225000X0.250000X0.225000X-0.250000X0.225000X-0.250000X-0.225000X0*%
%TD*%
%TA.AperFunction,SMDPad,CuDef*%
%ADD25RoundRect,0.250000X0.650000X0.250000X-0.650000X0.250000X-0.650000X-0.250000X0.650000X-0.250000X0*%
%TD*%
%TA.AperFunction,SMDPad,CuDef*%
%ADD26RoundRect,0.087500X-0.225000X-0.087500X0.225000X-0.087500X0.225000X0.087500X-0.225000X0.087500X0*%
%TD*%
%TA.AperFunction,SMDPad,CuDef*%
%ADD27RoundRect,0.087500X-0.087500X-0.225000X0.087500X-0.225000X0.087500X0.225000X-0.087500X0.225000X0*%
%TD*%
%TA.AperFunction,SMDPad,CuDef*%
%ADD28RoundRect,0.250000X0.650000X-0.425000X0.650000X0.425000X-0.650000X0.425000X-0.650000X-0.425000X0*%
%TD*%
%TA.AperFunction,SMDPad,CuDef*%
%ADD29R,0.350000X0.350000*%
%TD*%
%TA.AperFunction,SMDPad,CuDef*%
%ADD30RoundRect,0.218750X0.256250X-0.218750X0.256250X0.218750X-0.256250X0.218750X-0.256250X-0.218750X0*%
%TD*%
%TA.AperFunction,ViaPad*%
%ADD31C,0.600000*%
%TD*%
%TA.AperFunction,Conductor*%
%ADD32C,0.300000*%
%TD*%
%TA.AperFunction,Conductor*%
%ADD33C,0.400000*%
%TD*%
%TA.AperFunction,Conductor*%
%ADD34C,0.150000*%
%TD*%
%TA.AperFunction,Conductor*%
%ADD35C,1.000000*%
%TD*%
G04 APERTURE END LIST*
D10*
%TA.AperFunction,EtchedComponent*%
%TO.C,AE1*%
G36*
X97525000Y69640685D02*
G01*
X94885000Y69640685D01*
X94885000Y67640685D01*
X97525000Y67640685D01*
X97525000Y64940685D01*
X94885000Y64940685D01*
X94885000Y62940685D01*
X97525000Y62940685D01*
X97525000Y57940685D01*
X92368215Y57940685D01*
X92125000Y57940685D01*
X92125000Y58365529D01*
X92228957Y58365529D01*
X92241065Y58322866D01*
X92245419Y58314954D01*
X92278203Y58277011D01*
X92320605Y58252943D01*
X92368215Y58243102D01*
X92416622Y58247838D01*
X92461416Y58267500D01*
X92498186Y58302440D01*
X92515092Y58335332D01*
X92522982Y58383418D01*
X92516408Y58433003D01*
X92496313Y58478313D01*
X92463643Y58513573D01*
X92431417Y58530467D01*
X92383158Y58538907D01*
X92333632Y58532376D01*
X92288447Y58511817D01*
X92253213Y58478174D01*
X92242600Y58459563D01*
X92229700Y58414048D01*
X92228957Y58365529D01*
X92125000Y58365529D01*
X92125000Y58840685D01*
X97025000Y58840685D01*
X97025000Y60240685D01*
X92125000Y60240685D01*
X92125000Y60740685D01*
X97025000Y60740685D01*
X97025000Y62440685D01*
X94385000Y62440685D01*
X94385000Y65440685D01*
X97025000Y65440685D01*
X97025000Y67140685D01*
X94385000Y67140685D01*
X94385000Y70140685D01*
X97025000Y70140685D01*
X97025000Y71840685D01*
X93085000Y71840685D01*
X93085000Y72340685D01*
X97525000Y72340685D01*
X97525000Y69640685D01*
G37*
%TD.AperFunction*%
%TD*%
D11*
%TO.P,J1,6,SWO*%
%TO.N,unconnected-(J1-SWO-Pad6)*%
X69500000Y53434542D03*
%TO.P,J1,5,GND*%
%TO.N,GND*%
X70398026Y54332566D03*
%TO.P,J1,4,SWCLK*%
%TO.N,/SWCLK*%
X70398026Y52536515D03*
%TO.P,J1,3,~{RESET}*%
%TO.N,/nRESET*%
X71296052Y53434541D03*
%TO.P,J1,2,SWDIO*%
%TO.N,/SWDIO*%
X71296052Y51638490D03*
%TO.P,J1,1,VCC*%
%TO.N,VDD_NRF*%
X72194078Y52536514D03*
%TD*%
D12*
%TO.P,C13,1*%
%TO.N,/P0.25*%
X82900000Y64600000D03*
%TO.P,C13,2*%
%TO.N,GND*%
X82900000Y65600000D03*
%TD*%
D13*
%TO.P,R2,1*%
%TO.N,Net-(D2-K)*%
X82765940Y68240685D03*
%TO.P,R2,2*%
%TO.N,/LED1*%
X81765940Y68240685D03*
%TD*%
D12*
%TO.P,C18,1*%
%TO.N,VDD_NRF*%
X86433440Y52390685D03*
%TO.P,C18,2*%
%TO.N,GND*%
X86433440Y53390685D03*
%TD*%
D13*
%TO.P,C5,1*%
%TO.N,VDD_NRF*%
X77433440Y56890685D03*
%TO.P,C5,2*%
%TO.N,GND*%
X76433440Y56890685D03*
%TD*%
D12*
%TO.P,C19,1*%
%TO.N,VDD_NRF*%
X86433440Y54390685D03*
%TO.P,C19,2*%
%TO.N,GND*%
X86433440Y55390685D03*
%TD*%
D14*
%TO.P,R6,1*%
%TO.N,VDD_NRF*%
X71500000Y60500000D03*
%TO.P,R6,2*%
%TO.N,/BTN*%
X71500000Y59500000D03*
%TD*%
D13*
%TO.P,R3,1*%
%TO.N,Net-(D3-K)*%
X80965940Y68240685D03*
%TO.P,R3,2*%
%TO.N,/LED2*%
X79965940Y68240685D03*
%TD*%
D15*
%TO.P,C2,1*%
%TO.N,/XC2*%
X85000000Y65750000D03*
%TO.P,C2,2*%
%TO.N,GND*%
X86000000Y65750000D03*
%TD*%
D16*
%TO.P,AE1,1,A*%
%TO.N,/RF*%
X92375000Y60490685D03*
D17*
%TO.P,AE1,2,Shield*%
%TO.N,GND*%
X92375000Y58390685D03*
%TD*%
D12*
%TO.P,C1,1*%
%TO.N,/XC1*%
X87250000Y63250000D03*
%TO.P,C1,2*%
%TO.N,GND*%
X87250000Y64250000D03*
%TD*%
D18*
%TO.P,C15,1*%
%TO.N,VDD_NRF*%
X72705102Y67471805D03*
%TO.P,C15,2*%
%TO.N,GND*%
X73794898Y69028195D03*
%TD*%
D15*
%TO.P,L1,1*%
%TO.N,Net-(U1-ANT)*%
X85700000Y60500000D03*
%TO.P,L1,2*%
%TO.N,/RF*%
X86700000Y60500000D03*
%TD*%
D19*
%TO.P,X1,1,1*%
%TO.N,/XC1*%
X86040300Y63198000D03*
%TO.P,X1,2,2*%
%TO.N,GND*%
X86040300Y64548000D03*
%TO.P,X1,3,3*%
%TO.N,/XC2*%
X84990300Y64548000D03*
%TO.P,X1,4,4*%
%TO.N,GND*%
X84990300Y63198000D03*
%TD*%
D14*
%TO.P,C12,1*%
%TO.N,GND*%
X73950000Y61890685D03*
%TO.P,C12,2*%
%TO.N,/P0.01{slash}XL2*%
X73950000Y60890685D03*
%TD*%
%TO.P,C11,1*%
%TO.N,GND*%
X75500000Y65640685D03*
%TO.P,C11,2*%
%TO.N,/P0.00{slash}XL1*%
X75500000Y64640685D03*
%TD*%
D20*
%TO.P,U1,1,DEC1*%
%TO.N,/DEC1*%
X77580000Y62800000D03*
%TO.P,U1,2,P0.00/XL1*%
%TO.N,/P0.00{slash}XL1*%
X77580000Y62400000D03*
%TO.P,U1,3,P0.01/XL2*%
%TO.N,/P0.01{slash}XL2*%
X77580000Y62000000D03*
%TO.P,U1,4,P0.02/AIN0*%
%TO.N,unconnected-(U1-P0.02{slash}AIN0-Pad4)*%
X77580000Y61600000D03*
%TO.P,U1,5,P0.03/AIN1*%
%TO.N,unconnected-(U1-P0.03{slash}AIN1-Pad5)*%
X77580000Y61200000D03*
%TO.P,U1,6,P0.04/AIN2*%
%TO.N,unconnected-(U1-P0.04{slash}AIN2-Pad6)*%
X77580000Y60800000D03*
%TO.P,U1,7,P0.05/AIN3*%
%TO.N,unconnected-(U1-P0.05{slash}AIN3-Pad7)*%
X77580000Y60400000D03*
%TO.P,U1,8,P0.06*%
%TO.N,unconnected-(U1-P0.06-Pad8)*%
X77580000Y60000000D03*
%TO.P,U1,9,P0.07*%
%TO.N,unconnected-(U1-P0.07-Pad9)*%
X77580000Y59600000D03*
%TO.P,U1,10,P0.08*%
%TO.N,unconnected-(U1-P0.08-Pad10)*%
X77580000Y59200000D03*
%TO.P,U1,11,P0.09*%
%TO.N,unconnected-(U1-P0.09-Pad11)*%
X77580000Y58800000D03*
%TO.P,U1,12,P0.10*%
%TO.N,/BTN*%
X77580000Y58400000D03*
D21*
%TO.P,U1,13,VDD*%
%TO.N,VDD_NRF*%
X78330000Y57650000D03*
%TO.P,U1,14,P0.11*%
%TO.N,/INT_LSM6DS3*%
X78730000Y57650000D03*
%TO.P,U1,15,P0.12*%
%TO.N,unconnected-(U1-P0.12-Pad15)*%
X79130000Y57650000D03*
%TO.P,U1,16,P0.13*%
%TO.N,/SDO*%
X79530000Y57650000D03*
%TO.P,U1,17,P0.14*%
%TO.N,/SDI*%
X79930000Y57650000D03*
%TO.P,U1,18,P0.15*%
%TO.N,unconnected-(U1-P0.15-Pad18)*%
X80330000Y57650000D03*
%TO.P,U1,19,P0.16*%
%TO.N,unconnected-(U1-P0.16-Pad19)*%
X80730000Y57650000D03*
%TO.P,U1,20,P0.17*%
%TO.N,/SCK*%
X81130000Y57650000D03*
%TO.P,U1,21,P0.18*%
%TO.N,unconnected-(U1-P0.18-Pad21)*%
X81530000Y57650000D03*
%TO.P,U1,22,P0.19*%
%TO.N,/CS_LSM6DS3*%
X81930000Y57650000D03*
%TO.P,U1,23,P0.20*%
%TO.N,/CS_DPS368*%
X82330000Y57650000D03*
%TO.P,U1,24,P0.21/RESET*%
%TO.N,/nRESET*%
X82730000Y57650000D03*
D20*
%TO.P,U1,25,SWDCLK*%
%TO.N,/SWCLK*%
X83480000Y58400000D03*
%TO.P,U1,26,SWDIO*%
%TO.N,/SWDIO*%
X83480000Y58800000D03*
%TO.P,U1,27,P0.22*%
%TO.N,unconnected-(U1-P0.22-Pad27)*%
X83480000Y59200000D03*
%TO.P,U1,28,P0.23*%
%TO.N,unconnected-(U1-P0.23-Pad28)*%
X83480000Y59600000D03*
%TO.P,U1,29,P0.24*%
%TO.N,unconnected-(U1-P0.24-Pad29)*%
X83480000Y60000000D03*
%TO.P,U1,30,ANT*%
%TO.N,Net-(U1-ANT)*%
X83480000Y60400000D03*
%TO.P,U1,31,VSS*%
%TO.N,GND*%
X83480000Y60800000D03*
%TO.P,U1,32,DEC2*%
%TO.N,/DEC2*%
X83480000Y61200000D03*
%TO.P,U1,33,DEC3*%
%TO.N,/DEC3*%
X83480000Y61600000D03*
%TO.P,U1,34,XC1*%
%TO.N,/XC1*%
X83480000Y62000000D03*
%TO.P,U1,35,XC2*%
%TO.N,/XC2*%
X83480000Y62400000D03*
%TO.P,U1,36,VDD*%
%TO.N,VDD_NRF*%
X83480000Y62800000D03*
D21*
%TO.P,U1,37,P0.25*%
%TO.N,/P0.25*%
X82730000Y63550000D03*
%TO.P,U1,38,P0.26*%
%TO.N,Net-(U1-P0.26)*%
X82330000Y63550000D03*
%TO.P,U1,39,P0.27*%
%TO.N,unconnected-(U1-P0.27-Pad39)*%
X81930000Y63550000D03*
%TO.P,U1,40,P0.28/AIN4*%
%TO.N,/LED0*%
X81530000Y63550000D03*
%TO.P,U1,41,P0.29/AIN5*%
%TO.N,/LED1*%
X81130000Y63550000D03*
%TO.P,U1,42,P0.30/AIN6*%
%TO.N,/LED2*%
X80730000Y63550000D03*
%TO.P,U1,43,P0.31/AIN7*%
%TO.N,/LED3*%
X80330000Y63550000D03*
%TO.P,U1,44,N.C.*%
%TO.N,unconnected-(U1-N.C.-Pad44)*%
X79930000Y63550000D03*
%TO.P,U1,45,VSS*%
%TO.N,GND*%
X79530000Y63550000D03*
%TO.P,U1,46,DEC4*%
%TO.N,/DEC4*%
X79130000Y63550000D03*
%TO.P,U1,47,DCC*%
%TO.N,unconnected-(U1-DCC-Pad47)*%
X78730000Y63550000D03*
%TO.P,U1,48,VDD*%
%TO.N,VDD_NRF*%
X78330000Y63550000D03*
D22*
%TO.P,U1,49,GND*%
%TO.N,GND*%
X78730000Y62400000D03*
X78730000Y61200000D03*
X78730000Y60000000D03*
X78730000Y58800000D03*
X79930000Y62400000D03*
X79930000Y61200000D03*
X79930000Y60000000D03*
X79930000Y58800000D03*
D23*
X80530000Y60600000D03*
D22*
X81130000Y62400000D03*
X81130000Y61200000D03*
X81130000Y60000000D03*
X81130000Y58800000D03*
X82330000Y62400000D03*
X82330000Y61200000D03*
X82330000Y60000000D03*
X82330000Y58800000D03*
%TD*%
D24*
%TO.P,C10,1*%
%TO.N,/DEC4*%
X78600000Y64820000D03*
%TO.P,C10,2*%
%TO.N,GND*%
X78600000Y66380000D03*
%TD*%
D12*
%TO.P,C3,1*%
%TO.N,Net-(U1-ANT)*%
X84683440Y60390685D03*
%TO.P,C3,2*%
%TO.N,GND*%
X84683440Y61390685D03*
%TD*%
%TO.P,C14,1*%
%TO.N,Net-(U1-P0.26)*%
X82100000Y64600000D03*
%TO.P,C14,2*%
%TO.N,GND*%
X82100000Y65600000D03*
%TD*%
D25*
%TO.P,X2,1,1*%
%TO.N,/P0.01{slash}XL2*%
X75433440Y60890685D03*
%TO.P,X2,2,2*%
%TO.N,/P0.00{slash}XL1*%
X75433440Y63390685D03*
%TD*%
D13*
%TO.P,C17,1*%
%TO.N,VDD_NRF*%
X79433440Y51890685D03*
%TO.P,C17,2*%
%TO.N,GND*%
X78433440Y51890685D03*
%TD*%
D15*
%TO.P,C7,1*%
%TO.N,/DEC3*%
X85600000Y61800000D03*
%TO.P,C7,2*%
%TO.N,GND*%
X86600000Y61800000D03*
%TD*%
D12*
%TO.P,C8,1*%
%TO.N,VDD_NRF*%
X83800000Y64400000D03*
%TO.P,C8,2*%
%TO.N,GND*%
X83800000Y65400000D03*
%TD*%
D24*
%TO.P,C9,1*%
%TO.N,VDD_NRF*%
X77300000Y64520000D03*
%TO.P,C9,2*%
%TO.N,GND*%
X77300000Y66080000D03*
%TD*%
D26*
%TO.P,U3,1,SDO/SA0*%
%TO.N,/SDO*%
X78933440Y54640685D03*
%TO.P,U3,2,SDX*%
%TO.N,GND*%
X78933440Y54140685D03*
%TO.P,U3,3,SCX*%
X78933440Y53640685D03*
%TO.P,U3,4,INT1*%
%TO.N,/INT_LSM6DS3*%
X78933440Y53140685D03*
D27*
%TO.P,U3,5,VDDIO*%
%TO.N,VDD_NRF*%
X79595940Y52978185D03*
%TO.P,U3,6,GND*%
%TO.N,GND*%
X80095940Y52978185D03*
%TO.P,U3,7,GND*%
X80595940Y52978185D03*
D26*
%TO.P,U3,8,VDD*%
%TO.N,VDD_NRF*%
X81258440Y53140685D03*
%TO.P,U3,9,INT2*%
%TO.N,unconnected-(U3-INT2-Pad9)*%
X81258440Y53640685D03*
%TO.P,U3,10,NC*%
%TO.N,unconnected-(U3-NC-Pad10)*%
X81258440Y54140685D03*
%TO.P,U3,11,NC*%
%TO.N,unconnected-(U3-NC-Pad11)*%
X81258440Y54640685D03*
D27*
%TO.P,U3,12,CS*%
%TO.N,/CS_LSM6DS3*%
X80595940Y54803185D03*
%TO.P,U3,13,SCL*%
%TO.N,/SCK*%
X80095940Y54803185D03*
%TO.P,U3,14,SDA*%
%TO.N,/SDI*%
X79595940Y54803185D03*
%TD*%
D28*
%TO.P,S1,1,A*%
%TO.N,/BTN*%
X69250000Y59425000D03*
%TO.P,S1,2,B*%
%TO.N,GND*%
X69250000Y63575000D03*
%TD*%
D29*
%TO.P,U2,1,GND_1*%
%TO.N,GND*%
X83433440Y52690685D03*
%TO.P,U2,2,CSB_N*%
%TO.N,/CS_DPS368*%
X83433440Y53340685D03*
%TO.P,U2,3,SDI*%
%TO.N,/SDI*%
X83433440Y53990685D03*
%TO.P,U2,4,SCK*%
%TO.N,/SCK*%
X83433440Y54640685D03*
%TO.P,U2,5,SDO*%
%TO.N,/SDO*%
X84883440Y54640685D03*
%TO.P,U2,6,VDDIO*%
%TO.N,VDD_NRF*%
X84883440Y53990685D03*
%TO.P,U2,7,GND_2*%
%TO.N,GND*%
X84883440Y53340685D03*
%TO.P,U2,8,VDD*%
%TO.N,VDD_NRF*%
X84883440Y52690685D03*
%TD*%
D12*
%TO.P,C4,1*%
%TO.N,/DEC1*%
X76300000Y64640685D03*
%TO.P,C4,2*%
%TO.N,GND*%
X76300000Y65640685D03*
%TD*%
D30*
%TO.P,D1,1,K*%
%TO.N,Net-(D1-K)*%
X83498440Y69353185D03*
%TO.P,D1,2,A*%
%TO.N,VDD_NRF*%
X83498440Y70928185D03*
%TD*%
%TO.P,D3,1,K*%
%TO.N,Net-(D3-K)*%
X80433440Y69353185D03*
%TO.P,D3,2,A*%
%TO.N,VDD_NRF*%
X80433440Y70928185D03*
%TD*%
D13*
%TO.P,R1,1*%
%TO.N,Net-(D1-K)*%
X84565940Y68240685D03*
%TO.P,R1,2*%
%TO.N,/LED0*%
X83565940Y68240685D03*
%TD*%
D30*
%TO.P,D4,1,K*%
%TO.N,Net-(D4-K)*%
X78900940Y69353185D03*
%TO.P,D4,2,A*%
%TO.N,VDD_NRF*%
X78900940Y70928185D03*
%TD*%
%TO.P,D2,1,K*%
%TO.N,Net-(D2-K)*%
X81965940Y69353185D03*
%TO.P,D2,2,A*%
%TO.N,VDD_NRF*%
X81965940Y70928185D03*
%TD*%
D13*
%TO.P,C16,1*%
%TO.N,VDD_NRF*%
X81433440Y51890685D03*
%TO.P,C16,2*%
%TO.N,GND*%
X80433440Y51890685D03*
%TD*%
D15*
%TO.P,R4,1*%
%TO.N,Net-(D4-K)*%
X78165940Y68240685D03*
%TO.P,R4,2*%
%TO.N,/LED3*%
X79165940Y68240685D03*
%TD*%
D31*
%TO.N,GND*%
X85200000Y59400000D03*
%TO.N,VDD_NRF*%
X83800000Y64400000D03*
X79433440Y51890685D03*
X70250000Y70181574D03*
X86433440Y54390685D03*
X77300000Y64500000D03*
X81433440Y51890685D03*
X78900940Y70928185D03*
X71500000Y60500000D03*
X77433440Y56890685D03*
X73500000Y54000000D03*
X86433440Y52390685D03*
X72705102Y67471805D03*
%TO.N,GND*%
X87500000Y59400000D03*
X83800000Y65400000D03*
X88700000Y68000000D03*
X94433440Y56890685D03*
X90683440Y71140685D03*
X84158440Y53090685D03*
X90683440Y64390685D03*
X89750000Y59400000D03*
X86000000Y59400000D03*
X92183440Y56890685D03*
X78433440Y51890685D03*
X74500000Y73250000D03*
X90683440Y62140685D03*
X97433440Y56890685D03*
X96683440Y56890685D03*
X95183440Y56890685D03*
X89000000Y59400000D03*
X90683440Y63640685D03*
X86000000Y65750000D03*
X80433440Y51890685D03*
X90683440Y66640685D03*
X76000000Y52750000D03*
X86433440Y53390685D03*
X77300000Y66080000D03*
X84990300Y63198000D03*
X89933440Y61600000D03*
X88250000Y59400000D03*
X95933440Y56890685D03*
X82900000Y65600000D03*
X90683440Y72640685D03*
X90683440Y71890685D03*
X87250000Y64250000D03*
X86040300Y64548000D03*
X92933440Y56890685D03*
X78600000Y66300000D03*
X94333072Y53318426D03*
X98183440Y56890685D03*
X90683440Y65890685D03*
X86433440Y55390685D03*
X73794898Y69028195D03*
X69250000Y63575000D03*
X76433440Y56890685D03*
X87000000Y71800000D03*
X88433440Y61600000D03*
X80095940Y53890685D03*
X82100000Y65600000D03*
X88500000Y56500000D03*
X73950000Y61890685D03*
X71250000Y56250000D03*
X90500000Y59400000D03*
X90743215Y57390685D03*
X87683440Y61600000D03*
X90683440Y73390685D03*
X90609315Y58390685D03*
X90683440Y68890685D03*
X91433440Y56890685D03*
X90683440Y69640685D03*
X90683440Y67390685D03*
X76300000Y65640685D03*
X89183440Y61600000D03*
X90683440Y70390685D03*
X86750000Y59400000D03*
X90683440Y65140685D03*
X90683440Y62890685D03*
X93683440Y56890685D03*
X89250000Y50250000D03*
X90683440Y68140685D03*
X75500000Y65640685D03*
X86600000Y61800000D03*
%TO.N,/SWCLK*%
X72500000Y55750000D03*
X84515375Y58227089D03*
%TO.N,/nRESET*%
X84521473Y57477114D03*
X72500000Y55000000D03*
%TO.N,/SWDIO*%
X73250000Y55000000D03*
X84364677Y58961794D03*
%TO.N,/SDO*%
X79405000Y56390685D03*
X84183440Y54640685D03*
%TO.N,/CS_DPS368*%
X83450683Y56908791D03*
X84183440Y53890685D03*
%TO.N,/SDI*%
X80433440Y56415685D03*
X82312208Y55269453D03*
%TO.N,/CS_LSM6DS3*%
X82933440Y56365685D03*
X81535446Y55960002D03*
%TD*%
D32*
%TO.N,VDD_NRF*%
X79595940Y52053185D02*
X79595940Y52978185D01*
X77300000Y64500000D02*
X77380000Y64500000D01*
X79433440Y51890685D02*
X79595940Y52053185D01*
X77380000Y64500000D02*
X78330000Y63550000D01*
X83480000Y62800000D02*
X83480000Y64080000D01*
X85183440Y52390685D02*
X86433440Y52390685D01*
X84883440Y53990685D02*
X86033440Y53990685D01*
X84883440Y52690685D02*
X85183440Y52390685D01*
X86033440Y53990685D02*
X86433440Y54390685D01*
X73500000Y53842437D02*
X72194078Y52536515D01*
X83480000Y64080000D02*
X83800000Y64400000D01*
X81433440Y52965685D02*
X81258440Y53140685D01*
X73500000Y54000000D02*
X73500000Y53842437D01*
X81433440Y51890685D02*
X81433440Y52965685D01*
X78192755Y57650000D02*
X77433440Y56890685D01*
D33*
X78900940Y70928185D02*
X83498440Y70928185D01*
D32*
X78330000Y57650000D02*
X78192755Y57650000D01*
D34*
%TO.N,GND*%
X80730000Y60800000D02*
X80530000Y60600000D01*
X80595940Y52978185D02*
X80595940Y53390685D01*
X80595940Y53390685D02*
X80095940Y53890685D01*
X80595940Y52053185D02*
X80433440Y51890685D01*
X85133440Y53340685D02*
X85183440Y53390685D01*
X80595940Y52978185D02*
X80595940Y52053185D01*
X84117755Y60800000D02*
X84683440Y61365685D01*
X79845940Y54140685D02*
X80095940Y53890685D01*
X79530000Y63550000D02*
X79530000Y65450000D01*
X84883440Y53340685D02*
X85133440Y53340685D01*
X79530000Y65450000D02*
X78600000Y66380000D01*
X71250000Y55184540D02*
X70398026Y54332566D01*
X84158440Y53090685D02*
X84233440Y53090685D01*
X84683440Y61365685D02*
X84683440Y61390685D01*
X85183440Y53390685D02*
X86433440Y53390685D01*
X78933440Y53640685D02*
X79845940Y53640685D01*
X80095940Y52978185D02*
X80095940Y52228185D01*
X80095940Y52978185D02*
X80095940Y53890685D01*
X71250000Y56250000D02*
X71250000Y55184540D01*
X78933440Y54140685D02*
X79845940Y54140685D01*
X80095940Y52228185D02*
X80433440Y51890685D01*
X84233440Y53090685D02*
X84483440Y53340685D01*
X83758440Y52690685D02*
X83433440Y52690685D01*
X84158440Y53090685D02*
X83758440Y52690685D01*
X83480000Y60800000D02*
X80730000Y60800000D01*
X83480000Y60800000D02*
X84117755Y60800000D01*
X79845940Y53640685D02*
X80095940Y53890685D01*
X84483440Y53340685D02*
X84883440Y53340685D01*
%TO.N,/XC2*%
X84990300Y65740300D02*
X85000000Y65750000D01*
X83880000Y62400000D02*
X84383300Y62903300D01*
X84990300Y64548000D02*
X84990300Y65740300D01*
X84383300Y62903300D02*
X84383300Y63941000D01*
X84383300Y63941000D02*
X84990300Y64548000D01*
X83480000Y62400000D02*
X83880000Y62400000D01*
%TO.N,Net-(U1-ANT)*%
X85600000Y60400000D02*
X85700000Y60500000D01*
X83480000Y60400000D02*
X85600000Y60400000D01*
%TO.N,/DEC1*%
X77530000Y62750000D02*
X77580000Y62800000D01*
X76559440Y64381245D02*
X76559440Y63820560D01*
X76300000Y64640685D02*
X76559440Y64381245D01*
X76300000Y64740685D02*
X76300000Y64420685D01*
X76559440Y63820560D02*
X77580000Y62800000D01*
%TO.N,/DEC3*%
X84357958Y61896685D02*
X85503315Y61896685D01*
X83480000Y61600000D02*
X84061273Y61600000D01*
X85503315Y61896685D02*
X85600000Y61800000D01*
X84061273Y61600000D02*
X84357958Y61896685D01*
%TO.N,/DEC4*%
X79130000Y64290000D02*
X79130000Y63550000D01*
X78600000Y64820000D02*
X79130000Y64290000D01*
%TO.N,/P0.00{slash}XL1*%
X76424125Y62400000D02*
X75433440Y63390685D01*
X77580000Y62400000D02*
X76424125Y62400000D01*
X75500000Y64490685D02*
X75500000Y63340685D01*
%TO.N,/P0.01{slash}XL2*%
X76292755Y62000000D02*
X75433440Y61140685D01*
X77580000Y62000000D02*
X76292755Y62000000D01*
X73950000Y60890685D02*
X75433440Y60890685D01*
X75433440Y61140685D02*
X75433440Y60890685D01*
%TO.N,/P0.25*%
X82730000Y63550000D02*
X82730000Y64430000D01*
X82730000Y64430000D02*
X82900000Y64600000D01*
%TO.N,Net-(U1-P0.26)*%
X82330000Y63550000D02*
X82330000Y64370000D01*
X82330000Y64370000D02*
X82100000Y64600000D01*
%TO.N,/SWCLK*%
X84515375Y58230845D02*
X84346220Y58400000D01*
X84515375Y58227089D02*
X84515375Y58230845D01*
X71974000Y55224000D02*
X71974000Y54988878D01*
X71974000Y54988878D02*
X70398026Y53412904D01*
X70398026Y53412904D02*
X70398026Y52536515D01*
X72500000Y55750000D02*
X71974000Y55224000D01*
X84346220Y58400000D02*
X83480000Y58400000D01*
%TO.N,/nRESET*%
X72500000Y55000000D02*
X72500000Y54638489D01*
X84521473Y57477114D02*
X84500120Y57498467D01*
X84350000Y57650000D02*
X82730000Y57650000D01*
X72500000Y54638489D02*
X71296052Y53434541D01*
X84500120Y57498467D02*
X84500120Y57499880D01*
X84500120Y57499880D02*
X84350000Y57650000D01*
%TO.N,/SWDIO*%
X73250000Y55000000D02*
X73250000Y54500000D01*
X84364677Y58961794D02*
X84202883Y58800000D01*
X84202883Y58800000D02*
X83480000Y58800000D01*
X73250000Y54500000D02*
X71296052Y52546052D01*
X71296052Y52546052D02*
X71296052Y51638490D01*
D32*
%TO.N,/RF*%
X92365685Y60500000D02*
X92375000Y60490685D01*
D35*
X86700000Y60500000D02*
X92365685Y60500000D01*
D34*
%TO.N,/SDO*%
X79405000Y56390685D02*
X79530000Y56515685D01*
X79530000Y56515685D02*
X79530000Y57650000D01*
X78933440Y56661732D02*
X79172916Y56901209D01*
X84183440Y54640685D02*
X84883440Y54640685D01*
X78933440Y54640685D02*
X78933440Y56661732D01*
X79530000Y57258292D02*
X79530000Y57650000D01*
X79172916Y56901209D02*
X79530000Y57258292D01*
%TO.N,/CS_DPS368*%
X83432577Y56890685D02*
X82677317Y56890685D01*
X84183440Y53890685D02*
X83633440Y53340685D01*
X83450683Y56908791D02*
X83432577Y56890685D01*
X83633440Y53340685D02*
X83433440Y53340685D01*
X82677317Y56890685D02*
X82330000Y57238002D01*
X82330000Y57238002D02*
X82330000Y57650000D01*
%TO.N,Net-(D1-K)*%
X84565940Y68285685D02*
X83498440Y69353185D01*
X84565940Y68240685D02*
X84565940Y68285685D01*
%TO.N,Net-(D2-K)*%
X82765940Y68240685D02*
X82765940Y68553185D01*
X82765940Y68553185D02*
X81965940Y69353185D01*
%TO.N,/SDI*%
X79595940Y55306625D02*
X79595940Y54803185D01*
X83433440Y53990685D02*
X83333440Y53990685D01*
X82312208Y55011917D02*
X82312208Y55269453D01*
X83333440Y53990685D02*
X82312208Y55011917D01*
X79930000Y56890685D02*
X79930000Y55640685D01*
X79930000Y55640685D02*
X79595940Y55306625D01*
X79930000Y57144125D02*
X79930000Y56890685D01*
X79930000Y57650000D02*
X79930000Y57144125D01*
X80433440Y56415685D02*
X79930000Y56919125D01*
X79930000Y56919125D02*
X79930000Y57650000D01*
%TO.N,Net-(D3-K)*%
X80965940Y68820685D02*
X80433440Y69353185D01*
X80965940Y68240685D02*
X80965940Y68820685D01*
%TO.N,/SCK*%
X81130000Y57194125D02*
X81130000Y57650000D01*
X83433440Y54890685D02*
X81130000Y57194125D01*
X83433440Y54640685D02*
X83433440Y54890685D01*
X80095940Y55259467D02*
X80095940Y54803185D01*
X81130000Y56293527D02*
X80095940Y55259467D01*
X81130000Y57650000D02*
X81130000Y56293527D01*
%TO.N,Net-(D4-K)*%
X78165940Y68618185D02*
X78900940Y69353185D01*
X78165940Y68240685D02*
X78165940Y68618185D01*
%TO.N,/LED0*%
X81530000Y66737245D02*
X82497440Y67704685D01*
X83565940Y67930686D02*
X83565940Y68240685D01*
X81530000Y63550000D02*
X81530000Y66737245D01*
X82497440Y67704685D02*
X83339939Y67704685D01*
X83339939Y67704685D02*
X83565940Y67930686D01*
%TO.N,/LED1*%
X81765940Y67473185D02*
X81765940Y68240685D01*
X81130000Y63550000D02*
X81130000Y66837245D01*
X81130000Y66837245D02*
X81765940Y67473185D01*
%TO.N,/LED2*%
X80730000Y67476625D02*
X80730000Y63550000D01*
X79965940Y68240685D02*
X80730000Y67476625D01*
%TO.N,/LED3*%
X80330000Y66994125D02*
X80330000Y63550000D01*
X79165940Y68240685D02*
X79165940Y68158185D01*
X79165940Y68158185D02*
X80330000Y66994125D01*
%TO.N,/BTN*%
X72600000Y58400000D02*
X71500000Y59500000D01*
X77580000Y58400000D02*
X72600000Y58400000D01*
X69325000Y59500000D02*
X69250000Y59425000D01*
X71500000Y59500000D02*
X69325000Y59500000D01*
%TO.N,/CS_LSM6DS3*%
X81930000Y57212324D02*
X81930000Y57650000D01*
X82933440Y56365685D02*
X82776639Y56365685D01*
X82776639Y56365685D02*
X81930000Y57212324D01*
X80595940Y54803185D02*
X80595940Y55020496D01*
X80595940Y55020496D02*
X81535446Y55960002D01*
%TO.N,/INT_LSM6DS3*%
X78675158Y53140685D02*
X78933440Y53140685D01*
X78394940Y53420903D02*
X78675158Y53140685D01*
X78730000Y57650000D02*
X78730000Y57230794D01*
X78394940Y56895734D02*
X78394940Y53420903D01*
X78730000Y57230794D02*
X78394940Y56895734D01*
%TO.N,/XC1*%
X85597300Y62552900D02*
X86040300Y62995900D01*
X84588495Y62552900D02*
X85597300Y62552900D01*
X86040300Y63198000D02*
X87198000Y63198000D01*
X86040300Y62995900D02*
X86040300Y63198000D01*
X83480000Y62000000D02*
X84035595Y62000000D01*
X84035595Y62000000D02*
X84588495Y62552900D01*
X87198000Y63198000D02*
X87250000Y63250000D01*
%TD*%
%TA.AperFunction,Conductor*%
%TO.N,GND*%
G36*
X98692539Y56980315D02*
G01*
X98738294Y56927511D01*
X98749500Y56876000D01*
X98749500Y49565889D01*
X98749499Y49565885D01*
X98749499Y49536564D01*
X98749499Y49506953D01*
X98749499Y49506951D01*
X98748719Y49493069D01*
X98738542Y49402735D01*
X98732364Y49375663D01*
X98704652Y49296465D01*
X98692603Y49271447D01*
X98647962Y49200402D01*
X98630649Y49178691D01*
X98571322Y49119366D01*
X98549612Y49102054D01*
X98478568Y49057416D01*
X98453548Y49045368D01*
X98374351Y49017659D01*
X98347280Y49011481D01*
X98256716Y49001280D01*
X98242839Y49000501D01*
X98231706Y49000501D01*
X98184128Y49000503D01*
X98184117Y49000501D01*
X98175846Y49000500D01*
X98175845Y49000501D01*
X98175844Y49000500D01*
X91000000Y49000500D01*
X91000000Y57000000D01*
X98625500Y57000000D01*
X98692539Y56980315D01*
G37*
%TD.AperFunction*%
%TD*%
%TA.AperFunction,Conductor*%
%TO.N,GND*%
G36*
X90943039Y73979815D02*
G01*
X90988794Y73927011D01*
X91000000Y73875500D01*
X91000000Y61324000D01*
X90980315Y61256961D01*
X90927511Y61211206D01*
X90876000Y61200000D01*
X87164032Y61200000D01*
X87096993Y61219685D01*
X87051238Y61272489D01*
X87041294Y61341647D01*
X87059402Y61386267D01*
X87058295Y61386831D01*
X87119388Y61506735D01*
X87134000Y61598988D01*
X87134000Y61673000D01*
X86724000Y61673000D01*
X86715314Y61675551D01*
X86706353Y61674262D01*
X86682312Y61685241D01*
X86656961Y61692685D01*
X86651033Y61699526D01*
X86642797Y61703287D01*
X86628507Y61725522D01*
X86611206Y61745489D01*
X86608918Y61756004D01*
X86605023Y61762065D01*
X86600000Y61797000D01*
X86600000Y61800000D01*
X86597000Y61800000D01*
X86529961Y61819685D01*
X86484206Y61872489D01*
X86473000Y61924000D01*
X86473000Y61927000D01*
X86727000Y61927000D01*
X87133999Y61927000D01*
X87133999Y62001006D01*
X87119386Y62093272D01*
X87062724Y62204475D01*
X87062721Y62204480D01*
X86974479Y62292722D01*
X86974475Y62292725D01*
X86863265Y62349389D01*
X86771012Y62364000D01*
X86727000Y62364000D01*
X86727000Y61927000D01*
X86473000Y61927000D01*
X86473000Y62364000D01*
X86428995Y62364000D01*
X86336728Y62349387D01*
X86225525Y62292725D01*
X86225520Y62292722D01*
X86137278Y62204480D01*
X86131541Y62196582D01*
X86129047Y62198394D01*
X86092195Y62159386D01*
X86024371Y62142603D01*
X85961919Y62162655D01*
X85951132Y62169697D01*
X85907016Y62213813D01*
X85834520Y62245823D01*
X85826060Y62251346D01*
X85809666Y62270541D01*
X85790381Y62286831D01*
X85787360Y62296659D01*
X85780684Y62304476D01*
X85777270Y62329488D01*
X85769854Y62353618D01*
X85772626Y62363519D01*
X85771236Y62373704D01*
X85781886Y62396592D01*
X85788693Y62420900D01*
X85799549Y62434548D01*
X85800714Y62437050D01*
X85802377Y62438103D01*
X85806154Y62442851D01*
X85955387Y62592083D01*
X86016710Y62625566D01*
X86043067Y62628400D01*
X86436122Y62628400D01*
X86480017Y62637132D01*
X86480017Y62637133D01*
X86480022Y62637133D01*
X86529804Y62670396D01*
X86563067Y62720178D01*
X86568900Y62749500D01*
X86571800Y62764078D01*
X86571800Y62848500D01*
X86574350Y62857186D01*
X86573062Y62866147D01*
X86584040Y62890188D01*
X86591485Y62915539D01*
X86598325Y62921467D01*
X86602087Y62929703D01*
X86624321Y62943993D01*
X86644289Y62961294D01*
X86654803Y62963582D01*
X86660865Y62967477D01*
X86695800Y62972500D01*
X86755308Y62972500D01*
X86822347Y62952815D01*
X86842989Y62936182D01*
X86912984Y62866187D01*
X87012338Y62822318D01*
X87036627Y62819500D01*
X87463372Y62819501D01*
X87487662Y62822318D01*
X87587016Y62866187D01*
X87663813Y62942984D01*
X87707682Y63042338D01*
X87710500Y63066627D01*
X87710499Y63433372D01*
X87707682Y63457662D01*
X87663813Y63557016D01*
X87628806Y63592023D01*
X87595321Y63653346D01*
X87600305Y63723038D01*
X87642177Y63778971D01*
X87648240Y63782746D01*
X87654479Y63787279D01*
X87742721Y63875521D01*
X87742724Y63875525D01*
X87799388Y63986735D01*
X87814000Y64078988D01*
X87814000Y64123000D01*
X87374000Y64123000D01*
X87365314Y64125551D01*
X87356353Y64124262D01*
X87332312Y64135241D01*
X87306961Y64142685D01*
X87301033Y64149526D01*
X87292797Y64153287D01*
X87278507Y64175522D01*
X87261206Y64195489D01*
X87258918Y64206004D01*
X87255023Y64212065D01*
X87250000Y64247000D01*
X87250000Y64250000D01*
X87247000Y64250000D01*
X87179961Y64269685D01*
X87134206Y64322489D01*
X87123000Y64374000D01*
X87123000Y64377000D01*
X87377000Y64377000D01*
X87813999Y64377000D01*
X87813999Y64421006D01*
X87799386Y64513272D01*
X87742724Y64624475D01*
X87742721Y64624480D01*
X87654479Y64712722D01*
X87654475Y64712725D01*
X87543265Y64769389D01*
X87451012Y64784000D01*
X87377000Y64784000D01*
X87377000Y64377000D01*
X87123000Y64377000D01*
X87123000Y64784000D01*
X87122999Y64784001D01*
X87048995Y64784000D01*
X86956728Y64769387D01*
X86855594Y64717856D01*
X86786924Y64704960D01*
X86722184Y64731236D01*
X86681927Y64788343D01*
X86675299Y64828341D01*
X86675299Y64992115D01*
X86660562Y65066207D01*
X86660561Y65066210D01*
X86604423Y65150224D01*
X86516096Y65209243D01*
X86471291Y65262855D01*
X86462584Y65332180D01*
X86474502Y65368640D01*
X86519388Y65456735D01*
X86534000Y65548988D01*
X86534000Y65623000D01*
X86127000Y65623000D01*
X86127000Y65351100D01*
X86130981Y65347119D01*
X86164466Y65285796D01*
X86167300Y65259438D01*
X86167300Y64672000D01*
X86164749Y64663315D01*
X86166038Y64654353D01*
X86155059Y64630313D01*
X86147615Y64604961D01*
X86140774Y64599034D01*
X86137013Y64590797D01*
X86114778Y64576508D01*
X86094811Y64559206D01*
X86084296Y64556919D01*
X86078235Y64553023D01*
X86043300Y64548000D01*
X86037300Y64548000D01*
X85970261Y64567685D01*
X85924506Y64620489D01*
X85913300Y64672000D01*
X85913300Y65056000D01*
X85909319Y65059981D01*
X85875834Y65121304D01*
X85873000Y65147662D01*
X85873000Y65877000D01*
X86127000Y65877000D01*
X86533999Y65877000D01*
X86533999Y65951006D01*
X86519386Y66043272D01*
X86462724Y66154475D01*
X86462721Y66154480D01*
X86374479Y66242722D01*
X86374475Y66242725D01*
X86263265Y66299389D01*
X86171012Y66314000D01*
X86127000Y66314000D01*
X86127000Y65877000D01*
X85873000Y65877000D01*
X85873000Y66314000D01*
X85828995Y66314000D01*
X85736728Y66299387D01*
X85625525Y66242725D01*
X85625520Y66242722D01*
X85537278Y66154480D01*
X85531541Y66146582D01*
X85529047Y66148394D01*
X85492195Y66109386D01*
X85424371Y66092603D01*
X85358240Y66115152D01*
X85342022Y66128807D01*
X85307016Y66163813D01*
X85207663Y66207682D01*
X85183373Y66210500D01*
X84816634Y66210500D01*
X84816611Y66210498D01*
X84792340Y66207683D01*
X84792337Y66207682D01*
X84692984Y66163814D01*
X84616187Y66087017D01*
X84572318Y65987665D01*
X84572318Y65987663D01*
X84569500Y65963375D01*
X84569500Y65747771D01*
X84549815Y65680732D01*
X84497011Y65634977D01*
X84427853Y65625033D01*
X84364297Y65654058D01*
X84335015Y65691476D01*
X84292724Y65774475D01*
X84292721Y65774480D01*
X84204479Y65862722D01*
X84204475Y65862725D01*
X84093265Y65919389D01*
X84001012Y65934000D01*
X83927000Y65934000D01*
X83927000Y65527000D01*
X84363998Y65527000D01*
X84376019Y65539021D01*
X84437342Y65572507D01*
X84507033Y65567523D01*
X84562967Y65525652D01*
X84577135Y65501428D01*
X84616187Y65412984D01*
X84699890Y65329281D01*
X84733375Y65267958D01*
X84728391Y65198266D01*
X84686519Y65142333D01*
X84637349Y65120175D01*
X84624912Y65117600D01*
X84594480Y65117600D01*
X84550578Y65108867D01*
X84536141Y65099221D01*
X84512481Y65094322D01*
X84500762Y65095279D01*
X84489545Y65091767D01*
X84466580Y65098069D01*
X84442843Y65100006D01*
X84433503Y65107145D01*
X84422166Y65110256D01*
X84406252Y65127976D01*
X84387333Y65142437D01*
X84383335Y65153493D01*
X84375480Y65162239D01*
X84370513Y65188952D01*
X84363574Y65208143D01*
X84365431Y65216287D01*
X84363723Y65225475D01*
X84364000Y65228995D01*
X84364000Y65273000D01*
X83924000Y65273000D01*
X83915314Y65275551D01*
X83906353Y65274262D01*
X83882312Y65285241D01*
X83856961Y65292685D01*
X83851033Y65299526D01*
X83842797Y65303287D01*
X83828507Y65325522D01*
X83811206Y65345489D01*
X83808918Y65356004D01*
X83805023Y65362065D01*
X83800000Y65397000D01*
X83800000Y65400000D01*
X83797000Y65400000D01*
X83729961Y65419685D01*
X83684206Y65472489D01*
X83673000Y65524000D01*
X83673000Y65934000D01*
X83672999Y65934001D01*
X83598993Y65934000D01*
X83515434Y65920766D01*
X83446140Y65929722D01*
X83395725Y65970347D01*
X83392728Y65974471D01*
X83304475Y66062725D01*
X83193265Y66119389D01*
X83101012Y66134000D01*
X83027000Y66134000D01*
X83027000Y65724000D01*
X83024449Y65715315D01*
X83025738Y65706353D01*
X83014759Y65682313D01*
X83007315Y65656961D01*
X83000474Y65651034D01*
X82996713Y65642797D01*
X82974478Y65628508D01*
X82954511Y65611206D01*
X82943996Y65608919D01*
X82937935Y65605023D01*
X82903000Y65600000D01*
X82900000Y65600000D01*
X82900000Y65597000D01*
X82880315Y65529961D01*
X82827511Y65484206D01*
X82776000Y65473000D01*
X82224000Y65473000D01*
X82215314Y65475551D01*
X82206353Y65474262D01*
X82182312Y65485241D01*
X82156961Y65492685D01*
X82151033Y65499526D01*
X82142797Y65503287D01*
X82128507Y65525522D01*
X82111206Y65545489D01*
X82108918Y65556004D01*
X82105023Y65562065D01*
X82100000Y65597000D01*
X82100000Y65600000D01*
X82097000Y65600000D01*
X82029961Y65619685D01*
X81984206Y65672489D01*
X81973000Y65724000D01*
X81973000Y66134000D01*
X82227000Y66134000D01*
X82227000Y65727000D01*
X82773000Y65727000D01*
X82773000Y66134000D01*
X82772999Y66134001D01*
X82698995Y66134000D01*
X82606727Y66119387D01*
X82606725Y66119386D01*
X82556293Y66093689D01*
X82487624Y66080793D01*
X82443705Y66093689D01*
X82393267Y66119389D01*
X82301012Y66134000D01*
X82227000Y66134000D01*
X81973000Y66134000D01*
X81972999Y66134001D01*
X81898989Y66134000D01*
X81898983Y66133999D01*
X81898885Y66133983D01*
X81898847Y66133988D01*
X81894133Y66133617D01*
X81894055Y66134608D01*
X81829593Y66142945D01*
X81776146Y66187946D01*
X81755512Y66254700D01*
X81755500Y66256458D01*
X81755500Y66592478D01*
X81775185Y66659517D01*
X81791819Y66680159D01*
X82554526Y67442866D01*
X82615849Y67476351D01*
X82642207Y67479185D01*
X83295082Y67479185D01*
X83295084Y67479184D01*
X83384794Y67479184D01*
X83443399Y67503460D01*
X83467675Y67513515D01*
X83531109Y67576949D01*
X83531109Y67576950D01*
X83548542Y67594383D01*
X83548546Y67594389D01*
X83676233Y67722076D01*
X83676237Y67722078D01*
X83693674Y67739516D01*
X83693676Y67739516D01*
X83701860Y67747702D01*
X83763179Y67781186D01*
X83772817Y67782790D01*
X83773595Y67783003D01*
X83773602Y67783003D01*
X83872956Y67826872D01*
X83949753Y67903669D01*
X83952507Y67909907D01*
X83997591Y67963280D01*
X84064377Y67983808D01*
X84131659Y67964970D01*
X84178076Y67912747D01*
X84179344Y67909971D01*
X84182127Y67903669D01*
X84258924Y67826872D01*
X84358278Y67783003D01*
X84382567Y67780185D01*
X84749312Y67780186D01*
X84773602Y67783003D01*
X84872956Y67826872D01*
X84949753Y67903669D01*
X84993622Y68003023D01*
X84996440Y68027312D01*
X84996439Y68454057D01*
X84993622Y68478347D01*
X84949753Y68577701D01*
X84872956Y68654498D01*
X84848816Y68665157D01*
X84773603Y68698367D01*
X84749314Y68701185D01*
X84749313Y68701185D01*
X84520707Y68701185D01*
X84453668Y68720870D01*
X84433026Y68737504D01*
X84160258Y69010272D01*
X84126773Y69071595D01*
X84123939Y69097953D01*
X84123939Y69099384D01*
X84123940Y69099390D01*
X84123939Y69606979D01*
X84113483Y69678752D01*
X84059359Y69789465D01*
X84059357Y69789467D01*
X84059357Y69789468D01*
X83972222Y69876603D01*
X83914214Y69904961D01*
X83861507Y69930728D01*
X83789735Y69941185D01*
X83789729Y69941185D01*
X83207146Y69941185D01*
X83135372Y69930728D01*
X83024657Y69876603D01*
X82937522Y69789468D01*
X82890734Y69693760D01*
X82883397Y69678752D01*
X82872940Y69606980D01*
X82872940Y69606976D01*
X82872940Y69606975D01*
X82872940Y69099388D01*
X82876071Y69077900D01*
X82866255Y69008723D01*
X82820598Y68955835D01*
X82753595Y68936026D01*
X82686520Y68955587D01*
X82665685Y68972345D01*
X82627758Y69010272D01*
X82594273Y69071595D01*
X82591439Y69097953D01*
X82591439Y69099384D01*
X82591440Y69099390D01*
X82591439Y69606979D01*
X82580983Y69678752D01*
X82526859Y69789465D01*
X82526857Y69789467D01*
X82526857Y69789468D01*
X82439722Y69876603D01*
X82381714Y69904961D01*
X82329007Y69930728D01*
X82257235Y69941185D01*
X82257229Y69941185D01*
X81674646Y69941185D01*
X81602872Y69930728D01*
X81492157Y69876603D01*
X81405022Y69789468D01*
X81358234Y69693760D01*
X81350897Y69678752D01*
X81340440Y69606980D01*
X81340440Y69606976D01*
X81340440Y69606975D01*
X81340440Y69099389D01*
X81343571Y69077902D01*
X81333756Y69008725D01*
X81288099Y68955836D01*
X81221096Y68936027D01*
X81154020Y68955587D01*
X81133185Y68972346D01*
X81095258Y69010273D01*
X81061773Y69071596D01*
X81058939Y69097954D01*
X81058939Y69099384D01*
X81058940Y69099390D01*
X81058939Y69606979D01*
X81048483Y69678752D01*
X80994359Y69789465D01*
X80994357Y69789467D01*
X80994357Y69789468D01*
X80907222Y69876603D01*
X80849214Y69904961D01*
X80796507Y69930728D01*
X80724735Y69941185D01*
X80724729Y69941185D01*
X80142146Y69941185D01*
X80070372Y69930728D01*
X79959657Y69876603D01*
X79872522Y69789468D01*
X79825734Y69693760D01*
X79818397Y69678752D01*
X79807940Y69606980D01*
X79807940Y69606976D01*
X79807940Y69606975D01*
X79807940Y69099392D01*
X79818397Y69027618D01*
X79872522Y68916903D01*
X79876559Y68912866D01*
X79910044Y68851543D01*
X79905060Y68781851D01*
X79863188Y68725918D01*
X79834544Y68709900D01*
X79812540Y68701185D01*
X79782568Y68701184D01*
X79758278Y68698367D01*
X79658924Y68654498D01*
X79635469Y68631044D01*
X79611606Y68621591D01*
X79601342Y68620649D01*
X79592298Y68615710D01*
X79567144Y68617509D01*
X79542029Y68615203D01*
X79532886Y68619959D01*
X79522606Y68620694D01*
X79484956Y68644891D01*
X79480044Y68647446D01*
X79479498Y68648399D01*
X79478259Y68649195D01*
X79472955Y68654499D01*
X79448817Y68665157D01*
X79395442Y68710244D01*
X79374916Y68777030D01*
X79393756Y68844312D01*
X79411226Y68866272D01*
X79461857Y68916903D01*
X79461859Y68916905D01*
X79515983Y69027618D01*
X79526440Y69099390D01*
X79526439Y69606979D01*
X79515983Y69678752D01*
X79461859Y69789465D01*
X79461857Y69789467D01*
X79461857Y69789468D01*
X79374722Y69876603D01*
X79316714Y69904961D01*
X79264007Y69930728D01*
X79192235Y69941185D01*
X79192229Y69941185D01*
X78609646Y69941185D01*
X78537872Y69930728D01*
X78427157Y69876603D01*
X78340022Y69789468D01*
X78293234Y69693760D01*
X78285897Y69678752D01*
X78275440Y69606980D01*
X78275440Y69606976D01*
X78275440Y69606975D01*
X78275440Y69097954D01*
X78255755Y69030915D01*
X78239121Y69010273D01*
X78041580Y68812732D01*
X78041574Y68812726D01*
X78038205Y68809356D01*
X78038204Y68809355D01*
X77974770Y68745921D01*
X77965816Y68724309D01*
X77952972Y68709317D01*
X77939562Y68700594D01*
X77929525Y68688139D01*
X77908897Y68676564D01*
X77858928Y68654501D01*
X77858921Y68654496D01*
X77782127Y68577702D01*
X77738258Y68478350D01*
X77738258Y68478348D01*
X77735440Y68454060D01*
X77735440Y68027320D01*
X77735442Y68027297D01*
X77738257Y68003026D01*
X77738258Y68003023D01*
X77782126Y67903670D01*
X77782127Y67903669D01*
X77858924Y67826872D01*
X77958278Y67783003D01*
X77982567Y67780185D01*
X78349312Y67780186D01*
X78373602Y67783003D01*
X78472956Y67826872D01*
X78549753Y67903669D01*
X78552507Y67909907D01*
X78597591Y67963280D01*
X78664377Y67983808D01*
X78731659Y67964970D01*
X78778076Y67912747D01*
X78779344Y67909971D01*
X78782127Y67903669D01*
X78858924Y67826872D01*
X78958278Y67783003D01*
X78982567Y67780185D01*
X79173671Y67780186D01*
X79240711Y67760502D01*
X79261353Y67743867D01*
X80068181Y66937039D01*
X80101666Y66875716D01*
X80104500Y66849358D01*
X80104500Y64224500D01*
X80101949Y64215815D01*
X80103238Y64206853D01*
X80092259Y64182813D01*
X80084815Y64157461D01*
X80077974Y64151534D01*
X80074213Y64143297D01*
X80051978Y64129008D01*
X80032011Y64111706D01*
X80021496Y64109419D01*
X80015435Y64105523D01*
X79980500Y64100500D01*
X79860783Y64100500D01*
X79793744Y64120185D01*
X79773102Y64136819D01*
X79754777Y64155144D01*
X79650808Y64201051D01*
X79625390Y64204000D01*
X79479500Y64204000D01*
X79412461Y64223685D01*
X79366706Y64276489D01*
X79355500Y64328000D01*
X79355500Y64334854D01*
X79355498Y64334859D01*
X79321172Y64417734D01*
X79261819Y64477087D01*
X79228334Y64538410D01*
X79225500Y64564768D01*
X79225500Y65080631D01*
X79225500Y65080636D01*
X79214866Y65153625D01*
X79204269Y65175302D01*
X79159827Y65266211D01*
X79071210Y65354828D01*
X78958628Y65409865D01*
X78958626Y65409866D01*
X78958625Y65409866D01*
X78885636Y65420500D01*
X78314364Y65420500D01*
X78241375Y65409866D01*
X78241373Y65409866D01*
X78241371Y65409865D01*
X78128789Y65354828D01*
X78040172Y65266211D01*
X77985134Y65153628D01*
X77985133Y65153626D01*
X77980996Y65125228D01*
X77951851Y65061728D01*
X77893001Y65024065D01*
X77823132Y65024197D01*
X77780197Y65049727D01*
X77779575Y65048855D01*
X77771210Y65054828D01*
X77658628Y65109865D01*
X77658626Y65109866D01*
X77658625Y65109866D01*
X77585636Y65120500D01*
X77014364Y65120500D01*
X76959373Y65112489D01*
X76931928Y65108490D01*
X76920218Y65110152D01*
X76908741Y65107309D01*
X76886262Y65114970D01*
X76862751Y65118305D01*
X76853800Y65126032D01*
X76842606Y65129846D01*
X76827836Y65148445D01*
X76809862Y65163961D01*
X76806509Y65175302D01*
X76799155Y65184562D01*
X76796785Y65208190D01*
X76790052Y65230964D01*
X76793186Y65244075D01*
X76792183Y65254083D01*
X76803567Y65287490D01*
X76817953Y65315724D01*
X76865928Y65366520D01*
X76933749Y65383315D01*
X76941695Y65382718D01*
X77004166Y65376001D01*
X77004180Y65376000D01*
X77173000Y65376000D01*
X77173000Y66784000D01*
X77427000Y66784000D01*
X77427000Y65376000D01*
X77595820Y65376000D01*
X77595836Y65376001D01*
X77652867Y65382134D01*
X77652872Y65382135D01*
X77781921Y65430268D01*
X77781924Y65430270D01*
X77892185Y65512812D01*
X77892188Y65512815D01*
X77974729Y65623076D01*
X77984001Y65647932D01*
X78025872Y65703866D01*
X78091336Y65728283D01*
X78143518Y65720780D01*
X78247131Y65682134D01*
X78304163Y65676001D01*
X78304180Y65676000D01*
X78473000Y65676000D01*
X78727000Y65676000D01*
X78895820Y65676000D01*
X78895836Y65676001D01*
X78952867Y65682134D01*
X78952872Y65682135D01*
X79081921Y65730268D01*
X79081924Y65730270D01*
X79192185Y65812812D01*
X79192188Y65812815D01*
X79274730Y65923076D01*
X79274732Y65923079D01*
X79322865Y66052128D01*
X79322866Y66052133D01*
X79328999Y66109164D01*
X79329000Y66109181D01*
X79329000Y66253000D01*
X78727000Y66253000D01*
X78727000Y65676000D01*
X78473000Y65676000D01*
X78473000Y66507000D01*
X78727000Y66507000D01*
X79329000Y66507000D01*
X79329000Y66650820D01*
X79328999Y66650837D01*
X79322866Y66707868D01*
X79322865Y66707873D01*
X79274732Y66836922D01*
X79274730Y66836925D01*
X79192188Y66947186D01*
X79192185Y66947189D01*
X79081924Y67029731D01*
X79081921Y67029733D01*
X78952872Y67077866D01*
X78952867Y67077867D01*
X78895836Y67084000D01*
X78727000Y67084000D01*
X78727000Y66507000D01*
X78473000Y66507000D01*
X78473000Y67084000D01*
X78304163Y67084000D01*
X78247132Y67077867D01*
X78247127Y67077866D01*
X78118078Y67029733D01*
X78118075Y67029731D01*
X78007814Y66947189D01*
X78007811Y66947186D01*
X77925269Y66836925D01*
X77925267Y66836921D01*
X77915996Y66812065D01*
X77874123Y66756132D01*
X77808658Y66731718D01*
X77756482Y66739220D01*
X77652866Y66777868D01*
X77595836Y66784000D01*
X77427000Y66784000D01*
X77173000Y66784000D01*
X77004163Y66784000D01*
X76947132Y66777867D01*
X76947127Y66777866D01*
X76818078Y66729733D01*
X76818075Y66729731D01*
X76707814Y66647189D01*
X76707811Y66647186D01*
X76625269Y66536925D01*
X76625267Y66536922D01*
X76577134Y66407873D01*
X76577133Y66407868D01*
X76571000Y66350837D01*
X76571000Y66298685D01*
X76551315Y66231646D01*
X76498511Y66185891D01*
X76447000Y66174685D01*
X76427000Y66174685D01*
X76427000Y65764685D01*
X76424449Y65756000D01*
X76425738Y65747038D01*
X76414759Y65722998D01*
X76407315Y65697646D01*
X76400474Y65691719D01*
X76396713Y65683482D01*
X76374478Y65669193D01*
X76354511Y65651891D01*
X76343996Y65649604D01*
X76337935Y65645708D01*
X76303000Y65640685D01*
X76300000Y65640685D01*
X76300000Y65637685D01*
X76280315Y65570646D01*
X76227511Y65524891D01*
X76176000Y65513685D01*
X74936001Y65513685D01*
X74936001Y65469680D01*
X74950613Y65377414D01*
X75007275Y65266211D01*
X75007278Y65266206D01*
X75095520Y65177964D01*
X75103418Y65172226D01*
X75101604Y65169730D01*
X75140597Y65132909D01*
X75157399Y65065090D01*
X75134867Y64998953D01*
X75121194Y64982709D01*
X75086187Y64947703D01*
X75086187Y64947702D01*
X75042318Y64848350D01*
X75042318Y64848348D01*
X75039500Y64824060D01*
X75039500Y64457320D01*
X75039502Y64457297D01*
X75042317Y64433026D01*
X75042318Y64433023D01*
X75086186Y64333670D01*
X75166990Y64252866D01*
X75200475Y64191543D01*
X75195491Y64121851D01*
X75153619Y64065918D01*
X75088155Y64041501D01*
X75079309Y64041185D01*
X74751922Y64041185D01*
X74675134Y64029023D01*
X74658136Y64026331D01*
X74545098Y63968735D01*
X74545097Y63968734D01*
X74545092Y63968731D01*
X74455394Y63879033D01*
X74455391Y63879028D01*
X74455390Y63879027D01*
X74441555Y63851874D01*
X74397792Y63765987D01*
X74382940Y63672210D01*
X74382940Y63109168D01*
X74391645Y63054209D01*
X74397794Y63015381D01*
X74455390Y62902343D01*
X74455392Y62902341D01*
X74455394Y62902338D01*
X74545092Y62812640D01*
X74545094Y62812639D01*
X74545098Y62812635D01*
X74658136Y62755039D01*
X74658138Y62755038D01*
X74751915Y62740186D01*
X74751921Y62740185D01*
X75713672Y62740186D01*
X75780711Y62720502D01*
X75801353Y62703867D01*
X76151853Y62353367D01*
X76156191Y62345422D01*
X76163438Y62339997D01*
X76172673Y62315238D01*
X76185338Y62292044D01*
X76184692Y62283015D01*
X76187856Y62274533D01*
X76182239Y62248711D01*
X76180354Y62222352D01*
X76174536Y62213300D01*
X76173005Y62206260D01*
X76151854Y62178006D01*
X76101586Y62127737D01*
X76101584Y62127735D01*
X75551352Y61577504D01*
X75490029Y61544019D01*
X75463671Y61541185D01*
X74751922Y61541185D01*
X74682894Y61530252D01*
X74658136Y61526331D01*
X74658135Y61526331D01*
X74648497Y61524804D01*
X74647918Y61528459D01*
X74596405Y61527028D01*
X74536601Y61563155D01*
X74505822Y61625881D01*
X74505550Y61666329D01*
X74514000Y61719676D01*
X74514000Y61763685D01*
X73386001Y61763685D01*
X73386001Y61719680D01*
X73400613Y61627414D01*
X73457275Y61516211D01*
X73457278Y61516206D01*
X73545520Y61427964D01*
X73553418Y61422226D01*
X73551604Y61419730D01*
X73590597Y61382909D01*
X73607399Y61315090D01*
X73584867Y61248953D01*
X73571194Y61232709D01*
X73536187Y61197703D01*
X73536187Y61197702D01*
X73492318Y61098350D01*
X73492318Y61098348D01*
X73489500Y61074060D01*
X73489500Y60707320D01*
X73489502Y60707297D01*
X73492317Y60683026D01*
X73492318Y60683023D01*
X73536186Y60583670D01*
X73536187Y60583669D01*
X73612984Y60506872D01*
X73712338Y60463003D01*
X73736627Y60460185D01*
X74163372Y60460186D01*
X74168538Y60460786D01*
X74187658Y60463002D01*
X74187659Y60463003D01*
X74187662Y60463003D01*
X74273678Y60500983D01*
X74342951Y60510054D01*
X74406136Y60480231D01*
X74434244Y60443843D01*
X74455387Y60402347D01*
X74455394Y60402338D01*
X74545092Y60312640D01*
X74545094Y60312639D01*
X74545098Y60312635D01*
X74647444Y60260487D01*
X74658138Y60255038D01*
X74751915Y60240186D01*
X74751921Y60240185D01*
X76114958Y60240186D01*
X76208744Y60255039D01*
X76321782Y60312635D01*
X76411490Y60402343D01*
X76469086Y60515381D01*
X76469086Y60515383D01*
X76469087Y60515384D01*
X76483939Y60609161D01*
X76483940Y60609166D01*
X76483939Y61172203D01*
X76469086Y61265989D01*
X76411490Y61379027D01*
X76411486Y61379031D01*
X76411485Y61379033D01*
X76321787Y61468731D01*
X76321783Y61468734D01*
X76321782Y61468735D01*
X76321779Y61468737D01*
X76321777Y61468738D01*
X76313939Y61472732D01*
X76293491Y61492045D01*
X76270968Y61508905D01*
X76268427Y61515717D01*
X76263144Y61520707D01*
X76256382Y61548012D01*
X76246552Y61574370D01*
X76248097Y61581473D01*
X76246350Y61588528D01*
X76255423Y61615153D01*
X76261404Y61642643D01*
X76267624Y61650953D01*
X76268889Y61654663D01*
X76282546Y61670888D01*
X76349842Y61738184D01*
X76411165Y61771666D01*
X76437522Y61774500D01*
X76905500Y61774500D01*
X76972539Y61754815D01*
X77018294Y61702011D01*
X77029500Y61650500D01*
X77029500Y61530248D01*
X77041131Y61471771D01*
X77041132Y61471769D01*
X77043058Y61468887D01*
X77045322Y61461656D01*
X77045806Y61460487D01*
X77045701Y61460444D01*
X77063933Y61402209D01*
X77045446Y61334829D01*
X77043058Y61331113D01*
X77041132Y61328232D01*
X77041131Y61328230D01*
X77029500Y61269753D01*
X77029500Y61130248D01*
X77041131Y61071771D01*
X77041132Y61071769D01*
X77043058Y61068887D01*
X77045322Y61061656D01*
X77045806Y61060487D01*
X77045701Y61060444D01*
X77063933Y61002209D01*
X77045446Y60934829D01*
X77043058Y60931113D01*
X77041132Y60928232D01*
X77041131Y60928230D01*
X77029500Y60869753D01*
X77029500Y60730248D01*
X77041131Y60671771D01*
X77041132Y60671769D01*
X77043058Y60668887D01*
X77045322Y60661656D01*
X77045806Y60660487D01*
X77045701Y60660444D01*
X77063933Y60602209D01*
X77045446Y60534829D01*
X77043058Y60531113D01*
X77041132Y60528232D01*
X77041131Y60528230D01*
X77029500Y60469753D01*
X77029500Y60330248D01*
X77041131Y60271771D01*
X77041132Y60271769D01*
X77043058Y60268887D01*
X77045322Y60261656D01*
X77045806Y60260487D01*
X77045701Y60260444D01*
X77063933Y60202209D01*
X77045446Y60134829D01*
X77043058Y60131113D01*
X77041132Y60128232D01*
X77041131Y60128230D01*
X77029500Y60069753D01*
X77029500Y59930248D01*
X77041131Y59871771D01*
X77041132Y59871769D01*
X77043058Y59868887D01*
X77045322Y59861656D01*
X77045806Y59860487D01*
X77045701Y59860444D01*
X77063933Y59802209D01*
X77045446Y59734829D01*
X77043058Y59731113D01*
X77041132Y59728232D01*
X77041131Y59728230D01*
X77029500Y59669753D01*
X77029500Y59530248D01*
X77041131Y59471771D01*
X77041132Y59471769D01*
X77043058Y59468887D01*
X77045322Y59461656D01*
X77045806Y59460487D01*
X77045701Y59460444D01*
X77063933Y59402209D01*
X77045446Y59334829D01*
X77043058Y59331113D01*
X77041132Y59328232D01*
X77041131Y59328230D01*
X77029500Y59269753D01*
X77029500Y59130248D01*
X77041131Y59071771D01*
X77041132Y59071769D01*
X77043058Y59068887D01*
X77045322Y59061656D01*
X77045806Y59060487D01*
X77045701Y59060444D01*
X77063933Y59002209D01*
X77045446Y58934829D01*
X77043058Y58931113D01*
X77041132Y58928232D01*
X77041131Y58928230D01*
X77029500Y58869753D01*
X77029500Y58749500D01*
X77009815Y58682461D01*
X76957011Y58636706D01*
X76905500Y58625500D01*
X72744767Y58625500D01*
X72677728Y58645185D01*
X72657086Y58661819D01*
X71996818Y59322087D01*
X71963333Y59383410D01*
X71960499Y59409768D01*
X71960499Y59683366D01*
X71960499Y59683372D01*
X71957682Y59707662D01*
X71913813Y59807016D01*
X71837016Y59883813D01*
X71837013Y59883815D01*
X71830776Y59886569D01*
X71777401Y59931657D01*
X71756877Y59998444D01*
X71775718Y60065726D01*
X71827944Y60112140D01*
X71830695Y60113397D01*
X71837016Y60116187D01*
X71913813Y60192984D01*
X71957682Y60292338D01*
X71960500Y60316627D01*
X71960499Y60683372D01*
X71957682Y60707662D01*
X71913813Y60807016D01*
X71837016Y60883813D01*
X71767134Y60914669D01*
X71737663Y60927682D01*
X71713374Y60930500D01*
X71713373Y60930500D01*
X71650276Y60930500D01*
X71618184Y60934725D01*
X71559310Y60950500D01*
X71559309Y60950500D01*
X71440691Y60950500D01*
X71440689Y60950500D01*
X71381815Y60934725D01*
X71349725Y60930500D01*
X71286635Y60930500D01*
X71286611Y60930498D01*
X71262340Y60927683D01*
X71262337Y60927682D01*
X71162984Y60883814D01*
X71086187Y60807017D01*
X71042318Y60707665D01*
X71042318Y60707663D01*
X71039500Y60683375D01*
X71039500Y60316635D01*
X71039502Y60316612D01*
X71042317Y60292341D01*
X71042318Y60292338D01*
X71086186Y60192985D01*
X71086187Y60192984D01*
X71162984Y60116187D01*
X71169221Y60113434D01*
X71222596Y60068347D01*
X71243122Y60001560D01*
X71224283Y59934278D01*
X71207036Y59912542D01*
X71190572Y59895995D01*
X71162984Y59883813D01*
X71086187Y59807016D01*
X71073533Y59778359D01*
X71057300Y59762042D01*
X71046037Y59755855D01*
X71037745Y59746038D01*
X71016001Y59739355D01*
X70996062Y59728401D01*
X70983241Y59729286D01*
X70970959Y59725510D01*
X70969396Y59725500D01*
X70424499Y59725500D01*
X70357460Y59745185D01*
X70311705Y59797989D01*
X70300499Y59849500D01*
X70300499Y59881518D01*
X70296846Y59904581D01*
X70285646Y59975304D01*
X70228050Y60088342D01*
X70228046Y60088346D01*
X70228045Y60088348D01*
X70138347Y60178046D01*
X70138344Y60178048D01*
X70138342Y60178050D01*
X70061517Y60217195D01*
X70025301Y60235648D01*
X69931524Y60250500D01*
X68568482Y60250500D01*
X68487519Y60237677D01*
X68474696Y60235646D01*
X68361658Y60178050D01*
X68361657Y60178049D01*
X68361652Y60178046D01*
X68271954Y60088348D01*
X68271951Y60088343D01*
X68271950Y60088342D01*
X68252751Y60050663D01*
X68214352Y59975302D01*
X68199500Y59881525D01*
X68199500Y58968483D01*
X68207548Y58917671D01*
X68214354Y58874696D01*
X68271950Y58761658D01*
X68271952Y58761656D01*
X68271954Y58761653D01*
X68361652Y58671955D01*
X68361654Y58671954D01*
X68361658Y58671950D01*
X68452821Y58625500D01*
X68474698Y58614353D01*
X68568475Y58599501D01*
X68568481Y58599500D01*
X69931518Y58599501D01*
X70025304Y58614354D01*
X70138342Y58671950D01*
X70228050Y58761658D01*
X70285646Y58874696D01*
X70285646Y58874698D01*
X70285647Y58874699D01*
X70300500Y58968476D01*
X70300500Y59150500D01*
X70320185Y59217539D01*
X70372989Y59263294D01*
X70424500Y59274500D01*
X70969396Y59274500D01*
X71036435Y59254815D01*
X71082190Y59202011D01*
X71082796Y59200662D01*
X71086187Y59192984D01*
X71162984Y59116187D01*
X71262338Y59072318D01*
X71286627Y59069500D01*
X71560232Y59069501D01*
X71627271Y59049817D01*
X71647913Y59033182D01*
X72401759Y58279336D01*
X72401762Y58279332D01*
X72408830Y58272264D01*
X72472264Y58208830D01*
X72480248Y58205523D01*
X72492376Y58200499D01*
X72492375Y58200499D01*
X72536300Y58182305D01*
X72555145Y58174499D01*
X72555148Y58174499D01*
X72659289Y58174499D01*
X72659297Y58174500D01*
X77094834Y58174500D01*
X77142291Y58165059D01*
X77151771Y58161132D01*
X77210247Y58149501D01*
X77210250Y58149500D01*
X77955500Y58149500D01*
X77964185Y58146950D01*
X77973147Y58148238D01*
X77997187Y58137260D01*
X78022539Y58129815D01*
X78028466Y58122975D01*
X78036703Y58119213D01*
X78050992Y58096979D01*
X78068294Y58077011D01*
X78070581Y58066497D01*
X78074477Y58060435D01*
X78079500Y58025500D01*
X78079500Y58003191D01*
X78059815Y57936152D01*
X78017500Y57895804D01*
X78008247Y57890462D01*
X78008241Y57890458D01*
X77505286Y57387504D01*
X77443963Y57354019D01*
X77417606Y57351185D01*
X77250075Y57351185D01*
X77250051Y57351183D01*
X77225780Y57348368D01*
X77225777Y57348367D01*
X77126424Y57304499D01*
X77126422Y57304498D01*
X77091416Y57269491D01*
X77030093Y57236006D01*
X76960401Y57240992D01*
X76904468Y57282864D01*
X76900693Y57288927D01*
X76896161Y57295165D01*
X76807919Y57383407D01*
X76807915Y57383410D01*
X76696705Y57440074D01*
X76604452Y57454685D01*
X76560440Y57454685D01*
X76560440Y56326686D01*
X76604445Y56326686D01*
X76696711Y56341299D01*
X76807914Y56397961D01*
X76807919Y56397964D01*
X76896161Y56486206D01*
X76901899Y56494103D01*
X76904396Y56492289D01*
X76941201Y56531275D01*
X77009018Y56548085D01*
X77075158Y56525563D01*
X77091417Y56511879D01*
X77126424Y56476872D01*
X77225778Y56433003D01*
X77250067Y56430185D01*
X77616812Y56430186D01*
X77641102Y56433003D01*
X77740456Y56476872D01*
X77817253Y56553669D01*
X77861122Y56653023D01*
X77863940Y56677312D01*
X77863939Y56740411D01*
X77868392Y56756517D01*
X77867916Y56771564D01*
X77868128Y56772371D01*
X77883940Y56831376D01*
X77883940Y56864853D01*
X77903625Y56931892D01*
X77920255Y56952530D01*
X77957759Y56990034D01*
X78019081Y57023518D01*
X78088773Y57018534D01*
X78144706Y56976662D01*
X78169123Y56911198D01*
X78169439Y56902352D01*
X78169439Y56836446D01*
X78169440Y56836437D01*
X78169440Y53475761D01*
X78169439Y53475747D01*
X78169439Y53376046D01*
X78187744Y53331857D01*
X78187744Y53331855D01*
X78187745Y53331855D01*
X78203770Y53293167D01*
X78284640Y53212297D01*
X78284646Y53212292D01*
X78444647Y53052291D01*
X78478132Y52990968D01*
X78478582Y52988807D01*
X78484249Y52960322D01*
X78484249Y52960321D01*
X78484250Y52960320D01*
X78536353Y52882341D01*
X78536851Y52881596D01*
X78575753Y52855603D01*
X78615577Y52828994D01*
X78615580Y52828993D01*
X78684995Y52815185D01*
X79151680Y52815185D01*
X79179934Y52806889D01*
X79208835Y52801227D01*
X79213078Y52797157D01*
X79218719Y52795500D01*
X79238000Y52773248D01*
X79259255Y52752858D01*
X79261986Y52745567D01*
X79264474Y52742696D01*
X79272273Y52720053D01*
X79272832Y52717718D01*
X79284249Y52660322D01*
X79287868Y52654906D01*
X79292033Y52637507D01*
X79291558Y52628151D01*
X79295440Y52608639D01*
X79295440Y52459924D01*
X79275755Y52392885D01*
X79222951Y52347130D01*
X79221526Y52346490D01*
X79126425Y52304499D01*
X79126422Y52304498D01*
X79091416Y52269491D01*
X79030093Y52236006D01*
X78960401Y52240992D01*
X78904468Y52282864D01*
X78900693Y52288927D01*
X78896161Y52295165D01*
X78807919Y52383407D01*
X78807915Y52383410D01*
X78696705Y52440074D01*
X78604452Y52454685D01*
X78560440Y52454685D01*
X78560440Y51326686D01*
X78604445Y51326686D01*
X78696711Y51341299D01*
X78807914Y51397961D01*
X78807919Y51397964D01*
X78896161Y51486206D01*
X78901899Y51494103D01*
X78904396Y51492289D01*
X78941201Y51531275D01*
X79009018Y51548085D01*
X79075158Y51525563D01*
X79091417Y51511879D01*
X79126424Y51476872D01*
X79225778Y51433003D01*
X79250067Y51430185D01*
X79616812Y51430186D01*
X79641102Y51433003D01*
X79740456Y51476872D01*
X79775463Y51511880D01*
X79836783Y51545364D01*
X79906475Y51540380D01*
X79962409Y51498510D01*
X79966187Y51492443D01*
X79970718Y51486206D01*
X80058960Y51397964D01*
X80058964Y51397961D01*
X80170174Y51341297D01*
X80262427Y51326686D01*
X80306439Y51326686D01*
X80306440Y51326687D01*
X80306440Y51766685D01*
X80308990Y51775371D01*
X80307702Y51784332D01*
X80318680Y51808373D01*
X80326125Y51833724D01*
X80332965Y51839652D01*
X80336727Y51847888D01*
X80358961Y51862178D01*
X80378929Y51879479D01*
X80389443Y51881767D01*
X80395505Y51885662D01*
X80430440Y51890685D01*
X80436440Y51890685D01*
X80503479Y51871000D01*
X80549234Y51818196D01*
X80560440Y51766685D01*
X80560440Y51326686D01*
X80604445Y51326686D01*
X80696711Y51341299D01*
X80807914Y51397961D01*
X80807919Y51397964D01*
X80896161Y51486206D01*
X80901899Y51494103D01*
X80904396Y51492289D01*
X80941201Y51531275D01*
X81009018Y51548085D01*
X81075158Y51525563D01*
X81091417Y51511879D01*
X81126424Y51476872D01*
X81225778Y51433003D01*
X81250067Y51430185D01*
X81616812Y51430186D01*
X81641102Y51433003D01*
X81740456Y51476872D01*
X81817253Y51553669D01*
X81861122Y51653023D01*
X81863940Y51677312D01*
X81863939Y51740412D01*
X81868164Y51772504D01*
X81883940Y51831376D01*
X81883940Y51949994D01*
X81870823Y51998947D01*
X81868164Y52008871D01*
X81863939Y52040964D01*
X81863939Y52104051D01*
X81863939Y52104057D01*
X81861122Y52128347D01*
X81817253Y52227701D01*
X81803962Y52240992D01*
X81770258Y52274697D01*
X81736774Y52336020D01*
X81733940Y52362377D01*
X81733940Y52500863D01*
X84557939Y52500863D01*
X84566671Y52456968D01*
X84566674Y52456961D01*
X84577959Y52440072D01*
X84599936Y52407181D01*
X84649718Y52373918D01*
X84649721Y52373918D01*
X84649722Y52373917D01*
X84693617Y52365185D01*
X84693620Y52365185D01*
X84732607Y52365185D01*
X84799646Y52345500D01*
X84820288Y52328866D01*
X84942980Y52206174D01*
X84998929Y52150225D01*
X84998931Y52150224D01*
X84998935Y52150221D01*
X85036821Y52128348D01*
X85067451Y52110664D01*
X85143878Y52090185D01*
X85223002Y52090185D01*
X85961749Y52090185D01*
X86028788Y52070500D01*
X86049430Y52053866D01*
X86096424Y52006872D01*
X86195778Y51963003D01*
X86220067Y51960185D01*
X86283161Y51960186D01*
X86315256Y51955961D01*
X86374131Y51940185D01*
X86374133Y51940185D01*
X86492747Y51940185D01*
X86492749Y51940185D01*
X86551624Y51955962D01*
X86583718Y51960186D01*
X86646806Y51960186D01*
X86646812Y51960186D01*
X86671102Y51963003D01*
X86770456Y52006872D01*
X86847253Y52083669D01*
X86891122Y52183023D01*
X86893940Y52207312D01*
X86893939Y52574057D01*
X86891122Y52598347D01*
X86847253Y52697701D01*
X86812246Y52732708D01*
X86778761Y52794031D01*
X86783745Y52863723D01*
X86825617Y52919656D01*
X86831680Y52923431D01*
X86837919Y52927964D01*
X86926161Y53016206D01*
X86926164Y53016210D01*
X86982828Y53127420D01*
X86997440Y53219673D01*
X86997440Y53263685D01*
X85869441Y53263685D01*
X85869441Y53219680D01*
X85884053Y53127414D01*
X85940715Y53016211D01*
X85940718Y53016206D01*
X86028960Y52927964D01*
X86036858Y52922226D01*
X86035044Y52919730D01*
X86043690Y52911565D01*
X86066212Y52894709D01*
X86068752Y52887899D01*
X86074037Y52882909D01*
X86080802Y52855603D01*
X86090635Y52829247D01*
X86089090Y52822146D01*
X86090839Y52815090D01*
X86081766Y52788461D01*
X86075790Y52760973D01*
X86069571Y52752664D01*
X86068307Y52748953D01*
X86054642Y52732716D01*
X86049436Y52727511D01*
X85988119Y52694021D01*
X85961749Y52691185D01*
X85359273Y52691185D01*
X85292234Y52710870D01*
X85271592Y52727504D01*
X85245259Y52753837D01*
X85211774Y52815160D01*
X85208940Y52841518D01*
X85208940Y52880508D01*
X85200208Y52924403D01*
X85200207Y52924404D01*
X85200207Y52924407D01*
X85166944Y52974189D01*
X85160964Y52978185D01*
X85117164Y53007451D01*
X85117157Y53007454D01*
X85073262Y53016185D01*
X85073260Y53016185D01*
X84693620Y53016185D01*
X84693618Y53016185D01*
X84649722Y53007454D01*
X84649715Y53007451D01*
X84599936Y52974190D01*
X84599935Y52974189D01*
X84566674Y52924410D01*
X84566671Y52924403D01*
X84557940Y52880508D01*
X84557940Y52880505D01*
X84557940Y52500865D01*
X84557940Y52500863D01*
X84557939Y52500863D01*
X81733940Y52500863D01*
X81733940Y52882341D01*
X81733940Y53005247D01*
X81722557Y53047726D01*
X81721733Y53059709D01*
X81722251Y53062061D01*
X81721440Y53068223D01*
X81721440Y53251630D01*
X81707632Y53321045D01*
X81707631Y53321047D01*
X81707631Y53321048D01*
X81707132Y53321794D01*
X81706547Y53323664D01*
X81702958Y53332328D01*
X81703733Y53332650D01*
X81686254Y53388470D01*
X81704738Y53455851D01*
X81707133Y53459577D01*
X81707631Y53460322D01*
X81708255Y53463459D01*
X81721440Y53529741D01*
X81721440Y53751630D01*
X81707632Y53821045D01*
X81707631Y53821047D01*
X81707631Y53821048D01*
X81707132Y53821794D01*
X81706547Y53823664D01*
X81702958Y53832328D01*
X81703733Y53832650D01*
X81686254Y53888470D01*
X81704738Y53955851D01*
X81707127Y53959569D01*
X81707631Y53960322D01*
X81707632Y53960326D01*
X81721440Y54029741D01*
X81721440Y54251630D01*
X81707632Y54321045D01*
X81707631Y54321047D01*
X81707631Y54321048D01*
X81707132Y54321794D01*
X81706547Y54323664D01*
X81702958Y54332328D01*
X81703733Y54332650D01*
X81686254Y54388470D01*
X81704738Y54455851D01*
X81707133Y54459577D01*
X81707346Y54459896D01*
X81707631Y54460322D01*
X81707632Y54460326D01*
X81721440Y54529741D01*
X81721440Y54751630D01*
X81707632Y54821045D01*
X81707631Y54821048D01*
X81688517Y54849654D01*
X81655029Y54899774D01*
X81593787Y54940694D01*
X81576302Y54952377D01*
X81576299Y54952378D01*
X81506884Y54966185D01*
X81506882Y54966185D01*
X81159896Y54966185D01*
X81092857Y54985870D01*
X81047102Y55038674D01*
X81037158Y55107832D01*
X81066183Y55171388D01*
X81072204Y55177856D01*
X81369023Y55474676D01*
X81430342Y55508158D01*
X81472898Y55509930D01*
X81476128Y55509505D01*
X81476137Y55509502D01*
X81476146Y55509502D01*
X81594752Y55509502D01*
X81594755Y55509502D01*
X81709332Y55540203D01*
X81709334Y55540205D01*
X81709336Y55540205D01*
X81712152Y55541371D01*
X81714718Y55541648D01*
X81717182Y55542307D01*
X81717284Y55541923D01*
X81781621Y55548841D01*
X81844101Y55517567D01*
X81879754Y55457479D01*
X81879381Y55394719D01*
X81861708Y55328762D01*
X81861708Y55210144D01*
X81892409Y55095567D01*
X81951719Y54992840D01*
X82035595Y54908964D01*
X82138322Y54849654D01*
X82138324Y54849653D01*
X82144968Y54846901D01*
X82151899Y54842270D01*
X82156942Y54841173D01*
X82185178Y54820036D01*
X82185197Y54820023D01*
X82201913Y54803307D01*
X83071621Y53933599D01*
X83105106Y53872276D01*
X83107940Y53845918D01*
X83107940Y53800865D01*
X83107940Y53800863D01*
X83107939Y53800863D01*
X83116671Y53756968D01*
X83116672Y53756965D01*
X83116672Y53756964D01*
X83116673Y53756963D01*
X83121175Y53750225D01*
X83131633Y53734574D01*
X83152509Y53667896D01*
X83134023Y53600516D01*
X83131633Y53596796D01*
X83116672Y53574406D01*
X83116671Y53574403D01*
X83107940Y53530508D01*
X83107940Y53530505D01*
X83107940Y53150865D01*
X83107940Y53150863D01*
X83107939Y53150863D01*
X83116671Y53106968D01*
X83116674Y53106961D01*
X83149935Y53057182D01*
X83149936Y53057181D01*
X83197061Y53025693D01*
X83199718Y53023918D01*
X83199721Y53023918D01*
X83199722Y53023917D01*
X83243617Y53015185D01*
X83243620Y53015185D01*
X83623262Y53015185D01*
X83667157Y53023917D01*
X83667157Y53023918D01*
X83667162Y53023918D01*
X83716944Y53057181D01*
X83750207Y53106963D01*
X83750710Y53109494D01*
X83753330Y53114504D01*
X83754880Y53118244D01*
X83755214Y53118106D01*
X83759474Y53126250D01*
X83763494Y53144729D01*
X83782233Y53169763D01*
X83783093Y53171405D01*
X83784588Y53172928D01*
X83824610Y53212949D01*
X83824610Y53212951D01*
X84017015Y53405356D01*
X84078337Y53438840D01*
X84120882Y53440613D01*
X84124129Y53440186D01*
X84124131Y53440185D01*
X84124133Y53440185D01*
X84242746Y53440185D01*
X84242749Y53440185D01*
X84357326Y53470886D01*
X84460053Y53530196D01*
X84543929Y53614072D01*
X84543932Y53614079D01*
X84548879Y53620523D01*
X84551039Y53618866D01*
X84591914Y53657870D01*
X84660516Y53671119D01*
X84672958Y53669295D01*
X84693620Y53665185D01*
X84693621Y53665185D01*
X85073260Y53665185D01*
X85117162Y53673918D01*
X85117166Y53673922D01*
X85128449Y53678593D01*
X85129769Y53675406D01*
X85176915Y53690165D01*
X85179123Y53690185D01*
X85745440Y53690185D01*
X85812479Y53670500D01*
X85858234Y53617696D01*
X85869440Y53566185D01*
X85869440Y53517685D01*
X86997439Y53517685D01*
X86997439Y53561691D01*
X86982826Y53653957D01*
X86926164Y53765160D01*
X86926161Y53765165D01*
X86837919Y53853407D01*
X86830022Y53859144D01*
X86831834Y53861639D01*
X86792834Y53898476D01*
X86776041Y53966297D01*
X86798581Y54032431D01*
X86812241Y54048658D01*
X86847253Y54083669D01*
X86891122Y54183023D01*
X86893940Y54207312D01*
X86893939Y54574057D01*
X86891122Y54598347D01*
X86847253Y54697701D01*
X86812245Y54732709D01*
X86778761Y54794031D01*
X86783745Y54863723D01*
X86825617Y54919656D01*
X86831680Y54923431D01*
X86837919Y54927964D01*
X86926161Y55016206D01*
X86926164Y55016210D01*
X86982828Y55127420D01*
X86997440Y55219673D01*
X86997440Y55263685D01*
X85869441Y55263685D01*
X85869441Y55219680D01*
X85884053Y55127414D01*
X85940715Y55016211D01*
X85940718Y55016206D01*
X86028960Y54927964D01*
X86036858Y54922226D01*
X86035044Y54919730D01*
X86074037Y54882909D01*
X86090839Y54815090D01*
X86068307Y54748953D01*
X86054634Y54732709D01*
X86019627Y54697703D01*
X86019627Y54697702D01*
X85975758Y54598350D01*
X85975758Y54598348D01*
X85972940Y54574060D01*
X85972940Y54415185D01*
X85953255Y54348146D01*
X85900451Y54302391D01*
X85848940Y54291185D01*
X85328272Y54291185D01*
X85261233Y54310870D01*
X85215478Y54363674D01*
X85205534Y54432832D01*
X85206655Y54439379D01*
X85208235Y54447319D01*
X85208940Y54450865D01*
X85208940Y54830505D01*
X85208940Y54830508D01*
X85200208Y54874403D01*
X85200207Y54874404D01*
X85200207Y54874407D01*
X85166944Y54924189D01*
X85166943Y54924190D01*
X85117164Y54957451D01*
X85117157Y54957454D01*
X85073262Y54966185D01*
X85073260Y54966185D01*
X84693620Y54966185D01*
X84693618Y54966185D01*
X84649722Y54957454D01*
X84649715Y54957451D01*
X84646839Y54955529D01*
X84639624Y54953271D01*
X84638438Y54952779D01*
X84638393Y54952886D01*
X84580160Y54934655D01*
X84512781Y54953143D01*
X84490273Y54970954D01*
X84460055Y55001172D01*
X84460053Y55001174D01*
X84357326Y55060484D01*
X84242749Y55091185D01*
X84124131Y55091185D01*
X84009554Y55060484D01*
X84009552Y55060484D01*
X84009552Y55060483D01*
X83906827Y55001174D01*
X83906823Y55001171D01*
X83856578Y54950926D01*
X83828717Y54935714D01*
X83801706Y54919027D01*
X83798270Y54919089D01*
X83795255Y54917442D01*
X83763592Y54919707D01*
X83731848Y54920273D01*
X83727658Y54922278D01*
X83725563Y54922427D01*
X83700010Y54935504D01*
X83681688Y54947746D01*
X83674521Y54952535D01*
X83629716Y55006144D01*
X83628849Y55008187D01*
X83624610Y55018421D01*
X83561176Y55081855D01*
X83554111Y55088920D01*
X83554104Y55088926D01*
X83081332Y55561698D01*
X85869440Y55561698D01*
X85869440Y55517685D01*
X86306440Y55517685D01*
X86560440Y55517685D01*
X86997439Y55517685D01*
X86997439Y55561691D01*
X86982826Y55653957D01*
X86926164Y55765160D01*
X86926161Y55765165D01*
X86837919Y55853407D01*
X86837915Y55853410D01*
X86726705Y55910074D01*
X86634452Y55924685D01*
X86560440Y55924685D01*
X86560440Y55517685D01*
X86306440Y55517685D01*
X86306440Y55924685D01*
X86306439Y55924686D01*
X86232435Y55924685D01*
X86140168Y55910072D01*
X86028965Y55853410D01*
X86028960Y55853407D01*
X85940718Y55765165D01*
X85940715Y55765161D01*
X85884051Y55653951D01*
X85869440Y55561698D01*
X83081332Y55561698D01*
X82935693Y55707337D01*
X82902208Y55768660D01*
X82907192Y55838352D01*
X82949064Y55894285D01*
X82991281Y55914793D01*
X82992744Y55915185D01*
X82992749Y55915185D01*
X83107326Y55945886D01*
X83210053Y56005196D01*
X83293929Y56089072D01*
X83353239Y56191799D01*
X83383940Y56306376D01*
X83383940Y56334291D01*
X83403625Y56401330D01*
X83456429Y56447085D01*
X83501963Y56456991D01*
X83501932Y56457230D01*
X83504796Y56457608D01*
X83507940Y56458291D01*
X83509989Y56458291D01*
X83509992Y56458291D01*
X83624569Y56488992D01*
X83727296Y56548302D01*
X83811172Y56632178D01*
X83870482Y56734905D01*
X83901183Y56849482D01*
X83901183Y56968100D01*
X83870482Y57082677D01*
X83811172Y57185404D01*
X83783757Y57212819D01*
X83773144Y57232256D01*
X83758644Y57248989D01*
X83756727Y57262321D01*
X83750272Y57274142D01*
X83751851Y57296229D01*
X83748700Y57318147D01*
X83754295Y57330399D01*
X83755256Y57343834D01*
X83768526Y57361561D01*
X83777725Y57381703D01*
X83789056Y57388986D01*
X83797128Y57399767D01*
X83817873Y57407505D01*
X83836503Y57419477D01*
X83858421Y57422629D01*
X83862592Y57424184D01*
X83871438Y57424500D01*
X83974031Y57424500D01*
X84041070Y57404815D01*
X84086825Y57352011D01*
X84093803Y57332602D01*
X84101674Y57303228D01*
X84160984Y57200501D01*
X84244860Y57116625D01*
X84347587Y57057315D01*
X84462164Y57026614D01*
X84462167Y57026614D01*
X84580779Y57026614D01*
X84580782Y57026614D01*
X84695359Y57057315D01*
X84798086Y57116625D01*
X84881962Y57200501D01*
X84941272Y57303228D01*
X84971973Y57417805D01*
X84971973Y57536423D01*
X84941272Y57651000D01*
X84881962Y57753727D01*
X84868219Y57767470D01*
X84834734Y57828793D01*
X84839718Y57898485D01*
X84868218Y57942831D01*
X84875864Y57950476D01*
X84935174Y58053203D01*
X84965875Y58167780D01*
X84965875Y58286398D01*
X84935174Y58400975D01*
X84875864Y58503702D01*
X84791988Y58587578D01*
X84786241Y58593325D01*
X84787368Y58594453D01*
X84751698Y58643309D01*
X84747546Y58713055D01*
X84761002Y58747251D01*
X84784476Y58787908D01*
X84815177Y58902485D01*
X84815177Y59021103D01*
X84784476Y59135680D01*
X84725166Y59238407D01*
X84641290Y59322283D01*
X84538563Y59381593D01*
X84423986Y59412294D01*
X84305368Y59412294D01*
X84190791Y59381593D01*
X84190789Y59381592D01*
X84182941Y59379489D01*
X84182061Y59382771D01*
X84127726Y59377386D01*
X84065510Y59409180D01*
X84030359Y59469563D01*
X84026786Y59501841D01*
X84027015Y59512735D01*
X84030500Y59530252D01*
X84030500Y59669748D01*
X84030341Y59670543D01*
X84030512Y59678613D01*
X84038886Y59705062D01*
X84044016Y59732327D01*
X84049286Y59737905D01*
X84051604Y59745223D01*
X84072952Y59762948D01*
X84092005Y59783109D01*
X84099761Y59785206D01*
X84105361Y59789855D01*
X84126542Y59792447D01*
X84154484Y59800000D01*
X90876000Y59800000D01*
X90943039Y59780315D01*
X90988794Y59727511D01*
X91000000Y59676000D01*
X91000000Y49000500D01*
X67256988Y49000500D01*
X67243100Y49001280D01*
X67234899Y49002205D01*
X67152758Y49011463D01*
X67125689Y49017643D01*
X67046495Y49045357D01*
X67021478Y49057405D01*
X66950432Y49102049D01*
X66928723Y49119363D01*
X66869399Y49178691D01*
X66852087Y49200400D01*
X66807446Y49271450D01*
X66795400Y49296467D01*
X66767691Y49375660D01*
X66761512Y49402730D01*
X66751279Y49493564D01*
X66750500Y49507448D01*
X66750501Y49565885D01*
X66750500Y49565889D01*
X66750500Y53506187D01*
X68955800Y53506187D01*
X68955800Y53362897D01*
X68991305Y53230392D01*
X68992886Y53224490D01*
X68992885Y53224490D01*
X68999925Y53212297D01*
X69064532Y53100395D01*
X69165853Y52999074D01*
X69262806Y52943098D01*
X69289018Y52927964D01*
X69289947Y52927428D01*
X69428355Y52890342D01*
X69428357Y52890342D01*
X69571643Y52890342D01*
X69571645Y52890342D01*
X69710053Y52927428D01*
X69737195Y52943099D01*
X69805092Y52959572D01*
X69871119Y52936721D01*
X69914311Y52881801D01*
X69920955Y52812248D01*
X69906583Y52773714D01*
X69890914Y52746574D01*
X69890913Y52746571D01*
X69890912Y52746569D01*
X69890912Y52746568D01*
X69853826Y52608160D01*
X69853826Y52464870D01*
X69855945Y52456963D01*
X69890912Y52326461D01*
X69912583Y52288927D01*
X69962558Y52202368D01*
X70063879Y52101047D01*
X70187973Y52029401D01*
X70326381Y51992315D01*
X70326383Y51992315D01*
X70469669Y51992315D01*
X70469671Y51992315D01*
X70608079Y52029401D01*
X70635218Y52045071D01*
X70703118Y52061544D01*
X70769145Y52038693D01*
X70812337Y51983772D01*
X70818980Y51914219D01*
X70804607Y51875685D01*
X70788940Y51848551D01*
X70788939Y51848546D01*
X70788939Y51848545D01*
X70788938Y51848543D01*
X70751852Y51710135D01*
X70751852Y51566845D01*
X70756879Y51548085D01*
X70788938Y51428436D01*
X70806533Y51397961D01*
X70860584Y51304343D01*
X70961905Y51203022D01*
X71085999Y51131376D01*
X71224407Y51094290D01*
X71224409Y51094290D01*
X71367695Y51094290D01*
X71367697Y51094290D01*
X71506105Y51131376D01*
X71630199Y51203022D01*
X71681927Y51254750D01*
X72147290Y51254750D01*
X72147290Y51124204D01*
X72181078Y50998105D01*
X72246351Y50885049D01*
X72338662Y50792738D01*
X72451718Y50727465D01*
X72577817Y50693677D01*
X72577819Y50693677D01*
X72708361Y50693677D01*
X72708363Y50693677D01*
X72834462Y50727465D01*
X72947518Y50792738D01*
X73039829Y50885049D01*
X73105102Y50998105D01*
X73138890Y51124204D01*
X73138890Y51254750D01*
X73105102Y51380849D01*
X73039829Y51493905D01*
X72947518Y51586216D01*
X72834462Y51651489D01*
X72708363Y51685277D01*
X72577817Y51685277D01*
X72451718Y51651489D01*
X72451715Y51651488D01*
X72338665Y51586218D01*
X72338659Y51586214D01*
X72246353Y51493908D01*
X72246349Y51493902D01*
X72181079Y51380852D01*
X72181078Y51380849D01*
X72147290Y51254750D01*
X71681927Y51254750D01*
X71731520Y51304343D01*
X71803166Y51428437D01*
X71840252Y51566845D01*
X71840252Y51689680D01*
X77899441Y51689680D01*
X77914053Y51597414D01*
X77970715Y51486211D01*
X77970718Y51486206D01*
X78058960Y51397964D01*
X78058964Y51397961D01*
X78170174Y51341297D01*
X78262427Y51326686D01*
X78306439Y51326686D01*
X78306440Y51326687D01*
X78306440Y51763685D01*
X77899441Y51763685D01*
X77899441Y51689680D01*
X71840252Y51689680D01*
X71840252Y51710135D01*
X71803166Y51848543D01*
X71803161Y51848551D01*
X71787497Y51875682D01*
X71771024Y51943582D01*
X71793876Y52009609D01*
X71848797Y52052800D01*
X71918350Y52059442D01*
X71956886Y52045069D01*
X71984022Y52029401D01*
X71984024Y52029401D01*
X71984025Y52029400D01*
X72122433Y51992314D01*
X72122435Y51992314D01*
X72265721Y51992314D01*
X72265723Y51992314D01*
X72404131Y52029400D01*
X72512034Y52091698D01*
X77899440Y52091698D01*
X77899440Y52017685D01*
X78306440Y52017685D01*
X78306440Y52454685D01*
X78262435Y52454685D01*
X78170168Y52440072D01*
X78058965Y52383410D01*
X78058960Y52383407D01*
X77970718Y52295165D01*
X77970715Y52295161D01*
X77914051Y52183951D01*
X77899440Y52091698D01*
X72512034Y52091698D01*
X72528225Y52101046D01*
X72629546Y52202367D01*
X72701192Y52326461D01*
X72738278Y52464869D01*
X72738278Y52604383D01*
X72757963Y52671422D01*
X72774597Y52692064D01*
X73200777Y53118244D01*
X73637409Y53554877D01*
X73667510Y53574988D01*
X73666847Y53576137D01*
X73687664Y53588156D01*
X73776613Y53639511D01*
X73860489Y53723387D01*
X73919799Y53826114D01*
X73950500Y53940691D01*
X73950500Y54059309D01*
X73919799Y54173886D01*
X73860489Y54276613D01*
X73776613Y54360489D01*
X73698926Y54405342D01*
X73673885Y54419800D01*
X73591908Y54441766D01*
X73532248Y54478131D01*
X73501720Y54540978D01*
X73510015Y54610354D01*
X73536317Y54649216D01*
X73610489Y54723387D01*
X73669799Y54826114D01*
X73700500Y54940691D01*
X73700500Y55059309D01*
X73669799Y55173886D01*
X73610489Y55276613D01*
X73526613Y55360489D01*
X73423886Y55419799D01*
X73309309Y55450500D01*
X73190691Y55450500D01*
X73070038Y55418171D01*
X73000188Y55419834D01*
X72942326Y55458997D01*
X72914822Y55523225D01*
X72918170Y55570040D01*
X72919796Y55576110D01*
X72919799Y55576114D01*
X72950500Y55690691D01*
X72950500Y55809309D01*
X72919799Y55923886D01*
X72860489Y56026613D01*
X72776613Y56110489D01*
X72673886Y56169799D01*
X72559309Y56200500D01*
X72440691Y56200500D01*
X72326114Y56169799D01*
X72326112Y56169799D01*
X72326112Y56169798D01*
X72223387Y56110489D01*
X72223384Y56110487D01*
X72139513Y56026616D01*
X72139511Y56026613D01*
X72083482Y55929568D01*
X72080201Y55923886D01*
X72049500Y55809309D01*
X72049500Y55809307D01*
X72049500Y55690690D01*
X72049928Y55687438D01*
X72049500Y55684695D01*
X72049500Y55683248D01*
X72050672Y55680105D01*
X72043997Y55649423D01*
X72039159Y55618403D01*
X72036395Y55614473D01*
X72035821Y55611832D01*
X72014669Y55583577D01*
X71846265Y55415171D01*
X71846264Y55415171D01*
X71846263Y55415170D01*
X71782830Y55351737D01*
X71782830Y55351735D01*
X71748499Y55268856D01*
X71748499Y55164712D01*
X71748500Y55164703D01*
X71748500Y55133646D01*
X71728815Y55066607D01*
X71712181Y55045965D01*
X71200935Y54534720D01*
X71139612Y54501235D01*
X71069920Y54506219D01*
X71013987Y54548091D01*
X70998693Y54574949D01*
X70972013Y54639361D01*
X70972006Y54639374D01*
X70901127Y54745451D01*
X70901124Y54745455D01*
X70810914Y54835665D01*
X70810910Y54835668D01*
X70704833Y54906547D01*
X70704820Y54906554D01*
X70586957Y54955374D01*
X70586945Y54955377D01*
X70525027Y54967694D01*
X70525027Y54456566D01*
X70522476Y54447881D01*
X70523765Y54438919D01*
X70512786Y54414879D01*
X70505342Y54389527D01*
X70498501Y54383600D01*
X70494740Y54375363D01*
X70472505Y54361074D01*
X70452538Y54343772D01*
X70442023Y54341485D01*
X70435962Y54337589D01*
X70401027Y54332566D01*
X70395025Y54332566D01*
X70348693Y54346171D01*
X70349349Y54344413D01*
X70346486Y54331253D01*
X70348403Y54317920D01*
X70339203Y54297777D01*
X70334497Y54276140D01*
X70321228Y54258415D01*
X70319378Y54254364D01*
X70313346Y54247886D01*
X70307344Y54241884D01*
X70246021Y54208399D01*
X70219663Y54205565D01*
X69762899Y54205565D01*
X69775215Y54143647D01*
X69775217Y54143639D01*
X69781237Y54129106D01*
X69788706Y54059637D01*
X69757431Y53997157D01*
X69697342Y53961505D01*
X69634583Y53961878D01*
X69618091Y53966297D01*
X69571645Y53978742D01*
X69428355Y53978742D01*
X69289945Y53941656D01*
X69165853Y53870010D01*
X69165850Y53870008D01*
X69064534Y53768692D01*
X69064532Y53768689D01*
X68992886Y53644597D01*
X68962317Y53530508D01*
X68955800Y53506187D01*
X66750500Y53506187D01*
X66750500Y54128432D01*
X67836767Y54128432D01*
X67836767Y53997886D01*
X67865492Y53890685D01*
X67870555Y53871788D01*
X67870556Y53871785D01*
X67889901Y53838278D01*
X67935828Y53758731D01*
X68028139Y53666420D01*
X68141195Y53601147D01*
X68267294Y53567359D01*
X68267296Y53567359D01*
X68397838Y53567359D01*
X68397840Y53567359D01*
X68523939Y53601147D01*
X68554629Y53618866D01*
X68559540Y53621701D01*
X68572968Y53629455D01*
X68636995Y53666420D01*
X68729306Y53758731D01*
X68794579Y53871787D01*
X68828367Y53997886D01*
X68828367Y54128432D01*
X68794579Y54254531D01*
X68729306Y54367587D01*
X68636995Y54459898D01*
X68523939Y54525171D01*
X68397840Y54558959D01*
X68267294Y54558959D01*
X68141195Y54525171D01*
X68141192Y54525170D01*
X68028142Y54459900D01*
X68028136Y54459896D01*
X67935830Y54367590D01*
X67935826Y54367584D01*
X67870556Y54254534D01*
X67870555Y54254531D01*
X67836767Y54128432D01*
X66750500Y54128432D01*
X66750500Y55565273D01*
X69273608Y55565273D01*
X69273608Y55434727D01*
X69307396Y55308628D01*
X69372669Y55195572D01*
X69464980Y55103261D01*
X69578036Y55037988D01*
X69704135Y55004200D01*
X69704137Y55004200D01*
X69834676Y55004200D01*
X69834681Y55004200D01*
X69834685Y55004202D01*
X69839861Y55004883D01*
X69908897Y54994122D01*
X69961156Y54947746D01*
X69980046Y54880479D01*
X69959570Y54813677D01*
X69943737Y54794265D01*
X69894928Y54745456D01*
X69894924Y54745451D01*
X69824045Y54639374D01*
X69824038Y54639361D01*
X69775218Y54521498D01*
X69775215Y54521486D01*
X69762898Y54459568D01*
X69762899Y54459567D01*
X70225665Y54459567D01*
X70246910Y54453329D01*
X70268999Y54451749D01*
X70272670Y54449001D01*
X70271025Y54456566D01*
X70271025Y54967693D01*
X70271024Y54967694D01*
X70256560Y54964816D01*
X70186969Y54971045D01*
X70131792Y55013908D01*
X70108548Y55079798D01*
X70124616Y55147795D01*
X70144683Y55174109D01*
X70166147Y55195572D01*
X70231420Y55308628D01*
X70265208Y55434727D01*
X70265208Y55565273D01*
X70231420Y55691372D01*
X70166147Y55804428D01*
X70073836Y55896739D01*
X69960780Y55962012D01*
X69834681Y55995800D01*
X69704135Y55995800D01*
X69578036Y55962012D01*
X69578033Y55962011D01*
X69464983Y55896741D01*
X69464977Y55896737D01*
X69372671Y55804431D01*
X69372667Y55804425D01*
X69307397Y55691375D01*
X69307396Y55691372D01*
X69273608Y55565273D01*
X66750500Y55565273D01*
X66750500Y56689680D01*
X75899441Y56689680D01*
X75914053Y56597414D01*
X75970715Y56486211D01*
X75970718Y56486206D01*
X76058960Y56397964D01*
X76058964Y56397961D01*
X76170174Y56341297D01*
X76262427Y56326686D01*
X76306439Y56326686D01*
X76306440Y56326687D01*
X76306440Y56763685D01*
X75899441Y56763685D01*
X75899441Y56689680D01*
X66750500Y56689680D01*
X66750500Y57091698D01*
X75899440Y57091698D01*
X75899440Y57017685D01*
X76306440Y57017685D01*
X76306440Y57454685D01*
X76262435Y57454685D01*
X76170168Y57440072D01*
X76058965Y57383410D01*
X76058960Y57383407D01*
X75970718Y57295165D01*
X75970715Y57295161D01*
X75914051Y57183951D01*
X75899440Y57091698D01*
X66750500Y57091698D01*
X66750500Y62061698D01*
X73386000Y62061698D01*
X73386000Y62017685D01*
X73823000Y62017685D01*
X74077000Y62017685D01*
X74513999Y62017685D01*
X74513999Y62061691D01*
X74499386Y62153957D01*
X74442724Y62265160D01*
X74442721Y62265165D01*
X74354479Y62353407D01*
X74354475Y62353410D01*
X74243265Y62410074D01*
X74151012Y62424685D01*
X74077000Y62424685D01*
X74077000Y62017685D01*
X73823000Y62017685D01*
X73823000Y62424685D01*
X73822999Y62424686D01*
X73748995Y62424685D01*
X73656728Y62410072D01*
X73545525Y62353410D01*
X73545520Y62353407D01*
X73457278Y62265165D01*
X73457275Y62265161D01*
X73400611Y62153951D01*
X73386000Y62061698D01*
X66750500Y62061698D01*
X66750500Y63101784D01*
X68096001Y63101784D01*
X68102452Y63041765D01*
X68102453Y63041762D01*
X68153099Y62905979D01*
X68153103Y62905973D01*
X68239952Y62789953D01*
X68355972Y62703104D01*
X68355974Y62703103D01*
X68491768Y62652453D01*
X68551780Y62646001D01*
X69122999Y62646001D01*
X69377000Y62646001D01*
X69948207Y62646001D01*
X69948216Y62646002D01*
X70008235Y62652453D01*
X70008238Y62652454D01*
X70144021Y62703100D01*
X70144027Y62703104D01*
X70260047Y62789953D01*
X70346896Y62905973D01*
X70346897Y62905975D01*
X70397547Y63041769D01*
X70403999Y63101773D01*
X70404000Y63101790D01*
X70404000Y63448000D01*
X69377000Y63448000D01*
X69377000Y62646001D01*
X69122999Y62646001D01*
X69123000Y62646002D01*
X69123000Y63448000D01*
X68096001Y63448000D01*
X68096001Y63101784D01*
X66750500Y63101784D01*
X66750500Y64048228D01*
X68096000Y64048228D01*
X68096000Y63702000D01*
X69123000Y63702000D01*
X69377000Y63702000D01*
X70403999Y63702000D01*
X70403999Y64048208D01*
X70403998Y64048217D01*
X70397547Y64108236D01*
X70397546Y64108239D01*
X70346900Y64244022D01*
X70346896Y64244028D01*
X70260047Y64360048D01*
X70144027Y64446897D01*
X70144025Y64446898D01*
X70008231Y64497548D01*
X69948227Y64504000D01*
X69377000Y64504000D01*
X69377000Y63702000D01*
X69123000Y63702000D01*
X69123000Y64504000D01*
X68551792Y64504000D01*
X68551783Y64503999D01*
X68491764Y64497548D01*
X68491761Y64497547D01*
X68355978Y64446901D01*
X68355972Y64446897D01*
X68239952Y64360048D01*
X68153103Y64244028D01*
X68153102Y64244026D01*
X68102452Y64108232D01*
X68096000Y64048228D01*
X66750500Y64048228D01*
X66750500Y65811698D01*
X74936000Y65811698D01*
X74936000Y65767685D01*
X75373000Y65767685D01*
X75373000Y66174685D01*
X75627000Y66174685D01*
X75627000Y65767685D01*
X76173000Y65767685D01*
X76173000Y66174685D01*
X76172999Y66174686D01*
X76098995Y66174685D01*
X76006727Y66160072D01*
X76006725Y66160071D01*
X75956293Y66134374D01*
X75887624Y66121478D01*
X75843705Y66134374D01*
X75793267Y66160074D01*
X75701012Y66174685D01*
X75627000Y66174685D01*
X75373000Y66174685D01*
X75372999Y66174686D01*
X75298995Y66174685D01*
X75206728Y66160072D01*
X75095525Y66103410D01*
X75095520Y66103407D01*
X75007278Y66015165D01*
X75007275Y66015161D01*
X74950611Y65903951D01*
X74936000Y65811698D01*
X66750500Y65811698D01*
X66750500Y67532389D01*
X71767180Y67532389D01*
X71789211Y67407450D01*
X71848771Y67295433D01*
X71917066Y67229481D01*
X71917070Y67229478D01*
X71917074Y67229474D01*
X72746906Y66648421D01*
X72832251Y66606794D01*
X72957882Y66589138D01*
X72957882Y66589139D01*
X72957883Y66589138D01*
X72957884Y66589138D01*
X73020351Y66600153D01*
X73082821Y66611168D01*
X73194836Y66670728D01*
X73203944Y66680159D01*
X73260790Y66739025D01*
X73260797Y66739032D01*
X73583741Y67200245D01*
X73625367Y67285590D01*
X73643024Y67411221D01*
X73620993Y67536160D01*
X73561434Y67648175D01*
X73561433Y67648176D01*
X73561432Y67648178D01*
X73493137Y67714130D01*
X73493132Y67714134D01*
X73493130Y67714136D01*
X73078214Y68004663D01*
X72663301Y68295187D01*
X72663300Y68295188D01*
X72663298Y68295189D01*
X72577953Y68336816D01*
X72577951Y68336817D01*
X72577950Y68336817D01*
X72571582Y68337712D01*
X73466454Y68337712D01*
X73791017Y68110450D01*
X73843883Y68081310D01*
X73984163Y68044914D01*
X74129023Y68049511D01*
X74266707Y68094733D01*
X74266711Y68094735D01*
X74386085Y68176915D01*
X74386087Y68176917D01*
X74425799Y68222382D01*
X74425801Y68222384D01*
X74524001Y68362632D01*
X73826085Y68851319D01*
X73466454Y68337712D01*
X72571582Y68337712D01*
X72452320Y68354473D01*
X72452319Y68354473D01*
X72327384Y68332443D01*
X72215366Y68272882D01*
X72215365Y68272881D01*
X72149413Y68204586D01*
X72149405Y68204576D01*
X71826464Y67743367D01*
X71826463Y67743365D01*
X71789606Y67667796D01*
X71784836Y67658017D01*
X71767180Y67532389D01*
X66750500Y67532389D01*
X66750500Y69152294D01*
X72756361Y69152294D01*
X72760959Y69007437D01*
X72806183Y68869743D01*
X72888365Y68750370D01*
X72933833Y68710656D01*
X72933840Y68710651D01*
X73258389Y68483399D01*
X73618021Y68997007D01*
X73618020Y68997008D01*
X73528937Y69059385D01*
X73971773Y69059385D01*
X73971774Y69059384D01*
X74669690Y68570697D01*
X74669691Y68570697D01*
X74767889Y68710939D01*
X74767895Y68710949D01*
X74797035Y68763813D01*
X74833434Y68904097D01*
X74828836Y69048954D01*
X74783612Y69186648D01*
X74701430Y69306021D01*
X74655962Y69345735D01*
X74655955Y69345741D01*
X74331406Y69572993D01*
X74331405Y69572993D01*
X73971773Y69059385D01*
X73528937Y69059385D01*
X72920104Y69485695D01*
X72920103Y69485695D01*
X72821909Y69345457D01*
X72792759Y69292576D01*
X72756361Y69152294D01*
X66750500Y69152294D01*
X66750500Y69693760D01*
X73065793Y69693760D01*
X73763709Y69205073D01*
X74123341Y69718680D01*
X74123340Y69718681D01*
X73798783Y69945938D01*
X73745912Y69975081D01*
X73605632Y70011477D01*
X73460772Y70006880D01*
X73323088Y69961658D01*
X73323084Y69961656D01*
X73203710Y69879476D01*
X73203708Y69879474D01*
X73164002Y69834016D01*
X73065793Y69693760D01*
X66750500Y69693760D01*
X66750500Y70240883D01*
X69799500Y70240883D01*
X69799500Y70122265D01*
X69830201Y70007688D01*
X69889511Y69904961D01*
X69973387Y69821085D01*
X70076114Y69761775D01*
X70190691Y69731074D01*
X70190694Y69731074D01*
X70309306Y69731074D01*
X70309309Y69731074D01*
X70423886Y69761775D01*
X70526613Y69821085D01*
X70610489Y69904961D01*
X70669799Y70007688D01*
X70700500Y70122265D01*
X70700500Y70240883D01*
X70669799Y70355460D01*
X70610489Y70458187D01*
X70526613Y70542063D01*
X70423886Y70601373D01*
X70309309Y70632074D01*
X70190691Y70632074D01*
X70076114Y70601373D01*
X70076112Y70601373D01*
X70076112Y70601372D01*
X69973387Y70542063D01*
X69973384Y70542061D01*
X69889513Y70458190D01*
X69889511Y70458187D01*
X69830201Y70355460D01*
X69799500Y70240883D01*
X66750500Y70240883D01*
X66750500Y71181980D01*
X78275440Y71181980D01*
X78275440Y71181976D01*
X78275440Y71181975D01*
X78275440Y70674392D01*
X78285897Y70602618D01*
X78340022Y70491903D01*
X78427157Y70404768D01*
X78427158Y70404768D01*
X78427160Y70404766D01*
X78537873Y70350642D01*
X78609645Y70340185D01*
X79192234Y70340186D01*
X79264007Y70350642D01*
X79374720Y70404766D01*
X79461859Y70491905D01*
X79469798Y70508146D01*
X79480744Y70520127D01*
X79487486Y70534888D01*
X79503824Y70545389D01*
X79516926Y70559728D01*
X79533223Y70564282D01*
X79546264Y70572662D01*
X79581199Y70577685D01*
X79753181Y70577685D01*
X79820220Y70558000D01*
X79864582Y70508145D01*
X79872522Y70491903D01*
X79959657Y70404768D01*
X79959658Y70404768D01*
X79959660Y70404766D01*
X80070373Y70350642D01*
X80142145Y70340185D01*
X80724734Y70340186D01*
X80796507Y70350642D01*
X80907220Y70404766D01*
X80994359Y70491905D01*
X81002298Y70508146D01*
X81013244Y70520127D01*
X81019986Y70534888D01*
X81036324Y70545389D01*
X81049426Y70559728D01*
X81065723Y70564282D01*
X81078764Y70572662D01*
X81113699Y70577685D01*
X81285681Y70577685D01*
X81352720Y70558000D01*
X81397082Y70508145D01*
X81405022Y70491903D01*
X81492157Y70404768D01*
X81492158Y70404768D01*
X81492160Y70404766D01*
X81602873Y70350642D01*
X81674645Y70340185D01*
X82257234Y70340186D01*
X82329007Y70350642D01*
X82439720Y70404766D01*
X82526859Y70491905D01*
X82534798Y70508146D01*
X82545744Y70520127D01*
X82552486Y70534888D01*
X82568824Y70545389D01*
X82581926Y70559728D01*
X82598223Y70564282D01*
X82611264Y70572662D01*
X82646199Y70577685D01*
X82818181Y70577685D01*
X82885220Y70558000D01*
X82929582Y70508145D01*
X82937522Y70491903D01*
X83024657Y70404768D01*
X83024658Y70404768D01*
X83024660Y70404766D01*
X83135373Y70350642D01*
X83207145Y70340185D01*
X83789734Y70340186D01*
X83861507Y70350642D01*
X83972220Y70404766D01*
X84059359Y70491905D01*
X84113483Y70602618D01*
X84123940Y70674390D01*
X84123939Y71181979D01*
X84113483Y71253752D01*
X84059359Y71364465D01*
X84059357Y71364467D01*
X84059357Y71364468D01*
X83972222Y71451603D01*
X83861507Y71505728D01*
X83789735Y71516185D01*
X83789729Y71516185D01*
X83207146Y71516185D01*
X83135372Y71505728D01*
X83024657Y71451603D01*
X82937522Y71364468D01*
X82929582Y71348225D01*
X82918635Y71336244D01*
X82911894Y71321482D01*
X82895555Y71310982D01*
X82882454Y71296642D01*
X82866156Y71292089D01*
X82853116Y71283708D01*
X82818181Y71278685D01*
X82646199Y71278685D01*
X82579160Y71298370D01*
X82534798Y71348225D01*
X82526859Y71364465D01*
X82526857Y71364467D01*
X82526857Y71364468D01*
X82439722Y71451603D01*
X82329007Y71505728D01*
X82257235Y71516185D01*
X82257229Y71516185D01*
X81674646Y71516185D01*
X81602872Y71505728D01*
X81492157Y71451603D01*
X81405022Y71364468D01*
X81397082Y71348225D01*
X81386135Y71336244D01*
X81379394Y71321482D01*
X81363055Y71310982D01*
X81349954Y71296642D01*
X81333656Y71292089D01*
X81320616Y71283708D01*
X81285681Y71278685D01*
X81113699Y71278685D01*
X81046660Y71298370D01*
X81002298Y71348225D01*
X80994359Y71364465D01*
X80994357Y71364467D01*
X80994357Y71364468D01*
X80907222Y71451603D01*
X80796507Y71505728D01*
X80724735Y71516185D01*
X80724729Y71516185D01*
X80142146Y71516185D01*
X80070372Y71505728D01*
X79959657Y71451603D01*
X79872522Y71364468D01*
X79864582Y71348225D01*
X79853635Y71336244D01*
X79846894Y71321482D01*
X79830555Y71310982D01*
X79817454Y71296642D01*
X79801156Y71292089D01*
X79788116Y71283708D01*
X79753181Y71278685D01*
X79581199Y71278685D01*
X79514160Y71298370D01*
X79469798Y71348225D01*
X79461859Y71364465D01*
X79461857Y71364467D01*
X79461857Y71364468D01*
X79374722Y71451603D01*
X79264007Y71505728D01*
X79192235Y71516185D01*
X79192229Y71516185D01*
X78609646Y71516185D01*
X78537872Y71505728D01*
X78427157Y71451603D01*
X78340022Y71364468D01*
X78298086Y71278685D01*
X78285897Y71253752D01*
X78275440Y71181980D01*
X66750500Y71181980D01*
X66750500Y73493030D01*
X66751280Y73506914D01*
X66751738Y73510981D01*
X66761461Y73597268D01*
X66767637Y73624329D01*
X66795358Y73703548D01*
X66807400Y73728553D01*
X66852050Y73799614D01*
X66869352Y73821312D01*
X66928703Y73880664D01*
X66950395Y73897964D01*
X67021464Y73942622D01*
X67046471Y73954664D01*
X67125682Y73982384D01*
X67152742Y73988562D01*
X67219830Y73996123D01*
X67242879Y73998720D01*
X67256766Y73999500D01*
X90876000Y73999500D01*
X90943039Y73979815D01*
G37*
%TD.AperFunction*%
%TA.AperFunction,Conductor*%
G36*
X80411106Y54356887D02*
G01*
X80414823Y54354498D01*
X80415577Y54353994D01*
X80415578Y54353994D01*
X80415580Y54353993D01*
X80484995Y54340185D01*
X80671440Y54340185D01*
X80738479Y54320500D01*
X80784234Y54267696D01*
X80795440Y54216185D01*
X80795440Y54029743D01*
X80795440Y54029741D01*
X80795439Y54029741D01*
X80809247Y53960326D01*
X80809250Y53960320D01*
X80809749Y53959573D01*
X80810335Y53957699D01*
X80813922Y53949041D01*
X80813146Y53948720D01*
X80830625Y53892894D01*
X80829116Y53871275D01*
X80824858Y53844410D01*
X80809249Y53821048D01*
X80795440Y53751627D01*
X80795440Y53658785D01*
X80793911Y53649137D01*
X80782957Y53626037D01*
X80775755Y53601508D01*
X80764995Y53588156D01*
X80763976Y53586006D01*
X80762545Y53585116D01*
X80759121Y53580866D01*
X80722940Y53544685D01*
X80722940Y53102185D01*
X80703255Y53035146D01*
X80650451Y52989391D01*
X80598940Y52978185D01*
X80592940Y52978185D01*
X80525901Y52997870D01*
X80480146Y53050674D01*
X80468940Y53102185D01*
X80468940Y53544685D01*
X80468433Y53544685D01*
X80468415Y53544684D01*
X80418694Y53538138D01*
X80418683Y53538135D01*
X80398342Y53528650D01*
X80329264Y53518159D01*
X80293538Y53528650D01*
X80273196Y53538135D01*
X80273185Y53538138D01*
X80223464Y53544684D01*
X80223447Y53544685D01*
X80222940Y53544685D01*
X80222940Y53102185D01*
X80220389Y53093500D01*
X80221678Y53084538D01*
X80210699Y53060498D01*
X80203255Y53035146D01*
X80196414Y53029219D01*
X80192653Y53020982D01*
X80170418Y53006693D01*
X80150451Y52989391D01*
X80139936Y52987104D01*
X80133875Y52983208D01*
X80098940Y52978185D01*
X80092940Y52978185D01*
X80025901Y52997870D01*
X79980146Y53050674D01*
X79968940Y53102185D01*
X79968940Y53544685D01*
X79968433Y53544685D01*
X79968415Y53544684D01*
X79918694Y53538138D01*
X79918683Y53538135D01*
X79809543Y53487243D01*
X79799805Y53477504D01*
X79772882Y53462803D01*
X79747059Y53446208D01*
X79740858Y53445317D01*
X79738482Y53444019D01*
X79712124Y53441185D01*
X79623802Y53441185D01*
X79556763Y53460870D01*
X79536121Y53477504D01*
X79499940Y53513685D01*
X79057440Y53513685D01*
X78990401Y53533370D01*
X78944646Y53586174D01*
X78933440Y53637685D01*
X78933440Y53643685D01*
X78953125Y53710724D01*
X79005929Y53756479D01*
X79057440Y53767685D01*
X79499940Y53767685D01*
X79499940Y53768193D01*
X79499938Y53768210D01*
X79493392Y53817933D01*
X79483905Y53838278D01*
X79473412Y53907355D01*
X79483905Y53943092D01*
X79493392Y53963438D01*
X79499938Y54013161D01*
X79499940Y54013178D01*
X79499940Y54013685D01*
X79057440Y54013685D01*
X79048754Y54016236D01*
X79039793Y54014947D01*
X79015752Y54025926D01*
X78990401Y54033370D01*
X78984473Y54040211D01*
X78976237Y54043972D01*
X78961947Y54066207D01*
X78944646Y54086174D01*
X78942358Y54096689D01*
X78938463Y54102750D01*
X78933440Y54137685D01*
X78933440Y54143685D01*
X78953125Y54210724D01*
X79005929Y54256479D01*
X79057440Y54267685D01*
X79499940Y54267685D01*
X79536121Y54303866D01*
X79597444Y54337351D01*
X79623802Y54340185D01*
X79706884Y54340185D01*
X79776299Y54353993D01*
X79776299Y54353994D01*
X79776303Y54353994D01*
X79777048Y54354493D01*
X79778918Y54355078D01*
X79787583Y54358667D01*
X79787904Y54357892D01*
X79843725Y54375371D01*
X79911106Y54356887D01*
X79914823Y54354498D01*
X79915577Y54353994D01*
X79915578Y54353994D01*
X79915580Y54353993D01*
X79984995Y54340185D01*
X79984998Y54340185D01*
X80206884Y54340185D01*
X80276299Y54353993D01*
X80276299Y54353994D01*
X80276303Y54353994D01*
X80277048Y54354493D01*
X80278918Y54355078D01*
X80287583Y54358667D01*
X80287904Y54357892D01*
X80343725Y54375371D01*
X80411106Y54356887D01*
G37*
%TD.AperFunction*%
%TA.AperFunction,Conductor*%
G36*
X81732372Y63032676D02*
G01*
X81748752Y63032528D01*
X81775984Y63028362D01*
X81801769Y63011133D01*
X81860252Y62999500D01*
X81964644Y62999500D01*
X81973965Y62998074D01*
X82037257Y62968478D01*
X82074500Y62909362D01*
X82078152Y62859315D01*
X82074910Y62834695D01*
X82330000Y62579606D01*
X82585087Y62834693D01*
X82581846Y62859313D01*
X82584481Y62876216D01*
X82582047Y62893147D01*
X82589753Y62910021D01*
X82592611Y62928349D01*
X82603965Y62941143D01*
X82611072Y62956703D01*
X82626678Y62966733D01*
X82638991Y62980605D01*
X82655756Y62985420D01*
X82669850Y62994477D01*
X82704785Y62999500D01*
X82805500Y62999500D01*
X82872539Y62979815D01*
X82918294Y62927011D01*
X82929500Y62875500D01*
X82929500Y62774788D01*
X82909815Y62707749D01*
X82857011Y62661994D01*
X82789317Y62651849D01*
X82764694Y62655091D01*
X82509605Y62400000D01*
X82509605Y62399999D01*
X82764691Y62144913D01*
X82789314Y62148154D01*
X82858349Y62137389D01*
X82910605Y62091009D01*
X82928074Y62043966D01*
X82929500Y62034645D01*
X82929500Y61930252D01*
X82941133Y61871769D01*
X82958360Y61845987D01*
X82962527Y61818751D01*
X82961392Y61810324D01*
X82963933Y61802209D01*
X82956801Y61776217D01*
X82953206Y61749506D01*
X82947696Y61743031D01*
X82945446Y61734829D01*
X82943058Y61731113D01*
X82941132Y61728232D01*
X82941131Y61728230D01*
X82929500Y61669753D01*
X82929500Y61574788D01*
X82909815Y61507749D01*
X82857011Y61461994D01*
X82789317Y61451849D01*
X82764694Y61455091D01*
X82509605Y61200000D01*
X82509605Y61199999D01*
X82792078Y60917526D01*
X82801149Y60900914D01*
X82814289Y60887288D01*
X82817547Y60870883D01*
X82825563Y60856203D01*
X82824212Y60837323D01*
X82827900Y60818757D01*
X82820827Y60789983D01*
X82820579Y60786511D01*
X82819774Y60784411D01*
X82817377Y60778324D01*
X82817156Y60778040D01*
X82816570Y60776624D01*
X82816180Y60776786D01*
X82809794Y60768570D01*
X82807603Y60761107D01*
X82817741Y60747844D01*
X82818827Y60734538D01*
X82824518Y60722461D01*
X82825628Y60708175D01*
X82825795Y60708184D01*
X82826002Y60704596D01*
X82828948Y60679196D01*
X82828949Y60679193D01*
X82874855Y60575224D01*
X82893181Y60556898D01*
X82907884Y60529971D01*
X82924477Y60504152D01*
X82925368Y60497952D01*
X82926666Y60495575D01*
X82929500Y60469217D01*
X82929500Y60374788D01*
X82909815Y60307749D01*
X82857011Y60261994D01*
X82789317Y60251849D01*
X82764694Y60255091D01*
X82509605Y60000000D01*
X82509605Y59999999D01*
X82764691Y59744913D01*
X82789314Y59748154D01*
X82858349Y59737389D01*
X82910605Y59691009D01*
X82928074Y59643966D01*
X82929500Y59634645D01*
X82929500Y59530252D01*
X82941133Y59471769D01*
X82958360Y59445987D01*
X82962527Y59418751D01*
X82961392Y59410324D01*
X82963933Y59402209D01*
X82956801Y59376217D01*
X82953206Y59349506D01*
X82947696Y59343031D01*
X82945446Y59334829D01*
X82943058Y59331113D01*
X82941132Y59328232D01*
X82941131Y59328230D01*
X82929500Y59269753D01*
X82929500Y59174788D01*
X82909815Y59107749D01*
X82857011Y59061994D01*
X82789317Y59051849D01*
X82764694Y59055091D01*
X82509605Y58800000D01*
X82509605Y58799999D01*
X82764691Y58544913D01*
X82789314Y58548154D01*
X82806215Y58545519D01*
X82823147Y58547953D01*
X82840020Y58540248D01*
X82858349Y58537389D01*
X82871142Y58526035D01*
X82886703Y58518928D01*
X82896732Y58503322D01*
X82910605Y58491009D01*
X82915419Y58474244D01*
X82924477Y58460150D01*
X82929500Y58425215D01*
X82929500Y58324500D01*
X82909815Y58257461D01*
X82857011Y58211706D01*
X82805500Y58200500D01*
X82704786Y58200500D01*
X82637747Y58220185D01*
X82591992Y58272989D01*
X82581847Y58340685D01*
X82585088Y58365308D01*
X82330001Y58620395D01*
X82074910Y58365307D01*
X82078152Y58340685D01*
X82067386Y58271650D01*
X82021006Y58219394D01*
X81973964Y58201926D01*
X81964642Y58200500D01*
X81860252Y58200500D01*
X81801769Y58188867D01*
X81775986Y58171640D01*
X81748751Y58167473D01*
X81740323Y58168608D01*
X81732209Y58166067D01*
X81706221Y58173198D01*
X81679506Y58176793D01*
X81673028Y58182305D01*
X81664829Y58184554D01*
X81661113Y58186942D01*
X81658231Y58188868D01*
X81658229Y58188869D01*
X81599752Y58200500D01*
X81599748Y58200500D01*
X81504786Y58200500D01*
X81437747Y58220185D01*
X81391992Y58272989D01*
X81381847Y58340685D01*
X81385088Y58365308D01*
X81130001Y58620395D01*
X80874910Y58365307D01*
X80878152Y58340685D01*
X80867386Y58271650D01*
X80821006Y58219394D01*
X80773964Y58201926D01*
X80764642Y58200500D01*
X80660252Y58200500D01*
X80601769Y58188867D01*
X80575986Y58171640D01*
X80548751Y58167473D01*
X80540323Y58168608D01*
X80532209Y58166067D01*
X80506221Y58173198D01*
X80479506Y58176793D01*
X80473028Y58182305D01*
X80464829Y58184554D01*
X80461113Y58186942D01*
X80458231Y58188868D01*
X80458229Y58188869D01*
X80399752Y58200500D01*
X80399748Y58200500D01*
X80304786Y58200500D01*
X80237747Y58220185D01*
X80191992Y58272989D01*
X80181847Y58340685D01*
X80185088Y58365308D01*
X79930001Y58620395D01*
X79674910Y58365307D01*
X79678152Y58340685D01*
X79667386Y58271650D01*
X79621006Y58219394D01*
X79573964Y58201926D01*
X79564642Y58200500D01*
X79460252Y58200500D01*
X79401769Y58188867D01*
X79375986Y58171640D01*
X79348751Y58167473D01*
X79340323Y58168608D01*
X79332209Y58166067D01*
X79306221Y58173198D01*
X79279506Y58176793D01*
X79273028Y58182305D01*
X79264829Y58184554D01*
X79261113Y58186942D01*
X79258231Y58188868D01*
X79258229Y58188869D01*
X79199752Y58200500D01*
X79199748Y58200500D01*
X79104786Y58200500D01*
X79037747Y58220185D01*
X78991992Y58272989D01*
X78981847Y58340685D01*
X78985088Y58365308D01*
X78730001Y58620395D01*
X78474910Y58365307D01*
X78478152Y58340685D01*
X78475516Y58323785D01*
X78477951Y58306853D01*
X78470244Y58289978D01*
X78467386Y58271650D01*
X78456032Y58258859D01*
X78448926Y58243297D01*
X78433319Y58233268D01*
X78421006Y58219394D01*
X78404239Y58214580D01*
X78390148Y58205523D01*
X78355213Y58200500D01*
X78254500Y58200500D01*
X78187461Y58220185D01*
X78141706Y58272989D01*
X78130500Y58324500D01*
X78130500Y58425215D01*
X78150185Y58492254D01*
X78202989Y58538009D01*
X78270687Y58548154D01*
X78295307Y58544913D01*
X78550394Y58799999D01*
X78550394Y58800000D01*
X78530503Y58819891D01*
X78630000Y58819891D01*
X78630000Y58780109D01*
X78645224Y58743355D01*
X78673355Y58715224D01*
X78710109Y58700000D01*
X78749891Y58700000D01*
X78786645Y58715224D01*
X78814776Y58743355D01*
X78830000Y58780109D01*
X78830000Y58800000D01*
X78909605Y58800000D01*
X78909605Y58799999D01*
X79164692Y58544912D01*
X79199653Y58605466D01*
X79210225Y58644920D01*
X79246590Y58704581D01*
X79309437Y58735110D01*
X79378812Y58726815D01*
X79432690Y58682330D01*
X79449775Y58644920D01*
X79460347Y58605464D01*
X79460348Y58605461D01*
X79495306Y58544913D01*
X79495307Y58544912D01*
X79750394Y58799999D01*
X79750394Y58800000D01*
X79730503Y58819891D01*
X79830000Y58819891D01*
X79830000Y58780109D01*
X79845224Y58743355D01*
X79873355Y58715224D01*
X79910109Y58700000D01*
X79949891Y58700000D01*
X79986645Y58715224D01*
X80014776Y58743355D01*
X80030000Y58780109D01*
X80030000Y58800000D01*
X80109605Y58800000D01*
X80109605Y58799999D01*
X80364692Y58544912D01*
X80399653Y58605466D01*
X80410225Y58644920D01*
X80446590Y58704581D01*
X80509437Y58735110D01*
X80578812Y58726815D01*
X80632690Y58682330D01*
X80649775Y58644920D01*
X80660347Y58605464D01*
X80660348Y58605461D01*
X80695306Y58544913D01*
X80695307Y58544912D01*
X80950394Y58799999D01*
X80950394Y58800000D01*
X80930503Y58819891D01*
X81030000Y58819891D01*
X81030000Y58780109D01*
X81045224Y58743355D01*
X81073355Y58715224D01*
X81110109Y58700000D01*
X81149891Y58700000D01*
X81186645Y58715224D01*
X81214776Y58743355D01*
X81230000Y58780109D01*
X81230000Y58800000D01*
X81309605Y58800000D01*
X81309605Y58799999D01*
X81564692Y58544912D01*
X81599653Y58605466D01*
X81610225Y58644920D01*
X81646590Y58704581D01*
X81709437Y58735110D01*
X81778812Y58726815D01*
X81832690Y58682330D01*
X81849775Y58644920D01*
X81860347Y58605464D01*
X81860348Y58605461D01*
X81895306Y58544913D01*
X81895307Y58544912D01*
X82150394Y58799999D01*
X82150394Y58800000D01*
X82130503Y58819891D01*
X82230000Y58819891D01*
X82230000Y58780109D01*
X82245224Y58743355D01*
X82273355Y58715224D01*
X82310109Y58700000D01*
X82349891Y58700000D01*
X82386645Y58715224D01*
X82414776Y58743355D01*
X82430000Y58780109D01*
X82430000Y58819891D01*
X82414776Y58856645D01*
X82386645Y58884776D01*
X82349891Y58900000D01*
X82310109Y58900000D01*
X82273355Y58884776D01*
X82245224Y58856645D01*
X82230000Y58819891D01*
X82130503Y58819891D01*
X81895305Y59055089D01*
X81860347Y58994538D01*
X81849775Y58955080D01*
X81813410Y58895420D01*
X81750563Y58864891D01*
X81681187Y58873186D01*
X81627309Y58917671D01*
X81610225Y58955080D01*
X81599651Y58994541D01*
X81564693Y59055090D01*
X81309605Y58800000D01*
X81230000Y58800000D01*
X81230000Y58819891D01*
X81214776Y58856645D01*
X81186645Y58884776D01*
X81149891Y58900000D01*
X81110109Y58900000D01*
X81073355Y58884776D01*
X81045224Y58856645D01*
X81030000Y58819891D01*
X80930503Y58819891D01*
X80695306Y59055089D01*
X80660347Y58994538D01*
X80649775Y58955080D01*
X80613410Y58895420D01*
X80550563Y58864891D01*
X80481187Y58873186D01*
X80427309Y58917671D01*
X80410225Y58955080D01*
X80399651Y58994541D01*
X80364693Y59055090D01*
X80109605Y58800000D01*
X80030000Y58800000D01*
X80030000Y58819891D01*
X80014776Y58856645D01*
X79986645Y58884776D01*
X79949891Y58900000D01*
X79910109Y58900000D01*
X79873355Y58884776D01*
X79845224Y58856645D01*
X79830000Y58819891D01*
X79730503Y58819891D01*
X79495305Y59055089D01*
X79460347Y58994538D01*
X79449775Y58955080D01*
X79413410Y58895420D01*
X79350563Y58864891D01*
X79281187Y58873186D01*
X79227309Y58917671D01*
X79210225Y58955080D01*
X79199651Y58994541D01*
X79164693Y59055090D01*
X78909605Y58800000D01*
X78830000Y58800000D01*
X78830000Y58819891D01*
X78814776Y58856645D01*
X78786645Y58884776D01*
X78749891Y58900000D01*
X78710109Y58900000D01*
X78673355Y58884776D01*
X78645224Y58856645D01*
X78630000Y58819891D01*
X78530503Y58819891D01*
X78295305Y59055090D01*
X78270685Y59051848D01*
X78201650Y59062614D01*
X78149394Y59108994D01*
X78131926Y59156035D01*
X78130500Y59165357D01*
X78130500Y59269748D01*
X78118867Y59328231D01*
X78101638Y59354016D01*
X78097472Y59381248D01*
X78098606Y59389674D01*
X78096066Y59397785D01*
X78103196Y59423777D01*
X78106792Y59450493D01*
X78112301Y59456969D01*
X78114550Y59465165D01*
X78116945Y59468892D01*
X78118867Y59471769D01*
X78118868Y59471771D01*
X78130499Y59530248D01*
X78130500Y59530250D01*
X78130500Y59565307D01*
X78474910Y59565307D01*
X78535459Y59530349D01*
X78535458Y59530349D01*
X78574920Y59519775D01*
X78634580Y59483410D01*
X78665109Y59420563D01*
X78656814Y59351187D01*
X78612329Y59297309D01*
X78574920Y59280225D01*
X78535462Y59269653D01*
X78474911Y59234694D01*
X78730000Y58979606D01*
X78985088Y59234693D01*
X78985087Y59234694D01*
X78924539Y59269652D01*
X78924536Y59269653D01*
X78885080Y59280225D01*
X78825419Y59316590D01*
X78794890Y59379437D01*
X78803185Y59448812D01*
X78847670Y59502690D01*
X78885080Y59519775D01*
X78924534Y59530347D01*
X78985086Y59565307D01*
X79674910Y59565307D01*
X79735459Y59530349D01*
X79735458Y59530349D01*
X79774920Y59519775D01*
X79834580Y59483410D01*
X79865109Y59420563D01*
X79856814Y59351187D01*
X79812329Y59297309D01*
X79774920Y59280225D01*
X79735462Y59269653D01*
X79674911Y59234694D01*
X79930000Y58979606D01*
X80185088Y59234693D01*
X80185087Y59234694D01*
X80124539Y59269652D01*
X80124536Y59269653D01*
X80085080Y59280225D01*
X80025419Y59316590D01*
X79994890Y59379437D01*
X80003185Y59448812D01*
X80047670Y59502690D01*
X80085080Y59519775D01*
X80124534Y59530347D01*
X80185086Y59565307D01*
X80874910Y59565307D01*
X80935459Y59530349D01*
X80935458Y59530349D01*
X80974920Y59519775D01*
X81034580Y59483410D01*
X81065109Y59420563D01*
X81056814Y59351187D01*
X81012329Y59297309D01*
X80974920Y59280225D01*
X80935462Y59269653D01*
X80874911Y59234694D01*
X81130000Y58979606D01*
X81385088Y59234693D01*
X81385087Y59234694D01*
X81324539Y59269652D01*
X81324536Y59269653D01*
X81285080Y59280225D01*
X81225419Y59316590D01*
X81194890Y59379437D01*
X81203185Y59448812D01*
X81247670Y59502690D01*
X81285080Y59519775D01*
X81324534Y59530347D01*
X81385086Y59565307D01*
X82074910Y59565307D01*
X82135459Y59530349D01*
X82135458Y59530349D01*
X82174920Y59519775D01*
X82234580Y59483410D01*
X82265109Y59420563D01*
X82256814Y59351187D01*
X82212329Y59297309D01*
X82174920Y59280225D01*
X82135462Y59269653D01*
X82074911Y59234694D01*
X82330000Y58979606D01*
X82585088Y59234693D01*
X82585087Y59234694D01*
X82524539Y59269652D01*
X82524536Y59269653D01*
X82485080Y59280225D01*
X82425419Y59316590D01*
X82394890Y59379437D01*
X82403185Y59448812D01*
X82447670Y59502690D01*
X82485080Y59519775D01*
X82524534Y59530347D01*
X82585088Y59565308D01*
X82330001Y59820395D01*
X82074910Y59565307D01*
X81385086Y59565307D01*
X81385088Y59565308D01*
X81130001Y59820395D01*
X80874910Y59565307D01*
X80185086Y59565307D01*
X80185088Y59565308D01*
X79930001Y59820395D01*
X79674910Y59565307D01*
X78985086Y59565307D01*
X78985088Y59565308D01*
X78730001Y59820395D01*
X78474910Y59565307D01*
X78130500Y59565307D01*
X78130500Y59625215D01*
X78150185Y59692254D01*
X78202989Y59738009D01*
X78270687Y59748154D01*
X78295307Y59744913D01*
X78550394Y59999999D01*
X78550394Y60000000D01*
X78530503Y60019891D01*
X78630000Y60019891D01*
X78630000Y59980109D01*
X78645224Y59943355D01*
X78673355Y59915224D01*
X78710109Y59900000D01*
X78749891Y59900000D01*
X78786645Y59915224D01*
X78814776Y59943355D01*
X78830000Y59980109D01*
X78830000Y60000000D01*
X78909605Y60000000D01*
X78909605Y59999999D01*
X79164692Y59744912D01*
X79199653Y59805466D01*
X79210225Y59844920D01*
X79246590Y59904581D01*
X79309437Y59935110D01*
X79378812Y59926815D01*
X79432690Y59882330D01*
X79449775Y59844920D01*
X79460347Y59805464D01*
X79460348Y59805461D01*
X79495306Y59744913D01*
X79495307Y59744912D01*
X79750394Y59999999D01*
X79750394Y60000000D01*
X79730503Y60019891D01*
X79830000Y60019891D01*
X79830000Y59980109D01*
X79845224Y59943355D01*
X79873355Y59915224D01*
X79910109Y59900000D01*
X79949891Y59900000D01*
X79986645Y59915224D01*
X80014776Y59943355D01*
X80030000Y59980109D01*
X80030000Y60000000D01*
X80109605Y60000000D01*
X80109605Y59999999D01*
X80364692Y59744912D01*
X80399653Y59805466D01*
X80410225Y59844920D01*
X80446590Y59904581D01*
X80509437Y59935110D01*
X80578812Y59926815D01*
X80632690Y59882330D01*
X80649775Y59844920D01*
X80660347Y59805464D01*
X80660348Y59805461D01*
X80695306Y59744913D01*
X80695307Y59744912D01*
X80950394Y59999999D01*
X80950394Y60000000D01*
X80930503Y60019891D01*
X81030000Y60019891D01*
X81030000Y59980109D01*
X81045224Y59943355D01*
X81073355Y59915224D01*
X81110109Y59900000D01*
X81149891Y59900000D01*
X81186645Y59915224D01*
X81214776Y59943355D01*
X81230000Y59980109D01*
X81230000Y60000000D01*
X81309605Y60000000D01*
X81309605Y59999999D01*
X81564692Y59744912D01*
X81599653Y59805466D01*
X81610225Y59844920D01*
X81646590Y59904581D01*
X81709437Y59935110D01*
X81778812Y59926815D01*
X81832690Y59882330D01*
X81849775Y59844920D01*
X81860347Y59805464D01*
X81860348Y59805461D01*
X81895306Y59744913D01*
X81895307Y59744912D01*
X82150394Y59999999D01*
X82150394Y60000000D01*
X82130503Y60019891D01*
X82230000Y60019891D01*
X82230000Y59980109D01*
X82245224Y59943355D01*
X82273355Y59915224D01*
X82310109Y59900000D01*
X82349891Y59900000D01*
X82386645Y59915224D01*
X82414776Y59943355D01*
X82430000Y59980109D01*
X82430000Y60019891D01*
X82414776Y60056645D01*
X82386645Y60084776D01*
X82349891Y60100000D01*
X82310109Y60100000D01*
X82273355Y60084776D01*
X82245224Y60056645D01*
X82230000Y60019891D01*
X82130503Y60019891D01*
X81895305Y60255089D01*
X81860347Y60194538D01*
X81849775Y60155080D01*
X81813410Y60095420D01*
X81750563Y60064891D01*
X81681187Y60073186D01*
X81627309Y60117671D01*
X81610225Y60155080D01*
X81599651Y60194541D01*
X81564693Y60255090D01*
X81309605Y60000000D01*
X81230000Y60000000D01*
X81230000Y60019891D01*
X81214776Y60056645D01*
X81186645Y60084776D01*
X81149891Y60100000D01*
X81110109Y60100000D01*
X81073355Y60084776D01*
X81045224Y60056645D01*
X81030000Y60019891D01*
X80930503Y60019891D01*
X80695305Y60255089D01*
X80660347Y60194538D01*
X80649775Y60155080D01*
X80613410Y60095420D01*
X80550563Y60064891D01*
X80481187Y60073186D01*
X80427309Y60117671D01*
X80410225Y60155080D01*
X80399651Y60194541D01*
X80364693Y60255090D01*
X80109605Y60000000D01*
X80030000Y60000000D01*
X80030000Y60019891D01*
X80014776Y60056645D01*
X79986645Y60084776D01*
X79949891Y60100000D01*
X79910109Y60100000D01*
X79873355Y60084776D01*
X79845224Y60056645D01*
X79830000Y60019891D01*
X79730503Y60019891D01*
X79495306Y60255089D01*
X79460347Y60194538D01*
X79449775Y60155080D01*
X79413410Y60095420D01*
X79350563Y60064891D01*
X79281187Y60073186D01*
X79227309Y60117671D01*
X79210225Y60155080D01*
X79199651Y60194541D01*
X79164693Y60255090D01*
X78909605Y60000000D01*
X78830000Y60000000D01*
X78830000Y60019891D01*
X78814776Y60056645D01*
X78786645Y60084776D01*
X78749891Y60100000D01*
X78710109Y60100000D01*
X78673355Y60084776D01*
X78645224Y60056645D01*
X78630000Y60019891D01*
X78530503Y60019891D01*
X78295305Y60255090D01*
X78270685Y60251848D01*
X78201650Y60262614D01*
X78149394Y60308994D01*
X78131926Y60356035D01*
X78130500Y60365357D01*
X78130500Y60469748D01*
X78118867Y60528231D01*
X78101638Y60554016D01*
X78097472Y60581248D01*
X78098606Y60589674D01*
X78096066Y60597785D01*
X78103196Y60623777D01*
X78106792Y60650493D01*
X78112301Y60656969D01*
X78114550Y60665165D01*
X78116945Y60668892D01*
X78118867Y60671769D01*
X78118868Y60671771D01*
X78130499Y60730248D01*
X78130500Y60730250D01*
X78130500Y60765307D01*
X78474910Y60765307D01*
X78535459Y60730349D01*
X78535458Y60730349D01*
X78574920Y60719775D01*
X78634580Y60683410D01*
X78665109Y60620563D01*
X78656814Y60551187D01*
X78612329Y60497309D01*
X78574920Y60480225D01*
X78535462Y60469653D01*
X78474911Y60434694D01*
X78730000Y60179606D01*
X78985088Y60434693D01*
X78985087Y60434694D01*
X78924539Y60469652D01*
X78924536Y60469653D01*
X78885080Y60480225D01*
X78825419Y60516590D01*
X78794890Y60579437D01*
X78803185Y60648812D01*
X78847670Y60702690D01*
X78885080Y60719775D01*
X78924534Y60730347D01*
X78985086Y60765307D01*
X79674910Y60765307D01*
X79735459Y60730349D01*
X79735458Y60730349D01*
X79774920Y60719775D01*
X79834580Y60683410D01*
X79865109Y60620563D01*
X79856814Y60551187D01*
X79812329Y60497309D01*
X79774920Y60480225D01*
X79735462Y60469653D01*
X79674911Y60434694D01*
X79930000Y60179606D01*
X80185088Y60434693D01*
X80185087Y60434694D01*
X80124539Y60469652D01*
X80124536Y60469653D01*
X80085080Y60480225D01*
X80025419Y60516590D01*
X79994890Y60579437D01*
X80003185Y60648812D01*
X80047670Y60702690D01*
X80085080Y60719775D01*
X80124534Y60730347D01*
X80185086Y60765307D01*
X80874910Y60765307D01*
X80935459Y60730349D01*
X80935458Y60730349D01*
X80974920Y60719775D01*
X81034580Y60683410D01*
X81065109Y60620563D01*
X81056814Y60551187D01*
X81012329Y60497309D01*
X80974920Y60480225D01*
X80935462Y60469653D01*
X80874911Y60434694D01*
X81130000Y60179606D01*
X81385088Y60434693D01*
X81385087Y60434694D01*
X81324539Y60469652D01*
X81324536Y60469653D01*
X81285080Y60480225D01*
X81225419Y60516590D01*
X81194890Y60579437D01*
X81203185Y60648812D01*
X81247670Y60702690D01*
X81285080Y60719775D01*
X81324534Y60730347D01*
X81385086Y60765307D01*
X82074910Y60765307D01*
X82135459Y60730349D01*
X82135458Y60730349D01*
X82174920Y60719775D01*
X82234580Y60683410D01*
X82265109Y60620563D01*
X82256814Y60551187D01*
X82212329Y60497309D01*
X82174920Y60480225D01*
X82135462Y60469653D01*
X82074911Y60434694D01*
X82330000Y60179606D01*
X82585088Y60434693D01*
X82585087Y60434694D01*
X82524539Y60469652D01*
X82524536Y60469653D01*
X82485080Y60480225D01*
X82425419Y60516590D01*
X82394890Y60579437D01*
X82403185Y60648812D01*
X82447670Y60702690D01*
X82456656Y60708230D01*
X82575637Y60774759D01*
X82330001Y61020395D01*
X82074910Y60765307D01*
X81385086Y60765307D01*
X81385088Y60765308D01*
X81130001Y61020395D01*
X80874910Y60765307D01*
X80185086Y60765307D01*
X80185088Y60765308D01*
X79930001Y61020395D01*
X79674910Y60765307D01*
X78985086Y60765307D01*
X78985088Y60765308D01*
X78730001Y61020395D01*
X78474910Y60765307D01*
X78130500Y60765307D01*
X78130500Y60825215D01*
X78150185Y60892254D01*
X78202989Y60938009D01*
X78270687Y60948154D01*
X78295307Y60944913D01*
X78550394Y61199999D01*
X78550394Y61200000D01*
X78530503Y61219891D01*
X78630000Y61219891D01*
X78630000Y61180109D01*
X78645224Y61143355D01*
X78673355Y61115224D01*
X78710109Y61100000D01*
X78749891Y61100000D01*
X78786645Y61115224D01*
X78814776Y61143355D01*
X78830000Y61180109D01*
X78830000Y61200000D01*
X78909605Y61200000D01*
X78909605Y61199999D01*
X79164692Y60944912D01*
X79199653Y61005466D01*
X79210225Y61044920D01*
X79246590Y61104581D01*
X79309437Y61135110D01*
X79378812Y61126815D01*
X79432690Y61082330D01*
X79449775Y61044920D01*
X79460347Y61005464D01*
X79460348Y61005461D01*
X79495306Y60944913D01*
X79495307Y60944912D01*
X79750394Y61199999D01*
X79750394Y61200000D01*
X79730503Y61219891D01*
X79830000Y61219891D01*
X79830000Y61180109D01*
X79845224Y61143355D01*
X79873355Y61115224D01*
X79910109Y61100000D01*
X79949891Y61100000D01*
X79986645Y61115224D01*
X80014776Y61143355D01*
X80030000Y61180109D01*
X80030000Y61200000D01*
X80109605Y61200000D01*
X80109605Y61199999D01*
X80364692Y60944912D01*
X80399653Y61005466D01*
X80410225Y61044920D01*
X80446590Y61104581D01*
X80509437Y61135110D01*
X80578812Y61126815D01*
X80632690Y61082330D01*
X80649775Y61044920D01*
X80660347Y61005464D01*
X80660348Y61005461D01*
X80695306Y60944913D01*
X80695307Y60944912D01*
X80950394Y61199999D01*
X80950394Y61200000D01*
X80930503Y61219891D01*
X81030000Y61219891D01*
X81030000Y61180109D01*
X81045224Y61143355D01*
X81073355Y61115224D01*
X81110109Y61100000D01*
X81149891Y61100000D01*
X81186645Y61115224D01*
X81214776Y61143355D01*
X81230000Y61180109D01*
X81230000Y61200000D01*
X81309605Y61200000D01*
X81309605Y61199999D01*
X81564692Y60944912D01*
X81599653Y61005466D01*
X81610225Y61044920D01*
X81646590Y61104581D01*
X81709437Y61135110D01*
X81778812Y61126815D01*
X81832690Y61082330D01*
X81849775Y61044920D01*
X81860347Y61005464D01*
X81860348Y61005461D01*
X81895306Y60944913D01*
X81895307Y60944912D01*
X82150394Y61199999D01*
X82150394Y61200000D01*
X82130503Y61219891D01*
X82230000Y61219891D01*
X82230000Y61180109D01*
X82245224Y61143355D01*
X82273355Y61115224D01*
X82310109Y61100000D01*
X82349891Y61100000D01*
X82386645Y61115224D01*
X82414776Y61143355D01*
X82430000Y61180109D01*
X82430000Y61219891D01*
X82414776Y61256645D01*
X82386645Y61284776D01*
X82349891Y61300000D01*
X82310109Y61300000D01*
X82273355Y61284776D01*
X82245224Y61256645D01*
X82230000Y61219891D01*
X82130503Y61219891D01*
X81895305Y61455089D01*
X81860347Y61394538D01*
X81849775Y61355080D01*
X81813410Y61295420D01*
X81750563Y61264891D01*
X81681187Y61273186D01*
X81627309Y61317671D01*
X81610225Y61355080D01*
X81599651Y61394541D01*
X81564693Y61455090D01*
X81309605Y61200000D01*
X81230000Y61200000D01*
X81230000Y61219891D01*
X81214776Y61256645D01*
X81186645Y61284776D01*
X81149891Y61300000D01*
X81110109Y61300000D01*
X81073355Y61284776D01*
X81045224Y61256645D01*
X81030000Y61219891D01*
X80930503Y61219891D01*
X80695306Y61455089D01*
X80660347Y61394538D01*
X80649775Y61355080D01*
X80613410Y61295420D01*
X80550563Y61264891D01*
X80481187Y61273186D01*
X80427309Y61317671D01*
X80410225Y61355080D01*
X80399651Y61394541D01*
X80364693Y61455090D01*
X80109605Y61200000D01*
X80030000Y61200000D01*
X80030000Y61219891D01*
X80014776Y61256645D01*
X79986645Y61284776D01*
X79949891Y61300000D01*
X79910109Y61300000D01*
X79873355Y61284776D01*
X79845224Y61256645D01*
X79830000Y61219891D01*
X79730503Y61219891D01*
X79495305Y61455089D01*
X79460347Y61394538D01*
X79449775Y61355080D01*
X79413410Y61295420D01*
X79350563Y61264891D01*
X79281187Y61273186D01*
X79227309Y61317671D01*
X79210225Y61355080D01*
X79199651Y61394541D01*
X79164693Y61455090D01*
X78909605Y61200000D01*
X78830000Y61200000D01*
X78830000Y61219891D01*
X78814776Y61256645D01*
X78786645Y61284776D01*
X78749891Y61300000D01*
X78710109Y61300000D01*
X78673355Y61284776D01*
X78645224Y61256645D01*
X78630000Y61219891D01*
X78530503Y61219891D01*
X78295305Y61455090D01*
X78270685Y61451848D01*
X78201650Y61462614D01*
X78149394Y61508994D01*
X78131926Y61556035D01*
X78130500Y61565357D01*
X78130500Y61669748D01*
X78118867Y61728231D01*
X78101638Y61754016D01*
X78097472Y61781248D01*
X78098606Y61789674D01*
X78096066Y61797785D01*
X78103196Y61823777D01*
X78106792Y61850493D01*
X78112301Y61856969D01*
X78114550Y61865165D01*
X78116945Y61868892D01*
X78118867Y61871769D01*
X78118868Y61871771D01*
X78130499Y61930248D01*
X78130500Y61930250D01*
X78130500Y61965307D01*
X78474910Y61965307D01*
X78535459Y61930349D01*
X78535458Y61930349D01*
X78574920Y61919775D01*
X78634580Y61883410D01*
X78665109Y61820563D01*
X78656814Y61751187D01*
X78612329Y61697309D01*
X78574920Y61680225D01*
X78535462Y61669653D01*
X78474911Y61634694D01*
X78730000Y61379606D01*
X78985088Y61634693D01*
X78985087Y61634694D01*
X78924539Y61669652D01*
X78924536Y61669653D01*
X78885080Y61680225D01*
X78825419Y61716590D01*
X78794890Y61779437D01*
X78803185Y61848812D01*
X78847670Y61902690D01*
X78885080Y61919775D01*
X78924534Y61930347D01*
X78985086Y61965307D01*
X79674910Y61965307D01*
X79735459Y61930349D01*
X79735458Y61930349D01*
X79774920Y61919775D01*
X79834580Y61883410D01*
X79865109Y61820563D01*
X79856814Y61751187D01*
X79812329Y61697309D01*
X79774920Y61680225D01*
X79735462Y61669653D01*
X79674911Y61634694D01*
X79930000Y61379606D01*
X80185088Y61634693D01*
X80185087Y61634694D01*
X80124539Y61669652D01*
X80124536Y61669653D01*
X80085080Y61680225D01*
X80025419Y61716590D01*
X79994890Y61779437D01*
X80003185Y61848812D01*
X80047670Y61902690D01*
X80085080Y61919775D01*
X80124534Y61930347D01*
X80185086Y61965307D01*
X80874910Y61965307D01*
X80935459Y61930349D01*
X80935458Y61930349D01*
X80974920Y61919775D01*
X81034580Y61883410D01*
X81065109Y61820563D01*
X81056814Y61751187D01*
X81012329Y61697309D01*
X80974920Y61680225D01*
X80935462Y61669653D01*
X80874911Y61634694D01*
X81130000Y61379606D01*
X81385088Y61634693D01*
X81385087Y61634694D01*
X81324539Y61669652D01*
X81324536Y61669653D01*
X81285080Y61680225D01*
X81225419Y61716590D01*
X81194890Y61779437D01*
X81203185Y61848812D01*
X81247670Y61902690D01*
X81285080Y61919775D01*
X81324534Y61930347D01*
X81385086Y61965307D01*
X82074910Y61965307D01*
X82135459Y61930349D01*
X82135458Y61930349D01*
X82174920Y61919775D01*
X82234580Y61883410D01*
X82265109Y61820563D01*
X82256814Y61751187D01*
X82212329Y61697309D01*
X82174920Y61680225D01*
X82135462Y61669653D01*
X82074911Y61634694D01*
X82330000Y61379606D01*
X82585088Y61634693D01*
X82585087Y61634694D01*
X82524539Y61669652D01*
X82524536Y61669653D01*
X82485080Y61680225D01*
X82425419Y61716590D01*
X82394890Y61779437D01*
X82403185Y61848812D01*
X82447670Y61902690D01*
X82485080Y61919775D01*
X82524534Y61930347D01*
X82585088Y61965308D01*
X82330001Y62220395D01*
X82074910Y61965307D01*
X81385086Y61965307D01*
X81385088Y61965308D01*
X81130001Y62220395D01*
X80874910Y61965307D01*
X80185086Y61965307D01*
X80185088Y61965308D01*
X79930001Y62220395D01*
X79674910Y61965307D01*
X78985086Y61965307D01*
X78985088Y61965308D01*
X78730001Y62220395D01*
X78474910Y61965307D01*
X78130500Y61965307D01*
X78130500Y62025215D01*
X78150185Y62092254D01*
X78202989Y62138009D01*
X78270687Y62148154D01*
X78295307Y62144913D01*
X78550394Y62399999D01*
X78550394Y62400000D01*
X78530503Y62419891D01*
X78630000Y62419891D01*
X78630000Y62380109D01*
X78645224Y62343355D01*
X78673355Y62315224D01*
X78710109Y62300000D01*
X78749891Y62300000D01*
X78786645Y62315224D01*
X78814776Y62343355D01*
X78830000Y62380109D01*
X78830000Y62400000D01*
X78909605Y62400000D01*
X78909605Y62399999D01*
X79164692Y62144912D01*
X79199653Y62205466D01*
X79210225Y62244920D01*
X79246590Y62304581D01*
X79309437Y62335110D01*
X79378812Y62326815D01*
X79432690Y62282330D01*
X79449775Y62244920D01*
X79460347Y62205464D01*
X79460348Y62205461D01*
X79495306Y62144913D01*
X79495307Y62144912D01*
X79750394Y62399999D01*
X79750394Y62400001D01*
X79730504Y62419891D01*
X79830000Y62419891D01*
X79830000Y62380109D01*
X79845224Y62343355D01*
X79873355Y62315224D01*
X79910109Y62300000D01*
X79949891Y62300000D01*
X79986645Y62315224D01*
X80014776Y62343355D01*
X80030000Y62380109D01*
X80030000Y62400000D01*
X80109605Y62400000D01*
X80109605Y62399999D01*
X80364692Y62144912D01*
X80399653Y62205466D01*
X80410225Y62244920D01*
X80446590Y62304581D01*
X80509437Y62335110D01*
X80578812Y62326815D01*
X80632690Y62282330D01*
X80649775Y62244920D01*
X80660347Y62205464D01*
X80660348Y62205461D01*
X80695306Y62144913D01*
X80695307Y62144912D01*
X80950394Y62399999D01*
X80950394Y62400000D01*
X80930503Y62419891D01*
X81030000Y62419891D01*
X81030000Y62380109D01*
X81045224Y62343355D01*
X81073355Y62315224D01*
X81110109Y62300000D01*
X81149891Y62300000D01*
X81186645Y62315224D01*
X81214776Y62343355D01*
X81230000Y62380109D01*
X81230000Y62400000D01*
X81309605Y62400000D01*
X81309605Y62399999D01*
X81564692Y62144912D01*
X81599653Y62205466D01*
X81610225Y62244920D01*
X81646590Y62304581D01*
X81709437Y62335110D01*
X81778812Y62326815D01*
X81832690Y62282330D01*
X81849775Y62244920D01*
X81860347Y62205464D01*
X81860348Y62205461D01*
X81895306Y62144913D01*
X81895307Y62144912D01*
X82150394Y62399999D01*
X82150394Y62400000D01*
X82130503Y62419891D01*
X82230000Y62419891D01*
X82230000Y62380109D01*
X82245224Y62343355D01*
X82273355Y62315224D01*
X82310109Y62300000D01*
X82349891Y62300000D01*
X82386645Y62315224D01*
X82414776Y62343355D01*
X82430000Y62380109D01*
X82430000Y62419891D01*
X82414776Y62456645D01*
X82386645Y62484776D01*
X82349891Y62500000D01*
X82310109Y62500000D01*
X82273355Y62484776D01*
X82245224Y62456645D01*
X82230000Y62419891D01*
X82130503Y62419891D01*
X81895305Y62655089D01*
X81860347Y62594538D01*
X81849775Y62555080D01*
X81813410Y62495420D01*
X81750563Y62464891D01*
X81681187Y62473186D01*
X81627309Y62517671D01*
X81610225Y62555080D01*
X81599651Y62594541D01*
X81564693Y62655090D01*
X81309605Y62400000D01*
X81230000Y62400000D01*
X81230000Y62419891D01*
X81214776Y62456645D01*
X81186645Y62484776D01*
X81149891Y62500000D01*
X81110109Y62500000D01*
X81073355Y62484776D01*
X81045224Y62456645D01*
X81030000Y62419891D01*
X80930503Y62419891D01*
X80695305Y62655089D01*
X80660347Y62594538D01*
X80649775Y62555080D01*
X80613410Y62495420D01*
X80550563Y62464891D01*
X80481187Y62473186D01*
X80427309Y62517671D01*
X80410225Y62555080D01*
X80399651Y62594541D01*
X80364693Y62655090D01*
X80109605Y62400000D01*
X80030000Y62400000D01*
X80030000Y62419891D01*
X80014776Y62456645D01*
X79986645Y62484776D01*
X79949891Y62500000D01*
X79910109Y62500000D01*
X79873355Y62484776D01*
X79845224Y62456645D01*
X79830000Y62419891D01*
X79730504Y62419891D01*
X79502394Y62648001D01*
X79491214Y62648001D01*
X79460347Y62594538D01*
X79449775Y62555080D01*
X79413410Y62495420D01*
X79350563Y62464891D01*
X79281187Y62473186D01*
X79227309Y62517671D01*
X79210225Y62555080D01*
X79199651Y62594541D01*
X79164693Y62655090D01*
X78909605Y62400000D01*
X78830000Y62400000D01*
X78830000Y62419891D01*
X78814776Y62456645D01*
X78786645Y62484776D01*
X78749891Y62500000D01*
X78710109Y62500000D01*
X78673355Y62484776D01*
X78645224Y62456645D01*
X78630000Y62419891D01*
X78530503Y62419891D01*
X78295305Y62655090D01*
X78270685Y62651848D01*
X78253784Y62654484D01*
X78236853Y62652049D01*
X78219977Y62659756D01*
X78201650Y62662614D01*
X78188858Y62673968D01*
X78173297Y62681074D01*
X78163267Y62696681D01*
X78149394Y62708994D01*
X78144579Y62725761D01*
X78135523Y62739852D01*
X78130500Y62774787D01*
X78130500Y62875500D01*
X78150185Y62942539D01*
X78202989Y62988294D01*
X78254500Y62999500D01*
X78355213Y62999500D01*
X78422252Y62979815D01*
X78468007Y62927011D01*
X78478152Y62859315D01*
X78474910Y62834695D01*
X78730000Y62579606D01*
X78985087Y62834693D01*
X78981846Y62859313D01*
X78984481Y62876216D01*
X78982047Y62893147D01*
X78989753Y62910021D01*
X78992611Y62928349D01*
X79003965Y62941143D01*
X79011072Y62956703D01*
X79026678Y62966733D01*
X79038991Y62980605D01*
X79055756Y62985420D01*
X79069850Y62994477D01*
X79104785Y62999500D01*
X79199217Y62999500D01*
X79266256Y62979815D01*
X79286898Y62963181D01*
X79305222Y62944857D01*
X79409191Y62898950D01*
X79434602Y62896001D01*
X79554055Y62896001D01*
X79554055Y62895914D01*
X79560218Y62894104D01*
X79581850Y62896431D01*
X79644332Y62865161D01*
X79647524Y62862081D01*
X79930000Y62579606D01*
X80185087Y62834693D01*
X80181846Y62859313D01*
X80192611Y62928349D01*
X80238991Y62980605D01*
X80286033Y62998074D01*
X80295354Y62999500D01*
X80399748Y62999500D01*
X80458231Y63011133D01*
X80484015Y63028362D01*
X80511248Y63032528D01*
X80519673Y63031394D01*
X80527785Y63033934D01*
X80553775Y63026805D01*
X80580494Y63023208D01*
X80586969Y63017699D01*
X80595165Y63015450D01*
X80598892Y63013055D01*
X80601768Y63011133D01*
X80601770Y63011132D01*
X80660247Y62999501D01*
X80660250Y62999500D01*
X80755213Y62999500D01*
X80822252Y62979815D01*
X80868007Y62927011D01*
X80878152Y62859315D01*
X80874910Y62834695D01*
X81130000Y62579606D01*
X81385087Y62834693D01*
X81381846Y62859313D01*
X81392611Y62928349D01*
X81438991Y62980605D01*
X81504785Y62999500D01*
X81599750Y62999500D01*
X81599751Y62999501D01*
X81614568Y63002448D01*
X81658229Y63011132D01*
X81658231Y63011133D01*
X81661108Y63013055D01*
X81668335Y63015319D01*
X81669513Y63015806D01*
X81669556Y63015701D01*
X81687853Y63021431D01*
X81713459Y63032846D01*
X81724006Y63032751D01*
X81727785Y63033934D01*
X81732372Y63032676D01*
G37*
%TD.AperFunction*%
%TD*%
M02*
