%TF.GenerationSoftware,KiCad,Pcbnew,9.0.4-9.0.4-0~ubuntu24.04.1*%
%TF.CreationDate,2025-08-22T01:07:08-04:00*%
%TF.ProjectId,tire_sensor_jlcpcb,74697265-5f73-4656-9e73-6f725f6a6c63,rev?*%
%TF.SameCoordinates,Original*%
%TF.FileFunction,Copper,L1,Top*%
%TF.FilePolarity,Positive*%
%FSLAX46Y46*%
G04 Gerber Fmt 4.6, Leading zero omitted, Abs format (unit mm)*
G04 Created by KiCad (PCBNEW 9.0.4-9.0.4-0~ubuntu24.04.1) date 2025-08-22 01:07:08*
%MOMM*%
%LPD*%
G01*
G04 APERTURE LIST*
G04 Aperture macros list*
%AMRoundRect*
0 Rectangle with rounded corners*
0 $1 Rounding radius*
0 $2 $3 $4 $5 $6 $7 $8 $9 X,Y pos of 4 corners*
0 Add a 4 corners polygon primitive as box body*
4,1,4,$2,$3,$4,$5,$6,$7,$8,$9,$2,$3,0*
0 Add four circle primitives for the rounded corners*
1,1,$1+$1,$2,$3*
1,1,$1+$1,$4,$5*
1,1,$1+$1,$6,$7*
1,1,$1+$1,$8,$9*
0 Add four rect primitives between the rounded corners*
20,1,$1+$1,$2,$3,$4,$5,0*
20,1,$1+$1,$4,$5,$6,$7,0*
20,1,$1+$1,$6,$7,$8,$9,0*
20,1,$1+$1,$8,$9,$2,$3,0*%
G04 Aperture macros list end*
%TA.AperFunction,EtchedComponent*%
%ADD10C,0.000000*%
%TD*%
%TA.AperFunction,ConnectorPad*%
%ADD11R,0.500000X0.500000*%
%TD*%
%TA.AperFunction,ComponentPad*%
%ADD12R,0.500000X0.900000*%
%TD*%
%TA.AperFunction,SMDPad,CuDef*%
%ADD13RoundRect,0.140000X0.170000X-0.140000X0.170000X0.140000X-0.170000X0.140000X-0.170000X-0.140000X0*%
%TD*%
%TA.AperFunction,SMDPad,CuDef*%
%ADD14RoundRect,0.140000X0.140000X0.170000X-0.140000X0.170000X-0.140000X-0.170000X0.140000X-0.170000X0*%
%TD*%
%TA.AperFunction,SMDPad,CuDef*%
%ADD15RoundRect,0.140000X-0.170000X0.140000X-0.170000X-0.140000X0.170000X-0.140000X0.170000X0.140000X0*%
%TD*%
%TA.AperFunction,SMDPad,CuDef*%
%ADD16RoundRect,0.140000X-0.140000X-0.170000X0.140000X-0.170000X0.140000X0.170000X-0.140000X0.170000X0*%
%TD*%
%TA.AperFunction,SMDPad,CuDef*%
%ADD17RoundRect,0.250000X0.475000X-0.250000X0.475000X0.250000X-0.475000X0.250000X-0.475000X-0.250000X0*%
%TD*%
%TA.AperFunction,ConnectorPad*%
%ADD18C,0.787400*%
%TD*%
%TA.AperFunction,SMDPad,CuDef*%
%ADD19RoundRect,0.050000X-0.350000X-0.050000X0.350000X-0.050000X0.350000X0.050000X-0.350000X0.050000X0*%
%TD*%
%TA.AperFunction,SMDPad,CuDef*%
%ADD20RoundRect,0.050000X-0.050000X-0.350000X0.050000X-0.350000X0.050000X0.350000X-0.050000X0.350000X0*%
%TD*%
%TA.AperFunction,HeatsinkPad*%
%ADD21C,0.500000*%
%TD*%
%TA.AperFunction,HeatsinkPad*%
%ADD22R,4.600000X4.600000*%
%TD*%
%TA.AperFunction,SMDPad,CuDef*%
%ADD23RoundRect,0.225000X0.250000X-0.225000X0.250000X0.225000X-0.250000X0.225000X-0.250000X-0.225000X0*%
%TD*%
%TA.AperFunction,SMDPad,CuDef*%
%ADD24RoundRect,0.218750X0.256250X-0.218750X0.256250X0.218750X-0.256250X0.218750X-0.256250X-0.218750X0*%
%TD*%
%TA.AperFunction,SMDPad,CuDef*%
%ADD25RoundRect,0.250000X0.650000X0.250000X-0.650000X0.250000X-0.650000X-0.250000X0.650000X-0.250000X0*%
%TD*%
%TA.AperFunction,SMDPad,CuDef*%
%ADD26RoundRect,0.250000X0.350000X-0.450000X0.350000X0.450000X-0.350000X0.450000X-0.350000X-0.450000X0*%
%TD*%
%TA.AperFunction,SMDPad,CuDef*%
%ADD27R,0.350000X0.450000*%
%TD*%
%TA.AperFunction,SMDPad,CuDef*%
%ADD28R,0.450000X0.350000*%
%TD*%
%TA.AperFunction,SMDPad,CuDef*%
%ADD29RoundRect,0.250000X-0.650000X0.425000X-0.650000X-0.425000X0.650000X-0.425000X0.650000X0.425000X0*%
%TD*%
%TA.AperFunction,SMDPad,CuDef*%
%ADD30R,0.350000X0.350000*%
%TD*%
%TA.AperFunction,ViaPad*%
%ADD31C,0.600000*%
%TD*%
%TA.AperFunction,ViaPad*%
%ADD32C,3.250000*%
%TD*%
%TA.AperFunction,Conductor*%
%ADD33C,0.152400*%
%TD*%
%TA.AperFunction,Conductor*%
%ADD34C,0.400000*%
%TD*%
%TA.AperFunction,Conductor*%
%ADD35C,0.150000*%
%TD*%
%TA.AperFunction,Conductor*%
%ADD36C,0.300000*%
%TD*%
%TA.AperFunction,Conductor*%
%ADD37C,0.500000*%
%TD*%
G04 APERTURE END LIST*
D10*
%TA.AperFunction,EtchedComponent*%
%TO.C,AE1*%
G36*
X95900000Y69650000D02*
G01*
X93260000Y69650000D01*
X93260000Y67650000D01*
X95900000Y67650000D01*
X95900000Y64950000D01*
X93260000Y64950000D01*
X93260000Y62950000D01*
X95900000Y62950000D01*
X95900000Y57950000D01*
X90743215Y57950000D01*
X90500000Y57950000D01*
X90500000Y58374844D01*
X90603957Y58374844D01*
X90616065Y58332181D01*
X90620419Y58324269D01*
X90653203Y58286326D01*
X90695605Y58262258D01*
X90743215Y58252417D01*
X90791622Y58257153D01*
X90836416Y58276815D01*
X90873186Y58311755D01*
X90890092Y58344647D01*
X90897982Y58392733D01*
X90891408Y58442318D01*
X90871313Y58487628D01*
X90838643Y58522888D01*
X90806417Y58539782D01*
X90758158Y58548222D01*
X90708632Y58541691D01*
X90663447Y58521132D01*
X90628213Y58487489D01*
X90617600Y58468878D01*
X90604700Y58423363D01*
X90603957Y58374844D01*
X90500000Y58374844D01*
X90500000Y58850000D01*
X95400000Y58850000D01*
X95400000Y60250000D01*
X90500000Y60250000D01*
X90500000Y60750000D01*
X95400000Y60750000D01*
X95400000Y62450000D01*
X92760000Y62450000D01*
X92760000Y65450000D01*
X95400000Y65450000D01*
X95400000Y67150000D01*
X92760000Y67150000D01*
X92760000Y70150000D01*
X95400000Y70150000D01*
X95400000Y71850000D01*
X91460000Y71850000D01*
X91460000Y72350000D01*
X95900000Y72350000D01*
X95900000Y69650000D01*
G37*
%TD.AperFunction*%
%TD*%
D11*
%TO.P,AE1,1,A*%
%TO.N,/RF*%
X90750000Y60500000D03*
D12*
%TO.P,AE1,2,Shield*%
%TO.N,GND*%
X90750000Y58400000D03*
%TD*%
D13*
%TO.P,C3,2*%
%TO.N,GND*%
X84800000Y61100000D03*
%TO.P,C3,1*%
%TO.N,Net-(U1-ANT)*%
X84800000Y60100000D03*
%TD*%
%TO.P,C13,1*%
%TO.N,/P0.25*%
X82900000Y64600000D03*
%TO.P,C13,2*%
%TO.N,GND*%
X82900000Y65600000D03*
%TD*%
D14*
%TO.P,R2,1*%
%TO.N,Net-(D2-K)*%
X82732500Y68700000D03*
%TO.P,R2,2*%
%TO.N,/LED1*%
X81732500Y68700000D03*
%TD*%
D13*
%TO.P,C18,1*%
%TO.N,VDD_NRF*%
X79230000Y53050000D03*
%TO.P,C18,2*%
%TO.N,GND*%
X79230000Y54050000D03*
%TD*%
D14*
%TO.P,C5,1*%
%TO.N,VDD_NRF*%
X78230000Y56550000D03*
%TO.P,C5,2*%
%TO.N,GND*%
X77230000Y56550000D03*
%TD*%
D13*
%TO.P,C19,1*%
%TO.N,VDD_NRF*%
X78400000Y53050000D03*
%TO.P,C19,2*%
%TO.N,GND*%
X78400000Y54050000D03*
%TD*%
D15*
%TO.P,R6,1*%
%TO.N,VDD_NRF*%
X72250000Y56500000D03*
%TO.P,R6,2*%
%TO.N,/BTN*%
X72250000Y55500000D03*
%TD*%
D14*
%TO.P,R3,1*%
%TO.N,Net-(D3-K)*%
X80932500Y68700000D03*
%TO.P,R3,2*%
%TO.N,/LED2*%
X79932500Y68700000D03*
%TD*%
D16*
%TO.P,C2,1*%
%TO.N,/XC2*%
X85400000Y67400000D03*
%TO.P,C2,2*%
%TO.N,GND*%
X86400000Y67400000D03*
%TD*%
D13*
%TO.P,C1,1*%
%TO.N,/XC1*%
X88400000Y63900000D03*
%TO.P,C1,2*%
%TO.N,GND*%
X88400000Y64900000D03*
%TD*%
D17*
%TO.P,C15,1*%
%TO.N,VDD_NRF*%
X70250000Y60800000D03*
%TO.P,C15,2*%
%TO.N,GND*%
X70250000Y62700000D03*
%TD*%
D16*
%TO.P,L1,1*%
%TO.N,Net-(U1-ANT)*%
X85700000Y60500000D03*
%TO.P,L1,2*%
%TO.N,/RF*%
X86700000Y60500000D03*
%TD*%
D15*
%TO.P,C12,1*%
%TO.N,GND*%
X74200000Y61800000D03*
%TO.P,C12,2*%
%TO.N,/P0.01{slash}XL2*%
X74200000Y60800000D03*
%TD*%
%TO.P,C11,1*%
%TO.N,GND*%
X75500000Y65300000D03*
%TO.P,C11,2*%
%TO.N,/P0.00{slash}XL1*%
X75500000Y64300000D03*
%TD*%
D18*
%TO.P,J1,1,VCC*%
%TO.N,VDD_NRF*%
X94398026Y54398025D03*
%TO.P,J1,2,SWDIO*%
%TO.N,/SWDIO*%
X95296051Y53500000D03*
%TO.P,J1,3,~{RESET}*%
%TO.N,/nRESET*%
X93500000Y53500000D03*
%TO.P,J1,4,SWCLK*%
%TO.N,/SWCLK*%
X94398026Y52601974D03*
%TO.P,J1,5,GND*%
%TO.N,GND*%
X92601975Y52601974D03*
%TO.P,J1,6,SWO*%
%TO.N,unconnected-(J1-SWO-Pad6)*%
X93500000Y51703949D03*
%TD*%
D19*
%TO.P,U1,1,DEC1*%
%TO.N,/DEC1*%
X77580000Y62800000D03*
%TO.P,U1,2,P0.00/XL1*%
%TO.N,/P0.00{slash}XL1*%
X77580000Y62400000D03*
%TO.P,U1,3,P0.01/XL2*%
%TO.N,/P0.01{slash}XL2*%
X77580000Y62000000D03*
%TO.P,U1,4,P0.02/AIN0*%
%TO.N,unconnected-(U1-P0.02{slash}AIN0-Pad4)*%
X77580000Y61600000D03*
%TO.P,U1,5,P0.03/AIN1*%
%TO.N,unconnected-(U1-P0.03{slash}AIN1-Pad5)*%
X77580000Y61200000D03*
%TO.P,U1,6,P0.04/AIN2*%
%TO.N,unconnected-(U1-P0.04{slash}AIN2-Pad6)*%
X77580000Y60800000D03*
%TO.P,U1,7,P0.05/AIN3*%
%TO.N,unconnected-(U1-P0.05{slash}AIN3-Pad7)*%
X77580000Y60400000D03*
%TO.P,U1,8,P0.06*%
%TO.N,unconnected-(U1-P0.06-Pad8)*%
X77580000Y60000000D03*
%TO.P,U1,9,P0.07*%
%TO.N,unconnected-(U1-P0.07-Pad9)*%
X77580000Y59600000D03*
%TO.P,U1,10,P0.08*%
%TO.N,unconnected-(U1-P0.08-Pad10)*%
X77580000Y59200000D03*
%TO.P,U1,11,P0.09*%
%TO.N,unconnected-(U1-P0.09-Pad11)*%
X77580000Y58800000D03*
%TO.P,U1,12,P0.10*%
%TO.N,/BTN*%
X77580000Y58400000D03*
D20*
%TO.P,U1,13,VDD*%
%TO.N,VDD_NRF*%
X78330000Y57650000D03*
%TO.P,U1,14,P0.11*%
%TO.N,unconnected-(U1-P0.11-Pad14)*%
X78730000Y57650000D03*
%TO.P,U1,15,P0.12*%
%TO.N,unconnected-(U1-P0.12-Pad15)*%
X79130000Y57650000D03*
%TO.P,U1,16,P0.13*%
%TO.N,unconnected-(U1-P0.13-Pad16)*%
X79530000Y57650000D03*
%TO.P,U1,17,P0.14*%
%TO.N,unconnected-(U1-P0.14-Pad17)*%
X79930000Y57650000D03*
%TO.P,U1,18,P0.15*%
%TO.N,/INT_LIS3DHTR*%
X80330000Y57650000D03*
%TO.P,U1,19,P0.16*%
%TO.N,/CS_LIS3DHTR*%
X80730000Y57650000D03*
%TO.P,U1,20,P0.17*%
%TO.N,/CS_DPS368*%
X81130000Y57650000D03*
%TO.P,U1,21,P0.18*%
%TO.N,/SDO*%
X81530000Y57650000D03*
%TO.P,U1,22,P0.19*%
%TO.N,/SDI*%
X81930000Y57650000D03*
%TO.P,U1,23,P0.20*%
%TO.N,/SCK*%
X82330000Y57650000D03*
%TO.P,U1,24,P0.21/RESET*%
%TO.N,/nRESET*%
X82730000Y57650000D03*
D19*
%TO.P,U1,25,SWDCLK*%
%TO.N,/SWCLK*%
X83480000Y58400000D03*
%TO.P,U1,26,SWDIO*%
%TO.N,/SWDIO*%
X83480000Y58800000D03*
%TO.P,U1,27,P0.22*%
%TO.N,unconnected-(U1-P0.22-Pad27)*%
X83480000Y59200000D03*
%TO.P,U1,28,P0.23*%
%TO.N,unconnected-(U1-P0.23-Pad28)*%
X83480000Y59600000D03*
%TO.P,U1,29,P0.24*%
%TO.N,unconnected-(U1-P0.24-Pad29)*%
X83480000Y60000000D03*
%TO.P,U1,30,ANT*%
%TO.N,Net-(U1-ANT)*%
X83480000Y60400000D03*
%TO.P,U1,31,VSS*%
%TO.N,GND*%
X83480000Y60800000D03*
%TO.P,U1,32,DEC2*%
%TO.N,/DEC2*%
X83480000Y61200000D03*
%TO.P,U1,33,DEC3*%
%TO.N,/DEC3*%
X83480000Y61600000D03*
%TO.P,U1,34,XC1*%
%TO.N,/XC1*%
X83480000Y62000000D03*
%TO.P,U1,35,XC2*%
%TO.N,/XC2*%
X83480000Y62400000D03*
%TO.P,U1,36,VDD*%
%TO.N,VDD_NRF*%
X83480000Y62800000D03*
D20*
%TO.P,U1,37,P0.25*%
%TO.N,/P0.25*%
X82730000Y63550000D03*
%TO.P,U1,38,P0.26*%
%TO.N,Net-(U1-P0.26)*%
X82330000Y63550000D03*
%TO.P,U1,39,P0.27*%
%TO.N,unconnected-(U1-P0.27-Pad39)*%
X81930000Y63550000D03*
%TO.P,U1,40,P0.28/AIN4*%
%TO.N,/LED0*%
X81530000Y63550000D03*
%TO.P,U1,41,P0.29/AIN5*%
%TO.N,/LED1*%
X81130000Y63550000D03*
%TO.P,U1,42,P0.30/AIN6*%
%TO.N,/LED2*%
X80730000Y63550000D03*
%TO.P,U1,43,P0.31/AIN7*%
%TO.N,/LED3*%
X80330000Y63550000D03*
%TO.P,U1,44,N.C.*%
%TO.N,/LED4*%
X79930000Y63550000D03*
%TO.P,U1,45,VSS*%
%TO.N,GND*%
X79530000Y63550000D03*
%TO.P,U1,46,DEC4*%
%TO.N,/DEC4*%
X79130000Y63550000D03*
%TO.P,U1,47,DCC*%
%TO.N,unconnected-(U1-DCC-Pad47)*%
X78730000Y63550000D03*
%TO.P,U1,48,VDD*%
%TO.N,VDD_NRF*%
X78330000Y63550000D03*
D21*
%TO.P,U1,49,GND*%
%TO.N,GND*%
X78730000Y62400000D03*
X78730000Y61200000D03*
X78730000Y60000000D03*
X78730000Y58800000D03*
X79930000Y62400000D03*
X79930000Y61200000D03*
X79930000Y60000000D03*
X79930000Y58800000D03*
D22*
X80530000Y60600000D03*
D21*
X81130000Y62400000D03*
X81130000Y61200000D03*
X81130000Y60000000D03*
X81130000Y58800000D03*
X82330000Y62400000D03*
X82330000Y61200000D03*
X82330000Y60000000D03*
X82330000Y58800000D03*
%TD*%
D23*
%TO.P,C10,1*%
%TO.N,/DEC4*%
X78600000Y64820000D03*
%TO.P,C10,2*%
%TO.N,GND*%
X78600000Y66380000D03*
%TD*%
D24*
%TO.P,D5,1,K*%
%TO.N,Net-(D5-K)*%
X77335000Y69812500D03*
%TO.P,D5,2,A*%
%TO.N,VDD_NRF*%
X77335000Y71387500D03*
%TD*%
D13*
%TO.P,C14,1*%
%TO.N,Net-(U1-P0.26)*%
X82100000Y64600000D03*
%TO.P,C14,2*%
%TO.N,GND*%
X82100000Y65600000D03*
%TD*%
D25*
%TO.P,X2,1,1*%
%TO.N,/P0.01{slash}XL2*%
X75500000Y60750000D03*
%TO.P,X2,2,2*%
%TO.N,/P0.00{slash}XL1*%
X75500000Y63250000D03*
%TD*%
D16*
%TO.P,R5,1*%
%TO.N,Net-(D5-K)*%
X76332500Y68700000D03*
%TO.P,R5,2*%
%TO.N,/LED4*%
X77332500Y68700000D03*
%TD*%
D13*
%TO.P,C17,1*%
%TO.N,VDD_NRF*%
X89500000Y53000000D03*
%TO.P,C17,2*%
%TO.N,GND*%
X89500000Y54000000D03*
%TD*%
D16*
%TO.P,C7,1*%
%TO.N,/DEC3*%
X85700000Y62300000D03*
%TO.P,C7,2*%
%TO.N,GND*%
X86700000Y62300000D03*
%TD*%
D14*
%TO.P,C6,1,1*%
%TO.N,GND*%
X86680000Y61400000D03*
%TO.P,C6,2,2*%
%TO.N,/DEC2*%
X85720000Y61400000D03*
%TD*%
D26*
%TO.P,X1,1,OSC*%
%TO.N,/XC1*%
X87150000Y63900000D03*
%TO.P,X1,2,GND*%
%TO.N,GND*%
X87150000Y66100000D03*
%TO.P,X1,3,OSC*%
%TO.N,/XC2*%
X85450000Y66100000D03*
%TO.P,X1,4,GND*%
%TO.N,GND*%
X85450000Y63900000D03*
%TD*%
D13*
%TO.P,C8,1*%
%TO.N,VDD_NRF*%
X83800000Y64400000D03*
%TO.P,C8,2*%
%TO.N,GND*%
X83800000Y65400000D03*
%TD*%
D23*
%TO.P,C9,1*%
%TO.N,VDD_NRF*%
X77300000Y64520000D03*
%TO.P,C9,2*%
%TO.N,GND*%
X77300000Y66080000D03*
%TD*%
D27*
%TO.P,U3,1,VDD_IO*%
%TO.N,VDD_NRF*%
X87230000Y55050000D03*
%TO.P,U3,2*%
%TO.N,N/C*%
X86730000Y55050000D03*
%TO.P,U3,3*%
X86230000Y55050000D03*
%TO.P,U3,4,SCL/SPC*%
%TO.N,/SCK*%
X85730000Y55050000D03*
%TO.P,U3,5,GND*%
%TO.N,GND*%
X85230000Y55050000D03*
D28*
%TO.P,U3,6,SDA/SDI/SDO*%
%TO.N,/SDI*%
X85005000Y54325000D03*
%TO.P,U3,7,SDO/SA0*%
%TO.N,/SDO*%
X85005000Y53825000D03*
%TO.P,U3,8,CS*%
%TO.N,/CS_LIS3DHTR*%
X85005000Y53325000D03*
D27*
%TO.P,U3,9,INT2*%
%TO.N,unconnected-(U3-INT2-Pad9)*%
X85230000Y52600000D03*
%TO.P,U3,10,RES*%
%TO.N,unconnected-(U3-RES-Pad10)*%
X85730000Y52600000D03*
%TO.P,U3,11,INT1*%
%TO.N,/INT_LIS3DHTR*%
X86230000Y52600000D03*
%TO.P,U3,12,GND__1*%
%TO.N,GND*%
X86730000Y52600000D03*
%TO.P,U3,13,ADC3*%
%TO.N,unconnected-(U3-ADC3-Pad13)*%
X87230000Y52600000D03*
D28*
%TO.P,U3,14,VDD*%
%TO.N,VDD_NRF*%
X87455000Y53325000D03*
%TO.P,U3,15,ADC2*%
%TO.N,unconnected-(U3-ADC2-Pad15)*%
X87455000Y53825000D03*
%TO.P,U3,16,ADC1*%
%TO.N,unconnected-(U3-ADC1-Pad16)*%
X87455000Y54325000D03*
%TD*%
D29*
%TO.P,S1,1,A*%
%TO.N,/BTN*%
X74750000Y56650000D03*
%TO.P,S1,2,B*%
%TO.N,GND*%
X74750000Y52500000D03*
%TD*%
D30*
%TO.P,U2,1,GND_1*%
%TO.N,GND*%
X80780000Y54550000D03*
%TO.P,U2,2,CSB_N*%
%TO.N,/CS_DPS368*%
X81430000Y54550000D03*
%TO.P,U2,3,SDI*%
%TO.N,/SDI*%
X82080000Y54550000D03*
%TO.P,U2,4,SCK*%
%TO.N,/SCK*%
X82730000Y54550000D03*
%TO.P,U2,5,SDO*%
%TO.N,/SDO*%
X82730000Y53100000D03*
%TO.P,U2,6,VDDIO*%
%TO.N,VDD_NRF*%
X82080000Y53100000D03*
%TO.P,U2,7,GND_2*%
%TO.N,GND*%
X81430000Y53100000D03*
%TO.P,U2,8,VDD*%
%TO.N,VDD_NRF*%
X80780000Y53100000D03*
%TD*%
D13*
%TO.P,C4,1*%
%TO.N,/DEC1*%
X76300000Y64300000D03*
%TO.P,C4,2*%
%TO.N,GND*%
X76300000Y65300000D03*
%TD*%
D24*
%TO.P,D1,1,K*%
%TO.N,Net-(D1-K)*%
X83465000Y69812500D03*
%TO.P,D1,2,A*%
%TO.N,VDD_NRF*%
X83465000Y71387500D03*
%TD*%
%TO.P,D3,1,K*%
%TO.N,Net-(D3-K)*%
X80400000Y69812500D03*
%TO.P,D3,2,A*%
%TO.N,VDD_NRF*%
X80400000Y71387500D03*
%TD*%
D14*
%TO.P,R1,1*%
%TO.N,Net-(D1-K)*%
X84532500Y68700000D03*
%TO.P,R1,2*%
%TO.N,/LED0*%
X83532500Y68700000D03*
%TD*%
D24*
%TO.P,D4,1,K*%
%TO.N,Net-(D4-K)*%
X78867500Y69812500D03*
%TO.P,D4,2,A*%
%TO.N,VDD_NRF*%
X78867500Y71387500D03*
%TD*%
%TO.P,D2,1,K*%
%TO.N,Net-(D2-K)*%
X81932500Y69812500D03*
%TO.P,D2,2,A*%
%TO.N,VDD_NRF*%
X81932500Y71387500D03*
%TD*%
D13*
%TO.P,C16,1*%
%TO.N,VDD_NRF*%
X88500000Y53000000D03*
%TO.P,C16,2*%
%TO.N,GND*%
X88500000Y54000000D03*
%TD*%
D16*
%TO.P,R4,1*%
%TO.N,Net-(D4-K)*%
X78132500Y68700000D03*
%TO.P,R4,2*%
%TO.N,/LED3*%
X79132500Y68700000D03*
%TD*%
D31*
%TO.N,GND*%
X98183440Y56890685D03*
X97433440Y56890685D03*
X96683440Y56890685D03*
X95933440Y56890685D03*
X95183440Y56890685D03*
X94433440Y56890685D03*
X93683440Y56890685D03*
X92933440Y56890685D03*
X92183440Y56890685D03*
X91433440Y56890685D03*
X90743215Y57390685D03*
X85433440Y59390685D03*
X86183440Y59640685D03*
X86933440Y59640685D03*
X87683440Y59640685D03*
X88433440Y59640685D03*
X89183440Y59640685D03*
X89933440Y59640685D03*
X90683440Y59390685D03*
X87683440Y61390685D03*
X88433440Y61390685D03*
X89183440Y61390685D03*
X89933440Y61390685D03*
X90683440Y61390685D03*
X90683440Y62140685D03*
X90683440Y62890685D03*
X90683440Y63640685D03*
X90683440Y64390685D03*
X90683440Y65140685D03*
X90683440Y65890685D03*
X90683440Y66640685D03*
X90683440Y67390685D03*
X90683440Y68140685D03*
X90683440Y68890685D03*
X90683440Y69640685D03*
X90683440Y70390685D03*
X90683440Y71140685D03*
X90683440Y71890685D03*
X90683440Y72640685D03*
X90683440Y73390685D03*
X86400000Y67400000D03*
%TO.N,VDD_NRF*%
X88500000Y53000000D03*
X83800000Y64400000D03*
X72250000Y56500000D03*
X70250000Y60750000D03*
X68050000Y61750000D03*
X93600000Y55100000D03*
X77300000Y64500000D03*
X77335000Y71387500D03*
X78400000Y53050000D03*
X78250000Y56500000D03*
%TO.N,GND*%
X83800000Y65400000D03*
X88700000Y68000000D03*
X97450000Y56150000D03*
X69000000Y56500000D03*
X86700000Y62300000D03*
X89500000Y54000000D03*
X83400000Y67000000D03*
D32*
X70750000Y70250000D03*
D31*
X77300000Y66080000D03*
X85200000Y63900000D03*
X88500000Y54000000D03*
X82900000Y65600000D03*
X89000000Y62500000D03*
X78250000Y50500000D03*
X84750000Y55500000D03*
X74200000Y72600000D03*
X86900000Y66100000D03*
X78600000Y66300000D03*
X87000000Y56750000D03*
X77250000Y56500000D03*
X87000000Y71800000D03*
X78250000Y54000000D03*
X82100000Y65600000D03*
X79250000Y54000000D03*
X74200000Y61800000D03*
X84800000Y61075000D03*
X71000000Y66750000D03*
X88400000Y65000000D03*
X76300000Y65400000D03*
X75750000Y58750000D03*
D32*
X70750000Y52750000D03*
D31*
X75500000Y65400000D03*
X86680000Y61400000D03*
X70250000Y62750000D03*
%TO.N,/nRESET*%
X90937557Y54962557D03*
X92037443Y54962557D03*
%TO.N,/SDO*%
X81671956Y53722419D03*
X81671956Y55950000D03*
X83880000Y53100000D03*
%TO.N,/CS_DPS368*%
X80880000Y55700000D03*
%TO.N,/SDI*%
X83880000Y54145400D03*
%TO.N,/SCK*%
X83880000Y56550000D03*
%TO.N,/INT_LIS3DHTR*%
X86482403Y53550000D03*
X79730000Y56550000D03*
%TO.N,/CS_LIS3DHTR*%
X80601400Y56550000D03*
X85730000Y53550000D03*
%TD*%
D33*
%TO.N,VDD_NRF*%
X78330000Y56650000D02*
X78230000Y56550000D01*
D34*
X93546051Y55250000D02*
X94398026Y54398025D01*
D35*
X93562126Y55100000D02*
X93546051Y55116075D01*
D34*
X77335000Y71387500D02*
X83465000Y71387500D01*
D36*
X80780000Y53100000D02*
X80780000Y52698000D01*
D35*
X87582000Y55050000D02*
X87906000Y54726000D01*
X87807000Y53325000D02*
X87455000Y53325000D01*
X88175000Y53325000D02*
X88500000Y53000000D01*
D36*
X83800000Y63171000D02*
X83480000Y62851000D01*
D34*
X77300000Y64520000D02*
X77300000Y64070000D01*
D36*
X80780000Y52698000D02*
X80904000Y52574000D01*
D35*
X93546051Y55116075D02*
X93546051Y55250000D01*
D36*
X80904000Y52574000D02*
X81956000Y52574000D01*
X89500000Y53000000D02*
X88500000Y53000000D01*
X82080000Y52698000D02*
X82080000Y53100000D01*
X83800000Y64400000D02*
X83800000Y63171000D01*
D34*
X77300000Y64070000D02*
X77820000Y63550000D01*
D35*
X87906000Y53424000D02*
X87807000Y53325000D01*
X87230000Y55050000D02*
X87582000Y55050000D01*
D36*
X80730000Y53050000D02*
X80780000Y53100000D01*
D35*
X87906000Y54726000D02*
X87906000Y53424000D01*
D33*
X78330000Y57650000D02*
X78330000Y56650000D01*
D35*
X87455000Y53325000D02*
X88175000Y53325000D01*
D36*
X81956000Y52574000D02*
X82080000Y52698000D01*
X78400000Y53050000D02*
X80730000Y53050000D01*
D34*
X77820000Y63550000D02*
X78279000Y63550000D01*
D35*
X93600000Y55100000D02*
X93562126Y55100000D01*
D36*
%TO.N,GND*%
X78250000Y54000000D02*
X78300000Y54050000D01*
D33*
X80780000Y53865407D02*
X80780000Y54550000D01*
D36*
X78300000Y54050000D02*
X78300000Y54120000D01*
D35*
X78300000Y54120000D02*
X78230000Y54050000D01*
X79530000Y63550000D02*
X79530000Y65450000D01*
X79530000Y65450000D02*
X78600000Y66380000D01*
X84750000Y55500000D02*
X84780000Y55500000D01*
X84525000Y60800000D02*
X84800000Y61075000D01*
X84600000Y61100000D02*
X84600000Y61200000D01*
X83480000Y60800000D02*
X84525000Y60800000D01*
D36*
X84780000Y55500000D02*
X85230000Y55050000D01*
X86730000Y52600000D02*
X86730000Y51800000D01*
D33*
X81430000Y53100000D02*
X81430000Y53215407D01*
X81430000Y53215407D02*
X80780000Y53865407D01*
D35*
%TO.N,/XC1*%
X84817162Y62900000D02*
X83917162Y62000000D01*
X87150000Y63900000D02*
X86150000Y62900000D01*
X86150000Y62900000D02*
X84817162Y62900000D01*
X87150000Y63900000D02*
X88400000Y63900000D01*
X83917162Y62000000D02*
X83480000Y62000000D01*
%TO.N,/XC2*%
X85400000Y66150000D02*
X85450000Y66100000D01*
X84624000Y63132516D02*
X83891484Y62400000D01*
X83891484Y62400000D02*
X83480000Y62400000D01*
X84624000Y65274000D02*
X84624000Y63132516D01*
X85450000Y66100000D02*
X84624000Y65274000D01*
X85400000Y67400000D02*
X85400000Y66150000D01*
D36*
%TO.N,Net-(U1-ANT)*%
X84800000Y60100000D02*
X85300000Y60100000D01*
X83480000Y60400000D02*
X84500000Y60400000D01*
X84500000Y60400000D02*
X84800000Y60100000D01*
X85300000Y60100000D02*
X85700000Y60500000D01*
D35*
%TO.N,/DEC1*%
X77530000Y62750000D02*
X77580000Y62800000D01*
X76300000Y64080000D02*
X77580000Y62800000D01*
X76300000Y64400000D02*
X76300000Y64080000D01*
%TO.N,/DEC2*%
X83968518Y61200000D02*
X84468518Y61700000D01*
X84468518Y61700000D02*
X85620000Y61700000D01*
X83480000Y61200000D02*
X83968518Y61200000D01*
X85620000Y61700000D02*
X85720000Y61600000D01*
%TO.N,/DEC3*%
X85400000Y62200000D02*
X85700000Y62500000D01*
X83480000Y61600000D02*
X83942840Y61600000D01*
X83942840Y61600000D02*
X84542840Y62200000D01*
X84542840Y62200000D02*
X85400000Y62200000D01*
%TO.N,/DEC4*%
X79130000Y64290000D02*
X79130000Y63550000D01*
X78600000Y64820000D02*
X79130000Y64290000D01*
%TO.N,/P0.00{slash}XL1*%
X77580000Y62400000D02*
X76450000Y62400000D01*
X75500000Y64400000D02*
X75500000Y63250000D01*
X76450000Y62400000D02*
X75500000Y63350000D01*
%TO.N,/P0.01{slash}XL2*%
X75450000Y60800000D02*
X75500000Y60850000D01*
X76650000Y62000000D02*
X75500000Y60850000D01*
X74200000Y60800000D02*
X75450000Y60800000D01*
X77580000Y62000000D02*
X76650000Y62000000D01*
%TO.N,/P0.25*%
X82730000Y63550000D02*
X82730000Y64430000D01*
X82730000Y64430000D02*
X82900000Y64600000D01*
%TO.N,Net-(U1-P0.26)*%
X82330000Y63550000D02*
X82330000Y64370000D01*
X82330000Y64370000D02*
X82100000Y64600000D01*
%TO.N,/SWCLK*%
X93521637Y52601974D02*
X94398026Y52601974D01*
X88242578Y58400000D02*
X91500000Y55142578D01*
X91500000Y55142578D02*
X91500000Y54623611D01*
X91500000Y54623611D02*
X93521637Y52601974D01*
X83480000Y58400000D02*
X88242578Y58400000D01*
%TO.N,/nRESET*%
X83080000Y58000000D02*
X88216900Y58000000D01*
X82730000Y57650000D02*
X83080000Y58000000D01*
X90937557Y55279343D02*
X90937557Y54962557D01*
X92037443Y54962557D02*
X93500000Y53500000D01*
X88216900Y58000000D02*
X90937557Y55279343D01*
%TO.N,/SWDIO*%
X94419662Y53500000D02*
X95296051Y53500000D01*
X88268255Y58800000D02*
X91568255Y55500000D01*
X92419662Y55500000D02*
X94419662Y53500000D01*
X83480000Y58800000D02*
X88268255Y58800000D01*
X91568255Y55500000D02*
X92419662Y55500000D01*
D36*
%TO.N,/RF*%
X90300000Y60500000D02*
X88322500Y60500000D01*
D37*
X90750000Y60500000D02*
X90300000Y60500000D01*
D36*
X86630000Y60500000D02*
X88322500Y60500000D01*
D33*
%TO.N,/SDO*%
X81671956Y56360491D02*
X81530000Y56502447D01*
X83880000Y53100000D02*
X84280000Y53100000D01*
X81671956Y55950000D02*
X81671956Y56360491D01*
X82266781Y53722419D02*
X82730000Y53259200D01*
X84380000Y53200000D02*
X84380000Y53450000D01*
X82730000Y53259200D02*
X82730000Y53100000D01*
X84280000Y53100000D02*
X84380000Y53200000D01*
X81671956Y53722419D02*
X82266781Y53722419D01*
X82730000Y53100000D02*
X83880000Y53100000D01*
X84755000Y53825000D02*
X85005000Y53825000D01*
X84380000Y53450000D02*
X84755000Y53825000D01*
X81530000Y56502447D02*
X81530000Y57650000D01*
%TO.N,/CS_DPS368*%
X80880000Y55700000D02*
X80880000Y55450000D01*
X80880000Y55950000D02*
X80880000Y55700000D01*
X80880000Y55450000D02*
X81430000Y54900000D01*
X81130000Y56200000D02*
X80880000Y55950000D01*
X81430000Y54900000D02*
X81430000Y54550000D01*
X81130000Y57650000D02*
X81130000Y56200000D01*
D35*
%TO.N,Net-(D1-K)*%
X84532500Y68745000D02*
X83465000Y69812500D01*
X84532500Y68700000D02*
X84532500Y68745000D01*
%TO.N,Net-(D2-K)*%
X82732500Y68700000D02*
X82732500Y69012500D01*
X82732500Y69012500D02*
X81932500Y69812500D01*
D33*
%TO.N,/SDI*%
X81930000Y57650000D02*
X81930000Y56850000D01*
X83880000Y54145400D02*
X84495800Y54145400D01*
X82080000Y54200000D02*
X82134600Y54145400D01*
X82080000Y54900000D02*
X82080000Y54550000D01*
X84675400Y54325000D02*
X85005000Y54325000D01*
X84495800Y54145400D02*
X84675400Y54325000D01*
X82230000Y56550000D02*
X82230000Y55050000D01*
X82080000Y54550000D02*
X82080000Y54200000D01*
X82230000Y55050000D02*
X82080000Y54900000D01*
X82134600Y54145400D02*
X83880000Y54145400D01*
X81930000Y56850000D02*
X82230000Y56550000D01*
D35*
%TO.N,Net-(D3-K)*%
X80932500Y69280000D02*
X80400000Y69812500D01*
X80932500Y68700000D02*
X80932500Y69280000D01*
D33*
%TO.N,/SCK*%
X84607400Y56550000D02*
X85730000Y55427400D01*
X83880000Y56550000D02*
X84607400Y56550000D01*
X82730000Y56550000D02*
X82730000Y55550000D01*
X82330000Y57650000D02*
X82330000Y56950000D01*
X82730000Y56550000D02*
X83880000Y56550000D01*
X85730000Y55427400D02*
X85730000Y55050000D01*
X82330000Y56950000D02*
X82730000Y56550000D01*
X82730000Y55550000D02*
X82730000Y54550000D01*
%TO.N,/INT_LIS3DHTR*%
X86230000Y53297597D02*
X86230000Y52600000D01*
X86482403Y53550000D02*
X86230000Y53297597D01*
X80330000Y57150000D02*
X79730000Y56550000D01*
X80330000Y57650000D02*
X80330000Y57150000D01*
D35*
%TO.N,Net-(D4-K)*%
X78132500Y69077500D02*
X78867500Y69812500D01*
X78132500Y68700000D02*
X78132500Y69077500D01*
D33*
%TO.N,/CS_LIS3DHTR*%
X85730000Y53550000D02*
X85505000Y53325000D01*
X80730000Y57650000D02*
X80730000Y56678600D01*
X85505000Y53325000D02*
X85005000Y53325000D01*
X80730000Y56678600D02*
X80601400Y56550000D01*
D35*
%TO.N,Net-(D5-K)*%
X76332500Y68810000D02*
X77335000Y69812500D01*
X76332500Y68700000D02*
X76332500Y68810000D01*
%TO.N,/LED0*%
X81530000Y67130000D02*
X82564000Y68164000D01*
X81530000Y63550000D02*
X81530000Y67130000D01*
X83238500Y68374518D02*
X83238500Y68700000D01*
X83238500Y68700000D02*
X83532500Y68700000D01*
X83027982Y68164000D02*
X83238500Y68374518D01*
X82564000Y68164000D02*
X83027982Y68164000D01*
%TO.N,/LED1*%
X81732500Y68032500D02*
X81732500Y68700000D01*
X81130000Y67430000D02*
X81732500Y68032500D01*
X81130000Y63550000D02*
X81130000Y67430000D01*
%TO.N,/LED2*%
X80730000Y63550000D02*
X80730000Y67902500D01*
X80730000Y67902500D02*
X79932500Y68700000D01*
%TO.N,/LED3*%
X80330000Y63550000D02*
X80330000Y67471018D01*
X80330000Y67471018D02*
X79132500Y68668518D01*
X79132500Y68668518D02*
X79132500Y68700000D01*
%TO.N,/LED4*%
X77332500Y68390001D02*
X77332500Y68700000D01*
X79930000Y67170000D02*
X78936000Y68164000D01*
X77558501Y68164000D02*
X77332500Y68390001D01*
X79930000Y63550000D02*
X79930000Y67170000D01*
X78936000Y68164000D02*
X77558501Y68164000D01*
%TO.N,/BTN*%
X73600000Y55500000D02*
X74750000Y56650000D01*
X74750000Y56650000D02*
X75830000Y56650000D01*
X72250000Y55500000D02*
X73600000Y55500000D01*
X75830000Y56650000D02*
X77580000Y58400000D01*
%TD*%
%TA.AperFunction,Conductor*%
%TO.N,GND*%
G36*
X98692539Y56980315D02*
G01*
X98738294Y56927511D01*
X98749500Y56876000D01*
X98749500Y53502705D01*
X98749382Y53497296D01*
X98732615Y53113248D01*
X98731672Y53102472D01*
X98681851Y52724042D01*
X98679973Y52713389D01*
X98597357Y52340728D01*
X98594557Y52330279D01*
X98479778Y51966246D01*
X98476078Y51956080D01*
X98330006Y51603430D01*
X98325434Y51593626D01*
X98149187Y51255060D01*
X98143779Y51245692D01*
X97938689Y50923765D01*
X97932484Y50914903D01*
X97700110Y50612068D01*
X97693156Y50603781D01*
X97435294Y50322376D01*
X97427645Y50314727D01*
X97146213Y50056845D01*
X97137926Y50049892D01*
X96835109Y49817533D01*
X96826248Y49811328D01*
X96504318Y49606238D01*
X96494950Y49600830D01*
X96156371Y49424578D01*
X96146566Y49420006D01*
X95793926Y49273941D01*
X95783761Y49270241D01*
X95419725Y49155462D01*
X95409275Y49152662D01*
X95036612Y49070048D01*
X95025959Y49068170D01*
X94647531Y49018352D01*
X94636755Y49017409D01*
X94252130Y49000619D01*
X94246724Y49000501D01*
X94214422Y49000501D01*
X94184112Y49000501D01*
X94184108Y49000501D01*
X94176504Y49000500D01*
X94176503Y49000501D01*
X94176502Y49000500D01*
X91000000Y49000500D01*
X91000000Y51366741D01*
X91037443Y51341722D01*
X91081265Y51312440D01*
X91081271Y51312437D01*
X91081272Y51312436D01*
X91216999Y51256216D01*
X91353253Y51229114D01*
X91361081Y51227557D01*
X91361085Y51227556D01*
X91361086Y51227556D01*
X91507997Y51227556D01*
X91507998Y51227557D01*
X91652083Y51256216D01*
X91787810Y51312436D01*
X91909961Y51394055D01*
X92013842Y51497936D01*
X92095461Y51620087D01*
X92127332Y51697032D01*
X92171169Y51751431D01*
X92237463Y51773497D01*
X92289344Y51764137D01*
X92341291Y51742620D01*
X92341299Y51742618D01*
X92351974Y51740494D01*
X92351975Y51740495D01*
X92351975Y52477974D01*
X92371660Y52545013D01*
X92424464Y52590768D01*
X92475975Y52601974D01*
X92550613Y52601974D01*
X92580053Y52593330D01*
X92610040Y52586806D01*
X92615055Y52583052D01*
X92617652Y52582289D01*
X92638294Y52565655D01*
X92783359Y52420590D01*
X92816844Y52359267D01*
X92811860Y52289575D01*
X92798780Y52264018D01*
X92707573Y52127519D01*
X92707568Y52127510D01*
X92640163Y51964779D01*
X92640161Y51964771D01*
X92605800Y51792025D01*
X92605800Y51615874D01*
X92640161Y51443128D01*
X92640163Y51443120D01*
X92661699Y51391128D01*
X92669168Y51321658D01*
X92637893Y51259179D01*
X92594591Y51229114D01*
X92518116Y51197437D01*
X92518106Y51197432D01*
X92395962Y51115817D01*
X92395958Y51115814D01*
X92292083Y51011939D01*
X92292080Y51011935D01*
X92210465Y50889791D01*
X92210460Y50889782D01*
X92154243Y50754060D01*
X92154240Y50754050D01*
X92125582Y50609975D01*
X92125582Y50463056D01*
X92153565Y50322376D01*
X92154242Y50318973D01*
X92164626Y50293904D01*
X92210460Y50183249D01*
X92210465Y50183240D01*
X92292080Y50061096D01*
X92292083Y50061092D01*
X92395958Y49957217D01*
X92395962Y49957214D01*
X92518106Y49875599D01*
X92518112Y49875596D01*
X92518113Y49875595D01*
X92653840Y49819375D01*
X92797922Y49790716D01*
X92797926Y49790715D01*
X92797927Y49790715D01*
X92944838Y49790715D01*
X92944839Y49790716D01*
X93088924Y49819375D01*
X93224651Y49875595D01*
X93346802Y49957214D01*
X93450683Y50061095D01*
X93532302Y50183246D01*
X93588522Y50318973D01*
X93617182Y50463060D01*
X93617182Y50609970D01*
X93602039Y50686100D01*
X93608266Y50755688D01*
X93651128Y50810866D01*
X93699463Y50831906D01*
X93760829Y50844112D01*
X93923563Y50911519D01*
X94070019Y51009378D01*
X94194571Y51133930D01*
X94292430Y51280386D01*
X94359837Y51443120D01*
X94393282Y51611268D01*
X94425666Y51673175D01*
X94486381Y51707750D01*
X94490663Y51708683D01*
X94658855Y51742137D01*
X94821589Y51809544D01*
X94968045Y51907403D01*
X95092597Y52031955D01*
X95190456Y52178411D01*
X95257863Y52341145D01*
X95291309Y52509295D01*
X95323693Y52571203D01*
X95384409Y52605777D01*
X95388670Y52606705D01*
X95556880Y52640163D01*
X95719614Y52707570D01*
X95866070Y52805429D01*
X95990622Y52929981D01*
X96088481Y53076437D01*
X96155888Y53239171D01*
X96190251Y53411929D01*
X96190251Y53588071D01*
X96155888Y53760829D01*
X96088481Y53923563D01*
X96088480Y53923564D01*
X96088477Y53923570D01*
X96037156Y54000377D01*
X96016278Y54067055D01*
X96034762Y54134435D01*
X96086741Y54181125D01*
X96092780Y54183819D01*
X96098333Y54186118D01*
X96220484Y54267737D01*
X96324365Y54371618D01*
X96405984Y54493769D01*
X96462204Y54629496D01*
X96490864Y54773583D01*
X96490864Y54920493D01*
X96462204Y55064580D01*
X96405984Y55200307D01*
X96405983Y55200308D01*
X96405980Y55200314D01*
X96324365Y55322458D01*
X96324362Y55322462D01*
X96220487Y55426337D01*
X96220483Y55426340D01*
X96098339Y55507955D01*
X96098330Y55507960D01*
X95962608Y55564177D01*
X95962609Y55564177D01*
X95962606Y55564178D01*
X95962602Y55564179D01*
X95962598Y55564180D01*
X95818523Y55592838D01*
X95818519Y55592838D01*
X95671609Y55592838D01*
X95671604Y55592838D01*
X95527529Y55564180D01*
X95527519Y55564177D01*
X95391797Y55507960D01*
X95391788Y55507955D01*
X95269644Y55426340D01*
X95269640Y55426337D01*
X95165765Y55322462D01*
X95165762Y55322458D01*
X95084147Y55200314D01*
X95084140Y55200300D01*
X95081852Y55194776D01*
X95038010Y55140374D01*
X94971715Y55118312D01*
X94904016Y55135593D01*
X94898402Y55139131D01*
X94821595Y55190452D01*
X94821586Y55190457D01*
X94658856Y55257862D01*
X94634751Y55262657D01*
X94533454Y55282806D01*
X94516697Y55291571D01*
X94498221Y55295590D01*
X94473186Y55314331D01*
X94471546Y55315189D01*
X94469967Y55316741D01*
X94321788Y55464920D01*
X94306367Y55483710D01*
X94221789Y55610289D01*
X94221786Y55610293D01*
X94110289Y55721790D01*
X93979184Y55809391D01*
X93979181Y55809393D01*
X93979179Y55809394D01*
X93965589Y55815023D01*
X93944151Y55826482D01*
X93877867Y55870772D01*
X93877855Y55870779D01*
X93750383Y55923579D01*
X93750373Y55923582D01*
X93615047Y55950500D01*
X93615045Y55950500D01*
X93477057Y55950500D01*
X93477055Y55950500D01*
X93341728Y55923582D01*
X93341718Y55923579D01*
X93214243Y55870778D01*
X93099496Y55794107D01*
X93098443Y55793242D01*
X93097784Y55792963D01*
X93094442Y55790729D01*
X93094018Y55791364D01*
X93034129Y55765940D01*
X92965263Y55777743D01*
X92932114Y55801428D01*
X92773029Y55960513D01*
X92773027Y55960515D01*
X92707412Y55998398D01*
X92641798Y56036281D01*
X92568612Y56055891D01*
X92495428Y56075500D01*
X92495427Y56075500D01*
X91857997Y56075500D01*
X91790958Y56095185D01*
X91770316Y56111819D01*
X91093816Y56788319D01*
X91060331Y56849642D01*
X91065315Y56919334D01*
X91107187Y56975267D01*
X91172651Y56999684D01*
X91181497Y57000000D01*
X98625500Y57000000D01*
X98692539Y56980315D01*
G37*
%TD.AperFunction*%
%TA.AperFunction,Conductor*%
G36*
X91104181Y54167034D02*
G01*
X91130476Y54164681D01*
X91139724Y54158621D01*
X91146480Y54157021D01*
X91153886Y54149340D01*
X91172760Y54136971D01*
X91935243Y53374488D01*
X91968728Y53313165D01*
X91963744Y53243473D01*
X91935245Y53199127D01*
X91907792Y53171674D01*
X91809992Y53025307D01*
X91809987Y53025298D01*
X91742620Y52862658D01*
X91742619Y52862655D01*
X91730422Y52801340D01*
X91698036Y52739430D01*
X91637319Y52704857D01*
X91584615Y52703916D01*
X91536989Y52713389D01*
X91507996Y52719156D01*
X91361086Y52719156D01*
X91361081Y52719156D01*
X91217006Y52690498D01*
X91216996Y52690495D01*
X91081274Y52634278D01*
X91081265Y52634273D01*
X91000000Y52579973D01*
X91000000Y54162057D01*
X91016399Y54162057D01*
X91069614Y54172643D01*
X91078489Y54173115D01*
X91104181Y54167034D01*
G37*
%TD.AperFunction*%
%TD*%
%TA.AperFunction,Conductor*%
%TO.N,GND*%
G36*
X90943039Y73979815D02*
G01*
X90988794Y73927011D01*
X91000000Y73875500D01*
X91000000Y61374500D01*
X90980315Y61307461D01*
X90927511Y61261706D01*
X90876000Y61250500D01*
X90226080Y61250500D01*
X90081092Y61221660D01*
X90081086Y61221658D01*
X89988948Y61183493D01*
X89955500Y61169638D01*
X89938878Y61162753D01*
X89938520Y61163615D01*
X89886160Y61150500D01*
X87338000Y61150500D01*
X87270961Y61170185D01*
X87225206Y61222989D01*
X87214417Y61272583D01*
X87214000Y61273000D01*
X87077881Y61273000D01*
X87043286Y61277924D01*
X87022634Y61283924D01*
X86963748Y61321530D01*
X86934542Y61385003D01*
X86944288Y61454189D01*
X86989892Y61507124D01*
X87056875Y61526999D01*
X87057229Y61527000D01*
X87213999Y61527000D01*
X87213999Y61601006D01*
X87199386Y61693272D01*
X87158198Y61774108D01*
X87145302Y61842777D01*
X87161512Y61885192D01*
X87158295Y61886831D01*
X87219388Y62006735D01*
X87234000Y62098988D01*
X87234000Y62173000D01*
X86827000Y62173000D01*
X86827000Y61677362D01*
X86825959Y61661327D01*
X86805959Y61507965D01*
X86794980Y61483067D01*
X86787315Y61456961D01*
X86781092Y61451570D01*
X86777770Y61444034D01*
X86755071Y61429022D01*
X86734511Y61411206D01*
X86725008Y61409139D01*
X86719493Y61405491D01*
X86707519Y61405335D01*
X86683000Y61400000D01*
X86677000Y61400000D01*
X86660915Y61404723D01*
X86649629Y61404575D01*
X86639158Y61411112D01*
X86609961Y61419685D01*
X86591738Y61440716D01*
X86590361Y61441575D01*
X86589602Y61443181D01*
X86564206Y61472489D01*
X86553000Y61524000D01*
X86553000Y62022638D01*
X86572685Y62089677D01*
X86573000Y62090068D01*
X86573000Y62176000D01*
X86575550Y62184686D01*
X86574262Y62193647D01*
X86585240Y62217688D01*
X86592685Y62243039D01*
X86599525Y62248967D01*
X86603287Y62257203D01*
X86625521Y62271493D01*
X86645489Y62288794D01*
X86656003Y62291082D01*
X86662065Y62294977D01*
X86697000Y62300000D01*
X86700000Y62300000D01*
X86700000Y62303000D01*
X86719685Y62370039D01*
X86772489Y62415794D01*
X86824000Y62427000D01*
X87233999Y62427000D01*
X87233999Y62501007D01*
X87225273Y62556105D01*
X87234229Y62625398D01*
X87279226Y62678849D01*
X87345978Y62699488D01*
X87347747Y62699501D01*
X87550002Y62699501D01*
X87550008Y62699501D01*
X87652797Y62710001D01*
X87819334Y62765186D01*
X87968656Y62857288D01*
X88092712Y62981344D01*
X88141596Y63060598D01*
X88193543Y63107321D01*
X88247134Y63119500D01*
X88634682Y63119500D01*
X88634690Y63119500D01*
X88670993Y63122357D01*
X88670995Y63122358D01*
X88670997Y63122358D01*
X88711975Y63134264D01*
X88826395Y63167506D01*
X88965687Y63249883D01*
X89080117Y63364313D01*
X89162494Y63503605D01*
X89207643Y63659007D01*
X89210500Y63695310D01*
X89210500Y64104690D01*
X89207643Y64140993D01*
X89162494Y64296395D01*
X89080117Y64435687D01*
X89080115Y64435689D01*
X89080112Y64435693D01*
X88984449Y64531356D01*
X88950964Y64592679D01*
X88949657Y64638436D01*
X88964000Y64728989D01*
X88964000Y64773000D01*
X88524000Y64773000D01*
X88515314Y64775551D01*
X88506353Y64774262D01*
X88482312Y64785241D01*
X88456961Y64792685D01*
X88451033Y64799526D01*
X88442797Y64803287D01*
X88428507Y64825522D01*
X88411206Y64845489D01*
X88408918Y64856004D01*
X88405023Y64862065D01*
X88400000Y64897000D01*
X88400000Y64900000D01*
X88397000Y64900000D01*
X88329961Y64919685D01*
X88284206Y64972489D01*
X88273000Y65024000D01*
X88273000Y65027000D01*
X88527000Y65027000D01*
X88963999Y65027000D01*
X88963999Y65071006D01*
X88949386Y65163272D01*
X88892724Y65274475D01*
X88892721Y65274480D01*
X88804479Y65362722D01*
X88804475Y65362725D01*
X88693265Y65419389D01*
X88601012Y65434000D01*
X88527000Y65434000D01*
X88527000Y65027000D01*
X88273000Y65027000D01*
X88273000Y65434000D01*
X88272999Y65434001D01*
X88198993Y65434000D01*
X88142272Y65425016D01*
X88072979Y65433972D01*
X88019528Y65478969D01*
X87998889Y65545721D01*
X87999587Y65560749D01*
X88003999Y65601780D01*
X88004000Y65601790D01*
X88004000Y65973000D01*
X87999699Y65977301D01*
X87982312Y65985241D01*
X87956961Y65992685D01*
X87951033Y65999526D01*
X87942797Y66003287D01*
X87928507Y66025522D01*
X87911206Y66045489D01*
X87908918Y66056004D01*
X87905023Y66062065D01*
X87900000Y66097000D01*
X87900000Y66103000D01*
X87919685Y66170039D01*
X87972489Y66215794D01*
X87998438Y66221440D01*
X88003999Y66227000D01*
X88003999Y66598208D01*
X88003998Y66598217D01*
X87997547Y66658236D01*
X87997546Y66658239D01*
X87946900Y66794022D01*
X87946896Y66794028D01*
X87924731Y66823639D01*
X87900316Y66889104D01*
X87900000Y66897947D01*
X87900000Y67000000D01*
X87758082Y67000000D01*
X87714748Y67007819D01*
X87608236Y67047547D01*
X87608233Y67047548D01*
X87548227Y67054000D01*
X87277000Y67054000D01*
X87259319Y67036319D01*
X87232391Y67021616D01*
X87206573Y67005023D01*
X87200372Y67004132D01*
X87197996Y67002834D01*
X87171638Y67000000D01*
X87128362Y67000000D01*
X87061323Y67019685D01*
X87040681Y67036319D01*
X87009190Y67067810D01*
X86989182Y67073685D01*
X86943427Y67126489D01*
X86933702Y67194123D01*
X86933618Y67194129D01*
X86933647Y67194504D01*
X86933483Y67195647D01*
X86933748Y67197402D01*
X86934000Y67198993D01*
X86934000Y67273000D01*
X86524000Y67273000D01*
X86515314Y67275551D01*
X86506353Y67274262D01*
X86482312Y67285241D01*
X86456961Y67292685D01*
X86451033Y67299526D01*
X86442797Y67303287D01*
X86428507Y67325522D01*
X86411206Y67345489D01*
X86408918Y67356004D01*
X86405023Y67362065D01*
X86400000Y67397000D01*
X86400000Y67400000D01*
X86397000Y67400000D01*
X86329961Y67419685D01*
X86284206Y67472489D01*
X86273000Y67524000D01*
X86273000Y67527000D01*
X86527000Y67527000D01*
X86933999Y67527000D01*
X86933999Y67601006D01*
X86919386Y67693272D01*
X86862724Y67804475D01*
X86862721Y67804480D01*
X86774479Y67892722D01*
X86774475Y67892725D01*
X86663265Y67949389D01*
X86571012Y67964000D01*
X86527000Y67964000D01*
X86527000Y67527000D01*
X86273000Y67527000D01*
X86273000Y67964000D01*
X86228994Y67964000D01*
X86138432Y67949657D01*
X86069139Y67958613D01*
X86031355Y67984450D01*
X85935692Y68080113D01*
X85935684Y68080119D01*
X85844055Y68134308D01*
X85796395Y68162494D01*
X85796394Y68162495D01*
X85796393Y68162495D01*
X85796390Y68162496D01*
X85640997Y68207643D01*
X85640991Y68207644D01*
X85604697Y68210500D01*
X85604690Y68210500D01*
X85411813Y68210500D01*
X85344774Y68230185D01*
X85299019Y68282989D01*
X85289075Y68352147D01*
X85292737Y68369096D01*
X85310143Y68429007D01*
X85313000Y68465310D01*
X85313000Y68934690D01*
X85310143Y68970993D01*
X85264994Y69126395D01*
X85182617Y69265687D01*
X85182615Y69265689D01*
X85182612Y69265693D01*
X85068192Y69380113D01*
X85068184Y69380119D01*
X84928893Y69462495D01*
X84928890Y69462496D01*
X84773497Y69507643D01*
X84773491Y69507644D01*
X84737197Y69510500D01*
X84737190Y69510500D01*
X84632242Y69510500D01*
X84602801Y69519145D01*
X84572815Y69525668D01*
X84567799Y69529423D01*
X84565203Y69530185D01*
X84544561Y69546819D01*
X84476819Y69614561D01*
X84443334Y69675884D01*
X84440500Y69702242D01*
X84440500Y70079169D01*
X84440499Y70079182D01*
X84430436Y70177684D01*
X84396091Y70281330D01*
X84377549Y70337287D01*
X84377545Y70337293D01*
X84377544Y70337296D01*
X84289283Y70480388D01*
X84289280Y70480392D01*
X84257353Y70512319D01*
X84223868Y70573642D01*
X84228852Y70643334D01*
X84257353Y70687681D01*
X84289281Y70719609D01*
X84377549Y70862713D01*
X84430436Y71022315D01*
X84440500Y71120826D01*
X84440500Y71654174D01*
X84430436Y71752685D01*
X84377549Y71912287D01*
X84377545Y71912293D01*
X84377544Y71912296D01*
X84289283Y72055388D01*
X84289280Y72055392D01*
X84170391Y72174281D01*
X84170387Y72174284D01*
X84027295Y72262545D01*
X84027289Y72262548D01*
X84027287Y72262549D01*
X83867685Y72315436D01*
X83867683Y72315437D01*
X83769181Y72325500D01*
X83769174Y72325500D01*
X83160826Y72325500D01*
X83160818Y72325500D01*
X83062316Y72315437D01*
X83062315Y72315436D01*
X82983219Y72289227D01*
X82902715Y72262550D01*
X82902710Y72262548D01*
X82763847Y72176895D01*
X82696455Y72158455D01*
X82633653Y72176895D01*
X82494789Y72262548D01*
X82494784Y72262550D01*
X82493376Y72263017D01*
X82335185Y72315436D01*
X82335183Y72315437D01*
X82236681Y72325500D01*
X82236674Y72325500D01*
X81628326Y72325500D01*
X81628318Y72325500D01*
X81529816Y72315437D01*
X81529815Y72315436D01*
X81450719Y72289227D01*
X81370215Y72262550D01*
X81370210Y72262548D01*
X81231347Y72176895D01*
X81163955Y72158455D01*
X81101153Y72176895D01*
X80962289Y72262548D01*
X80962284Y72262550D01*
X80960876Y72263017D01*
X80802685Y72315436D01*
X80802683Y72315437D01*
X80704181Y72325500D01*
X80704174Y72325500D01*
X80095826Y72325500D01*
X80095818Y72325500D01*
X79997316Y72315437D01*
X79997315Y72315436D01*
X79918219Y72289227D01*
X79837715Y72262550D01*
X79837710Y72262548D01*
X79698847Y72176895D01*
X79631455Y72158455D01*
X79568653Y72176895D01*
X79429789Y72262548D01*
X79429784Y72262550D01*
X79428376Y72263017D01*
X79270185Y72315436D01*
X79270183Y72315437D01*
X79171681Y72325500D01*
X79171674Y72325500D01*
X78563326Y72325500D01*
X78563318Y72325500D01*
X78464816Y72315437D01*
X78464815Y72315436D01*
X78385719Y72289227D01*
X78305215Y72262550D01*
X78305210Y72262548D01*
X78166347Y72176895D01*
X78098955Y72158455D01*
X78036153Y72176895D01*
X77897289Y72262548D01*
X77897284Y72262550D01*
X77895876Y72263017D01*
X77737685Y72315436D01*
X77737683Y72315437D01*
X77639181Y72325500D01*
X77639174Y72325500D01*
X77030826Y72325500D01*
X77030818Y72325500D01*
X76932316Y72315437D01*
X76932315Y72315436D01*
X76853219Y72289227D01*
X76772715Y72262550D01*
X76772704Y72262545D01*
X76629612Y72174284D01*
X76629608Y72174281D01*
X76510719Y72055392D01*
X76510716Y72055388D01*
X76422455Y71912296D01*
X76422451Y71912287D01*
X76369564Y71752685D01*
X76369564Y71752684D01*
X76369563Y71752684D01*
X76359500Y71654182D01*
X76359500Y71120819D01*
X76369563Y71022317D01*
X76422450Y70862716D01*
X76422455Y70862705D01*
X76510716Y70719613D01*
X76510719Y70719609D01*
X76542647Y70687681D01*
X76576132Y70626358D01*
X76571148Y70556666D01*
X76542647Y70512319D01*
X76510719Y70480392D01*
X76510716Y70480388D01*
X76422455Y70337296D01*
X76422450Y70337285D01*
X76395773Y70256781D01*
X76369564Y70177685D01*
X76369564Y70177684D01*
X76369563Y70177684D01*
X76359500Y70079182D01*
X76359500Y69702242D01*
X76350855Y69672802D01*
X76344332Y69642815D01*
X76340577Y69637800D01*
X76339815Y69635203D01*
X76323181Y69614561D01*
X76255439Y69546819D01*
X76194116Y69513334D01*
X76167758Y69510500D01*
X76127802Y69510500D01*
X76091508Y69507644D01*
X76091502Y69507643D01*
X75936109Y69462496D01*
X75936106Y69462495D01*
X75796815Y69380119D01*
X75796807Y69380113D01*
X75682387Y69265693D01*
X75682381Y69265685D01*
X75600005Y69126394D01*
X75600004Y69126391D01*
X75554857Y68970998D01*
X75554856Y68970992D01*
X75552000Y68934698D01*
X75552000Y68465303D01*
X75554856Y68429009D01*
X75554857Y68429003D01*
X75600004Y68273610D01*
X75600005Y68273607D01*
X75600006Y68273605D01*
X75636857Y68211293D01*
X75682381Y68134316D01*
X75682387Y68134308D01*
X75796807Y68019888D01*
X75796811Y68019885D01*
X75796813Y68019883D01*
X75936105Y67937506D01*
X75977087Y67925600D01*
X76091502Y67892358D01*
X76091505Y67892358D01*
X76091507Y67892357D01*
X76127810Y67889500D01*
X76127818Y67889500D01*
X76537182Y67889500D01*
X76537190Y67889500D01*
X76573493Y67892357D01*
X76573495Y67892358D01*
X76573497Y67892358D01*
X76614475Y67904264D01*
X76728895Y67937506D01*
X76769379Y67961449D01*
X76776840Y67963342D01*
X76782738Y67968294D01*
X76810231Y67971814D01*
X76837102Y67978632D01*
X76846151Y67976413D01*
X76852042Y67977167D01*
X76871086Y67970298D01*
X76885749Y67966702D01*
X76890792Y67964304D01*
X76936105Y67937506D01*
X76964494Y67929259D01*
X76973532Y67924961D01*
X76986557Y67913317D01*
X77007964Y67900657D01*
X77097986Y67810635D01*
X77205136Y67703485D01*
X77336366Y67627719D01*
X77482735Y67588500D01*
X78646258Y67588500D01*
X78713297Y67568815D01*
X78733939Y67552181D01*
X78990644Y67295476D01*
X79024129Y67234154D01*
X79019145Y67164463D01*
X78977274Y67108529D01*
X78911809Y67084112D01*
X78896354Y67083972D01*
X78895829Y67084000D01*
X78727000Y67084000D01*
X78727000Y66504000D01*
X78724449Y66495315D01*
X78725738Y66486353D01*
X78714759Y66462313D01*
X78707315Y66436961D01*
X78700474Y66431034D01*
X78696713Y66422797D01*
X78674478Y66408508D01*
X78654511Y66391206D01*
X78643996Y66388919D01*
X78637935Y66385023D01*
X78603000Y66380000D01*
X78597000Y66380000D01*
X78529961Y66399685D01*
X78484206Y66452489D01*
X78473000Y66504000D01*
X78473000Y67084000D01*
X78304163Y67084000D01*
X78247132Y67077867D01*
X78247127Y67077866D01*
X78118078Y67029733D01*
X78118075Y67029731D01*
X78007814Y66947189D01*
X78007811Y66947186D01*
X77925269Y66836925D01*
X77925267Y66836921D01*
X77915996Y66812065D01*
X77874123Y66756132D01*
X77808658Y66731718D01*
X77756482Y66739220D01*
X77652866Y66777868D01*
X77595836Y66784000D01*
X77427000Y66784000D01*
X77427000Y66204000D01*
X77424449Y66195315D01*
X77425738Y66186353D01*
X77414759Y66162313D01*
X77407315Y66136961D01*
X77400474Y66131034D01*
X77396713Y66122797D01*
X77374478Y66108508D01*
X77354511Y66091206D01*
X77343996Y66088919D01*
X77337935Y66085023D01*
X77303000Y66080000D01*
X77300000Y66080000D01*
X77300000Y66077000D01*
X77280315Y66009961D01*
X77227511Y65964206D01*
X77176000Y65953000D01*
X76571000Y65953000D01*
X76568921Y65950922D01*
X76551315Y65890961D01*
X76498511Y65845206D01*
X76447000Y65834000D01*
X76427000Y65834000D01*
X76427000Y65424000D01*
X76424449Y65415315D01*
X76425738Y65406353D01*
X76414759Y65382313D01*
X76407315Y65356961D01*
X76400474Y65351034D01*
X76396713Y65342797D01*
X76374478Y65328508D01*
X76354511Y65311206D01*
X76343996Y65308919D01*
X76337935Y65305023D01*
X76303000Y65300000D01*
X76300000Y65300000D01*
X76300000Y65297000D01*
X76280315Y65229961D01*
X76227511Y65184206D01*
X76176000Y65173000D01*
X74936001Y65173000D01*
X74936001Y65128994D01*
X74950343Y65038432D01*
X74941387Y64969139D01*
X74915550Y64931355D01*
X74819887Y64835693D01*
X74819881Y64835685D01*
X74737505Y64696394D01*
X74737504Y64696391D01*
X74692357Y64540998D01*
X74692356Y64540992D01*
X74689500Y64504698D01*
X74689500Y64326988D01*
X74669815Y64259949D01*
X74617011Y64214194D01*
X74604505Y64209282D01*
X74530666Y64184814D01*
X74381342Y64092711D01*
X74257289Y63968658D01*
X74165187Y63819337D01*
X74165186Y63819334D01*
X74110001Y63652797D01*
X74110001Y63652796D01*
X74110000Y63652796D01*
X74099500Y63550017D01*
X74099500Y62949999D01*
X74099501Y62949981D01*
X74110000Y62847204D01*
X74110001Y62847201D01*
X74153597Y62715639D01*
X74165186Y62680666D01*
X74242015Y62556105D01*
X74257289Y62531343D01*
X74303135Y62485497D01*
X74336620Y62424174D01*
X74331636Y62354482D01*
X74327000Y62347269D01*
X74327000Y61927000D01*
X74493112Y61927000D01*
X74505009Y61923507D01*
X74517358Y61924606D01*
X74537901Y61913849D01*
X74560151Y61907315D01*
X74568269Y61897946D01*
X74579255Y61892193D01*
X74590722Y61872035D01*
X74605906Y61854511D01*
X74607670Y61842240D01*
X74613801Y61831462D01*
X74612549Y61808308D01*
X74615850Y61785353D01*
X74610699Y61774075D01*
X74610030Y61761694D01*
X74596458Y61742892D01*
X74586825Y61721797D01*
X74575401Y61713718D01*
X74569138Y61705040D01*
X74544713Y61692014D01*
X74538460Y61687590D01*
X74535319Y61686357D01*
X74530666Y61684814D01*
X74529386Y61684025D01*
X74523190Y61681590D01*
X74512155Y61680608D01*
X74477842Y61673000D01*
X73636001Y61673000D01*
X73636001Y61628994D01*
X73650343Y61538432D01*
X73641387Y61469139D01*
X73615550Y61431355D01*
X73519887Y61335693D01*
X73519881Y61335685D01*
X73437505Y61196394D01*
X73437504Y61196391D01*
X73392357Y61040998D01*
X73392356Y61040992D01*
X73389500Y61004698D01*
X73389500Y60595303D01*
X73392356Y60559009D01*
X73392357Y60559003D01*
X73437504Y60403610D01*
X73437505Y60403607D01*
X73519881Y60264316D01*
X73519887Y60264308D01*
X73634307Y60149888D01*
X73634311Y60149885D01*
X73634313Y60149883D01*
X73773605Y60067506D01*
X73782606Y60064891D01*
X73929002Y60022358D01*
X73929005Y60022358D01*
X73929007Y60022357D01*
X73965310Y60019500D01*
X74217770Y60019500D01*
X74284809Y59999815D01*
X74305451Y59983181D01*
X74381344Y59907288D01*
X74530666Y59815186D01*
X74697203Y59760001D01*
X74799991Y59749500D01*
X76200008Y59749501D01*
X76302797Y59760001D01*
X76469334Y59815186D01*
X76493272Y59829952D01*
X76560663Y59848392D01*
X76627327Y59827470D01*
X76672097Y59773829D01*
X76681484Y59709632D01*
X76679500Y59693102D01*
X76679500Y59506898D01*
X76681372Y59491312D01*
X76690561Y59414783D01*
X76690561Y59385217D01*
X76686475Y59351187D01*
X76679500Y59293102D01*
X76679500Y59106898D01*
X76685222Y59059246D01*
X76690561Y59014783D01*
X76690561Y58985217D01*
X76685054Y58939354D01*
X76679500Y58893102D01*
X76679500Y58706898D01*
X76685222Y58659246D01*
X76690561Y58614783D01*
X76691285Y58593712D01*
X76690748Y58583151D01*
X76690123Y58581564D01*
X76679500Y58493102D01*
X76679500Y58361606D01*
X76679340Y58358454D01*
X76668805Y58328323D01*
X76659815Y58297703D01*
X76656788Y58293947D01*
X76656282Y58292499D01*
X76654498Y58291106D01*
X76643181Y58277061D01*
X76038925Y57672805D01*
X75977602Y57639320D01*
X75907910Y57644304D01*
X75875712Y57664997D01*
X75874319Y57663234D01*
X75868658Y57667710D01*
X75868656Y57667712D01*
X75719334Y57759814D01*
X75552797Y57814999D01*
X75552795Y57815000D01*
X75450010Y57825500D01*
X74049998Y57825500D01*
X74049981Y57825499D01*
X73947203Y57815000D01*
X73947200Y57814999D01*
X73780668Y57759815D01*
X73780663Y57759813D01*
X73631342Y57667711D01*
X73507289Y57543658D01*
X73415187Y57394337D01*
X73415185Y57394332D01*
X73390665Y57320335D01*
X73360001Y57227797D01*
X73360001Y57227796D01*
X73360000Y57227796D01*
X73349500Y57125017D01*
X73349500Y57125004D01*
X73349501Y56199500D01*
X73329817Y56132461D01*
X73277013Y56086706D01*
X73225501Y56075500D01*
X73169482Y56075500D01*
X73102443Y56095185D01*
X73056688Y56147989D01*
X73046744Y56217147D01*
X73050405Y56234094D01*
X73056981Y56256729D01*
X73057643Y56259007D01*
X73060500Y56295310D01*
X73060500Y56704690D01*
X73057643Y56740993D01*
X73012494Y56896395D01*
X72930117Y57035687D01*
X72930115Y57035689D01*
X72930112Y57035693D01*
X72815692Y57150113D01*
X72815684Y57150119D01*
X72728671Y57201578D01*
X72676395Y57232494D01*
X72676394Y57232495D01*
X72676393Y57232495D01*
X72676390Y57232496D01*
X72520997Y57277643D01*
X72520991Y57277644D01*
X72484697Y57280500D01*
X72484690Y57280500D01*
X72441599Y57280500D01*
X72417408Y57282883D01*
X72386108Y57289109D01*
X72328844Y57300500D01*
X72328842Y57300500D01*
X72171158Y57300500D01*
X72171156Y57300500D01*
X72113892Y57289109D01*
X72082591Y57282883D01*
X72058401Y57280500D01*
X72015302Y57280500D01*
X71979008Y57277644D01*
X71979002Y57277643D01*
X71823609Y57232496D01*
X71823606Y57232495D01*
X71684315Y57150119D01*
X71684307Y57150113D01*
X71569887Y57035693D01*
X71569881Y57035685D01*
X71487505Y56896394D01*
X71487504Y56896391D01*
X71442357Y56740998D01*
X71442356Y56740992D01*
X71439500Y56704698D01*
X71439500Y56295303D01*
X71442356Y56259009D01*
X71442357Y56259003D01*
X71487504Y56103610D01*
X71487506Y56103605D01*
X71511448Y56063119D01*
X71528629Y55995394D01*
X71511448Y55936881D01*
X71487506Y55896396D01*
X71487504Y55896391D01*
X71442357Y55740998D01*
X71442356Y55740992D01*
X71439500Y55704698D01*
X71439500Y55295303D01*
X71442356Y55259009D01*
X71442357Y55259003D01*
X71487504Y55103610D01*
X71487505Y55103607D01*
X71487506Y55103605D01*
X71501843Y55079362D01*
X71569881Y54964316D01*
X71569887Y54964308D01*
X71684307Y54849888D01*
X71684311Y54849885D01*
X71684313Y54849883D01*
X71823605Y54767506D01*
X71849706Y54759923D01*
X71979002Y54722358D01*
X71979005Y54722358D01*
X71979007Y54722357D01*
X72015310Y54719500D01*
X72015318Y54719500D01*
X72484682Y54719500D01*
X72484690Y54719500D01*
X72520993Y54722357D01*
X72520995Y54722358D01*
X72520997Y54722358D01*
X72564231Y54734919D01*
X72676395Y54767506D01*
X72815687Y54849883D01*
X72853984Y54888180D01*
X72915307Y54921666D01*
X72941666Y54924500D01*
X73675764Y54924500D01*
X73675766Y54924500D01*
X73822135Y54963719D01*
X73953365Y55039485D01*
X74352061Y55438183D01*
X74413384Y55471667D01*
X74439742Y55474501D01*
X75450002Y55474501D01*
X75450008Y55474501D01*
X75552797Y55485001D01*
X75719334Y55540186D01*
X75868656Y55632288D01*
X75992712Y55756344D01*
X76084814Y55905666D01*
X76139999Y56072203D01*
X76143925Y56110642D01*
X76170319Y56175333D01*
X76179601Y56185722D01*
X76183362Y56189484D01*
X76183365Y56189485D01*
X76484324Y56490445D01*
X76545642Y56523926D01*
X76615333Y56518942D01*
X76671267Y56477071D01*
X76695684Y56411606D01*
X76696000Y56402762D01*
X76696000Y56348996D01*
X76710613Y56256729D01*
X76767275Y56145526D01*
X76767278Y56145521D01*
X76855520Y56057279D01*
X76855524Y56057276D01*
X76966734Y56000612D01*
X77058987Y55986001D01*
X77102999Y55986001D01*
X77103000Y55986002D01*
X77103000Y56426000D01*
X77105550Y56434686D01*
X77104262Y56443647D01*
X77115240Y56467688D01*
X77122685Y56493039D01*
X77129525Y56498967D01*
X77133287Y56507203D01*
X77155521Y56521493D01*
X77175489Y56538794D01*
X77186003Y56541082D01*
X77192065Y56544977D01*
X77227000Y56550000D01*
X77233000Y56550000D01*
X77300039Y56530315D01*
X77345794Y56477511D01*
X77357000Y56426000D01*
X77357000Y55986001D01*
X77401011Y55986001D01*
X77401011Y55986002D01*
X77491566Y56000343D01*
X77560859Y55991388D01*
X77598644Y55965551D01*
X77694307Y55869888D01*
X77694311Y55869885D01*
X77694313Y55869883D01*
X77833605Y55787506D01*
X77976756Y55745917D01*
X77989608Y55741403D01*
X78016503Y55730263D01*
X78016506Y55730263D01*
X78016511Y55730261D01*
X78171153Y55699501D01*
X78171156Y55699500D01*
X78171158Y55699500D01*
X78328844Y55699500D01*
X78328845Y55699501D01*
X78483497Y55730263D01*
X78604353Y55780324D01*
X78617202Y55784836D01*
X78626395Y55787506D01*
X78765687Y55869883D01*
X78880117Y55984313D01*
X78904499Y56025542D01*
X78955565Y56073223D01*
X79024306Y56085729D01*
X79088896Y56059084D01*
X79107085Y56041083D01*
X79108215Y56039706D01*
X79219707Y55928214D01*
X79219711Y55928211D01*
X79350814Y55840610D01*
X79350827Y55840603D01*
X79479019Y55787505D01*
X79496503Y55780263D01*
X79651153Y55749501D01*
X79651156Y55749500D01*
X79651158Y55749500D01*
X79808844Y55749500D01*
X79931308Y55773860D01*
X80000900Y55767633D01*
X80056077Y55724770D01*
X80079322Y55658880D01*
X80079500Y55652243D01*
X80079500Y55621154D01*
X80110261Y55466511D01*
X80110264Y55466499D01*
X80170602Y55320828D01*
X80170609Y55320815D01*
X80258210Y55189712D01*
X80258213Y55189708D01*
X80369710Y55078211D01*
X80486015Y55000499D01*
X80500821Y54990606D01*
X80517290Y54983785D01*
X80524221Y54979153D01*
X80529264Y54978056D01*
X80557518Y54956905D01*
X80718181Y54796242D01*
X80751666Y54734919D01*
X80754500Y54708561D01*
X80754500Y54327131D01*
X80754501Y54327124D01*
X80760908Y54267517D01*
X80811202Y54132672D01*
X80811203Y54132670D01*
X80877751Y54043774D01*
X80889592Y54012026D01*
X80901991Y53980514D01*
X80901909Y53979002D01*
X80902168Y53978310D01*
X80900101Y53945271D01*
X80886184Y53875308D01*
X80853799Y53813397D01*
X80793083Y53778823D01*
X80764568Y53775500D01*
X80557130Y53775500D01*
X80557123Y53775499D01*
X80497516Y53769092D01*
X80362669Y53718797D01*
X80356942Y53715669D01*
X80297513Y53700500D01*
X79910915Y53700500D01*
X79843876Y53720185D01*
X79798121Y53772989D01*
X79788177Y53842147D01*
X79788442Y53843899D01*
X79794000Y53878989D01*
X79794000Y53923000D01*
X77836001Y53923000D01*
X77836001Y53878994D01*
X77850343Y53788432D01*
X77841387Y53719139D01*
X77815550Y53681355D01*
X77719887Y53585693D01*
X77719881Y53585685D01*
X77637505Y53446394D01*
X77637504Y53446391D01*
X77592357Y53290998D01*
X77592356Y53290992D01*
X77589500Y53254698D01*
X77589500Y52845303D01*
X77592356Y52809009D01*
X77592357Y52809003D01*
X77637504Y52653610D01*
X77637505Y52653607D01*
X77719881Y52514316D01*
X77719887Y52514308D01*
X77834307Y52399888D01*
X77834311Y52399885D01*
X77834313Y52399883D01*
X77973605Y52317506D01*
X77984998Y52314196D01*
X78129002Y52272358D01*
X78129005Y52272358D01*
X78129007Y52272357D01*
X78165310Y52269500D01*
X78208401Y52269500D01*
X78232591Y52267118D01*
X78260992Y52261468D01*
X78321156Y52249500D01*
X78321158Y52249500D01*
X78478843Y52249500D01*
X78524398Y52258562D01*
X78567424Y52267121D01*
X78569973Y52267600D01*
X78580700Y52269500D01*
X78634690Y52269500D01*
X78670993Y52272357D01*
X78786814Y52306008D01*
X78793374Y52307169D01*
X78820679Y52304145D01*
X78849595Y52304145D01*
X78959007Y52272357D01*
X78995310Y52269500D01*
X78995318Y52269500D01*
X79464682Y52269500D01*
X79464690Y52269500D01*
X79500993Y52272357D01*
X79500995Y52272358D01*
X79500997Y52272358D01*
X79564783Y52290890D01*
X79656395Y52317506D01*
X79765840Y52382233D01*
X79828961Y52399500D01*
X80130823Y52399500D01*
X80197862Y52379815D01*
X80233923Y52344392D01*
X80274723Y52283331D01*
X80274726Y52283327D01*
X80489327Y52068726D01*
X80557314Y52023299D01*
X80595867Y51997539D01*
X80595875Y51997534D01*
X80622692Y51986426D01*
X80714256Y51948499D01*
X80714260Y51948499D01*
X80714261Y51948498D01*
X80839928Y51923500D01*
X80839931Y51923500D01*
X82020071Y51923500D01*
X82104615Y51940318D01*
X82145744Y51948499D01*
X82264127Y51997535D01*
X82293937Y52017453D01*
X82293938Y52017453D01*
X82366134Y52065693D01*
X82370669Y52068723D01*
X82585276Y52283330D01*
X82614203Y52326623D01*
X82642780Y52369391D01*
X82696392Y52414197D01*
X82745882Y52424501D01*
X82952871Y52424501D01*
X82952872Y52424501D01*
X83012483Y52430909D01*
X83147331Y52481204D01*
X83170525Y52498567D01*
X83191273Y52506306D01*
X83209901Y52518277D01*
X83231817Y52521429D01*
X83235989Y52522984D01*
X83244836Y52523300D01*
X83273259Y52523300D01*
X83340298Y52503615D01*
X83360940Y52486981D01*
X83369707Y52478214D01*
X83369711Y52478211D01*
X83500814Y52390610D01*
X83500827Y52390603D01*
X83646498Y52330265D01*
X83646503Y52330263D01*
X83762604Y52307169D01*
X83801153Y52299501D01*
X83801156Y52299500D01*
X83801158Y52299500D01*
X83958844Y52299500D01*
X83958845Y52299501D01*
X84113497Y52330263D01*
X84238962Y52382232D01*
X84259172Y52390603D01*
X84259172Y52390604D01*
X84259179Y52390606D01*
X84361610Y52459049D01*
X84428286Y52479926D01*
X84495666Y52461442D01*
X84542357Y52409463D01*
X84554500Y52355950D01*
X84554500Y52327132D01*
X84554501Y52327124D01*
X84560908Y52267517D01*
X84611202Y52132672D01*
X84611206Y52132665D01*
X84697452Y52017456D01*
X84697455Y52017453D01*
X84812664Y51931207D01*
X84812671Y51931203D01*
X84857618Y51914439D01*
X84947517Y51880909D01*
X85007127Y51874500D01*
X85452872Y51874501D01*
X85466741Y51875992D01*
X85493250Y51875992D01*
X85507127Y51874500D01*
X85952872Y51874501D01*
X85966741Y51875992D01*
X85993250Y51875992D01*
X86007127Y51874500D01*
X86452872Y51874501D01*
X86512483Y51880909D01*
X86647331Y51931204D01*
X86655687Y51937461D01*
X86721149Y51961879D01*
X86789422Y51947030D01*
X86804304Y51937466D01*
X86812669Y51931204D01*
X86947517Y51880909D01*
X87007127Y51874500D01*
X87452872Y51874501D01*
X87512483Y51880909D01*
X87647331Y51931204D01*
X87762546Y52017454D01*
X87848796Y52132669D01*
X87870512Y52190891D01*
X87878849Y52213245D01*
X87920719Y52269179D01*
X87986184Y52293597D01*
X88054457Y52278746D01*
X88058146Y52276649D01*
X88073605Y52267506D01*
X88073612Y52267504D01*
X88229002Y52222358D01*
X88229005Y52222358D01*
X88229007Y52222357D01*
X88265310Y52219500D01*
X88308401Y52219500D01*
X88332591Y52217118D01*
X88352058Y52213245D01*
X88421156Y52199500D01*
X88421158Y52199500D01*
X88578843Y52199500D01*
X88647942Y52213245D01*
X88667408Y52217118D01*
X88691599Y52219500D01*
X88734682Y52219500D01*
X88734690Y52219500D01*
X88770993Y52222357D01*
X88770995Y52222358D01*
X88770997Y52222358D01*
X88926388Y52267504D01*
X88926387Y52267504D01*
X88926395Y52267506D01*
X88936880Y52273708D01*
X89004600Y52290890D01*
X89063118Y52273708D01*
X89073605Y52267506D01*
X89073610Y52267505D01*
X89073611Y52267504D01*
X89229002Y52222358D01*
X89229005Y52222358D01*
X89229007Y52222357D01*
X89265310Y52219500D01*
X89265318Y52219500D01*
X89734682Y52219500D01*
X89734690Y52219500D01*
X89770993Y52222357D01*
X89770995Y52222358D01*
X89770997Y52222358D01*
X89811975Y52234264D01*
X89926395Y52267506D01*
X90065687Y52349883D01*
X90180117Y52464313D01*
X90262494Y52603605D01*
X90307643Y52759007D01*
X90310500Y52795310D01*
X90310500Y53204690D01*
X90307643Y53240993D01*
X90303661Y53254698D01*
X90262495Y53396391D01*
X90262494Y53396394D01*
X90262494Y53396395D01*
X90180117Y53535687D01*
X90180115Y53535689D01*
X90180112Y53535693D01*
X90084449Y53631356D01*
X90050964Y53692679D01*
X90049657Y53738436D01*
X90064000Y53828989D01*
X90064000Y53873000D01*
X88624000Y53873000D01*
X88615314Y53875551D01*
X88606353Y53874262D01*
X88582312Y53885241D01*
X88556961Y53892685D01*
X88551033Y53899526D01*
X88542797Y53903287D01*
X88528507Y53925522D01*
X88511206Y53945489D01*
X88508918Y53956004D01*
X88505023Y53962065D01*
X88500000Y53997000D01*
X88500000Y54003000D01*
X88519685Y54070039D01*
X88572489Y54115794D01*
X88624000Y54127000D01*
X89373000Y54127000D01*
X89627000Y54127000D01*
X90063999Y54127000D01*
X90063999Y54171006D01*
X90049386Y54263272D01*
X89992724Y54374475D01*
X89992721Y54374480D01*
X89904479Y54462722D01*
X89904475Y54462725D01*
X89793265Y54519389D01*
X89701012Y54534000D01*
X89627000Y54534000D01*
X89627000Y54127000D01*
X89373000Y54127000D01*
X89373000Y54534000D01*
X89372999Y54534001D01*
X89298995Y54534000D01*
X89206728Y54519387D01*
X89095525Y54462725D01*
X89095520Y54462722D01*
X89087681Y54454882D01*
X89026358Y54421397D01*
X88956666Y54426381D01*
X88912319Y54454882D01*
X88904479Y54462722D01*
X88904475Y54462725D01*
X88793265Y54519389D01*
X88701012Y54534000D01*
X88605500Y54534000D01*
X88599551Y54535747D01*
X88593463Y54534586D01*
X88566425Y54545474D01*
X88538461Y54553685D01*
X88534402Y54558370D01*
X88528651Y54560685D01*
X88511789Y54584466D01*
X88492706Y54606489D01*
X88490914Y54613907D01*
X88488238Y54617681D01*
X88484274Y54641398D01*
X88481629Y54652351D01*
X88481500Y54655180D01*
X88481500Y54801766D01*
X88476928Y54818828D01*
X88442281Y54948135D01*
X88366515Y55079365D01*
X88259365Y55186515D01*
X88259363Y55186517D01*
X87935365Y55510515D01*
X87813908Y55580639D01*
X87776644Y55613713D01*
X87762546Y55632546D01*
X87647331Y55718796D01*
X87647329Y55718797D01*
X87647328Y55718798D01*
X87512486Y55769090D01*
X87512485Y55769091D01*
X87512483Y55769091D01*
X87452873Y55775500D01*
X87452863Y55775500D01*
X87007133Y55775500D01*
X87007121Y55775499D01*
X86993248Y55774008D01*
X86966756Y55774009D01*
X86952889Y55775499D01*
X86952875Y55775500D01*
X86952873Y55775500D01*
X86952870Y55775500D01*
X86507133Y55775500D01*
X86507121Y55775499D01*
X86493248Y55774008D01*
X86478823Y55773305D01*
X86472756Y55773363D01*
X86452873Y55775500D01*
X86248289Y55775500D01*
X86247659Y55775506D01*
X86214776Y55785503D01*
X86181801Y55795185D01*
X86181119Y55795734D01*
X86180810Y55795828D01*
X86180390Y55796322D01*
X86161159Y55811818D01*
X86129498Y55843479D01*
X86084102Y55888875D01*
X84961502Y57011475D01*
X84961500Y57011476D01*
X84961498Y57011478D01*
X84830000Y57087398D01*
X84829999Y57087399D01*
X84829998Y57087399D01*
X84683324Y57126700D01*
X84683323Y57126700D01*
X84486741Y57126700D01*
X84465228Y57133017D01*
X84442870Y57134720D01*
X84429069Y57143635D01*
X84419702Y57146385D01*
X84411972Y57151778D01*
X84405124Y57156954D01*
X84390289Y57171789D01*
X84348968Y57199399D01*
X84346085Y57201578D01*
X84327344Y57226857D01*
X84307158Y57251010D01*
X84306693Y57254711D01*
X84304473Y57257705D01*
X84302372Y57289109D01*
X84298451Y57320335D01*
X84300059Y57323698D01*
X84299811Y57327419D01*
X84315020Y57354968D01*
X84328605Y57383363D01*
X84331778Y57385324D01*
X84333580Y57388586D01*
X84361262Y57403536D01*
X84388048Y57420082D01*
X84393179Y57420774D01*
X84395057Y57421787D01*
X84398666Y57421513D01*
X84420854Y57424500D01*
X87927158Y57424500D01*
X87994197Y57404815D01*
X88014839Y57388181D01*
X90127447Y55275573D01*
X90160932Y55214250D01*
X90161383Y55163701D01*
X90137057Y55041404D01*
X90137057Y54883711D01*
X90167818Y54729068D01*
X90167821Y54729056D01*
X90228159Y54583385D01*
X90228166Y54583372D01*
X90315767Y54452269D01*
X90315770Y54452265D01*
X90427264Y54340771D01*
X90427268Y54340768D01*
X90558371Y54253167D01*
X90558384Y54253160D01*
X90636012Y54221006D01*
X90704060Y54192820D01*
X90813726Y54171006D01*
X90858710Y54162058D01*
X90858713Y54162057D01*
X91000000Y54162057D01*
X91000000Y52579973D01*
X90959121Y52552658D01*
X90959117Y52552655D01*
X90855242Y52448780D01*
X90855239Y52448776D01*
X90773624Y52326632D01*
X90773619Y52326623D01*
X90717402Y52190901D01*
X90717399Y52190891D01*
X90688741Y52046816D01*
X90688741Y51899897D01*
X90717399Y51755822D01*
X90717402Y51755812D01*
X90773619Y51620090D01*
X90773624Y51620081D01*
X90855239Y51497937D01*
X90855242Y51497933D01*
X90959117Y51394058D01*
X90959121Y51394055D01*
X91000000Y51366741D01*
X91000000Y49000500D01*
X71252712Y49000500D01*
X71247302Y49000618D01*
X70863252Y49017389D01*
X70852476Y49018332D01*
X70474044Y49068156D01*
X70463391Y49070034D01*
X70090728Y49152653D01*
X70080279Y49155453D01*
X69716242Y49270235D01*
X69706077Y49273935D01*
X69353427Y49420008D01*
X69343623Y49424580D01*
X69005056Y49600827D01*
X68995688Y49606235D01*
X68673752Y49811330D01*
X68664891Y49817535D01*
X68362072Y50049896D01*
X68353785Y50056849D01*
X68072358Y50314727D01*
X68064709Y50322376D01*
X67806828Y50603800D01*
X67799875Y50612087D01*
X67746251Y50681970D01*
X67567509Y50914909D01*
X67561307Y50923766D01*
X67367768Y51227556D01*
X67356213Y51245695D01*
X67350806Y51255059D01*
X67350204Y51256216D01*
X67174542Y51593650D01*
X67169985Y51603421D01*
X67034210Y51931204D01*
X67023899Y51956096D01*
X67020200Y51966261D01*
X67001116Y52026784D01*
X73596001Y52026784D01*
X73602452Y51966765D01*
X73602453Y51966762D01*
X73653099Y51830979D01*
X73653103Y51830973D01*
X73739952Y51714953D01*
X73855972Y51628104D01*
X73855974Y51628103D01*
X73991768Y51577453D01*
X74051780Y51571001D01*
X74622999Y51571001D01*
X74877000Y51571001D01*
X75448207Y51571001D01*
X75448216Y51571002D01*
X75508235Y51577453D01*
X75508238Y51577454D01*
X75644021Y51628100D01*
X75644027Y51628104D01*
X75760047Y51714953D01*
X75846896Y51830973D01*
X75846897Y51830975D01*
X75897547Y51966769D01*
X75903999Y52026773D01*
X75904000Y52026790D01*
X75904000Y52373000D01*
X74877000Y52373000D01*
X74877000Y51571001D01*
X74622999Y51571001D01*
X74623000Y51571002D01*
X74623000Y52373000D01*
X73596001Y52373000D01*
X73596001Y52026784D01*
X67001116Y52026784D01*
X66905418Y52330288D01*
X66902618Y52340736D01*
X66901808Y52344390D01*
X66819993Y52713406D01*
X66818121Y52724021D01*
X66785308Y52973228D01*
X73596000Y52973228D01*
X73596000Y52627000D01*
X74623000Y52627000D01*
X74877000Y52627000D01*
X75903999Y52627000D01*
X75903999Y52973208D01*
X75903998Y52973217D01*
X75897547Y53033236D01*
X75897546Y53033239D01*
X75846900Y53169022D01*
X75846896Y53169028D01*
X75760047Y53285048D01*
X75644027Y53371897D01*
X75644025Y53371898D01*
X75508231Y53422548D01*
X75448227Y53429000D01*
X74877000Y53429000D01*
X74877000Y52627000D01*
X74623000Y52627000D01*
X74623000Y53429000D01*
X74051792Y53429000D01*
X74051783Y53428999D01*
X73991764Y53422548D01*
X73991761Y53422547D01*
X73855978Y53371901D01*
X73855972Y53371897D01*
X73739952Y53285048D01*
X73653103Y53169028D01*
X73653102Y53169026D01*
X73602452Y53033232D01*
X73596000Y52973228D01*
X66785308Y52973228D01*
X66768287Y53102501D01*
X66767347Y53113242D01*
X66750618Y53496279D01*
X66750500Y53501689D01*
X66750500Y54221013D01*
X77836000Y54221013D01*
X77836000Y54177000D01*
X78273000Y54177000D01*
X78273000Y54584000D01*
X78527000Y54584000D01*
X78527000Y54177000D01*
X79103000Y54177000D01*
X79357000Y54177000D01*
X79793999Y54177000D01*
X79793999Y54221006D01*
X79779386Y54313272D01*
X79722724Y54424475D01*
X79722721Y54424480D01*
X79634479Y54512722D01*
X79634475Y54512725D01*
X79523265Y54569389D01*
X79431012Y54584000D01*
X79357000Y54584000D01*
X79357000Y54177000D01*
X79103000Y54177000D01*
X79103000Y54584000D01*
X79102999Y54584001D01*
X79028995Y54584000D01*
X78936728Y54569387D01*
X78871294Y54536046D01*
X78802624Y54523150D01*
X78758704Y54536046D01*
X78693265Y54569389D01*
X78601012Y54584000D01*
X78527000Y54584000D01*
X78273000Y54584000D01*
X78272999Y54584001D01*
X78198995Y54584000D01*
X78106728Y54569387D01*
X77995525Y54512725D01*
X77995520Y54512722D01*
X77907278Y54424480D01*
X77907275Y54424476D01*
X77850611Y54313266D01*
X77836000Y54221013D01*
X66750500Y54221013D01*
X66750500Y61828847D01*
X67249500Y61828847D01*
X67249500Y61671154D01*
X67280261Y61516511D01*
X67280264Y61516499D01*
X67340602Y61370828D01*
X67340609Y61370815D01*
X67428210Y61239712D01*
X67428213Y61239708D01*
X67539707Y61128214D01*
X67539711Y61128211D01*
X67670814Y61040610D01*
X67670827Y61040603D01*
X67768853Y61000000D01*
X67816503Y60980263D01*
X67971153Y60949501D01*
X67971156Y60949500D01*
X67971158Y60949500D01*
X68128844Y60949500D01*
X68128845Y60949501D01*
X68283497Y60980263D01*
X68417815Y61035899D01*
X68429172Y61040603D01*
X68429172Y61040604D01*
X68429179Y61040606D01*
X68518094Y61100017D01*
X69024500Y61100017D01*
X69024500Y60499999D01*
X69024501Y60499981D01*
X69035000Y60397204D01*
X69035001Y60397201D01*
X69064925Y60306898D01*
X69090186Y60230666D01*
X69182288Y60081344D01*
X69306344Y59957288D01*
X69455666Y59865186D01*
X69622203Y59810001D01*
X69724991Y59799500D01*
X70775008Y59799501D01*
X70775016Y59799502D01*
X70775019Y59799502D01*
X70833402Y59805466D01*
X70877797Y59810001D01*
X71044334Y59865186D01*
X71193656Y59957288D01*
X71317712Y60081344D01*
X71409814Y60230666D01*
X71464999Y60397203D01*
X71475500Y60499991D01*
X71475499Y61100008D01*
X71472723Y61127180D01*
X71464999Y61202797D01*
X71464998Y61202800D01*
X71452767Y61239711D01*
X71409814Y61369334D01*
X71317712Y61518656D01*
X71193656Y61642712D01*
X71044334Y61734814D01*
X70957906Y61763454D01*
X70900463Y61803226D01*
X70873640Y61867742D01*
X70885955Y61936518D01*
X70916438Y61971013D01*
X73636000Y61971013D01*
X73636000Y61927000D01*
X74073000Y61927000D01*
X74073000Y62334000D01*
X74072999Y62334001D01*
X73998995Y62334000D01*
X73906728Y62319387D01*
X73795525Y62262725D01*
X73795520Y62262722D01*
X73707278Y62174480D01*
X73707275Y62174476D01*
X73650611Y62063266D01*
X73636000Y61971013D01*
X70916438Y61971013D01*
X70928325Y61984464D01*
X71068071Y62077246D01*
X71085048Y62089955D01*
X71171896Y62205973D01*
X71171897Y62205975D01*
X71222547Y62341769D01*
X71228999Y62401773D01*
X71229000Y62401790D01*
X71229000Y62573000D01*
X69271001Y62573000D01*
X69271001Y62401784D01*
X69277452Y62341765D01*
X69277453Y62341762D01*
X69328099Y62205979D01*
X69328103Y62205973D01*
X69414952Y62089953D01*
X69530972Y62003104D01*
X69530975Y62003102D01*
X69546420Y61997341D01*
X69602354Y61955470D01*
X69626771Y61890006D01*
X69611920Y61821733D01*
X69562515Y61772327D01*
X69542092Y61763453D01*
X69455666Y61734814D01*
X69455663Y61734813D01*
X69306342Y61642711D01*
X69182289Y61518658D01*
X69090187Y61369337D01*
X69090185Y61369332D01*
X69069683Y61307461D01*
X69035001Y61202797D01*
X69035001Y61202796D01*
X69035000Y61202796D01*
X69024500Y61100017D01*
X68518094Y61100017D01*
X68560289Y61128211D01*
X68585609Y61153531D01*
X68622926Y61190847D01*
X68671786Y61239708D01*
X68671789Y61239711D01*
X68759394Y61370821D01*
X68819737Y61516503D01*
X68850500Y61671158D01*
X68850500Y61828842D01*
X68850500Y61828845D01*
X68850499Y61828847D01*
X68838965Y61886831D01*
X68819737Y61983497D01*
X68819735Y61983502D01*
X68759397Y62129173D01*
X68759390Y62129186D01*
X68671789Y62260289D01*
X68671786Y62260293D01*
X68560292Y62371787D01*
X68560288Y62371790D01*
X68429185Y62459391D01*
X68429172Y62459398D01*
X68283501Y62519736D01*
X68283489Y62519739D01*
X68128845Y62550500D01*
X68128842Y62550500D01*
X67971158Y62550500D01*
X67971155Y62550500D01*
X67816510Y62519739D01*
X67816498Y62519736D01*
X67670827Y62459398D01*
X67670814Y62459391D01*
X67539711Y62371790D01*
X67539707Y62371787D01*
X67428213Y62260293D01*
X67428210Y62260289D01*
X67340609Y62129186D01*
X67340602Y62129173D01*
X67280264Y61983502D01*
X67280261Y61983490D01*
X67249500Y61828847D01*
X66750500Y61828847D01*
X66750500Y62998228D01*
X69271000Y62998228D01*
X69271000Y62827000D01*
X70123000Y62827000D01*
X70377000Y62827000D01*
X71228999Y62827000D01*
X71228999Y62998208D01*
X71228998Y62998217D01*
X71222547Y63058236D01*
X71222546Y63058239D01*
X71171900Y63194022D01*
X71171896Y63194028D01*
X71085047Y63310048D01*
X70969027Y63396897D01*
X70969025Y63396898D01*
X70833231Y63447548D01*
X70773227Y63454000D01*
X70377000Y63454000D01*
X70377000Y62827000D01*
X70123000Y62827000D01*
X70123000Y63454000D01*
X69726792Y63454000D01*
X69726783Y63453999D01*
X69666764Y63447548D01*
X69666761Y63447547D01*
X69530978Y63396901D01*
X69530972Y63396897D01*
X69414952Y63310048D01*
X69328103Y63194028D01*
X69328102Y63194026D01*
X69277452Y63058232D01*
X69271000Y62998228D01*
X66750500Y62998228D01*
X66750500Y65471013D01*
X74936000Y65471013D01*
X74936000Y65427000D01*
X75373000Y65427000D01*
X75373000Y65834000D01*
X75627000Y65834000D01*
X75627000Y65427000D01*
X76173000Y65427000D01*
X76173000Y65834000D01*
X76172999Y65834001D01*
X76098995Y65834000D01*
X76006727Y65819387D01*
X76006725Y65819386D01*
X75956293Y65793689D01*
X75887624Y65780793D01*
X75843705Y65793689D01*
X75793267Y65819389D01*
X75701012Y65834000D01*
X75627000Y65834000D01*
X75373000Y65834000D01*
X75372999Y65834001D01*
X75298995Y65834000D01*
X75206728Y65819387D01*
X75095525Y65762725D01*
X75095520Y65762722D01*
X75007278Y65674480D01*
X75007275Y65674476D01*
X74950611Y65563266D01*
X74936000Y65471013D01*
X66750500Y65471013D01*
X66750500Y66350837D01*
X76571000Y66350837D01*
X76571000Y66207000D01*
X77173000Y66207000D01*
X77173000Y66784000D01*
X77004163Y66784000D01*
X76947132Y66777867D01*
X76947127Y66777866D01*
X76818078Y66729733D01*
X76818075Y66729731D01*
X76707814Y66647189D01*
X76707811Y66647186D01*
X76625269Y66536925D01*
X76625267Y66536922D01*
X76577134Y66407873D01*
X76577133Y66407868D01*
X76571000Y66350837D01*
X66750500Y66350837D01*
X66750500Y69497296D01*
X66750618Y69502705D01*
X66756403Y69635203D01*
X66767387Y69886770D01*
X66768327Y69897504D01*
X66818153Y70275965D01*
X66820031Y70286613D01*
X66831267Y70337296D01*
X66902652Y70659296D01*
X66905439Y70669696D01*
X67020235Y71033783D01*
X67023919Y71043904D01*
X67170007Y71396590D01*
X67174565Y71406364D01*
X67350826Y71744957D01*
X67356221Y71754302D01*
X67561329Y72076260D01*
X67567519Y72085099D01*
X67799891Y72387932D01*
X67806841Y72396215D01*
X68064730Y72677653D01*
X68072357Y72685280D01*
X68353798Y72943175D01*
X68362062Y72950110D01*
X68664921Y73182504D01*
X68673760Y73188691D01*
X68995697Y73393789D01*
X69005038Y73399183D01*
X69343633Y73575447D01*
X69353424Y73580013D01*
X69706093Y73726095D01*
X69716229Y73729784D01*
X70080293Y73844576D01*
X70090731Y73847371D01*
X70463392Y73929991D01*
X70474028Y73931868D01*
X70852498Y73981696D01*
X70863232Y73982636D01*
X71225738Y73998466D01*
X71246731Y73999382D01*
X71252140Y73999500D01*
X90876000Y73999500D01*
X90943039Y73979815D01*
G37*
%TD.AperFunction*%
%TA.AperFunction,Conductor*%
G36*
X84453712Y55883410D02*
G01*
X84476228Y55865595D01*
X84804653Y55537170D01*
X84838138Y55475847D01*
X84833154Y55406155D01*
X84820078Y55380603D01*
X84815736Y55374105D01*
X84815735Y55374104D01*
X84801000Y55300022D01*
X84801000Y55151573D01*
X84803899Y55146263D01*
X84798915Y55076571D01*
X84757043Y55020638D01*
X84695990Y54996616D01*
X84672519Y54994093D01*
X84537671Y54943798D01*
X84537668Y54943796D01*
X84415355Y54852232D01*
X84413410Y54854831D01*
X84365996Y54828962D01*
X84296306Y54833972D01*
X84270792Y54847035D01*
X84259183Y54854792D01*
X84259172Y54854798D01*
X84113501Y54915136D01*
X84113489Y54915139D01*
X83958845Y54945900D01*
X83958842Y54945900D01*
X83801158Y54945900D01*
X83801155Y54945900D01*
X83646510Y54915139D01*
X83646498Y54915136D01*
X83524222Y54864488D01*
X83521498Y54864196D01*
X83519293Y54862568D01*
X83486957Y54860482D01*
X83454752Y54857019D01*
X83452302Y54858246D01*
X83449568Y54858069D01*
X83421244Y54873793D01*
X83392273Y54888295D01*
X83390141Y54891059D01*
X83388480Y54891981D01*
X83383940Y54899099D01*
X83367526Y54920382D01*
X83363535Y54927814D01*
X83348796Y54967331D01*
X83325857Y54997973D01*
X83321456Y55006169D01*
X83316105Y55031620D01*
X83307016Y55055989D01*
X83306700Y55064836D01*
X83306700Y55738326D01*
X83326385Y55805365D01*
X83379189Y55851120D01*
X83448347Y55861064D01*
X83495239Y55843094D01*
X83495446Y55843479D01*
X83498520Y55841836D01*
X83499600Y55841422D01*
X83500819Y55840607D01*
X83500827Y55840603D01*
X83629019Y55787505D01*
X83646503Y55780263D01*
X83801153Y55749501D01*
X83801156Y55749500D01*
X83801158Y55749500D01*
X83958844Y55749500D01*
X83958845Y55749501D01*
X84113497Y55780263D01*
X84259179Y55840606D01*
X84259184Y55840610D01*
X84259187Y55840611D01*
X84319655Y55881015D01*
X84386332Y55901894D01*
X84453712Y55883410D01*
G37*
%TD.AperFunction*%
%TA.AperFunction,Conductor*%
G36*
X89900172Y59845991D02*
G01*
X89911432Y59846897D01*
X89938767Y59836980D01*
X89938878Y59837247D01*
X89944504Y59834917D01*
X89944505Y59834916D01*
X90081087Y59778342D01*
X90081091Y59778342D01*
X90081092Y59778341D01*
X90226079Y59749500D01*
X90226082Y59749500D01*
X90833908Y59749500D01*
X90833920Y59749501D01*
X90876000Y59749501D01*
X90943039Y59729816D01*
X90988794Y59677012D01*
X91000000Y59625501D01*
X91000000Y57181497D01*
X90980315Y57114458D01*
X90927511Y57068703D01*
X90858353Y57058759D01*
X90794797Y57087784D01*
X90788319Y57093816D01*
X88621622Y59260513D01*
X88621620Y59260515D01*
X88524496Y59316590D01*
X88490391Y59336281D01*
X88417205Y59355891D01*
X88344021Y59375500D01*
X88344020Y59375500D01*
X85794102Y59375500D01*
X85772550Y59381829D01*
X85750151Y59383550D01*
X85739670Y59391483D01*
X85727063Y59395185D01*
X85712354Y59412160D01*
X85694441Y59425719D01*
X85689913Y59438058D01*
X85681308Y59447989D01*
X85678110Y59470224D01*
X85670373Y59491312D01*
X85673234Y59504139D01*
X85671364Y59517147D01*
X85680695Y59537581D01*
X85685587Y59559505D01*
X85696927Y59573124D01*
X85700389Y59580703D01*
X85706888Y59587646D01*
X85712733Y59593431D01*
X85714669Y59594723D01*
X85773405Y59653460D01*
X85773594Y59653646D01*
X85804032Y59670058D01*
X85834449Y59686666D01*
X85834933Y59686719D01*
X85835095Y59686805D01*
X85835472Y59686777D01*
X85860808Y59689500D01*
X85904682Y59689500D01*
X85904690Y59689500D01*
X85940993Y59692357D01*
X85940995Y59692358D01*
X85940997Y59692358D01*
X86000450Y59709631D01*
X86096395Y59737506D01*
X86136879Y59761449D01*
X86204602Y59778632D01*
X86263120Y59761449D01*
X86303605Y59737506D01*
X86330074Y59729816D01*
X86459002Y59692358D01*
X86459005Y59692358D01*
X86459007Y59692357D01*
X86495310Y59689500D01*
X86495318Y59689500D01*
X86904682Y59689500D01*
X86904690Y59689500D01*
X86940993Y59692357D01*
X86940995Y59692358D01*
X86940997Y59692358D01*
X87000450Y59709631D01*
X87096395Y59737506D01*
X87235687Y59819883D01*
X87235692Y59819889D01*
X87240324Y59823480D01*
X87305361Y59849014D01*
X87316324Y59849500D01*
X88258431Y59849500D01*
X89886160Y59849500D01*
X89900172Y59845991D01*
G37*
%TD.AperFunction*%
%TA.AperFunction,Conductor*%
G36*
X81037040Y62436888D02*
G01*
X81030000Y62419891D01*
X81030000Y62380109D01*
X81045224Y62343355D01*
X81073355Y62315224D01*
X81110109Y62300000D01*
X81149891Y62300000D01*
X81186645Y62315224D01*
X81214776Y62343355D01*
X81230000Y62380109D01*
X81230000Y62419891D01*
X81224407Y62433393D01*
X81263122Y62430628D01*
X81307483Y62402122D01*
X81564692Y62144912D01*
X81599653Y62205466D01*
X81610225Y62244920D01*
X81646590Y62304581D01*
X81709437Y62335110D01*
X81778812Y62326815D01*
X81832690Y62282330D01*
X81849775Y62244920D01*
X81860347Y62205464D01*
X81860348Y62205461D01*
X81895306Y62144913D01*
X82152516Y62402122D01*
X82213839Y62435607D01*
X82235857Y62434033D01*
X82230000Y62419891D01*
X82230000Y62380109D01*
X82245224Y62343355D01*
X82273355Y62315224D01*
X82310109Y62300000D01*
X82349891Y62300000D01*
X82363391Y62305593D01*
X82360622Y62266864D01*
X82332121Y62222517D01*
X82074910Y61965308D01*
X82074910Y61965307D01*
X82135459Y61930349D01*
X82135458Y61930349D01*
X82174920Y61919775D01*
X82234580Y61883410D01*
X82265109Y61820563D01*
X82256814Y61751187D01*
X82212329Y61697309D01*
X82174920Y61680225D01*
X82135462Y61669653D01*
X82074911Y61634694D01*
X82074910Y61634694D01*
X82332121Y61377484D01*
X82336459Y61369539D01*
X82343707Y61364113D01*
X82352941Y61339354D01*
X82365606Y61316161D01*
X82364960Y61307132D01*
X82368124Y61298649D01*
X82366886Y61292961D01*
X82349891Y61300000D01*
X82310109Y61300000D01*
X82273355Y61284776D01*
X82245224Y61256645D01*
X82230000Y61219891D01*
X82230000Y61180109D01*
X82245224Y61143355D01*
X82273355Y61115224D01*
X82310109Y61100000D01*
X82349891Y61100000D01*
X82363391Y61105593D01*
X82360622Y61066864D01*
X82332121Y61022517D01*
X82074910Y60765308D01*
X82074910Y60765307D01*
X82135459Y60730349D01*
X82135458Y60730349D01*
X82174920Y60719775D01*
X82234580Y60683410D01*
X82265109Y60620563D01*
X82256814Y60551187D01*
X82212329Y60497309D01*
X82174920Y60480225D01*
X82135462Y60469653D01*
X82074911Y60434694D01*
X82074910Y60434694D01*
X82332121Y60177484D01*
X82336459Y60169539D01*
X82343707Y60164113D01*
X82352941Y60139354D01*
X82365606Y60116161D01*
X82364960Y60107132D01*
X82368124Y60098649D01*
X82366886Y60092961D01*
X82349891Y60100000D01*
X82310109Y60100000D01*
X82273355Y60084776D01*
X82245224Y60056645D01*
X82230000Y60019891D01*
X82230000Y59980109D01*
X82245224Y59943355D01*
X82273355Y59915224D01*
X82310109Y59900000D01*
X82349891Y59900000D01*
X82363391Y59905593D01*
X82360622Y59866864D01*
X82332121Y59822517D01*
X82074910Y59565308D01*
X82074910Y59565307D01*
X82135459Y59530349D01*
X82135458Y59530349D01*
X82174920Y59519775D01*
X82234580Y59483410D01*
X82265109Y59420563D01*
X82256814Y59351187D01*
X82212329Y59297309D01*
X82174920Y59280225D01*
X82135462Y59269653D01*
X82074911Y59234694D01*
X82074910Y59234694D01*
X82332121Y58977484D01*
X82336459Y58969539D01*
X82343707Y58964113D01*
X82352941Y58939354D01*
X82365606Y58916161D01*
X82364960Y58907132D01*
X82368124Y58898649D01*
X82366886Y58892961D01*
X82349891Y58900000D01*
X82310109Y58900000D01*
X82273355Y58884776D01*
X82245224Y58856645D01*
X82230000Y58819891D01*
X82230000Y58780109D01*
X82235592Y58766609D01*
X82196863Y58769378D01*
X82152516Y58797879D01*
X81895306Y59055090D01*
X81895306Y59055089D01*
X81860347Y58994538D01*
X81849775Y58955080D01*
X81813410Y58895420D01*
X81750563Y58864891D01*
X81681187Y58873186D01*
X81627309Y58917671D01*
X81610225Y58955080D01*
X81599651Y58994541D01*
X81564693Y59055090D01*
X81564692Y59055090D01*
X81307483Y58797879D01*
X81299537Y58793541D01*
X81294112Y58786293D01*
X81269352Y58777059D01*
X81246160Y58764394D01*
X81237130Y58765040D01*
X81228648Y58761876D01*
X81222960Y58763114D01*
X81230000Y58780109D01*
X81230000Y58819891D01*
X81214776Y58856645D01*
X81186645Y58884776D01*
X81149891Y58900000D01*
X81110109Y58900000D01*
X81073355Y58884776D01*
X81045224Y58856645D01*
X81030000Y58819891D01*
X81030000Y58780109D01*
X81035592Y58766609D01*
X80996863Y58769378D01*
X80952516Y58797879D01*
X80695306Y59055090D01*
X80695306Y59055089D01*
X80660347Y58994538D01*
X80649775Y58955080D01*
X80613410Y58895420D01*
X80550563Y58864891D01*
X80481187Y58873186D01*
X80427309Y58917671D01*
X80410225Y58955080D01*
X80399651Y58994541D01*
X80364693Y59055090D01*
X80107483Y58797879D01*
X80099537Y58793541D01*
X80094112Y58786293D01*
X80069352Y58777059D01*
X80046160Y58764394D01*
X80037130Y58765040D01*
X80028648Y58761876D01*
X80022960Y58763114D01*
X80030000Y58780109D01*
X80030000Y58819891D01*
X80014776Y58856645D01*
X79986645Y58884776D01*
X79949891Y58900000D01*
X79910109Y58900000D01*
X79873355Y58884776D01*
X79845224Y58856645D01*
X79830000Y58819891D01*
X79830000Y58780109D01*
X79835592Y58766609D01*
X79796863Y58769378D01*
X79752516Y58797879D01*
X79495306Y59055090D01*
X79495306Y59055089D01*
X79460347Y58994538D01*
X79449775Y58955080D01*
X79413410Y58895420D01*
X79350563Y58864891D01*
X79281187Y58873186D01*
X79227309Y58917671D01*
X79210225Y58955080D01*
X79199651Y58994541D01*
X79164693Y59055090D01*
X78907483Y58797879D01*
X78899537Y58793541D01*
X78894112Y58786293D01*
X78869352Y58777059D01*
X78846160Y58764394D01*
X78837130Y58765040D01*
X78828648Y58761876D01*
X78822960Y58763114D01*
X78830000Y58780109D01*
X78830000Y58819891D01*
X78814776Y58856645D01*
X78786645Y58884776D01*
X78749891Y58900000D01*
X78710109Y58900000D01*
X78696607Y58894408D01*
X78699377Y58933137D01*
X78727878Y58977484D01*
X78985088Y59234694D01*
X78924539Y59269652D01*
X78924536Y59269653D01*
X78885080Y59280225D01*
X78825419Y59316590D01*
X78794890Y59379437D01*
X78803185Y59448812D01*
X78847670Y59502690D01*
X78885080Y59519775D01*
X78924534Y59530347D01*
X78985086Y59565307D01*
X79674910Y59565307D01*
X79735459Y59530349D01*
X79735458Y59530349D01*
X79774920Y59519775D01*
X79834580Y59483410D01*
X79865109Y59420563D01*
X79856814Y59351187D01*
X79812329Y59297309D01*
X79774920Y59280225D01*
X79735462Y59269653D01*
X79674911Y59234694D01*
X79674910Y59234694D01*
X79929999Y58979606D01*
X80185088Y59234694D01*
X80124539Y59269652D01*
X80124536Y59269653D01*
X80085080Y59280225D01*
X80025419Y59316590D01*
X79994890Y59379437D01*
X80003185Y59448812D01*
X80047670Y59502690D01*
X80085080Y59519775D01*
X80124534Y59530347D01*
X80185086Y59565307D01*
X80874910Y59565307D01*
X80935459Y59530349D01*
X80935458Y59530349D01*
X80974920Y59519775D01*
X81034580Y59483410D01*
X81065109Y59420563D01*
X81056814Y59351187D01*
X81012329Y59297309D01*
X80974920Y59280225D01*
X80935462Y59269653D01*
X80874911Y59234694D01*
X80874910Y59234694D01*
X81129999Y58979606D01*
X81385087Y59234694D01*
X81324539Y59269652D01*
X81324536Y59269653D01*
X81285080Y59280225D01*
X81225419Y59316590D01*
X81194890Y59379437D01*
X81203185Y59448812D01*
X81247670Y59502690D01*
X81285080Y59519775D01*
X81324534Y59530347D01*
X81385088Y59565308D01*
X81130001Y59820395D01*
X80874910Y59565307D01*
X80185086Y59565307D01*
X80185088Y59565308D01*
X79930001Y59820395D01*
X79674910Y59565307D01*
X78985086Y59565307D01*
X78985088Y59565308D01*
X78727878Y59822517D01*
X78723536Y59830468D01*
X78716283Y59835899D01*
X78707053Y59860656D01*
X78694393Y59883840D01*
X78695039Y59892878D01*
X78691874Y59901367D01*
X78693109Y59907042D01*
X78710109Y59900000D01*
X78749891Y59900000D01*
X78786645Y59915224D01*
X78814776Y59943355D01*
X78830000Y59980109D01*
X78830000Y60000001D01*
X78909603Y60000001D01*
X79164692Y59744912D01*
X79199653Y59805466D01*
X79210225Y59844920D01*
X79246590Y59904581D01*
X79309437Y59935110D01*
X79378812Y59926815D01*
X79432690Y59882330D01*
X79449775Y59844920D01*
X79460347Y59805464D01*
X79460348Y59805461D01*
X79495306Y59744913D01*
X79495307Y59744912D01*
X79750394Y59999999D01*
X79750394Y60000000D01*
X79730503Y60019891D01*
X79830000Y60019891D01*
X79830000Y59980109D01*
X79845224Y59943355D01*
X79873355Y59915224D01*
X79910109Y59900000D01*
X79949891Y59900000D01*
X79986645Y59915224D01*
X80014776Y59943355D01*
X80030000Y59980109D01*
X80030000Y60000000D01*
X80109605Y60000000D01*
X80109605Y59999999D01*
X80364692Y59744912D01*
X80399653Y59805466D01*
X80410225Y59844920D01*
X80446590Y59904581D01*
X80509437Y59935110D01*
X80578812Y59926815D01*
X80632690Y59882330D01*
X80649775Y59844920D01*
X80660347Y59805464D01*
X80660348Y59805461D01*
X80695306Y59744913D01*
X80695307Y59744912D01*
X80950394Y59999999D01*
X80950394Y60000000D01*
X80930503Y60019891D01*
X81030000Y60019891D01*
X81030000Y59980109D01*
X81045224Y59943355D01*
X81073355Y59915224D01*
X81110109Y59900000D01*
X81149891Y59900000D01*
X81186645Y59915224D01*
X81214776Y59943355D01*
X81230000Y59980109D01*
X81230000Y60000000D01*
X81309605Y60000000D01*
X81309605Y59999999D01*
X81564692Y59744912D01*
X81599653Y59805466D01*
X81610225Y59844920D01*
X81646590Y59904581D01*
X81709437Y59935110D01*
X81778812Y59926815D01*
X81832690Y59882330D01*
X81849775Y59844920D01*
X81860347Y59805464D01*
X81860348Y59805461D01*
X81895306Y59744913D01*
X82150394Y60000001D01*
X81895306Y60255090D01*
X81895306Y60255089D01*
X81860347Y60194538D01*
X81849775Y60155080D01*
X81813410Y60095420D01*
X81750563Y60064891D01*
X81681187Y60073186D01*
X81627309Y60117671D01*
X81610225Y60155080D01*
X81599651Y60194541D01*
X81564693Y60255090D01*
X81309605Y60000000D01*
X81230000Y60000000D01*
X81230000Y60019891D01*
X81214776Y60056645D01*
X81186645Y60084776D01*
X81149891Y60100000D01*
X81110109Y60100000D01*
X81073355Y60084776D01*
X81045224Y60056645D01*
X81030000Y60019891D01*
X80930503Y60019891D01*
X80695305Y60255089D01*
X80660347Y60194538D01*
X80649775Y60155080D01*
X80613410Y60095420D01*
X80550563Y60064891D01*
X80481187Y60073186D01*
X80427309Y60117671D01*
X80410225Y60155080D01*
X80399651Y60194541D01*
X80364693Y60255090D01*
X80109605Y60000000D01*
X80030000Y60000000D01*
X80030000Y60019891D01*
X80014776Y60056645D01*
X79986645Y60084776D01*
X79949891Y60100000D01*
X79910109Y60100000D01*
X79873355Y60084776D01*
X79845224Y60056645D01*
X79830000Y60019891D01*
X79730503Y60019891D01*
X79495305Y60255089D01*
X79460347Y60194538D01*
X79449775Y60155080D01*
X79413410Y60095420D01*
X79350563Y60064891D01*
X79281187Y60073186D01*
X79227309Y60117671D01*
X79210225Y60155080D01*
X79199651Y60194541D01*
X79164693Y60255090D01*
X78909603Y60000001D01*
X78830000Y60000001D01*
X78830000Y60019891D01*
X78814776Y60056645D01*
X78786645Y60084776D01*
X78749891Y60100000D01*
X78710109Y60100000D01*
X78696607Y60094408D01*
X78699377Y60133137D01*
X78727878Y60177484D01*
X78985087Y60434694D01*
X78924539Y60469652D01*
X78924536Y60469653D01*
X78885080Y60480225D01*
X78825419Y60516590D01*
X78794890Y60579437D01*
X78803185Y60648812D01*
X78847670Y60702690D01*
X78885080Y60719775D01*
X78924534Y60730347D01*
X78985086Y60765307D01*
X79674910Y60765307D01*
X79735459Y60730349D01*
X79735458Y60730349D01*
X79774920Y60719775D01*
X79834580Y60683410D01*
X79865109Y60620563D01*
X79856814Y60551187D01*
X79812329Y60497309D01*
X79774920Y60480225D01*
X79735462Y60469653D01*
X79674911Y60434694D01*
X79930000Y60179606D01*
X80185088Y60434693D01*
X80185087Y60434694D01*
X80124539Y60469652D01*
X80124536Y60469653D01*
X80085080Y60480225D01*
X80025419Y60516590D01*
X79994890Y60579437D01*
X80003185Y60648812D01*
X80047670Y60702690D01*
X80085080Y60719775D01*
X80124534Y60730347D01*
X80185086Y60765307D01*
X80874910Y60765307D01*
X80935459Y60730349D01*
X80935458Y60730349D01*
X80974920Y60719775D01*
X81034580Y60683410D01*
X81065109Y60620563D01*
X81056814Y60551187D01*
X81012329Y60497309D01*
X80974920Y60480225D01*
X80935462Y60469653D01*
X80874911Y60434694D01*
X81130000Y60179606D01*
X81385088Y60434693D01*
X81385087Y60434694D01*
X81324539Y60469652D01*
X81324536Y60469653D01*
X81285080Y60480225D01*
X81225419Y60516590D01*
X81194890Y60579437D01*
X81203185Y60648812D01*
X81247670Y60702690D01*
X81285080Y60719775D01*
X81324534Y60730347D01*
X81385088Y60765308D01*
X81130001Y61020395D01*
X80874910Y60765307D01*
X80185086Y60765307D01*
X80185088Y60765308D01*
X79930001Y61020395D01*
X79674910Y60765307D01*
X78985086Y60765307D01*
X78985088Y60765308D01*
X78727878Y61022517D01*
X78723536Y61030468D01*
X78716283Y61035899D01*
X78707053Y61060656D01*
X78694393Y61083840D01*
X78695039Y61092878D01*
X78691874Y61101367D01*
X78693109Y61107042D01*
X78710109Y61100000D01*
X78749891Y61100000D01*
X78786645Y61115224D01*
X78814776Y61143355D01*
X78830000Y61180109D01*
X78830000Y61200001D01*
X78909603Y61200001D01*
X79164692Y60944912D01*
X79199653Y61005466D01*
X79210225Y61044920D01*
X79246590Y61104581D01*
X79309437Y61135110D01*
X79378812Y61126815D01*
X79432690Y61082330D01*
X79449775Y61044920D01*
X79460347Y61005464D01*
X79460348Y61005461D01*
X79495306Y60944913D01*
X79495307Y60944912D01*
X79750394Y61199999D01*
X79750394Y61200000D01*
X79730503Y61219891D01*
X79830000Y61219891D01*
X79830000Y61180109D01*
X79845224Y61143355D01*
X79873355Y61115224D01*
X79910109Y61100000D01*
X79949891Y61100000D01*
X79986645Y61115224D01*
X80014776Y61143355D01*
X80030000Y61180109D01*
X80030000Y61200000D01*
X80109605Y61200000D01*
X80109605Y61199999D01*
X80364692Y60944912D01*
X80399653Y61005466D01*
X80410225Y61044920D01*
X80446590Y61104581D01*
X80509437Y61135110D01*
X80578812Y61126815D01*
X80632690Y61082330D01*
X80649775Y61044920D01*
X80660347Y61005464D01*
X80660348Y61005461D01*
X80695306Y60944913D01*
X80695307Y60944912D01*
X80950394Y61199999D01*
X80950394Y61200000D01*
X80930503Y61219891D01*
X81030000Y61219891D01*
X81030000Y61180109D01*
X81045224Y61143355D01*
X81073355Y61115224D01*
X81110109Y61100000D01*
X81149891Y61100000D01*
X81186645Y61115224D01*
X81214776Y61143355D01*
X81230000Y61180109D01*
X81230000Y61200000D01*
X81309605Y61200000D01*
X81309605Y61199999D01*
X81564692Y60944912D01*
X81599653Y61005466D01*
X81610225Y61044920D01*
X81646590Y61104581D01*
X81709437Y61135110D01*
X81778812Y61126815D01*
X81832690Y61082330D01*
X81849775Y61044920D01*
X81860347Y61005464D01*
X81860348Y61005461D01*
X81895306Y60944913D01*
X82150394Y61200001D01*
X81895306Y61455090D01*
X81895306Y61455089D01*
X81860347Y61394538D01*
X81849775Y61355080D01*
X81813410Y61295420D01*
X81750563Y61264891D01*
X81681187Y61273186D01*
X81627309Y61317671D01*
X81610225Y61355080D01*
X81599651Y61394541D01*
X81564693Y61455090D01*
X81309605Y61200000D01*
X81230000Y61200000D01*
X81230000Y61219891D01*
X81214776Y61256645D01*
X81186645Y61284776D01*
X81149891Y61300000D01*
X81110109Y61300000D01*
X81073355Y61284776D01*
X81045224Y61256645D01*
X81030000Y61219891D01*
X80930503Y61219891D01*
X80695306Y61455089D01*
X80660347Y61394538D01*
X80649775Y61355080D01*
X80613410Y61295420D01*
X80550563Y61264891D01*
X80481187Y61273186D01*
X80427309Y61317671D01*
X80410225Y61355080D01*
X80399651Y61394541D01*
X80364693Y61455090D01*
X80109605Y61200000D01*
X80030000Y61200000D01*
X80030000Y61219891D01*
X80014776Y61256645D01*
X79986645Y61284776D01*
X79949891Y61300000D01*
X79910109Y61300000D01*
X79873355Y61284776D01*
X79845224Y61256645D01*
X79830000Y61219891D01*
X79730503Y61219891D01*
X79495305Y61455089D01*
X79460347Y61394538D01*
X79449775Y61355080D01*
X79413410Y61295420D01*
X79350563Y61264891D01*
X79281187Y61273186D01*
X79227309Y61317671D01*
X79210225Y61355080D01*
X79199651Y61394541D01*
X79164693Y61455090D01*
X78909603Y61200001D01*
X78830000Y61200001D01*
X78830000Y61219891D01*
X78814776Y61256645D01*
X78786645Y61284776D01*
X78749891Y61300000D01*
X78710109Y61300000D01*
X78696607Y61294408D01*
X78699377Y61333137D01*
X78727878Y61377484D01*
X78985087Y61634694D01*
X78924539Y61669652D01*
X78924536Y61669653D01*
X78885080Y61680225D01*
X78825419Y61716590D01*
X78794890Y61779437D01*
X78803185Y61848812D01*
X78847670Y61902690D01*
X78885080Y61919775D01*
X78924534Y61930347D01*
X78985088Y61965308D01*
X79674910Y61965308D01*
X79674910Y61965307D01*
X79735459Y61930349D01*
X79735458Y61930349D01*
X79774920Y61919775D01*
X79834580Y61883410D01*
X79865109Y61820563D01*
X79856814Y61751187D01*
X79812329Y61697309D01*
X79774920Y61680225D01*
X79735462Y61669653D01*
X79674911Y61634694D01*
X79930000Y61379606D01*
X80185088Y61634693D01*
X80185087Y61634694D01*
X80124539Y61669652D01*
X80124536Y61669653D01*
X80085080Y61680225D01*
X80025419Y61716590D01*
X79994890Y61779437D01*
X80003185Y61848812D01*
X80047670Y61902690D01*
X80085080Y61919775D01*
X80124534Y61930347D01*
X80185088Y61965308D01*
X80874910Y61965308D01*
X80874910Y61965307D01*
X80935459Y61930349D01*
X80935458Y61930349D01*
X80974920Y61919775D01*
X81034580Y61883410D01*
X81065109Y61820563D01*
X81056814Y61751187D01*
X81012329Y61697309D01*
X80974920Y61680225D01*
X80935462Y61669653D01*
X80874911Y61634694D01*
X81130000Y61379606D01*
X81385088Y61634693D01*
X81385087Y61634694D01*
X81324539Y61669652D01*
X81324536Y61669653D01*
X81285080Y61680225D01*
X81225419Y61716590D01*
X81194890Y61779437D01*
X81203185Y61848812D01*
X81247670Y61902690D01*
X81285080Y61919775D01*
X81324534Y61930347D01*
X81385088Y61965308D01*
X81129999Y62220397D01*
X80874910Y61965308D01*
X80185088Y61965308D01*
X79929999Y62220397D01*
X79674910Y61965308D01*
X78985088Y61965308D01*
X78727878Y62222517D01*
X78723539Y62230463D01*
X78716292Y62235888D01*
X78707057Y62260648D01*
X78694393Y62283840D01*
X78695038Y62292870D01*
X78691875Y62301352D01*
X78693112Y62307041D01*
X78710109Y62300000D01*
X78749891Y62300000D01*
X78786645Y62315224D01*
X78814776Y62343355D01*
X78830000Y62380109D01*
X78830000Y62419891D01*
X78824407Y62433393D01*
X78863136Y62430623D01*
X78907483Y62402122D01*
X79164692Y62144912D01*
X79199653Y62205466D01*
X79210225Y62244920D01*
X79246590Y62304581D01*
X79309437Y62335110D01*
X79378812Y62326815D01*
X79432690Y62282330D01*
X79449775Y62244920D01*
X79460347Y62205464D01*
X79460348Y62205461D01*
X79495306Y62144913D01*
X79752516Y62402122D01*
X79760461Y62406461D01*
X79765887Y62413708D01*
X79790646Y62422943D01*
X79813839Y62435607D01*
X79822868Y62434962D01*
X79831351Y62438125D01*
X79837040Y62436888D01*
X79830000Y62419891D01*
X79830000Y62380109D01*
X79845224Y62343355D01*
X79873355Y62315224D01*
X79910109Y62300000D01*
X79949891Y62300000D01*
X79986645Y62315224D01*
X80014776Y62343355D01*
X80030000Y62380109D01*
X80030000Y62419891D01*
X80024407Y62433393D01*
X80063122Y62430628D01*
X80107483Y62402122D01*
X80364692Y62144912D01*
X80399653Y62205466D01*
X80410225Y62244920D01*
X80446590Y62304581D01*
X80509437Y62335110D01*
X80578812Y62326815D01*
X80632690Y62282330D01*
X80649775Y62244920D01*
X80660347Y62205464D01*
X80660348Y62205461D01*
X80695306Y62144913D01*
X80952516Y62402122D01*
X80960461Y62406461D01*
X80965887Y62413708D01*
X80990646Y62422943D01*
X81013839Y62435607D01*
X81022868Y62434962D01*
X81031351Y62438125D01*
X81037040Y62436888D01*
G37*
%TD.AperFunction*%
%TA.AperFunction,Conductor*%
G36*
X84051264Y67974474D02*
G01*
X84062996Y67974909D01*
X84095620Y67961449D01*
X84136105Y67937506D01*
X84177087Y67925600D01*
X84291502Y67892358D01*
X84291505Y67892358D01*
X84291507Y67892357D01*
X84327810Y67889500D01*
X84520687Y67889500D01*
X84587726Y67869815D01*
X84633481Y67817011D01*
X84643425Y67747853D01*
X84639763Y67730904D01*
X84622357Y67670995D01*
X84622356Y67670992D01*
X84619500Y67634698D01*
X84619500Y67182232D01*
X84599815Y67115193D01*
X84583182Y67094552D01*
X84507291Y67018660D01*
X84507289Y67018658D01*
X84507288Y67018656D01*
X84498330Y67004132D01*
X84415187Y66869337D01*
X84415185Y66869332D01*
X84404445Y66836921D01*
X84360001Y66702797D01*
X84360001Y66702796D01*
X84360000Y66702796D01*
X84349500Y66600017D01*
X84349500Y65991181D01*
X84329815Y65924142D01*
X84277011Y65878387D01*
X84207853Y65868443D01*
X84169206Y65880696D01*
X84093267Y65919389D01*
X84001012Y65934000D01*
X83927000Y65934000D01*
X83927000Y65524000D01*
X83924449Y65515315D01*
X83925738Y65506353D01*
X83914759Y65482313D01*
X83907315Y65456961D01*
X83900474Y65451034D01*
X83896713Y65442797D01*
X83874478Y65428508D01*
X83854511Y65411206D01*
X83843996Y65408919D01*
X83837935Y65405023D01*
X83803000Y65400000D01*
X83797000Y65400000D01*
X83729961Y65419685D01*
X83684206Y65472489D01*
X83673000Y65524000D01*
X83673000Y65934000D01*
X83672999Y65934001D01*
X83598993Y65934000D01*
X83515434Y65920766D01*
X83446140Y65929722D01*
X83395725Y65970347D01*
X83392728Y65974471D01*
X83304475Y66062725D01*
X83193265Y66119389D01*
X83101012Y66134000D01*
X83027000Y66134000D01*
X83027000Y65724000D01*
X83024449Y65715315D01*
X83025738Y65706353D01*
X83014759Y65682313D01*
X83007315Y65656961D01*
X83000474Y65651034D01*
X82996713Y65642797D01*
X82974478Y65628508D01*
X82954511Y65611206D01*
X82943996Y65608919D01*
X82937935Y65605023D01*
X82903000Y65600000D01*
X82900000Y65600000D01*
X82900000Y65597000D01*
X82880315Y65529961D01*
X82827511Y65484206D01*
X82776000Y65473000D01*
X82229500Y65473000D01*
X82162461Y65492685D01*
X82116706Y65545489D01*
X82105500Y65597000D01*
X82105500Y65603000D01*
X82125185Y65670039D01*
X82177989Y65715794D01*
X82229500Y65727000D01*
X82773000Y65727000D01*
X82773000Y66134000D01*
X82772999Y66134001D01*
X82698995Y66134000D01*
X82606727Y66119387D01*
X82606725Y66119386D01*
X82556293Y66093689D01*
X82487624Y66080793D01*
X82443705Y66093689D01*
X82393267Y66119389D01*
X82301012Y66134000D01*
X82229500Y66134000D01*
X82162461Y66153685D01*
X82116706Y66206489D01*
X82105500Y66258000D01*
X82105500Y66840258D01*
X82125185Y66907297D01*
X82141819Y66927939D01*
X82766061Y67552181D01*
X82827384Y67585666D01*
X82853742Y67588500D01*
X83103746Y67588500D01*
X83103748Y67588500D01*
X83250117Y67627719D01*
X83381347Y67703485D01*
X83531043Y67853181D01*
X83592366Y67886666D01*
X83618724Y67889500D01*
X83737182Y67889500D01*
X83737190Y67889500D01*
X83773493Y67892357D01*
X83773495Y67892358D01*
X83773497Y67892358D01*
X83814475Y67904264D01*
X83928895Y67937506D01*
X83969379Y67961449D01*
X83982263Y67964718D01*
X83993174Y67972316D01*
X84015473Y67973145D01*
X84037102Y67978632D01*
X84051264Y67974474D01*
G37*
%TD.AperFunction*%
%TD*%
M02*
