%TF.GenerationSoftware,KiCad,Pcbnew,9.0.3-9.0.3-0~ubuntu24.04.1*%
%TF.CreationDate,2025-07-10T17:18:30-04:00*%
%TF.ProjectId,tire_sensor,74697265-5f73-4656-9e73-6f722e6b6963,rev?*%
%TF.SameCoordinates,Original*%
%TF.FileFunction,Copper,L2,Inr*%
%TF.FilePolarity,Positive*%
%FSLAX46Y46*%
G04 Gerber Fmt 4.6, Leading zero omitted, Abs format (unit mm)*
G04 Created by KiCad (PCBNEW 9.0.3-9.0.3-0~ubuntu24.04.1) date 2025-07-10 17:18:30*
%MOMM*%
%LPD*%
G01*
G04 APERTURE LIST*
%TA.AperFunction,HeatsinkPad*%
%ADD10C,0.500000*%
%TD*%
%TA.AperFunction,ComponentPad*%
%ADD11R,0.500000X0.900000*%
%TD*%
%TA.AperFunction,ViaPad*%
%ADD12C,0.600000*%
%TD*%
%TA.AperFunction,ViaPad*%
%ADD13C,0.300000*%
%TD*%
G04 APERTURE END LIST*
D10*
%TO.N,GND*%
%TO.C,U1*%
X82330000Y60420000D03*
X82330000Y61620000D03*
X82330000Y62820000D03*
X82330000Y64020000D03*
X81130000Y60420000D03*
X81130000Y61620000D03*
X81130000Y62820000D03*
X81130000Y64020000D03*
X79930000Y60420000D03*
X79930000Y61620000D03*
X79930000Y62820000D03*
X79930000Y64020000D03*
X78730000Y60420000D03*
X78730000Y61620000D03*
X78730000Y62820000D03*
X78730000Y64020000D03*
%TD*%
D11*
%TO.N,GND*%
%TO.C,AE1*%
X90750000Y58400000D03*
%TD*%
D12*
%TO.N,GND*%
X97400000Y56100000D03*
D13*
X88000000Y69600000D03*
X87200000Y69600000D03*
D12*
%TO.N,VDD_NRF*%
X77230000Y54670000D03*
X75630000Y66320000D03*
X68050000Y61750000D03*
X88630000Y54820000D03*
X83630000Y65770000D03*
D13*
%TO.N,GND*%
X97600000Y56800000D03*
X96800000Y56800000D03*
X89570000Y66230000D03*
X90800000Y70200000D03*
X89800000Y61400000D03*
X85200000Y61400000D03*
D12*
X73400000Y72400000D03*
D13*
X93600000Y56800000D03*
X90800000Y67400000D03*
X90800000Y59600000D03*
D12*
X86600000Y50200000D03*
D13*
X90800000Y66200000D03*
D12*
X97400000Y55400000D03*
D13*
X89570000Y69030000D03*
X88400000Y66200000D03*
D12*
X71000000Y50600000D03*
D13*
X90800000Y65400000D03*
X85600000Y61400000D03*
X92400000Y56800000D03*
X90400000Y59800000D03*
X90800000Y64600000D03*
X96000000Y56800000D03*
X89570000Y67430000D03*
X89570000Y65430000D03*
X90800000Y69000000D03*
X98400000Y56800000D03*
X98000000Y56800000D03*
X90000000Y70000000D03*
X90800000Y63400000D03*
D12*
X86780000Y64120000D03*
X79200000Y52000000D03*
X89750000Y57750000D03*
D13*
X88400000Y69000000D03*
X90800000Y61400000D03*
X89800000Y63800000D03*
X89600000Y60000000D03*
X90800000Y66600000D03*
X89800000Y62600000D03*
X90300000Y61400000D03*
X94800000Y56800000D03*
D12*
X95200000Y54200000D03*
X74000000Y54200000D03*
D13*
X88400000Y65000000D03*
X90800000Y57600000D03*
D12*
X68800000Y71000000D03*
X83600000Y68400000D03*
X82400000Y49600000D03*
X90100000Y65700000D03*
D13*
X88400000Y68200000D03*
X86800000Y69600000D03*
D12*
X76200000Y72200000D03*
X74130000Y64228552D03*
D13*
X88400000Y68600000D03*
D12*
X86730000Y60170000D03*
X77630000Y67820000D03*
X82700000Y68400000D03*
X88750000Y57750000D03*
D13*
X90800000Y56800000D03*
D12*
X84600000Y68600000D03*
D13*
X88800000Y60000000D03*
X86000000Y69600000D03*
D12*
X85000000Y52000000D03*
D13*
X90800000Y70600000D03*
X94400000Y56800000D03*
D12*
X90100000Y68700000D03*
D13*
X90800000Y65800000D03*
X86000000Y61400000D03*
D12*
X70400000Y53800000D03*
D13*
X90800000Y59200000D03*
X89570000Y67030000D03*
X90800000Y63800000D03*
X93200000Y56800000D03*
X89400000Y69800000D03*
X85200000Y70000000D03*
X90800000Y71000000D03*
X88400000Y67000000D03*
X90800000Y68200000D03*
X90800000Y62600000D03*
X90800000Y73000000D03*
X97200000Y56800000D03*
X89570000Y65030000D03*
X90800000Y69800000D03*
X87200000Y61400000D03*
X92000000Y56800000D03*
X90800000Y65000000D03*
X89800000Y63400000D03*
X89800000Y62200000D03*
X90800000Y68600000D03*
X92800000Y56800000D03*
D12*
X71000000Y73000000D03*
D13*
X87200000Y60600000D03*
D12*
X77200000Y49600000D03*
X84000000Y71200000D03*
D13*
X90800000Y73400000D03*
D12*
X77230000Y57170000D03*
D13*
X88400000Y65400000D03*
D12*
X78130000Y56320000D03*
X67600000Y53400000D03*
D13*
X88400000Y60000000D03*
D12*
X71600000Y57200000D03*
D13*
X95600000Y56800000D03*
X90800000Y72200000D03*
D12*
X81700000Y68400000D03*
D13*
X89600000Y64200000D03*
X90800000Y71400000D03*
D12*
X79130000Y56320000D03*
X73380000Y59020000D03*
X71600000Y68400000D03*
X85400000Y60600000D03*
D13*
X90800000Y69400000D03*
X88000000Y60000000D03*
D12*
X89600000Y73200000D03*
D13*
X90800000Y71800000D03*
X94000000Y56800000D03*
X90800000Y63000000D03*
X91600000Y56800000D03*
X85600000Y69600000D03*
X96400000Y56800000D03*
X90800000Y62200000D03*
X87200000Y61000000D03*
D12*
X75400000Y70600000D03*
D13*
X95200000Y56800000D03*
D12*
X68800000Y55800000D03*
X81000000Y73200000D03*
D13*
X90800000Y72600000D03*
D12*
X80000000Y71400000D03*
D13*
X90000000Y60000000D03*
X87591994Y69578652D03*
D12*
X84700000Y65200000D03*
D13*
X90800000Y67000000D03*
D12*
X84380000Y57570000D03*
D13*
X86800000Y61400000D03*
X89570000Y68230000D03*
X89800000Y63000000D03*
X91200000Y56800000D03*
X89570000Y66630000D03*
X88400000Y67400000D03*
X88400000Y65800000D03*
X89570000Y69430000D03*
X89200000Y60000000D03*
X88400000Y64600000D03*
X89800000Y61800000D03*
X90800000Y73800000D03*
X89570000Y68630000D03*
X90800000Y64200000D03*
D12*
X97200000Y52200000D03*
D13*
X88400000Y67800000D03*
D12*
X72400000Y70600000D03*
D13*
X86400000Y69600000D03*
X90800000Y57200000D03*
D12*
X91750000Y53250000D03*
X74230000Y62170000D03*
D13*
X89570000Y65830000D03*
X86400000Y61400000D03*
X90800000Y61800000D03*
X90800000Y67800000D03*
D12*
X74400000Y50400000D03*
D13*
X89570000Y64630000D03*
X89570000Y67830000D03*
X87600000Y60200000D03*
X88400000Y66600000D03*
D12*
X86780000Y63120000D03*
X68200000Y67600000D03*
%TO.N,/SWCLK*%
X85694058Y59255942D03*
X92507080Y53257080D03*
%TO.N,/nRESET*%
X86226087Y58723913D03*
X89250000Y51500000D03*
%TO.N,/SWDIO*%
X93500000Y50000000D03*
X85192703Y59813748D03*
%TO.N,/SDO*%
X81671956Y55342419D03*
X81671956Y57570000D03*
X83880000Y54720000D03*
%TO.N,/CS_DPS368*%
X80880000Y57320000D03*
%TO.N,/SDI*%
X83880000Y55765400D03*
%TO.N,/SCK*%
X83880000Y58170000D03*
%TO.N,/INT_LIS3DHTR*%
X86482403Y55170000D03*
X79730000Y58170000D03*
%TO.N,/CS_LIS3DHTR*%
X80601400Y58170000D03*
X85730000Y55170000D03*
%TD*%
%TA.AperFunction,Conductor*%
%TO.N,GND*%
G36*
X94184112Y73999499D02*
G01*
X94247300Y73999500D01*
X94252707Y73999382D01*
X94636754Y73982617D01*
X94647530Y73981674D01*
X94657147Y73980408D01*
X95025969Y73931854D01*
X95036600Y73929981D01*
X95409286Y73847360D01*
X95419712Y73844566D01*
X95783774Y73729779D01*
X95793902Y73726093D01*
X96146581Y73580009D01*
X96156372Y73575443D01*
X96494941Y73399195D01*
X96504309Y73393787D01*
X96826236Y73188697D01*
X96835094Y73182495D01*
X97137925Y72950123D01*
X97146212Y72943169D01*
X97427629Y72685296D01*
X97435278Y72677647D01*
X97693154Y72396222D01*
X97700107Y72387935D01*
X97932468Y72085112D01*
X97938673Y72076250D01*
X98143755Y71754330D01*
X98149164Y71744962D01*
X98325412Y71406386D01*
X98329981Y71396587D01*
X98476057Y71043920D01*
X98479756Y71033754D01*
X98594526Y70669732D01*
X98597326Y70659283D01*
X98679939Y70286619D01*
X98681817Y70275965D01*
X98731631Y69897537D01*
X98732574Y69886761D01*
X98749381Y69501686D01*
X98749499Y69496281D01*
X98749499Y69463788D01*
X98749499Y69434116D01*
X98749499Y69434114D01*
X98749500Y69424122D01*
X98749500Y53502705D01*
X98749382Y53497296D01*
X98732615Y53113248D01*
X98731672Y53102472D01*
X98681851Y52724042D01*
X98679973Y52713389D01*
X98597357Y52340728D01*
X98594557Y52330279D01*
X98479778Y51966246D01*
X98476078Y51956080D01*
X98330006Y51603430D01*
X98325434Y51593626D01*
X98149187Y51255060D01*
X98143779Y51245692D01*
X97938689Y50923765D01*
X97932484Y50914903D01*
X97700110Y50612068D01*
X97693159Y50603786D01*
X97659026Y50566535D01*
X97435294Y50322376D01*
X97427645Y50314727D01*
X97146213Y50056845D01*
X97137926Y50049892D01*
X96835109Y49817533D01*
X96826248Y49811328D01*
X96504318Y49606238D01*
X96494950Y49600830D01*
X96156371Y49424578D01*
X96146566Y49420006D01*
X95793926Y49273941D01*
X95783761Y49270241D01*
X95419725Y49155462D01*
X95409275Y49152662D01*
X95036612Y49070048D01*
X95025959Y49068170D01*
X94647531Y49018352D01*
X94636755Y49017409D01*
X94252130Y49000619D01*
X94246724Y49000501D01*
X94214422Y49000501D01*
X94184112Y49000501D01*
X94184108Y49000501D01*
X94176504Y49000500D01*
X94176503Y49000501D01*
X94176502Y49000500D01*
X93802190Y49000500D01*
X93735151Y49020185D01*
X93689396Y49072989D01*
X93679452Y49142147D01*
X93708477Y49205703D01*
X93754738Y49239061D01*
X93879172Y49290603D01*
X93879172Y49290604D01*
X93879179Y49290606D01*
X94010289Y49378211D01*
X94121789Y49489711D01*
X94209394Y49620821D01*
X94213967Y49631860D01*
X94269735Y49766499D01*
X94269737Y49766503D01*
X94300500Y49921158D01*
X94300500Y50078842D01*
X94300500Y50078845D01*
X94300499Y50078847D01*
X94269738Y50233490D01*
X94269737Y50233497D01*
X94252320Y50275545D01*
X94209397Y50379173D01*
X94209390Y50379186D01*
X94121789Y50510289D01*
X94121786Y50510293D01*
X94010292Y50621787D01*
X94010288Y50621790D01*
X93879185Y50709391D01*
X93879172Y50709398D01*
X93733501Y50769736D01*
X93733489Y50769739D01*
X93578845Y50800500D01*
X93578842Y50800500D01*
X93421158Y50800500D01*
X93421155Y50800500D01*
X93266510Y50769739D01*
X93266498Y50769736D01*
X93120827Y50709398D01*
X93120814Y50709391D01*
X92989711Y50621790D01*
X92989707Y50621787D01*
X92878213Y50510293D01*
X92878210Y50510289D01*
X92790609Y50379186D01*
X92790602Y50379173D01*
X92730264Y50233502D01*
X92730261Y50233490D01*
X92699500Y50078847D01*
X92699500Y49921154D01*
X92730261Y49766511D01*
X92730264Y49766499D01*
X92790602Y49620828D01*
X92790609Y49620815D01*
X92878210Y49489712D01*
X92878213Y49489708D01*
X92989707Y49378214D01*
X92989711Y49378211D01*
X93120814Y49290610D01*
X93120827Y49290603D01*
X93245262Y49239061D01*
X93299666Y49195221D01*
X93321731Y49128926D01*
X93304452Y49061227D01*
X93253315Y49013616D01*
X93197810Y49000500D01*
X71252712Y49000500D01*
X71247302Y49000618D01*
X70863252Y49017389D01*
X70852476Y49018332D01*
X70474044Y49068156D01*
X70463391Y49070034D01*
X70090728Y49152653D01*
X70080279Y49155453D01*
X69716242Y49270235D01*
X69706077Y49273935D01*
X69353427Y49420008D01*
X69343623Y49424580D01*
X69005056Y49600827D01*
X68995688Y49606235D01*
X68673752Y49811330D01*
X68664891Y49817535D01*
X68362072Y50049896D01*
X68353785Y50056849D01*
X68072358Y50314727D01*
X68064709Y50322376D01*
X68045973Y50342822D01*
X67806823Y50603806D01*
X67799875Y50612087D01*
X67794416Y50619201D01*
X67567509Y50914909D01*
X67561307Y50923766D01*
X67558417Y50928302D01*
X67356213Y51245695D01*
X67350806Y51255059D01*
X67182248Y51578847D01*
X88449500Y51578847D01*
X88449500Y51421154D01*
X88480261Y51266511D01*
X88480264Y51266499D01*
X88540602Y51120828D01*
X88540609Y51120815D01*
X88628210Y50989712D01*
X88628213Y50989708D01*
X88739707Y50878214D01*
X88739711Y50878211D01*
X88870814Y50790610D01*
X88870827Y50790603D01*
X89016498Y50730265D01*
X89016503Y50730263D01*
X89171153Y50699501D01*
X89171156Y50699500D01*
X89171158Y50699500D01*
X89328844Y50699500D01*
X89328845Y50699501D01*
X89483497Y50730263D01*
X89626004Y50789292D01*
X89695473Y50796760D01*
X89757952Y50765485D01*
X89793604Y50705396D01*
X89791110Y50635571D01*
X89788017Y50627278D01*
X89762862Y50566549D01*
X89762858Y50566535D01*
X89734200Y50422460D01*
X89734200Y50275541D01*
X89762858Y50131466D01*
X89762861Y50131456D01*
X89819078Y49995734D01*
X89819083Y49995725D01*
X89900698Y49873581D01*
X89900701Y49873577D01*
X90004576Y49769702D01*
X90004580Y49769699D01*
X90126724Y49688084D01*
X90126730Y49688081D01*
X90126731Y49688080D01*
X90262458Y49631860D01*
X90386229Y49607241D01*
X90406540Y49603201D01*
X90406544Y49603200D01*
X90406545Y49603200D01*
X90553456Y49603200D01*
X90553457Y49603201D01*
X90697542Y49631860D01*
X90833269Y49688080D01*
X90955420Y49769699D01*
X91059301Y49873580D01*
X91140920Y49995731D01*
X91197140Y50131458D01*
X91225800Y50275545D01*
X91225800Y50422455D01*
X91197140Y50566542D01*
X91140920Y50702269D01*
X91140919Y50702270D01*
X91140916Y50702276D01*
X91059301Y50824420D01*
X91059298Y50824424D01*
X90955423Y50928299D01*
X90955419Y50928302D01*
X90833275Y51009917D01*
X90833266Y51009922D01*
X90722611Y51055756D01*
X90697542Y51066140D01*
X90697538Y51066141D01*
X90697534Y51066142D01*
X90553459Y51094800D01*
X90553455Y51094800D01*
X90406545Y51094800D01*
X90406540Y51094800D01*
X90262465Y51066142D01*
X90262450Y51066138D01*
X90145860Y51017845D01*
X90076390Y51010376D01*
X90013911Y51041652D01*
X89978260Y51101741D01*
X89980754Y51171566D01*
X89983836Y51179832D01*
X90019737Y51266503D01*
X90050500Y51421158D01*
X90050500Y51438460D01*
X94814200Y51438460D01*
X94814200Y51291541D01*
X94842858Y51147466D01*
X94842861Y51147456D01*
X94899078Y51011734D01*
X94899083Y51011725D01*
X94980698Y50889581D01*
X94980701Y50889577D01*
X95084576Y50785702D01*
X95084580Y50785699D01*
X95206724Y50704084D01*
X95206733Y50704079D01*
X95217788Y50699500D01*
X95342458Y50647860D01*
X95473524Y50621790D01*
X95486540Y50619201D01*
X95486544Y50619200D01*
X95486545Y50619200D01*
X95633456Y50619200D01*
X95633457Y50619201D01*
X95777542Y50647860D01*
X95913269Y50704080D01*
X96035420Y50785699D01*
X96139301Y50889580D01*
X96220920Y51011731D01*
X96277140Y51147458D01*
X96305800Y51291545D01*
X96305800Y51438455D01*
X96277140Y51582542D01*
X96220920Y51718269D01*
X96220919Y51718270D01*
X96220916Y51718276D01*
X96139301Y51840420D01*
X96139298Y51840424D01*
X96035423Y51944299D01*
X96035419Y51944302D01*
X95913275Y52025917D01*
X95913266Y52025922D01*
X95777544Y52082139D01*
X95777545Y52082139D01*
X95777542Y52082140D01*
X95777538Y52082141D01*
X95777534Y52082142D01*
X95633459Y52110800D01*
X95633455Y52110800D01*
X95486545Y52110800D01*
X95486540Y52110800D01*
X95342465Y52082142D01*
X95342455Y52082139D01*
X95206733Y52025922D01*
X95206724Y52025917D01*
X95084580Y51944302D01*
X95084576Y51944299D01*
X94980701Y51840424D01*
X94980698Y51840420D01*
X94899083Y51718276D01*
X94899078Y51718267D01*
X94842861Y51582545D01*
X94842858Y51582535D01*
X94814200Y51438460D01*
X90050500Y51438460D01*
X90050500Y51566077D01*
X90070185Y51633116D01*
X90122989Y51678871D01*
X90192147Y51688815D01*
X90221951Y51680639D01*
X90262458Y51663860D01*
X90406540Y51635201D01*
X90406544Y51635200D01*
X90406545Y51635200D01*
X90553456Y51635200D01*
X90553457Y51635201D01*
X90697542Y51663860D01*
X90833269Y51720080D01*
X90955420Y51801699D01*
X91059301Y51905580D01*
X91140920Y52027731D01*
X91197140Y52163458D01*
X91225800Y52307545D01*
X91225800Y52454455D01*
X91197140Y52598542D01*
X91140920Y52734269D01*
X91140919Y52734270D01*
X91140916Y52734276D01*
X91059301Y52856420D01*
X91059298Y52856424D01*
X90955423Y52960299D01*
X90955419Y52960302D01*
X90833275Y53041917D01*
X90833266Y53041922D01*
X90697544Y53098139D01*
X90697545Y53098139D01*
X90697542Y53098140D01*
X90697538Y53098141D01*
X90697534Y53098142D01*
X90553459Y53126800D01*
X90553455Y53126800D01*
X90406545Y53126800D01*
X90406540Y53126800D01*
X90262465Y53098142D01*
X90262455Y53098139D01*
X90126733Y53041922D01*
X90126724Y53041917D01*
X90004580Y52960302D01*
X90004576Y52960299D01*
X89900701Y52856424D01*
X89900698Y52856420D01*
X89819083Y52734276D01*
X89819078Y52734267D01*
X89762861Y52598545D01*
X89762858Y52598535D01*
X89734200Y52454460D01*
X89734200Y52351472D01*
X89714515Y52284433D01*
X89661711Y52238678D01*
X89592553Y52228734D01*
X89562748Y52236911D01*
X89483501Y52269736D01*
X89483489Y52269739D01*
X89328845Y52300500D01*
X89328842Y52300500D01*
X89171158Y52300500D01*
X89171155Y52300500D01*
X89016510Y52269739D01*
X89016498Y52269736D01*
X88870827Y52209398D01*
X88870814Y52209391D01*
X88739711Y52121790D01*
X88739707Y52121787D01*
X88628213Y52010293D01*
X88628210Y52010289D01*
X88540609Y51879186D01*
X88540602Y51879173D01*
X88480264Y51733502D01*
X88480261Y51733490D01*
X88449500Y51578847D01*
X67182248Y51578847D01*
X67174542Y51593650D01*
X67169985Y51603421D01*
X67035053Y51929168D01*
X67023899Y51956096D01*
X67020200Y51966261D01*
X66905418Y52330288D01*
X66902618Y52340736D01*
X66896075Y52370249D01*
X66819992Y52713410D01*
X66818121Y52724021D01*
X66768287Y53102501D01*
X66767347Y53113248D01*
X66757622Y53335925D01*
X66757622Y53335927D01*
X91706580Y53335927D01*
X91706580Y53178234D01*
X91737341Y53023591D01*
X91737344Y53023579D01*
X91797682Y52877908D01*
X91797689Y52877895D01*
X91885290Y52746792D01*
X91885293Y52746788D01*
X91996787Y52635294D01*
X91996791Y52635291D01*
X92127894Y52547690D01*
X92127907Y52547683D01*
X92273578Y52487345D01*
X92273583Y52487343D01*
X92428233Y52456581D01*
X92428236Y52456580D01*
X92428238Y52456580D01*
X92585924Y52456580D01*
X92585925Y52456581D01*
X92740577Y52487343D01*
X92886259Y52547686D01*
X93017369Y52635291D01*
X93128869Y52746791D01*
X93216474Y52877901D01*
X93276817Y53023583D01*
X93307580Y53178238D01*
X93307580Y53335922D01*
X93307580Y53335925D01*
X93307579Y53335927D01*
X93276818Y53490570D01*
X93276817Y53490577D01*
X93272214Y53501689D01*
X93216477Y53636253D01*
X93216470Y53636266D01*
X93128869Y53767369D01*
X93128866Y53767373D01*
X93017372Y53878867D01*
X93017368Y53878870D01*
X92886265Y53966471D01*
X92886252Y53966478D01*
X92740581Y54026816D01*
X92740569Y54026819D01*
X92585925Y54057580D01*
X92585922Y54057580D01*
X92428238Y54057580D01*
X92428235Y54057580D01*
X92273590Y54026819D01*
X92273578Y54026816D01*
X92127907Y53966478D01*
X92127894Y53966471D01*
X91996791Y53878870D01*
X91996787Y53878867D01*
X91885293Y53767373D01*
X91885290Y53767369D01*
X91797689Y53636266D01*
X91797682Y53636253D01*
X91737344Y53490582D01*
X91737341Y53490570D01*
X91706580Y53335927D01*
X66757622Y53335927D01*
X66757592Y53336604D01*
X66750618Y53496278D01*
X66750500Y53501689D01*
X66750500Y54748847D01*
X76429500Y54748847D01*
X76429500Y54591154D01*
X76460261Y54436511D01*
X76460264Y54436499D01*
X76520602Y54290828D01*
X76520609Y54290815D01*
X76608210Y54159712D01*
X76608213Y54159708D01*
X76719707Y54048214D01*
X76719711Y54048211D01*
X76850814Y53960610D01*
X76850827Y53960603D01*
X76950060Y53919500D01*
X76996503Y53900263D01*
X77151153Y53869501D01*
X77151156Y53869500D01*
X77151158Y53869500D01*
X77308844Y53869500D01*
X77308845Y53869501D01*
X77463497Y53900263D01*
X77609179Y53960606D01*
X77740289Y54048211D01*
X77851789Y54159711D01*
X77939394Y54290821D01*
X77999737Y54436503D01*
X78030500Y54591158D01*
X78030500Y54748842D01*
X78030500Y54748845D01*
X78030499Y54748847D01*
X78013933Y54832130D01*
X77999737Y54903497D01*
X77986062Y54936511D01*
X77939397Y55049173D01*
X77939390Y55049186D01*
X77851789Y55180289D01*
X77851786Y55180293D01*
X77740292Y55291787D01*
X77740288Y55291790D01*
X77691707Y55324251D01*
X77609185Y55379391D01*
X77609172Y55379398D01*
X77508092Y55421266D01*
X80871456Y55421266D01*
X80871456Y55263573D01*
X80902217Y55108930D01*
X80902220Y55108918D01*
X80962558Y54963247D01*
X80962565Y54963234D01*
X81050166Y54832131D01*
X81050169Y54832127D01*
X81161663Y54720633D01*
X81161667Y54720630D01*
X81292770Y54633029D01*
X81292783Y54633022D01*
X81438454Y54572684D01*
X81438459Y54572682D01*
X81593109Y54541920D01*
X81593112Y54541919D01*
X81593114Y54541919D01*
X81750800Y54541919D01*
X81750801Y54541920D01*
X81905453Y54572682D01*
X82051135Y54633025D01*
X82182245Y54720630D01*
X82293745Y54832130D01*
X82381350Y54963240D01*
X82441693Y55108922D01*
X82472456Y55263577D01*
X82472456Y55421261D01*
X82472456Y55421264D01*
X82472455Y55421266D01*
X82468373Y55441789D01*
X82441693Y55575916D01*
X82395864Y55686558D01*
X82381353Y55721592D01*
X82381351Y55721596D01*
X82381350Y55721598D01*
X82299400Y55844245D01*
X82299399Y55844247D01*
X83079500Y55844247D01*
X83079500Y55686554D01*
X83110261Y55531911D01*
X83110264Y55531899D01*
X83170602Y55386228D01*
X83170608Y55386217D01*
X83220472Y55311590D01*
X83241349Y55244913D01*
X83222864Y55177533D01*
X83220472Y55173810D01*
X83170608Y55099184D01*
X83170602Y55099173D01*
X83110264Y54953502D01*
X83110261Y54953490D01*
X83079500Y54798847D01*
X83079500Y54641154D01*
X83110261Y54486511D01*
X83110264Y54486499D01*
X83170602Y54340828D01*
X83170609Y54340815D01*
X83258210Y54209712D01*
X83258213Y54209708D01*
X83369707Y54098214D01*
X83369711Y54098211D01*
X83500814Y54010610D01*
X83500827Y54010603D01*
X83646498Y53950265D01*
X83646503Y53950263D01*
X83801153Y53919501D01*
X83801156Y53919500D01*
X83801158Y53919500D01*
X83958844Y53919500D01*
X83958845Y53919501D01*
X84113497Y53950263D01*
X84259179Y54010606D01*
X84390289Y54098211D01*
X84501789Y54209711D01*
X84589394Y54340821D01*
X84649737Y54486503D01*
X84680500Y54641158D01*
X84680500Y54798842D01*
X84680500Y54798845D01*
X84680499Y54798847D01*
X84673879Y54832127D01*
X84649737Y54953497D01*
X84645701Y54963240D01*
X84589397Y55099173D01*
X84589390Y55099186D01*
X84539528Y55173809D01*
X84533553Y55192888D01*
X84523047Y55209898D01*
X84523326Y55225550D01*
X84518650Y55240486D01*
X84520943Y55248847D01*
X84929500Y55248847D01*
X84929500Y55091154D01*
X84960261Y54936511D01*
X84960264Y54936499D01*
X85020602Y54790828D01*
X85020609Y54790815D01*
X85108210Y54659712D01*
X85108213Y54659708D01*
X85219707Y54548214D01*
X85219711Y54548211D01*
X85350814Y54460610D01*
X85350827Y54460603D01*
X85496498Y54400265D01*
X85496503Y54400263D01*
X85651153Y54369501D01*
X85651156Y54369500D01*
X85651158Y54369500D01*
X85808844Y54369500D01*
X85808845Y54369501D01*
X85963497Y54400263D01*
X86058750Y54439719D01*
X86128217Y54447187D01*
X86153649Y54439720D01*
X86248906Y54400263D01*
X86403556Y54369501D01*
X86403559Y54369500D01*
X86403561Y54369500D01*
X86561247Y54369500D01*
X86561248Y54369501D01*
X86715900Y54400263D01*
X86861582Y54460606D01*
X86992692Y54548211D01*
X87104192Y54659711D01*
X87191797Y54790821D01*
X87195122Y54798847D01*
X87236540Y54898842D01*
X87236542Y54898847D01*
X87829500Y54898847D01*
X87829500Y54741154D01*
X87860261Y54586511D01*
X87860264Y54586499D01*
X87920602Y54440828D01*
X87920609Y54440815D01*
X88008210Y54309712D01*
X88008213Y54309708D01*
X88119707Y54198214D01*
X88119711Y54198211D01*
X88250814Y54110610D01*
X88250827Y54110603D01*
X88378838Y54057580D01*
X88396503Y54050263D01*
X88551153Y54019501D01*
X88551156Y54019500D01*
X88551158Y54019500D01*
X88708844Y54019500D01*
X88708845Y54019501D01*
X88863497Y54050263D01*
X89009179Y54110606D01*
X89140289Y54198211D01*
X89251789Y54309711D01*
X89339394Y54440821D01*
X89399737Y54586503D01*
X89430500Y54741158D01*
X89430500Y54898842D01*
X89430500Y54898845D01*
X89430499Y54898847D01*
X89429573Y54903502D01*
X89399737Y55053497D01*
X89384138Y55091156D01*
X89339397Y55199173D01*
X89339390Y55199186D01*
X89251789Y55330289D01*
X89251786Y55330293D01*
X89140292Y55441787D01*
X89140288Y55441790D01*
X89009185Y55529391D01*
X89009172Y55529398D01*
X88863501Y55589736D01*
X88863489Y55589739D01*
X88708845Y55620500D01*
X88708842Y55620500D01*
X88551158Y55620500D01*
X88551155Y55620500D01*
X88396510Y55589739D01*
X88396498Y55589736D01*
X88250827Y55529398D01*
X88250814Y55529391D01*
X88119711Y55441790D01*
X88119707Y55441787D01*
X88008213Y55330293D01*
X88008210Y55330289D01*
X87920609Y55199186D01*
X87920602Y55199173D01*
X87860264Y55053502D01*
X87860261Y55053490D01*
X87829500Y54898847D01*
X87236542Y54898847D01*
X87252140Y54936503D01*
X87282903Y55091158D01*
X87282903Y55248842D01*
X87282903Y55248845D01*
X87282902Y55248847D01*
X87271162Y55307866D01*
X87252140Y55403497D01*
X87244780Y55421266D01*
X87191800Y55549173D01*
X87191793Y55549186D01*
X87104192Y55680289D01*
X87104189Y55680293D01*
X86992695Y55791787D01*
X86992691Y55791790D01*
X86861588Y55879391D01*
X86861575Y55879398D01*
X86715904Y55939736D01*
X86715892Y55939739D01*
X86561248Y55970500D01*
X86561245Y55970500D01*
X86403561Y55970500D01*
X86403558Y55970500D01*
X86248914Y55939740D01*
X86248913Y55939739D01*
X86248910Y55939738D01*
X86248906Y55939737D01*
X86153650Y55900282D01*
X86084183Y55892814D01*
X86058749Y55900283D01*
X85963498Y55939737D01*
X85963488Y55939740D01*
X85808845Y55970500D01*
X85808842Y55970500D01*
X85651158Y55970500D01*
X85651155Y55970500D01*
X85496510Y55939739D01*
X85496498Y55939736D01*
X85350827Y55879398D01*
X85350814Y55879391D01*
X85219711Y55791790D01*
X85219707Y55791787D01*
X85108213Y55680293D01*
X85108210Y55680289D01*
X85020609Y55549186D01*
X85020602Y55549173D01*
X84960264Y55403502D01*
X84960261Y55403490D01*
X84929500Y55248847D01*
X84520943Y55248847D01*
X84523938Y55259765D01*
X84524296Y55279756D01*
X84536311Y55304868D01*
X84537134Y55307866D01*
X84539530Y55311594D01*
X84547705Y55323828D01*
X84547705Y55323829D01*
X84589390Y55386215D01*
X84589391Y55386217D01*
X84589394Y55386221D01*
X84649737Y55531903D01*
X84680500Y55686558D01*
X84680500Y55844242D01*
X84680500Y55844245D01*
X84680499Y55844247D01*
X84661505Y55939736D01*
X84649737Y55998897D01*
X84627817Y56051817D01*
X84589397Y56144573D01*
X84589390Y56144586D01*
X84501789Y56275689D01*
X84501786Y56275693D01*
X84390292Y56387187D01*
X84390288Y56387190D01*
X84259185Y56474791D01*
X84259172Y56474798D01*
X84113501Y56535136D01*
X84113489Y56535139D01*
X83958845Y56565900D01*
X83958842Y56565900D01*
X83801158Y56565900D01*
X83801155Y56565900D01*
X83646510Y56535139D01*
X83646498Y56535136D01*
X83500827Y56474798D01*
X83500814Y56474791D01*
X83369711Y56387190D01*
X83369707Y56387187D01*
X83258213Y56275693D01*
X83258210Y56275689D01*
X83170609Y56144586D01*
X83170602Y56144573D01*
X83110264Y55998902D01*
X83110261Y55998890D01*
X83079500Y55844247D01*
X82299399Y55844247D01*
X82293745Y55852709D01*
X82182248Y55964206D01*
X82182244Y55964209D01*
X82051141Y56051810D01*
X82051128Y56051817D01*
X81905457Y56112155D01*
X81905445Y56112158D01*
X81750801Y56142919D01*
X81750798Y56142919D01*
X81593114Y56142919D01*
X81593111Y56142919D01*
X81438466Y56112158D01*
X81438454Y56112155D01*
X81292783Y56051817D01*
X81292770Y56051810D01*
X81161667Y55964209D01*
X81161663Y55964206D01*
X81050169Y55852712D01*
X81050166Y55852708D01*
X80962565Y55721605D01*
X80962558Y55721592D01*
X80902220Y55575921D01*
X80902217Y55575909D01*
X80871456Y55421266D01*
X77508092Y55421266D01*
X77463501Y55439736D01*
X77463489Y55439739D01*
X77308845Y55470500D01*
X77308842Y55470500D01*
X77151158Y55470500D01*
X77151155Y55470500D01*
X76996510Y55439739D01*
X76996498Y55439736D01*
X76850827Y55379398D01*
X76850814Y55379391D01*
X76719711Y55291790D01*
X76719707Y55291787D01*
X76608213Y55180293D01*
X76608210Y55180289D01*
X76520609Y55049186D01*
X76520602Y55049173D01*
X76460264Y54903502D01*
X76460261Y54903490D01*
X76429500Y54748847D01*
X66750500Y54748847D01*
X66750500Y58248847D01*
X78929500Y58248847D01*
X78929500Y58091154D01*
X78960261Y57936511D01*
X78960264Y57936499D01*
X79020602Y57790828D01*
X79020609Y57790815D01*
X79108210Y57659712D01*
X79108213Y57659708D01*
X79219707Y57548214D01*
X79219711Y57548211D01*
X79350814Y57460610D01*
X79350827Y57460603D01*
X79496498Y57400265D01*
X79496503Y57400263D01*
X79651153Y57369501D01*
X79651156Y57369500D01*
X79651158Y57369500D01*
X79808844Y57369500D01*
X79931308Y57393860D01*
X80000900Y57387633D01*
X80056077Y57344770D01*
X80079322Y57278880D01*
X80079500Y57272243D01*
X80079500Y57241154D01*
X80110261Y57086511D01*
X80110264Y57086499D01*
X80170602Y56940828D01*
X80170609Y56940815D01*
X80258210Y56809712D01*
X80258213Y56809708D01*
X80369707Y56698214D01*
X80369711Y56698211D01*
X80500814Y56610610D01*
X80500827Y56610603D01*
X80646498Y56550265D01*
X80646503Y56550263D01*
X80801153Y56519501D01*
X80801156Y56519500D01*
X80801158Y56519500D01*
X80958844Y56519500D01*
X80958845Y56519501D01*
X81113497Y56550263D01*
X81259179Y56610606D01*
X81390289Y56698211D01*
X81436534Y56744457D01*
X81497856Y56777942D01*
X81548407Y56778393D01*
X81550675Y56777942D01*
X81593113Y56769500D01*
X81593114Y56769500D01*
X81750800Y56769500D01*
X81750801Y56769501D01*
X81905453Y56800263D01*
X82051135Y56860606D01*
X82182245Y56948211D01*
X82293745Y57059711D01*
X82381350Y57190821D01*
X82441693Y57336503D01*
X82472456Y57491158D01*
X82472456Y57648842D01*
X82472456Y57648845D01*
X82472455Y57648847D01*
X82470294Y57659712D01*
X82441693Y57803497D01*
X82392023Y57923413D01*
X82381353Y57949173D01*
X82381346Y57949186D01*
X82293745Y58080289D01*
X82293742Y58080293D01*
X82182248Y58191787D01*
X82182244Y58191790D01*
X82096853Y58248847D01*
X83079500Y58248847D01*
X83079500Y58091154D01*
X83110261Y57936511D01*
X83110264Y57936499D01*
X83170602Y57790828D01*
X83170609Y57790815D01*
X83258210Y57659712D01*
X83258213Y57659708D01*
X83369707Y57548214D01*
X83369711Y57548211D01*
X83500814Y57460610D01*
X83500827Y57460603D01*
X83646498Y57400265D01*
X83646503Y57400263D01*
X83801153Y57369501D01*
X83801156Y57369500D01*
X83801158Y57369500D01*
X83958844Y57369500D01*
X83958845Y57369501D01*
X84113497Y57400263D01*
X84259179Y57460606D01*
X84390289Y57548211D01*
X84501789Y57659711D01*
X84589394Y57790821D01*
X84649737Y57936503D01*
X84680500Y58091158D01*
X84680500Y58248842D01*
X84680500Y58248845D01*
X84680499Y58248847D01*
X84658727Y58358300D01*
X84649737Y58403497D01*
X84649735Y58403502D01*
X84589397Y58549173D01*
X84589390Y58549186D01*
X84501789Y58680289D01*
X84501786Y58680293D01*
X84390292Y58791787D01*
X84390288Y58791790D01*
X84259185Y58879391D01*
X84259172Y58879398D01*
X84113501Y58939736D01*
X84113489Y58939739D01*
X83958845Y58970500D01*
X83958842Y58970500D01*
X83801158Y58970500D01*
X83801155Y58970500D01*
X83646510Y58939739D01*
X83646498Y58939736D01*
X83500827Y58879398D01*
X83500814Y58879391D01*
X83369711Y58791790D01*
X83369707Y58791787D01*
X83258213Y58680293D01*
X83258210Y58680289D01*
X83170609Y58549186D01*
X83170602Y58549173D01*
X83110264Y58403502D01*
X83110261Y58403490D01*
X83079500Y58248847D01*
X82096853Y58248847D01*
X82051141Y58279391D01*
X82051128Y58279398D01*
X81905457Y58339736D01*
X81905445Y58339739D01*
X81750801Y58370500D01*
X81750798Y58370500D01*
X81593114Y58370500D01*
X81560188Y58363951D01*
X81500469Y58352072D01*
X81430877Y58358300D01*
X81375700Y58401164D01*
X81361721Y58426228D01*
X81310794Y58549179D01*
X81310792Y58549182D01*
X81310790Y58549186D01*
X81223189Y58680289D01*
X81223186Y58680293D01*
X81111692Y58791787D01*
X81111688Y58791790D01*
X80980585Y58879391D01*
X80980572Y58879398D01*
X80834901Y58939736D01*
X80834889Y58939739D01*
X80680245Y58970500D01*
X80680242Y58970500D01*
X80522558Y58970500D01*
X80522555Y58970500D01*
X80367910Y58939739D01*
X80367898Y58939736D01*
X80216592Y58877063D01*
X80215911Y58878708D01*
X80155730Y58866187D01*
X80115229Y58878080D01*
X80114808Y58877063D01*
X79963501Y58939736D01*
X79963489Y58939739D01*
X79808845Y58970500D01*
X79808842Y58970500D01*
X79651158Y58970500D01*
X79651155Y58970500D01*
X79496510Y58939739D01*
X79496498Y58939736D01*
X79350827Y58879398D01*
X79350814Y58879391D01*
X79219711Y58791790D01*
X79219707Y58791787D01*
X79108213Y58680293D01*
X79108210Y58680289D01*
X79020609Y58549186D01*
X79020602Y58549173D01*
X78960264Y58403502D01*
X78960261Y58403490D01*
X78929500Y58248847D01*
X66750500Y58248847D01*
X66750500Y59892595D01*
X84392203Y59892595D01*
X84392203Y59734902D01*
X84422964Y59580259D01*
X84422967Y59580247D01*
X84483305Y59434576D01*
X84483312Y59434563D01*
X84570913Y59303460D01*
X84570916Y59303456D01*
X84682410Y59191962D01*
X84682414Y59191959D01*
X84813517Y59104358D01*
X84813519Y59104357D01*
X84813524Y59104354D01*
X84858862Y59085575D01*
X84913263Y59041736D01*
X84925968Y59018468D01*
X84984662Y58876766D01*
X84984667Y58876757D01*
X85072268Y58745654D01*
X85072271Y58745650D01*
X85183765Y58634156D01*
X85183769Y58634153D01*
X85314875Y58546550D01*
X85314877Y58546550D01*
X85314879Y58546548D01*
X85410129Y58507095D01*
X85464533Y58463255D01*
X85477238Y58439986D01*
X85516689Y58344741D01*
X85516696Y58344728D01*
X85604297Y58213625D01*
X85604300Y58213621D01*
X85715794Y58102127D01*
X85715798Y58102124D01*
X85846901Y58014523D01*
X85846914Y58014516D01*
X85992585Y57954178D01*
X85992590Y57954176D01*
X86147240Y57923414D01*
X86147243Y57923413D01*
X86147245Y57923413D01*
X86304931Y57923413D01*
X86304932Y57923414D01*
X86459584Y57954176D01*
X86605266Y58014519D01*
X86736376Y58102124D01*
X86847876Y58213624D01*
X86935481Y58344734D01*
X86938521Y58352072D01*
X86974935Y58439986D01*
X86995824Y58490416D01*
X87026587Y58645071D01*
X87026587Y58802755D01*
X87026587Y58802758D01*
X87026586Y58802760D01*
X87018855Y58841628D01*
X86995824Y58957410D01*
X86968886Y59022445D01*
X86935484Y59103086D01*
X86935477Y59103099D01*
X86847876Y59234202D01*
X86847873Y59234206D01*
X86736379Y59345700D01*
X86736375Y59345703D01*
X86605272Y59433304D01*
X86605259Y59433311D01*
X86510014Y59472762D01*
X86455610Y59516603D01*
X86442905Y59539871D01*
X86426181Y59580247D01*
X86403452Y59635121D01*
X86403450Y59635123D01*
X86403450Y59635125D01*
X86315847Y59766231D01*
X86315844Y59766235D01*
X86204350Y59877729D01*
X86204346Y59877732D01*
X86073243Y59965333D01*
X86073233Y59965338D01*
X86027899Y59984116D01*
X85973496Y60027957D01*
X85960791Y60051225D01*
X85902100Y60192922D01*
X85902093Y60192934D01*
X85814492Y60324037D01*
X85814489Y60324041D01*
X85702995Y60435535D01*
X85702991Y60435538D01*
X85571888Y60523139D01*
X85571875Y60523146D01*
X85426204Y60583484D01*
X85426192Y60583487D01*
X85271548Y60614248D01*
X85271545Y60614248D01*
X85113861Y60614248D01*
X85113858Y60614248D01*
X84959213Y60583487D01*
X84959201Y60583484D01*
X84813530Y60523146D01*
X84813517Y60523139D01*
X84682414Y60435538D01*
X84682410Y60435535D01*
X84570916Y60324041D01*
X84570913Y60324037D01*
X84483312Y60192934D01*
X84483305Y60192921D01*
X84422967Y60047250D01*
X84422964Y60047238D01*
X84392203Y59892595D01*
X66750500Y59892595D01*
X66750500Y59985307D01*
X78474910Y59985307D01*
X78535459Y59950349D01*
X78535458Y59950349D01*
X78663650Y59916000D01*
X78796350Y59916000D01*
X78924535Y59950348D01*
X78985086Y59985307D01*
X79674910Y59985307D01*
X79735459Y59950349D01*
X79735458Y59950349D01*
X79863650Y59916000D01*
X79996350Y59916000D01*
X80124535Y59950348D01*
X80185086Y59985307D01*
X80874910Y59985307D01*
X80935459Y59950349D01*
X80935458Y59950349D01*
X81063650Y59916000D01*
X81196350Y59916000D01*
X81324535Y59950348D01*
X81385086Y59985307D01*
X82074910Y59985307D01*
X82135459Y59950349D01*
X82135458Y59950349D01*
X82263650Y59916000D01*
X82396350Y59916000D01*
X82524535Y59950348D01*
X82585088Y59985308D01*
X82330001Y60240395D01*
X82074910Y59985307D01*
X81385086Y59985307D01*
X81385088Y59985308D01*
X81130001Y60240395D01*
X80874910Y59985307D01*
X80185086Y59985307D01*
X80185088Y59985308D01*
X79930001Y60240395D01*
X79674910Y59985307D01*
X78985086Y59985307D01*
X78985088Y59985308D01*
X78730001Y60240395D01*
X78474910Y59985307D01*
X66750500Y59985307D01*
X66750500Y60486351D01*
X78226000Y60486351D01*
X78226000Y60353650D01*
X78260347Y60225462D01*
X78260348Y60225461D01*
X78295306Y60164913D01*
X78295307Y60164912D01*
X78550394Y60419999D01*
X78550394Y60420000D01*
X78530503Y60439891D01*
X78630000Y60439891D01*
X78630000Y60400109D01*
X78645224Y60363355D01*
X78673355Y60335224D01*
X78710109Y60320000D01*
X78749891Y60320000D01*
X78786645Y60335224D01*
X78814776Y60363355D01*
X78830000Y60400109D01*
X78830000Y60420000D01*
X78909605Y60420000D01*
X78909605Y60419999D01*
X79164692Y60164912D01*
X79199653Y60225466D01*
X79210225Y60264920D01*
X79246590Y60324581D01*
X79309437Y60355110D01*
X79378812Y60346815D01*
X79432690Y60302330D01*
X79449775Y60264920D01*
X79460347Y60225464D01*
X79460348Y60225461D01*
X79495306Y60164913D01*
X79495307Y60164912D01*
X79750394Y60419999D01*
X79750394Y60420000D01*
X79730503Y60439891D01*
X79830000Y60439891D01*
X79830000Y60400109D01*
X79845224Y60363355D01*
X79873355Y60335224D01*
X79910109Y60320000D01*
X79949891Y60320000D01*
X79986645Y60335224D01*
X80014776Y60363355D01*
X80030000Y60400109D01*
X80030000Y60420000D01*
X80109605Y60420000D01*
X80109605Y60419999D01*
X80364692Y60164912D01*
X80399653Y60225466D01*
X80410225Y60264920D01*
X80446590Y60324581D01*
X80509437Y60355110D01*
X80578812Y60346815D01*
X80632690Y60302330D01*
X80649775Y60264920D01*
X80660347Y60225464D01*
X80660348Y60225461D01*
X80695306Y60164913D01*
X80695307Y60164912D01*
X80950394Y60419999D01*
X80950394Y60420000D01*
X80930503Y60439891D01*
X81030000Y60439891D01*
X81030000Y60400109D01*
X81045224Y60363355D01*
X81073355Y60335224D01*
X81110109Y60320000D01*
X81149891Y60320000D01*
X81186645Y60335224D01*
X81214776Y60363355D01*
X81230000Y60400109D01*
X81230000Y60420000D01*
X81309605Y60420000D01*
X81309605Y60419999D01*
X81564692Y60164912D01*
X81599653Y60225466D01*
X81610225Y60264920D01*
X81646590Y60324581D01*
X81709437Y60355110D01*
X81778812Y60346815D01*
X81832690Y60302330D01*
X81849775Y60264920D01*
X81860347Y60225464D01*
X81860348Y60225461D01*
X81895306Y60164913D01*
X81895307Y60164912D01*
X82150394Y60419999D01*
X82150394Y60420000D01*
X82130503Y60439891D01*
X82230000Y60439891D01*
X82230000Y60400109D01*
X82245224Y60363355D01*
X82273355Y60335224D01*
X82310109Y60320000D01*
X82349891Y60320000D01*
X82386645Y60335224D01*
X82414776Y60363355D01*
X82430000Y60400109D01*
X82430000Y60420000D01*
X82509605Y60420000D01*
X82509605Y60419999D01*
X82764692Y60164912D01*
X82799652Y60225465D01*
X82834000Y60353650D01*
X82834000Y60486351D01*
X82799651Y60614541D01*
X82764693Y60675090D01*
X82509605Y60420000D01*
X82430000Y60420000D01*
X82430000Y60439891D01*
X82414776Y60476645D01*
X82386645Y60504776D01*
X82349891Y60520000D01*
X82310109Y60520000D01*
X82273355Y60504776D01*
X82245224Y60476645D01*
X82230000Y60439891D01*
X82130503Y60439891D01*
X81895305Y60675089D01*
X81860347Y60614538D01*
X81849775Y60575080D01*
X81813410Y60515420D01*
X81750563Y60484891D01*
X81681187Y60493186D01*
X81627309Y60537671D01*
X81610225Y60575080D01*
X81599651Y60614541D01*
X81564693Y60675090D01*
X81309605Y60420000D01*
X81230000Y60420000D01*
X81230000Y60439891D01*
X81214776Y60476645D01*
X81186645Y60504776D01*
X81149891Y60520000D01*
X81110109Y60520000D01*
X81073355Y60504776D01*
X81045224Y60476645D01*
X81030000Y60439891D01*
X80930503Y60439891D01*
X80695306Y60675089D01*
X80660347Y60614538D01*
X80649775Y60575080D01*
X80613410Y60515420D01*
X80550563Y60484891D01*
X80481187Y60493186D01*
X80427309Y60537671D01*
X80410225Y60575080D01*
X80399651Y60614541D01*
X80364693Y60675090D01*
X80109605Y60420000D01*
X80030000Y60420000D01*
X80030000Y60439891D01*
X80014776Y60476645D01*
X79986645Y60504776D01*
X79949891Y60520000D01*
X79910109Y60520000D01*
X79873355Y60504776D01*
X79845224Y60476645D01*
X79830000Y60439891D01*
X79730503Y60439891D01*
X79495305Y60675089D01*
X79460347Y60614538D01*
X79449775Y60575080D01*
X79413410Y60515420D01*
X79350563Y60484891D01*
X79281187Y60493186D01*
X79227309Y60537671D01*
X79210225Y60575080D01*
X79199651Y60614541D01*
X79164693Y60675090D01*
X78909605Y60420000D01*
X78830000Y60420000D01*
X78830000Y60439891D01*
X78814776Y60476645D01*
X78786645Y60504776D01*
X78749891Y60520000D01*
X78710109Y60520000D01*
X78673355Y60504776D01*
X78645224Y60476645D01*
X78630000Y60439891D01*
X78530503Y60439891D01*
X78295305Y60675089D01*
X78260347Y60614538D01*
X78226000Y60486351D01*
X66750500Y60486351D01*
X66750500Y61828847D01*
X67249500Y61828847D01*
X67249500Y61671154D01*
X67280261Y61516511D01*
X67280264Y61516499D01*
X67340602Y61370828D01*
X67340609Y61370815D01*
X67428210Y61239712D01*
X67428213Y61239708D01*
X67539707Y61128214D01*
X67539711Y61128211D01*
X67670814Y61040610D01*
X67670827Y61040603D01*
X67816498Y60980265D01*
X67816503Y60980263D01*
X67971153Y60949501D01*
X67971156Y60949500D01*
X67971158Y60949500D01*
X68128844Y60949500D01*
X68128845Y60949501D01*
X68283497Y60980263D01*
X68429179Y61040606D01*
X68560289Y61128211D01*
X68617385Y61185307D01*
X78474910Y61185307D01*
X78535459Y61150349D01*
X78535458Y61150349D01*
X78574920Y61139775D01*
X78634580Y61103410D01*
X78665109Y61040563D01*
X78656814Y60971187D01*
X78612329Y60917309D01*
X78574920Y60900225D01*
X78535462Y60889653D01*
X78474911Y60854694D01*
X78730000Y60599606D01*
X78985088Y60854693D01*
X78985087Y60854694D01*
X78924539Y60889652D01*
X78924536Y60889653D01*
X78885080Y60900225D01*
X78825419Y60936590D01*
X78794890Y60999437D01*
X78803185Y61068812D01*
X78847670Y61122690D01*
X78885080Y61139775D01*
X78924534Y61150347D01*
X78985086Y61185307D01*
X79674910Y61185307D01*
X79735459Y61150349D01*
X79735458Y61150349D01*
X79774920Y61139775D01*
X79834580Y61103410D01*
X79865109Y61040563D01*
X79856814Y60971187D01*
X79812329Y60917309D01*
X79774920Y60900225D01*
X79735462Y60889653D01*
X79674911Y60854694D01*
X79930000Y60599606D01*
X80185088Y60854693D01*
X80185087Y60854694D01*
X80124539Y60889652D01*
X80124536Y60889653D01*
X80085080Y60900225D01*
X80025419Y60936590D01*
X79994890Y60999437D01*
X80003185Y61068812D01*
X80047670Y61122690D01*
X80085080Y61139775D01*
X80124534Y61150347D01*
X80185086Y61185307D01*
X80874910Y61185307D01*
X80935459Y61150349D01*
X80935458Y61150349D01*
X80974920Y61139775D01*
X81034580Y61103410D01*
X81065109Y61040563D01*
X81056814Y60971187D01*
X81012329Y60917309D01*
X80974920Y60900225D01*
X80935462Y60889653D01*
X80874911Y60854694D01*
X81130000Y60599606D01*
X81385088Y60854693D01*
X81385087Y60854694D01*
X81324539Y60889652D01*
X81324536Y60889653D01*
X81285080Y60900225D01*
X81225419Y60936590D01*
X81194890Y60999437D01*
X81203185Y61068812D01*
X81247670Y61122690D01*
X81285080Y61139775D01*
X81324534Y61150347D01*
X81385086Y61185307D01*
X82074910Y61185307D01*
X82135459Y61150349D01*
X82135458Y61150349D01*
X82174920Y61139775D01*
X82234580Y61103410D01*
X82265109Y61040563D01*
X82256814Y60971187D01*
X82212329Y60917309D01*
X82174920Y60900225D01*
X82135462Y60889653D01*
X82074911Y60854694D01*
X82330000Y60599606D01*
X82585088Y60854693D01*
X82585087Y60854694D01*
X82524539Y60889652D01*
X82524536Y60889653D01*
X82485080Y60900225D01*
X82425419Y60936590D01*
X82394890Y60999437D01*
X82403185Y61068812D01*
X82447670Y61122690D01*
X82485080Y61139775D01*
X82524534Y61150347D01*
X82585088Y61185308D01*
X82330001Y61440395D01*
X82074910Y61185307D01*
X81385086Y61185307D01*
X81385088Y61185308D01*
X81130001Y61440395D01*
X80874910Y61185307D01*
X80185086Y61185307D01*
X80185088Y61185308D01*
X79930001Y61440395D01*
X79674910Y61185307D01*
X78985086Y61185307D01*
X78985088Y61185308D01*
X78730001Y61440395D01*
X78474910Y61185307D01*
X68617385Y61185307D01*
X68671789Y61239711D01*
X68689043Y61265535D01*
X68711165Y61298640D01*
X68759390Y61370815D01*
X68759390Y61370816D01*
X68759394Y61370821D01*
X68819737Y61516503D01*
X68850500Y61671158D01*
X68850500Y61686351D01*
X78226000Y61686351D01*
X78226000Y61553650D01*
X78260347Y61425462D01*
X78260348Y61425461D01*
X78295306Y61364913D01*
X78295307Y61364912D01*
X78550394Y61619999D01*
X78550394Y61620000D01*
X78530503Y61639891D01*
X78630000Y61639891D01*
X78630000Y61600109D01*
X78645224Y61563355D01*
X78673355Y61535224D01*
X78710109Y61520000D01*
X78749891Y61520000D01*
X78786645Y61535224D01*
X78814776Y61563355D01*
X78830000Y61600109D01*
X78830000Y61620000D01*
X78909605Y61620000D01*
X78909605Y61619999D01*
X79164692Y61364912D01*
X79199653Y61425466D01*
X79210225Y61464920D01*
X79246590Y61524581D01*
X79309437Y61555110D01*
X79378812Y61546815D01*
X79432690Y61502330D01*
X79449775Y61464920D01*
X79460347Y61425464D01*
X79460348Y61425461D01*
X79495306Y61364913D01*
X79495307Y61364912D01*
X79750394Y61619999D01*
X79750394Y61620000D01*
X79730503Y61639891D01*
X79830000Y61639891D01*
X79830000Y61600109D01*
X79845224Y61563355D01*
X79873355Y61535224D01*
X79910109Y61520000D01*
X79949891Y61520000D01*
X79986645Y61535224D01*
X80014776Y61563355D01*
X80030000Y61600109D01*
X80030000Y61620000D01*
X80109605Y61620000D01*
X80109605Y61619999D01*
X80364692Y61364912D01*
X80399653Y61425466D01*
X80410225Y61464920D01*
X80446590Y61524581D01*
X80509437Y61555110D01*
X80578812Y61546815D01*
X80632690Y61502330D01*
X80649775Y61464920D01*
X80660347Y61425464D01*
X80660348Y61425461D01*
X80695306Y61364913D01*
X80695307Y61364912D01*
X80950394Y61619999D01*
X80950394Y61620000D01*
X80930503Y61639891D01*
X81030000Y61639891D01*
X81030000Y61600109D01*
X81045224Y61563355D01*
X81073355Y61535224D01*
X81110109Y61520000D01*
X81149891Y61520000D01*
X81186645Y61535224D01*
X81214776Y61563355D01*
X81230000Y61600109D01*
X81230000Y61620000D01*
X81309605Y61620000D01*
X81309605Y61619999D01*
X81564692Y61364912D01*
X81599653Y61425466D01*
X81610225Y61464920D01*
X81646590Y61524581D01*
X81709437Y61555110D01*
X81778812Y61546815D01*
X81832690Y61502330D01*
X81849775Y61464920D01*
X81860347Y61425464D01*
X81860348Y61425461D01*
X81895306Y61364913D01*
X81895307Y61364912D01*
X82150394Y61619999D01*
X82150394Y61620000D01*
X82130503Y61639891D01*
X82230000Y61639891D01*
X82230000Y61600109D01*
X82245224Y61563355D01*
X82273355Y61535224D01*
X82310109Y61520000D01*
X82349891Y61520000D01*
X82386645Y61535224D01*
X82414776Y61563355D01*
X82430000Y61600109D01*
X82430000Y61620000D01*
X82509605Y61620000D01*
X82509605Y61619999D01*
X82764692Y61364912D01*
X82799652Y61425465D01*
X82834000Y61553650D01*
X82834000Y61686351D01*
X82799651Y61814541D01*
X82764693Y61875090D01*
X82509605Y61620000D01*
X82430000Y61620000D01*
X82430000Y61639891D01*
X82414776Y61676645D01*
X82386645Y61704776D01*
X82349891Y61720000D01*
X82310109Y61720000D01*
X82273355Y61704776D01*
X82245224Y61676645D01*
X82230000Y61639891D01*
X82130503Y61639891D01*
X81895305Y61875089D01*
X81860347Y61814538D01*
X81849775Y61775080D01*
X81813410Y61715420D01*
X81750563Y61684891D01*
X81681187Y61693186D01*
X81627309Y61737671D01*
X81610225Y61775080D01*
X81599651Y61814541D01*
X81564693Y61875090D01*
X81309605Y61620000D01*
X81230000Y61620000D01*
X81230000Y61639891D01*
X81214776Y61676645D01*
X81186645Y61704776D01*
X81149891Y61720000D01*
X81110109Y61720000D01*
X81073355Y61704776D01*
X81045224Y61676645D01*
X81030000Y61639891D01*
X80930503Y61639891D01*
X80695305Y61875089D01*
X80660347Y61814538D01*
X80649775Y61775080D01*
X80613410Y61715420D01*
X80550563Y61684891D01*
X80481187Y61693186D01*
X80427309Y61737671D01*
X80410225Y61775080D01*
X80399651Y61814541D01*
X80364693Y61875090D01*
X80109605Y61620000D01*
X80030000Y61620000D01*
X80030000Y61639891D01*
X80014776Y61676645D01*
X79986645Y61704776D01*
X79949891Y61720000D01*
X79910109Y61720000D01*
X79873355Y61704776D01*
X79845224Y61676645D01*
X79830000Y61639891D01*
X79730503Y61639891D01*
X79495305Y61875089D01*
X79460347Y61814538D01*
X79449775Y61775080D01*
X79413410Y61715420D01*
X79350563Y61684891D01*
X79281187Y61693186D01*
X79227309Y61737671D01*
X79210225Y61775080D01*
X79199651Y61814541D01*
X79164693Y61875090D01*
X78909605Y61620000D01*
X78830000Y61620000D01*
X78830000Y61639891D01*
X78814776Y61676645D01*
X78786645Y61704776D01*
X78749891Y61720000D01*
X78710109Y61720000D01*
X78673355Y61704776D01*
X78645224Y61676645D01*
X78630000Y61639891D01*
X78530503Y61639891D01*
X78295305Y61875089D01*
X78260347Y61814538D01*
X78226000Y61686351D01*
X68850500Y61686351D01*
X68850500Y61828842D01*
X68850500Y61828845D01*
X68850499Y61828847D01*
X68819738Y61983490D01*
X68819737Y61983497D01*
X68790247Y62054693D01*
X68759397Y62129173D01*
X68759390Y62129186D01*
X68671789Y62260289D01*
X68671786Y62260293D01*
X68560292Y62371787D01*
X68560288Y62371790D01*
X68540059Y62385307D01*
X78474910Y62385307D01*
X78535459Y62350349D01*
X78535458Y62350349D01*
X78574920Y62339775D01*
X78634580Y62303410D01*
X78665109Y62240563D01*
X78656814Y62171187D01*
X78612329Y62117309D01*
X78574920Y62100225D01*
X78535462Y62089653D01*
X78474911Y62054694D01*
X78730000Y61799606D01*
X78985088Y62054693D01*
X78985087Y62054694D01*
X78924539Y62089652D01*
X78924536Y62089653D01*
X78885080Y62100225D01*
X78825419Y62136590D01*
X78794890Y62199437D01*
X78803185Y62268812D01*
X78847670Y62322690D01*
X78885080Y62339775D01*
X78924534Y62350347D01*
X78985086Y62385307D01*
X79674910Y62385307D01*
X79735459Y62350349D01*
X79735458Y62350349D01*
X79774920Y62339775D01*
X79834580Y62303410D01*
X79865109Y62240563D01*
X79856814Y62171187D01*
X79812329Y62117309D01*
X79774920Y62100225D01*
X79735462Y62089653D01*
X79674911Y62054694D01*
X79930000Y61799606D01*
X80185088Y62054693D01*
X80185087Y62054694D01*
X80124539Y62089652D01*
X80124536Y62089653D01*
X80085080Y62100225D01*
X80025419Y62136590D01*
X79994890Y62199437D01*
X80003185Y62268812D01*
X80047670Y62322690D01*
X80085080Y62339775D01*
X80124534Y62350347D01*
X80185086Y62385307D01*
X80874910Y62385307D01*
X80935459Y62350349D01*
X80935458Y62350349D01*
X80974920Y62339775D01*
X81034580Y62303410D01*
X81065109Y62240563D01*
X81056814Y62171187D01*
X81012329Y62117309D01*
X80974920Y62100225D01*
X80935462Y62089653D01*
X80874911Y62054694D01*
X81130000Y61799606D01*
X81385088Y62054693D01*
X81385087Y62054694D01*
X81324539Y62089652D01*
X81324536Y62089653D01*
X81285080Y62100225D01*
X81225419Y62136590D01*
X81194890Y62199437D01*
X81203185Y62268812D01*
X81247670Y62322690D01*
X81285080Y62339775D01*
X81324534Y62350347D01*
X81385086Y62385307D01*
X82074910Y62385307D01*
X82135459Y62350349D01*
X82135458Y62350349D01*
X82174920Y62339775D01*
X82234580Y62303410D01*
X82265109Y62240563D01*
X82256814Y62171187D01*
X82212329Y62117309D01*
X82174920Y62100225D01*
X82135462Y62089653D01*
X82074911Y62054694D01*
X82330000Y61799606D01*
X82585088Y62054693D01*
X82585087Y62054694D01*
X82524539Y62089652D01*
X82524536Y62089653D01*
X82485080Y62100225D01*
X82425419Y62136590D01*
X82394890Y62199437D01*
X82403185Y62268812D01*
X82447670Y62322690D01*
X82485080Y62339775D01*
X82524534Y62350347D01*
X82585088Y62385308D01*
X82330001Y62640395D01*
X82074910Y62385307D01*
X81385086Y62385307D01*
X81385088Y62385308D01*
X81130001Y62640395D01*
X80874910Y62385307D01*
X80185086Y62385307D01*
X80185088Y62385308D01*
X79930001Y62640395D01*
X79674910Y62385307D01*
X78985086Y62385307D01*
X78985088Y62385308D01*
X78730001Y62640395D01*
X78474910Y62385307D01*
X68540059Y62385307D01*
X68429185Y62459391D01*
X68429172Y62459398D01*
X68283501Y62519736D01*
X68283489Y62519739D01*
X68128845Y62550500D01*
X68128842Y62550500D01*
X67971158Y62550500D01*
X67971155Y62550500D01*
X67816510Y62519739D01*
X67816498Y62519736D01*
X67670827Y62459398D01*
X67670814Y62459391D01*
X67539711Y62371790D01*
X67539707Y62371787D01*
X67428213Y62260293D01*
X67428210Y62260289D01*
X67340609Y62129186D01*
X67340602Y62129173D01*
X67280264Y61983502D01*
X67280261Y61983490D01*
X67249500Y61828847D01*
X66750500Y61828847D01*
X66750500Y62886351D01*
X78226000Y62886351D01*
X78226000Y62753650D01*
X78260347Y62625462D01*
X78260348Y62625461D01*
X78295306Y62564913D01*
X78295307Y62564912D01*
X78550394Y62819999D01*
X78550394Y62820000D01*
X78530503Y62839891D01*
X78630000Y62839891D01*
X78630000Y62800109D01*
X78645224Y62763355D01*
X78673355Y62735224D01*
X78710109Y62720000D01*
X78749891Y62720000D01*
X78786645Y62735224D01*
X78814776Y62763355D01*
X78830000Y62800109D01*
X78830000Y62820000D01*
X78909605Y62820000D01*
X78909605Y62819999D01*
X79164692Y62564912D01*
X79199653Y62625466D01*
X79210225Y62664920D01*
X79246590Y62724581D01*
X79309437Y62755110D01*
X79378812Y62746815D01*
X79432690Y62702330D01*
X79449775Y62664920D01*
X79460347Y62625464D01*
X79460348Y62625461D01*
X79495306Y62564913D01*
X79495307Y62564912D01*
X79750394Y62819999D01*
X79750394Y62820000D01*
X79730503Y62839891D01*
X79830000Y62839891D01*
X79830000Y62800109D01*
X79845224Y62763355D01*
X79873355Y62735224D01*
X79910109Y62720000D01*
X79949891Y62720000D01*
X79986645Y62735224D01*
X80014776Y62763355D01*
X80030000Y62800109D01*
X80030000Y62820000D01*
X80109605Y62820000D01*
X80109605Y62819999D01*
X80364692Y62564912D01*
X80399653Y62625466D01*
X80410225Y62664920D01*
X80446590Y62724581D01*
X80509437Y62755110D01*
X80578812Y62746815D01*
X80632690Y62702330D01*
X80649775Y62664920D01*
X80660347Y62625464D01*
X80660348Y62625461D01*
X80695306Y62564913D01*
X80695307Y62564912D01*
X80950394Y62819999D01*
X80950394Y62820000D01*
X80930503Y62839891D01*
X81030000Y62839891D01*
X81030000Y62800109D01*
X81045224Y62763355D01*
X81073355Y62735224D01*
X81110109Y62720000D01*
X81149891Y62720000D01*
X81186645Y62735224D01*
X81214776Y62763355D01*
X81230000Y62800109D01*
X81230000Y62820000D01*
X81309605Y62820000D01*
X81309605Y62819999D01*
X81564692Y62564912D01*
X81599653Y62625466D01*
X81610225Y62664920D01*
X81646590Y62724581D01*
X81709437Y62755110D01*
X81778812Y62746815D01*
X81832690Y62702330D01*
X81849775Y62664920D01*
X81860347Y62625464D01*
X81860348Y62625461D01*
X81895306Y62564913D01*
X81895307Y62564912D01*
X82150394Y62819999D01*
X82150394Y62820000D01*
X82130503Y62839891D01*
X82230000Y62839891D01*
X82230000Y62800109D01*
X82245224Y62763355D01*
X82273355Y62735224D01*
X82310109Y62720000D01*
X82349891Y62720000D01*
X82386645Y62735224D01*
X82414776Y62763355D01*
X82430000Y62800109D01*
X82430000Y62820000D01*
X82509605Y62820000D01*
X82509605Y62819999D01*
X82764692Y62564912D01*
X82799652Y62625465D01*
X82834000Y62753650D01*
X82834000Y62886351D01*
X82799651Y63014541D01*
X82764693Y63075090D01*
X82509605Y62820000D01*
X82430000Y62820000D01*
X82430000Y62839891D01*
X82414776Y62876645D01*
X82386645Y62904776D01*
X82349891Y62920000D01*
X82310109Y62920000D01*
X82273355Y62904776D01*
X82245224Y62876645D01*
X82230000Y62839891D01*
X82130503Y62839891D01*
X81895306Y63075089D01*
X81860347Y63014538D01*
X81849775Y62975080D01*
X81813410Y62915420D01*
X81750563Y62884891D01*
X81681187Y62893186D01*
X81627309Y62937671D01*
X81610225Y62975080D01*
X81599651Y63014541D01*
X81564693Y63075090D01*
X81309605Y62820000D01*
X81230000Y62820000D01*
X81230000Y62839891D01*
X81214776Y62876645D01*
X81186645Y62904776D01*
X81149891Y62920000D01*
X81110109Y62920000D01*
X81073355Y62904776D01*
X81045224Y62876645D01*
X81030000Y62839891D01*
X80930503Y62839891D01*
X80695306Y63075089D01*
X80660347Y63014538D01*
X80649775Y62975080D01*
X80613410Y62915420D01*
X80550563Y62884891D01*
X80481187Y62893186D01*
X80427309Y62937671D01*
X80410225Y62975080D01*
X80399651Y63014541D01*
X80364693Y63075090D01*
X80109605Y62820000D01*
X80030000Y62820000D01*
X80030000Y62839891D01*
X80014776Y62876645D01*
X79986645Y62904776D01*
X79949891Y62920000D01*
X79910109Y62920000D01*
X79873355Y62904776D01*
X79845224Y62876645D01*
X79830000Y62839891D01*
X79730503Y62839891D01*
X79495305Y63075089D01*
X79460347Y63014538D01*
X79449775Y62975080D01*
X79413410Y62915420D01*
X79350563Y62884891D01*
X79281187Y62893186D01*
X79227309Y62937671D01*
X79210225Y62975080D01*
X79199651Y63014541D01*
X79164693Y63075090D01*
X78909605Y62820000D01*
X78830000Y62820000D01*
X78830000Y62839891D01*
X78814776Y62876645D01*
X78786645Y62904776D01*
X78749891Y62920000D01*
X78710109Y62920000D01*
X78673355Y62904776D01*
X78645224Y62876645D01*
X78630000Y62839891D01*
X78530503Y62839891D01*
X78295306Y63075089D01*
X78260347Y63014538D01*
X78226000Y62886351D01*
X66750500Y62886351D01*
X66750500Y63585307D01*
X78474910Y63585307D01*
X78535459Y63550349D01*
X78535458Y63550349D01*
X78574920Y63539775D01*
X78634580Y63503410D01*
X78665109Y63440563D01*
X78656814Y63371187D01*
X78612329Y63317309D01*
X78574920Y63300225D01*
X78535462Y63289653D01*
X78474911Y63254694D01*
X78730000Y62999606D01*
X78985088Y63254693D01*
X78985087Y63254694D01*
X78924539Y63289652D01*
X78924536Y63289653D01*
X78885080Y63300225D01*
X78825419Y63336590D01*
X78794890Y63399437D01*
X78803185Y63468812D01*
X78847670Y63522690D01*
X78885080Y63539775D01*
X78924534Y63550347D01*
X78985086Y63585307D01*
X79674910Y63585307D01*
X79735459Y63550349D01*
X79735458Y63550349D01*
X79774920Y63539775D01*
X79834580Y63503410D01*
X79865109Y63440563D01*
X79856814Y63371187D01*
X79812329Y63317309D01*
X79774920Y63300225D01*
X79735462Y63289653D01*
X79674911Y63254694D01*
X79930000Y62999606D01*
X80185088Y63254693D01*
X80185087Y63254694D01*
X80124539Y63289652D01*
X80124536Y63289653D01*
X80085080Y63300225D01*
X80025419Y63336590D01*
X79994890Y63399437D01*
X80003185Y63468812D01*
X80047670Y63522690D01*
X80085080Y63539775D01*
X80124534Y63550347D01*
X80185086Y63585307D01*
X80874910Y63585307D01*
X80935459Y63550349D01*
X80935458Y63550349D01*
X80974920Y63539775D01*
X81034580Y63503410D01*
X81065109Y63440563D01*
X81056814Y63371187D01*
X81012329Y63317309D01*
X80974920Y63300225D01*
X80935462Y63289653D01*
X80874911Y63254694D01*
X81130000Y62999606D01*
X81385088Y63254693D01*
X81385087Y63254694D01*
X81324539Y63289652D01*
X81324536Y63289653D01*
X81285080Y63300225D01*
X81225419Y63336590D01*
X81194890Y63399437D01*
X81203185Y63468812D01*
X81247670Y63522690D01*
X81285080Y63539775D01*
X81324534Y63550347D01*
X81385086Y63585307D01*
X82074910Y63585307D01*
X82135459Y63550349D01*
X82135458Y63550349D01*
X82174920Y63539775D01*
X82234580Y63503410D01*
X82265109Y63440563D01*
X82256814Y63371187D01*
X82212329Y63317309D01*
X82174920Y63300225D01*
X82135462Y63289653D01*
X82074911Y63254694D01*
X82330000Y62999606D01*
X82585088Y63254693D01*
X82585087Y63254694D01*
X82524539Y63289652D01*
X82524536Y63289653D01*
X82485080Y63300225D01*
X82425419Y63336590D01*
X82394890Y63399437D01*
X82403185Y63468812D01*
X82447670Y63522690D01*
X82485080Y63539775D01*
X82524534Y63550347D01*
X82585088Y63585308D01*
X82330001Y63840395D01*
X82074910Y63585307D01*
X81385086Y63585307D01*
X81385088Y63585308D01*
X81130001Y63840395D01*
X80874910Y63585307D01*
X80185086Y63585307D01*
X80185088Y63585308D01*
X79930001Y63840395D01*
X79674910Y63585307D01*
X78985086Y63585307D01*
X78985088Y63585308D01*
X78730001Y63840395D01*
X78474910Y63585307D01*
X66750500Y63585307D01*
X66750500Y64086351D01*
X78226000Y64086351D01*
X78226000Y63953650D01*
X78260347Y63825462D01*
X78260348Y63825461D01*
X78295306Y63764913D01*
X78295307Y63764912D01*
X78550394Y64019999D01*
X78550394Y64020000D01*
X78530503Y64039891D01*
X78630000Y64039891D01*
X78630000Y64000109D01*
X78645224Y63963355D01*
X78673355Y63935224D01*
X78710109Y63920000D01*
X78749891Y63920000D01*
X78786645Y63935224D01*
X78814776Y63963355D01*
X78830000Y64000109D01*
X78830000Y64020000D01*
X78909605Y64020000D01*
X78909605Y64019999D01*
X79164692Y63764912D01*
X79199653Y63825466D01*
X79210225Y63864920D01*
X79246590Y63924581D01*
X79309437Y63955110D01*
X79378812Y63946815D01*
X79432690Y63902330D01*
X79449775Y63864920D01*
X79460347Y63825464D01*
X79460348Y63825461D01*
X79495306Y63764913D01*
X79495307Y63764912D01*
X79750394Y64019999D01*
X79750394Y64020000D01*
X79730503Y64039891D01*
X79830000Y64039891D01*
X79830000Y64000109D01*
X79845224Y63963355D01*
X79873355Y63935224D01*
X79910109Y63920000D01*
X79949891Y63920000D01*
X79986645Y63935224D01*
X80014776Y63963355D01*
X80030000Y64000109D01*
X80030000Y64020000D01*
X80109605Y64020000D01*
X80109605Y64019999D01*
X80364692Y63764912D01*
X80399653Y63825466D01*
X80410225Y63864920D01*
X80446590Y63924581D01*
X80509437Y63955110D01*
X80578812Y63946815D01*
X80632690Y63902330D01*
X80649775Y63864920D01*
X80660347Y63825464D01*
X80660348Y63825461D01*
X80695306Y63764913D01*
X80695307Y63764912D01*
X80950394Y64019999D01*
X80950394Y64020000D01*
X80930503Y64039891D01*
X81030000Y64039891D01*
X81030000Y64000109D01*
X81045224Y63963355D01*
X81073355Y63935224D01*
X81110109Y63920000D01*
X81149891Y63920000D01*
X81186645Y63935224D01*
X81214776Y63963355D01*
X81230000Y64000109D01*
X81230000Y64020000D01*
X81309605Y64020000D01*
X81309605Y64019999D01*
X81564692Y63764912D01*
X81599653Y63825466D01*
X81610225Y63864920D01*
X81646590Y63924581D01*
X81709437Y63955110D01*
X81778812Y63946815D01*
X81832690Y63902330D01*
X81849775Y63864920D01*
X81860347Y63825464D01*
X81860348Y63825461D01*
X81895306Y63764913D01*
X81895307Y63764912D01*
X82150394Y64019999D01*
X82150394Y64020000D01*
X82130503Y64039891D01*
X82230000Y64039891D01*
X82230000Y64000109D01*
X82245224Y63963355D01*
X82273355Y63935224D01*
X82310109Y63920000D01*
X82349891Y63920000D01*
X82386645Y63935224D01*
X82414776Y63963355D01*
X82430000Y64000109D01*
X82430000Y64020000D01*
X82509605Y64020000D01*
X82509605Y64019999D01*
X82764692Y63764912D01*
X82799652Y63825465D01*
X82834000Y63953650D01*
X82834000Y64086351D01*
X82799651Y64214541D01*
X82764693Y64275090D01*
X82509605Y64020000D01*
X82430000Y64020000D01*
X82430000Y64039891D01*
X82414776Y64076645D01*
X82386645Y64104776D01*
X82349891Y64120000D01*
X82310109Y64120000D01*
X82273355Y64104776D01*
X82245224Y64076645D01*
X82230000Y64039891D01*
X82130503Y64039891D01*
X81895306Y64275089D01*
X81860347Y64214538D01*
X81849775Y64175080D01*
X81813410Y64115420D01*
X81750563Y64084891D01*
X81681187Y64093186D01*
X81627309Y64137671D01*
X81610225Y64175080D01*
X81599651Y64214541D01*
X81564693Y64275090D01*
X81309605Y64020000D01*
X81230000Y64020000D01*
X81230000Y64039891D01*
X81214776Y64076645D01*
X81186645Y64104776D01*
X81149891Y64120000D01*
X81110109Y64120000D01*
X81073355Y64104776D01*
X81045224Y64076645D01*
X81030000Y64039891D01*
X80930503Y64039891D01*
X80695306Y64275089D01*
X80660347Y64214538D01*
X80649775Y64175080D01*
X80613410Y64115420D01*
X80550563Y64084891D01*
X80481187Y64093186D01*
X80427309Y64137671D01*
X80410225Y64175080D01*
X80399651Y64214541D01*
X80364693Y64275090D01*
X80109605Y64020000D01*
X80030000Y64020000D01*
X80030000Y64039891D01*
X80014776Y64076645D01*
X79986645Y64104776D01*
X79949891Y64120000D01*
X79910109Y64120000D01*
X79873355Y64104776D01*
X79845224Y64076645D01*
X79830000Y64039891D01*
X79730503Y64039891D01*
X79495305Y64275089D01*
X79460347Y64214538D01*
X79449775Y64175080D01*
X79413410Y64115420D01*
X79350563Y64084891D01*
X79281187Y64093186D01*
X79227309Y64137671D01*
X79210225Y64175080D01*
X79199651Y64214541D01*
X79164693Y64275090D01*
X78909605Y64020000D01*
X78830000Y64020000D01*
X78830000Y64039891D01*
X78814776Y64076645D01*
X78786645Y64104776D01*
X78749891Y64120000D01*
X78710109Y64120000D01*
X78673355Y64104776D01*
X78645224Y64076645D01*
X78630000Y64039891D01*
X78530503Y64039891D01*
X78295306Y64275089D01*
X78260347Y64214538D01*
X78226000Y64086351D01*
X66750500Y64086351D01*
X66750500Y64454694D01*
X78474911Y64454694D01*
X78730000Y64199606D01*
X78985088Y64454693D01*
X78985087Y64454694D01*
X79674911Y64454694D01*
X79930000Y64199606D01*
X80185088Y64454693D01*
X80185087Y64454694D01*
X80874911Y64454694D01*
X81130000Y64199606D01*
X81385088Y64454693D01*
X81385087Y64454694D01*
X82074911Y64454694D01*
X82330000Y64199606D01*
X82585088Y64454693D01*
X82585087Y64454694D01*
X82524539Y64489652D01*
X82524538Y64489653D01*
X82396350Y64524000D01*
X82263650Y64524000D01*
X82135462Y64489653D01*
X82074911Y64454694D01*
X81385087Y64454694D01*
X81324539Y64489652D01*
X81324538Y64489653D01*
X81196350Y64524000D01*
X81063650Y64524000D01*
X80935462Y64489653D01*
X80874911Y64454694D01*
X80185087Y64454694D01*
X80124539Y64489652D01*
X80124538Y64489653D01*
X79996350Y64524000D01*
X79863650Y64524000D01*
X79735462Y64489653D01*
X79674911Y64454694D01*
X78985087Y64454694D01*
X78924539Y64489652D01*
X78924538Y64489653D01*
X78796350Y64524000D01*
X78663650Y64524000D01*
X78535462Y64489653D01*
X78474911Y64454694D01*
X66750500Y64454694D01*
X66750500Y66398847D01*
X74829500Y66398847D01*
X74829500Y66241154D01*
X74860261Y66086511D01*
X74860264Y66086499D01*
X74920602Y65940828D01*
X74920609Y65940815D01*
X75008210Y65809712D01*
X75008213Y65809708D01*
X75119707Y65698214D01*
X75119711Y65698211D01*
X75250814Y65610610D01*
X75250827Y65610603D01*
X75396498Y65550265D01*
X75396503Y65550263D01*
X75551153Y65519501D01*
X75551156Y65519500D01*
X75551158Y65519500D01*
X75708844Y65519500D01*
X75708845Y65519501D01*
X75863497Y65550263D01*
X76009179Y65610606D01*
X76140289Y65698211D01*
X76251789Y65809711D01*
X76277939Y65848847D01*
X82829500Y65848847D01*
X82829500Y65691154D01*
X82860261Y65536511D01*
X82860264Y65536499D01*
X82920602Y65390828D01*
X82920609Y65390815D01*
X83008210Y65259712D01*
X83008213Y65259708D01*
X83119707Y65148214D01*
X83119711Y65148211D01*
X83250814Y65060610D01*
X83250827Y65060603D01*
X83396498Y65000265D01*
X83396503Y65000263D01*
X83551153Y64969501D01*
X83551156Y64969500D01*
X83551158Y64969500D01*
X83708844Y64969500D01*
X83708845Y64969501D01*
X83863497Y65000263D01*
X84009179Y65060606D01*
X84140289Y65148211D01*
X84251789Y65259711D01*
X84339394Y65390821D01*
X84399737Y65536503D01*
X84430500Y65691158D01*
X84430500Y65848842D01*
X84430500Y65848845D01*
X84430499Y65848847D01*
X84415585Y65923825D01*
X84399737Y66003497D01*
X84365352Y66086511D01*
X84339397Y66149173D01*
X84339390Y66149186D01*
X84251789Y66280289D01*
X84251786Y66280293D01*
X84140292Y66391787D01*
X84140288Y66391790D01*
X84009185Y66479391D01*
X84009172Y66479398D01*
X83863501Y66539736D01*
X83863489Y66539739D01*
X83708845Y66570500D01*
X83708842Y66570500D01*
X83551158Y66570500D01*
X83551155Y66570500D01*
X83396510Y66539739D01*
X83396498Y66539736D01*
X83250827Y66479398D01*
X83250814Y66479391D01*
X83119711Y66391790D01*
X83119707Y66391787D01*
X83008213Y66280293D01*
X83008210Y66280289D01*
X82920609Y66149186D01*
X82920602Y66149173D01*
X82860264Y66003502D01*
X82860261Y66003490D01*
X82829500Y65848847D01*
X76277939Y65848847D01*
X76339394Y65940821D01*
X76399737Y66086503D01*
X76430500Y66241158D01*
X76430500Y66398842D01*
X76430500Y66398845D01*
X76430499Y66398847D01*
X76399737Y66553497D01*
X76392694Y66570500D01*
X76339397Y66699173D01*
X76339390Y66699186D01*
X76251789Y66830289D01*
X76251786Y66830293D01*
X76140292Y66941787D01*
X76140288Y66941790D01*
X76009185Y67029391D01*
X76009172Y67029398D01*
X75863501Y67089736D01*
X75863489Y67089739D01*
X75708845Y67120500D01*
X75708842Y67120500D01*
X75551158Y67120500D01*
X75551155Y67120500D01*
X75396510Y67089739D01*
X75396498Y67089736D01*
X75250827Y67029398D01*
X75250814Y67029391D01*
X75119711Y66941790D01*
X75119707Y66941787D01*
X75008213Y66830293D01*
X75008210Y66830289D01*
X74920609Y66699186D01*
X74920602Y66699173D01*
X74860264Y66553502D01*
X74860261Y66553490D01*
X74829500Y66398847D01*
X66750500Y66398847D01*
X66750500Y69497303D01*
X66750618Y69502712D01*
X66760433Y69727494D01*
X66767387Y69886770D01*
X66768327Y69897504D01*
X66818153Y70275965D01*
X66820031Y70286613D01*
X66902652Y70659296D01*
X66905439Y70669696D01*
X67020235Y71033783D01*
X67023919Y71043904D01*
X67170007Y71396590D01*
X67174565Y71406364D01*
X67350826Y71744957D01*
X67356221Y71754302D01*
X67561329Y72076260D01*
X67567519Y72085099D01*
X67799894Y72387935D01*
X67806841Y72396215D01*
X68064730Y72677653D01*
X68072357Y72685280D01*
X68353798Y72943175D01*
X68362062Y72950110D01*
X68664921Y73182504D01*
X68673760Y73188691D01*
X68995697Y73393789D01*
X69005038Y73399183D01*
X69343633Y73575447D01*
X69353424Y73580013D01*
X69706093Y73726095D01*
X69716229Y73729784D01*
X70080293Y73844576D01*
X70090731Y73847371D01*
X70463392Y73929991D01*
X70474028Y73931868D01*
X70852498Y73981696D01*
X70863232Y73982636D01*
X71225738Y73998466D01*
X71246731Y73999382D01*
X71252140Y73999500D01*
X71315896Y73999500D01*
X94184108Y73999500D01*
X94184112Y73999499D01*
G37*
%TD.AperFunction*%
%TD*%
M02*
