%TF.GenerationSoftware,KiCad,Pcbnew,9.0.3-9.0.3-0~ubuntu24.04.1*%
%TF.CreationDate,2025-07-10T17:18:30-04:00*%
%TF.ProjectId,tire_sensor,74697265-5f73-4656-9e73-6f722e6b6963,rev?*%
%TF.SameCoordinates,Original*%
%TF.FileFunction,Copper,L1,Top*%
%TF.FilePolarity,Positive*%
%FSLAX46Y46*%
G04 Gerber Fmt 4.6, Leading zero omitted, Abs format (unit mm)*
G04 Created by KiCad (PCBNEW 9.0.3-9.0.3-0~ubuntu24.04.1) date 2025-07-10 17:18:30*
%MOMM*%
%LPD*%
G01*
G04 APERTURE LIST*
G04 Aperture macros list*
%AMRoundRect*
0 Rectangle with rounded corners*
0 $1 Rounding radius*
0 $2 $3 $4 $5 $6 $7 $8 $9 X,Y pos of 4 corners*
0 Add a 4 corners polygon primitive as box body*
4,1,4,$2,$3,$4,$5,$6,$7,$8,$9,$2,$3,0*
0 Add four circle primitives for the rounded corners*
1,1,$1+$1,$2,$3*
1,1,$1+$1,$4,$5*
1,1,$1+$1,$6,$7*
1,1,$1+$1,$8,$9*
0 Add four rect primitives between the rounded corners*
20,1,$1+$1,$2,$3,$4,$5,0*
20,1,$1+$1,$4,$5,$6,$7,0*
20,1,$1+$1,$6,$7,$8,$9,0*
20,1,$1+$1,$8,$9,$2,$3,0*%
%AMFreePoly0*
4,1,23,0.550000,-0.750000,0.000000,-0.750000,0.000000,-0.745722,-0.065263,-0.745722,-0.191342,-0.711940,-0.304381,-0.646677,-0.396677,-0.554381,-0.461940,-0.441342,-0.495722,-0.315263,-0.495722,-0.250000,-0.500000,-0.250000,-0.500000,0.250000,-0.495722,0.250000,-0.495722,0.315263,-0.461940,0.441342,-0.396677,0.554381,-0.304381,0.646677,-0.191342,0.711940,-0.065263,0.745722,0.000000,0.745722,
0.000000,0.750000,0.550000,0.750000,0.550000,-0.750000,0.550000,-0.750000,$1*%
%AMFreePoly1*
4,1,23,0.000000,0.745722,0.065263,0.745722,0.191342,0.711940,0.304381,0.646677,0.396677,0.554381,0.461940,0.441342,0.495722,0.315263,0.495722,0.250000,0.500000,0.250000,0.500000,-0.250000,0.495722,-0.250000,0.495722,-0.315263,0.461940,-0.441342,0.396677,-0.554381,0.304381,-0.646677,0.191342,-0.711940,0.065263,-0.745722,0.000000,-0.745722,0.000000,-0.750000,-0.550000,-0.750000,
-0.550000,0.750000,0.000000,0.750000,0.000000,0.745722,0.000000,0.745722,$1*%
G04 Aperture macros list end*
%TA.AperFunction,EtchedComponent*%
%ADD10C,0.000000*%
%TD*%
%TA.AperFunction,SMDPad,CuDef*%
%ADD11RoundRect,0.140000X0.170000X-0.140000X0.170000X0.140000X-0.170000X0.140000X-0.170000X-0.140000X0*%
%TD*%
%TA.AperFunction,SMDPad,CuDef*%
%ADD12RoundRect,0.250000X0.350000X-0.450000X0.350000X0.450000X-0.350000X0.450000X-0.350000X-0.450000X0*%
%TD*%
%TA.AperFunction,SMDPad,CuDef*%
%ADD13R,0.450000X0.350000*%
%TD*%
%TA.AperFunction,SMDPad,CuDef*%
%ADD14R,0.350000X0.450000*%
%TD*%
%TA.AperFunction,SMDPad,CuDef*%
%ADD15R,0.350000X0.350000*%
%TD*%
%TA.AperFunction,HeatsinkPad*%
%ADD16C,0.500000*%
%TD*%
%TA.AperFunction,HeatsinkPad*%
%ADD17R,4.600000X4.600000*%
%TD*%
%TA.AperFunction,SMDPad,CuDef*%
%ADD18RoundRect,0.050000X-0.050000X-0.350000X0.050000X-0.350000X0.050000X0.350000X-0.050000X0.350000X0*%
%TD*%
%TA.AperFunction,SMDPad,CuDef*%
%ADD19RoundRect,0.050000X-0.350000X-0.050000X0.350000X-0.050000X0.350000X0.050000X-0.350000X0.050000X0*%
%TD*%
%TA.AperFunction,SMDPad,CuDef*%
%ADD20RoundRect,0.250000X-0.275000X0.850000X-0.275000X-0.850000X0.275000X-0.850000X0.275000X0.850000X0*%
%TD*%
%TA.AperFunction,SMDPad,CuDef*%
%ADD21RoundRect,0.250000X-0.250000X0.275000X-0.250000X-0.275000X0.250000X-0.275000X0.250000X0.275000X0*%
%TD*%
%TA.AperFunction,ConnectorPad*%
%ADD22C,0.787400*%
%TD*%
%TA.AperFunction,SMDPad,CuDef*%
%ADD23RoundRect,0.140000X0.140000X0.170000X-0.140000X0.170000X-0.140000X-0.170000X0.140000X-0.170000X0*%
%TD*%
%TA.AperFunction,ComponentPad*%
%ADD24R,0.500000X0.900000*%
%TD*%
%TA.AperFunction,ConnectorPad*%
%ADD25R,0.500000X0.500000*%
%TD*%
%TA.AperFunction,SMDPad,CuDef*%
%ADD26RoundRect,0.140000X-0.140000X-0.170000X0.140000X-0.170000X0.140000X0.170000X-0.140000X0.170000X0*%
%TD*%
%TA.AperFunction,SMDPad,CuDef*%
%ADD27RoundRect,0.250000X0.475000X-0.250000X0.475000X0.250000X-0.475000X0.250000X-0.475000X-0.250000X0*%
%TD*%
%TA.AperFunction,SMDPad,CuDef*%
%ADD28FreePoly0,90.000000*%
%TD*%
%TA.AperFunction,SMDPad,CuDef*%
%ADD29R,1.500000X1.000000*%
%TD*%
%TA.AperFunction,SMDPad,CuDef*%
%ADD30FreePoly1,90.000000*%
%TD*%
%TA.AperFunction,SMDPad,CuDef*%
%ADD31RoundRect,0.225000X0.225000X0.250000X-0.225000X0.250000X-0.225000X-0.250000X0.225000X-0.250000X0*%
%TD*%
%TA.AperFunction,SMDPad,CuDef*%
%ADD32RoundRect,0.140000X-0.170000X0.140000X-0.170000X-0.140000X0.170000X-0.140000X0.170000X0.140000X0*%
%TD*%
%TA.AperFunction,SMDPad,CuDef*%
%ADD33RoundRect,0.250000X0.650000X0.250000X-0.650000X0.250000X-0.650000X-0.250000X0.650000X-0.250000X0*%
%TD*%
%TA.AperFunction,ViaPad*%
%ADD34C,0.600000*%
%TD*%
%TA.AperFunction,ViaPad*%
%ADD35C,0.300000*%
%TD*%
%TA.AperFunction,Conductor*%
%ADD36C,0.150000*%
%TD*%
%TA.AperFunction,Conductor*%
%ADD37C,0.300000*%
%TD*%
%TA.AperFunction,Conductor*%
%ADD38C,0.152400*%
%TD*%
%TA.AperFunction,Conductor*%
%ADD39C,0.200000*%
%TD*%
%TA.AperFunction,Conductor*%
%ADD40C,0.400000*%
%TD*%
G04 APERTURE END LIST*
D10*
%TA.AperFunction,EtchedComponent*%
%TO.C,AE1*%
G36*
X95900000Y69650000D02*
G01*
X93260000Y69650000D01*
X93260000Y67650000D01*
X95900000Y67650000D01*
X95900000Y64950000D01*
X93260000Y64950000D01*
X93260000Y62950000D01*
X95900000Y62950000D01*
X95900000Y57950000D01*
X90743215Y57950000D01*
X90500000Y57950000D01*
X90500000Y58374844D01*
X90603957Y58374844D01*
X90616065Y58332181D01*
X90620419Y58324269D01*
X90653203Y58286326D01*
X90695605Y58262258D01*
X90743215Y58252417D01*
X90791622Y58257153D01*
X90836416Y58276815D01*
X90873186Y58311755D01*
X90890092Y58344647D01*
X90897982Y58392733D01*
X90891408Y58442318D01*
X90871313Y58487628D01*
X90838643Y58522888D01*
X90806417Y58539782D01*
X90758158Y58548222D01*
X90708632Y58541691D01*
X90663447Y58521132D01*
X90628213Y58487489D01*
X90617600Y58468878D01*
X90604700Y58423363D01*
X90603957Y58374844D01*
X90500000Y58374844D01*
X90500000Y58850000D01*
X95400000Y58850000D01*
X95400000Y60250000D01*
X90500000Y60250000D01*
X90500000Y60750000D01*
X95400000Y60750000D01*
X95400000Y62450000D01*
X92760000Y62450000D01*
X92760000Y65450000D01*
X95400000Y65450000D01*
X95400000Y67150000D01*
X92760000Y67150000D01*
X92760000Y70150000D01*
X95400000Y70150000D01*
X95400000Y71850000D01*
X91460000Y71850000D01*
X91460000Y72350000D01*
X95900000Y72350000D01*
X95900000Y69650000D01*
G37*
%TD.AperFunction*%
%TD*%
D11*
%TO.P,C14,1*%
%TO.N,Net-(U1-P0.26)*%
X81630000Y66520000D03*
%TO.P,C14,2*%
%TO.N,GND*%
X81630000Y67520000D03*
%TD*%
%TO.P,C8,1*%
%TO.N,VDD_NRF*%
X83630000Y66520000D03*
%TO.P,C8,2*%
%TO.N,GND*%
X83630000Y67520000D03*
%TD*%
%TO.P,C2,1*%
%TO.N,/XC2*%
X84600000Y66700000D03*
%TO.P,C2,2*%
%TO.N,GND*%
X84600000Y67700000D03*
%TD*%
%TO.P,C13,1*%
%TO.N,/P0.25*%
X82630000Y66520000D03*
%TO.P,C13,2*%
%TO.N,GND*%
X82630000Y67520000D03*
%TD*%
D12*
%TO.P,X1,1,OSC*%
%TO.N,/XC1*%
X87450000Y66300000D03*
%TO.P,X1,2,GND*%
%TO.N,GND*%
X87450000Y68500000D03*
%TO.P,X1,3,OSC*%
%TO.N,/XC2*%
X85750000Y68500000D03*
%TO.P,X1,4,GND*%
%TO.N,GND*%
X85750000Y66300000D03*
%TD*%
D13*
%TO.P,U3,16,ADC1*%
%TO.N,unconnected-(U3-ADC1-Pad16)*%
X87455000Y55945000D03*
%TO.P,U3,15,ADC2*%
%TO.N,unconnected-(U3-ADC2-Pad15)*%
X87455000Y55445000D03*
%TO.P,U3,14,VDD*%
%TO.N,VDD_NRF*%
X87455000Y54945000D03*
D14*
%TO.P,U3,13,ADC3*%
%TO.N,unconnected-(U3-ADC3-Pad13)*%
X87230000Y54220000D03*
%TO.P,U3,12,GND__1*%
%TO.N,GND*%
X86730000Y54220000D03*
%TO.P,U3,11,INT1*%
%TO.N,/INT_LIS3DHTR*%
X86230000Y54220000D03*
%TO.P,U3,10,RES*%
%TO.N,unconnected-(U3-RES-Pad10)*%
X85730000Y54220000D03*
%TO.P,U3,9,INT2*%
%TO.N,unconnected-(U3-INT2-Pad9)*%
X85230000Y54220000D03*
D13*
%TO.P,U3,8,CS*%
%TO.N,/CS_LIS3DHTR*%
X85005000Y54945000D03*
%TO.P,U3,7,SDO/SA0*%
%TO.N,/SDO*%
X85005000Y55445000D03*
%TO.P,U3,6,SDA/SDI/SDO*%
%TO.N,/SDI*%
X85005000Y55945000D03*
D14*
%TO.P,U3,5,GND*%
%TO.N,GND*%
X85230000Y56670000D03*
%TO.P,U3,4,SCL/SPC*%
%TO.N,/SCK*%
X85730000Y56670000D03*
%TO.P,U3,3*%
%TO.N,N/C*%
X86230000Y56670000D03*
%TO.P,U3,2*%
X86730000Y56670000D03*
%TO.P,U3,1,VDD_IO*%
%TO.N,VDD_NRF*%
X87230000Y56670000D03*
%TD*%
D15*
%TO.P,U2,8,VDD*%
%TO.N,VDD_NRF*%
X80780000Y54720000D03*
%TO.P,U2,7,GND_2*%
%TO.N,GND*%
X81430000Y54720000D03*
%TO.P,U2,6,VDDIO*%
%TO.N,VDD_NRF*%
X82080000Y54720000D03*
%TO.P,U2,5,SDO*%
%TO.N,/SDO*%
X82730000Y54720000D03*
%TO.P,U2,4,SCK*%
%TO.N,/SCK*%
X82730000Y56170000D03*
%TO.P,U2,3,SDI*%
%TO.N,/SDI*%
X82080000Y56170000D03*
%TO.P,U2,2,CSB_N*%
%TO.N,/CS_DPS368*%
X81430000Y56170000D03*
%TO.P,U2,1,GND_1*%
%TO.N,GND*%
X80780000Y56170000D03*
%TD*%
D16*
%TO.P,U1,49,GND*%
%TO.N,GND*%
X82330000Y60420000D03*
X82330000Y61620000D03*
X82330000Y62820000D03*
X82330000Y64020000D03*
X81130000Y60420000D03*
X81130000Y61620000D03*
X81130000Y62820000D03*
X81130000Y64020000D03*
D17*
X80530000Y62220000D03*
D16*
X79930000Y60420000D03*
X79930000Y61620000D03*
X79930000Y62820000D03*
X79930000Y64020000D03*
X78730000Y60420000D03*
X78730000Y61620000D03*
X78730000Y62820000D03*
X78730000Y64020000D03*
D18*
%TO.P,U1,48,VDD*%
%TO.N,VDD_NRF*%
X78330000Y65170000D03*
%TO.P,U1,47,DCC*%
%TO.N,unconnected-(U1-DCC-Pad47)*%
X78730000Y65170000D03*
%TO.P,U1,46,DEC4*%
%TO.N,/DEC4*%
X79130000Y65170000D03*
%TO.P,U1,45,VSS*%
%TO.N,GND*%
X79530000Y65170000D03*
%TO.P,U1,44,N.C.*%
%TO.N,unconnected-(U1-N.C.-Pad44)*%
X79930000Y65170000D03*
%TO.P,U1,43,P0.31/AIN7*%
%TO.N,unconnected-(U1-P0.31{slash}AIN7-Pad43)*%
X80330000Y65170000D03*
%TO.P,U1,42,P0.30/AIN6*%
%TO.N,unconnected-(U1-P0.30{slash}AIN6-Pad42)*%
X80730000Y65170000D03*
%TO.P,U1,41,P0.29/AIN5*%
%TO.N,unconnected-(U1-P0.29{slash}AIN5-Pad41)*%
X81130000Y65170000D03*
%TO.P,U1,40,P0.28/AIN4*%
%TO.N,unconnected-(U1-P0.28{slash}AIN4-Pad40)*%
X81530000Y65170000D03*
%TO.P,U1,39,P0.27*%
%TO.N,unconnected-(U1-P0.27-Pad39)*%
X81930000Y65170000D03*
%TO.P,U1,38,P0.26*%
%TO.N,Net-(U1-P0.26)*%
X82330000Y65170000D03*
%TO.P,U1,37,P0.25*%
%TO.N,/P0.25*%
X82730000Y65170000D03*
D19*
%TO.P,U1,36,VDD*%
%TO.N,VDD_NRF*%
X83480000Y64420000D03*
%TO.P,U1,35,XC2*%
%TO.N,/XC2*%
X83480000Y64020000D03*
%TO.P,U1,34,XC1*%
%TO.N,/XC1*%
X83480000Y63620000D03*
%TO.P,U1,33,DEC3*%
%TO.N,/DEC3*%
X83480000Y63220000D03*
%TO.P,U1,32,DEC2*%
%TO.N,/DEC2*%
X83480000Y62820000D03*
%TO.P,U1,31,VSS*%
%TO.N,GND*%
X83480000Y62420000D03*
%TO.P,U1,30,ANT*%
%TO.N,Net-(U1-ANT)*%
X83480000Y62020000D03*
%TO.P,U1,29,P0.24*%
%TO.N,unconnected-(U1-P0.24-Pad29)*%
X83480000Y61620000D03*
%TO.P,U1,28,P0.23*%
%TO.N,unconnected-(U1-P0.23-Pad28)*%
X83480000Y61220000D03*
%TO.P,U1,27,P0.22*%
%TO.N,unconnected-(U1-P0.22-Pad27)*%
X83480000Y60820000D03*
%TO.P,U1,26,SWDIO*%
%TO.N,/SWDIO*%
X83480000Y60420000D03*
%TO.P,U1,25,SWDCLK*%
%TO.N,/SWCLK*%
X83480000Y60020000D03*
D18*
%TO.P,U1,24,P0.21/RESET*%
%TO.N,/nRESET*%
X82730000Y59270000D03*
%TO.P,U1,23,P0.20*%
%TO.N,/SCK*%
X82330000Y59270000D03*
%TO.P,U1,22,P0.19*%
%TO.N,/SDI*%
X81930000Y59270000D03*
%TO.P,U1,21,P0.18*%
%TO.N,/SDO*%
X81530000Y59270000D03*
%TO.P,U1,20,P0.17*%
%TO.N,/CS_DPS368*%
X81130000Y59270000D03*
%TO.P,U1,19,P0.16*%
%TO.N,/CS_LIS3DHTR*%
X80730000Y59270000D03*
%TO.P,U1,18,P0.15*%
%TO.N,/INT_LIS3DHTR*%
X80330000Y59270000D03*
%TO.P,U1,17,P0.14*%
%TO.N,unconnected-(U1-P0.14-Pad17)*%
X79930000Y59270000D03*
%TO.P,U1,16,P0.13*%
%TO.N,unconnected-(U1-P0.13-Pad16)*%
X79530000Y59270000D03*
%TO.P,U1,15,P0.12*%
%TO.N,unconnected-(U1-P0.12-Pad15)*%
X79130000Y59270000D03*
%TO.P,U1,14,P0.11*%
%TO.N,unconnected-(U1-P0.11-Pad14)*%
X78730000Y59270000D03*
%TO.P,U1,13,VDD*%
%TO.N,VDD_NRF*%
X78330000Y59270000D03*
D19*
%TO.P,U1,12,P0.10*%
%TO.N,unconnected-(U1-P0.10-Pad12)*%
X77580000Y60020000D03*
%TO.P,U1,11,P0.09*%
%TO.N,unconnected-(U1-P0.09-Pad11)*%
X77580000Y60420000D03*
%TO.P,U1,10,P0.08*%
%TO.N,unconnected-(U1-P0.08-Pad10)*%
X77580000Y60820000D03*
%TO.P,U1,9,P0.07*%
%TO.N,unconnected-(U1-P0.07-Pad9)*%
X77580000Y61220000D03*
%TO.P,U1,8,P0.06*%
%TO.N,unconnected-(U1-P0.06-Pad8)*%
X77580000Y61620000D03*
%TO.P,U1,7,P0.05/AIN3*%
%TO.N,unconnected-(U1-P0.05{slash}AIN3-Pad7)*%
X77580000Y62020000D03*
%TO.P,U1,6,P0.04/AIN2*%
%TO.N,unconnected-(U1-P0.04{slash}AIN2-Pad6)*%
X77580000Y62420000D03*
%TO.P,U1,5,P0.03/AIN1*%
%TO.N,unconnected-(U1-P0.03{slash}AIN1-Pad5)*%
X77580000Y62820000D03*
%TO.P,U1,4,P0.02/AIN0*%
%TO.N,unconnected-(U1-P0.02{slash}AIN0-Pad4)*%
X77580000Y63220000D03*
%TO.P,U1,3,P0.01/XL2*%
%TO.N,/P0.01{slash}XL2*%
X77580000Y63620000D03*
%TO.P,U1,2,P0.00/XL1*%
%TO.N,/P0.00{slash}XL1*%
X77580000Y64020000D03*
%TO.P,U1,1,DEC1*%
%TO.N,/DEC1*%
X77580000Y64420000D03*
%TD*%
D20*
%TO.P,J2,3*%
%TO.N,N/C*%
X86300000Y72000000D03*
%TO.P,J2,2,Ext*%
%TO.N,GND*%
X89300000Y72000000D03*
D21*
%TO.P,J2,1,In*%
%TO.N,/RF*%
X87800000Y70500000D03*
%TD*%
D22*
%TO.P,J1,6,SWO*%
%TO.N,unconnected-(J1-SWO-Pad6)*%
X91750000Y50730000D03*
%TO.P,J1,5,GND*%
%TO.N,GND*%
X91750000Y52000000D03*
%TO.P,J1,4,SWCLK*%
%TO.N,/SWCLK*%
X93020000Y50730000D03*
%TO.P,J1,3,~{RESET}*%
%TO.N,/nRESET*%
X93020000Y52000000D03*
%TO.P,J1,2,SWDIO*%
%TO.N,/SWDIO*%
X94290000Y50730000D03*
%TO.P,J1,1,VCC*%
%TO.N,VDD_NRF*%
X94290000Y52000000D03*
%TD*%
D23*
%TO.P,C6,2,2*%
%TO.N,/DEC2*%
X85220000Y63120000D03*
%TO.P,C6,1,1*%
%TO.N,GND*%
X86180000Y63120000D03*
%TD*%
D24*
%TO.P,AE1,2,Shield*%
%TO.N,GND*%
X90750000Y58400000D03*
D25*
%TO.P,AE1,1,A*%
%TO.N,/RF*%
X90750000Y60500000D03*
%TD*%
D26*
%TO.P,C7,1*%
%TO.N,/DEC3*%
X85200000Y64120000D03*
%TO.P,C7,2*%
%TO.N,GND*%
X86200000Y64120000D03*
%TD*%
D11*
%TO.P,C18,1*%
%TO.N,VDD_NRF*%
X79230000Y54670000D03*
%TO.P,C18,2*%
%TO.N,GND*%
X79230000Y55670000D03*
%TD*%
D23*
%TO.P,C5,1*%
%TO.N,VDD_NRF*%
X78230000Y58170000D03*
%TO.P,C5,2*%
%TO.N,GND*%
X77230000Y58170000D03*
%TD*%
D11*
%TO.P,C19,1*%
%TO.N,VDD_NRF*%
X78230000Y54670000D03*
%TO.P,C19,2*%
%TO.N,GND*%
X78230000Y55670000D03*
%TD*%
D26*
%TO.P,C1,1*%
%TO.N,/XC1*%
X86030000Y65000000D03*
%TO.P,C1,2*%
%TO.N,GND*%
X87030000Y65000000D03*
%TD*%
D27*
%TO.P,C15,1*%
%TO.N,VDD_NRF*%
X70500000Y60750000D03*
%TO.P,C15,2*%
%TO.N,GND*%
X70500000Y62650000D03*
%TD*%
D26*
%TO.P,L1,1*%
%TO.N,Net-(U1-ANT)*%
X85630000Y62120000D03*
%TO.P,L1,2*%
%TO.N,/RF*%
X86630000Y62120000D03*
%TD*%
%TO.P,C12,1*%
%TO.N,GND*%
X73230000Y59670000D03*
%TO.P,C12,2*%
%TO.N,/P0.01{slash}XL2*%
X74230000Y59670000D03*
%TD*%
D28*
%TO.P,JP1,1,A*%
%TO.N,/RF*%
X88422500Y60920000D03*
D29*
%TO.P,JP1,2,C*%
X88422500Y62220000D03*
D30*
%TO.P,JP1,3,B*%
X88422500Y63520000D03*
%TD*%
D11*
%TO.P,C11,1*%
%TO.N,GND*%
X75380000Y62320000D03*
%TO.P,C11,2*%
%TO.N,/P0.00{slash}XL1*%
X75380000Y63320000D03*
%TD*%
D31*
%TO.P,C10,1*%
%TO.N,/DEC4*%
X79010000Y66670000D03*
%TO.P,C10,2*%
%TO.N,GND*%
X77450000Y66670000D03*
%TD*%
D32*
%TO.P,C3,1*%
%TO.N,Net-(U1-ANT)*%
X84730000Y62170000D03*
%TO.P,C3,2*%
%TO.N,GND*%
X84730000Y61170000D03*
%TD*%
D33*
%TO.P,X2,1,1*%
%TO.N,/P0.01{slash}XL2*%
X73730000Y60670000D03*
%TO.P,X2,2,2*%
%TO.N,/P0.00{slash}XL1*%
X73730000Y63170000D03*
%TD*%
D11*
%TO.P,C17,1*%
%TO.N,VDD_NRF*%
X89730000Y55820000D03*
%TO.P,C17,2*%
%TO.N,GND*%
X89730000Y56820000D03*
%TD*%
D31*
%TO.P,C9,1*%
%TO.N,VDD_NRF*%
X76160000Y65170000D03*
%TO.P,C9,2*%
%TO.N,GND*%
X74600000Y65170000D03*
%TD*%
D23*
%TO.P,C4,1*%
%TO.N,/DEC1*%
X76130000Y64170000D03*
%TO.P,C4,2*%
%TO.N,GND*%
X75130000Y64170000D03*
%TD*%
D11*
%TO.P,C16,1*%
%TO.N,VDD_NRF*%
X88730000Y55820000D03*
%TO.P,C16,2*%
%TO.N,GND*%
X88730000Y56820000D03*
%TD*%
D34*
%TO.N,GND*%
X97400000Y56100000D03*
D35*
X88000000Y69600000D03*
X87200000Y69600000D03*
D34*
%TO.N,VDD_NRF*%
X77230000Y54670000D03*
X75630000Y66320000D03*
X68050000Y61750000D03*
X88630000Y54820000D03*
X83630000Y65770000D03*
D35*
%TO.N,GND*%
X97600000Y56800000D03*
X96800000Y56800000D03*
X89570000Y66230000D03*
X90800000Y70200000D03*
X89800000Y61400000D03*
X85200000Y61400000D03*
D34*
X73400000Y72400000D03*
D35*
X93600000Y56800000D03*
X90800000Y67400000D03*
X90800000Y59600000D03*
D34*
X86600000Y50200000D03*
D35*
X90800000Y66200000D03*
D34*
X97400000Y55400000D03*
D35*
X89570000Y69030000D03*
X88400000Y66200000D03*
D34*
X71000000Y50600000D03*
D35*
X90800000Y65400000D03*
X85600000Y61400000D03*
X92400000Y56800000D03*
X90400000Y59800000D03*
X90800000Y64600000D03*
X96000000Y56800000D03*
X89570000Y67430000D03*
X89570000Y65430000D03*
X90800000Y69000000D03*
X98400000Y56800000D03*
X98000000Y56800000D03*
X90000000Y70000000D03*
X90800000Y63400000D03*
D34*
X86780000Y64120000D03*
X79200000Y52000000D03*
X89750000Y57750000D03*
D35*
X88400000Y69000000D03*
X90800000Y61400000D03*
X89800000Y63800000D03*
X89600000Y60000000D03*
X90800000Y66600000D03*
X89800000Y62600000D03*
X90300000Y61400000D03*
X94800000Y56800000D03*
D34*
X95200000Y54200000D03*
X74000000Y54200000D03*
D35*
X88400000Y65000000D03*
X90800000Y57600000D03*
D34*
X68800000Y71000000D03*
X83600000Y68400000D03*
X82400000Y49600000D03*
X90100000Y65700000D03*
D35*
X88400000Y68200000D03*
X86800000Y69600000D03*
D34*
X76200000Y72200000D03*
X74130000Y64228552D03*
D35*
X88400000Y68600000D03*
D34*
X86730000Y60170000D03*
X77630000Y67820000D03*
X82700000Y68400000D03*
X88750000Y57750000D03*
D35*
X90800000Y56800000D03*
D34*
X84600000Y68600000D03*
D35*
X88800000Y60000000D03*
X86000000Y69600000D03*
D34*
X85000000Y52000000D03*
D35*
X90800000Y70600000D03*
X94400000Y56800000D03*
D34*
X90100000Y68700000D03*
D35*
X90800000Y65800000D03*
X86000000Y61400000D03*
D34*
X70400000Y53800000D03*
D35*
X90800000Y59200000D03*
X89570000Y67030000D03*
X90800000Y63800000D03*
X93200000Y56800000D03*
X89400000Y69800000D03*
X85200000Y70000000D03*
X90800000Y71000000D03*
X88400000Y67000000D03*
X90800000Y68200000D03*
X90800000Y62600000D03*
X90800000Y73000000D03*
X97200000Y56800000D03*
X89570000Y65030000D03*
X90800000Y69800000D03*
X87200000Y61400000D03*
X92000000Y56800000D03*
X90800000Y65000000D03*
X89800000Y63400000D03*
X89800000Y62200000D03*
X90800000Y68600000D03*
X92800000Y56800000D03*
D34*
X71000000Y73000000D03*
D35*
X87200000Y60600000D03*
D34*
X77200000Y49600000D03*
X84000000Y71200000D03*
D35*
X90800000Y73400000D03*
D34*
X77230000Y57170000D03*
D35*
X88400000Y65400000D03*
D34*
X78130000Y56320000D03*
X67600000Y53400000D03*
D35*
X88400000Y60000000D03*
D34*
X71600000Y57200000D03*
D35*
X95600000Y56800000D03*
X90800000Y72200000D03*
D34*
X81700000Y68400000D03*
D35*
X89600000Y64200000D03*
X90800000Y71400000D03*
D34*
X79130000Y56320000D03*
X73380000Y59020000D03*
X71600000Y68400000D03*
X85400000Y60600000D03*
D35*
X90800000Y69400000D03*
X88000000Y60000000D03*
D34*
X89600000Y73200000D03*
D35*
X90800000Y71800000D03*
X94000000Y56800000D03*
X90800000Y63000000D03*
X91600000Y56800000D03*
X85600000Y69600000D03*
X96400000Y56800000D03*
X90800000Y62200000D03*
X87200000Y61000000D03*
D34*
X75400000Y70600000D03*
D35*
X95200000Y56800000D03*
D34*
X68800000Y55800000D03*
X81000000Y73200000D03*
D35*
X90800000Y72600000D03*
D34*
X80000000Y71400000D03*
D35*
X90000000Y60000000D03*
X87591994Y69578652D03*
D34*
X84700000Y65200000D03*
D35*
X90800000Y67000000D03*
D34*
X84380000Y57570000D03*
D35*
X86800000Y61400000D03*
X89570000Y68230000D03*
X89800000Y63000000D03*
X91200000Y56800000D03*
X89570000Y66630000D03*
X88400000Y67400000D03*
X88400000Y65800000D03*
X89570000Y69430000D03*
X89200000Y60000000D03*
X88400000Y64600000D03*
X89800000Y61800000D03*
X90800000Y73800000D03*
X89570000Y68630000D03*
X90800000Y64200000D03*
D34*
X97200000Y52200000D03*
D35*
X88400000Y67800000D03*
D34*
X72400000Y70600000D03*
D35*
X86400000Y69600000D03*
X90800000Y57200000D03*
D34*
X91750000Y53250000D03*
X74230000Y62170000D03*
D35*
X89570000Y65830000D03*
X86400000Y61400000D03*
X90800000Y61800000D03*
X90800000Y67800000D03*
D34*
X74400000Y50400000D03*
D35*
X89570000Y64630000D03*
X89570000Y67830000D03*
X87600000Y60200000D03*
X88400000Y66600000D03*
D34*
X86780000Y63120000D03*
X68200000Y67600000D03*
%TO.N,/SWCLK*%
X85694058Y59255942D03*
X92507080Y53257080D03*
%TO.N,/nRESET*%
X86226087Y58723913D03*
X89250000Y51500000D03*
%TO.N,/SWDIO*%
X93500000Y50000000D03*
X85192703Y59813748D03*
%TO.N,/SDO*%
X81671956Y55342419D03*
X81671956Y57570000D03*
X83880000Y54720000D03*
%TO.N,/CS_DPS368*%
X80880000Y57320000D03*
%TO.N,/SDI*%
X83880000Y55765400D03*
%TO.N,/SCK*%
X83880000Y58170000D03*
%TO.N,/INT_LIS3DHTR*%
X86482403Y55170000D03*
X79730000Y58170000D03*
%TO.N,/CS_LIS3DHTR*%
X80601400Y58170000D03*
X85730000Y55170000D03*
%TD*%
D36*
%TO.N,GND*%
X88400000Y69000000D02*
X88400000Y64600000D01*
%TO.N,/XC1*%
X86030000Y65000000D02*
X86150000Y65000000D01*
X86150000Y65000000D02*
X87450000Y66300000D01*
%TO.N,GND*%
X88400000Y68200000D02*
X87750000Y68200000D01*
X87750000Y68200000D02*
X87450000Y68500000D01*
X88400000Y68600000D02*
X87550000Y68600000D01*
X87550000Y68600000D02*
X87450000Y68500000D01*
X88400000Y69000000D02*
X87950000Y69000000D01*
X87950000Y69000000D02*
X87450000Y68500000D01*
X88000000Y69600000D02*
X88000000Y69050000D01*
X88000000Y69050000D02*
X87450000Y68500000D01*
X87591994Y69578652D02*
X87591994Y68641994D01*
X87591994Y68641994D02*
X87450000Y68500000D01*
X87200000Y69600000D02*
X87200000Y68750000D01*
X87200000Y68750000D02*
X87450000Y68500000D01*
X84600000Y67700000D02*
X84600000Y68600000D01*
%TO.N,/XC1*%
X83480000Y63620000D02*
X83907375Y63620000D01*
X83907375Y63620000D02*
X84694000Y64406625D01*
X84694000Y64406625D02*
X84694000Y64450123D01*
X84694000Y64450123D02*
X85243877Y65000000D01*
X85243877Y65000000D02*
X86030000Y65000000D01*
D37*
%TO.N,/RF*%
X87800000Y70500000D02*
X87937811Y70500000D01*
X87937811Y70500000D02*
X88883691Y69554120D01*
X88883691Y69554120D02*
X88883691Y63981191D01*
X88883691Y63981191D02*
X88422500Y63520000D01*
D36*
%TO.N,/XC2*%
X84630000Y66670000D02*
X85750000Y67790000D01*
X85750000Y67790000D02*
X85750000Y68500000D01*
D38*
%TO.N,GND*%
X85780000Y66170000D02*
X85780000Y66265600D01*
X84700000Y65200000D02*
X85670000Y66170000D01*
X86930000Y67415600D02*
X86930000Y68470000D01*
X85670000Y66170000D02*
X85780000Y66170000D01*
X85780000Y66265600D02*
X86930000Y67415600D01*
D39*
%TO.N,VDD_NRF*%
X83630000Y64570000D02*
X83531000Y64471000D01*
D38*
X78330000Y58270000D02*
X78230000Y58170000D01*
X82080000Y54465600D02*
X81882200Y54267800D01*
X78230000Y57165574D02*
X77230000Y56165574D01*
X79230000Y54670000D02*
X78230000Y54670000D01*
X82080000Y54720000D02*
X82080000Y54465600D01*
D39*
X83531000Y64471000D02*
X83480000Y64471000D01*
D40*
X68050000Y63500000D02*
X68050000Y61750000D01*
D38*
X94290000Y52000000D02*
X94290000Y52556775D01*
X81882200Y54267800D02*
X79632200Y54267800D01*
D40*
X88630000Y54820000D02*
X88630000Y55720000D01*
X70870000Y66320000D02*
X68050000Y63500000D01*
D38*
X88730000Y55820000D02*
X89730000Y55820000D01*
D40*
X75630000Y65700000D02*
X76160000Y65170000D01*
D38*
X87455000Y54945000D02*
X87855000Y54945000D01*
D40*
X75630000Y66320000D02*
X70870000Y66320000D01*
X69050000Y60750000D02*
X68050000Y61750000D01*
X75630000Y66320000D02*
X75630000Y65700000D01*
X83630000Y65770000D02*
X83630000Y66520000D01*
X88630000Y55720000D02*
X88730000Y55820000D01*
D38*
X87855000Y54945000D02*
X88730000Y55820000D01*
X78230000Y58170000D02*
X78230000Y57165574D01*
X87230000Y56670000D02*
X87880000Y56670000D01*
X80230000Y54670000D02*
X79230000Y54670000D01*
X80280000Y54720000D02*
X80230000Y54670000D01*
D40*
X77230000Y54670000D02*
X78230000Y54670000D01*
X70500000Y60750000D02*
X69050000Y60750000D01*
D38*
X79632200Y54267800D02*
X79230000Y54670000D01*
X92026775Y54820000D02*
X88630000Y54820000D01*
X78330000Y59270000D02*
X78330000Y58270000D01*
X80780000Y54720000D02*
X80280000Y54720000D01*
X94290000Y52556775D02*
X92026775Y54820000D01*
X77230000Y56165574D02*
X77230000Y54670000D01*
X78330000Y65170000D02*
X76230000Y65170000D01*
D39*
X83630000Y65770000D02*
X83630000Y64570000D01*
D38*
X87880000Y56670000D02*
X88730000Y55820000D01*
D37*
%TO.N,/RF*%
X88427200Y63520000D02*
X88422500Y63520000D01*
X88800000Y63892800D02*
X88427200Y63520000D01*
D38*
X88742500Y60600000D02*
X88422500Y60920000D01*
D37*
X90750000Y60600000D02*
X88742500Y60600000D01*
D38*
X88480000Y61170000D02*
X88530000Y61120000D01*
%TO.N,GND*%
X84380000Y57520000D02*
X85230000Y56670000D01*
X74130000Y64228552D02*
X74497600Y64228552D01*
X91750000Y53250000D02*
X91750000Y52000000D01*
X79530000Y63220000D02*
X80530000Y62220000D01*
X80780000Y55485407D02*
X80780000Y56170000D01*
X84380000Y57570000D02*
X84380000Y57520000D01*
X73230000Y59170000D02*
X73380000Y59020000D01*
X74380000Y62320000D02*
X74230000Y62170000D01*
X74497600Y64228552D02*
X74556152Y64170000D01*
X73230000Y59670000D02*
X73230000Y59170000D01*
X74556152Y64170000D02*
X75380000Y64170000D01*
X83480000Y62420000D02*
X80730000Y62420000D01*
X80730000Y62420000D02*
X80530000Y62220000D01*
X75380000Y62320000D02*
X74380000Y62320000D01*
X84730000Y61170000D02*
X84830000Y61170000D01*
X79530000Y65170000D02*
X79530000Y63220000D01*
X86730000Y54220000D02*
X86730000Y53420000D01*
X86580000Y60320000D02*
X86730000Y60170000D01*
X81430000Y54720000D02*
X81430000Y54835407D01*
X87280000Y64970000D02*
X87280000Y64770000D01*
X84830000Y61170000D02*
X85400000Y60600000D01*
X81430000Y54835407D02*
X80780000Y55485407D01*
%TO.N,/XC2*%
X83480000Y64020000D02*
X83880000Y64020000D01*
X84130000Y65500000D02*
X84630000Y66000000D01*
X84630000Y66000000D02*
X84630000Y66670000D01*
X84130000Y64270000D02*
X84130000Y65500000D01*
X83880000Y64020000D02*
X84130000Y64270000D01*
D39*
%TO.N,Net-(U1-ANT)*%
X83480000Y62020000D02*
X84580000Y62020000D01*
D37*
X84580000Y62020000D02*
X85380000Y62020000D01*
D38*
X84580000Y62020000D02*
X84730000Y62170000D01*
X85380000Y62020000D02*
X85630000Y62270000D01*
%TO.N,/DEC1*%
X76480000Y64420000D02*
X76230000Y64170000D01*
X77580000Y64420000D02*
X76480000Y64420000D01*
%TO.N,/DEC2*%
X83480000Y62820000D02*
X83974199Y62820000D01*
X84324200Y63170000D02*
X85230000Y63170000D01*
X83974199Y62820000D02*
X84324200Y63170000D01*
%TO.N,/DEC3*%
X83941733Y63220000D02*
X84891732Y64170000D01*
X84891732Y64170000D02*
X85230000Y64170000D01*
X83480000Y63220000D02*
X83941733Y63220000D01*
%TO.N,/DEC4*%
X79010000Y66670000D02*
X79130000Y66550000D01*
X79130000Y66550000D02*
X79130000Y65170000D01*
%TO.N,/P0.00{slash}XL1*%
X77580000Y64020000D02*
X76916574Y64020000D01*
X76066574Y63170000D02*
X75230000Y63170000D01*
X76916574Y64020000D02*
X76066574Y63170000D01*
X75230000Y63170000D02*
X73730000Y63170000D01*
%TO.N,/P0.01{slash}XL2*%
X74566574Y60670000D02*
X73730000Y60670000D01*
X77180000Y63620000D02*
X76230000Y62670000D01*
X74230000Y60170000D02*
X73730000Y60670000D01*
X74230000Y59670000D02*
X74230000Y60170000D01*
X76230000Y62670000D02*
X76230000Y62333426D01*
X76230000Y62333426D02*
X74566574Y60670000D01*
X77580000Y63620000D02*
X77180000Y63620000D01*
%TO.N,/P0.25*%
X82730000Y66420000D02*
X82630000Y66520000D01*
X82730000Y65170000D02*
X82730000Y66420000D01*
%TO.N,Net-(U1-P0.26)*%
X82330000Y65170000D02*
X82330000Y65820000D01*
X82330000Y65820000D02*
X81630000Y66520000D01*
%TO.N,/SWCLK*%
X85694058Y59255942D02*
X84144058Y59255942D01*
X92507080Y53257080D02*
X92641006Y53257080D01*
X83480000Y59920000D02*
X83480000Y60020000D01*
X93640900Y51350900D02*
X93020000Y50730000D01*
X84144058Y59255942D02*
X83480000Y59920000D01*
X92641006Y53257080D02*
X93640900Y52257186D01*
X93640900Y52257186D02*
X93640900Y51350900D01*
%TO.N,/nRESET*%
X83276087Y58723913D02*
X82730000Y59270000D01*
X89250000Y51500000D02*
X89370900Y51379100D01*
X86226087Y58723913D02*
X83276087Y58723913D01*
X89370900Y51379100D02*
X92399100Y51379100D01*
X92399100Y51379100D02*
X93020000Y52000000D01*
%TO.N,/SWDIO*%
X93500000Y50000000D02*
X93560000Y50000000D01*
X83480000Y60420000D02*
X84586451Y60420000D01*
X93560000Y50000000D02*
X94290000Y50730000D01*
X84586451Y60420000D02*
X85192703Y59813748D01*
%TO.N,/RF*%
X88322500Y62120000D02*
X88361714Y62159214D01*
D37*
X86630000Y62120000D02*
X88322500Y62120000D01*
D38*
%TO.N,/SDO*%
X81671956Y57980491D02*
X81530000Y58122447D01*
X83880000Y54720000D02*
X84280000Y54720000D01*
X81671956Y57570000D02*
X81671956Y57980491D01*
X82266781Y55342419D02*
X82730000Y54879200D01*
X84380000Y54820000D02*
X84380000Y55070000D01*
X82730000Y54879200D02*
X82730000Y54720000D01*
X84280000Y54720000D02*
X84380000Y54820000D01*
X81671956Y55342419D02*
X82266781Y55342419D01*
X82730000Y54720000D02*
X83880000Y54720000D01*
X84755000Y55445000D02*
X85005000Y55445000D01*
X84380000Y55070000D02*
X84755000Y55445000D01*
X81530000Y58122447D02*
X81530000Y59270000D01*
%TO.N,/CS_DPS368*%
X80880000Y57320000D02*
X80880000Y57070000D01*
X80880000Y57570000D02*
X80880000Y57320000D01*
X80880000Y57070000D02*
X81430000Y56520000D01*
X81130000Y57820000D02*
X80880000Y57570000D01*
X81430000Y56520000D02*
X81430000Y56170000D01*
X81130000Y59270000D02*
X81130000Y57820000D01*
%TO.N,/SDI*%
X81930000Y59270000D02*
X81930000Y58470000D01*
X83880000Y55765400D02*
X84495800Y55765400D01*
X82080000Y55820000D02*
X82134600Y55765400D01*
X82080000Y56520000D02*
X82080000Y56170000D01*
X84675400Y55945000D02*
X85005000Y55945000D01*
X84495800Y55765400D02*
X84675400Y55945000D01*
X82230000Y58170000D02*
X82230000Y56670000D01*
X82080000Y56170000D02*
X82080000Y55820000D01*
X82230000Y56670000D02*
X82080000Y56520000D01*
X82134600Y55765400D02*
X83880000Y55765400D01*
X81930000Y58470000D02*
X82230000Y58170000D01*
%TO.N,/SCK*%
X84607400Y58170000D02*
X85730000Y57047400D01*
X83880000Y58170000D02*
X84607400Y58170000D01*
X82730000Y58170000D02*
X82730000Y57170000D01*
X82330000Y59270000D02*
X82330000Y58570000D01*
X82730000Y58170000D02*
X83880000Y58170000D01*
X85730000Y57047400D02*
X85730000Y56670000D01*
X82330000Y58570000D02*
X82730000Y58170000D01*
X82730000Y57170000D02*
X82730000Y56170000D01*
%TO.N,/INT_LIS3DHTR*%
X86230000Y54917597D02*
X86230000Y54220000D01*
X86482403Y55170000D02*
X86230000Y54917597D01*
X80330000Y58770000D02*
X79730000Y58170000D01*
X80330000Y59270000D02*
X80330000Y58770000D01*
%TO.N,/CS_LIS3DHTR*%
X85730000Y55170000D02*
X85505000Y54945000D01*
X80730000Y59270000D02*
X80730000Y58298600D01*
X85505000Y54945000D02*
X85005000Y54945000D01*
X80730000Y58298600D02*
X80601400Y58170000D01*
%TD*%
%TA.AperFunction,Conductor*%
%TO.N,GND*%
G36*
X92399115Y50049216D02*
G01*
X92416042Y50049767D01*
X92448607Y50036158D01*
X92451284Y50034558D01*
X92596437Y49937570D01*
X92652335Y49914417D01*
X92660116Y49909767D01*
X92707566Y49858481D01*
X92718126Y49827516D01*
X92730261Y49766509D01*
X92730264Y49766499D01*
X92790602Y49620828D01*
X92790609Y49620815D01*
X92878210Y49489712D01*
X92878213Y49489708D01*
X92989707Y49378214D01*
X92989711Y49378211D01*
X93120814Y49290610D01*
X93120827Y49290603D01*
X93245262Y49239061D01*
X93299666Y49195221D01*
X93321731Y49128926D01*
X93304452Y49061227D01*
X93253315Y49013616D01*
X93197810Y49000500D01*
X91000000Y49000500D01*
X91000000Y49814279D01*
X91059298Y49873577D01*
X91059301Y49873580D01*
X91102423Y49938118D01*
X91156034Y49982922D01*
X91225358Y49991631D01*
X91274416Y49972329D01*
X91326430Y49937574D01*
X91326436Y49937571D01*
X91326437Y49937570D01*
X91489171Y49870163D01*
X91661924Y49835801D01*
X91661928Y49835800D01*
X91661929Y49835800D01*
X91838072Y49835800D01*
X91838073Y49835801D01*
X92010829Y49870163D01*
X92173563Y49937570D01*
X92316110Y50032818D01*
X92332269Y50037878D01*
X92346209Y50047491D01*
X92364920Y50048101D01*
X92382786Y50053695D01*
X92399115Y50049216D01*
G37*
%TD.AperFunction*%
%TA.AperFunction,Conductor*%
G36*
X98692539Y56980315D02*
G01*
X98738294Y56927511D01*
X98749500Y56876000D01*
X98749500Y53502705D01*
X98749382Y53497296D01*
X98732615Y53113248D01*
X98731672Y53102472D01*
X98681851Y52724042D01*
X98679973Y52713389D01*
X98597357Y52340728D01*
X98594557Y52330279D01*
X98479778Y51966246D01*
X98476078Y51956080D01*
X98330006Y51603430D01*
X98325434Y51593626D01*
X98149187Y51255060D01*
X98143779Y51245692D01*
X97938689Y50923765D01*
X97932484Y50914903D01*
X97700110Y50612068D01*
X97693159Y50603786D01*
X97652835Y50559779D01*
X97435294Y50322376D01*
X97427645Y50314727D01*
X97146213Y50056845D01*
X97137926Y50049892D01*
X96835109Y49817533D01*
X96826248Y49811328D01*
X96504318Y49606238D01*
X96494950Y49600830D01*
X96156371Y49424578D01*
X96146566Y49420006D01*
X95793926Y49273941D01*
X95783761Y49270241D01*
X95419725Y49155462D01*
X95409275Y49152662D01*
X95036612Y49070048D01*
X95025959Y49068170D01*
X94647531Y49018352D01*
X94636755Y49017409D01*
X94252130Y49000619D01*
X94246724Y49000501D01*
X94214422Y49000501D01*
X94184112Y49000501D01*
X94184108Y49000501D01*
X94176504Y49000500D01*
X94176503Y49000501D01*
X94176502Y49000500D01*
X93802190Y49000500D01*
X93735151Y49020185D01*
X93689396Y49072989D01*
X93679452Y49142147D01*
X93708477Y49205703D01*
X93754738Y49239061D01*
X93879172Y49290603D01*
X93879172Y49290604D01*
X93879179Y49290606D01*
X94010289Y49378211D01*
X94121789Y49489711D01*
X94209394Y49620821D01*
X94266735Y49759256D01*
X94310573Y49813656D01*
X94372114Y49834140D01*
X94372010Y49835203D01*
X94376697Y49835665D01*
X94376867Y49835721D01*
X94377358Y49835730D01*
X94378065Y49835800D01*
X94378071Y49835800D01*
X94550829Y49870163D01*
X94713563Y49937570D01*
X94860019Y50035429D01*
X94984571Y50159981D01*
X95082430Y50306437D01*
X95149837Y50469171D01*
X95167860Y50559782D01*
X95200244Y50621691D01*
X95260960Y50656265D01*
X95330729Y50652526D01*
X95336922Y50650153D01*
X95342458Y50647860D01*
X95474022Y50621691D01*
X95486540Y50619201D01*
X95486544Y50619200D01*
X95486545Y50619200D01*
X95633456Y50619200D01*
X95633457Y50619201D01*
X95777542Y50647860D01*
X95913269Y50704080D01*
X96035420Y50785699D01*
X96139301Y50889580D01*
X96220920Y51011731D01*
X96277140Y51147458D01*
X96305800Y51291545D01*
X96305800Y51438455D01*
X96277140Y51582542D01*
X96220920Y51718269D01*
X96220919Y51718270D01*
X96220916Y51718276D01*
X96139301Y51840420D01*
X96139298Y51840424D01*
X96035423Y51944299D01*
X96035419Y51944302D01*
X95913275Y52025917D01*
X95913266Y52025922D01*
X95801095Y52072384D01*
X95777542Y52082140D01*
X95777538Y52082141D01*
X95777534Y52082142D01*
X95633459Y52110800D01*
X95633455Y52110800D01*
X95486545Y52110800D01*
X95486540Y52110800D01*
X95342465Y52082142D01*
X95342453Y52082139D01*
X95336921Y52079847D01*
X95267451Y52072384D01*
X95204974Y52103663D01*
X95169327Y52163755D01*
X95167864Y52170197D01*
X95149837Y52260829D01*
X95082430Y52423563D01*
X95082429Y52423564D01*
X95082426Y52423570D01*
X94984572Y52570018D01*
X94956048Y52598542D01*
X94869991Y52684599D01*
X94837899Y52740185D01*
X94833325Y52757255D01*
X94827399Y52779373D01*
X94781221Y52859355D01*
X94751477Y52910874D01*
X94751472Y52910880D01*
X92380879Y55281473D01*
X92380873Y55281478D01*
X92249375Y55357398D01*
X92249374Y55357399D01*
X92249373Y55357399D01*
X92102699Y55396700D01*
X91000000Y55396700D01*
X91000000Y57000000D01*
X98625500Y57000000D01*
X98692539Y56980315D01*
G37*
%TD.AperFunction*%
%TA.AperFunction,Conductor*%
G36*
X91803575Y54223615D02*
G01*
X91824217Y54206981D01*
X91986878Y54044320D01*
X92020363Y53982997D01*
X92015379Y53913305D01*
X91986879Y53868958D01*
X91885290Y53767369D01*
X91797689Y53636266D01*
X91797682Y53636253D01*
X91737344Y53490582D01*
X91737341Y53490570D01*
X91706580Y53335927D01*
X91706580Y53178234D01*
X91735134Y53034682D01*
X91728907Y52965090D01*
X91686044Y52909913D01*
X91637709Y52888874D01*
X91489322Y52859357D01*
X91489316Y52859355D01*
X91326676Y52791988D01*
X91326669Y52791984D01*
X91274694Y52757255D01*
X91208016Y52736378D01*
X91140636Y52754863D01*
X91102702Y52791467D01*
X91059301Y52856420D01*
X91059298Y52856424D01*
X91000000Y52915722D01*
X91000000Y54243300D01*
X91736536Y54243300D01*
X91803575Y54223615D01*
G37*
%TD.AperFunction*%
%TD*%
%TA.AperFunction,Conductor*%
%TO.N,GND*%
G36*
X90943039Y73979815D02*
G01*
X90988794Y73927011D01*
X91000000Y73875500D01*
X91000000Y61374500D01*
X90980315Y61307461D01*
X90927511Y61261706D01*
X90876000Y61250500D01*
X89802000Y61250500D01*
X89797141Y61251927D01*
X89792185Y61250889D01*
X89763950Y61261673D01*
X89734961Y61270185D01*
X89731646Y61274011D01*
X89726914Y61275818D01*
X89708988Y61300159D01*
X89689206Y61322989D01*
X89687669Y61329108D01*
X89685482Y61332078D01*
X89682078Y61351378D01*
X89678250Y61366624D01*
X89678000Y61370552D01*
X89678000Y61470000D01*
X89672855Y61541940D01*
X89665496Y61566999D01*
X89664619Y61580790D01*
X89668244Y61596849D01*
X89668039Y61604559D01*
X89665761Y61604803D01*
X89666589Y61612515D01*
X89666591Y61612517D01*
X89673000Y61672127D01*
X89672999Y62767872D01*
X89666591Y62827483D01*
X89666589Y62827487D01*
X89666353Y62828489D01*
X89666260Y62830558D01*
X89665762Y62835196D01*
X89666052Y62835228D01*
X89664291Y62874654D01*
X89678000Y62970000D01*
X89678000Y63585826D01*
X89660775Y63716662D01*
X89626700Y63843829D01*
X89576201Y63965743D01*
X89550803Y64009734D01*
X89534191Y64071733D01*
X89534191Y69618192D01*
X89509193Y69743859D01*
X89509192Y69743860D01*
X89509192Y69743864D01*
X89460156Y69862247D01*
X89460155Y69862250D01*
X89388968Y69968789D01*
X89388962Y69968796D01*
X88923438Y70434320D01*
X88889953Y70495643D01*
X88894937Y70565335D01*
X88936809Y70621268D01*
X89002273Y70645685D01*
X89011119Y70646001D01*
X89172999Y70646001D01*
X89427000Y70646001D01*
X89623207Y70646001D01*
X89623216Y70646002D01*
X89683235Y70652453D01*
X89683238Y70652454D01*
X89819021Y70703100D01*
X89819027Y70703104D01*
X89935047Y70789953D01*
X90021896Y70905973D01*
X90021897Y70905975D01*
X90072547Y71041769D01*
X90078999Y71101773D01*
X90079000Y71101790D01*
X90079000Y71873000D01*
X89427000Y71873000D01*
X89427000Y70646001D01*
X89172999Y70646001D01*
X89173000Y70646002D01*
X89173000Y71873000D01*
X88521000Y71873000D01*
X88521000Y71581277D01*
X88501315Y71514237D01*
X88448511Y71468482D01*
X88379353Y71458539D01*
X88357996Y71463571D01*
X88343176Y71468482D01*
X88202797Y71514999D01*
X88202795Y71515000D01*
X88100010Y71525500D01*
X87499998Y71525500D01*
X87499977Y71525498D01*
X87462099Y71521629D01*
X87393406Y71534400D01*
X87342523Y71582281D01*
X87325499Y71644987D01*
X87325499Y72898228D01*
X88521000Y72898228D01*
X88521000Y72127000D01*
X89173000Y72127000D01*
X89427000Y72127000D01*
X90078999Y72127000D01*
X90078999Y72898208D01*
X90078998Y72898217D01*
X90072547Y72958236D01*
X90072546Y72958239D01*
X90021900Y73094022D01*
X90021896Y73094028D01*
X89935047Y73210048D01*
X89819027Y73296897D01*
X89819025Y73296898D01*
X89683231Y73347548D01*
X89623227Y73354000D01*
X89427000Y73354000D01*
X89427000Y72127000D01*
X89173000Y72127000D01*
X89173000Y73354000D01*
X88976793Y73354000D01*
X88976783Y73353999D01*
X88916764Y73347548D01*
X88916761Y73347547D01*
X88780978Y73296901D01*
X88780972Y73296897D01*
X88664952Y73210048D01*
X88578103Y73094028D01*
X88578102Y73094026D01*
X88527452Y72958232D01*
X88521000Y72898228D01*
X87325499Y72898228D01*
X87325499Y72900002D01*
X87325498Y72900019D01*
X87314999Y73002797D01*
X87314998Y73002800D01*
X87284770Y73094022D01*
X87259814Y73169334D01*
X87167712Y73318656D01*
X87043656Y73442712D01*
X86894334Y73534814D01*
X86727797Y73589999D01*
X86727795Y73590000D01*
X86625010Y73600500D01*
X85974998Y73600500D01*
X85974980Y73600499D01*
X85872203Y73590000D01*
X85872200Y73589999D01*
X85705668Y73534815D01*
X85705663Y73534813D01*
X85556342Y73442711D01*
X85432289Y73318658D01*
X85340187Y73169337D01*
X85340186Y73169334D01*
X85285001Y73002797D01*
X85285001Y73002796D01*
X85285000Y73002796D01*
X85274500Y72900017D01*
X85274500Y71099999D01*
X85274501Y71099982D01*
X85285000Y70997204D01*
X85285001Y70997201D01*
X85340185Y70830669D01*
X85340186Y70830666D01*
X85432288Y70681344D01*
X85556344Y70557288D01*
X85705666Y70465186D01*
X85872203Y70410001D01*
X85974991Y70399500D01*
X86625008Y70399501D01*
X86662899Y70403372D01*
X86731590Y70390603D01*
X86782475Y70342723D01*
X86799500Y70280015D01*
X86799500Y70175000D01*
X86799501Y70174981D01*
X86810000Y70072204D01*
X86810001Y70072201D01*
X86865185Y69905669D01*
X86865187Y69905664D01*
X86957289Y69756343D01*
X87056427Y69657205D01*
X87056809Y69656505D01*
X87057506Y69656113D01*
X87073528Y69625887D01*
X87089912Y69595882D01*
X87089855Y69595086D01*
X87090229Y69594380D01*
X87087369Y69560329D01*
X87084928Y69526190D01*
X87084448Y69525550D01*
X87084382Y69524755D01*
X87063555Y69497641D01*
X87043056Y69470257D01*
X87042146Y69469768D01*
X87041822Y69469345D01*
X87038640Y69467882D01*
X87010638Y69452815D01*
X86883810Y69407291D01*
X86881604Y69407161D01*
X86841918Y69400000D01*
X86762730Y69400000D01*
X86695691Y69419685D01*
X86675049Y69436319D01*
X86568657Y69542711D01*
X86568656Y69542712D01*
X86433807Y69625887D01*
X86419336Y69634813D01*
X86419331Y69634815D01*
X86417862Y69635302D01*
X86252797Y69689999D01*
X86252795Y69690000D01*
X86150010Y69700500D01*
X85349998Y69700500D01*
X85349980Y69700499D01*
X85247203Y69690000D01*
X85247200Y69689999D01*
X85080668Y69634815D01*
X85080663Y69634813D01*
X84931342Y69542711D01*
X84807289Y69418658D01*
X84715187Y69269337D01*
X84715186Y69269334D01*
X84660001Y69102797D01*
X84660001Y69102796D01*
X84660000Y69102796D01*
X84649500Y69000017D01*
X84649500Y68356862D01*
X84629815Y68289823D01*
X84577011Y68244068D01*
X84524362Y68236498D01*
X84524363Y68234001D01*
X84398995Y68234000D01*
X84306728Y68219387D01*
X84195525Y68162725D01*
X84195520Y68162722D01*
X84107274Y68074475D01*
X84101538Y68066580D01*
X84098408Y68068854D01*
X84063433Y68031851D01*
X83995605Y68015083D01*
X83944672Y68028482D01*
X83923267Y68039389D01*
X83831012Y68054000D01*
X83757000Y68054000D01*
X83757000Y67644000D01*
X83754449Y67635315D01*
X83755738Y67626353D01*
X83744759Y67602313D01*
X83737315Y67576961D01*
X83730474Y67571034D01*
X83726713Y67562797D01*
X83704478Y67548508D01*
X83684511Y67531206D01*
X83673996Y67528919D01*
X83667935Y67525023D01*
X83633000Y67520000D01*
X83630000Y67520000D01*
X83630000Y67517000D01*
X83610315Y67449961D01*
X83557511Y67404206D01*
X83506000Y67393000D01*
X81066001Y67393000D01*
X81066001Y67348994D01*
X81080343Y67258432D01*
X81071387Y67189139D01*
X81045550Y67151355D01*
X80949887Y67055693D01*
X80949881Y67055685D01*
X80867505Y66916394D01*
X80867504Y66916391D01*
X80822357Y66760998D01*
X80822356Y66760992D01*
X80819500Y66724698D01*
X80819500Y66315303D01*
X80822356Y66279009D01*
X80836858Y66229094D01*
X80836793Y66206650D01*
X80841392Y66184680D01*
X80836695Y66172386D01*
X80836658Y66159225D01*
X80824469Y66140379D01*
X80816460Y66119410D01*
X80805861Y66111606D01*
X80798715Y66100555D01*
X80778270Y66091289D01*
X80760198Y66077981D01*
X80741717Y66074722D01*
X80735077Y66071712D01*
X80725653Y66070750D01*
X80721723Y66070500D01*
X80636898Y66070500D01*
X80548436Y66059877D01*
X80547226Y66059401D01*
X80537872Y66058805D01*
X80535064Y66059439D01*
X80515217Y66059439D01*
X80466559Y66065282D01*
X80423102Y66070500D01*
X80236898Y66070500D01*
X80193440Y66065282D01*
X80144783Y66059439D01*
X80115217Y66059439D01*
X80039474Y66068534D01*
X79975259Y66096071D01*
X79936126Y66153953D01*
X79934498Y66223804D01*
X79936552Y66230656D01*
X79950348Y66272290D01*
X79950349Y66272292D01*
X79960500Y66371655D01*
X79960499Y66968344D01*
X79950349Y67067708D01*
X79897003Y67228697D01*
X79896999Y67228703D01*
X79896998Y67228706D01*
X79807970Y67373041D01*
X79807967Y67373045D01*
X79688044Y67492968D01*
X79688040Y67492971D01*
X79543700Y67582002D01*
X79382709Y67635349D01*
X79283346Y67645500D01*
X78736662Y67645500D01*
X78736644Y67645499D01*
X78637292Y67635350D01*
X78637289Y67635349D01*
X78476305Y67582004D01*
X78476294Y67581999D01*
X78331959Y67492971D01*
X78331955Y67492968D01*
X78212033Y67373046D01*
X78174934Y67312900D01*
X78122985Y67266177D01*
X78054022Y67254956D01*
X77995085Y67278733D01*
X77906924Y67344731D01*
X77906921Y67344733D01*
X77777872Y67392866D01*
X77777867Y67392867D01*
X77720836Y67399000D01*
X77577000Y67399000D01*
X77577000Y66794000D01*
X77574449Y66785315D01*
X77575738Y66776353D01*
X77564759Y66752313D01*
X77557315Y66726961D01*
X77550474Y66721034D01*
X77546713Y66712797D01*
X77524478Y66698508D01*
X77504511Y66681206D01*
X77493996Y66678919D01*
X77487935Y66675023D01*
X77453000Y66670000D01*
X77450000Y66670000D01*
X77450000Y66667000D01*
X77430315Y66599961D01*
X77377511Y66554206D01*
X77326000Y66543000D01*
X76746000Y66543000D01*
X76746000Y66374164D01*
X76752133Y66317133D01*
X76752134Y66317128D01*
X76770020Y66269175D01*
X76771080Y66254343D01*
X76776948Y66240677D01*
X76773523Y66220196D01*
X76775005Y66199484D01*
X76767878Y66186433D01*
X76765426Y66171764D01*
X76751472Y66156386D01*
X76741521Y66138160D01*
X76728468Y66131033D01*
X76718476Y66120020D01*
X76698422Y66114627D01*
X76680198Y66104675D01*
X76664223Y66105429D01*
X76651004Y66101873D01*
X76617827Y66107617D01*
X76616193Y66107694D01*
X76615490Y66107918D01*
X76532708Y66135349D01*
X76527840Y66135847D01*
X76516854Y66139347D01*
X76492715Y66155652D01*
X76467108Y66169525D01*
X76464109Y66174974D01*
X76458955Y66178455D01*
X76447464Y66205218D01*
X76433421Y66230737D01*
X76432368Y66240383D01*
X76431391Y66242658D01*
X76431831Y66245295D01*
X76430500Y66257494D01*
X76430500Y66398845D01*
X76430499Y66398847D01*
X76399738Y66553490D01*
X76399737Y66553497D01*
X76352723Y66667000D01*
X76339397Y66699173D01*
X76339390Y66699186D01*
X76251789Y66830289D01*
X76251786Y66830293D01*
X76140292Y66941787D01*
X76140288Y66941790D01*
X76104299Y66965837D01*
X76746000Y66965837D01*
X76746000Y66797000D01*
X77323000Y66797000D01*
X77323000Y67399000D01*
X77179163Y67399000D01*
X77122132Y67392867D01*
X77122127Y67392866D01*
X76993078Y67344733D01*
X76993075Y67344731D01*
X76882814Y67262189D01*
X76882811Y67262186D01*
X76800269Y67151925D01*
X76800267Y67151922D01*
X76752134Y67022873D01*
X76752133Y67022868D01*
X76746000Y66965837D01*
X76104299Y66965837D01*
X76009185Y67029391D01*
X76009172Y67029398D01*
X75863501Y67089736D01*
X75863489Y67089739D01*
X75708845Y67120500D01*
X75708842Y67120500D01*
X75551158Y67120500D01*
X75551155Y67120500D01*
X75396510Y67089739D01*
X75396498Y67089736D01*
X75252136Y67029939D01*
X75204684Y67020500D01*
X70801003Y67020500D01*
X70692590Y66998935D01*
X70692589Y66998935D01*
X70665671Y66993580D01*
X70538190Y66940776D01*
X70423454Y66864113D01*
X67505887Y63946546D01*
X67429222Y63831808D01*
X67376421Y63704333D01*
X67376418Y63704321D01*
X67350259Y63572808D01*
X67350256Y63572793D01*
X67349500Y63569000D01*
X67349500Y62175316D01*
X67340061Y62127864D01*
X67280264Y61983502D01*
X67280261Y61983490D01*
X67249500Y61828847D01*
X67249500Y61671154D01*
X67280261Y61516511D01*
X67280264Y61516499D01*
X67340602Y61370828D01*
X67340609Y61370815D01*
X67428210Y61239712D01*
X67428213Y61239708D01*
X67539707Y61128214D01*
X67539711Y61128211D01*
X67670814Y61040610D01*
X67670827Y61040603D01*
X67815185Y60980809D01*
X67855414Y60953929D01*
X68603453Y60205889D01*
X68603454Y60205888D01*
X68718192Y60129223D01*
X68845667Y60076422D01*
X68845672Y60076420D01*
X68845676Y60076420D01*
X68845677Y60076419D01*
X68981003Y60049500D01*
X68981006Y60049500D01*
X68981007Y60049500D01*
X69362769Y60049500D01*
X69429808Y60029815D01*
X69450450Y60013182D01*
X69556344Y59907288D01*
X69705666Y59815186D01*
X69872203Y59760001D01*
X69974991Y59749500D01*
X71025008Y59749501D01*
X71025016Y59749502D01*
X71025019Y59749502D01*
X71087758Y59755911D01*
X71127797Y59760001D01*
X71294334Y59815186D01*
X71443656Y59907288D01*
X71567712Y60031344D01*
X71659814Y60180666D01*
X71714999Y60347203D01*
X71725500Y60449991D01*
X71725499Y61050008D01*
X71724964Y61055241D01*
X71714999Y61152797D01*
X71714998Y61152800D01*
X71686198Y61239712D01*
X71659814Y61319334D01*
X71567712Y61468656D01*
X71443656Y61592712D01*
X71324075Y61666470D01*
X71294336Y61684813D01*
X71294335Y61684814D01*
X71294334Y61684814D01*
X71207906Y61713454D01*
X71150463Y61753226D01*
X71123640Y61817742D01*
X71135955Y61886518D01*
X71183499Y61937718D01*
X71203581Y61947342D01*
X71219026Y61953103D01*
X71219027Y61953104D01*
X71335047Y62039953D01*
X71421896Y62155973D01*
X71421897Y62155975D01*
X71472547Y62291769D01*
X71478999Y62351773D01*
X71479000Y62351790D01*
X71479000Y62523000D01*
X69521001Y62523000D01*
X69521001Y62351784D01*
X69527452Y62291765D01*
X69527453Y62291762D01*
X69578099Y62155979D01*
X69578103Y62155973D01*
X69664952Y62039953D01*
X69780972Y61953104D01*
X69780975Y61953102D01*
X69796420Y61947341D01*
X69852354Y61905470D01*
X69876771Y61840006D01*
X69861920Y61771733D01*
X69812515Y61722327D01*
X69792092Y61713453D01*
X69705666Y61684814D01*
X69705663Y61684813D01*
X69556345Y61592713D01*
X69464825Y61501193D01*
X69403501Y61467709D01*
X69333810Y61472693D01*
X69289463Y61501194D01*
X68846071Y61944586D01*
X68841439Y61951518D01*
X68837200Y61954461D01*
X68819191Y61984815D01*
X68759939Y62127864D01*
X68750500Y62175316D01*
X68750500Y62948228D01*
X69521000Y62948228D01*
X69521000Y62777000D01*
X70373000Y62777000D01*
X70627000Y62777000D01*
X71478999Y62777000D01*
X71478999Y62948208D01*
X71478998Y62948217D01*
X71472547Y63008236D01*
X71472546Y63008239D01*
X71421900Y63144022D01*
X71421896Y63144028D01*
X71335047Y63260048D01*
X71219027Y63346897D01*
X71219025Y63346898D01*
X71083231Y63397548D01*
X71023227Y63404000D01*
X70627000Y63404000D01*
X70627000Y62777000D01*
X70373000Y62777000D01*
X70373000Y63404000D01*
X69976792Y63404000D01*
X69976783Y63403999D01*
X69916764Y63397548D01*
X69916761Y63397547D01*
X69780978Y63346901D01*
X69780972Y63346897D01*
X69664952Y63260048D01*
X69578103Y63144028D01*
X69578102Y63144026D01*
X69527452Y63008232D01*
X69521000Y62948228D01*
X68750500Y62948228D01*
X68750500Y63158481D01*
X68770185Y63225520D01*
X68786819Y63246162D01*
X71123838Y65583181D01*
X71185161Y65616666D01*
X71211519Y65619500D01*
X73774476Y65619500D01*
X73841515Y65599815D01*
X73887270Y65547011D01*
X73897765Y65482244D01*
X73896000Y65465837D01*
X73896000Y65297000D01*
X74476000Y65297000D01*
X74484685Y65294450D01*
X74493647Y65295738D01*
X74517687Y65284760D01*
X74543039Y65277315D01*
X74548966Y65270475D01*
X74557203Y65266713D01*
X74571492Y65244479D01*
X74588794Y65224511D01*
X74591081Y65213997D01*
X74594977Y65207935D01*
X74600000Y65173000D01*
X74600000Y65167000D01*
X74580315Y65099961D01*
X74527511Y65054206D01*
X74476000Y65043000D01*
X73896000Y65043000D01*
X73896000Y64874164D01*
X73902133Y64817133D01*
X73902134Y64817128D01*
X73950267Y64688079D01*
X73950269Y64688076D01*
X74032811Y64577815D01*
X74032814Y64577812D01*
X74143075Y64495270D01*
X74143078Y64495268D01*
X74272127Y64447135D01*
X74272132Y64447134D01*
X74329163Y64441001D01*
X74329180Y64441000D01*
X74472000Y64441000D01*
X74480685Y64438450D01*
X74489647Y64439738D01*
X74513687Y64428760D01*
X74539039Y64421315D01*
X74544966Y64414475D01*
X74553203Y64410713D01*
X74567492Y64388479D01*
X74584794Y64368511D01*
X74587081Y64357997D01*
X74590977Y64351935D01*
X74596000Y64317000D01*
X74596000Y64290856D01*
X74576315Y64223817D01*
X74523511Y64178062D01*
X74459398Y64167498D01*
X74430011Y64170500D01*
X73029998Y64170500D01*
X73029981Y64170499D01*
X72927203Y64160000D01*
X72927200Y64159999D01*
X72760668Y64104815D01*
X72760663Y64104813D01*
X72611342Y64012711D01*
X72487289Y63888658D01*
X72395187Y63739337D01*
X72395185Y63739332D01*
X72383588Y63704333D01*
X72340001Y63572797D01*
X72340001Y63572796D01*
X72340000Y63572796D01*
X72329500Y63470017D01*
X72329500Y62869999D01*
X72329501Y62869981D01*
X72340000Y62767204D01*
X72340001Y62767201D01*
X72378683Y62650468D01*
X72395186Y62600666D01*
X72487288Y62451344D01*
X72611344Y62327288D01*
X72760666Y62235186D01*
X72927203Y62180001D01*
X73029991Y62169500D01*
X74430008Y62169501D01*
X74532797Y62180001D01*
X74658582Y62221683D01*
X74728408Y62224084D01*
X74788450Y62188353D01*
X74813545Y62147898D01*
X74899263Y61921591D01*
X74900715Y61902630D01*
X74907101Y61884720D01*
X74903329Y61868516D01*
X74904600Y61851926D01*
X74895572Y61835192D01*
X74891261Y61816670D01*
X74871683Y61790911D01*
X74871427Y61790434D01*
X74871245Y61790334D01*
X74870983Y61789988D01*
X74743258Y61662263D01*
X74681935Y61628778D01*
X74616574Y61632238D01*
X74532797Y61659999D01*
X74532795Y61660000D01*
X74430010Y61670500D01*
X73029998Y61670500D01*
X73029981Y61670499D01*
X72927203Y61660000D01*
X72927200Y61659999D01*
X72760668Y61604815D01*
X72760663Y61604813D01*
X72611342Y61512711D01*
X72487289Y61388658D01*
X72395187Y61239337D01*
X72395185Y61239332D01*
X72377283Y61185307D01*
X72340001Y61072797D01*
X72340001Y61072796D01*
X72340000Y61072796D01*
X72329500Y60970017D01*
X72329500Y60369999D01*
X72329501Y60369981D01*
X72340000Y60267204D01*
X72340001Y60267201D01*
X72395185Y60100669D01*
X72395187Y60100664D01*
X72425681Y60051225D01*
X72487288Y59951344D01*
X72611344Y59827288D01*
X72706062Y59768866D01*
X72752786Y59716918D01*
X72764009Y59647955D01*
X72736165Y59583873D01*
X72728647Y59575646D01*
X72696001Y59543000D01*
X72696001Y59468995D01*
X72710613Y59376729D01*
X72767275Y59265526D01*
X72767278Y59265521D01*
X72855520Y59177279D01*
X72855524Y59177276D01*
X72966734Y59120612D01*
X73058987Y59106001D01*
X73102999Y59106001D01*
X73103000Y59106002D01*
X73103000Y59545501D01*
X73105550Y59554187D01*
X73104262Y59563148D01*
X73115240Y59587189D01*
X73122685Y59612540D01*
X73129525Y59618468D01*
X73133287Y59626704D01*
X73155521Y59640994D01*
X73175489Y59658295D01*
X73186003Y59660583D01*
X73192065Y59664478D01*
X73226996Y59669501D01*
X73233001Y59669501D01*
X73300039Y59649816D01*
X73345794Y59597012D01*
X73357000Y59545501D01*
X73357000Y59106001D01*
X73401011Y59106001D01*
X73401011Y59106002D01*
X73491566Y59120343D01*
X73560859Y59111388D01*
X73598644Y59085551D01*
X73694307Y58989888D01*
X73694311Y58989885D01*
X73694313Y58989883D01*
X73833605Y58907506D01*
X73874587Y58895600D01*
X73989002Y58862358D01*
X73989005Y58862358D01*
X73989007Y58862357D01*
X74025310Y58859500D01*
X74025318Y58859500D01*
X74434682Y58859500D01*
X74434690Y58859500D01*
X74470993Y58862357D01*
X74470995Y58862358D01*
X74470997Y58862358D01*
X74521043Y58876898D01*
X74626395Y58907506D01*
X74765687Y58989883D01*
X74880117Y59104313D01*
X74962494Y59243605D01*
X75007643Y59399007D01*
X75010500Y59435310D01*
X75010500Y59904690D01*
X75007643Y59940993D01*
X75006761Y59945820D01*
X75014074Y60015305D01*
X75023198Y60033198D01*
X75064814Y60100666D01*
X75119999Y60267203D01*
X75130500Y60369991D01*
X75130499Y60370006D01*
X75130660Y60373140D01*
X75130820Y60373132D01*
X75130821Y60373133D01*
X75130844Y60373131D01*
X75132471Y60373048D01*
X75149745Y60433340D01*
X75166813Y60454664D01*
X76467820Y61755671D01*
X76484703Y61764889D01*
X76498621Y61778173D01*
X76514736Y61781289D01*
X76529142Y61789154D01*
X76548331Y61787782D01*
X76567221Y61791433D01*
X76582461Y61785341D01*
X76598834Y61784170D01*
X76614236Y61772640D01*
X76632100Y61765499D01*
X76641628Y61752134D01*
X76654767Y61742298D01*
X76661489Y61724275D01*
X76672659Y61708607D01*
X76677043Y61682573D01*
X76679184Y61676834D01*
X76679356Y61673954D01*
X76679500Y61670965D01*
X76679500Y61526898D01*
X76690123Y61438436D01*
X76690780Y61436769D01*
X76691301Y61425966D01*
X76690561Y61422909D01*
X76690561Y61405217D01*
X76685927Y61366624D01*
X76679500Y61313102D01*
X76679500Y61126898D01*
X76681824Y61107546D01*
X76690561Y61034783D01*
X76690561Y61005217D01*
X76686334Y60970009D01*
X76679500Y60913102D01*
X76679500Y60726898D01*
X76679928Y60723338D01*
X76690561Y60634783D01*
X76690561Y60605217D01*
X76685054Y60559354D01*
X76679500Y60513102D01*
X76679500Y60326898D01*
X76685222Y60279246D01*
X76690561Y60234783D01*
X76690561Y60205217D01*
X76685654Y60164347D01*
X76679500Y60113102D01*
X76679500Y59926898D01*
X76685126Y59880046D01*
X76690122Y59838439D01*
X76690122Y59838437D01*
X76690123Y59838436D01*
X76694519Y59827288D01*
X76745639Y59697657D01*
X76837077Y59577078D01*
X76957656Y59485640D01*
X76957657Y59485640D01*
X76957658Y59485639D01*
X77098436Y59430123D01*
X77186898Y59419500D01*
X77605500Y59419500D01*
X77672539Y59399815D01*
X77718294Y59347011D01*
X77729500Y59295500D01*
X77729500Y58936666D01*
X77720855Y58907227D01*
X77714332Y58877239D01*
X77710577Y58872224D01*
X77709815Y58869627D01*
X77693185Y58848990D01*
X77598645Y58754449D01*
X77537321Y58720965D01*
X77491566Y58719658D01*
X77401012Y58734000D01*
X77357000Y58734000D01*
X77357000Y57606001D01*
X77401011Y57606001D01*
X77401011Y57606002D01*
X77491566Y57620343D01*
X77496988Y57619643D01*
X77502114Y57621554D01*
X77531274Y57615212D01*
X77560859Y57611388D01*
X77566460Y57607559D01*
X77570387Y57606704D01*
X77598642Y57585554D01*
X77616980Y57567216D01*
X77650465Y57505895D01*
X77653300Y57479534D01*
X77653300Y57455813D01*
X77633615Y57388774D01*
X77616981Y57368132D01*
X76768527Y56519679D01*
X76768522Y56519673D01*
X76692602Y56388176D01*
X76692602Y56388175D01*
X76653300Y56241498D01*
X76653300Y55276741D01*
X76633615Y55209702D01*
X76616981Y55189060D01*
X76608213Y55180293D01*
X76608210Y55180289D01*
X76520609Y55049186D01*
X76520602Y55049173D01*
X76460264Y54903502D01*
X76460261Y54903490D01*
X76429500Y54748847D01*
X76429500Y54591154D01*
X76460261Y54436511D01*
X76460264Y54436499D01*
X76520602Y54290828D01*
X76520609Y54290815D01*
X76608210Y54159712D01*
X76608213Y54159708D01*
X76719707Y54048214D01*
X76719711Y54048211D01*
X76850814Y53960610D01*
X76850827Y53960603D01*
X76950060Y53919500D01*
X76996503Y53900263D01*
X77149574Y53869815D01*
X77151153Y53869501D01*
X77151156Y53869500D01*
X77151158Y53869500D01*
X77308844Y53869500D01*
X77308845Y53869501D01*
X77463497Y53900263D01*
X77538963Y53931522D01*
X77607864Y53960061D01*
X77616040Y53961688D01*
X77620381Y53964477D01*
X77655316Y53969500D01*
X77715584Y53969500D01*
X77778704Y53952233D01*
X77803605Y53937506D01*
X77803612Y53937504D01*
X77959002Y53892358D01*
X77959005Y53892358D01*
X77959007Y53892357D01*
X77995310Y53889500D01*
X77995318Y53889500D01*
X78464682Y53889500D01*
X78464690Y53889500D01*
X78500993Y53892357D01*
X78500995Y53892358D01*
X78500997Y53892358D01*
X78656388Y53937504D01*
X78656387Y53937504D01*
X78656395Y53937506D01*
X78666880Y53943708D01*
X78734600Y53960890D01*
X78793118Y53943708D01*
X78803605Y53937506D01*
X78803610Y53937505D01*
X78803611Y53937504D01*
X78959002Y53892358D01*
X78959005Y53892358D01*
X78959007Y53892357D01*
X78995310Y53889500D01*
X79143561Y53889500D01*
X79210600Y53869815D01*
X79231242Y53853181D01*
X79278098Y53806325D01*
X79409602Y53730401D01*
X79556276Y53691100D01*
X79556278Y53691100D01*
X81958122Y53691100D01*
X81958124Y53691100D01*
X82104798Y53730401D01*
X82236302Y53806325D01*
X82438160Y54008185D01*
X82499479Y54041667D01*
X82525829Y54044501D01*
X82952872Y54044501D01*
X83012483Y54050909D01*
X83147331Y54101204D01*
X83170525Y54118567D01*
X83191273Y54126306D01*
X83209901Y54138277D01*
X83231817Y54141429D01*
X83235989Y54142984D01*
X83244836Y54143300D01*
X83273259Y54143300D01*
X83340298Y54123615D01*
X83360940Y54106981D01*
X83369707Y54098214D01*
X83369711Y54098211D01*
X83500814Y54010610D01*
X83500827Y54010603D01*
X83622848Y53960061D01*
X83646503Y53950263D01*
X83801153Y53919501D01*
X83801156Y53919500D01*
X83801158Y53919500D01*
X83958844Y53919500D01*
X83958845Y53919501D01*
X84113497Y53950263D01*
X84259179Y54010606D01*
X84361610Y54079049D01*
X84428286Y54099926D01*
X84495666Y54081442D01*
X84542357Y54029463D01*
X84554500Y53975950D01*
X84554500Y53947132D01*
X84554501Y53947124D01*
X84560908Y53887517D01*
X84611202Y53752672D01*
X84611206Y53752665D01*
X84697452Y53637456D01*
X84697455Y53637453D01*
X84812664Y53551207D01*
X84812671Y53551203D01*
X84857618Y53534439D01*
X84947517Y53500909D01*
X85007127Y53494500D01*
X85452872Y53494501D01*
X85466741Y53495992D01*
X85493250Y53495992D01*
X85507127Y53494500D01*
X85952872Y53494501D01*
X85966741Y53495992D01*
X85993250Y53495992D01*
X86007127Y53494500D01*
X86452872Y53494501D01*
X86512483Y53500909D01*
X86647331Y53551204D01*
X86655687Y53557461D01*
X86721149Y53581879D01*
X86789422Y53567030D01*
X86804304Y53557466D01*
X86812669Y53551204D01*
X86947517Y53500909D01*
X87007127Y53494500D01*
X87452872Y53494501D01*
X87512483Y53500909D01*
X87647331Y53551204D01*
X87762546Y53637454D01*
X87848796Y53752669D01*
X87899091Y53887517D01*
X87905500Y53947127D01*
X87905499Y54113061D01*
X87925183Y54180099D01*
X87977987Y54225854D01*
X88047145Y54235798D01*
X88110701Y54206773D01*
X88117180Y54200741D01*
X88119707Y54198214D01*
X88119711Y54198211D01*
X88250814Y54110610D01*
X88250827Y54110603D01*
X88327009Y54079048D01*
X88396503Y54050263D01*
X88551153Y54019501D01*
X88551156Y54019500D01*
X88551158Y54019500D01*
X88708844Y54019500D01*
X88708845Y54019501D01*
X88863497Y54050263D01*
X88986483Y54101205D01*
X89009172Y54110603D01*
X89009172Y54110604D01*
X89009179Y54110606D01*
X89140289Y54198211D01*
X89142819Y54200741D01*
X89149060Y54206981D01*
X89210383Y54240466D01*
X89236741Y54243300D01*
X91000000Y54243300D01*
X91000000Y52915722D01*
X90955423Y52960299D01*
X90955419Y52960302D01*
X90833275Y53041917D01*
X90833266Y53041922D01*
X90697544Y53098139D01*
X90697545Y53098139D01*
X90697542Y53098140D01*
X90697538Y53098141D01*
X90697534Y53098142D01*
X90553459Y53126800D01*
X90553455Y53126800D01*
X90406545Y53126800D01*
X90406540Y53126800D01*
X90262465Y53098142D01*
X90262455Y53098139D01*
X90126733Y53041922D01*
X90126724Y53041917D01*
X90004580Y52960302D01*
X90004576Y52960299D01*
X89900701Y52856424D01*
X89900698Y52856420D01*
X89819083Y52734276D01*
X89819078Y52734267D01*
X89762861Y52598545D01*
X89762858Y52598535D01*
X89734200Y52454460D01*
X89734200Y52351472D01*
X89714515Y52284433D01*
X89661711Y52238678D01*
X89592553Y52228734D01*
X89562748Y52236911D01*
X89483501Y52269736D01*
X89483489Y52269739D01*
X89328845Y52300500D01*
X89328842Y52300500D01*
X89171158Y52300500D01*
X89171155Y52300500D01*
X89016510Y52269739D01*
X89016498Y52269736D01*
X88870827Y52209398D01*
X88870814Y52209391D01*
X88739711Y52121790D01*
X88739707Y52121787D01*
X88628213Y52010293D01*
X88628210Y52010289D01*
X88540609Y51879186D01*
X88540602Y51879173D01*
X88480264Y51733502D01*
X88480261Y51733490D01*
X88449500Y51578847D01*
X88449500Y51421154D01*
X88480261Y51266511D01*
X88480264Y51266499D01*
X88540602Y51120828D01*
X88540609Y51120815D01*
X88628210Y50989712D01*
X88628213Y50989708D01*
X88739707Y50878214D01*
X88739711Y50878211D01*
X88870814Y50790610D01*
X88870827Y50790603D01*
X89016498Y50730265D01*
X89016503Y50730263D01*
X89171153Y50699501D01*
X89171156Y50699500D01*
X89171158Y50699500D01*
X89328844Y50699500D01*
X89328845Y50699501D01*
X89483497Y50730263D01*
X89626004Y50789292D01*
X89695473Y50796760D01*
X89757952Y50765485D01*
X89793604Y50705396D01*
X89791110Y50635571D01*
X89788017Y50627278D01*
X89762862Y50566549D01*
X89762858Y50566535D01*
X89734200Y50422460D01*
X89734200Y50275541D01*
X89762858Y50131466D01*
X89762861Y50131456D01*
X89819078Y49995734D01*
X89819083Y49995725D01*
X89900698Y49873581D01*
X89900701Y49873577D01*
X90004576Y49769702D01*
X90004580Y49769699D01*
X90126724Y49688084D01*
X90126730Y49688081D01*
X90126731Y49688080D01*
X90262458Y49631860D01*
X90386229Y49607241D01*
X90406540Y49603201D01*
X90406544Y49603200D01*
X90406545Y49603200D01*
X90553456Y49603200D01*
X90553457Y49603201D01*
X90697542Y49631860D01*
X90833269Y49688080D01*
X90955420Y49769699D01*
X91000000Y49814279D01*
X91000000Y49000500D01*
X71252712Y49000500D01*
X71247302Y49000618D01*
X70863252Y49017389D01*
X70852476Y49018332D01*
X70474044Y49068156D01*
X70463391Y49070034D01*
X70090728Y49152653D01*
X70080279Y49155453D01*
X69716242Y49270235D01*
X69706077Y49273935D01*
X69353427Y49420008D01*
X69343623Y49424580D01*
X69005056Y49600827D01*
X68995688Y49606235D01*
X68673752Y49811330D01*
X68664891Y49817535D01*
X68362072Y50049896D01*
X68353785Y50056849D01*
X68072358Y50314727D01*
X68064709Y50322376D01*
X67972998Y50422460D01*
X67806823Y50603806D01*
X67799875Y50612087D01*
X67788218Y50627278D01*
X67567509Y50914909D01*
X67561307Y50923766D01*
X67356215Y51245691D01*
X67350806Y51255059D01*
X67344851Y51266499D01*
X67174542Y51593650D01*
X67169985Y51603421D01*
X67035056Y51929162D01*
X67023899Y51956096D01*
X67020200Y51966261D01*
X66905418Y52330288D01*
X66902618Y52340736D01*
X66896076Y52370242D01*
X66819992Y52713410D01*
X66818121Y52724021D01*
X66768287Y53102501D01*
X66767347Y53113242D01*
X66750696Y53494502D01*
X66750618Y53496279D01*
X66750500Y53501689D01*
X66750500Y57968995D01*
X76696001Y57968995D01*
X76710613Y57876729D01*
X76767275Y57765526D01*
X76767278Y57765521D01*
X76855520Y57677279D01*
X76855524Y57677276D01*
X76966734Y57620612D01*
X77058987Y57606001D01*
X77102999Y57606001D01*
X77103000Y57606002D01*
X77103000Y58043000D01*
X76696001Y58043000D01*
X76696001Y57968995D01*
X66750500Y57968995D01*
X66750500Y58371013D01*
X76696000Y58371013D01*
X76696000Y58297000D01*
X77103000Y58297000D01*
X77103000Y58734000D01*
X77058995Y58734000D01*
X76966728Y58719387D01*
X76855525Y58662725D01*
X76855520Y58662722D01*
X76767278Y58574480D01*
X76767275Y58574476D01*
X76710611Y58463266D01*
X76696000Y58371013D01*
X66750500Y58371013D01*
X66750500Y67691013D01*
X81066000Y67691013D01*
X81066000Y67647000D01*
X81503000Y67647000D01*
X81503000Y68054000D01*
X81757000Y68054000D01*
X81757000Y67647000D01*
X82503000Y67647000D01*
X82503000Y68054000D01*
X82757000Y68054000D01*
X82757000Y67647000D01*
X83503000Y67647000D01*
X83503000Y68054000D01*
X83502999Y68054001D01*
X83428995Y68054000D01*
X83336728Y68039387D01*
X83225525Y67982725D01*
X83225520Y67982722D01*
X83217681Y67974882D01*
X83156358Y67941397D01*
X83086666Y67946381D01*
X83042319Y67974882D01*
X83034479Y67982722D01*
X83034475Y67982725D01*
X82923265Y68039389D01*
X82831012Y68054000D01*
X82757000Y68054000D01*
X82503000Y68054000D01*
X82502999Y68054001D01*
X82428995Y68054000D01*
X82336728Y68039387D01*
X82225525Y67982725D01*
X82225520Y67982722D01*
X82217681Y67974882D01*
X82156358Y67941397D01*
X82086666Y67946381D01*
X82042319Y67974882D01*
X82034479Y67982722D01*
X82034475Y67982725D01*
X81923265Y68039389D01*
X81831012Y68054000D01*
X81757000Y68054000D01*
X81503000Y68054000D01*
X81502999Y68054001D01*
X81428995Y68054000D01*
X81336728Y68039387D01*
X81225525Y67982725D01*
X81225520Y67982722D01*
X81137278Y67894480D01*
X81137275Y67894476D01*
X81080611Y67783266D01*
X81066000Y67691013D01*
X66750500Y67691013D01*
X66750500Y69497296D01*
X66750618Y69502705D01*
X66751581Y69524755D01*
X66767387Y69886770D01*
X66768327Y69897504D01*
X66818153Y70275965D01*
X66820031Y70286613D01*
X66843085Y70390603D01*
X66902652Y70659296D01*
X66905439Y70669696D01*
X67020235Y71033783D01*
X67023919Y71043904D01*
X67170007Y71396590D01*
X67174565Y71406364D01*
X67350826Y71744957D01*
X67356221Y71754302D01*
X67561329Y72076260D01*
X67567519Y72085099D01*
X67799891Y72387932D01*
X67806841Y72396215D01*
X68064730Y72677653D01*
X68072357Y72685280D01*
X68353798Y72943175D01*
X68362062Y72950110D01*
X68664921Y73182504D01*
X68673760Y73188691D01*
X68995697Y73393789D01*
X69005038Y73399183D01*
X69343633Y73575447D01*
X69353424Y73580013D01*
X69706093Y73726095D01*
X69716229Y73729784D01*
X70080293Y73844576D01*
X70090731Y73847371D01*
X70463392Y73929991D01*
X70474028Y73931868D01*
X70852498Y73981696D01*
X70863232Y73982636D01*
X71225738Y73998466D01*
X71246731Y73999382D01*
X71252140Y73999500D01*
X90876000Y73999500D01*
X90943039Y73979815D01*
G37*
%TD.AperFunction*%
%TA.AperFunction,Conductor*%
G36*
X79031941Y57702580D02*
G01*
X79040188Y57702991D01*
X79063762Y57689453D01*
X79088896Y57679084D01*
X79098684Y57669397D01*
X79100777Y57668195D01*
X79101702Y57666410D01*
X79107085Y57661083D01*
X79108215Y57659706D01*
X79219707Y57548214D01*
X79219711Y57548211D01*
X79350814Y57460610D01*
X79350827Y57460603D01*
X79483852Y57405503D01*
X79496503Y57400263D01*
X79651153Y57369501D01*
X79651156Y57369500D01*
X79651158Y57369500D01*
X79808844Y57369500D01*
X79931308Y57393860D01*
X80000900Y57387633D01*
X80056077Y57344770D01*
X80079322Y57278880D01*
X80079500Y57272243D01*
X80079500Y57241154D01*
X80110261Y57086511D01*
X80110264Y57086499D01*
X80170602Y56940828D01*
X80170609Y56940815D01*
X80258210Y56809712D01*
X80258213Y56809708D01*
X80369710Y56698211D01*
X80486015Y56620499D01*
X80500821Y56610606D01*
X80517290Y56603785D01*
X80524221Y56599153D01*
X80529264Y56598056D01*
X80557518Y56576905D01*
X80718181Y56416242D01*
X80751666Y56354919D01*
X80754500Y56328561D01*
X80754500Y55947131D01*
X80754501Y55947124D01*
X80760908Y55887517D01*
X80811202Y55752672D01*
X80811203Y55752670D01*
X80877751Y55663774D01*
X80889592Y55632026D01*
X80901991Y55600514D01*
X80901909Y55599002D01*
X80902168Y55598310D01*
X80900101Y55565271D01*
X80886184Y55495308D01*
X80853799Y55433397D01*
X80793083Y55398823D01*
X80764568Y55395500D01*
X80557130Y55395500D01*
X80557123Y55395499D01*
X80497516Y55389092D01*
X80362671Y55338798D01*
X80362668Y55338796D01*
X80339475Y55321433D01*
X80274011Y55297016D01*
X80265164Y55296700D01*
X80204076Y55296700D01*
X80090939Y55266385D01*
X80057395Y55257397D01*
X80054356Y55256138D01*
X80046181Y55254513D01*
X80041842Y55251723D01*
X80006907Y55246700D01*
X79920466Y55246700D01*
X79853427Y55266385D01*
X79832787Y55283017D01*
X79814446Y55301358D01*
X79780963Y55362682D01*
X79779657Y55408436D01*
X79794000Y55498989D01*
X79794000Y55543000D01*
X78354000Y55543000D01*
X78345314Y55545551D01*
X78336353Y55544262D01*
X78312312Y55555241D01*
X78286961Y55562685D01*
X78281033Y55569526D01*
X78272797Y55573287D01*
X78258507Y55595522D01*
X78241206Y55615489D01*
X78238918Y55626004D01*
X78235023Y55632065D01*
X78230000Y55667000D01*
X78230000Y55673000D01*
X78249685Y55740039D01*
X78302489Y55785794D01*
X78354000Y55797000D01*
X79103000Y55797000D01*
X79357000Y55797000D01*
X79793999Y55797000D01*
X79793999Y55841006D01*
X79779386Y55933272D01*
X79722724Y56044475D01*
X79722721Y56044480D01*
X79634479Y56132722D01*
X79634475Y56132725D01*
X79523265Y56189389D01*
X79431012Y56204000D01*
X79357000Y56204000D01*
X79357000Y55797000D01*
X79103000Y55797000D01*
X79103000Y56204000D01*
X79102999Y56204001D01*
X79028995Y56204000D01*
X78936728Y56189387D01*
X78825525Y56132725D01*
X78825520Y56132722D01*
X78817681Y56124882D01*
X78756358Y56091397D01*
X78686666Y56096381D01*
X78642319Y56124882D01*
X78634479Y56132722D01*
X78634475Y56132725D01*
X78523265Y56189389D01*
X78431012Y56204000D01*
X78383364Y56204000D01*
X78316325Y56223685D01*
X78270570Y56276489D01*
X78260626Y56345647D01*
X78289651Y56409203D01*
X78295669Y56415667D01*
X78691475Y56811472D01*
X78767399Y56942976D01*
X78806700Y57089650D01*
X78806700Y57241498D01*
X78806700Y57479534D01*
X78813302Y57502020D01*
X78815477Y57525357D01*
X78823925Y57538197D01*
X78826385Y57546573D01*
X78833054Y57555962D01*
X78837693Y57561890D01*
X78880117Y57604313D01*
X78908612Y57652497D01*
X78913584Y57658848D01*
X78935695Y57674671D01*
X78955565Y57693223D01*
X78963688Y57694701D01*
X78970405Y57699507D01*
X78997557Y57700863D01*
X79024306Y57705729D01*
X79031941Y57702580D01*
G37*
%TD.AperFunction*%
%TA.AperFunction,Conductor*%
G36*
X86193120Y61381449D02*
G01*
X86233605Y61357506D01*
X86274587Y61345600D01*
X86389002Y61312358D01*
X86389005Y61312358D01*
X86389007Y61312357D01*
X86425310Y61309500D01*
X86425318Y61309500D01*
X86834682Y61309500D01*
X86834690Y61309500D01*
X86870993Y61312357D01*
X86870995Y61312358D01*
X86870997Y61312358D01*
X87008405Y61352279D01*
X87078274Y61352080D01*
X87136944Y61314138D01*
X87165788Y61250500D01*
X87167000Y61233203D01*
X87167000Y60854167D01*
X87183756Y60726898D01*
X87184225Y60723338D01*
X87218300Y60596171D01*
X87256157Y60504776D01*
X87268802Y60474250D01*
X87268803Y60474249D01*
X87334620Y60360251D01*
X87334632Y60360233D01*
X87414955Y60255556D01*
X87414959Y60255551D01*
X87508051Y60162459D01*
X87508055Y60162456D01*
X87612732Y60082133D01*
X87612736Y60082131D01*
X87612743Y60082125D01*
X87612750Y60082121D01*
X87726748Y60016304D01*
X87726749Y60016303D01*
X87726752Y60016302D01*
X87726757Y60016299D01*
X87848671Y59965800D01*
X87975838Y59931725D01*
X88106674Y59914500D01*
X88106681Y59914500D01*
X88738319Y59914500D01*
X88738326Y59914500D01*
X88869162Y59931725D01*
X88913800Y59943686D01*
X88919731Y59945275D01*
X88951824Y59949500D01*
X90037680Y59949500D01*
X90104719Y59929815D01*
X90136948Y59899809D01*
X90142454Y59892454D01*
X90142457Y59892452D01*
X90257664Y59806207D01*
X90257671Y59806203D01*
X90302618Y59789439D01*
X90392517Y59755909D01*
X90452127Y59749500D01*
X90876000Y59749501D01*
X90943039Y59729817D01*
X90988794Y59677013D01*
X91000000Y59625501D01*
X91000000Y55396700D01*
X90649830Y55396700D01*
X90582791Y55416385D01*
X90537036Y55469189D01*
X90527092Y55538347D01*
X90530752Y55555290D01*
X90537643Y55579007D01*
X90540500Y55615310D01*
X90540500Y56024690D01*
X90537643Y56060993D01*
X90519081Y56124882D01*
X90492495Y56216391D01*
X90492494Y56216394D01*
X90492494Y56216395D01*
X90410117Y56355687D01*
X90410115Y56355689D01*
X90410112Y56355693D01*
X90314449Y56451356D01*
X90280964Y56512679D01*
X90279657Y56558436D01*
X90294000Y56648989D01*
X90294000Y56693000D01*
X88854000Y56693000D01*
X88845314Y56695551D01*
X88836353Y56694262D01*
X88812312Y56705241D01*
X88786961Y56712685D01*
X88781033Y56719526D01*
X88772797Y56723287D01*
X88758507Y56745522D01*
X88741206Y56765489D01*
X88738918Y56776004D01*
X88735023Y56782065D01*
X88730000Y56817000D01*
X88730000Y56820000D01*
X88727000Y56820000D01*
X88659961Y56839685D01*
X88614206Y56892489D01*
X88603000Y56944000D01*
X88603000Y57354000D01*
X88857000Y57354000D01*
X88857000Y56947000D01*
X89603000Y56947000D01*
X89857000Y56947000D01*
X90293999Y56947000D01*
X90293999Y56991006D01*
X90279386Y57083272D01*
X90222724Y57194475D01*
X90222721Y57194480D01*
X90134479Y57282722D01*
X90134475Y57282725D01*
X90023265Y57339389D01*
X89931012Y57354000D01*
X89857000Y57354000D01*
X89857000Y56947000D01*
X89603000Y56947000D01*
X89603000Y57354000D01*
X89602999Y57354001D01*
X89528995Y57354000D01*
X89436728Y57339387D01*
X89325525Y57282725D01*
X89325520Y57282722D01*
X89317681Y57274882D01*
X89256358Y57241397D01*
X89186666Y57246381D01*
X89142319Y57274882D01*
X89134479Y57282722D01*
X89134475Y57282725D01*
X89023265Y57339389D01*
X88931012Y57354000D01*
X88857000Y57354000D01*
X88603000Y57354000D01*
X88602999Y57354001D01*
X88528995Y57354000D01*
X88436728Y57339387D01*
X88325525Y57282725D01*
X88325523Y57282725D01*
X88263453Y57220654D01*
X88202129Y57187170D01*
X88132438Y57192155D01*
X88113775Y57200947D01*
X88102601Y57207398D01*
X88102598Y57207399D01*
X87955924Y57246700D01*
X87955923Y57246700D01*
X87811626Y57246700D01*
X87744587Y57266385D01*
X87737326Y57271426D01*
X87647331Y57338796D01*
X87647328Y57338798D01*
X87512486Y57389090D01*
X87512485Y57389091D01*
X87512483Y57389091D01*
X87452873Y57395500D01*
X87452863Y57395500D01*
X87007133Y57395500D01*
X87007121Y57395499D01*
X86993248Y57394008D01*
X86966756Y57394009D01*
X86952889Y57395499D01*
X86952875Y57395500D01*
X86952873Y57395500D01*
X86952870Y57395500D01*
X86507133Y57395500D01*
X86507121Y57395499D01*
X86493248Y57394008D01*
X86478823Y57393305D01*
X86472756Y57393363D01*
X86452873Y57395500D01*
X86248289Y57395500D01*
X86247659Y57395506D01*
X86214776Y57405503D01*
X86181801Y57415185D01*
X86181119Y57415734D01*
X86180810Y57415828D01*
X86180390Y57416322D01*
X86161159Y57431818D01*
X86129498Y57463479D01*
X86084102Y57508875D01*
X85829437Y57763540D01*
X85795952Y57824863D01*
X85800936Y57894555D01*
X85842808Y57950488D01*
X85908272Y57974905D01*
X85964570Y57965783D01*
X85992590Y57954176D01*
X86147240Y57923414D01*
X86147243Y57923413D01*
X86147245Y57923413D01*
X86304931Y57923413D01*
X86304932Y57923414D01*
X86459584Y57954176D01*
X86605266Y58014519D01*
X86736376Y58102124D01*
X86847876Y58213624D01*
X86935481Y58344734D01*
X86995824Y58490416D01*
X87026587Y58645071D01*
X87026587Y58802755D01*
X87026587Y58802758D01*
X87026586Y58802760D01*
X87017166Y58850117D01*
X86995824Y58957410D01*
X86982374Y58989882D01*
X86935484Y59103086D01*
X86935477Y59103099D01*
X86847876Y59234202D01*
X86847873Y59234206D01*
X86736379Y59345700D01*
X86736375Y59345703D01*
X86605272Y59433304D01*
X86605259Y59433311D01*
X86510014Y59472762D01*
X86455610Y59516603D01*
X86442905Y59539871D01*
X86436975Y59554187D01*
X86403452Y59635121D01*
X86403450Y59635123D01*
X86403450Y59635125D01*
X86315847Y59766231D01*
X86315844Y59766235D01*
X86204350Y59877729D01*
X86204346Y59877732D01*
X86073243Y59965333D01*
X86073233Y59965338D01*
X86027899Y59984116D01*
X85973496Y60027957D01*
X85960791Y60051225D01*
X85950354Y60076422D01*
X85940313Y60100664D01*
X85902100Y60192922D01*
X85902093Y60192934D01*
X85814492Y60324037D01*
X85814489Y60324041D01*
X85702995Y60435535D01*
X85702991Y60435538D01*
X85571888Y60523139D01*
X85571875Y60523146D01*
X85426204Y60583484D01*
X85426194Y60583487D01*
X85303798Y60607833D01*
X85241887Y60640218D01*
X85207313Y60700934D01*
X85211053Y60770703D01*
X85219271Y60786334D01*
X85218295Y60786831D01*
X85279388Y60906735D01*
X85294000Y60998988D01*
X85294000Y61043000D01*
X84854000Y61043000D01*
X84845314Y61045551D01*
X84836353Y61044262D01*
X84812312Y61055241D01*
X84786961Y61062685D01*
X84781033Y61069526D01*
X84772797Y61073287D01*
X84758507Y61095522D01*
X84741206Y61115489D01*
X84738918Y61126004D01*
X84735023Y61132065D01*
X84730000Y61167000D01*
X84730000Y61173000D01*
X84749685Y61240039D01*
X84802489Y61285794D01*
X84854000Y61297000D01*
X85309234Y61297000D01*
X85336991Y61312157D01*
X85385641Y61312972D01*
X85389007Y61312357D01*
X85425310Y61309500D01*
X85425318Y61309500D01*
X85834682Y61309500D01*
X85834690Y61309500D01*
X85870993Y61312357D01*
X85870995Y61312358D01*
X85870997Y61312358D01*
X85911975Y61324264D01*
X86026395Y61357506D01*
X86066879Y61381449D01*
X86134602Y61398632D01*
X86193120Y61381449D01*
G37*
%TD.AperFunction*%
%TA.AperFunction,Conductor*%
G36*
X84453712Y57503410D02*
G01*
X84476228Y57485595D01*
X84804653Y57157170D01*
X84838138Y57095847D01*
X84833154Y57026155D01*
X84820078Y57000603D01*
X84815736Y56994105D01*
X84815735Y56994104D01*
X84801000Y56920022D01*
X84801000Y56771573D01*
X84803899Y56766263D01*
X84798915Y56696571D01*
X84757043Y56640638D01*
X84695990Y56616616D01*
X84672519Y56614093D01*
X84537671Y56563798D01*
X84537668Y56563796D01*
X84415355Y56472232D01*
X84413410Y56474831D01*
X84365996Y56448962D01*
X84296306Y56453972D01*
X84270792Y56467035D01*
X84259183Y56474792D01*
X84259172Y56474798D01*
X84113501Y56535136D01*
X84113489Y56535139D01*
X83958845Y56565900D01*
X83958842Y56565900D01*
X83801158Y56565900D01*
X83801155Y56565900D01*
X83646510Y56535139D01*
X83646498Y56535136D01*
X83524222Y56484488D01*
X83521498Y56484196D01*
X83519293Y56482568D01*
X83486957Y56480482D01*
X83454752Y56477019D01*
X83452302Y56478246D01*
X83449568Y56478069D01*
X83421244Y56493793D01*
X83392273Y56508295D01*
X83390141Y56511059D01*
X83388480Y56511981D01*
X83383940Y56519099D01*
X83367526Y56540382D01*
X83363535Y56547814D01*
X83348796Y56587331D01*
X83325857Y56617973D01*
X83321456Y56626169D01*
X83316105Y56651620D01*
X83307016Y56675989D01*
X83306700Y56684836D01*
X83306700Y57358326D01*
X83326385Y57425365D01*
X83379189Y57471120D01*
X83448347Y57481064D01*
X83495239Y57463094D01*
X83495446Y57463479D01*
X83498520Y57461836D01*
X83499600Y57461422D01*
X83500819Y57460607D01*
X83500827Y57460603D01*
X83633852Y57405503D01*
X83646503Y57400263D01*
X83801153Y57369501D01*
X83801156Y57369500D01*
X83801158Y57369500D01*
X83958844Y57369500D01*
X83958845Y57369501D01*
X84113497Y57400263D01*
X84259179Y57460606D01*
X84259184Y57460610D01*
X84259187Y57460611D01*
X84319655Y57501015D01*
X84386332Y57521894D01*
X84453712Y57503410D01*
G37*
%TD.AperFunction*%
%TA.AperFunction,Conductor*%
G36*
X81037040Y64056888D02*
G01*
X81030000Y64039891D01*
X81030000Y64000109D01*
X81045224Y63963355D01*
X81073355Y63935224D01*
X81110109Y63920000D01*
X81149891Y63920000D01*
X81186645Y63935224D01*
X81214776Y63963355D01*
X81230000Y64000109D01*
X81230000Y64039891D01*
X81224407Y64053393D01*
X81263122Y64050628D01*
X81307483Y64022122D01*
X81564692Y63764912D01*
X81599653Y63825466D01*
X81610225Y63864920D01*
X81646590Y63924581D01*
X81709437Y63955110D01*
X81778812Y63946815D01*
X81832690Y63902330D01*
X81849775Y63864920D01*
X81860347Y63825464D01*
X81860348Y63825461D01*
X81895306Y63764913D01*
X82152516Y64022122D01*
X82213839Y64055607D01*
X82235857Y64054033D01*
X82230000Y64039891D01*
X82230000Y64000109D01*
X82245224Y63963355D01*
X82273355Y63935224D01*
X82310109Y63920000D01*
X82349891Y63920000D01*
X82363391Y63925593D01*
X82360622Y63886864D01*
X82332121Y63842517D01*
X82074910Y63585308D01*
X82074910Y63585307D01*
X82135459Y63550349D01*
X82135458Y63550349D01*
X82174920Y63539775D01*
X82234580Y63503410D01*
X82265109Y63440563D01*
X82256814Y63371187D01*
X82212329Y63317309D01*
X82174920Y63300225D01*
X82135462Y63289653D01*
X82074911Y63254694D01*
X82074910Y63254694D01*
X82332121Y62997484D01*
X82336459Y62989539D01*
X82343707Y62984113D01*
X82352941Y62959354D01*
X82365606Y62936161D01*
X82364960Y62927132D01*
X82368124Y62918649D01*
X82366886Y62912961D01*
X82349891Y62920000D01*
X82310109Y62920000D01*
X82273355Y62904776D01*
X82245224Y62876645D01*
X82230000Y62839891D01*
X82230000Y62800109D01*
X82245224Y62763355D01*
X82273355Y62735224D01*
X82310109Y62720000D01*
X82349891Y62720000D01*
X82363391Y62725593D01*
X82360622Y62686864D01*
X82332121Y62642517D01*
X82074910Y62385308D01*
X82074910Y62385307D01*
X82135459Y62350349D01*
X82135458Y62350349D01*
X82174920Y62339775D01*
X82234580Y62303410D01*
X82265109Y62240563D01*
X82256814Y62171187D01*
X82212329Y62117309D01*
X82174920Y62100225D01*
X82135462Y62089653D01*
X82074911Y62054694D01*
X82074910Y62054694D01*
X82332121Y61797484D01*
X82336459Y61789539D01*
X82343707Y61784113D01*
X82352941Y61759354D01*
X82365606Y61736161D01*
X82364960Y61727132D01*
X82368124Y61718649D01*
X82366886Y61712961D01*
X82349891Y61720000D01*
X82310109Y61720000D01*
X82273355Y61704776D01*
X82245224Y61676645D01*
X82230000Y61639891D01*
X82230000Y61600109D01*
X82245224Y61563355D01*
X82273355Y61535224D01*
X82310109Y61520000D01*
X82349891Y61520000D01*
X82363391Y61525593D01*
X82360622Y61486864D01*
X82332121Y61442517D01*
X82074910Y61185308D01*
X82074910Y61185307D01*
X82135459Y61150349D01*
X82135458Y61150349D01*
X82174920Y61139775D01*
X82234580Y61103410D01*
X82265109Y61040563D01*
X82256814Y60971187D01*
X82212329Y60917309D01*
X82174920Y60900225D01*
X82135462Y60889653D01*
X82074911Y60854694D01*
X82074910Y60854694D01*
X82332121Y60597484D01*
X82336459Y60589539D01*
X82343707Y60584113D01*
X82352941Y60559354D01*
X82365606Y60536161D01*
X82364960Y60527132D01*
X82368124Y60518649D01*
X82366886Y60512961D01*
X82349891Y60520000D01*
X82310109Y60520000D01*
X82273355Y60504776D01*
X82245224Y60476645D01*
X82230000Y60439891D01*
X82230000Y60400109D01*
X82235592Y60386609D01*
X82196863Y60389378D01*
X82152516Y60417879D01*
X81895306Y60675090D01*
X81895306Y60675089D01*
X81860347Y60614538D01*
X81849775Y60575080D01*
X81813410Y60515420D01*
X81750563Y60484891D01*
X81681187Y60493186D01*
X81627309Y60537671D01*
X81610225Y60575080D01*
X81599651Y60614541D01*
X81564693Y60675090D01*
X81307483Y60417879D01*
X81299537Y60413541D01*
X81294112Y60406293D01*
X81269352Y60397059D01*
X81246160Y60384394D01*
X81237130Y60385040D01*
X81228648Y60381876D01*
X81222960Y60383114D01*
X81230000Y60400109D01*
X81230000Y60439891D01*
X81214776Y60476645D01*
X81186645Y60504776D01*
X81149891Y60520000D01*
X81110109Y60520000D01*
X81073355Y60504776D01*
X81045224Y60476645D01*
X81030000Y60439891D01*
X81030000Y60400109D01*
X81035592Y60386609D01*
X80996863Y60389378D01*
X80952516Y60417879D01*
X80695306Y60675090D01*
X80695306Y60675089D01*
X80660347Y60614538D01*
X80649775Y60575080D01*
X80613410Y60515420D01*
X80550563Y60484891D01*
X80481187Y60493186D01*
X80427309Y60537671D01*
X80410225Y60575080D01*
X80399651Y60614541D01*
X80364693Y60675090D01*
X80107483Y60417879D01*
X80099537Y60413541D01*
X80094112Y60406293D01*
X80069352Y60397059D01*
X80046160Y60384394D01*
X80037130Y60385040D01*
X80028648Y60381876D01*
X80022960Y60383114D01*
X80030000Y60400109D01*
X80030000Y60439891D01*
X80014776Y60476645D01*
X79986645Y60504776D01*
X79949891Y60520000D01*
X79910109Y60520000D01*
X79873355Y60504776D01*
X79845224Y60476645D01*
X79830000Y60439891D01*
X79830000Y60400109D01*
X79835592Y60386609D01*
X79796863Y60389378D01*
X79752516Y60417879D01*
X79495306Y60675090D01*
X79495306Y60675089D01*
X79460347Y60614538D01*
X79449775Y60575080D01*
X79413410Y60515420D01*
X79350563Y60484891D01*
X79281187Y60493186D01*
X79227309Y60537671D01*
X79210225Y60575080D01*
X79199651Y60614541D01*
X79164693Y60675090D01*
X78907483Y60417879D01*
X78899537Y60413541D01*
X78894112Y60406293D01*
X78869352Y60397059D01*
X78846160Y60384394D01*
X78837130Y60385040D01*
X78828648Y60381876D01*
X78822960Y60383114D01*
X78830000Y60400109D01*
X78830000Y60439891D01*
X78814776Y60476645D01*
X78786645Y60504776D01*
X78749891Y60520000D01*
X78710109Y60520000D01*
X78696607Y60514408D01*
X78699377Y60553137D01*
X78727878Y60597484D01*
X78985087Y60854694D01*
X78924539Y60889652D01*
X78924536Y60889653D01*
X78885080Y60900225D01*
X78825419Y60936590D01*
X78794890Y60999437D01*
X78803185Y61068812D01*
X78847670Y61122690D01*
X78885080Y61139775D01*
X78924534Y61150347D01*
X78985086Y61185307D01*
X79674910Y61185307D01*
X79735459Y61150349D01*
X79735458Y61150349D01*
X79774920Y61139775D01*
X79834580Y61103410D01*
X79865109Y61040563D01*
X79856814Y60971187D01*
X79812329Y60917309D01*
X79774920Y60900225D01*
X79735462Y60889653D01*
X79674911Y60854694D01*
X79674910Y60854694D01*
X79929999Y60599606D01*
X80185088Y60854694D01*
X80124539Y60889652D01*
X80124536Y60889653D01*
X80085080Y60900225D01*
X80025419Y60936590D01*
X79994890Y60999437D01*
X80003185Y61068812D01*
X80047670Y61122690D01*
X80085080Y61139775D01*
X80124534Y61150347D01*
X80185086Y61185307D01*
X80874910Y61185307D01*
X80935459Y61150349D01*
X80935458Y61150349D01*
X80974920Y61139775D01*
X81034580Y61103410D01*
X81065109Y61040563D01*
X81056814Y60971187D01*
X81012329Y60917309D01*
X80974920Y60900225D01*
X80935462Y60889653D01*
X80874911Y60854694D01*
X80874910Y60854694D01*
X81129999Y60599606D01*
X81385088Y60854694D01*
X81324539Y60889652D01*
X81324536Y60889653D01*
X81285080Y60900225D01*
X81225419Y60936590D01*
X81194890Y60999437D01*
X81203185Y61068812D01*
X81247670Y61122690D01*
X81285080Y61139775D01*
X81324534Y61150347D01*
X81385088Y61185308D01*
X81130001Y61440395D01*
X80874910Y61185307D01*
X80185086Y61185307D01*
X80185088Y61185308D01*
X79930001Y61440395D01*
X79674910Y61185307D01*
X78985086Y61185307D01*
X78985088Y61185308D01*
X78727878Y61442517D01*
X78723536Y61450468D01*
X78716283Y61455899D01*
X78707053Y61480656D01*
X78694393Y61503840D01*
X78695039Y61512878D01*
X78691874Y61521367D01*
X78693109Y61527042D01*
X78710109Y61520000D01*
X78749891Y61520000D01*
X78786645Y61535224D01*
X78814776Y61563355D01*
X78830000Y61600109D01*
X78830000Y61620001D01*
X78909603Y61620001D01*
X79164692Y61364912D01*
X79199653Y61425466D01*
X79210225Y61464920D01*
X79246590Y61524581D01*
X79309437Y61555110D01*
X79378812Y61546815D01*
X79432690Y61502330D01*
X79449775Y61464920D01*
X79460347Y61425464D01*
X79460348Y61425461D01*
X79495306Y61364913D01*
X79495307Y61364912D01*
X79750394Y61619999D01*
X79750394Y61620000D01*
X79730503Y61639891D01*
X79830000Y61639891D01*
X79830000Y61600109D01*
X79845224Y61563355D01*
X79873355Y61535224D01*
X79910109Y61520000D01*
X79949891Y61520000D01*
X79986645Y61535224D01*
X80014776Y61563355D01*
X80030000Y61600109D01*
X80030000Y61620000D01*
X80109605Y61620000D01*
X80109605Y61619999D01*
X80364692Y61364912D01*
X80399653Y61425466D01*
X80410225Y61464920D01*
X80446590Y61524581D01*
X80509437Y61555110D01*
X80578812Y61546815D01*
X80632690Y61502330D01*
X80649775Y61464920D01*
X80660347Y61425464D01*
X80660348Y61425461D01*
X80695306Y61364913D01*
X80695307Y61364912D01*
X80950394Y61619999D01*
X80950394Y61620000D01*
X80930503Y61639891D01*
X81030000Y61639891D01*
X81030000Y61600109D01*
X81045224Y61563355D01*
X81073355Y61535224D01*
X81110109Y61520000D01*
X81149891Y61520000D01*
X81186645Y61535224D01*
X81214776Y61563355D01*
X81230000Y61600109D01*
X81230000Y61620000D01*
X81309605Y61620000D01*
X81309605Y61619999D01*
X81564692Y61364912D01*
X81599653Y61425466D01*
X81610225Y61464920D01*
X81646590Y61524581D01*
X81709437Y61555110D01*
X81778812Y61546815D01*
X81832690Y61502330D01*
X81849775Y61464920D01*
X81860347Y61425464D01*
X81860348Y61425461D01*
X81895306Y61364913D01*
X82150394Y61620001D01*
X81895306Y61875090D01*
X81895306Y61875089D01*
X81860347Y61814538D01*
X81849775Y61775080D01*
X81813410Y61715420D01*
X81750563Y61684891D01*
X81681187Y61693186D01*
X81627309Y61737671D01*
X81610225Y61775080D01*
X81599651Y61814541D01*
X81564693Y61875090D01*
X81309605Y61620000D01*
X81230000Y61620000D01*
X81230000Y61639891D01*
X81214776Y61676645D01*
X81186645Y61704776D01*
X81149891Y61720000D01*
X81110109Y61720000D01*
X81073355Y61704776D01*
X81045224Y61676645D01*
X81030000Y61639891D01*
X80930503Y61639891D01*
X80695305Y61875089D01*
X80660347Y61814538D01*
X80649775Y61775080D01*
X80613410Y61715420D01*
X80550563Y61684891D01*
X80481187Y61693186D01*
X80427309Y61737671D01*
X80410225Y61775080D01*
X80399651Y61814541D01*
X80364693Y61875090D01*
X80109605Y61620000D01*
X80030000Y61620000D01*
X80030000Y61639891D01*
X80014776Y61676645D01*
X79986645Y61704776D01*
X79949891Y61720000D01*
X79910109Y61720000D01*
X79873355Y61704776D01*
X79845224Y61676645D01*
X79830000Y61639891D01*
X79730503Y61639891D01*
X79495305Y61875089D01*
X79460347Y61814538D01*
X79449775Y61775080D01*
X79413410Y61715420D01*
X79350563Y61684891D01*
X79281187Y61693186D01*
X79227309Y61737671D01*
X79210225Y61775080D01*
X79199651Y61814541D01*
X79164693Y61875090D01*
X78909603Y61620001D01*
X78830000Y61620001D01*
X78830000Y61639891D01*
X78814776Y61676645D01*
X78786645Y61704776D01*
X78749891Y61720000D01*
X78710109Y61720000D01*
X78696607Y61714408D01*
X78699377Y61753137D01*
X78727878Y61797484D01*
X78985087Y62054694D01*
X78924539Y62089652D01*
X78924536Y62089653D01*
X78885080Y62100225D01*
X78825419Y62136590D01*
X78794890Y62199437D01*
X78803185Y62268812D01*
X78847670Y62322690D01*
X78885080Y62339775D01*
X78924534Y62350347D01*
X78985086Y62385307D01*
X79674910Y62385307D01*
X79735459Y62350349D01*
X79735458Y62350349D01*
X79774920Y62339775D01*
X79834580Y62303410D01*
X79865109Y62240563D01*
X79856814Y62171187D01*
X79812329Y62117309D01*
X79774920Y62100225D01*
X79735462Y62089653D01*
X79674911Y62054694D01*
X79930000Y61799606D01*
X80185088Y62054693D01*
X80185087Y62054694D01*
X80124539Y62089652D01*
X80124536Y62089653D01*
X80085080Y62100225D01*
X80025419Y62136590D01*
X79994890Y62199437D01*
X80003185Y62268812D01*
X80047670Y62322690D01*
X80085080Y62339775D01*
X80124534Y62350347D01*
X80185086Y62385307D01*
X80874910Y62385307D01*
X80935459Y62350349D01*
X80935458Y62350349D01*
X80974920Y62339775D01*
X81034580Y62303410D01*
X81065109Y62240563D01*
X81056814Y62171187D01*
X81012329Y62117309D01*
X80974920Y62100225D01*
X80935462Y62089653D01*
X80874911Y62054694D01*
X81130000Y61799606D01*
X81385088Y62054693D01*
X81385087Y62054694D01*
X81324539Y62089652D01*
X81324536Y62089653D01*
X81285080Y62100225D01*
X81225419Y62136590D01*
X81194890Y62199437D01*
X81203185Y62268812D01*
X81247670Y62322690D01*
X81285080Y62339775D01*
X81324534Y62350347D01*
X81385088Y62385308D01*
X81130001Y62640395D01*
X80874910Y62385307D01*
X80185086Y62385307D01*
X80185088Y62385308D01*
X79930001Y62640395D01*
X79674910Y62385307D01*
X78985086Y62385307D01*
X78985088Y62385308D01*
X78727878Y62642517D01*
X78723536Y62650468D01*
X78716283Y62655899D01*
X78707053Y62680656D01*
X78694393Y62703840D01*
X78695039Y62712878D01*
X78691874Y62721367D01*
X78693109Y62727042D01*
X78710109Y62720000D01*
X78749891Y62720000D01*
X78786645Y62735224D01*
X78814776Y62763355D01*
X78830000Y62800109D01*
X78830000Y62820001D01*
X78909603Y62820001D01*
X79164692Y62564912D01*
X79199653Y62625466D01*
X79210225Y62664920D01*
X79246590Y62724581D01*
X79309437Y62755110D01*
X79378812Y62746815D01*
X79432690Y62702330D01*
X79449775Y62664920D01*
X79460347Y62625464D01*
X79460348Y62625461D01*
X79495306Y62564913D01*
X79495307Y62564912D01*
X79750394Y62819999D01*
X79750394Y62820000D01*
X79730503Y62839891D01*
X79830000Y62839891D01*
X79830000Y62800109D01*
X79845224Y62763355D01*
X79873355Y62735224D01*
X79910109Y62720000D01*
X79949891Y62720000D01*
X79986645Y62735224D01*
X80014776Y62763355D01*
X80030000Y62800109D01*
X80030000Y62820000D01*
X80109605Y62820000D01*
X80109605Y62819999D01*
X80364692Y62564912D01*
X80399653Y62625466D01*
X80410225Y62664920D01*
X80446590Y62724581D01*
X80509437Y62755110D01*
X80578812Y62746815D01*
X80632690Y62702330D01*
X80649775Y62664920D01*
X80660347Y62625464D01*
X80660348Y62625461D01*
X80695306Y62564913D01*
X80695307Y62564912D01*
X80950394Y62819999D01*
X80950394Y62820000D01*
X80930503Y62839891D01*
X81030000Y62839891D01*
X81030000Y62800109D01*
X81045224Y62763355D01*
X81073355Y62735224D01*
X81110109Y62720000D01*
X81149891Y62720000D01*
X81186645Y62735224D01*
X81214776Y62763355D01*
X81230000Y62800109D01*
X81230000Y62820000D01*
X81309605Y62820000D01*
X81309605Y62819999D01*
X81564692Y62564912D01*
X81599653Y62625466D01*
X81610225Y62664920D01*
X81646590Y62724581D01*
X81709437Y62755110D01*
X81778812Y62746815D01*
X81832690Y62702330D01*
X81849775Y62664920D01*
X81860347Y62625464D01*
X81860348Y62625461D01*
X81895306Y62564913D01*
X82150394Y62820001D01*
X81895306Y63075090D01*
X81895306Y63075089D01*
X81860347Y63014538D01*
X81849775Y62975080D01*
X81813410Y62915420D01*
X81750563Y62884891D01*
X81681187Y62893186D01*
X81627309Y62937671D01*
X81610225Y62975080D01*
X81599651Y63014541D01*
X81564693Y63075090D01*
X81309605Y62820000D01*
X81230000Y62820000D01*
X81230000Y62839891D01*
X81214776Y62876645D01*
X81186645Y62904776D01*
X81149891Y62920000D01*
X81110109Y62920000D01*
X81073355Y62904776D01*
X81045224Y62876645D01*
X81030000Y62839891D01*
X80930503Y62839891D01*
X80695306Y63075089D01*
X80660347Y63014538D01*
X80649775Y62975080D01*
X80613410Y62915420D01*
X80550563Y62884891D01*
X80481187Y62893186D01*
X80427309Y62937671D01*
X80410225Y62975080D01*
X80399651Y63014541D01*
X80364693Y63075090D01*
X80109605Y62820000D01*
X80030000Y62820000D01*
X80030000Y62839891D01*
X80014776Y62876645D01*
X79986645Y62904776D01*
X79949891Y62920000D01*
X79910109Y62920000D01*
X79873355Y62904776D01*
X79845224Y62876645D01*
X79830000Y62839891D01*
X79730503Y62839891D01*
X79495305Y63075089D01*
X79460347Y63014538D01*
X79449775Y62975080D01*
X79413410Y62915420D01*
X79350563Y62884891D01*
X79281187Y62893186D01*
X79227309Y62937671D01*
X79210225Y62975080D01*
X79199651Y63014541D01*
X79164693Y63075090D01*
X78909603Y62820001D01*
X78830000Y62820001D01*
X78830000Y62839891D01*
X78814776Y62876645D01*
X78786645Y62904776D01*
X78749891Y62920000D01*
X78710109Y62920000D01*
X78696607Y62914408D01*
X78699377Y62953137D01*
X78727878Y62997484D01*
X78985087Y63254694D01*
X78924539Y63289652D01*
X78924536Y63289653D01*
X78885080Y63300225D01*
X78825419Y63336590D01*
X78794890Y63399437D01*
X78803185Y63468812D01*
X78847670Y63522690D01*
X78885080Y63539775D01*
X78924534Y63550347D01*
X78985088Y63585308D01*
X79674910Y63585308D01*
X79674910Y63585307D01*
X79735459Y63550349D01*
X79735458Y63550349D01*
X79774920Y63539775D01*
X79834580Y63503410D01*
X79865109Y63440563D01*
X79856814Y63371187D01*
X79812329Y63317309D01*
X79774920Y63300225D01*
X79735462Y63289653D01*
X79674911Y63254694D01*
X79930000Y62999606D01*
X80185088Y63254693D01*
X80185087Y63254694D01*
X80124539Y63289652D01*
X80124536Y63289653D01*
X80085080Y63300225D01*
X80025419Y63336590D01*
X79994890Y63399437D01*
X80003185Y63468812D01*
X80047670Y63522690D01*
X80085080Y63539775D01*
X80124534Y63550347D01*
X80185088Y63585308D01*
X80874910Y63585308D01*
X80874910Y63585307D01*
X80935459Y63550349D01*
X80935458Y63550349D01*
X80974920Y63539775D01*
X81034580Y63503410D01*
X81065109Y63440563D01*
X81056814Y63371187D01*
X81012329Y63317309D01*
X80974920Y63300225D01*
X80935462Y63289653D01*
X80874911Y63254694D01*
X81130000Y62999606D01*
X81385088Y63254693D01*
X81385087Y63254694D01*
X81324539Y63289652D01*
X81324536Y63289653D01*
X81285080Y63300225D01*
X81225419Y63336590D01*
X81194890Y63399437D01*
X81203185Y63468812D01*
X81247670Y63522690D01*
X81285080Y63539775D01*
X81324534Y63550347D01*
X81385088Y63585308D01*
X81129999Y63840397D01*
X80874910Y63585308D01*
X80185088Y63585308D01*
X79929999Y63840397D01*
X79674910Y63585308D01*
X78985088Y63585308D01*
X78727878Y63842517D01*
X78723539Y63850463D01*
X78716292Y63855888D01*
X78707057Y63880648D01*
X78694393Y63903840D01*
X78695038Y63912870D01*
X78691875Y63921352D01*
X78693112Y63927041D01*
X78710109Y63920000D01*
X78749891Y63920000D01*
X78786645Y63935224D01*
X78814776Y63963355D01*
X78830000Y64000109D01*
X78830000Y64039891D01*
X78824407Y64053393D01*
X78863136Y64050623D01*
X78907483Y64022122D01*
X79164692Y63764912D01*
X79199653Y63825466D01*
X79210225Y63864920D01*
X79246590Y63924581D01*
X79309437Y63955110D01*
X79378812Y63946815D01*
X79432690Y63902330D01*
X79449775Y63864920D01*
X79460347Y63825464D01*
X79460348Y63825461D01*
X79495306Y63764913D01*
X79752516Y64022122D01*
X79760461Y64026461D01*
X79765887Y64033708D01*
X79790646Y64042943D01*
X79813839Y64055607D01*
X79822868Y64054962D01*
X79831351Y64058125D01*
X79837040Y64056888D01*
X79830000Y64039891D01*
X79830000Y64000109D01*
X79845224Y63963355D01*
X79873355Y63935224D01*
X79910109Y63920000D01*
X79949891Y63920000D01*
X79986645Y63935224D01*
X80014776Y63963355D01*
X80030000Y64000109D01*
X80030000Y64039891D01*
X80024407Y64053393D01*
X80063122Y64050628D01*
X80107483Y64022122D01*
X80364692Y63764912D01*
X80399653Y63825466D01*
X80410225Y63864920D01*
X80446590Y63924581D01*
X80509437Y63955110D01*
X80578812Y63946815D01*
X80632690Y63902330D01*
X80649775Y63864920D01*
X80660347Y63825464D01*
X80660348Y63825461D01*
X80695306Y63764913D01*
X80952516Y64022122D01*
X80960461Y64026461D01*
X80965887Y64033708D01*
X80990646Y64042943D01*
X81013839Y64055607D01*
X81022868Y64054962D01*
X81031351Y64058125D01*
X81037040Y64056888D01*
G37*
%TD.AperFunction*%
%TA.AperFunction,Conductor*%
G36*
X88200057Y65115572D02*
G01*
X88231250Y65053052D01*
X88233191Y65031195D01*
X88233191Y64649500D01*
X88213506Y64582461D01*
X88160702Y64536706D01*
X88110719Y64525833D01*
X88110724Y64525765D01*
X88110273Y64525736D01*
X88109191Y64525500D01*
X88106666Y64525500D01*
X87975841Y64508276D01*
X87848670Y64474200D01*
X87726749Y64423698D01*
X87726748Y64423697D01*
X87612750Y64357880D01*
X87612733Y64357869D01*
X87576454Y64330031D01*
X87576455Y64330031D01*
X87533274Y64296898D01*
X87533275Y64296897D01*
X87508053Y64277543D01*
X87508045Y64277536D01*
X87414964Y64184455D01*
X87414955Y64184445D01*
X87334632Y64079768D01*
X87334620Y64079750D01*
X87268803Y63965752D01*
X87268802Y63965751D01*
X87218300Y63843830D01*
X87184224Y63716659D01*
X87167000Y63585834D01*
X87167000Y63006798D01*
X87160694Y62985324D01*
X87159008Y62963000D01*
X87151039Y62952445D01*
X87147315Y62939759D01*
X87130400Y62925103D01*
X87116913Y62907235D01*
X87104504Y62902664D01*
X87094511Y62894004D01*
X87072355Y62890819D01*
X87051352Y62883080D01*
X87032617Y62885105D01*
X87025353Y62884060D01*
X87016158Y62885738D01*
X87012236Y62886608D01*
X86870993Y62927643D01*
X86834690Y62930500D01*
X86814280Y62930500D01*
X86801020Y62933440D01*
X86781836Y62944015D01*
X86760823Y62950185D01*
X86740181Y62966819D01*
X86714000Y62993000D01*
X86304000Y62993000D01*
X86236961Y63012685D01*
X86191206Y63065489D01*
X86180000Y63117000D01*
X86180000Y63120000D01*
X86177000Y63120000D01*
X86109961Y63139685D01*
X86064206Y63192489D01*
X86053000Y63244000D01*
X86053000Y63742638D01*
X86072685Y63809677D01*
X86073000Y63810068D01*
X86073000Y63996000D01*
X86075550Y64004686D01*
X86074262Y64013647D01*
X86085240Y64037688D01*
X86092685Y64063039D01*
X86099525Y64068967D01*
X86103287Y64077203D01*
X86125521Y64091493D01*
X86145489Y64108794D01*
X86156003Y64111082D01*
X86162065Y64114977D01*
X86197000Y64120000D01*
X86203000Y64120000D01*
X86270039Y64100315D01*
X86315794Y64047511D01*
X86327000Y63996000D01*
X86327000Y63497362D01*
X86307315Y63430323D01*
X86307000Y63429933D01*
X86307000Y63247000D01*
X86713999Y63247000D01*
X86713999Y63321006D01*
X86699386Y63413272D01*
X86642724Y63524475D01*
X86636987Y63532373D01*
X86638708Y63533624D01*
X86611396Y63583643D01*
X86616380Y63653335D01*
X86644884Y63697686D01*
X86662725Y63715526D01*
X86719388Y63826735D01*
X86734000Y63918988D01*
X86734000Y63993000D01*
X86456070Y63993000D01*
X86441131Y63997387D01*
X86425571Y63996809D01*
X86408289Y64007030D01*
X86389031Y64012685D01*
X86378836Y64024450D01*
X86365432Y64032378D01*
X86356419Y64050321D01*
X86343276Y64065489D01*
X86341060Y64080900D01*
X86334071Y64094814D01*
X86336189Y64114777D01*
X86333332Y64134647D01*
X86339800Y64148811D01*
X86341443Y64164294D01*
X86354017Y64179943D01*
X86362357Y64198203D01*
X86376060Y64207373D01*
X86385209Y64218758D01*
X86412671Y64231873D01*
X86416748Y64234600D01*
X86419103Y64235388D01*
X86426395Y64237506D01*
X86427638Y64238242D01*
X86434692Y64240600D01*
X86444948Y64240981D01*
X86474014Y64247000D01*
X86733999Y64247000D01*
X86733999Y64312001D01*
X86753684Y64379040D01*
X86806488Y64424795D01*
X86857998Y64436001D01*
X86902999Y64436002D01*
X86903000Y64436002D01*
X86903000Y64876000D01*
X86905550Y64884686D01*
X86904262Y64893647D01*
X86915240Y64917688D01*
X86922685Y64943039D01*
X86929525Y64948967D01*
X86933287Y64957203D01*
X86955521Y64971493D01*
X86975489Y64988794D01*
X86986003Y64991082D01*
X86992065Y64994977D01*
X87027000Y65000000D01*
X87033000Y65000000D01*
X87100039Y64980315D01*
X87145794Y64927511D01*
X87157000Y64876000D01*
X87157000Y64436001D01*
X87201005Y64436001D01*
X87293272Y64450614D01*
X87391337Y64500582D01*
X87419029Y64521831D01*
X87492724Y64595525D01*
X87549388Y64706735D01*
X87564000Y64798988D01*
X87564000Y64873000D01*
X87549180Y64887820D01*
X87515695Y64949143D01*
X87520679Y65018835D01*
X87562551Y65074768D01*
X87628015Y65099185D01*
X87636861Y65099501D01*
X87850002Y65099501D01*
X87850008Y65099501D01*
X87952797Y65110001D01*
X88070189Y65148902D01*
X88140015Y65151303D01*
X88200057Y65115572D01*
G37*
%TD.AperFunction*%
%TD*%
M02*
