%TF.GenerationSoftware,KiCad,Pcbnew,9.0.3-9.0.3-0~ubuntu24.04.1*%
%TF.CreationDate,2025-07-10T10:20:05-04:00*%
%TF.ProjectId,tire_sensor,74697265-5f73-4656-9e73-6f722e6b6963,rev?*%
%TF.SameCoordinates,Original*%
%TF.FileFunction,Legend,Top*%
%TF.FilePolarity,Positive*%
%FSLAX46Y46*%
G04 Gerber Fmt 4.6, Leading zero omitted, Abs format (unit mm)*
G04 Created by KiCad (PCBNEW 9.0.3-9.0.3-0~ubuntu24.04.1) date 2025-07-10 10:20:05*
%MOMM*%
%LPD*%
G01*
G04 APERTURE LIST*
G04 Aperture macros list*
%AMRoundRect*
0 Rectangle with rounded corners*
0 $1 Rounding radius*
0 $2 $3 $4 $5 $6 $7 $8 $9 X,Y pos of 4 corners*
0 Add a 4 corners polygon primitive as box body*
4,1,4,$2,$3,$4,$5,$6,$7,$8,$9,$2,$3,0*
0 Add four circle primitives for the rounded corners*
1,1,$1+$1,$2,$3*
1,1,$1+$1,$4,$5*
1,1,$1+$1,$6,$7*
1,1,$1+$1,$8,$9*
0 Add four rect primitives between the rounded corners*
20,1,$1+$1,$2,$3,$4,$5,0*
20,1,$1+$1,$4,$5,$6,$7,0*
20,1,$1+$1,$6,$7,$8,$9,0*
20,1,$1+$1,$8,$9,$2,$3,0*%
%AMFreePoly0*
4,1,43,0.598980,0.808373,0.625042,0.763232,0.626200,0.750000,0.626200,-0.750000,0.608373,-0.798980,0.563232,-0.825042,0.550000,-0.826200,0.000000,-0.826200,-0.011754,-0.821922,-0.065263,-0.821922,-0.084985,-0.819326,-0.211064,-0.785544,-0.229442,-0.777931,-0.342481,-0.712668,-0.358263,-0.700559,-0.450559,-0.608263,-0.462668,-0.592481,-0.527931,-0.479442,-0.535544,-0.461064,-0.569326,-0.334985,
-0.571922,-0.315263,-0.571922,-0.268636,-0.575042,-0.263232,-0.576200,-0.250000,-0.576200,0.250000,-0.571922,0.261753,-0.571922,0.315263,-0.569326,0.334985,-0.535544,0.461064,-0.527931,0.479442,-0.462668,0.592481,-0.450559,0.608263,-0.358263,0.700559,-0.342481,0.712668,-0.229442,0.777931,-0.211064,0.785544,-0.084985,0.819326,-0.065263,0.821922,-0.018636,0.821922,-0.013232,0.825042,
0.000000,0.826200,0.550000,0.826200,0.598980,0.808373,0.598980,0.808373,$1*%
%AMFreePoly1*
4,1,43,0.011754,0.821922,0.065263,0.821922,0.084985,0.819326,0.211064,0.785544,0.229442,0.777931,0.342481,0.712668,0.358263,0.700559,0.450559,0.608263,0.462668,0.592481,0.527931,0.479442,0.535544,0.461064,0.569326,0.334985,0.571922,0.315263,0.571922,0.268636,0.575042,0.263232,0.576200,0.250000,0.576200,-0.250000,0.571922,-0.261753,0.571922,-0.315263,0.569326,-0.334985,
0.535544,-0.461064,0.527931,-0.479442,0.462668,-0.592481,0.450559,-0.608263,0.358263,-0.700559,0.342481,-0.712668,0.229442,-0.777931,0.211064,-0.785544,0.084985,-0.819326,0.065263,-0.821922,0.018636,-0.821922,0.013232,-0.825042,0.000000,-0.826200,-0.550000,-0.826200,-0.598980,-0.808373,-0.625042,-0.763232,-0.626200,-0.750000,-0.626200,0.750000,-0.608373,0.798980,-0.563232,0.825042,
-0.550000,0.826200,0.000000,0.826200,0.011754,0.821922,0.011754,0.821922,$1*%
G04 Aperture macros list end*
%ADD10C,0.100000*%
%ADD11C,0.050000*%
%ADD12C,0.120000*%
%ADD13C,0.150000*%
%ADD14C,0.200000*%
%ADD15C,0.127000*%
%ADD16C,0.250000*%
%ADD17C,0.010000*%
%ADD18RoundRect,0.159000X0.189000X-0.159000X0.189000X0.159000X-0.189000X0.159000X-0.189000X-0.159000X0*%
%ADD19RoundRect,0.159000X0.159000X0.189000X-0.159000X0.189000X-0.159000X-0.189000X0.159000X-0.189000X0*%
%ADD20RoundRect,0.159000X-0.159000X-0.189000X0.159000X-0.189000X0.159000X0.189000X-0.159000X0.189000X0*%
%ADD21RoundRect,0.269000X0.494000X-0.269000X0.494000X0.269000X-0.494000X0.269000X-0.494000X-0.269000X0*%
%ADD22FreePoly0,90.000000*%
%ADD23RoundRect,0.076200X0.750000X-0.500000X0.750000X0.500000X-0.750000X0.500000X-0.750000X-0.500000X0*%
%ADD24FreePoly1,90.000000*%
%ADD25C,1.143000*%
%ADD26C,0.939800*%
%ADD27RoundRect,0.088100X-0.388100X-0.088100X0.388100X-0.088100X0.388100X0.088100X-0.388100X0.088100X0*%
%ADD28RoundRect,0.088100X-0.088100X-0.388100X0.088100X-0.388100X0.088100X0.388100X-0.088100X0.388100X0*%
%ADD29RoundRect,0.076200X-2.300000X-2.300000X2.300000X-2.300000X2.300000X2.300000X-2.300000X2.300000X0*%
%ADD30RoundRect,0.244000X0.244000X0.269000X-0.244000X0.269000X-0.244000X-0.269000X0.244000X-0.269000X0*%
%ADD31RoundRect,0.159000X-0.189000X0.159000X-0.189000X-0.159000X0.189000X-0.159000X0.189000X0.159000X0*%
%ADD32RoundRect,0.288100X-0.288100X0.313100X-0.288100X-0.313100X0.288100X-0.313100X0.288100X0.313100X0*%
%ADD33RoundRect,0.286286X-0.314914X0.889914X-0.314914X-0.889914X0.314914X-0.889914X0.314914X0.889914X0*%
%ADD34RoundRect,0.288100X0.688100X0.288100X-0.688100X0.288100X-0.688100X-0.288100X0.688100X-0.288100X0*%
%ADD35RoundRect,0.178100X-0.178100X-0.208100X0.178100X-0.208100X0.178100X0.208100X-0.178100X0.208100X0*%
%ADD36RoundRect,0.178100X0.178100X0.208100X-0.178100X0.208100X-0.178100X-0.208100X0.178100X-0.208100X0*%
%ADD37RoundRect,0.102000X-0.425000X-0.475000X0.425000X-0.475000X0.425000X0.475000X-0.425000X0.475000X0*%
%ADD38RoundRect,0.101600X-0.175000X-0.175000X0.175000X-0.175000X0.175000X0.175000X-0.175000X0.175000X0*%
G04 APERTURE END LIST*
D10*
X75989598Y51127581D02*
X75989598Y50413296D01*
X75989598Y50413296D02*
X75941979Y50270439D01*
X75941979Y50270439D02*
X75846741Y50175200D01*
X75846741Y50175200D02*
X75703884Y50127581D01*
X75703884Y50127581D02*
X75608646Y50127581D01*
X76941979Y50127581D02*
X76465789Y50127581D01*
X76465789Y50127581D02*
X76465789Y51127581D01*
X77846741Y50222820D02*
X77799122Y50175200D01*
X77799122Y50175200D02*
X77656265Y50127581D01*
X77656265Y50127581D02*
X77561027Y50127581D01*
X77561027Y50127581D02*
X77418170Y50175200D01*
X77418170Y50175200D02*
X77322932Y50270439D01*
X77322932Y50270439D02*
X77275313Y50365677D01*
X77275313Y50365677D02*
X77227694Y50556153D01*
X77227694Y50556153D02*
X77227694Y50699010D01*
X77227694Y50699010D02*
X77275313Y50889486D01*
X77275313Y50889486D02*
X77322932Y50984724D01*
X77322932Y50984724D02*
X77418170Y51079962D01*
X77418170Y51079962D02*
X77561027Y51127581D01*
X77561027Y51127581D02*
X77656265Y51127581D01*
X77656265Y51127581D02*
X77799122Y51079962D01*
X77799122Y51079962D02*
X77846741Y51032343D01*
X78561027Y51127581D02*
X78561027Y50413296D01*
X78561027Y50413296D02*
X78513408Y50270439D01*
X78513408Y50270439D02*
X78418170Y50175200D01*
X78418170Y50175200D02*
X78275313Y50127581D01*
X78275313Y50127581D02*
X78180075Y50127581D01*
X79513408Y50127581D02*
X79037218Y50127581D01*
X79037218Y50127581D02*
X79037218Y51127581D01*
X80418170Y50222820D02*
X80370551Y50175200D01*
X80370551Y50175200D02*
X80227694Y50127581D01*
X80227694Y50127581D02*
X80132456Y50127581D01*
X80132456Y50127581D02*
X79989599Y50175200D01*
X79989599Y50175200D02*
X79894361Y50270439D01*
X79894361Y50270439D02*
X79846742Y50365677D01*
X79846742Y50365677D02*
X79799123Y50556153D01*
X79799123Y50556153D02*
X79799123Y50699010D01*
X79799123Y50699010D02*
X79846742Y50889486D01*
X79846742Y50889486D02*
X79894361Y50984724D01*
X79894361Y50984724D02*
X79989599Y51079962D01*
X79989599Y51079962D02*
X80132456Y51127581D01*
X80132456Y51127581D02*
X80227694Y51127581D01*
X80227694Y51127581D02*
X80370551Y51079962D01*
X80370551Y51079962D02*
X80418170Y51032343D01*
X81132456Y51127581D02*
X81132456Y50413296D01*
X81132456Y50413296D02*
X81084837Y50270439D01*
X81084837Y50270439D02*
X80989599Y50175200D01*
X80989599Y50175200D02*
X80846742Y50127581D01*
X80846742Y50127581D02*
X80751504Y50127581D01*
X82084837Y50127581D02*
X81608647Y50127581D01*
X81608647Y50127581D02*
X81608647Y51127581D01*
X82989599Y50222820D02*
X82941980Y50175200D01*
X82941980Y50175200D02*
X82799123Y50127581D01*
X82799123Y50127581D02*
X82703885Y50127581D01*
X82703885Y50127581D02*
X82561028Y50175200D01*
X82561028Y50175200D02*
X82465790Y50270439D01*
X82465790Y50270439D02*
X82418171Y50365677D01*
X82418171Y50365677D02*
X82370552Y50556153D01*
X82370552Y50556153D02*
X82370552Y50699010D01*
X82370552Y50699010D02*
X82418171Y50889486D01*
X82418171Y50889486D02*
X82465790Y50984724D01*
X82465790Y50984724D02*
X82561028Y51079962D01*
X82561028Y51079962D02*
X82703885Y51127581D01*
X82703885Y51127581D02*
X82799123Y51127581D01*
X82799123Y51127581D02*
X82941980Y51079962D01*
X82941980Y51079962D02*
X82989599Y51032343D01*
X83703885Y51127581D02*
X83703885Y50413296D01*
X83703885Y50413296D02*
X83656266Y50270439D01*
X83656266Y50270439D02*
X83561028Y50175200D01*
X83561028Y50175200D02*
X83418171Y50127581D01*
X83418171Y50127581D02*
X83322933Y50127581D01*
X84656266Y50127581D02*
X84180076Y50127581D01*
X84180076Y50127581D02*
X84180076Y51127581D01*
X85561028Y50222820D02*
X85513409Y50175200D01*
X85513409Y50175200D02*
X85370552Y50127581D01*
X85370552Y50127581D02*
X85275314Y50127581D01*
X85275314Y50127581D02*
X85132457Y50175200D01*
X85132457Y50175200D02*
X85037219Y50270439D01*
X85037219Y50270439D02*
X84989600Y50365677D01*
X84989600Y50365677D02*
X84941981Y50556153D01*
X84941981Y50556153D02*
X84941981Y50699010D01*
X84941981Y50699010D02*
X84989600Y50889486D01*
X84989600Y50889486D02*
X85037219Y50984724D01*
X85037219Y50984724D02*
X85132457Y51079962D01*
X85132457Y51079962D02*
X85275314Y51127581D01*
X85275314Y51127581D02*
X85370552Y51127581D01*
X85370552Y51127581D02*
X85513409Y51079962D01*
X85513409Y51079962D02*
X85561028Y51032343D01*
D11*
X83625238Y56056600D02*
X83653809Y56047077D01*
X83653809Y56047077D02*
X83701428Y56047077D01*
X83701428Y56047077D02*
X83720476Y56056600D01*
X83720476Y56056600D02*
X83730000Y56066124D01*
X83730000Y56066124D02*
X83739523Y56085172D01*
X83739523Y56085172D02*
X83739523Y56104220D01*
X83739523Y56104220D02*
X83730000Y56123267D01*
X83730000Y56123267D02*
X83720476Y56132791D01*
X83720476Y56132791D02*
X83701428Y56142315D01*
X83701428Y56142315D02*
X83663333Y56151839D01*
X83663333Y56151839D02*
X83644285Y56161362D01*
X83644285Y56161362D02*
X83634762Y56170886D01*
X83634762Y56170886D02*
X83625238Y56189934D01*
X83625238Y56189934D02*
X83625238Y56208981D01*
X83625238Y56208981D02*
X83634762Y56228029D01*
X83634762Y56228029D02*
X83644285Y56237553D01*
X83644285Y56237553D02*
X83663333Y56247077D01*
X83663333Y56247077D02*
X83710952Y56247077D01*
X83710952Y56247077D02*
X83739523Y56237553D01*
X83825238Y56047077D02*
X83825238Y56247077D01*
X83825238Y56247077D02*
X83872857Y56247077D01*
X83872857Y56247077D02*
X83901428Y56237553D01*
X83901428Y56237553D02*
X83920476Y56218505D01*
X83920476Y56218505D02*
X83929999Y56199458D01*
X83929999Y56199458D02*
X83939523Y56161362D01*
X83939523Y56161362D02*
X83939523Y56132791D01*
X83939523Y56132791D02*
X83929999Y56094696D01*
X83929999Y56094696D02*
X83920476Y56075648D01*
X83920476Y56075648D02*
X83901428Y56056600D01*
X83901428Y56056600D02*
X83872857Y56047077D01*
X83872857Y56047077D02*
X83825238Y56047077D01*
X84025238Y56047077D02*
X84025238Y56247077D01*
X83568095Y55056600D02*
X83596666Y55047077D01*
X83596666Y55047077D02*
X83644285Y55047077D01*
X83644285Y55047077D02*
X83663333Y55056600D01*
X83663333Y55056600D02*
X83672857Y55066124D01*
X83672857Y55066124D02*
X83682380Y55085172D01*
X83682380Y55085172D02*
X83682380Y55104220D01*
X83682380Y55104220D02*
X83672857Y55123267D01*
X83672857Y55123267D02*
X83663333Y55132791D01*
X83663333Y55132791D02*
X83644285Y55142315D01*
X83644285Y55142315D02*
X83606190Y55151839D01*
X83606190Y55151839D02*
X83587142Y55161362D01*
X83587142Y55161362D02*
X83577619Y55170886D01*
X83577619Y55170886D02*
X83568095Y55189934D01*
X83568095Y55189934D02*
X83568095Y55208981D01*
X83568095Y55208981D02*
X83577619Y55228029D01*
X83577619Y55228029D02*
X83587142Y55237553D01*
X83587142Y55237553D02*
X83606190Y55247077D01*
X83606190Y55247077D02*
X83653809Y55247077D01*
X83653809Y55247077D02*
X83682380Y55237553D01*
X83768095Y55047077D02*
X83768095Y55247077D01*
X83768095Y55247077D02*
X83815714Y55247077D01*
X83815714Y55247077D02*
X83844285Y55237553D01*
X83844285Y55237553D02*
X83863333Y55218505D01*
X83863333Y55218505D02*
X83872856Y55199458D01*
X83872856Y55199458D02*
X83882380Y55161362D01*
X83882380Y55161362D02*
X83882380Y55132791D01*
X83882380Y55132791D02*
X83872856Y55094696D01*
X83872856Y55094696D02*
X83863333Y55075648D01*
X83863333Y55075648D02*
X83844285Y55056600D01*
X83844285Y55056600D02*
X83815714Y55047077D01*
X83815714Y55047077D02*
X83768095Y55047077D01*
X84006190Y55247077D02*
X84044285Y55247077D01*
X84044285Y55247077D02*
X84063333Y55237553D01*
X84063333Y55237553D02*
X84082380Y55218505D01*
X84082380Y55218505D02*
X84091904Y55180410D01*
X84091904Y55180410D02*
X84091904Y55113743D01*
X84091904Y55113743D02*
X84082380Y55075648D01*
X84082380Y55075648D02*
X84063333Y55056600D01*
X84063333Y55056600D02*
X84044285Y55047077D01*
X84044285Y55047077D02*
X84006190Y55047077D01*
X84006190Y55047077D02*
X83987142Y55056600D01*
X83987142Y55056600D02*
X83968095Y55075648D01*
X83968095Y55075648D02*
X83958571Y55113743D01*
X83958571Y55113743D02*
X83958571Y55180410D01*
X83958571Y55180410D02*
X83968095Y55218505D01*
X83968095Y55218505D02*
X83987142Y55237553D01*
X83987142Y55237553D02*
X84006190Y55247077D01*
X84072857Y58456600D02*
X84101428Y58447077D01*
X84101428Y58447077D02*
X84149047Y58447077D01*
X84149047Y58447077D02*
X84168095Y58456600D01*
X84168095Y58456600D02*
X84177619Y58466124D01*
X84177619Y58466124D02*
X84187142Y58485172D01*
X84187142Y58485172D02*
X84187142Y58504220D01*
X84187142Y58504220D02*
X84177619Y58523267D01*
X84177619Y58523267D02*
X84168095Y58532791D01*
X84168095Y58532791D02*
X84149047Y58542315D01*
X84149047Y58542315D02*
X84110952Y58551839D01*
X84110952Y58551839D02*
X84091904Y58561362D01*
X84091904Y58561362D02*
X84082381Y58570886D01*
X84082381Y58570886D02*
X84072857Y58589934D01*
X84072857Y58589934D02*
X84072857Y58608981D01*
X84072857Y58608981D02*
X84082381Y58628029D01*
X84082381Y58628029D02*
X84091904Y58637553D01*
X84091904Y58637553D02*
X84110952Y58647077D01*
X84110952Y58647077D02*
X84158571Y58647077D01*
X84158571Y58647077D02*
X84187142Y58637553D01*
X84387142Y58466124D02*
X84377618Y58456600D01*
X84377618Y58456600D02*
X84349047Y58447077D01*
X84349047Y58447077D02*
X84329999Y58447077D01*
X84329999Y58447077D02*
X84301428Y58456600D01*
X84301428Y58456600D02*
X84282380Y58475648D01*
X84282380Y58475648D02*
X84272857Y58494696D01*
X84272857Y58494696D02*
X84263333Y58532791D01*
X84263333Y58532791D02*
X84263333Y58561362D01*
X84263333Y58561362D02*
X84272857Y58599458D01*
X84272857Y58599458D02*
X84282380Y58618505D01*
X84282380Y58618505D02*
X84301428Y58637553D01*
X84301428Y58637553D02*
X84329999Y58647077D01*
X84329999Y58647077D02*
X84349047Y58647077D01*
X84349047Y58647077D02*
X84377618Y58637553D01*
X84377618Y58637553D02*
X84387142Y58628029D01*
X84472857Y58447077D02*
X84472857Y58647077D01*
X84587142Y58447077D02*
X84501428Y58561362D01*
X84587142Y58647077D02*
X84472857Y58532791D01*
X79801428Y56966124D02*
X79791904Y56956600D01*
X79791904Y56956600D02*
X79763333Y56947077D01*
X79763333Y56947077D02*
X79744285Y56947077D01*
X79744285Y56947077D02*
X79715714Y56956600D01*
X79715714Y56956600D02*
X79696666Y56975648D01*
X79696666Y56975648D02*
X79687143Y56994696D01*
X79687143Y56994696D02*
X79677619Y57032791D01*
X79677619Y57032791D02*
X79677619Y57061362D01*
X79677619Y57061362D02*
X79687143Y57099458D01*
X79687143Y57099458D02*
X79696666Y57118505D01*
X79696666Y57118505D02*
X79715714Y57137553D01*
X79715714Y57137553D02*
X79744285Y57147077D01*
X79744285Y57147077D02*
X79763333Y57147077D01*
X79763333Y57147077D02*
X79791904Y57137553D01*
X79791904Y57137553D02*
X79801428Y57128029D01*
X79877619Y56956600D02*
X79906190Y56947077D01*
X79906190Y56947077D02*
X79953809Y56947077D01*
X79953809Y56947077D02*
X79972857Y56956600D01*
X79972857Y56956600D02*
X79982381Y56966124D01*
X79982381Y56966124D02*
X79991904Y56985172D01*
X79991904Y56985172D02*
X79991904Y57004220D01*
X79991904Y57004220D02*
X79982381Y57023267D01*
X79982381Y57023267D02*
X79972857Y57032791D01*
X79972857Y57032791D02*
X79953809Y57042315D01*
X79953809Y57042315D02*
X79915714Y57051839D01*
X79915714Y57051839D02*
X79896666Y57061362D01*
X79896666Y57061362D02*
X79887143Y57070886D01*
X79887143Y57070886D02*
X79877619Y57089934D01*
X79877619Y57089934D02*
X79877619Y57108981D01*
X79877619Y57108981D02*
X79887143Y57128029D01*
X79887143Y57128029D02*
X79896666Y57137553D01*
X79896666Y57137553D02*
X79915714Y57147077D01*
X79915714Y57147077D02*
X79963333Y57147077D01*
X79963333Y57147077D02*
X79991904Y57137553D01*
X80077619Y56947077D02*
X80077619Y57147077D01*
X80077619Y57147077D02*
X80125238Y57147077D01*
X80125238Y57147077D02*
X80153809Y57137553D01*
X80153809Y57137553D02*
X80172857Y57118505D01*
X80172857Y57118505D02*
X80182380Y57099458D01*
X80182380Y57099458D02*
X80191904Y57061362D01*
X80191904Y57061362D02*
X80191904Y57032791D01*
X80191904Y57032791D02*
X80182380Y56994696D01*
X80182380Y56994696D02*
X80172857Y56975648D01*
X80172857Y56975648D02*
X80153809Y56956600D01*
X80153809Y56956600D02*
X80125238Y56947077D01*
X80125238Y56947077D02*
X80077619Y56947077D01*
X80277619Y56947077D02*
X80277619Y57147077D01*
X80277619Y57147077D02*
X80353809Y57147077D01*
X80353809Y57147077D02*
X80372857Y57137553D01*
X80372857Y57137553D02*
X80382380Y57128029D01*
X80382380Y57128029D02*
X80391904Y57108981D01*
X80391904Y57108981D02*
X80391904Y57080410D01*
X80391904Y57080410D02*
X80382380Y57061362D01*
X80382380Y57061362D02*
X80372857Y57051839D01*
X80372857Y57051839D02*
X80353809Y57042315D01*
X80353809Y57042315D02*
X80277619Y57042315D01*
X80468095Y56956600D02*
X80496666Y56947077D01*
X80496666Y56947077D02*
X80544285Y56947077D01*
X80544285Y56947077D02*
X80563333Y56956600D01*
X80563333Y56956600D02*
X80572857Y56966124D01*
X80572857Y56966124D02*
X80582380Y56985172D01*
X80582380Y56985172D02*
X80582380Y57004220D01*
X80582380Y57004220D02*
X80572857Y57023267D01*
X80572857Y57023267D02*
X80563333Y57032791D01*
X80563333Y57032791D02*
X80544285Y57042315D01*
X80544285Y57042315D02*
X80506190Y57051839D01*
X80506190Y57051839D02*
X80487142Y57061362D01*
X80487142Y57061362D02*
X80477619Y57070886D01*
X80477619Y57070886D02*
X80468095Y57089934D01*
X80468095Y57089934D02*
X80468095Y57108981D01*
X80468095Y57108981D02*
X80477619Y57128029D01*
X80477619Y57128029D02*
X80487142Y57137553D01*
X80487142Y57137553D02*
X80506190Y57147077D01*
X80506190Y57147077D02*
X80553809Y57147077D01*
X80553809Y57147077D02*
X80582380Y57137553D01*
X80151428Y57566124D02*
X80141904Y57556600D01*
X80141904Y57556600D02*
X80113333Y57547077D01*
X80113333Y57547077D02*
X80094285Y57547077D01*
X80094285Y57547077D02*
X80065714Y57556600D01*
X80065714Y57556600D02*
X80046666Y57575648D01*
X80046666Y57575648D02*
X80037143Y57594696D01*
X80037143Y57594696D02*
X80027619Y57632791D01*
X80027619Y57632791D02*
X80027619Y57661362D01*
X80027619Y57661362D02*
X80037143Y57699458D01*
X80037143Y57699458D02*
X80046666Y57718505D01*
X80046666Y57718505D02*
X80065714Y57737553D01*
X80065714Y57737553D02*
X80094285Y57747077D01*
X80094285Y57747077D02*
X80113333Y57747077D01*
X80113333Y57747077D02*
X80141904Y57737553D01*
X80141904Y57737553D02*
X80151428Y57728029D01*
X80227619Y57556600D02*
X80256190Y57547077D01*
X80256190Y57547077D02*
X80303809Y57547077D01*
X80303809Y57547077D02*
X80322857Y57556600D01*
X80322857Y57556600D02*
X80332381Y57566124D01*
X80332381Y57566124D02*
X80341904Y57585172D01*
X80341904Y57585172D02*
X80341904Y57604220D01*
X80341904Y57604220D02*
X80332381Y57623267D01*
X80332381Y57623267D02*
X80322857Y57632791D01*
X80322857Y57632791D02*
X80303809Y57642315D01*
X80303809Y57642315D02*
X80265714Y57651839D01*
X80265714Y57651839D02*
X80246666Y57661362D01*
X80246666Y57661362D02*
X80237143Y57670886D01*
X80237143Y57670886D02*
X80227619Y57689934D01*
X80227619Y57689934D02*
X80227619Y57708981D01*
X80227619Y57708981D02*
X80237143Y57728029D01*
X80237143Y57728029D02*
X80246666Y57737553D01*
X80246666Y57737553D02*
X80265714Y57747077D01*
X80265714Y57747077D02*
X80313333Y57747077D01*
X80313333Y57747077D02*
X80341904Y57737553D01*
X80408571Y57747077D02*
X80532380Y57747077D01*
X80532380Y57747077D02*
X80465714Y57670886D01*
X80465714Y57670886D02*
X80494285Y57670886D01*
X80494285Y57670886D02*
X80513333Y57661362D01*
X80513333Y57661362D02*
X80522857Y57651839D01*
X80522857Y57651839D02*
X80532380Y57632791D01*
X80532380Y57632791D02*
X80532380Y57585172D01*
X80532380Y57585172D02*
X80522857Y57566124D01*
X80522857Y57566124D02*
X80513333Y57556600D01*
X80513333Y57556600D02*
X80494285Y57547077D01*
X80494285Y57547077D02*
X80437142Y57547077D01*
X80437142Y57547077D02*
X80418095Y57556600D01*
X80418095Y57556600D02*
X80408571Y57566124D01*
X80618095Y57547077D02*
X80618095Y57747077D01*
X80618095Y57747077D02*
X80665714Y57747077D01*
X80665714Y57747077D02*
X80694285Y57737553D01*
X80694285Y57737553D02*
X80713333Y57718505D01*
X80713333Y57718505D02*
X80722856Y57699458D01*
X80722856Y57699458D02*
X80732380Y57661362D01*
X80732380Y57661362D02*
X80732380Y57632791D01*
X80732380Y57632791D02*
X80722856Y57594696D01*
X80722856Y57594696D02*
X80713333Y57575648D01*
X80713333Y57575648D02*
X80694285Y57556600D01*
X80694285Y57556600D02*
X80665714Y57547077D01*
X80665714Y57547077D02*
X80618095Y57547077D01*
X79053810Y57547077D02*
X79053810Y57747077D01*
X79149048Y57547077D02*
X79149048Y57747077D01*
X79149048Y57747077D02*
X79263333Y57547077D01*
X79263333Y57547077D02*
X79263333Y57747077D01*
X79330000Y57747077D02*
X79444286Y57747077D01*
X79387143Y57547077D02*
X79387143Y57747077D01*
X79491905Y57747077D02*
X79615714Y57747077D01*
X79615714Y57747077D02*
X79549048Y57670886D01*
X79549048Y57670886D02*
X79577619Y57670886D01*
X79577619Y57670886D02*
X79596667Y57661362D01*
X79596667Y57661362D02*
X79606191Y57651839D01*
X79606191Y57651839D02*
X79615714Y57632791D01*
X79615714Y57632791D02*
X79615714Y57585172D01*
X79615714Y57585172D02*
X79606191Y57566124D01*
X79606191Y57566124D02*
X79596667Y57556600D01*
X79596667Y57556600D02*
X79577619Y57547077D01*
X79577619Y57547077D02*
X79520476Y57547077D01*
X79520476Y57547077D02*
X79501429Y57556600D01*
X79501429Y57556600D02*
X79491905Y57566124D01*
X79701429Y57547077D02*
X79701429Y57747077D01*
X79701429Y57747077D02*
X79749048Y57747077D01*
X79749048Y57747077D02*
X79777619Y57737553D01*
X79777619Y57737553D02*
X79796667Y57718505D01*
X79796667Y57718505D02*
X79806190Y57699458D01*
X79806190Y57699458D02*
X79815714Y57661362D01*
X79815714Y57661362D02*
X79815714Y57632791D01*
X79815714Y57632791D02*
X79806190Y57594696D01*
X79806190Y57594696D02*
X79796667Y57575648D01*
X79796667Y57575648D02*
X79777619Y57556600D01*
X79777619Y57556600D02*
X79749048Y57547077D01*
X79749048Y57547077D02*
X79701429Y57547077D01*
D12*
%TO.C,JP1*%
X87422500Y60820000D02*
X87422500Y63620000D01*
X88122500Y64270000D02*
X88722500Y64270000D01*
X88722500Y60170000D02*
X88122500Y60170000D01*
X89422500Y63620000D02*
X89422500Y60820000D01*
X89622500Y61020000D02*
X89922500Y61320000D01*
X89622500Y61020000D02*
X89922500Y60720000D01*
X89922500Y60720000D02*
X89922500Y61320000D01*
X87422500Y63570000D02*
G75*
G02*
X88122500Y64270000I700000J0D01*
G01*
X88122500Y60170000D02*
G75*
G02*
X87422500Y60870000I-1J699999D01*
G01*
X88722500Y64270000D02*
G75*
G02*
X89422500Y63570000I0J-700000D01*
G01*
X89422500Y60870000D02*
G75*
G02*
X88722500Y60170000I-699999J-1D01*
G01*
%TO.C,J1*%
X94290000Y52635000D02*
X94925000Y52635000D01*
X94925000Y52635000D02*
X94925000Y52000000D01*
%TO.C,U1*%
X77420000Y64780000D02*
X77420000Y65090000D01*
X77420000Y59110000D02*
X77420000Y59660000D01*
X77970000Y65330000D02*
X77720000Y65330000D01*
X77970000Y59110000D02*
X77420000Y59110000D01*
X83090000Y65330000D02*
X83640000Y65330000D01*
X83090000Y59110000D02*
X83640000Y59110000D01*
X83640000Y65330000D02*
X83640000Y64780000D01*
X83640000Y59110000D02*
X83640000Y59660000D01*
X77420000Y65330000D02*
X77180000Y65660000D01*
X77660000Y65660000D01*
X77420000Y65330000D01*
G36*
X77420000Y65330000D02*
G01*
X77180000Y65660000D01*
X77660000Y65660000D01*
X77420000Y65330000D01*
G37*
D13*
%TO.C,J2*%
X86480000Y72910000D02*
X86480000Y72840000D01*
X86480000Y70180000D02*
X86480000Y70110000D01*
X86480000Y70110000D02*
X87020000Y70110000D01*
X87020000Y72910000D02*
X86480000Y72910000D01*
X87020000Y72910000D02*
X88480000Y72910000D01*
X88480000Y70110000D02*
X89020000Y70110000D01*
X89020000Y72910000D02*
X88480000Y72910000D01*
X89020000Y72840000D02*
X89020000Y72910000D01*
X89020000Y70110000D02*
X89020000Y70180000D01*
X88320000Y71510000D02*
G75*
G02*
X87180000Y71510000I-570000J0D01*
G01*
X87180000Y71510000D02*
G75*
G02*
X88320000Y71510000I570000J0D01*
G01*
X89280000Y69960000D02*
G75*
G02*
X89220000Y69960000I-30000J0D01*
G01*
X89220000Y69960000D02*
G75*
G02*
X89280000Y69960000I30000J0D01*
G01*
%TO.C,X2*%
X72930000Y61320000D02*
X72930000Y62520000D01*
X74530000Y62520000D02*
X74530000Y61320000D01*
D12*
%TO.C,C7*%
X85592164Y64480000D02*
X85807836Y64480000D01*
X85592164Y63760000D02*
X85807836Y63760000D01*
%TO.C,C6*%
X85807836Y63480000D02*
X85592164Y63480000D01*
X85807836Y62760000D02*
X85592164Y62760000D01*
D14*
%TO.C,X1*%
X84705000Y67620000D02*
G75*
G02*
X84505000Y67620000I-100000J0D01*
G01*
X84505000Y67620000D02*
G75*
G02*
X84705000Y67620000I100000J0D01*
G01*
D15*
%TO.C,U3*%
X84730000Y56945000D02*
X84730000Y56435000D01*
X84730000Y54455000D02*
X84730000Y53945000D01*
X87730000Y56435000D02*
X87730000Y56945000D01*
X87730000Y54455000D02*
X87730000Y53945000D01*
D14*
X87605000Y57445000D02*
G75*
G02*
X87405000Y57445000I-100000J0D01*
G01*
X87405000Y57445000D02*
G75*
G02*
X87605000Y57445000I100000J0D01*
G01*
%TO.C,U2*%
X80155000Y56745000D02*
X83355000Y56745000D01*
X80155000Y54145000D02*
X80155000Y56745000D01*
X80155000Y54145000D02*
X83355000Y54145000D01*
X83355000Y54145000D02*
X83355000Y56745000D01*
D16*
X80905000Y57395000D02*
G75*
G02*
X80655000Y57395000I-125000J0D01*
G01*
X80655000Y57395000D02*
G75*
G02*
X80905000Y57395000I125000J0D01*
G01*
%TD*%
%LPC*%
%TO.C,JP1*%
G36*
X87672500Y61470000D02*
G01*
X89172500Y61470000D01*
X89172500Y62970000D01*
X87672500Y62970000D01*
X87672500Y61470000D01*
G37*
D17*
%TO.C,U3*%
X85280000Y55720000D02*
X84730000Y55720000D01*
X84730000Y56170000D01*
X85280000Y56170000D01*
X85280000Y55720000D01*
G36*
X85280000Y55720000D02*
G01*
X84730000Y55720000D01*
X84730000Y56170000D01*
X85280000Y56170000D01*
X85280000Y55720000D01*
G37*
X85280000Y55220000D02*
X84730000Y55220000D01*
X84730000Y55670000D01*
X85280000Y55670000D01*
X85280000Y55220000D01*
G36*
X85280000Y55220000D02*
G01*
X84730000Y55220000D01*
X84730000Y55670000D01*
X85280000Y55670000D01*
X85280000Y55220000D01*
G37*
X85280000Y54720000D02*
X84730000Y54720000D01*
X84730000Y55170000D01*
X85280000Y55170000D01*
X85280000Y54720000D01*
G36*
X85280000Y54720000D02*
G01*
X84730000Y54720000D01*
X84730000Y55170000D01*
X85280000Y55170000D01*
X85280000Y54720000D01*
G37*
X85455000Y56395000D02*
X85005000Y56395000D01*
X85005000Y56945000D01*
X85455000Y56945000D01*
X85455000Y56395000D01*
G36*
X85455000Y56395000D02*
G01*
X85005000Y56395000D01*
X85005000Y56945000D01*
X85455000Y56945000D01*
X85455000Y56395000D01*
G37*
X85455000Y53945000D02*
X85005000Y53945000D01*
X85005000Y54495000D01*
X85455000Y54495000D01*
X85455000Y53945000D01*
G36*
X85455000Y53945000D02*
G01*
X85005000Y53945000D01*
X85005000Y54495000D01*
X85455000Y54495000D01*
X85455000Y53945000D01*
G37*
X85955000Y56395000D02*
X85505000Y56395000D01*
X85505000Y56945000D01*
X85955000Y56945000D01*
X85955000Y56395000D01*
G36*
X85955000Y56395000D02*
G01*
X85505000Y56395000D01*
X85505000Y56945000D01*
X85955000Y56945000D01*
X85955000Y56395000D01*
G37*
X85955000Y53945000D02*
X85505000Y53945000D01*
X85505000Y54495000D01*
X85955000Y54495000D01*
X85955000Y53945000D01*
G36*
X85955000Y53945000D02*
G01*
X85505000Y53945000D01*
X85505000Y54495000D01*
X85955000Y54495000D01*
X85955000Y53945000D01*
G37*
X86455000Y56395000D02*
X86005000Y56395000D01*
X86005000Y56945000D01*
X86455000Y56945000D01*
X86455000Y56395000D01*
G36*
X86455000Y56395000D02*
G01*
X86005000Y56395000D01*
X86005000Y56945000D01*
X86455000Y56945000D01*
X86455000Y56395000D01*
G37*
X86455000Y53945000D02*
X86005000Y53945000D01*
X86005000Y54495000D01*
X86455000Y54495000D01*
X86455000Y53945000D01*
G36*
X86455000Y53945000D02*
G01*
X86005000Y53945000D01*
X86005000Y54495000D01*
X86455000Y54495000D01*
X86455000Y53945000D01*
G37*
X86955000Y56395000D02*
X86505000Y56395000D01*
X86505000Y56945000D01*
X86955000Y56945000D01*
X86955000Y56395000D01*
G36*
X86955000Y56395000D02*
G01*
X86505000Y56395000D01*
X86505000Y56945000D01*
X86955000Y56945000D01*
X86955000Y56395000D01*
G37*
X86955000Y53945000D02*
X86505000Y53945000D01*
X86505000Y54495000D01*
X86955000Y54495000D01*
X86955000Y53945000D01*
G36*
X86955000Y53945000D02*
G01*
X86505000Y53945000D01*
X86505000Y54495000D01*
X86955000Y54495000D01*
X86955000Y53945000D01*
G37*
X87730000Y55720000D02*
X87180000Y55720000D01*
X87180000Y56170000D01*
X87730000Y56170000D01*
X87730000Y55720000D01*
G36*
X87730000Y55720000D02*
G01*
X87180000Y55720000D01*
X87180000Y56170000D01*
X87730000Y56170000D01*
X87730000Y55720000D01*
G37*
X87730000Y55220000D02*
X87180000Y55220000D01*
X87180000Y55670000D01*
X87730000Y55670000D01*
X87730000Y55220000D01*
G36*
X87730000Y55220000D02*
G01*
X87180000Y55220000D01*
X87180000Y55670000D01*
X87730000Y55670000D01*
X87730000Y55220000D01*
G37*
X87730000Y54720000D02*
X87180000Y54720000D01*
X87180000Y55170000D01*
X87730000Y55170000D01*
X87730000Y54720000D01*
G36*
X87730000Y54720000D02*
G01*
X87180000Y54720000D01*
X87180000Y55170000D01*
X87730000Y55170000D01*
X87730000Y54720000D01*
G37*
X87455000Y56395000D02*
X87005000Y56395000D01*
X87005000Y56945000D01*
X87455000Y56945000D01*
X87455000Y56395000D01*
G36*
X87455000Y56395000D02*
G01*
X87005000Y56395000D01*
X87005000Y56945000D01*
X87455000Y56945000D01*
X87455000Y56395000D01*
G37*
X87455000Y53945000D02*
X87005000Y53945000D01*
X87005000Y54495000D01*
X87455000Y54495000D01*
X87455000Y53945000D01*
G36*
X87455000Y53945000D02*
G01*
X87005000Y53945000D01*
X87005000Y54495000D01*
X87455000Y54495000D01*
X87455000Y53945000D01*
G37*
%TD*%
D18*
%TO.C,C13*%
X82630000Y66520000D03*
X82630000Y67520000D03*
%TD*%
%TO.C,C18*%
X79230000Y54670000D03*
X79230000Y55670000D03*
%TD*%
D19*
%TO.C,C5*%
X78230000Y58170000D03*
X77230000Y58170000D03*
%TD*%
D18*
%TO.C,C19*%
X78230000Y54670000D03*
X78230000Y55670000D03*
%TD*%
%TO.C,C2*%
X84630000Y66670000D03*
X84630000Y67670000D03*
%TD*%
D20*
%TO.C,C1*%
X86030000Y65020000D03*
X87030000Y65020000D03*
%TD*%
D21*
%TO.C,C15*%
X70500000Y60750000D03*
X70500000Y62650000D03*
%TD*%
D20*
%TO.C,L1*%
X85630000Y62120000D03*
X86630000Y62120000D03*
%TD*%
%TO.C,C12*%
X73230000Y59670000D03*
X74230000Y59670000D03*
%TD*%
D22*
%TO.C,JP1*%
X88422500Y60920000D03*
D23*
X88422500Y62220000D03*
D24*
X88422500Y63520000D03*
%TD*%
D18*
%TO.C,C11*%
X75380000Y62320000D03*
X75380000Y63320000D03*
%TD*%
D25*
%TO.C,J1*%
X95560000Y51365000D03*
X90480000Y50349000D03*
X90480000Y52381000D03*
D26*
X94290000Y52000000D03*
X94290000Y50730000D03*
X93020000Y52000000D03*
X93020000Y50730000D03*
X91750000Y52000000D03*
X91750000Y50730000D03*
%TD*%
D27*
%TO.C,U1*%
X77580000Y64420000D03*
X77580000Y64020000D03*
X77580000Y63620000D03*
X77580000Y63220000D03*
X77580000Y62820000D03*
X77580000Y62420000D03*
X77580000Y62020000D03*
X77580000Y61620000D03*
X77580000Y61220000D03*
X77580000Y60820000D03*
X77580000Y60420000D03*
X77580000Y60020000D03*
D28*
X78330000Y59270000D03*
X78730000Y59270000D03*
X79130000Y59270000D03*
X79530000Y59270000D03*
X79930000Y59270000D03*
X80330000Y59270000D03*
X80730000Y59270000D03*
X81130000Y59270000D03*
X81530000Y59270000D03*
X81930000Y59270000D03*
X82330000Y59270000D03*
X82730000Y59270000D03*
D27*
X83480000Y60020000D03*
X83480000Y60420000D03*
X83480000Y60820000D03*
X83480000Y61220000D03*
X83480000Y61620000D03*
X83480000Y62020000D03*
X83480000Y62420000D03*
X83480000Y62820000D03*
X83480000Y63220000D03*
X83480000Y63620000D03*
X83480000Y64020000D03*
X83480000Y64420000D03*
D28*
X82730000Y65170000D03*
X82330000Y65170000D03*
X81930000Y65170000D03*
X81530000Y65170000D03*
X81130000Y65170000D03*
X80730000Y65170000D03*
X80330000Y65170000D03*
X79930000Y65170000D03*
X79530000Y65170000D03*
X79130000Y65170000D03*
X78730000Y65170000D03*
X78330000Y65170000D03*
D29*
X80530000Y62220000D03*
%TD*%
D30*
%TO.C,C10*%
X79010000Y66670000D03*
X77450000Y66670000D03*
%TD*%
D31*
%TO.C,C3*%
X84730000Y62170000D03*
X84730000Y61170000D03*
%TD*%
D32*
%TO.C,J2*%
X87750000Y70000000D03*
D33*
X89250000Y71500000D03*
X86250000Y71500000D03*
%TD*%
D18*
%TO.C,C14*%
X81630000Y66520000D03*
X81630000Y67520000D03*
%TD*%
D34*
%TO.C,X2*%
X73730000Y60670000D03*
X73730000Y63170000D03*
%TD*%
D18*
%TO.C,C17*%
X89730000Y55820000D03*
X89730000Y56820000D03*
%TD*%
D35*
%TO.C,C7*%
X85220000Y64120000D03*
X86180000Y64120000D03*
%TD*%
D36*
%TO.C,C6*%
X86180000Y63120000D03*
X85220000Y63120000D03*
%TD*%
D37*
%TO.C,X1*%
X85780000Y67620000D03*
X85780000Y66170000D03*
X86930000Y66170000D03*
X86930000Y67620000D03*
%TD*%
D18*
%TO.C,C8*%
X83630000Y66520000D03*
X83630000Y67520000D03*
%TD*%
D30*
%TO.C,C9*%
X76160000Y65170000D03*
X74600000Y65170000D03*
%TD*%
D38*
%TO.C,U2*%
X80780000Y56170000D03*
X81430000Y56170000D03*
X82080000Y56170000D03*
X82730000Y56170000D03*
X82730000Y54720000D03*
X82080000Y54720000D03*
X81430000Y54720000D03*
X80780000Y54720000D03*
%TD*%
D19*
%TO.C,C4*%
X76130000Y64170000D03*
X75130000Y64170000D03*
%TD*%
D18*
%TO.C,C16*%
X88730000Y55820000D03*
X88730000Y56820000D03*
%TD*%
%LPD*%
M02*
