%TF.GenerationSoftware,KiCad,Pcbnew,9.0.3-9.0.3-0~ubuntu24.04.1*%
%TF.CreationDate,2025-07-10T11:07:13-04:00*%
%TF.ProjectId,tire_sensor,74697265-5f73-4656-9e73-6f722e6b6963,rev?*%
%TF.SameCoordinates,Original*%
%TF.FileFunction,Legend,Bot*%
%TF.FilePolarity,Positive*%
%FSLAX46Y46*%
G04 Gerber Fmt 4.6, Leading zero omitted, Abs format (unit mm)*
G04 Created by KiCad (PCBNEW 9.0.3-9.0.3-0~ubuntu24.04.1) date 2025-07-10 11:07:13*
%MOMM*%
%LPD*%
G01*
G04 APERTURE LIST*
G04 Aperture macros list*
%AMRoundRect*
0 Rectangle with rounded corners*
0 $1 Rounding radius*
0 $2 $3 $4 $5 $6 $7 $8 $9 X,Y pos of 4 corners*
0 Add a 4 corners polygon primitive as box body*
4,1,4,$2,$3,$4,$5,$6,$7,$8,$9,$2,$3,0*
0 Add four circle primitives for the rounded corners*
1,1,$1+$1,$2,$3*
1,1,$1+$1,$4,$5*
1,1,$1+$1,$6,$7*
1,1,$1+$1,$8,$9*
0 Add four rect primitives between the rounded corners*
20,1,$1+$1,$2,$3,$4,$5,0*
20,1,$1+$1,$4,$5,$6,$7,0*
20,1,$1+$1,$6,$7,$8,$9,0*
20,1,$1+$1,$8,$9,$2,$3,0*%
G04 Aperture macros list end*
%ADD10C,0.150000*%
%ADD11C,0.120000*%
%ADD12C,1.143000*%
%ADD13RoundRect,0.211723X-1.164477X-1.614477X1.164477X-1.614477X1.164477X1.614477X-1.164477X1.614477X0*%
G04 APERTURE END LIST*
D10*
X83535714Y52818991D02*
X83392857Y52771372D01*
X83392857Y52771372D02*
X83345238Y52723753D01*
X83345238Y52723753D02*
X83297619Y52628515D01*
X83297619Y52628515D02*
X83297619Y52485658D01*
X83297619Y52485658D02*
X83345238Y52390420D01*
X83345238Y52390420D02*
X83392857Y52342800D01*
X83392857Y52342800D02*
X83488095Y52295181D01*
X83488095Y52295181D02*
X83869047Y52295181D01*
X83869047Y52295181D02*
X83869047Y53295181D01*
X83869047Y53295181D02*
X83535714Y53295181D01*
X83535714Y53295181D02*
X83440476Y53247562D01*
X83440476Y53247562D02*
X83392857Y53199943D01*
X83392857Y53199943D02*
X83345238Y53104705D01*
X83345238Y53104705D02*
X83345238Y53009467D01*
X83345238Y53009467D02*
X83392857Y52914229D01*
X83392857Y52914229D02*
X83440476Y52866610D01*
X83440476Y52866610D02*
X83535714Y52818991D01*
X83535714Y52818991D02*
X83869047Y52818991D01*
X83011904Y53295181D02*
X82440476Y53295181D01*
X82726190Y52295181D02*
X82726190Y53295181D01*
X81583333Y52295181D02*
X82154761Y52295181D01*
X81869047Y52295181D02*
X81869047Y53295181D01*
X81869047Y53295181D02*
X81964285Y53152324D01*
X81964285Y53152324D02*
X82059523Y53057086D01*
X82059523Y53057086D02*
X82154761Y53009467D01*
X67830951Y58891134D02*
X67069047Y58891134D01*
X67449999Y58510181D02*
X67449999Y59272086D01*
D11*
%TO.C,BT1*%
X68380000Y65370000D02*
X68380000Y63760000D01*
X68380000Y59740000D02*
X68380000Y58130000D01*
X68380000Y58130000D02*
X72235700Y58130000D01*
X72235700Y65370000D02*
X68380000Y65370000D01*
X75206400Y53580000D02*
X90293600Y53580000D01*
X90293600Y69920000D02*
X75206400Y69920000D01*
X93264300Y58130000D02*
X97120000Y58130000D01*
X97120000Y65370000D02*
X93264300Y65370000D01*
X97120000Y63760000D02*
X97120000Y65370000D01*
X97120000Y58130000D02*
X97120000Y59740000D01*
X72235700Y65370000D02*
G75*
G02*
X75206400Y69920000I10576100J-3660360D01*
G01*
X75206400Y53580000D02*
G75*
G02*
X72235699Y58130000I7605320J8210310D01*
G01*
X90293600Y69920000D02*
G75*
G02*
X93264300Y65370000I-7605362J-8210336D01*
G01*
X93264300Y58130000D02*
G75*
G02*
X90293600Y53580000I-10576062J3660336D01*
G01*
%TD*%
%LPC*%
D12*
%TO.C,J1*%
X95560000Y51365000D03*
X90480000Y50349000D03*
X90480000Y52381000D03*
%TD*%
D13*
%TO.C,BT1*%
X68050000Y61750000D03*
X97450000Y61750000D03*
%TD*%
%LPD*%
M02*
