M48
; DRILL file {KiCad 9.0.3-9.0.3-0~ubuntu24.04.1} date 2025-07-11T01:45:30-0400
; FORMAT={-:-/ absolute / inch / decimal}
; #@! TF.CreationDate,2025-07-11T01:45:30-04:00
; #@! TF.GenerationSoftware,Kicad,Pcbnew,9.0.3-9.0.3-0~ubuntu24.04.1
; #@! TF.FileFunction,Plated,1,4,PTH
FMAT,2
INCH
; #@! TA.AperFunction,Plated,PTH,ViaDrill
T1C0.0039
; #@! TA.AperFunction,Plated,PTH,ComponentDrill
T2C0.0079
; #@! TA.AperFunction,Plated,PTH,ViaDrill
T3C0.0118
; #@! TA.AperFunction,Plated,PTH,ComponentDrill
T4C0.0118
; #@! TA.AperFunction,Plated,PTH,ViaDrill
T5C0.1181
%
G90
G05
T1
X3.3543Y2.3535
X3.3701Y2.3535
X3.3858Y2.3535
X3.4016Y2.3535
X3.4173Y2.3535
X3.4252Y2.4055
X3.4331Y2.3622
X3.4409Y2.4016
X3.4488Y2.3622
X3.4567Y2.4016
X3.4646Y2.3622
X3.4724Y2.4016
X3.4803Y2.3622
X3.4882Y2.4016
X3.4961Y2.3622
X3.5039Y2.4016
X3.5118Y2.3622
X3.5197Y2.4016
X3.5276Y2.3622
X3.5354Y2.4008
X3.5433Y2.3622
X3.5509Y2.4031
X3.5608Y2.3593
X3.5692Y2.4035
X3.5709Y2.3425
X3.5709Y2.3268
X3.5748Y2.9055
X3.5748Y2.8898
X3.5748Y2.874
X3.5748Y2.8583
X3.5748Y2.8425
X3.5748Y2.8268
X3.5748Y2.811
X3.5748Y2.7953
X3.5748Y2.7795
X3.5748Y2.7638
X3.5748Y2.748
X3.5748Y2.7323
X3.5748Y2.7165
X3.5748Y2.7008
X3.5748Y2.685
X3.5748Y2.6693
X3.5748Y2.6535
X3.5748Y2.6378
X3.5748Y2.622
X3.5748Y2.6063
X3.5748Y2.5906
X3.5748Y2.5748
X3.5748Y2.5591
X3.5748Y2.5433
X3.5748Y2.5276
X3.5748Y2.5118
X3.5748Y2.4961
X3.5748Y2.4803
X3.5748Y2.4646
X3.5748Y2.4488
X3.5748Y2.4331
X3.5748Y2.4173
X3.5748Y2.2677
X3.5748Y2.252
X3.5748Y2.2362
X3.5906Y2.2362
X3.6063Y2.2362
X3.622Y2.2362
X3.6378Y2.2362
X3.6535Y2.2362
X3.6693Y2.2362
X3.685Y2.2362
X3.7008Y2.2362
X3.7165Y2.2362
X3.7323Y2.2362
X3.748Y2.2362
X3.7638Y2.2362
X3.7795Y2.2362
X3.7953Y2.2362
X3.811Y2.2362
X3.8268Y2.2362
X3.8425Y2.2362
X3.8583Y2.2362
X3.874Y2.2362
T2
X3.0996Y2.4567
X3.0996Y2.4094
X3.0996Y2.3622
X3.0996Y2.315
X3.1469Y2.4567
X3.1469Y2.4094
X3.1469Y2.3622
X3.1469Y2.315
X3.1941Y2.4567
X3.1941Y2.4094
X3.1941Y2.3622
X3.1941Y2.315
X3.2413Y2.4567
X3.2413Y2.4094
X3.2413Y2.3622
X3.2413Y2.315
T3
X2.6791Y2.4311
X2.7165Y2.2244
X2.7657Y2.4705
X2.7657Y2.3917
X2.7953Y2.628
X2.8445Y2.2244
X2.8642Y2.5
X2.874Y2.3228
X2.9516Y2.5098
X2.9626Y2.4705
X2.9797Y2.8066
X2.9823Y2.313
X3.013Y2.5098
X3.0402Y2.561
X3.0413Y2.2244
X3.0807Y2.2244
X3.0807Y2.126
X3.0807Y1.9882
X3.0866Y2.0886
X3.1201Y2.126
X3.139Y2.2264
X3.1733Y2.2264
X3.1843Y2.1929
X3.2126Y2.5945
X3.2154Y2.2028
X3.2154Y2.1151
X3.252Y2.5945
X3.2913Y2.5945
X3.2913Y2.5551
X3.3024Y2.2264
X3.3024Y2.1317
X3.3024Y2.0906
X3.3307Y2.6024
X3.3366Y2.3425
X3.3366Y2.185
X3.374Y2.5472
X3.3752Y2.1083
X3.3957Y2.8051
X3.3957Y2.4606
X3.3957Y2.4213
X3.4048Y2.1083
X3.4252Y2.4961
X3.4252Y2.2343
X3.4409Y2.6339
X3.4843Y2.126
X3.4843Y2.0866
X3.5039Y2.4606
X3.5236Y2.126
X3.5802Y2.1639
X3.6235Y2.1639
X3.685Y2.1693
X3.8346Y2.2087
X3.8346Y2.1811
T4
X3.5728Y2.2992
T5
X2.7854Y2.7657
X2.7854Y2.0768
M30
