M48
; DRILL file {KiCad 9.0.3-9.0.3-0~ubuntu24.04.1} date 2025-07-10T11:07:13-0400
; FORMAT={-:-/ absolute / inch / decimal}
; #@! TF.CreationDate,2025-07-10T11:07:13-04:00
; #@! TF.GenerationSoftware,Kicad,Pcbnew,9.0.3-9.0.3-0~ubuntu24.04.1
; #@! TF.FileFunction,Plated,1,4,PTH
FMAT,2
INCH
; #@! TA.AperFunction,Plated,PTH,ViaDrill
T1C0.0039
; #@! TA.AperFunction,Plated,PTH,ComponentDrill
T2C0.0079
; #@! TA.AperFunction,Plated,PTH,ViaDrill
T3C0.0118
; #@! TA.AperFunction,Plated,PTH,ComponentDrill
T4C0.0118
%
G90
G05
T1
X3.3543Y2.7559
X3.3543Y2.4173
X3.3701Y2.7402
X3.3701Y2.4173
X3.3858Y2.7402
X3.3858Y2.4173
X3.4016Y2.7402
X3.4016Y2.4173
X3.4173Y2.7402
X3.4173Y2.4173
X3.4331Y2.7244
X3.4331Y2.4173
X3.4331Y2.4016
X3.4331Y2.3858
X3.4488Y2.7165
X3.4488Y2.3701
X3.4646Y2.7165
X3.4646Y2.3622
X3.4803Y2.7165
X3.4803Y2.7008
X3.4803Y2.685
X3.4803Y2.6693
X3.4803Y2.6535
X3.4803Y2.6378
X3.4803Y2.622
X3.4803Y2.6063
X3.4803Y2.5906
X3.4803Y2.5748
X3.4803Y2.5591
X3.4803Y2.5433
X3.4803Y2.3622
X3.4961Y2.3622
X3.5118Y2.7323
X3.5118Y2.7165
X3.5118Y2.7008
X3.5118Y2.685
X3.5118Y2.6693
X3.5118Y2.6535
X3.5118Y2.6378
X3.5118Y2.622
X3.5118Y2.6063
X3.5118Y2.5906
X3.5118Y2.5748
X3.5118Y2.5591
X3.5118Y2.5433
X3.5118Y2.3701
X3.5197Y2.748
X3.5276Y2.5276
X3.5276Y2.3701
X3.5354Y2.5118
X3.5354Y2.4961
X3.5354Y2.4803
X3.5354Y2.4646
X3.5354Y2.4488
X3.5354Y2.4331
X3.5354Y2.4173
X3.5354Y2.4016
X3.5433Y2.7559
X3.5433Y2.3701
X3.5512Y2.4016
X3.5591Y2.3543
X3.5748Y2.9055
X3.5748Y2.8898
X3.5748Y2.874
X3.5748Y2.8583
X3.5748Y2.8425
X3.5748Y2.8268
X3.5748Y2.811
X3.5748Y2.7953
X3.5748Y2.7795
X3.5748Y2.7638
X3.5748Y2.748
X3.5748Y2.7323
X3.5748Y2.7165
X3.5748Y2.7008
X3.5748Y2.685
X3.5748Y2.6693
X3.5748Y2.6535
X3.5748Y2.6378
X3.5748Y2.622
X3.5748Y2.6063
X3.5748Y2.5906
X3.5748Y2.5748
X3.5748Y2.5591
X3.5748Y2.5433
X3.5748Y2.5276
X3.5748Y2.5118
X3.5748Y2.4961
X3.5748Y2.4803
X3.5748Y2.4646
X3.5748Y2.4488
X3.5748Y2.4331
X3.5748Y2.4173
X3.5748Y2.4016
X3.5748Y2.3465
X3.5748Y2.3307
X3.5748Y2.2677
X3.5748Y2.252
X3.5748Y2.2362
X3.5906Y2.2362
X3.6063Y2.2362
X3.622Y2.2362
X3.6378Y2.2362
X3.6535Y2.2362
X3.6693Y2.2362
X3.685Y2.2362
X3.7008Y2.2362
X3.7165Y2.2362
X3.7323Y2.2362
X3.748Y2.2362
X3.7638Y2.2362
X3.7795Y2.2362
X3.7953Y2.2362
X3.811Y2.2362
X3.8268Y2.2362
X3.8425Y2.2362
X3.8583Y2.2362
X3.874Y2.2362
T2
X3.0996Y2.5205
X3.0996Y2.4732
X3.0996Y2.426
X3.0996Y2.3787
X3.1469Y2.5205
X3.1469Y2.4732
X3.1469Y2.426
X3.1469Y2.3787
X3.1941Y2.5205
X3.1941Y2.4732
X3.1941Y2.426
X3.1941Y2.3787
X3.2413Y2.5205
X3.2413Y2.4732
X3.2413Y2.426
X3.2413Y2.3787
T3
X2.6614Y2.1024
X2.6791Y2.4311
X2.685Y2.6614
X2.7087Y2.7953
X2.7087Y2.1969
X2.7717Y2.1181
X2.7953Y2.874
X2.7953Y1.9921
X2.8189Y2.6929
X2.8189Y2.252
X2.8504Y2.7795
X2.889Y2.3236
X2.8898Y2.8504
X2.9134Y2.1339
X2.9185Y2.5287
X2.9224Y2.4476
X2.9291Y1.9843
X2.9685Y2.7795
X2.9776Y2.611
X3.0Y2.8425
X3.0394Y1.9528
X3.0406Y2.2508
X3.0406Y2.1524
X3.0563Y2.6701
X3.076Y2.2173
X3.1154Y2.2173
X3.1181Y2.0472
X3.139Y2.2902
X3.1496Y2.811
X3.1733Y2.2902
X3.1843Y2.2567
X3.189Y2.8819
X3.2087Y2.687
X3.2154Y2.2665
X3.2154Y2.1788
X3.2441Y1.9528
X3.248Y2.687
X3.2874Y2.687
X3.2925Y2.5894
X3.3024Y2.2902
X3.3024Y2.1955
X3.3024Y2.1543
X3.3071Y2.8031
X3.322Y2.2665
X3.3358Y2.7035
X3.3465Y2.5787
X3.3465Y2.0472
X3.354Y2.3549
X3.3622Y2.3858
X3.3738Y2.3329
X3.3752Y2.172
X3.3947Y2.312
X3.4048Y2.172
X3.4094Y1.9764
X3.4146Y2.7035
X3.4146Y2.3689
X3.4165Y2.5244
X3.4165Y2.485
X3.4894Y2.1583
X3.4941Y2.2736
X3.5138Y2.0276
X3.5276Y2.8819
X3.5327Y2.7035
X3.5327Y2.5854
X3.5335Y2.2736
X3.6122Y2.0965
X3.642Y2.0967
X3.6811Y1.9685
X3.748Y2.1339
X3.8268Y2.0551
X3.8346Y2.1811
T4
X3.5728Y2.2992
M30
