%TF.GenerationSoftware,KiCad,Pcbnew,9.0.3-9.0.3-0~ubuntu24.04.1*%
%TF.CreationDate,2025-07-11T01:45:30-04:00*%
%TF.ProjectId,tire_sensor,74697265-5f73-4656-9e73-6f722e6b6963,rev?*%
%TF.SameCoordinates,Original*%
%TF.FileFunction,Copper,L1,Top*%
%TF.FilePolarity,Positive*%
%FSLAX46Y46*%
G04 Gerber Fmt 4.6, Leading zero omitted, Abs format (unit mm)*
G04 Created by KiCad (PCBNEW 9.0.3-9.0.3-0~ubuntu24.04.1) date 2025-07-11 01:45:30*
%MOMM*%
%LPD*%
G01*
G04 APERTURE LIST*
G04 Aperture macros list*
%AMRoundRect*
0 Rectangle with rounded corners*
0 $1 Rounding radius*
0 $2 $3 $4 $5 $6 $7 $8 $9 X,Y pos of 4 corners*
0 Add a 4 corners polygon primitive as box body*
4,1,4,$2,$3,$4,$5,$6,$7,$8,$9,$2,$3,0*
0 Add four circle primitives for the rounded corners*
1,1,$1+$1,$2,$3*
1,1,$1+$1,$4,$5*
1,1,$1+$1,$6,$7*
1,1,$1+$1,$8,$9*
0 Add four rect primitives between the rounded corners*
20,1,$1+$1,$2,$3,$4,$5,0*
20,1,$1+$1,$4,$5,$6,$7,0*
20,1,$1+$1,$6,$7,$8,$9,0*
20,1,$1+$1,$8,$9,$2,$3,0*%
G04 Aperture macros list end*
%TA.AperFunction,EtchedComponent*%
%ADD10C,0.000000*%
%TD*%
%TA.AperFunction,SMDPad,CuDef*%
%ADD11RoundRect,0.250000X-0.650000X0.425000X-0.650000X-0.425000X0.650000X-0.425000X0.650000X0.425000X0*%
%TD*%
%TA.AperFunction,SMDPad,CuDef*%
%ADD12RoundRect,0.140000X-0.170000X0.140000X-0.170000X-0.140000X0.170000X-0.140000X0.170000X0.140000X0*%
%TD*%
%TA.AperFunction,SMDPad,CuDef*%
%ADD13RoundRect,0.218750X0.256250X-0.218750X0.256250X0.218750X-0.256250X0.218750X-0.256250X-0.218750X0*%
%TD*%
%TA.AperFunction,SMDPad,CuDef*%
%ADD14RoundRect,0.140000X0.170000X-0.140000X0.170000X0.140000X-0.170000X0.140000X-0.170000X-0.140000X0*%
%TD*%
%TA.AperFunction,SMDPad,CuDef*%
%ADD15RoundRect,0.250000X0.650000X0.250000X-0.650000X0.250000X-0.650000X-0.250000X0.650000X-0.250000X0*%
%TD*%
%TA.AperFunction,SMDPad,CuDef*%
%ADD16RoundRect,0.140000X0.140000X0.170000X-0.140000X0.170000X-0.140000X-0.170000X0.140000X-0.170000X0*%
%TD*%
%TA.AperFunction,HeatsinkPad*%
%ADD17C,0.500000*%
%TD*%
%TA.AperFunction,HeatsinkPad*%
%ADD18R,4.600000X4.600000*%
%TD*%
%TA.AperFunction,SMDPad,CuDef*%
%ADD19RoundRect,0.050000X-0.050000X-0.350000X0.050000X-0.350000X0.050000X0.350000X-0.050000X0.350000X0*%
%TD*%
%TA.AperFunction,SMDPad,CuDef*%
%ADD20RoundRect,0.050000X-0.350000X-0.050000X0.350000X-0.050000X0.350000X0.050000X-0.350000X0.050000X0*%
%TD*%
%TA.AperFunction,SMDPad,CuDef*%
%ADD21RoundRect,0.225000X0.225000X0.250000X-0.225000X0.250000X-0.225000X-0.250000X0.225000X-0.250000X0*%
%TD*%
%TA.AperFunction,SMDPad,CuDef*%
%ADD22RoundRect,0.140000X-0.140000X-0.170000X0.140000X-0.170000X0.140000X0.170000X-0.140000X0.170000X0*%
%TD*%
%TA.AperFunction,SMDPad,CuDef*%
%ADD23RoundRect,0.250000X0.475000X-0.250000X0.475000X0.250000X-0.475000X0.250000X-0.475000X-0.250000X0*%
%TD*%
%TA.AperFunction,SMDPad,CuDef*%
%ADD24R,0.450000X0.350000*%
%TD*%
%TA.AperFunction,SMDPad,CuDef*%
%ADD25R,0.350000X0.450000*%
%TD*%
%TA.AperFunction,SMDPad,CuDef*%
%ADD26R,0.350000X0.350000*%
%TD*%
%TA.AperFunction,ConnectorPad*%
%ADD27R,0.500000X0.500000*%
%TD*%
%TA.AperFunction,ComponentPad*%
%ADD28R,0.500000X0.900000*%
%TD*%
%TA.AperFunction,ConnectorPad*%
%ADD29C,0.787400*%
%TD*%
%TA.AperFunction,SMDPad,CuDef*%
%ADD30RoundRect,0.250000X0.350000X-0.450000X0.350000X0.450000X-0.350000X0.450000X-0.350000X-0.450000X0*%
%TD*%
%TA.AperFunction,ViaPad*%
%ADD31C,0.300000*%
%TD*%
%TA.AperFunction,ViaPad*%
%ADD32C,0.600000*%
%TD*%
%TA.AperFunction,ViaPad*%
%ADD33C,3.250000*%
%TD*%
%TA.AperFunction,Conductor*%
%ADD34C,0.300000*%
%TD*%
%TA.AperFunction,Conductor*%
%ADD35C,0.150000*%
%TD*%
%TA.AperFunction,Conductor*%
%ADD36C,0.400000*%
%TD*%
%TA.AperFunction,Conductor*%
%ADD37C,0.152400*%
%TD*%
%TA.AperFunction,Conductor*%
%ADD38C,0.200000*%
%TD*%
%TA.AperFunction,Conductor*%
%ADD39C,0.500000*%
%TD*%
G04 APERTURE END LIST*
D10*
%TA.AperFunction,EtchedComponent*%
%TO.C,AE1*%
G36*
X95900000Y69650000D02*
G01*
X93260000Y69650000D01*
X93260000Y67650000D01*
X95900000Y67650000D01*
X95900000Y64950000D01*
X93260000Y64950000D01*
X93260000Y62950000D01*
X95900000Y62950000D01*
X95900000Y57950000D01*
X90743215Y57950000D01*
X90500000Y57950000D01*
X90500000Y58374844D01*
X90603957Y58374844D01*
X90616065Y58332181D01*
X90620419Y58324269D01*
X90653203Y58286326D01*
X90695605Y58262258D01*
X90743215Y58252417D01*
X90791622Y58257153D01*
X90836416Y58276815D01*
X90873186Y58311755D01*
X90890092Y58344647D01*
X90897982Y58392733D01*
X90891408Y58442318D01*
X90871313Y58487628D01*
X90838643Y58522888D01*
X90806417Y58539782D01*
X90758158Y58548222D01*
X90708632Y58541691D01*
X90663447Y58521132D01*
X90628213Y58487489D01*
X90617600Y58468878D01*
X90604700Y58423363D01*
X90603957Y58374844D01*
X90500000Y58374844D01*
X90500000Y58850000D01*
X95400000Y58850000D01*
X95400000Y60250000D01*
X90500000Y60250000D01*
X90500000Y60750000D01*
X95400000Y60750000D01*
X95400000Y62450000D01*
X92760000Y62450000D01*
X92760000Y65450000D01*
X95400000Y65450000D01*
X95400000Y67150000D01*
X92760000Y67150000D01*
X92760000Y70150000D01*
X95400000Y70150000D01*
X95400000Y71850000D01*
X91460000Y71850000D01*
X91460000Y72350000D01*
X95900000Y72350000D01*
X95900000Y69650000D01*
G37*
%TD.AperFunction*%
%TD*%
D11*
%TO.P,S1,1,A*%
%TO.N,/BTN*%
X74750000Y56650000D03*
%TO.P,S1,2,B*%
%TO.N,GND*%
X74750000Y52500000D03*
%TD*%
D12*
%TO.P,R6,1*%
%TO.N,VDD_NRF*%
X72250000Y56500000D03*
%TO.P,R6,2*%
%TO.N,/BTN*%
X72250000Y55500000D03*
%TD*%
%TO.P,R5,2*%
%TO.N,/LED4*%
X76250000Y67370000D03*
%TO.P,R5,1*%
%TO.N,Net-(D5-K)*%
X76250000Y68370000D03*
%TD*%
D13*
%TO.P,D5,2,A*%
%TO.N,VDD_NRF*%
X75685000Y71287500D03*
%TO.P,D5,1,K*%
%TO.N,Net-(D5-K)*%
X75685000Y69712500D03*
%TD*%
%TO.P,D4,2,A*%
%TO.N,VDD_NRF*%
X77217500Y71287500D03*
%TO.P,D4,1,K*%
%TO.N,Net-(D4-K)*%
X77217500Y69712500D03*
%TD*%
D12*
%TO.P,R4,2*%
%TO.N,/LED3*%
X77127500Y67370000D03*
%TO.P,R4,1*%
%TO.N,Net-(D4-K)*%
X77127500Y68370000D03*
%TD*%
%TO.P,R3,1*%
%TO.N,Net-(D3-K)*%
X78000000Y68370000D03*
%TO.P,R3,2*%
%TO.N,/LED2*%
X78000000Y67370000D03*
%TD*%
%TO.P,R2,1*%
%TO.N,Net-(D2-K)*%
X79000000Y68370000D03*
%TO.P,R2,2*%
%TO.N,/LED1*%
X79000000Y67370000D03*
%TD*%
%TO.P,R1,1*%
%TO.N,Net-(D1-K)*%
X80000000Y68370000D03*
%TO.P,R1,2*%
%TO.N,/LED0*%
X80000000Y67370000D03*
%TD*%
D13*
%TO.P,D3,1,K*%
%TO.N,Net-(D3-K)*%
X78750000Y69712500D03*
%TO.P,D3,2,A*%
%TO.N,VDD_NRF*%
X78750000Y71287500D03*
%TD*%
%TO.P,D2,1,K*%
%TO.N,Net-(D2-K)*%
X80282500Y69712500D03*
%TO.P,D2,2,A*%
%TO.N,VDD_NRF*%
X80282500Y71287500D03*
%TD*%
%TO.P,D1,1,K*%
%TO.N,Net-(D1-K)*%
X81815000Y69712500D03*
%TO.P,D1,2,A*%
%TO.N,VDD_NRF*%
X81815000Y71287500D03*
%TD*%
D14*
%TO.P,C14,2*%
%TO.N,GND*%
X81630000Y65900000D03*
%TO.P,C14,1*%
%TO.N,Net-(U1-P0.26)*%
X81630000Y64900000D03*
%TD*%
D15*
%TO.P,X2,2,2*%
%TO.N,/P0.00{slash}XL1*%
X73500000Y62500000D03*
%TO.P,X2,1,1*%
%TO.N,/P0.01{slash}XL2*%
X73500000Y60000000D03*
%TD*%
D14*
%TO.P,C17,2*%
%TO.N,GND*%
X89500000Y54000000D03*
%TO.P,C17,1*%
%TO.N,VDD_NRF*%
X89500000Y53000000D03*
%TD*%
D16*
%TO.P,C6,2,2*%
%TO.N,/DEC2*%
X85220000Y61500000D03*
%TO.P,C6,1,1*%
%TO.N,GND*%
X86180000Y61500000D03*
%TD*%
D14*
%TO.P,C8,2*%
%TO.N,GND*%
X83630000Y65900000D03*
%TO.P,C8,1*%
%TO.N,VDD_NRF*%
X83630000Y64900000D03*
%TD*%
D17*
%TO.P,U1,49,GND*%
%TO.N,GND*%
X82330000Y58800000D03*
X82330000Y60000000D03*
X82330000Y61200000D03*
X82330000Y62400000D03*
X81130000Y58800000D03*
X81130000Y60000000D03*
X81130000Y61200000D03*
X81130000Y62400000D03*
D18*
X80530000Y60600000D03*
D17*
X79930000Y58800000D03*
X79930000Y60000000D03*
X79930000Y61200000D03*
X79930000Y62400000D03*
X78730000Y58800000D03*
X78730000Y60000000D03*
X78730000Y61200000D03*
X78730000Y62400000D03*
D19*
%TO.P,U1,48,VDD*%
%TO.N,VDD_NRF*%
X78330000Y63550000D03*
%TO.P,U1,47,DCC*%
%TO.N,unconnected-(U1-DCC-Pad47)*%
X78730000Y63550000D03*
%TO.P,U1,46,DEC4*%
%TO.N,/DEC4*%
X79130000Y63550000D03*
%TO.P,U1,45,VSS*%
%TO.N,GND*%
X79530000Y63550000D03*
%TO.P,U1,44,N.C.*%
%TO.N,/LED4*%
X79930000Y63550000D03*
%TO.P,U1,43,P0.31/AIN7*%
%TO.N,/LED3*%
X80330000Y63550000D03*
%TO.P,U1,42,P0.30/AIN6*%
%TO.N,/LED2*%
X80730000Y63550000D03*
%TO.P,U1,41,P0.29/AIN5*%
%TO.N,/LED1*%
X81130000Y63550000D03*
%TO.P,U1,40,P0.28/AIN4*%
%TO.N,/LED0*%
X81530000Y63550000D03*
%TO.P,U1,39,P0.27*%
%TO.N,unconnected-(U1-P0.27-Pad39)*%
X81930000Y63550000D03*
%TO.P,U1,38,P0.26*%
%TO.N,Net-(U1-P0.26)*%
X82330000Y63550000D03*
%TO.P,U1,37,P0.25*%
%TO.N,/P0.25*%
X82730000Y63550000D03*
D20*
%TO.P,U1,36,VDD*%
%TO.N,VDD_NRF*%
X83480000Y62800000D03*
%TO.P,U1,35,XC2*%
%TO.N,/XC2*%
X83480000Y62400000D03*
%TO.P,U1,34,XC1*%
%TO.N,/XC1*%
X83480000Y62000000D03*
%TO.P,U1,33,DEC3*%
%TO.N,/DEC3*%
X83480000Y61600000D03*
%TO.P,U1,32,DEC2*%
%TO.N,/DEC2*%
X83480000Y61200000D03*
%TO.P,U1,31,VSS*%
%TO.N,GND*%
X83480000Y60800000D03*
%TO.P,U1,30,ANT*%
%TO.N,Net-(U1-ANT)*%
X83480000Y60400000D03*
%TO.P,U1,29,P0.24*%
%TO.N,unconnected-(U1-P0.24-Pad29)*%
X83480000Y60000000D03*
%TO.P,U1,28,P0.23*%
%TO.N,unconnected-(U1-P0.23-Pad28)*%
X83480000Y59600000D03*
%TO.P,U1,27,P0.22*%
%TO.N,unconnected-(U1-P0.22-Pad27)*%
X83480000Y59200000D03*
%TO.P,U1,26,SWDIO*%
%TO.N,/SWDIO*%
X83480000Y58800000D03*
%TO.P,U1,25,SWDCLK*%
%TO.N,/SWCLK*%
X83480000Y58400000D03*
D19*
%TO.P,U1,24,P0.21/RESET*%
%TO.N,/nRESET*%
X82730000Y57650000D03*
%TO.P,U1,23,P0.20*%
%TO.N,/SCK*%
X82330000Y57650000D03*
%TO.P,U1,22,P0.19*%
%TO.N,/SDI*%
X81930000Y57650000D03*
%TO.P,U1,21,P0.18*%
%TO.N,/SDO*%
X81530000Y57650000D03*
%TO.P,U1,20,P0.17*%
%TO.N,/CS_DPS368*%
X81130000Y57650000D03*
%TO.P,U1,19,P0.16*%
%TO.N,/CS_LIS3DHTR*%
X80730000Y57650000D03*
%TO.P,U1,18,P0.15*%
%TO.N,/INT_LIS3DHTR*%
X80330000Y57650000D03*
%TO.P,U1,17,P0.14*%
%TO.N,unconnected-(U1-P0.14-Pad17)*%
X79930000Y57650000D03*
%TO.P,U1,16,P0.13*%
%TO.N,unconnected-(U1-P0.13-Pad16)*%
X79530000Y57650000D03*
%TO.P,U1,15,P0.12*%
%TO.N,unconnected-(U1-P0.12-Pad15)*%
X79130000Y57650000D03*
%TO.P,U1,14,P0.11*%
%TO.N,unconnected-(U1-P0.11-Pad14)*%
X78730000Y57650000D03*
%TO.P,U1,13,VDD*%
%TO.N,VDD_NRF*%
X78330000Y57650000D03*
D20*
%TO.P,U1,12,P0.10*%
%TO.N,/BTN*%
X77580000Y58400000D03*
%TO.P,U1,11,P0.09*%
%TO.N,unconnected-(U1-P0.09-Pad11)*%
X77580000Y58800000D03*
%TO.P,U1,10,P0.08*%
%TO.N,unconnected-(U1-P0.08-Pad10)*%
X77580000Y59200000D03*
%TO.P,U1,9,P0.07*%
%TO.N,unconnected-(U1-P0.07-Pad9)*%
X77580000Y59600000D03*
%TO.P,U1,8,P0.06*%
%TO.N,unconnected-(U1-P0.06-Pad8)*%
X77580000Y60000000D03*
%TO.P,U1,7,P0.05/AIN3*%
%TO.N,unconnected-(U1-P0.05{slash}AIN3-Pad7)*%
X77580000Y60400000D03*
%TO.P,U1,6,P0.04/AIN2*%
%TO.N,unconnected-(U1-P0.04{slash}AIN2-Pad6)*%
X77580000Y60800000D03*
%TO.P,U1,5,P0.03/AIN1*%
%TO.N,unconnected-(U1-P0.03{slash}AIN1-Pad5)*%
X77580000Y61200000D03*
%TO.P,U1,4,P0.02/AIN0*%
%TO.N,unconnected-(U1-P0.02{slash}AIN0-Pad4)*%
X77580000Y61600000D03*
%TO.P,U1,3,P0.01/XL2*%
%TO.N,/P0.01{slash}XL2*%
X77580000Y62000000D03*
%TO.P,U1,2,P0.00/XL1*%
%TO.N,/P0.00{slash}XL1*%
X77580000Y62400000D03*
%TO.P,U1,1,DEC1*%
%TO.N,/DEC1*%
X77580000Y62800000D03*
%TD*%
D21*
%TO.P,C10,2*%
%TO.N,GND*%
X77220000Y65050000D03*
%TO.P,C10,1*%
%TO.N,/DEC4*%
X78780000Y65050000D03*
%TD*%
D12*
%TO.P,C3,2*%
%TO.N,GND*%
X84730000Y59550000D03*
%TO.P,C3,1*%
%TO.N,Net-(U1-ANT)*%
X84730000Y60550000D03*
%TD*%
D14*
%TO.P,C19,2*%
%TO.N,GND*%
X78400000Y54050000D03*
%TO.P,C19,1*%
%TO.N,VDD_NRF*%
X78400000Y53050000D03*
%TD*%
%TO.P,C2,2*%
%TO.N,GND*%
X84600000Y66080000D03*
%TO.P,C2,1*%
%TO.N,/XC2*%
X84600000Y65080000D03*
%TD*%
D22*
%TO.P,C1,2*%
%TO.N,GND*%
X87030000Y63380000D03*
%TO.P,C1,1*%
%TO.N,/XC1*%
X86030000Y63380000D03*
%TD*%
D14*
%TO.P,C13,2*%
%TO.N,GND*%
X82630000Y65900000D03*
%TO.P,C13,1*%
%TO.N,/P0.25*%
X82630000Y64900000D03*
%TD*%
%TO.P,C18,2*%
%TO.N,GND*%
X79230000Y54050000D03*
%TO.P,C18,1*%
%TO.N,VDD_NRF*%
X79230000Y53050000D03*
%TD*%
D16*
%TO.P,C5,2*%
%TO.N,GND*%
X77230000Y56550000D03*
%TO.P,C5,1*%
%TO.N,VDD_NRF*%
X78230000Y56550000D03*
%TD*%
D22*
%TO.P,C7,2*%
%TO.N,GND*%
X86200000Y62500000D03*
%TO.P,C7,1*%
%TO.N,/DEC3*%
X85200000Y62500000D03*
%TD*%
D23*
%TO.P,C15,2*%
%TO.N,GND*%
X70250000Y62700000D03*
%TO.P,C15,1*%
%TO.N,VDD_NRF*%
X70250000Y60800000D03*
%TD*%
D22*
%TO.P,L1,2*%
%TO.N,/RF*%
X86630000Y60500000D03*
%TO.P,L1,1*%
%TO.N,Net-(U1-ANT)*%
X85630000Y60500000D03*
%TD*%
%TO.P,C12,2*%
%TO.N,/P0.01{slash}XL2*%
X74000000Y59000000D03*
%TO.P,C12,1*%
%TO.N,GND*%
X73000000Y59000000D03*
%TD*%
%TO.P,C11,2*%
%TO.N,/P0.00{slash}XL1*%
X73750000Y63500000D03*
%TO.P,C11,1*%
%TO.N,GND*%
X72750000Y63500000D03*
%TD*%
D21*
%TO.P,C9,2*%
%TO.N,GND*%
X74970000Y63750000D03*
%TO.P,C9,1*%
%TO.N,VDD_NRF*%
X76530000Y63750000D03*
%TD*%
D24*
%TO.P,U3,16,ADC1*%
%TO.N,unconnected-(U3-ADC1-Pad16)*%
X87455000Y54325000D03*
%TO.P,U3,15,ADC2*%
%TO.N,unconnected-(U3-ADC2-Pad15)*%
X87455000Y53825000D03*
%TO.P,U3,14,VDD*%
%TO.N,VDD_NRF*%
X87455000Y53325000D03*
D25*
%TO.P,U3,13,ADC3*%
%TO.N,unconnected-(U3-ADC3-Pad13)*%
X87230000Y52600000D03*
%TO.P,U3,12,GND__1*%
%TO.N,GND*%
X86730000Y52600000D03*
%TO.P,U3,11,INT1*%
%TO.N,/INT_LIS3DHTR*%
X86230000Y52600000D03*
%TO.P,U3,10,RES*%
%TO.N,unconnected-(U3-RES-Pad10)*%
X85730000Y52600000D03*
%TO.P,U3,9,INT2*%
%TO.N,unconnected-(U3-INT2-Pad9)*%
X85230000Y52600000D03*
D24*
%TO.P,U3,8,CS*%
%TO.N,/CS_LIS3DHTR*%
X85005000Y53325000D03*
%TO.P,U3,7,SDO/SA0*%
%TO.N,/SDO*%
X85005000Y53825000D03*
%TO.P,U3,6,SDA/SDI/SDO*%
%TO.N,/SDI*%
X85005000Y54325000D03*
D25*
%TO.P,U3,5,GND*%
%TO.N,GND*%
X85230000Y55050000D03*
%TO.P,U3,4,SCL/SPC*%
%TO.N,/SCK*%
X85730000Y55050000D03*
%TO.P,U3,3*%
%TO.N,N/C*%
X86230000Y55050000D03*
%TO.P,U3,2*%
X86730000Y55050000D03*
%TO.P,U3,1,VDD_IO*%
%TO.N,VDD_NRF*%
X87230000Y55050000D03*
%TD*%
D26*
%TO.P,U2,8,VDD*%
%TO.N,VDD_NRF*%
X80780000Y53100000D03*
%TO.P,U2,7,GND_2*%
%TO.N,GND*%
X81430000Y53100000D03*
%TO.P,U2,6,VDDIO*%
%TO.N,VDD_NRF*%
X82080000Y53100000D03*
%TO.P,U2,5,SDO*%
%TO.N,/SDO*%
X82730000Y53100000D03*
%TO.P,U2,4,SCK*%
%TO.N,/SCK*%
X82730000Y54550000D03*
%TO.P,U2,3,SDI*%
%TO.N,/SDI*%
X82080000Y54550000D03*
%TO.P,U2,2,CSB_N*%
%TO.N,/CS_DPS368*%
X81430000Y54550000D03*
%TO.P,U2,1,GND_1*%
%TO.N,GND*%
X80780000Y54550000D03*
%TD*%
D16*
%TO.P,C4,2*%
%TO.N,GND*%
X75250000Y62750000D03*
%TO.P,C4,1*%
%TO.N,/DEC1*%
X76250000Y62750000D03*
%TD*%
D14*
%TO.P,C16,2*%
%TO.N,GND*%
X88500000Y54000000D03*
%TO.P,C16,1*%
%TO.N,VDD_NRF*%
X88500000Y53000000D03*
%TD*%
D27*
%TO.P,AE1,1,A*%
%TO.N,/RF*%
X90750000Y60500000D03*
D28*
%TO.P,AE1,2,Shield*%
%TO.N,GND*%
X90750000Y58400000D03*
%TD*%
D29*
%TO.P,J1,1,VCC*%
%TO.N,VDD_NRF*%
X94398026Y54398025D03*
%TO.P,J1,2,SWDIO*%
%TO.N,/SWDIO*%
X95296051Y53500000D03*
%TO.P,J1,3,~{RESET}*%
%TO.N,/nRESET*%
X93500000Y53500000D03*
%TO.P,J1,4,SWCLK*%
%TO.N,/SWCLK*%
X94398026Y52601974D03*
%TO.P,J1,5,GND*%
%TO.N,GND*%
X92601975Y52601974D03*
%TO.P,J1,6,SWO*%
%TO.N,unconnected-(J1-SWO-Pad6)*%
X93500000Y51703949D03*
%TD*%
D30*
%TO.P,X1,4,GND*%
%TO.N,GND*%
X85750000Y64680000D03*
%TO.P,X1,3,OSC*%
%TO.N,/XC2*%
X85750000Y66880000D03*
%TO.P,X1,2,GND*%
%TO.N,GND*%
X87450000Y66880000D03*
%TO.P,X1,1,OSC*%
%TO.N,/XC1*%
X87450000Y64680000D03*
%TD*%
D31*
%TO.N,GND*%
X87000000Y61100000D03*
D32*
X75750000Y58750000D03*
X89000000Y62500000D03*
X71000000Y66750000D03*
X69000000Y56500000D03*
X78250000Y50500000D03*
X87000000Y56750000D03*
X86250000Y71250000D03*
%TO.N,VDD_NRF*%
X72250000Y56500000D03*
%TO.N,GND*%
X84750000Y55500000D03*
%TO.N,VDD_NRF*%
X75685000Y71287500D03*
%TO.N,GND*%
X87000000Y63400000D03*
%TO.N,VDD_NRF*%
X78250000Y56500000D03*
X78400000Y53050000D03*
X68050000Y61750000D03*
%TO.N,GND*%
X74970000Y63750000D03*
X87400000Y66900000D03*
%TO.N,VDD_NRF*%
X93600000Y55100000D03*
%TO.N,/nRESET*%
X92037443Y54962557D03*
X90937557Y54962557D03*
%TO.N,VDD_NRF*%
X88500000Y53000000D03*
D31*
%TO.N,GND*%
X90700000Y59100000D03*
X90443879Y59926017D03*
X90657697Y61050000D03*
X90192136Y61039320D03*
X90000000Y60000000D03*
X89600000Y60000000D03*
X89200000Y60000000D03*
X88800000Y60000000D03*
X88400000Y60000000D03*
X88000000Y60000000D03*
X87600000Y60000000D03*
X87400000Y61000000D03*
X87800000Y61000000D03*
X88200000Y61000000D03*
X88600000Y61000000D03*
X89000000Y61000000D03*
X89400000Y61000000D03*
D33*
X70750000Y52750000D03*
X70750000Y70250000D03*
D32*
%TO.N,VDD_NRF*%
X76530000Y63750000D03*
X70250000Y60750000D03*
X83600000Y64900000D03*
D31*
%TO.N,GND*%
X85200000Y59780000D03*
X85600000Y59780000D03*
D32*
X86250000Y62500000D03*
D31*
X89800000Y60980000D03*
D32*
X83600000Y65900000D03*
X75250000Y62750000D03*
X77220000Y65050000D03*
X82600000Y65900000D03*
X88500000Y54000000D03*
X84600000Y66100000D03*
D31*
X86000000Y59780000D03*
X87200000Y60000000D03*
D32*
X77250000Y56500000D03*
X78250000Y54000000D03*
X81600000Y65900000D03*
X79250000Y54000000D03*
X73000000Y59000000D03*
X84750000Y59500000D03*
X85700000Y64700000D03*
D31*
X86800000Y59780000D03*
D32*
X72750000Y63500000D03*
D31*
X86400000Y59780000D03*
D32*
X86250000Y61500000D03*
X70250000Y62750000D03*
%TO.N,/SDO*%
X81671956Y53722419D03*
X81671956Y55950000D03*
X83880000Y53100000D03*
%TO.N,/CS_DPS368*%
X80880000Y55700000D03*
%TO.N,/SDI*%
X83880000Y54145400D03*
%TO.N,/SCK*%
X83880000Y56550000D03*
%TO.N,/INT_LIS3DHTR*%
X86482403Y53550000D03*
X79730000Y56550000D03*
%TO.N,/CS_LIS3DHTR*%
X80601400Y56550000D03*
X85730000Y53550000D03*
%TO.N,GND*%
X97400000Y56100000D03*
D31*
X97600000Y56800000D03*
X96800000Y56800000D03*
X90800000Y70200000D03*
X93600000Y56800000D03*
X90800000Y67400000D03*
X90700000Y59500000D03*
X90800000Y66200000D03*
D32*
X97400000Y55400000D03*
D31*
X90800000Y65400000D03*
X92400000Y56800000D03*
X90800000Y64600000D03*
X96000000Y56800000D03*
X90800000Y69000000D03*
X98400000Y56800000D03*
X98000000Y56800000D03*
X90800000Y63400000D03*
X90800000Y61400000D03*
X90800000Y66600000D03*
X94800000Y56800000D03*
X90800000Y57600000D03*
X90800000Y56800000D03*
X90800000Y70600000D03*
X94400000Y56800000D03*
X90800000Y65800000D03*
X90800000Y63800000D03*
X93200000Y56800000D03*
X90800000Y71000000D03*
X90800000Y68200000D03*
X90800000Y62600000D03*
X90800000Y73000000D03*
X97200000Y56800000D03*
X90800000Y69800000D03*
X92000000Y56800000D03*
X90800000Y65000000D03*
X90800000Y68600000D03*
X92800000Y56800000D03*
X90800000Y73400000D03*
X95600000Y56800000D03*
X90800000Y72200000D03*
X90800000Y71400000D03*
X90800000Y69400000D03*
X90800000Y71800000D03*
X94000000Y56800000D03*
X90800000Y63000000D03*
X91600000Y56800000D03*
X96400000Y56800000D03*
X90800000Y62200000D03*
X95200000Y56800000D03*
X90800000Y72600000D03*
X90800000Y67000000D03*
X91200000Y56800000D03*
X90800000Y73800000D03*
X90800000Y64200000D03*
X90800000Y57200000D03*
X90800000Y61800000D03*
X90800000Y67800000D03*
D32*
X89500000Y54000000D03*
%TD*%
D34*
%TO.N,VDD_NRF*%
X78400000Y53050000D02*
X80730000Y53050000D01*
X80730000Y53050000D02*
X80780000Y53100000D01*
X80780000Y53100000D02*
X80780000Y52698000D01*
X80780000Y52698000D02*
X80904000Y52574000D01*
X80904000Y52574000D02*
X81956000Y52574000D01*
X81956000Y52574000D02*
X82080000Y52698000D01*
X82080000Y52698000D02*
X82080000Y53100000D01*
D35*
%TO.N,/P0.01{slash}XL2*%
X74000000Y59000000D02*
X74000000Y59500000D01*
X74000000Y59500000D02*
X73500000Y60000000D01*
%TO.N,/BTN*%
X72250000Y55500000D02*
X73600000Y55500000D01*
X73600000Y55500000D02*
X74750000Y56650000D01*
X74750000Y56650000D02*
X75830000Y56650000D01*
X75830000Y56650000D02*
X77580000Y58400000D01*
D34*
%TO.N,GND*%
X75250000Y62750000D02*
X75250000Y63470000D01*
D35*
X75250000Y63470000D02*
X74970000Y63750000D01*
%TO.N,/P0.00{slash}XL1*%
X73500000Y62500000D02*
X74250000Y62500000D01*
X77152624Y62400000D02*
X77580000Y62400000D01*
X74250000Y62500000D02*
X75500000Y61250000D01*
X75500000Y61250000D02*
X76002624Y61250000D01*
X76002624Y61250000D02*
X77152624Y62400000D01*
X73750000Y63500000D02*
X73750000Y62750000D01*
X73750000Y62750000D02*
X73500000Y62500000D01*
%TO.N,/P0.01{slash}XL2*%
X77580000Y62000000D02*
X77178302Y62000000D01*
X77178302Y62000000D02*
X75178302Y60000000D01*
X75178302Y60000000D02*
X73500000Y60000000D01*
%TO.N,/DEC1*%
X76000000Y62750000D02*
X77530000Y62750000D01*
X77530000Y62750000D02*
X77580000Y62800000D01*
D36*
%TO.N,VDD_NRF*%
X76530000Y63750000D02*
X76400000Y63750000D01*
D35*
%TO.N,GND*%
X84750000Y55500000D02*
X84780000Y55500000D01*
D34*
X84780000Y55500000D02*
X85230000Y55050000D01*
D35*
%TO.N,/LED2*%
X78000000Y67370000D02*
X78870000Y66500000D01*
X78870000Y66500000D02*
X79351356Y66500000D01*
X79351356Y66500000D02*
X80352000Y65499356D01*
X80352000Y65499356D02*
X80352000Y64374678D01*
X80352000Y64374678D02*
X80730000Y63996678D01*
X80730000Y63996678D02*
X80730000Y63550000D01*
%TO.N,/LED1*%
X81130000Y63550000D02*
X81130000Y64142840D01*
X81130000Y64142840D02*
X80750000Y64522840D01*
X80750000Y65620000D02*
X79000000Y67370000D01*
X80750000Y64522840D02*
X80750000Y65620000D01*
%TO.N,/LED3*%
X80330000Y63550000D02*
X80330000Y63971000D01*
X80330000Y63971000D02*
X80051000Y64250000D01*
X80051000Y64250000D02*
X80051000Y65374678D01*
X80051000Y65374678D02*
X79374678Y66051000D01*
X79374678Y66051000D02*
X78446500Y66051000D01*
X78446500Y66051000D02*
X77127500Y67370000D01*
%TO.N,/LED4*%
X76250000Y67250000D02*
X77750000Y65750000D01*
X76250000Y67370000D02*
X76250000Y67250000D01*
X77750000Y65750000D02*
X79250000Y65750000D01*
X79250000Y65750000D02*
X79750000Y65250000D01*
X79750000Y65250000D02*
X79750000Y64121708D01*
X79750000Y64121708D02*
X79930000Y63941708D01*
X79930000Y63941708D02*
X79930000Y63550000D01*
%TO.N,/LED0*%
X81074000Y64624518D02*
X81074000Y66000000D01*
X81530000Y64168518D02*
X81074000Y64624518D01*
X81530000Y63550000D02*
X81530000Y64168518D01*
X81074000Y66000000D02*
X80000000Y67074000D01*
X80000000Y67074000D02*
X80000000Y67370000D01*
D36*
%TO.N,VDD_NRF*%
X75685000Y71287500D02*
X81815000Y71287500D01*
D35*
%TO.N,Net-(D1-K)*%
X80000000Y68370000D02*
X80472500Y68370000D01*
X80472500Y68370000D02*
X81815000Y69712500D01*
%TO.N,Net-(D2-K)*%
X79000000Y68370000D02*
X79000000Y68430000D01*
X79000000Y68430000D02*
X80282500Y69712500D01*
%TO.N,Net-(D3-K)*%
X78000000Y68370000D02*
X78000000Y68962500D01*
X78000000Y68962500D02*
X78750000Y69712500D01*
%TO.N,Net-(D4-K)*%
X77127500Y68370000D02*
X77127500Y69622500D01*
X77127500Y69622500D02*
X77217500Y69712500D01*
%TO.N,Net-(D5-K)*%
X76250000Y68370000D02*
X76250000Y69147500D01*
X76250000Y69147500D02*
X75685000Y69712500D01*
%TO.N,/LED2*%
X78102000Y67370000D02*
X78000000Y67370000D01*
D37*
%TO.N,GND*%
X85700000Y64700000D02*
X85754400Y64645600D01*
X85754400Y64645600D02*
X85780000Y64645600D01*
X86930000Y65795600D02*
X86930000Y66850000D01*
X85780000Y64645600D02*
X86930000Y65795600D01*
D36*
%TO.N,VDD_NRF*%
X83600000Y64900000D02*
X83630000Y64900000D01*
D38*
X83600000Y64900000D02*
X83630000Y64870000D01*
D34*
X83630000Y64870000D02*
X83630000Y62950000D01*
D38*
X83630000Y62950000D02*
X83531000Y62851000D01*
X83531000Y62851000D02*
X83480000Y62851000D01*
D35*
%TO.N,GND*%
X84600000Y66080000D02*
X84600000Y66100000D01*
D34*
X78250000Y54000000D02*
X78300000Y54050000D01*
X78300000Y54050000D02*
X78300000Y54120000D01*
D35*
%TO.N,VDD_NRF*%
X93600000Y55100000D02*
X93562126Y55100000D01*
X93562126Y55100000D02*
X93546051Y55116075D01*
X93546051Y55116075D02*
X93546051Y55250000D01*
%TO.N,GND*%
X78300000Y54120000D02*
X78230000Y54050000D01*
%TO.N,/nRESET*%
X82730000Y57650000D02*
X83080000Y58000000D01*
X83080000Y58000000D02*
X88216900Y58000000D01*
X88216900Y58000000D02*
X90937557Y55279343D01*
X90937557Y55279343D02*
X90937557Y54962557D01*
X92037443Y54962557D02*
X93500000Y53500000D01*
D36*
%TO.N,VDD_NRF*%
X93546051Y55250000D02*
X94398026Y54398025D01*
D35*
%TO.N,/SWCLK*%
X83480000Y58400000D02*
X88242578Y58400000D01*
X88242578Y58400000D02*
X91500000Y55142578D01*
X91500000Y55142578D02*
X91500000Y54623611D01*
X91500000Y54623611D02*
X93521637Y52601974D01*
X93521637Y52601974D02*
X94398026Y52601974D01*
%TO.N,/SWDIO*%
X83480000Y58800000D02*
X88268255Y58800000D01*
X88268255Y58800000D02*
X91568255Y55500000D01*
X91568255Y55500000D02*
X92419662Y55500000D01*
X92419662Y55500000D02*
X94419662Y53500000D01*
X94419662Y53500000D02*
X95296051Y53500000D01*
%TO.N,VDD_NRF*%
X87455000Y53325000D02*
X88175000Y53325000D01*
X88175000Y53325000D02*
X88500000Y53000000D01*
D34*
X89500000Y53000000D02*
X88500000Y53000000D01*
D35*
X87230000Y55050000D02*
X87582000Y55050000D01*
X87582000Y55050000D02*
X87906000Y54726000D01*
X87906000Y54726000D02*
X87906000Y53424000D01*
X87807000Y53325000D02*
X87455000Y53325000D01*
X87906000Y53424000D02*
X87807000Y53325000D01*
D34*
%TO.N,/RF*%
X90300000Y60500000D02*
X88322500Y60500000D01*
D39*
X90750000Y60500000D02*
X90300000Y60500000D01*
D37*
%TO.N,VDD_NRF*%
X78330000Y57650000D02*
X78330000Y56650000D01*
D34*
X78330000Y63550000D02*
X76230000Y63550000D01*
D37*
%TO.N,GND*%
X79530000Y61600000D02*
X80530000Y60600000D01*
X80780000Y53865407D02*
X80780000Y54550000D01*
X83480000Y60800000D02*
X80730000Y60800000D01*
X80730000Y60800000D02*
X80530000Y60600000D01*
X79530000Y63550000D02*
X79530000Y61600000D01*
D34*
X86730000Y52600000D02*
X86730000Y51800000D01*
D37*
X81430000Y53100000D02*
X81430000Y53215407D01*
X81430000Y53215407D02*
X80780000Y53865407D01*
%TO.N,/XC2*%
X83480000Y62400000D02*
X83880000Y62400000D01*
X84130000Y63880000D02*
X84630000Y64380000D01*
X84630000Y64380000D02*
X84630000Y65050000D01*
X84130000Y62650000D02*
X84130000Y63880000D01*
X83880000Y62400000D02*
X84130000Y62650000D01*
D38*
%TO.N,Net-(U1-ANT)*%
X83480000Y60400000D02*
X84580000Y60400000D01*
D34*
X84580000Y60400000D02*
X85380000Y60400000D01*
D37*
X84580000Y60400000D02*
X84730000Y60550000D01*
X85380000Y60400000D02*
X85630000Y60650000D01*
%TO.N,/DEC2*%
X83480000Y61200000D02*
X83974199Y61200000D01*
X84324200Y61550000D02*
X85230000Y61550000D01*
X83974199Y61200000D02*
X84324200Y61550000D01*
%TO.N,/DEC3*%
X83941733Y61600000D02*
X84891732Y62550000D01*
X84891732Y62550000D02*
X85230000Y62550000D01*
X83480000Y61600000D02*
X83941733Y61600000D01*
%TO.N,/DEC4*%
X79010000Y65050000D02*
X79130000Y64930000D01*
X79130000Y64930000D02*
X79130000Y63550000D01*
%TO.N,/P0.25*%
X82730000Y64800000D02*
X82630000Y64900000D01*
X82730000Y63550000D02*
X82730000Y64800000D01*
%TO.N,Net-(U1-P0.26)*%
X82330000Y63550000D02*
X82330000Y64200000D01*
X82330000Y64200000D02*
X81630000Y64900000D01*
D34*
%TO.N,/RF*%
X86630000Y60500000D02*
X88322500Y60500000D01*
D37*
%TO.N,/SDO*%
X81671956Y56360491D02*
X81530000Y56502447D01*
X83880000Y53100000D02*
X84280000Y53100000D01*
X81671956Y55950000D02*
X81671956Y56360491D01*
X82266781Y53722419D02*
X82730000Y53259200D01*
X84380000Y53200000D02*
X84380000Y53450000D01*
X82730000Y53259200D02*
X82730000Y53100000D01*
X84280000Y53100000D02*
X84380000Y53200000D01*
X81671956Y53722419D02*
X82266781Y53722419D01*
X82730000Y53100000D02*
X83880000Y53100000D01*
X84755000Y53825000D02*
X85005000Y53825000D01*
X84380000Y53450000D02*
X84755000Y53825000D01*
X81530000Y56502447D02*
X81530000Y57650000D01*
%TO.N,/CS_DPS368*%
X80880000Y55700000D02*
X80880000Y55450000D01*
X80880000Y55950000D02*
X80880000Y55700000D01*
X80880000Y55450000D02*
X81430000Y54900000D01*
X81130000Y56200000D02*
X80880000Y55950000D01*
X81430000Y54900000D02*
X81430000Y54550000D01*
X81130000Y57650000D02*
X81130000Y56200000D01*
%TO.N,/SDI*%
X81930000Y57650000D02*
X81930000Y56850000D01*
X83880000Y54145400D02*
X84495800Y54145400D01*
X82080000Y54200000D02*
X82134600Y54145400D01*
X82080000Y54900000D02*
X82080000Y54550000D01*
X84675400Y54325000D02*
X85005000Y54325000D01*
X84495800Y54145400D02*
X84675400Y54325000D01*
X82230000Y56550000D02*
X82230000Y55050000D01*
X82080000Y54550000D02*
X82080000Y54200000D01*
X82230000Y55050000D02*
X82080000Y54900000D01*
X82134600Y54145400D02*
X83880000Y54145400D01*
X81930000Y56850000D02*
X82230000Y56550000D01*
%TO.N,/SCK*%
X84607400Y56550000D02*
X85730000Y55427400D01*
X83880000Y56550000D02*
X84607400Y56550000D01*
X82730000Y56550000D02*
X82730000Y55550000D01*
X82330000Y57650000D02*
X82330000Y56950000D01*
X82730000Y56550000D02*
X83880000Y56550000D01*
X85730000Y55427400D02*
X85730000Y55050000D01*
X82330000Y56950000D02*
X82730000Y56550000D01*
X82730000Y55550000D02*
X82730000Y54550000D01*
%TO.N,/INT_LIS3DHTR*%
X86230000Y53297597D02*
X86230000Y52600000D01*
X86482403Y53550000D02*
X86230000Y53297597D01*
X80330000Y57150000D02*
X79730000Y56550000D01*
X80330000Y57650000D02*
X80330000Y57150000D01*
%TO.N,/CS_LIS3DHTR*%
X85730000Y53550000D02*
X85505000Y53325000D01*
X80730000Y57650000D02*
X80730000Y56678600D01*
X85505000Y53325000D02*
X85005000Y53325000D01*
X80730000Y56678600D02*
X80601400Y56550000D01*
D35*
%TO.N,/XC1*%
X83907375Y62000000D02*
X84694000Y62786625D01*
X84694000Y62830123D02*
X85243877Y63380000D01*
%TO.N,/XC2*%
X85750000Y66170000D02*
X85750000Y66880000D01*
%TO.N,/XC1*%
X86150000Y63380000D02*
X87450000Y64680000D01*
%TO.N,GND*%
X87950000Y67380000D02*
X87450000Y66880000D01*
%TO.N,/XC2*%
X84630000Y65050000D02*
X85750000Y66170000D01*
%TO.N,GND*%
X87750000Y66580000D02*
X87450000Y66880000D01*
X87591994Y67021994D02*
X87450000Y66880000D01*
%TO.N,/XC1*%
X86030000Y63380000D02*
X86150000Y63380000D01*
%TO.N,GND*%
X87550000Y66980000D02*
X87450000Y66880000D01*
%TO.N,/XC1*%
X84694000Y62786625D02*
X84694000Y62830123D01*
X83480000Y62000000D02*
X83907375Y62000000D01*
%TO.N,GND*%
X87200000Y67130000D02*
X87450000Y66880000D01*
X88000000Y67430000D02*
X87450000Y66880000D01*
%TO.N,/XC1*%
X85243877Y63380000D02*
X86030000Y63380000D01*
D37*
%TO.N,GND*%
X87280000Y63350000D02*
X87280000Y63150000D01*
%TO.N,VDD_NRF*%
X78330000Y56650000D02*
X78230000Y56550000D01*
%TD*%
%TA.AperFunction,Conductor*%
%TO.N,GND*%
G36*
X90943039Y73979815D02*
G01*
X90988794Y73927011D01*
X91000000Y73875500D01*
X91000000Y61374500D01*
X90980315Y61307461D01*
X90927511Y61261706D01*
X90876000Y61250500D01*
X90226080Y61250500D01*
X90081092Y61221660D01*
X90081086Y61221658D01*
X89988948Y61183493D01*
X89955500Y61169638D01*
X89938878Y61162753D01*
X89938520Y61163615D01*
X89886160Y61150500D01*
X87246324Y61150500D01*
X87179285Y61170185D01*
X87170324Y61176520D01*
X87165684Y61180119D01*
X87026393Y61262495D01*
X87026390Y61262496D01*
X86870997Y61307643D01*
X86870991Y61307644D01*
X86834697Y61310500D01*
X86834690Y61310500D01*
X86827862Y61310500D01*
X86760823Y61330185D01*
X86740181Y61346819D01*
X86714000Y61373000D01*
X86304000Y61373000D01*
X86295314Y61375551D01*
X86286353Y61374262D01*
X86262312Y61385241D01*
X86236961Y61392685D01*
X86231033Y61399526D01*
X86222797Y61403287D01*
X86208507Y61425522D01*
X86191206Y61445489D01*
X86188918Y61456004D01*
X86185023Y61462065D01*
X86180000Y61497000D01*
X86180000Y61500000D01*
X86177000Y61500000D01*
X86109961Y61519685D01*
X86064206Y61572489D01*
X86053000Y61624000D01*
X86053000Y62122638D01*
X86072685Y62189677D01*
X86073000Y62190068D01*
X86073000Y62376000D01*
X86075550Y62384686D01*
X86074262Y62393647D01*
X86085240Y62417688D01*
X86092685Y62443039D01*
X86099525Y62448967D01*
X86103287Y62457203D01*
X86125521Y62471493D01*
X86145489Y62488794D01*
X86156003Y62491082D01*
X86162065Y62494977D01*
X86197000Y62500000D01*
X86203000Y62500000D01*
X86270039Y62480315D01*
X86315794Y62427511D01*
X86327000Y62376000D01*
X86327000Y61877362D01*
X86307315Y61810323D01*
X86307000Y61809933D01*
X86307000Y61627000D01*
X86713999Y61627000D01*
X86713999Y61701006D01*
X86699386Y61793272D01*
X86642724Y61904475D01*
X86636987Y61912373D01*
X86638708Y61913624D01*
X86611396Y61963643D01*
X86616380Y62033335D01*
X86644884Y62077686D01*
X86662725Y62095526D01*
X86719388Y62206735D01*
X86734000Y62298988D01*
X86734000Y62373000D01*
X86456070Y62373000D01*
X86441131Y62377387D01*
X86425571Y62376809D01*
X86408289Y62387030D01*
X86389031Y62392685D01*
X86378836Y62404450D01*
X86365432Y62412378D01*
X86356419Y62430321D01*
X86343276Y62445489D01*
X86341060Y62460900D01*
X86334071Y62474814D01*
X86336189Y62494777D01*
X86333332Y62514647D01*
X86339800Y62528811D01*
X86341443Y62544294D01*
X86354017Y62559943D01*
X86362357Y62578203D01*
X86376060Y62587373D01*
X86385209Y62598758D01*
X86412671Y62611873D01*
X86416748Y62614600D01*
X86419103Y62615388D01*
X86426395Y62617506D01*
X86427638Y62618242D01*
X86434692Y62620600D01*
X86444948Y62620981D01*
X86474014Y62627000D01*
X86733999Y62627000D01*
X86733999Y62692001D01*
X86753684Y62759040D01*
X86806488Y62804795D01*
X86857998Y62816001D01*
X86902999Y62816002D01*
X86903000Y62816002D01*
X86903000Y63256000D01*
X86905550Y63264686D01*
X86904262Y63273647D01*
X86915240Y63297688D01*
X86922685Y63323039D01*
X86929525Y63328967D01*
X86933287Y63337203D01*
X86955521Y63351493D01*
X86975489Y63368794D01*
X86986003Y63371082D01*
X86992065Y63374977D01*
X87027000Y63380000D01*
X87033000Y63380000D01*
X87100039Y63360315D01*
X87145794Y63307511D01*
X87157000Y63256000D01*
X87157000Y62816001D01*
X87201005Y62816001D01*
X87293271Y62830614D01*
X87404474Y62887276D01*
X87404479Y62887279D01*
X87492721Y62975521D01*
X87492724Y62975525D01*
X87549388Y63086735D01*
X87564000Y63178988D01*
X87564000Y63253000D01*
X87549180Y63267820D01*
X87515695Y63329143D01*
X87520679Y63398835D01*
X87562551Y63454768D01*
X87628015Y63479185D01*
X87636861Y63479501D01*
X87850002Y63479501D01*
X87850008Y63479501D01*
X87952797Y63490001D01*
X88119334Y63545186D01*
X88268656Y63637288D01*
X88392712Y63761344D01*
X88484814Y63910666D01*
X88539999Y64077203D01*
X88550500Y64179991D01*
X88550499Y65180008D01*
X88547055Y65213719D01*
X88539999Y65282797D01*
X88539998Y65282800D01*
X88537783Y65289485D01*
X88484814Y65449334D01*
X88392712Y65598656D01*
X88268656Y65722712D01*
X88266774Y65723873D01*
X88258899Y65728731D01*
X88252077Y65736316D01*
X88242797Y65740554D01*
X88229107Y65761856D01*
X88212177Y65780680D01*
X88209533Y65792314D01*
X88205023Y65799332D01*
X88200000Y65834267D01*
X88200000Y66082055D01*
X88219685Y66149094D01*
X88224734Y66156367D01*
X88246897Y66185973D01*
X88297547Y66321769D01*
X88303999Y66381773D01*
X88304000Y66381790D01*
X88304000Y66753000D01*
X88299699Y66757301D01*
X88282312Y66765241D01*
X88256961Y66772685D01*
X88251033Y66779526D01*
X88242797Y66783287D01*
X88228507Y66805522D01*
X88211206Y66825489D01*
X88208918Y66836004D01*
X88205023Y66842065D01*
X88200000Y66877000D01*
X88200000Y66883000D01*
X88219685Y66950039D01*
X88272489Y66995794D01*
X88298438Y67001440D01*
X88303999Y67007000D01*
X88303999Y67378208D01*
X88303998Y67378217D01*
X88297547Y67438236D01*
X88297546Y67438239D01*
X88246900Y67574022D01*
X88246896Y67574028D01*
X88224731Y67603639D01*
X88200316Y67669104D01*
X88200000Y67677947D01*
X88200000Y67780000D01*
X88058082Y67780000D01*
X88014748Y67787819D01*
X87908236Y67827547D01*
X87908233Y67827548D01*
X87848227Y67834000D01*
X87577000Y67834000D01*
X87559319Y67816319D01*
X87532391Y67801616D01*
X87506573Y67785023D01*
X87500372Y67784132D01*
X87497996Y67782834D01*
X87471638Y67780000D01*
X87428363Y67780000D01*
X87361324Y67799685D01*
X87340683Y67816318D01*
X87323000Y67834000D01*
X87051793Y67834000D01*
X87051783Y67833999D01*
X86991764Y67827548D01*
X86991761Y67827547D01*
X86885253Y67787819D01*
X86879623Y67786804D01*
X86876853Y67785023D01*
X86841918Y67780000D01*
X86762730Y67780000D01*
X86695691Y67799685D01*
X86675049Y67816319D01*
X86568657Y67922711D01*
X86568656Y67922712D01*
X86419334Y68014814D01*
X86252797Y68069999D01*
X86252795Y68070000D01*
X86150010Y68080500D01*
X85349998Y68080500D01*
X85349980Y68080499D01*
X85247203Y68070000D01*
X85247200Y68069999D01*
X85080668Y68014815D01*
X85080663Y68014813D01*
X84931342Y67922711D01*
X84807289Y67798658D01*
X84715187Y67649337D01*
X84715186Y67649334D01*
X84660001Y67482797D01*
X84660001Y67482796D01*
X84660000Y67482796D01*
X84649500Y67380017D01*
X84649500Y66736862D01*
X84629815Y66669823D01*
X84577011Y66624068D01*
X84524362Y66616498D01*
X84524363Y66614001D01*
X84398995Y66614000D01*
X84306728Y66599387D01*
X84195525Y66542725D01*
X84195520Y66542722D01*
X84107274Y66454475D01*
X84101538Y66446580D01*
X84098408Y66448854D01*
X84063433Y66411851D01*
X83995605Y66395083D01*
X83944672Y66408482D01*
X83923267Y66419389D01*
X83831012Y66434000D01*
X83757000Y66434000D01*
X83757000Y66024000D01*
X83754449Y66015315D01*
X83755738Y66006353D01*
X83744759Y65982313D01*
X83737315Y65956961D01*
X83730474Y65951034D01*
X83726713Y65942797D01*
X83704478Y65928508D01*
X83684511Y65911206D01*
X83673996Y65908919D01*
X83667935Y65905023D01*
X83633000Y65900000D01*
X83630000Y65900000D01*
X83630000Y65897000D01*
X83610315Y65829961D01*
X83557511Y65784206D01*
X83506000Y65773000D01*
X81773500Y65773000D01*
X81706461Y65792685D01*
X81660706Y65845489D01*
X81649500Y65897000D01*
X81649500Y65903000D01*
X81669185Y65970039D01*
X81721989Y66015794D01*
X81773500Y66027000D01*
X82503000Y66027000D01*
X82503000Y66434000D01*
X82757000Y66434000D01*
X82757000Y66027000D01*
X83503000Y66027000D01*
X83503000Y66434000D01*
X83502999Y66434001D01*
X83428995Y66434000D01*
X83336728Y66419387D01*
X83225525Y66362725D01*
X83225520Y66362722D01*
X83217681Y66354882D01*
X83156358Y66321397D01*
X83086666Y66326381D01*
X83042319Y66354882D01*
X83034479Y66362722D01*
X83034475Y66362725D01*
X82923265Y66419389D01*
X82831012Y66434000D01*
X82757000Y66434000D01*
X82503000Y66434000D01*
X82502999Y66434001D01*
X82428995Y66434000D01*
X82336728Y66419387D01*
X82225525Y66362725D01*
X82225520Y66362722D01*
X82217681Y66354882D01*
X82156358Y66321397D01*
X82086666Y66326381D01*
X82042319Y66354882D01*
X82034479Y66362722D01*
X82034475Y66362725D01*
X81923265Y66419389D01*
X81831012Y66434000D01*
X81757000Y66434000D01*
X81757000Y66428709D01*
X81748859Y66400985D01*
X81743566Y66372574D01*
X81739135Y66367869D01*
X81737315Y66361670D01*
X81715481Y66342752D01*
X81695665Y66321708D01*
X81689392Y66320146D01*
X81684511Y66315915D01*
X81655913Y66311803D01*
X81627868Y66304815D01*
X81621748Y66306891D01*
X81615353Y66305971D01*
X81589068Y66317975D01*
X81561701Y66327257D01*
X81555297Y66333398D01*
X81551797Y66334996D01*
X81536007Y66351454D01*
X81534594Y66353228D01*
X81534515Y66353365D01*
X81534367Y66353513D01*
X81530007Y66358987D01*
X81529787Y66359525D01*
X81529569Y66359810D01*
X81529647Y66359870D01*
X81519356Y66385119D01*
X81505834Y66409884D01*
X81504604Y66421315D01*
X81503637Y66423690D01*
X81504088Y66426116D01*
X81503270Y66433730D01*
X81502068Y66434932D01*
X81438203Y66453685D01*
X81417561Y66470319D01*
X80844506Y67043374D01*
X80811021Y67104697D01*
X80808569Y67140780D01*
X80810500Y67165310D01*
X80810500Y67574690D01*
X80807643Y67610993D01*
X80807642Y67610998D01*
X80763123Y67764232D01*
X80763322Y67834101D01*
X80801264Y67892771D01*
X80820195Y67906212D01*
X80825865Y67909485D01*
X81654561Y68738181D01*
X81715884Y68771666D01*
X81742242Y68774500D01*
X82119169Y68774500D01*
X82119174Y68774500D01*
X82217685Y68784564D01*
X82377287Y68837451D01*
X82520391Y68925719D01*
X82639281Y69044609D01*
X82727549Y69187713D01*
X82780436Y69347315D01*
X82790500Y69445826D01*
X82790500Y69979174D01*
X82780436Y70077685D01*
X82727549Y70237287D01*
X82727545Y70237293D01*
X82727544Y70237296D01*
X82639283Y70380388D01*
X82639280Y70380392D01*
X82607353Y70412319D01*
X82573868Y70473642D01*
X82578852Y70543334D01*
X82607353Y70587681D01*
X82639281Y70619609D01*
X82727549Y70762713D01*
X82780436Y70922315D01*
X82790500Y71020826D01*
X82790500Y71554174D01*
X82780436Y71652685D01*
X82727549Y71812287D01*
X82727545Y71812293D01*
X82727544Y71812296D01*
X82639283Y71955388D01*
X82639280Y71955392D01*
X82520391Y72074281D01*
X82520387Y72074284D01*
X82377295Y72162545D01*
X82377289Y72162548D01*
X82377287Y72162549D01*
X82217685Y72215436D01*
X82217683Y72215437D01*
X82119181Y72225500D01*
X82119174Y72225500D01*
X81510826Y72225500D01*
X81510818Y72225500D01*
X81412316Y72215437D01*
X81412315Y72215436D01*
X81333219Y72189227D01*
X81252715Y72162550D01*
X81252710Y72162548D01*
X81113847Y72076895D01*
X81046455Y72058455D01*
X80983653Y72076895D01*
X80844789Y72162548D01*
X80844784Y72162550D01*
X80843376Y72163017D01*
X80685185Y72215436D01*
X80685183Y72215437D01*
X80586681Y72225500D01*
X80586674Y72225500D01*
X79978326Y72225500D01*
X79978318Y72225500D01*
X79879816Y72215437D01*
X79879815Y72215436D01*
X79800719Y72189227D01*
X79720215Y72162550D01*
X79720210Y72162548D01*
X79581347Y72076895D01*
X79513955Y72058455D01*
X79451153Y72076895D01*
X79312289Y72162548D01*
X79312284Y72162550D01*
X79310876Y72163017D01*
X79152685Y72215436D01*
X79152683Y72215437D01*
X79054181Y72225500D01*
X79054174Y72225500D01*
X78445826Y72225500D01*
X78445818Y72225500D01*
X78347316Y72215437D01*
X78347315Y72215436D01*
X78268219Y72189227D01*
X78187715Y72162550D01*
X78187710Y72162548D01*
X78048847Y72076895D01*
X77981455Y72058455D01*
X77918653Y72076895D01*
X77779789Y72162548D01*
X77779784Y72162550D01*
X77778376Y72163017D01*
X77620185Y72215436D01*
X77620183Y72215437D01*
X77521681Y72225500D01*
X77521674Y72225500D01*
X76913326Y72225500D01*
X76913318Y72225500D01*
X76814816Y72215437D01*
X76814815Y72215436D01*
X76735719Y72189227D01*
X76655215Y72162550D01*
X76655210Y72162548D01*
X76516347Y72076895D01*
X76448955Y72058455D01*
X76386153Y72076895D01*
X76247289Y72162548D01*
X76247284Y72162550D01*
X76245876Y72163017D01*
X76087685Y72215436D01*
X76087683Y72215437D01*
X75989181Y72225500D01*
X75989174Y72225500D01*
X75380826Y72225500D01*
X75380818Y72225500D01*
X75282316Y72215437D01*
X75282315Y72215436D01*
X75203219Y72189227D01*
X75122715Y72162550D01*
X75122704Y72162545D01*
X74979612Y72074284D01*
X74979608Y72074281D01*
X74860719Y71955392D01*
X74860716Y71955388D01*
X74772455Y71812296D01*
X74772451Y71812287D01*
X74719564Y71652685D01*
X74719564Y71652684D01*
X74719563Y71652684D01*
X74709500Y71554182D01*
X74709500Y71020819D01*
X74719563Y70922317D01*
X74772450Y70762716D01*
X74772455Y70762705D01*
X74860716Y70619613D01*
X74860719Y70619609D01*
X74892647Y70587681D01*
X74926132Y70526358D01*
X74921148Y70456666D01*
X74892647Y70412319D01*
X74860719Y70380392D01*
X74860716Y70380388D01*
X74772455Y70237296D01*
X74772451Y70237287D01*
X74719564Y70077685D01*
X74719564Y70077684D01*
X74719563Y70077684D01*
X74709500Y69979182D01*
X74709500Y69445819D01*
X74719563Y69347317D01*
X74772450Y69187716D01*
X74772455Y69187705D01*
X74860716Y69044613D01*
X74860719Y69044609D01*
X74979608Y68925720D01*
X74979612Y68925717D01*
X75122704Y68837456D01*
X75122707Y68837455D01*
X75122713Y68837451D01*
X75282315Y68784564D01*
X75328632Y68779833D01*
X75338745Y68778799D01*
X75403437Y68752403D01*
X75443589Y68695222D01*
X75446452Y68625411D01*
X75445220Y68620847D01*
X75442356Y68610992D01*
X75439500Y68574698D01*
X75439500Y68165303D01*
X75442356Y68129009D01*
X75442357Y68129003D01*
X75487504Y67973610D01*
X75487506Y67973605D01*
X75511448Y67933119D01*
X75528629Y67865394D01*
X75511448Y67806881D01*
X75487506Y67766396D01*
X75487504Y67766391D01*
X75442357Y67610998D01*
X75442356Y67610992D01*
X75439500Y67574698D01*
X75439500Y67165303D01*
X75442356Y67129009D01*
X75442357Y67129003D01*
X75487504Y66973610D01*
X75487505Y66973607D01*
X75569881Y66834316D01*
X75569887Y66834308D01*
X75684307Y66719888D01*
X75684311Y66719885D01*
X75684313Y66719883D01*
X75823605Y66637506D01*
X75864587Y66625600D01*
X75979002Y66592358D01*
X75979005Y66592358D01*
X75979007Y66592357D01*
X76015310Y66589500D01*
X76045258Y66589500D01*
X76112297Y66569815D01*
X76132939Y66553181D01*
X76775300Y65910820D01*
X76808785Y65849497D01*
X76803801Y65779805D01*
X76761930Y65723873D01*
X76652814Y65642189D01*
X76652811Y65642186D01*
X76570269Y65531925D01*
X76570267Y65531922D01*
X76522134Y65402873D01*
X76522133Y65402868D01*
X76516000Y65345837D01*
X76516000Y65177000D01*
X77096000Y65177000D01*
X77104685Y65174450D01*
X77113647Y65175738D01*
X77137687Y65164760D01*
X77163039Y65157315D01*
X77168966Y65150475D01*
X77177203Y65146713D01*
X77191492Y65124479D01*
X77208794Y65104511D01*
X77211081Y65093997D01*
X77214977Y65087935D01*
X77220000Y65053000D01*
X77220000Y65047000D01*
X77200315Y64979961D01*
X77147511Y64934206D01*
X77096000Y64923000D01*
X76516000Y64923000D01*
X76516000Y64849500D01*
X76496315Y64782461D01*
X76443511Y64736706D01*
X76392001Y64725500D01*
X76256663Y64725500D01*
X76256644Y64725499D01*
X76157292Y64715350D01*
X76157289Y64715349D01*
X75996305Y64662004D01*
X75996294Y64661999D01*
X75851959Y64572971D01*
X75851955Y64572968D01*
X75732033Y64453046D01*
X75694934Y64392900D01*
X75642985Y64346177D01*
X75574022Y64334956D01*
X75515085Y64358733D01*
X75426924Y64424731D01*
X75426921Y64424733D01*
X75297872Y64472866D01*
X75297867Y64472867D01*
X75240836Y64479000D01*
X75097000Y64479000D01*
X75097000Y63874000D01*
X75094449Y63865315D01*
X75095738Y63856353D01*
X75084759Y63832313D01*
X75077315Y63806961D01*
X75070474Y63801034D01*
X75066713Y63792797D01*
X75044478Y63778508D01*
X75024511Y63761206D01*
X75013996Y63758919D01*
X75007935Y63755023D01*
X74973000Y63750000D01*
X74967000Y63750000D01*
X74899961Y63769685D01*
X74854206Y63822489D01*
X74843000Y63874000D01*
X74843000Y64479000D01*
X74699163Y64479000D01*
X74642132Y64472867D01*
X74642127Y64472866D01*
X74513078Y64424733D01*
X74513075Y64424731D01*
X74402814Y64342189D01*
X74349429Y64270876D01*
X74293495Y64229006D01*
X74223803Y64224022D01*
X74187043Y64238455D01*
X74175617Y64245212D01*
X74146395Y64262494D01*
X74146393Y64262495D01*
X74146391Y64262496D01*
X73990997Y64307643D01*
X73990991Y64307644D01*
X73954697Y64310500D01*
X73954690Y64310500D01*
X73545310Y64310500D01*
X73545302Y64310500D01*
X73509008Y64307644D01*
X73509002Y64307643D01*
X73353609Y64262496D01*
X73353606Y64262495D01*
X73214315Y64180119D01*
X73214307Y64180113D01*
X73118645Y64084450D01*
X73057322Y64050965D01*
X73011566Y64049658D01*
X72921012Y64064000D01*
X72877000Y64064000D01*
X72877000Y63624000D01*
X72874449Y63615315D01*
X72875738Y63606353D01*
X72864759Y63582313D01*
X72857315Y63556961D01*
X72850474Y63551034D01*
X72846713Y63542797D01*
X72824478Y63528508D01*
X72804511Y63511206D01*
X72793996Y63508919D01*
X72787935Y63505023D01*
X72753000Y63500000D01*
X72747000Y63500000D01*
X72679961Y63519685D01*
X72634206Y63572489D01*
X72623000Y63624000D01*
X72623000Y64064000D01*
X72578995Y64064000D01*
X72486728Y64049387D01*
X72375525Y63992725D01*
X72375520Y63992722D01*
X72287278Y63904480D01*
X72287275Y63904476D01*
X72230611Y63793266D01*
X72216000Y63701013D01*
X72216000Y63627000D01*
X72405010Y63627000D01*
X72406155Y63626664D01*
X72407308Y63626979D01*
X72439605Y63616842D01*
X72472049Y63607315D01*
X72472830Y63606413D01*
X72473971Y63606055D01*
X72495668Y63580058D01*
X72517804Y63554511D01*
X72517973Y63553331D01*
X72518740Y63552412D01*
X72522936Y63518819D01*
X72527748Y63485353D01*
X72527251Y63484267D01*
X72527400Y63483081D01*
X72512773Y63452564D01*
X72498723Y63421797D01*
X72497549Y63420800D01*
X72497202Y63420074D01*
X72470105Y63397460D01*
X72460377Y63391460D01*
X72395282Y63373000D01*
X72216001Y63373000D01*
X72216001Y63298994D01*
X72227372Y63227192D01*
X72218416Y63157899D01*
X72210438Y63142701D01*
X72189656Y63109007D01*
X72165186Y63069334D01*
X72110001Y62902797D01*
X72110001Y62902796D01*
X72110000Y62902796D01*
X72099500Y62800017D01*
X72099500Y62199999D01*
X72099501Y62199981D01*
X72110000Y62097204D01*
X72110001Y62097201D01*
X72165185Y61930669D01*
X72165187Y61930664D01*
X72176469Y61912373D01*
X72257288Y61781344D01*
X72381344Y61657288D01*
X72530666Y61565186D01*
X72697203Y61510001D01*
X72799991Y61499500D01*
X74200008Y61499501D01*
X74302797Y61510001D01*
X74322823Y61516638D01*
X74392650Y61519039D01*
X74449508Y61486612D01*
X75062589Y60873531D01*
X75096074Y60812208D01*
X75091090Y60742516D01*
X75062590Y60698169D01*
X74983452Y60619030D01*
X74922129Y60585545D01*
X74852437Y60590529D01*
X74796503Y60632400D01*
X74790231Y60641615D01*
X74742712Y60718656D01*
X74618657Y60842711D01*
X74618656Y60842712D01*
X74469334Y60934814D01*
X74302797Y60989999D01*
X74302795Y60990000D01*
X74200010Y61000500D01*
X72799998Y61000500D01*
X72799981Y61000499D01*
X72697203Y60990000D01*
X72697200Y60989999D01*
X72530668Y60934815D01*
X72530663Y60934813D01*
X72381342Y60842711D01*
X72257289Y60718658D01*
X72165187Y60569337D01*
X72165185Y60569332D01*
X72147708Y60516590D01*
X72110001Y60402797D01*
X72110001Y60402796D01*
X72110000Y60402796D01*
X72099500Y60300017D01*
X72099500Y59699999D01*
X72099501Y59699981D01*
X72110000Y59597204D01*
X72110001Y59597201D01*
X72165185Y59430669D01*
X72165187Y59430664D01*
X72176489Y59412341D01*
X72257288Y59281344D01*
X72381344Y59157288D01*
X72463030Y59106904D01*
X72476062Y59098866D01*
X72522786Y59046918D01*
X72534009Y58977955D01*
X72506165Y58913873D01*
X72498647Y58905646D01*
X72466001Y58873000D01*
X72466001Y58798995D01*
X72480613Y58706729D01*
X72537275Y58595526D01*
X72537278Y58595521D01*
X72625520Y58507279D01*
X72625524Y58507276D01*
X72736734Y58450612D01*
X72828987Y58436001D01*
X72872999Y58436001D01*
X72873000Y58436002D01*
X72873000Y58875501D01*
X72875550Y58884187D01*
X72874262Y58893148D01*
X72885240Y58917189D01*
X72892685Y58942540D01*
X72899525Y58948468D01*
X72903287Y58956704D01*
X72925521Y58970994D01*
X72945489Y58988295D01*
X72956003Y58990583D01*
X72962065Y58994478D01*
X72996996Y58999501D01*
X73003001Y58999501D01*
X73070039Y58979816D01*
X73115794Y58927012D01*
X73127000Y58875501D01*
X73127000Y58436001D01*
X73171011Y58436001D01*
X73171011Y58436002D01*
X73261566Y58450343D01*
X73330859Y58441388D01*
X73368644Y58415551D01*
X73464307Y58319888D01*
X73464311Y58319885D01*
X73464313Y58319883D01*
X73603605Y58237506D01*
X73644587Y58225600D01*
X73759002Y58192358D01*
X73759005Y58192358D01*
X73759007Y58192357D01*
X73795310Y58189500D01*
X73795318Y58189500D01*
X74204682Y58189500D01*
X74204690Y58189500D01*
X74240993Y58192357D01*
X74240995Y58192358D01*
X74240997Y58192358D01*
X74281975Y58204264D01*
X74396395Y58237506D01*
X74535687Y58319883D01*
X74650117Y58434313D01*
X74732494Y58573605D01*
X74777643Y58729007D01*
X74780500Y58765310D01*
X74780500Y59234690D01*
X74777643Y59270993D01*
X74776761Y59275820D01*
X74779650Y59303277D01*
X74779150Y59330879D01*
X74783643Y59341211D01*
X74784074Y59345305D01*
X74793216Y59363226D01*
X74794703Y59365638D01*
X74846668Y59412341D01*
X74900217Y59424500D01*
X75254066Y59424500D01*
X75254068Y59424500D01*
X75400437Y59463719D01*
X75531667Y59539485D01*
X76467819Y60475639D01*
X76483888Y60484413D01*
X76496938Y60497257D01*
X76513917Y60500810D01*
X76529142Y60509123D01*
X76547404Y60507817D01*
X76565327Y60511567D01*
X76581530Y60505377D01*
X76598833Y60504139D01*
X76613491Y60493166D01*
X76630596Y60486631D01*
X76640881Y60472662D01*
X76654767Y60462267D01*
X76661165Y60445113D01*
X76672022Y60430367D01*
X76676825Y60403128D01*
X76679184Y60396803D01*
X76679250Y60395822D01*
X76679500Y60391889D01*
X76679500Y60306898D01*
X76690123Y60218436D01*
X76690600Y60217227D01*
X76691195Y60207865D01*
X76690561Y60205058D01*
X76690561Y60185217D01*
X76685434Y60142517D01*
X76679500Y60093102D01*
X76679500Y59906898D01*
X76684308Y59866864D01*
X76690561Y59814783D01*
X76690561Y59785217D01*
X76685722Y59744913D01*
X76679500Y59693102D01*
X76679500Y59506898D01*
X76682321Y59483410D01*
X76690561Y59414783D01*
X76690561Y59385217D01*
X76688210Y59365636D01*
X76679500Y59293102D01*
X76679500Y59106898D01*
X76680465Y59098866D01*
X76690561Y59014783D01*
X76690561Y58985217D01*
X76685437Y58942540D01*
X76679500Y58893102D01*
X76679500Y58706898D01*
X76685222Y58659246D01*
X76690561Y58614783D01*
X76691285Y58593712D01*
X76690748Y58583151D01*
X76690123Y58581564D01*
X76679500Y58493102D01*
X76679500Y58361606D01*
X76679340Y58358454D01*
X76668805Y58328323D01*
X76659815Y58297703D01*
X76656788Y58293947D01*
X76656282Y58292499D01*
X76654498Y58291106D01*
X76643181Y58277061D01*
X76038925Y57672805D01*
X75977602Y57639320D01*
X75907910Y57644304D01*
X75875712Y57664997D01*
X75874319Y57663234D01*
X75868658Y57667710D01*
X75868656Y57667712D01*
X75719334Y57759814D01*
X75552797Y57814999D01*
X75552795Y57815000D01*
X75450010Y57825500D01*
X74049998Y57825500D01*
X74049981Y57825499D01*
X73947203Y57815000D01*
X73947200Y57814999D01*
X73780668Y57759815D01*
X73780663Y57759813D01*
X73631342Y57667711D01*
X73507289Y57543658D01*
X73415187Y57394337D01*
X73415185Y57394332D01*
X73390665Y57320335D01*
X73360001Y57227797D01*
X73360001Y57227796D01*
X73360000Y57227796D01*
X73349500Y57125017D01*
X73349500Y57125004D01*
X73349501Y56199500D01*
X73329817Y56132461D01*
X73277013Y56086706D01*
X73225501Y56075500D01*
X73169482Y56075500D01*
X73102443Y56095185D01*
X73056688Y56147989D01*
X73046744Y56217147D01*
X73050405Y56234094D01*
X73056981Y56256729D01*
X73057643Y56259007D01*
X73060500Y56295310D01*
X73060500Y56704690D01*
X73057643Y56740993D01*
X73012494Y56896395D01*
X72930117Y57035687D01*
X72930115Y57035689D01*
X72930112Y57035693D01*
X72815692Y57150113D01*
X72815684Y57150119D01*
X72728671Y57201578D01*
X72676395Y57232494D01*
X72676394Y57232495D01*
X72676393Y57232495D01*
X72676390Y57232496D01*
X72520997Y57277643D01*
X72520991Y57277644D01*
X72484697Y57280500D01*
X72484690Y57280500D01*
X72441599Y57280500D01*
X72417408Y57282883D01*
X72386108Y57289109D01*
X72328844Y57300500D01*
X72328842Y57300500D01*
X72171158Y57300500D01*
X72171156Y57300500D01*
X72113892Y57289109D01*
X72082591Y57282883D01*
X72058401Y57280500D01*
X72015302Y57280500D01*
X71979008Y57277644D01*
X71979002Y57277643D01*
X71823609Y57232496D01*
X71823606Y57232495D01*
X71684315Y57150119D01*
X71684307Y57150113D01*
X71569887Y57035693D01*
X71569881Y57035685D01*
X71487505Y56896394D01*
X71487504Y56896391D01*
X71442357Y56740998D01*
X71442356Y56740992D01*
X71439500Y56704698D01*
X71439500Y56295303D01*
X71442356Y56259009D01*
X71442357Y56259003D01*
X71487504Y56103610D01*
X71487506Y56103605D01*
X71511448Y56063119D01*
X71528629Y55995394D01*
X71511448Y55936881D01*
X71487506Y55896396D01*
X71487504Y55896391D01*
X71442357Y55740998D01*
X71442356Y55740992D01*
X71439500Y55704698D01*
X71439500Y55295303D01*
X71442356Y55259009D01*
X71442357Y55259003D01*
X71487504Y55103610D01*
X71487505Y55103607D01*
X71487506Y55103605D01*
X71501843Y55079362D01*
X71569881Y54964316D01*
X71569887Y54964308D01*
X71684307Y54849888D01*
X71684311Y54849885D01*
X71684313Y54849883D01*
X71823605Y54767506D01*
X71849706Y54759923D01*
X71979002Y54722358D01*
X71979005Y54722358D01*
X71979007Y54722357D01*
X72015310Y54719500D01*
X72015318Y54719500D01*
X72484682Y54719500D01*
X72484690Y54719500D01*
X72520993Y54722357D01*
X72520995Y54722358D01*
X72520997Y54722358D01*
X72564231Y54734919D01*
X72676395Y54767506D01*
X72815687Y54849883D01*
X72853984Y54888180D01*
X72915307Y54921666D01*
X72941666Y54924500D01*
X73675764Y54924500D01*
X73675766Y54924500D01*
X73822135Y54963719D01*
X73953365Y55039485D01*
X74352061Y55438183D01*
X74413384Y55471667D01*
X74439742Y55474501D01*
X75450002Y55474501D01*
X75450008Y55474501D01*
X75552797Y55485001D01*
X75719334Y55540186D01*
X75868656Y55632288D01*
X75992712Y55756344D01*
X76084814Y55905666D01*
X76139999Y56072203D01*
X76143925Y56110642D01*
X76170319Y56175333D01*
X76179601Y56185722D01*
X76183362Y56189484D01*
X76183365Y56189485D01*
X76484324Y56490445D01*
X76545642Y56523926D01*
X76615333Y56518942D01*
X76671267Y56477071D01*
X76695684Y56411606D01*
X76696000Y56402762D01*
X76696000Y56348996D01*
X76710613Y56256729D01*
X76767275Y56145526D01*
X76767278Y56145521D01*
X76855520Y56057279D01*
X76855524Y56057276D01*
X76966734Y56000612D01*
X77058987Y55986001D01*
X77102999Y55986001D01*
X77103000Y55986002D01*
X77103000Y56426000D01*
X77105550Y56434686D01*
X77104262Y56443647D01*
X77115240Y56467688D01*
X77122685Y56493039D01*
X77129525Y56498967D01*
X77133287Y56507203D01*
X77155521Y56521493D01*
X77175489Y56538794D01*
X77186003Y56541082D01*
X77192065Y56544977D01*
X77227000Y56550000D01*
X77233000Y56550000D01*
X77300039Y56530315D01*
X77345794Y56477511D01*
X77357000Y56426000D01*
X77357000Y55986001D01*
X77401011Y55986001D01*
X77401011Y55986002D01*
X77491566Y56000343D01*
X77560859Y55991388D01*
X77598644Y55965551D01*
X77694307Y55869888D01*
X77694311Y55869885D01*
X77694313Y55869883D01*
X77833605Y55787506D01*
X77976756Y55745917D01*
X77989608Y55741403D01*
X78016503Y55730263D01*
X78016506Y55730263D01*
X78016511Y55730261D01*
X78171153Y55699501D01*
X78171156Y55699500D01*
X78171158Y55699500D01*
X78328844Y55699500D01*
X78328845Y55699501D01*
X78483497Y55730263D01*
X78604353Y55780324D01*
X78617202Y55784836D01*
X78626395Y55787506D01*
X78765687Y55869883D01*
X78880117Y55984313D01*
X78904499Y56025542D01*
X78955565Y56073223D01*
X79024306Y56085729D01*
X79088896Y56059084D01*
X79107085Y56041083D01*
X79108215Y56039706D01*
X79219707Y55928214D01*
X79219711Y55928211D01*
X79350814Y55840610D01*
X79350827Y55840603D01*
X79479019Y55787505D01*
X79496503Y55780263D01*
X79651153Y55749501D01*
X79651156Y55749500D01*
X79651158Y55749500D01*
X79808844Y55749500D01*
X79931308Y55773860D01*
X80000900Y55767633D01*
X80056077Y55724770D01*
X80079322Y55658880D01*
X80079500Y55652243D01*
X80079500Y55621154D01*
X80110261Y55466511D01*
X80110264Y55466499D01*
X80170602Y55320828D01*
X80170609Y55320815D01*
X80258210Y55189712D01*
X80258213Y55189708D01*
X80369710Y55078211D01*
X80486015Y55000499D01*
X80500821Y54990606D01*
X80517290Y54983785D01*
X80524221Y54979153D01*
X80529264Y54978056D01*
X80557518Y54956905D01*
X80718181Y54796242D01*
X80751666Y54734919D01*
X80754500Y54708561D01*
X80754500Y54327131D01*
X80754501Y54327124D01*
X80760908Y54267517D01*
X80811202Y54132672D01*
X80811203Y54132670D01*
X80877751Y54043774D01*
X80889592Y54012026D01*
X80901991Y53980514D01*
X80901909Y53979002D01*
X80902168Y53978310D01*
X80900101Y53945271D01*
X80886184Y53875308D01*
X80853799Y53813397D01*
X80793083Y53778823D01*
X80764568Y53775500D01*
X80557130Y53775500D01*
X80557123Y53775499D01*
X80497516Y53769092D01*
X80362669Y53718797D01*
X80356942Y53715669D01*
X80297513Y53700500D01*
X79910915Y53700500D01*
X79843876Y53720185D01*
X79798121Y53772989D01*
X79788177Y53842147D01*
X79788442Y53843899D01*
X79794000Y53878989D01*
X79794000Y53923000D01*
X77836001Y53923000D01*
X77836001Y53878994D01*
X77850343Y53788432D01*
X77841387Y53719139D01*
X77815550Y53681355D01*
X77719887Y53585693D01*
X77719881Y53585685D01*
X77637505Y53446394D01*
X77637504Y53446391D01*
X77592357Y53290998D01*
X77592356Y53290992D01*
X77589500Y53254698D01*
X77589500Y52845303D01*
X77592356Y52809009D01*
X77592357Y52809003D01*
X77637504Y52653610D01*
X77637505Y52653607D01*
X77719881Y52514316D01*
X77719887Y52514308D01*
X77834307Y52399888D01*
X77834311Y52399885D01*
X77834313Y52399883D01*
X77973605Y52317506D01*
X77984998Y52314196D01*
X78129002Y52272358D01*
X78129005Y52272358D01*
X78129007Y52272357D01*
X78165310Y52269500D01*
X78208401Y52269500D01*
X78232591Y52267118D01*
X78260992Y52261468D01*
X78321156Y52249500D01*
X78321158Y52249500D01*
X78478843Y52249500D01*
X78524398Y52258562D01*
X78567424Y52267121D01*
X78569973Y52267600D01*
X78580700Y52269500D01*
X78634690Y52269500D01*
X78670993Y52272357D01*
X78786814Y52306008D01*
X78793374Y52307169D01*
X78820679Y52304145D01*
X78849595Y52304145D01*
X78959007Y52272357D01*
X78995310Y52269500D01*
X78995318Y52269500D01*
X79464682Y52269500D01*
X79464690Y52269500D01*
X79500993Y52272357D01*
X79500995Y52272358D01*
X79500997Y52272358D01*
X79564783Y52290890D01*
X79656395Y52317506D01*
X79765840Y52382233D01*
X79828961Y52399500D01*
X80130823Y52399500D01*
X80197862Y52379815D01*
X80233923Y52344392D01*
X80274723Y52283331D01*
X80274726Y52283327D01*
X80489327Y52068726D01*
X80557314Y52023299D01*
X80595867Y51997539D01*
X80595875Y51997534D01*
X80622692Y51986426D01*
X80714256Y51948499D01*
X80714260Y51948499D01*
X80714261Y51948498D01*
X80839928Y51923500D01*
X80839931Y51923500D01*
X82020071Y51923500D01*
X82104615Y51940318D01*
X82145744Y51948499D01*
X82264127Y51997535D01*
X82293937Y52017453D01*
X82293938Y52017453D01*
X82366134Y52065693D01*
X82370669Y52068723D01*
X82585276Y52283330D01*
X82614203Y52326623D01*
X82642780Y52369391D01*
X82696392Y52414197D01*
X82745882Y52424501D01*
X82952871Y52424501D01*
X82952872Y52424501D01*
X83012483Y52430909D01*
X83147331Y52481204D01*
X83170525Y52498567D01*
X83191273Y52506306D01*
X83209901Y52518277D01*
X83231817Y52521429D01*
X83235989Y52522984D01*
X83244836Y52523300D01*
X83273259Y52523300D01*
X83340298Y52503615D01*
X83360940Y52486981D01*
X83369707Y52478214D01*
X83369711Y52478211D01*
X83500814Y52390610D01*
X83500827Y52390603D01*
X83646498Y52330265D01*
X83646503Y52330263D01*
X83762604Y52307169D01*
X83801153Y52299501D01*
X83801156Y52299500D01*
X83801158Y52299500D01*
X83958844Y52299500D01*
X83958845Y52299501D01*
X84113497Y52330263D01*
X84238962Y52382232D01*
X84259172Y52390603D01*
X84259172Y52390604D01*
X84259179Y52390606D01*
X84361610Y52459049D01*
X84428286Y52479926D01*
X84495666Y52461442D01*
X84542357Y52409463D01*
X84554500Y52355950D01*
X84554500Y52327132D01*
X84554501Y52327124D01*
X84560908Y52267517D01*
X84611202Y52132672D01*
X84611206Y52132665D01*
X84697452Y52017456D01*
X84697455Y52017453D01*
X84812664Y51931207D01*
X84812671Y51931203D01*
X84857618Y51914439D01*
X84947517Y51880909D01*
X85007127Y51874500D01*
X85452872Y51874501D01*
X85466741Y51875992D01*
X85493250Y51875992D01*
X85507127Y51874500D01*
X85952872Y51874501D01*
X85966741Y51875992D01*
X85993250Y51875992D01*
X86007127Y51874500D01*
X86452872Y51874501D01*
X86512483Y51880909D01*
X86647331Y51931204D01*
X86655687Y51937461D01*
X86721149Y51961879D01*
X86789422Y51947030D01*
X86804304Y51937466D01*
X86812669Y51931204D01*
X86947517Y51880909D01*
X87007127Y51874500D01*
X87452872Y51874501D01*
X87512483Y51880909D01*
X87647331Y51931204D01*
X87762546Y52017454D01*
X87848796Y52132669D01*
X87870512Y52190891D01*
X87878849Y52213245D01*
X87920719Y52269179D01*
X87986184Y52293597D01*
X88054457Y52278746D01*
X88058146Y52276649D01*
X88073605Y52267506D01*
X88073612Y52267504D01*
X88229002Y52222358D01*
X88229005Y52222358D01*
X88229007Y52222357D01*
X88265310Y52219500D01*
X88308401Y52219500D01*
X88332591Y52217118D01*
X88352058Y52213245D01*
X88421156Y52199500D01*
X88421158Y52199500D01*
X88578843Y52199500D01*
X88647942Y52213245D01*
X88667408Y52217118D01*
X88691599Y52219500D01*
X88734682Y52219500D01*
X88734690Y52219500D01*
X88770993Y52222357D01*
X88770995Y52222358D01*
X88770997Y52222358D01*
X88926388Y52267504D01*
X88926387Y52267504D01*
X88926395Y52267506D01*
X88936880Y52273708D01*
X89004600Y52290890D01*
X89063118Y52273708D01*
X89073605Y52267506D01*
X89073610Y52267505D01*
X89073611Y52267504D01*
X89229002Y52222358D01*
X89229005Y52222358D01*
X89229007Y52222357D01*
X89265310Y52219500D01*
X89265318Y52219500D01*
X89734682Y52219500D01*
X89734690Y52219500D01*
X89770993Y52222357D01*
X89770995Y52222358D01*
X89770997Y52222358D01*
X89811975Y52234264D01*
X89926395Y52267506D01*
X90065687Y52349883D01*
X90180117Y52464313D01*
X90262494Y52603605D01*
X90307643Y52759007D01*
X90310500Y52795310D01*
X90310500Y53204690D01*
X90307643Y53240993D01*
X90303661Y53254698D01*
X90262495Y53396391D01*
X90262494Y53396394D01*
X90262494Y53396395D01*
X90180117Y53535687D01*
X90180115Y53535689D01*
X90180112Y53535693D01*
X90084449Y53631356D01*
X90050964Y53692679D01*
X90049657Y53738436D01*
X90064000Y53828989D01*
X90064000Y53873000D01*
X88624000Y53873000D01*
X88615314Y53875551D01*
X88606353Y53874262D01*
X88582312Y53885241D01*
X88556961Y53892685D01*
X88551033Y53899526D01*
X88542797Y53903287D01*
X88528507Y53925522D01*
X88511206Y53945489D01*
X88508918Y53956004D01*
X88505023Y53962065D01*
X88500000Y53997000D01*
X88500000Y54003000D01*
X88519685Y54070039D01*
X88572489Y54115794D01*
X88624000Y54127000D01*
X89373000Y54127000D01*
X89627000Y54127000D01*
X90063999Y54127000D01*
X90063999Y54171006D01*
X90049386Y54263272D01*
X89992724Y54374475D01*
X89992721Y54374480D01*
X89904479Y54462722D01*
X89904475Y54462725D01*
X89793265Y54519389D01*
X89701012Y54534000D01*
X89627000Y54534000D01*
X89627000Y54127000D01*
X89373000Y54127000D01*
X89373000Y54534000D01*
X89372999Y54534001D01*
X89298995Y54534000D01*
X89206728Y54519387D01*
X89095525Y54462725D01*
X89095520Y54462722D01*
X89087681Y54454882D01*
X89026358Y54421397D01*
X88956666Y54426381D01*
X88912319Y54454882D01*
X88904479Y54462722D01*
X88904475Y54462725D01*
X88793265Y54519389D01*
X88701012Y54534000D01*
X88605500Y54534000D01*
X88599551Y54535747D01*
X88593463Y54534586D01*
X88566425Y54545474D01*
X88538461Y54553685D01*
X88534402Y54558370D01*
X88528651Y54560685D01*
X88511789Y54584466D01*
X88492706Y54606489D01*
X88490914Y54613907D01*
X88488238Y54617681D01*
X88484274Y54641398D01*
X88481629Y54652351D01*
X88481500Y54655180D01*
X88481500Y54801766D01*
X88476928Y54818828D01*
X88442281Y54948135D01*
X88366515Y55079365D01*
X88259365Y55186515D01*
X88259363Y55186517D01*
X87935365Y55510515D01*
X87813908Y55580639D01*
X87776644Y55613713D01*
X87762546Y55632546D01*
X87647331Y55718796D01*
X87647329Y55718797D01*
X87647328Y55718798D01*
X87512486Y55769090D01*
X87512485Y55769091D01*
X87512483Y55769091D01*
X87452873Y55775500D01*
X87452863Y55775500D01*
X87007133Y55775500D01*
X87007121Y55775499D01*
X86993248Y55774008D01*
X86966756Y55774009D01*
X86952889Y55775499D01*
X86952875Y55775500D01*
X86952873Y55775500D01*
X86952870Y55775500D01*
X86507133Y55775500D01*
X86507121Y55775499D01*
X86493248Y55774008D01*
X86478823Y55773305D01*
X86472756Y55773363D01*
X86452873Y55775500D01*
X86248289Y55775500D01*
X86247659Y55775506D01*
X86214776Y55785503D01*
X86181801Y55795185D01*
X86181119Y55795734D01*
X86180810Y55795828D01*
X86180390Y55796322D01*
X86161159Y55811818D01*
X86129498Y55843479D01*
X86084102Y55888875D01*
X84961502Y57011475D01*
X84961500Y57011476D01*
X84961498Y57011478D01*
X84830000Y57087398D01*
X84829999Y57087399D01*
X84829998Y57087399D01*
X84683324Y57126700D01*
X84683323Y57126700D01*
X84486741Y57126700D01*
X84465228Y57133017D01*
X84442870Y57134720D01*
X84429069Y57143635D01*
X84419702Y57146385D01*
X84411972Y57151778D01*
X84405124Y57156954D01*
X84390289Y57171789D01*
X84348968Y57199399D01*
X84346085Y57201578D01*
X84327344Y57226857D01*
X84307158Y57251010D01*
X84306693Y57254711D01*
X84304473Y57257705D01*
X84302372Y57289109D01*
X84298451Y57320335D01*
X84300059Y57323698D01*
X84299811Y57327419D01*
X84315020Y57354968D01*
X84328605Y57383363D01*
X84331778Y57385324D01*
X84333580Y57388586D01*
X84361262Y57403536D01*
X84388048Y57420082D01*
X84393179Y57420774D01*
X84395057Y57421787D01*
X84398666Y57421513D01*
X84420854Y57424500D01*
X87927158Y57424500D01*
X87994197Y57404815D01*
X88014839Y57388181D01*
X90127447Y55275573D01*
X90160932Y55214250D01*
X90161383Y55163701D01*
X90137057Y55041404D01*
X90137057Y54883711D01*
X90167818Y54729068D01*
X90167821Y54729056D01*
X90228159Y54583385D01*
X90228166Y54583372D01*
X90315767Y54452269D01*
X90315770Y54452265D01*
X90427264Y54340771D01*
X90427268Y54340768D01*
X90558371Y54253167D01*
X90558384Y54253160D01*
X90636012Y54221006D01*
X90704060Y54192820D01*
X90813726Y54171006D01*
X90858710Y54162058D01*
X90858713Y54162057D01*
X91000000Y54162057D01*
X91000000Y52579973D01*
X90959121Y52552658D01*
X90959117Y52552655D01*
X90855242Y52448780D01*
X90855239Y52448776D01*
X90773624Y52326632D01*
X90773619Y52326623D01*
X90717402Y52190901D01*
X90717399Y52190891D01*
X90688741Y52046816D01*
X90688741Y51899897D01*
X90717399Y51755822D01*
X90717402Y51755812D01*
X90773619Y51620090D01*
X90773624Y51620081D01*
X90855239Y51497937D01*
X90855242Y51497933D01*
X90959117Y51394058D01*
X90959121Y51394055D01*
X91000000Y51366741D01*
X91000000Y49000500D01*
X71252712Y49000500D01*
X71247302Y49000618D01*
X70863252Y49017389D01*
X70852476Y49018332D01*
X70474044Y49068156D01*
X70463391Y49070034D01*
X70090728Y49152653D01*
X70080279Y49155453D01*
X69716242Y49270235D01*
X69706077Y49273935D01*
X69353427Y49420008D01*
X69343623Y49424580D01*
X69005056Y49600827D01*
X68995688Y49606235D01*
X68673752Y49811330D01*
X68664891Y49817535D01*
X68362072Y50049896D01*
X68353785Y50056849D01*
X68072358Y50314727D01*
X68064709Y50322376D01*
X67806828Y50603800D01*
X67799875Y50612087D01*
X67746251Y50681970D01*
X67567509Y50914909D01*
X67561307Y50923766D01*
X67367768Y51227556D01*
X67356213Y51245695D01*
X67350806Y51255059D01*
X67350204Y51256216D01*
X67174542Y51593650D01*
X67169985Y51603421D01*
X67034210Y51931204D01*
X67023899Y51956096D01*
X67020200Y51966261D01*
X67001116Y52026784D01*
X73596001Y52026784D01*
X73602452Y51966765D01*
X73602453Y51966762D01*
X73653099Y51830979D01*
X73653103Y51830973D01*
X73739952Y51714953D01*
X73855972Y51628104D01*
X73855974Y51628103D01*
X73991768Y51577453D01*
X74051780Y51571001D01*
X74622999Y51571001D01*
X74877000Y51571001D01*
X75448207Y51571001D01*
X75448216Y51571002D01*
X75508235Y51577453D01*
X75508238Y51577454D01*
X75644021Y51628100D01*
X75644027Y51628104D01*
X75760047Y51714953D01*
X75846896Y51830973D01*
X75846897Y51830975D01*
X75897547Y51966769D01*
X75903999Y52026773D01*
X75904000Y52026790D01*
X75904000Y52373000D01*
X74877000Y52373000D01*
X74877000Y51571001D01*
X74622999Y51571001D01*
X74623000Y51571002D01*
X74623000Y52373000D01*
X73596001Y52373000D01*
X73596001Y52026784D01*
X67001116Y52026784D01*
X66905418Y52330288D01*
X66902618Y52340736D01*
X66901808Y52344390D01*
X66819993Y52713406D01*
X66818121Y52724021D01*
X66785308Y52973228D01*
X73596000Y52973228D01*
X73596000Y52627000D01*
X74623000Y52627000D01*
X74877000Y52627000D01*
X75903999Y52627000D01*
X75903999Y52973208D01*
X75903998Y52973217D01*
X75897547Y53033236D01*
X75897546Y53033239D01*
X75846900Y53169022D01*
X75846896Y53169028D01*
X75760047Y53285048D01*
X75644027Y53371897D01*
X75644025Y53371898D01*
X75508231Y53422548D01*
X75448227Y53429000D01*
X74877000Y53429000D01*
X74877000Y52627000D01*
X74623000Y52627000D01*
X74623000Y53429000D01*
X74051792Y53429000D01*
X74051783Y53428999D01*
X73991764Y53422548D01*
X73991761Y53422547D01*
X73855978Y53371901D01*
X73855972Y53371897D01*
X73739952Y53285048D01*
X73653103Y53169028D01*
X73653102Y53169026D01*
X73602452Y53033232D01*
X73596000Y52973228D01*
X66785308Y52973228D01*
X66768287Y53102501D01*
X66767347Y53113242D01*
X66750618Y53496279D01*
X66750500Y53501689D01*
X66750500Y54221013D01*
X77836000Y54221013D01*
X77836000Y54177000D01*
X78273000Y54177000D01*
X78273000Y54584000D01*
X78527000Y54584000D01*
X78527000Y54177000D01*
X79103000Y54177000D01*
X79357000Y54177000D01*
X79793999Y54177000D01*
X79793999Y54221006D01*
X79779386Y54313272D01*
X79722724Y54424475D01*
X79722721Y54424480D01*
X79634479Y54512722D01*
X79634475Y54512725D01*
X79523265Y54569389D01*
X79431012Y54584000D01*
X79357000Y54584000D01*
X79357000Y54177000D01*
X79103000Y54177000D01*
X79103000Y54584000D01*
X79102999Y54584001D01*
X79028995Y54584000D01*
X78936728Y54569387D01*
X78871294Y54536046D01*
X78802624Y54523150D01*
X78758704Y54536046D01*
X78693265Y54569389D01*
X78601012Y54584000D01*
X78527000Y54584000D01*
X78273000Y54584000D01*
X78272999Y54584001D01*
X78198995Y54584000D01*
X78106728Y54569387D01*
X77995525Y54512725D01*
X77995520Y54512722D01*
X77907278Y54424480D01*
X77907275Y54424476D01*
X77850611Y54313266D01*
X77836000Y54221013D01*
X66750500Y54221013D01*
X66750500Y61828847D01*
X67249500Y61828847D01*
X67249500Y61671154D01*
X67280261Y61516511D01*
X67280264Y61516499D01*
X67340602Y61370828D01*
X67340609Y61370815D01*
X67428210Y61239712D01*
X67428213Y61239708D01*
X67539707Y61128214D01*
X67539711Y61128211D01*
X67670814Y61040610D01*
X67670827Y61040603D01*
X67792998Y60989999D01*
X67816503Y60980263D01*
X67971153Y60949501D01*
X67971156Y60949500D01*
X67971158Y60949500D01*
X68128844Y60949500D01*
X68128845Y60949501D01*
X68283497Y60980263D01*
X68429179Y61040606D01*
X68518094Y61100017D01*
X69024500Y61100017D01*
X69024500Y60499999D01*
X69024501Y60499981D01*
X69035000Y60397204D01*
X69035001Y60397201D01*
X69064925Y60306898D01*
X69090186Y60230666D01*
X69182288Y60081344D01*
X69306344Y59957288D01*
X69455666Y59865186D01*
X69622203Y59810001D01*
X69724991Y59799500D01*
X70775008Y59799501D01*
X70775016Y59799502D01*
X70775019Y59799502D01*
X70833402Y59805466D01*
X70877797Y59810001D01*
X71044334Y59865186D01*
X71193656Y59957288D01*
X71317712Y60081344D01*
X71409814Y60230666D01*
X71464999Y60397203D01*
X71475500Y60499991D01*
X71475499Y61100008D01*
X71472723Y61127180D01*
X71464999Y61202797D01*
X71464998Y61202800D01*
X71452767Y61239711D01*
X71409814Y61369334D01*
X71317712Y61518656D01*
X71193656Y61642712D01*
X71044334Y61734814D01*
X70957906Y61763454D01*
X70900463Y61803226D01*
X70873640Y61867742D01*
X70885955Y61936518D01*
X70933499Y61987718D01*
X70953581Y61997342D01*
X70969026Y62003103D01*
X70969027Y62003104D01*
X71085047Y62089953D01*
X71171896Y62205973D01*
X71171897Y62205975D01*
X71222547Y62341769D01*
X71228999Y62401773D01*
X71229000Y62401790D01*
X71229000Y62573000D01*
X69271001Y62573000D01*
X69271001Y62401784D01*
X69277452Y62341765D01*
X69277453Y62341762D01*
X69328099Y62205979D01*
X69328103Y62205973D01*
X69414952Y62089953D01*
X69530972Y62003104D01*
X69530975Y62003102D01*
X69546420Y61997341D01*
X69602354Y61955470D01*
X69626771Y61890006D01*
X69611920Y61821733D01*
X69562515Y61772327D01*
X69542092Y61763453D01*
X69455666Y61734814D01*
X69455663Y61734813D01*
X69306342Y61642711D01*
X69182289Y61518658D01*
X69090187Y61369337D01*
X69090185Y61369332D01*
X69069683Y61307461D01*
X69035001Y61202797D01*
X69035001Y61202796D01*
X69035000Y61202796D01*
X69024500Y61100017D01*
X68518094Y61100017D01*
X68560289Y61128211D01*
X68585609Y61153531D01*
X68622926Y61190847D01*
X68671786Y61239708D01*
X68671789Y61239711D01*
X68759394Y61370821D01*
X68819737Y61516503D01*
X68850500Y61671158D01*
X68850500Y61828842D01*
X68850500Y61828845D01*
X68850499Y61828847D01*
X68839646Y61883410D01*
X68819737Y61983497D01*
X68819735Y61983502D01*
X68759397Y62129173D01*
X68759390Y62129186D01*
X68671789Y62260289D01*
X68671786Y62260293D01*
X68560292Y62371787D01*
X68560288Y62371790D01*
X68429185Y62459391D01*
X68429172Y62459398D01*
X68283501Y62519736D01*
X68283489Y62519739D01*
X68128845Y62550500D01*
X68128842Y62550500D01*
X67971158Y62550500D01*
X67971155Y62550500D01*
X67816510Y62519739D01*
X67816498Y62519736D01*
X67670827Y62459398D01*
X67670814Y62459391D01*
X67539711Y62371790D01*
X67539707Y62371787D01*
X67428213Y62260293D01*
X67428210Y62260289D01*
X67340609Y62129186D01*
X67340602Y62129173D01*
X67280264Y61983502D01*
X67280261Y61983490D01*
X67249500Y61828847D01*
X66750500Y61828847D01*
X66750500Y62998228D01*
X69271000Y62998228D01*
X69271000Y62827000D01*
X70123000Y62827000D01*
X70377000Y62827000D01*
X71228999Y62827000D01*
X71228999Y62998208D01*
X71228998Y62998217D01*
X71222547Y63058236D01*
X71222546Y63058239D01*
X71171900Y63194022D01*
X71171896Y63194028D01*
X71085047Y63310048D01*
X70969027Y63396897D01*
X70969025Y63396898D01*
X70833231Y63447548D01*
X70773227Y63454000D01*
X70377000Y63454000D01*
X70377000Y62827000D01*
X70123000Y62827000D01*
X70123000Y63454000D01*
X69726792Y63454000D01*
X69726783Y63453999D01*
X69666764Y63447548D01*
X69666761Y63447547D01*
X69530978Y63396901D01*
X69530972Y63396897D01*
X69414952Y63310048D01*
X69328103Y63194028D01*
X69328102Y63194026D01*
X69277452Y63058232D01*
X69271000Y62998228D01*
X66750500Y62998228D01*
X66750500Y69497296D01*
X66750618Y69502705D01*
X66753377Y69565892D01*
X66767387Y69886770D01*
X66768327Y69897504D01*
X66818153Y70275965D01*
X66820031Y70286613D01*
X66902652Y70659296D01*
X66905439Y70669696D01*
X67020235Y71033783D01*
X67023919Y71043904D01*
X67170007Y71396590D01*
X67174565Y71406364D01*
X67350826Y71744957D01*
X67356221Y71754302D01*
X67561329Y72076260D01*
X67567519Y72085099D01*
X67799891Y72387932D01*
X67806841Y72396215D01*
X68064730Y72677653D01*
X68072357Y72685280D01*
X68353798Y72943175D01*
X68362062Y72950110D01*
X68664921Y73182504D01*
X68673760Y73188691D01*
X68995697Y73393789D01*
X69005038Y73399183D01*
X69343633Y73575447D01*
X69353424Y73580013D01*
X69706093Y73726095D01*
X69716229Y73729784D01*
X70080293Y73844576D01*
X70090731Y73847371D01*
X70463392Y73929991D01*
X70474028Y73931868D01*
X70852498Y73981696D01*
X70863232Y73982636D01*
X71225738Y73998466D01*
X71246731Y73999382D01*
X71252140Y73999500D01*
X90876000Y73999500D01*
X90943039Y73979815D01*
G37*
%TD.AperFunction*%
%TA.AperFunction,Conductor*%
G36*
X84453712Y55883410D02*
G01*
X84476228Y55865595D01*
X84804653Y55537170D01*
X84838138Y55475847D01*
X84833154Y55406155D01*
X84820078Y55380603D01*
X84815736Y55374105D01*
X84815735Y55374104D01*
X84801000Y55300022D01*
X84801000Y55151573D01*
X84803899Y55146263D01*
X84798915Y55076571D01*
X84757043Y55020638D01*
X84695990Y54996616D01*
X84672519Y54994093D01*
X84537671Y54943798D01*
X84537668Y54943796D01*
X84415355Y54852232D01*
X84413410Y54854831D01*
X84365996Y54828962D01*
X84296306Y54833972D01*
X84270792Y54847035D01*
X84259183Y54854792D01*
X84259172Y54854798D01*
X84113501Y54915136D01*
X84113489Y54915139D01*
X83958845Y54945900D01*
X83958842Y54945900D01*
X83801158Y54945900D01*
X83801155Y54945900D01*
X83646510Y54915139D01*
X83646498Y54915136D01*
X83524222Y54864488D01*
X83521498Y54864196D01*
X83519293Y54862568D01*
X83486957Y54860482D01*
X83454752Y54857019D01*
X83452302Y54858246D01*
X83449568Y54858069D01*
X83421244Y54873793D01*
X83392273Y54888295D01*
X83390141Y54891059D01*
X83388480Y54891981D01*
X83383940Y54899099D01*
X83367526Y54920382D01*
X83363535Y54927814D01*
X83348796Y54967331D01*
X83325857Y54997973D01*
X83321456Y55006169D01*
X83316105Y55031620D01*
X83307016Y55055989D01*
X83306700Y55064836D01*
X83306700Y55738326D01*
X83326385Y55805365D01*
X83379189Y55851120D01*
X83448347Y55861064D01*
X83495239Y55843094D01*
X83495446Y55843479D01*
X83498520Y55841836D01*
X83499600Y55841422D01*
X83500819Y55840607D01*
X83500827Y55840603D01*
X83629019Y55787505D01*
X83646503Y55780263D01*
X83801153Y55749501D01*
X83801156Y55749500D01*
X83801158Y55749500D01*
X83958844Y55749500D01*
X83958845Y55749501D01*
X84113497Y55780263D01*
X84259179Y55840606D01*
X84259184Y55840610D01*
X84259187Y55840611D01*
X84319655Y55881015D01*
X84386332Y55901894D01*
X84453712Y55883410D01*
G37*
%TD.AperFunction*%
%TA.AperFunction,Conductor*%
G36*
X89900172Y59845991D02*
G01*
X89911432Y59846897D01*
X89938767Y59836980D01*
X89938878Y59837247D01*
X89944504Y59834917D01*
X89944505Y59834916D01*
X90081087Y59778342D01*
X90081091Y59778342D01*
X90081092Y59778341D01*
X90226079Y59749500D01*
X90226082Y59749500D01*
X90833908Y59749500D01*
X90833920Y59749501D01*
X90876000Y59749501D01*
X90943039Y59729816D01*
X90988794Y59677012D01*
X91000000Y59625501D01*
X91000000Y57181497D01*
X90980315Y57114458D01*
X90927511Y57068703D01*
X90858353Y57058759D01*
X90794797Y57087784D01*
X90788319Y57093816D01*
X88621622Y59260513D01*
X88621620Y59260515D01*
X88547554Y59303277D01*
X88490391Y59336281D01*
X88417205Y59355891D01*
X88344021Y59375500D01*
X88344020Y59375500D01*
X85392862Y59375500D01*
X85373610Y59381154D01*
X85353558Y59381894D01*
X85337718Y59391693D01*
X85325823Y59395185D01*
X85318604Y59403516D01*
X85305181Y59411819D01*
X85294000Y59423000D01*
X84854000Y59423000D01*
X84786961Y59442685D01*
X84741206Y59495489D01*
X84730000Y59547000D01*
X84730000Y59553000D01*
X84749685Y59620039D01*
X84802489Y59665794D01*
X84854000Y59677000D01*
X85308871Y59677000D01*
X85332834Y59691178D01*
X85335048Y59691097D01*
X85336991Y59692157D01*
X85385641Y59692972D01*
X85389007Y59692357D01*
X85425310Y59689500D01*
X85425318Y59689500D01*
X85834682Y59689500D01*
X85834690Y59689500D01*
X85870993Y59692357D01*
X85870995Y59692358D01*
X85870997Y59692358D01*
X85911975Y59704264D01*
X86026395Y59737506D01*
X86066879Y59761449D01*
X86134602Y59778632D01*
X86193120Y59761449D01*
X86233605Y59737506D01*
X86260074Y59729816D01*
X86389002Y59692358D01*
X86389005Y59692358D01*
X86389007Y59692357D01*
X86425310Y59689500D01*
X86425318Y59689500D01*
X86834682Y59689500D01*
X86834690Y59689500D01*
X86870993Y59692357D01*
X86870995Y59692358D01*
X86870997Y59692358D01*
X86911975Y59704264D01*
X87026395Y59737506D01*
X87165687Y59819883D01*
X87165692Y59819889D01*
X87170324Y59823480D01*
X87235361Y59849014D01*
X87246324Y59849500D01*
X88258431Y59849500D01*
X89886160Y59849500D01*
X89900172Y59845991D01*
G37*
%TD.AperFunction*%
%TA.AperFunction,Conductor*%
G36*
X81037040Y62436888D02*
G01*
X81030000Y62419891D01*
X81030000Y62380109D01*
X81045224Y62343355D01*
X81073355Y62315224D01*
X81110109Y62300000D01*
X81149891Y62300000D01*
X81186645Y62315224D01*
X81214776Y62343355D01*
X81230000Y62380109D01*
X81230000Y62419891D01*
X81224407Y62433393D01*
X81263122Y62430628D01*
X81307483Y62402122D01*
X81564692Y62144912D01*
X81599653Y62205466D01*
X81610225Y62244920D01*
X81646590Y62304581D01*
X81709437Y62335110D01*
X81778812Y62326815D01*
X81832690Y62282330D01*
X81849775Y62244920D01*
X81860347Y62205464D01*
X81860348Y62205461D01*
X81895306Y62144913D01*
X82152516Y62402122D01*
X82213839Y62435607D01*
X82235857Y62434033D01*
X82230000Y62419891D01*
X82230000Y62380109D01*
X82245224Y62343355D01*
X82273355Y62315224D01*
X82310109Y62300000D01*
X82349891Y62300000D01*
X82363391Y62305593D01*
X82360622Y62266864D01*
X82332121Y62222517D01*
X82074910Y61965308D01*
X82074910Y61965307D01*
X82135459Y61930349D01*
X82135458Y61930349D01*
X82174920Y61919775D01*
X82234580Y61883410D01*
X82265109Y61820563D01*
X82256814Y61751187D01*
X82212329Y61697309D01*
X82174920Y61680225D01*
X82135462Y61669653D01*
X82074911Y61634694D01*
X82074910Y61634694D01*
X82332121Y61377484D01*
X82336459Y61369539D01*
X82343707Y61364113D01*
X82352941Y61339354D01*
X82365606Y61316161D01*
X82364960Y61307132D01*
X82368124Y61298649D01*
X82366886Y61292961D01*
X82349891Y61300000D01*
X82310109Y61300000D01*
X82273355Y61284776D01*
X82245224Y61256645D01*
X82230000Y61219891D01*
X82230000Y61180109D01*
X82245224Y61143355D01*
X82273355Y61115224D01*
X82310109Y61100000D01*
X82349891Y61100000D01*
X82363391Y61105593D01*
X82360622Y61066864D01*
X82332121Y61022517D01*
X82074910Y60765308D01*
X82074910Y60765307D01*
X82135459Y60730349D01*
X82135458Y60730349D01*
X82174920Y60719775D01*
X82234580Y60683410D01*
X82265109Y60620563D01*
X82256814Y60551187D01*
X82212329Y60497309D01*
X82174920Y60480225D01*
X82135462Y60469653D01*
X82074911Y60434694D01*
X82074910Y60434694D01*
X82332121Y60177484D01*
X82336459Y60169539D01*
X82343707Y60164113D01*
X82352941Y60139354D01*
X82365606Y60116161D01*
X82364960Y60107132D01*
X82368124Y60098649D01*
X82366886Y60092961D01*
X82349891Y60100000D01*
X82310109Y60100000D01*
X82273355Y60084776D01*
X82245224Y60056645D01*
X82230000Y60019891D01*
X82230000Y59980109D01*
X82245224Y59943355D01*
X82273355Y59915224D01*
X82310109Y59900000D01*
X82349891Y59900000D01*
X82363391Y59905593D01*
X82360622Y59866864D01*
X82332121Y59822517D01*
X82074910Y59565308D01*
X82074910Y59565307D01*
X82135459Y59530349D01*
X82135458Y59530349D01*
X82174920Y59519775D01*
X82234580Y59483410D01*
X82265109Y59420563D01*
X82256814Y59351187D01*
X82212329Y59297309D01*
X82174920Y59280225D01*
X82135462Y59269653D01*
X82074911Y59234694D01*
X82074910Y59234694D01*
X82332121Y58977484D01*
X82336459Y58969539D01*
X82343707Y58964113D01*
X82352941Y58939354D01*
X82365606Y58916161D01*
X82364960Y58907132D01*
X82368124Y58898649D01*
X82366886Y58892961D01*
X82349891Y58900000D01*
X82310109Y58900000D01*
X82273355Y58884776D01*
X82245224Y58856645D01*
X82230000Y58819891D01*
X82230000Y58780109D01*
X82235592Y58766609D01*
X82196863Y58769378D01*
X82152516Y58797879D01*
X81895306Y59055090D01*
X81895306Y59055089D01*
X81860347Y58994538D01*
X81849775Y58955080D01*
X81813410Y58895420D01*
X81750563Y58864891D01*
X81681187Y58873186D01*
X81627309Y58917671D01*
X81610225Y58955080D01*
X81599651Y58994541D01*
X81564693Y59055090D01*
X81307483Y58797879D01*
X81299537Y58793541D01*
X81294112Y58786293D01*
X81269352Y58777059D01*
X81246160Y58764394D01*
X81237130Y58765040D01*
X81228648Y58761876D01*
X81222960Y58763114D01*
X81230000Y58780109D01*
X81230000Y58819891D01*
X81214776Y58856645D01*
X81186645Y58884776D01*
X81149891Y58900000D01*
X81110109Y58900000D01*
X81073355Y58884776D01*
X81045224Y58856645D01*
X81030000Y58819891D01*
X81030000Y58780109D01*
X81035592Y58766609D01*
X80996863Y58769378D01*
X80952516Y58797879D01*
X80695306Y59055090D01*
X80695306Y59055089D01*
X80660347Y58994538D01*
X80649775Y58955080D01*
X80613410Y58895420D01*
X80550563Y58864891D01*
X80481187Y58873186D01*
X80427309Y58917671D01*
X80410225Y58955080D01*
X80399651Y58994541D01*
X80364693Y59055090D01*
X80364692Y59055090D01*
X80107483Y58797879D01*
X80099537Y58793541D01*
X80094112Y58786293D01*
X80069352Y58777059D01*
X80046160Y58764394D01*
X80037130Y58765040D01*
X80028648Y58761876D01*
X80022960Y58763114D01*
X80030000Y58780109D01*
X80030000Y58819891D01*
X80014776Y58856645D01*
X79986645Y58884776D01*
X79949891Y58900000D01*
X79910109Y58900000D01*
X79873355Y58884776D01*
X79845224Y58856645D01*
X79830000Y58819891D01*
X79830000Y58780109D01*
X79835592Y58766609D01*
X79796863Y58769378D01*
X79752516Y58797879D01*
X79495306Y59055090D01*
X79495306Y59055089D01*
X79460347Y58994538D01*
X79449775Y58955080D01*
X79413410Y58895420D01*
X79350563Y58864891D01*
X79281187Y58873186D01*
X79227309Y58917671D01*
X79210225Y58955080D01*
X79199651Y58994541D01*
X79164693Y59055090D01*
X78907483Y58797879D01*
X78899537Y58793541D01*
X78894112Y58786293D01*
X78869352Y58777059D01*
X78846160Y58764394D01*
X78837130Y58765040D01*
X78828648Y58761876D01*
X78822960Y58763114D01*
X78830000Y58780109D01*
X78830000Y58819891D01*
X78814776Y58856645D01*
X78786645Y58884776D01*
X78749891Y58900000D01*
X78710109Y58900000D01*
X78696607Y58894408D01*
X78699377Y58933137D01*
X78727878Y58977484D01*
X78985087Y59234694D01*
X78924539Y59269652D01*
X78924536Y59269653D01*
X78885080Y59280225D01*
X78825419Y59316590D01*
X78794890Y59379437D01*
X78803185Y59448812D01*
X78847670Y59502690D01*
X78885080Y59519775D01*
X78924534Y59530347D01*
X78985086Y59565307D01*
X79674910Y59565307D01*
X79735459Y59530349D01*
X79735458Y59530349D01*
X79774920Y59519775D01*
X79834580Y59483410D01*
X79865109Y59420563D01*
X79856814Y59351187D01*
X79812329Y59297309D01*
X79774920Y59280225D01*
X79735462Y59269653D01*
X79674911Y59234694D01*
X79674910Y59234694D01*
X79929999Y58979606D01*
X80185087Y59234694D01*
X80124539Y59269652D01*
X80124536Y59269653D01*
X80085080Y59280225D01*
X80025419Y59316590D01*
X79994890Y59379437D01*
X80003185Y59448812D01*
X80047670Y59502690D01*
X80085080Y59519775D01*
X80124534Y59530347D01*
X80185086Y59565307D01*
X80874910Y59565307D01*
X80935459Y59530349D01*
X80935458Y59530349D01*
X80974920Y59519775D01*
X81034580Y59483410D01*
X81065109Y59420563D01*
X81056814Y59351187D01*
X81012329Y59297309D01*
X80974920Y59280225D01*
X80935462Y59269653D01*
X80874911Y59234694D01*
X80874910Y59234694D01*
X81129999Y58979606D01*
X81385088Y59234694D01*
X81324539Y59269652D01*
X81324536Y59269653D01*
X81285080Y59280225D01*
X81225419Y59316590D01*
X81194890Y59379437D01*
X81203185Y59448812D01*
X81247670Y59502690D01*
X81285080Y59519775D01*
X81324534Y59530347D01*
X81385088Y59565308D01*
X81130001Y59820395D01*
X80874910Y59565307D01*
X80185086Y59565307D01*
X80185088Y59565308D01*
X79930001Y59820395D01*
X79674910Y59565307D01*
X78985086Y59565307D01*
X78985088Y59565308D01*
X78727878Y59822517D01*
X78723536Y59830468D01*
X78716283Y59835899D01*
X78707053Y59860656D01*
X78694393Y59883840D01*
X78695039Y59892878D01*
X78691874Y59901367D01*
X78693109Y59907042D01*
X78710109Y59900000D01*
X78749891Y59900000D01*
X78786645Y59915224D01*
X78814776Y59943355D01*
X78830000Y59980109D01*
X78830000Y60000001D01*
X78909603Y60000001D01*
X79164692Y59744912D01*
X79199653Y59805466D01*
X79210225Y59844920D01*
X79246590Y59904581D01*
X79309437Y59935110D01*
X79378812Y59926815D01*
X79432690Y59882330D01*
X79449775Y59844920D01*
X79460347Y59805464D01*
X79460348Y59805461D01*
X79495306Y59744913D01*
X79495307Y59744912D01*
X79750394Y59999999D01*
X79750394Y60000000D01*
X79730503Y60019891D01*
X79830000Y60019891D01*
X79830000Y59980109D01*
X79845224Y59943355D01*
X79873355Y59915224D01*
X79910109Y59900000D01*
X79949891Y59900000D01*
X79986645Y59915224D01*
X80014776Y59943355D01*
X80030000Y59980109D01*
X80030000Y60000000D01*
X80109605Y60000000D01*
X80109605Y59999999D01*
X80364692Y59744912D01*
X80399653Y59805466D01*
X80410225Y59844920D01*
X80446590Y59904581D01*
X80509437Y59935110D01*
X80578812Y59926815D01*
X80632690Y59882330D01*
X80649775Y59844920D01*
X80660347Y59805464D01*
X80660348Y59805461D01*
X80695306Y59744913D01*
X80695307Y59744912D01*
X80950394Y59999999D01*
X80950394Y60000000D01*
X80930503Y60019891D01*
X81030000Y60019891D01*
X81030000Y59980109D01*
X81045224Y59943355D01*
X81073355Y59915224D01*
X81110109Y59900000D01*
X81149891Y59900000D01*
X81186645Y59915224D01*
X81214776Y59943355D01*
X81230000Y59980109D01*
X81230000Y60000000D01*
X81309605Y60000000D01*
X81309605Y59999999D01*
X81564692Y59744912D01*
X81599653Y59805466D01*
X81610225Y59844920D01*
X81646590Y59904581D01*
X81709437Y59935110D01*
X81778812Y59926815D01*
X81832690Y59882330D01*
X81849775Y59844920D01*
X81860347Y59805464D01*
X81860348Y59805461D01*
X81895306Y59744913D01*
X82150394Y60000001D01*
X81895306Y60255090D01*
X81895306Y60255089D01*
X81860347Y60194538D01*
X81849775Y60155080D01*
X81813410Y60095420D01*
X81750563Y60064891D01*
X81681187Y60073186D01*
X81627309Y60117671D01*
X81610225Y60155080D01*
X81599651Y60194541D01*
X81564693Y60255090D01*
X81309605Y60000000D01*
X81230000Y60000000D01*
X81230000Y60019891D01*
X81214776Y60056645D01*
X81186645Y60084776D01*
X81149891Y60100000D01*
X81110109Y60100000D01*
X81073355Y60084776D01*
X81045224Y60056645D01*
X81030000Y60019891D01*
X80930503Y60019891D01*
X80695305Y60255089D01*
X80660347Y60194538D01*
X80649775Y60155080D01*
X80613410Y60095420D01*
X80550563Y60064891D01*
X80481187Y60073186D01*
X80427309Y60117671D01*
X80410225Y60155080D01*
X80399651Y60194541D01*
X80364693Y60255090D01*
X80109605Y60000000D01*
X80030000Y60000000D01*
X80030000Y60019891D01*
X80014776Y60056645D01*
X79986645Y60084776D01*
X79949891Y60100000D01*
X79910109Y60100000D01*
X79873355Y60084776D01*
X79845224Y60056645D01*
X79830000Y60019891D01*
X79730503Y60019891D01*
X79495305Y60255089D01*
X79460347Y60194538D01*
X79449775Y60155080D01*
X79413410Y60095420D01*
X79350563Y60064891D01*
X79281187Y60073186D01*
X79227309Y60117671D01*
X79210225Y60155080D01*
X79199651Y60194541D01*
X79164693Y60255090D01*
X78909603Y60000001D01*
X78830000Y60000001D01*
X78830000Y60019891D01*
X78814776Y60056645D01*
X78786645Y60084776D01*
X78749891Y60100000D01*
X78710109Y60100000D01*
X78696607Y60094408D01*
X78699377Y60133137D01*
X78727878Y60177484D01*
X78985087Y60434694D01*
X78924539Y60469652D01*
X78924536Y60469653D01*
X78885080Y60480225D01*
X78825419Y60516590D01*
X78794890Y60579437D01*
X78803185Y60648812D01*
X78847670Y60702690D01*
X78885080Y60719775D01*
X78924534Y60730347D01*
X78985086Y60765307D01*
X79674910Y60765307D01*
X79735459Y60730349D01*
X79735458Y60730349D01*
X79774920Y60719775D01*
X79834580Y60683410D01*
X79865109Y60620563D01*
X79856814Y60551187D01*
X79812329Y60497309D01*
X79774920Y60480225D01*
X79735462Y60469653D01*
X79674911Y60434694D01*
X79930000Y60179606D01*
X80185088Y60434693D01*
X80185087Y60434694D01*
X80124539Y60469652D01*
X80124536Y60469653D01*
X80085080Y60480225D01*
X80025419Y60516590D01*
X79994890Y60579437D01*
X80003185Y60648812D01*
X80047670Y60702690D01*
X80085080Y60719775D01*
X80124534Y60730347D01*
X80185086Y60765307D01*
X80874910Y60765307D01*
X80935459Y60730349D01*
X80935458Y60730349D01*
X80974920Y60719775D01*
X81034580Y60683410D01*
X81065109Y60620563D01*
X81056814Y60551187D01*
X81012329Y60497309D01*
X80974920Y60480225D01*
X80935462Y60469653D01*
X80874911Y60434694D01*
X81130000Y60179606D01*
X81385088Y60434693D01*
X81385087Y60434694D01*
X81324539Y60469652D01*
X81324536Y60469653D01*
X81285080Y60480225D01*
X81225419Y60516590D01*
X81194890Y60579437D01*
X81203185Y60648812D01*
X81247670Y60702690D01*
X81285080Y60719775D01*
X81324534Y60730347D01*
X81385088Y60765308D01*
X81130001Y61020395D01*
X80874910Y60765307D01*
X80185086Y60765307D01*
X80185088Y60765308D01*
X79930001Y61020395D01*
X79674910Y60765307D01*
X78985086Y60765307D01*
X78985088Y60765308D01*
X78727878Y61022517D01*
X78723536Y61030468D01*
X78716283Y61035899D01*
X78707053Y61060656D01*
X78694393Y61083840D01*
X78695039Y61092878D01*
X78691874Y61101367D01*
X78693109Y61107042D01*
X78710109Y61100000D01*
X78749891Y61100000D01*
X78786645Y61115224D01*
X78814776Y61143355D01*
X78830000Y61180109D01*
X78830000Y61200001D01*
X78909603Y61200001D01*
X79164692Y60944912D01*
X79199653Y61005466D01*
X79210225Y61044920D01*
X79246590Y61104581D01*
X79309437Y61135110D01*
X79378812Y61126815D01*
X79432690Y61082330D01*
X79449775Y61044920D01*
X79460347Y61005464D01*
X79460348Y61005461D01*
X79495306Y60944913D01*
X79495307Y60944912D01*
X79750394Y61199999D01*
X79750394Y61200000D01*
X79730503Y61219891D01*
X79830000Y61219891D01*
X79830000Y61180109D01*
X79845224Y61143355D01*
X79873355Y61115224D01*
X79910109Y61100000D01*
X79949891Y61100000D01*
X79986645Y61115224D01*
X80014776Y61143355D01*
X80030000Y61180109D01*
X80030000Y61200000D01*
X80109605Y61200000D01*
X80109605Y61199999D01*
X80364692Y60944912D01*
X80399653Y61005466D01*
X80410225Y61044920D01*
X80446590Y61104581D01*
X80509437Y61135110D01*
X80578812Y61126815D01*
X80632690Y61082330D01*
X80649775Y61044920D01*
X80660347Y61005464D01*
X80660348Y61005461D01*
X80695306Y60944913D01*
X80695307Y60944912D01*
X80950394Y61199999D01*
X80950394Y61200000D01*
X80930503Y61219891D01*
X81030000Y61219891D01*
X81030000Y61180109D01*
X81045224Y61143355D01*
X81073355Y61115224D01*
X81110109Y61100000D01*
X81149891Y61100000D01*
X81186645Y61115224D01*
X81214776Y61143355D01*
X81230000Y61180109D01*
X81230000Y61200000D01*
X81309605Y61200000D01*
X81309605Y61199999D01*
X81564692Y60944912D01*
X81599653Y61005466D01*
X81610225Y61044920D01*
X81646590Y61104581D01*
X81709437Y61135110D01*
X81778812Y61126815D01*
X81832690Y61082330D01*
X81849775Y61044920D01*
X81860347Y61005464D01*
X81860348Y61005461D01*
X81895306Y60944913D01*
X82150394Y61200001D01*
X81895306Y61455090D01*
X81895306Y61455089D01*
X81860347Y61394538D01*
X81849775Y61355080D01*
X81813410Y61295420D01*
X81750563Y61264891D01*
X81681187Y61273186D01*
X81627309Y61317671D01*
X81610225Y61355080D01*
X81599651Y61394541D01*
X81564693Y61455090D01*
X81309605Y61200000D01*
X81230000Y61200000D01*
X81230000Y61219891D01*
X81214776Y61256645D01*
X81186645Y61284776D01*
X81149891Y61300000D01*
X81110109Y61300000D01*
X81073355Y61284776D01*
X81045224Y61256645D01*
X81030000Y61219891D01*
X80930503Y61219891D01*
X80695305Y61455089D01*
X80660347Y61394538D01*
X80649775Y61355080D01*
X80613410Y61295420D01*
X80550563Y61264891D01*
X80481187Y61273186D01*
X80427309Y61317671D01*
X80410225Y61355080D01*
X80399651Y61394541D01*
X80364693Y61455090D01*
X80109605Y61200000D01*
X80030000Y61200000D01*
X80030000Y61219891D01*
X80014776Y61256645D01*
X79986645Y61284776D01*
X79949891Y61300000D01*
X79910109Y61300000D01*
X79873355Y61284776D01*
X79845224Y61256645D01*
X79830000Y61219891D01*
X79730503Y61219891D01*
X79495305Y61455089D01*
X79460347Y61394538D01*
X79449775Y61355080D01*
X79413410Y61295420D01*
X79350563Y61264891D01*
X79281187Y61273186D01*
X79227309Y61317671D01*
X79210225Y61355080D01*
X79199651Y61394541D01*
X79164693Y61455090D01*
X78909603Y61200001D01*
X78830000Y61200001D01*
X78830000Y61219891D01*
X78814776Y61256645D01*
X78786645Y61284776D01*
X78749891Y61300000D01*
X78710109Y61300000D01*
X78696607Y61294408D01*
X78699377Y61333137D01*
X78727878Y61377484D01*
X78985087Y61634694D01*
X78924539Y61669652D01*
X78924536Y61669653D01*
X78885080Y61680225D01*
X78825419Y61716590D01*
X78794890Y61779437D01*
X78803185Y61848812D01*
X78847670Y61902690D01*
X78885080Y61919775D01*
X78924534Y61930347D01*
X78985088Y61965308D01*
X79674910Y61965308D01*
X79674910Y61965307D01*
X79735459Y61930349D01*
X79735458Y61930349D01*
X79774920Y61919775D01*
X79834580Y61883410D01*
X79865109Y61820563D01*
X79856814Y61751187D01*
X79812329Y61697309D01*
X79774920Y61680225D01*
X79735462Y61669653D01*
X79674911Y61634694D01*
X79930000Y61379606D01*
X80185088Y61634693D01*
X80185087Y61634694D01*
X80124539Y61669652D01*
X80124536Y61669653D01*
X80085080Y61680225D01*
X80025419Y61716590D01*
X79994890Y61779437D01*
X80003185Y61848812D01*
X80047670Y61902690D01*
X80085080Y61919775D01*
X80124534Y61930347D01*
X80185088Y61965308D01*
X80874910Y61965308D01*
X80874910Y61965307D01*
X80935459Y61930349D01*
X80935458Y61930349D01*
X80974920Y61919775D01*
X81034580Y61883410D01*
X81065109Y61820563D01*
X81056814Y61751187D01*
X81012329Y61697309D01*
X80974920Y61680225D01*
X80935462Y61669653D01*
X80874911Y61634694D01*
X81130000Y61379606D01*
X81385088Y61634693D01*
X81385087Y61634694D01*
X81324539Y61669652D01*
X81324536Y61669653D01*
X81285080Y61680225D01*
X81225419Y61716590D01*
X81194890Y61779437D01*
X81203185Y61848812D01*
X81247670Y61902690D01*
X81285080Y61919775D01*
X81324534Y61930347D01*
X81385088Y61965308D01*
X81129999Y62220397D01*
X80874910Y61965308D01*
X80185088Y61965308D01*
X79929999Y62220397D01*
X79674910Y61965308D01*
X78985088Y61965308D01*
X78727878Y62222517D01*
X78723539Y62230463D01*
X78716292Y62235888D01*
X78707057Y62260648D01*
X78694393Y62283840D01*
X78695038Y62292870D01*
X78691875Y62301352D01*
X78693112Y62307041D01*
X78710109Y62300000D01*
X78749891Y62300000D01*
X78786645Y62315224D01*
X78814776Y62343355D01*
X78830000Y62380109D01*
X78830000Y62419891D01*
X78824407Y62433393D01*
X78863136Y62430623D01*
X78907483Y62402122D01*
X79164692Y62144912D01*
X79199653Y62205466D01*
X79210225Y62244920D01*
X79246590Y62304581D01*
X79309437Y62335110D01*
X79378812Y62326815D01*
X79432690Y62282330D01*
X79449775Y62244920D01*
X79460347Y62205464D01*
X79460348Y62205461D01*
X79495306Y62144913D01*
X79752516Y62402122D01*
X79760461Y62406461D01*
X79765887Y62413708D01*
X79790646Y62422943D01*
X79813839Y62435607D01*
X79822868Y62434962D01*
X79831351Y62438125D01*
X79837040Y62436888D01*
X79830000Y62419891D01*
X79830000Y62380109D01*
X79845224Y62343355D01*
X79873355Y62315224D01*
X79910109Y62300000D01*
X79949891Y62300000D01*
X79986645Y62315224D01*
X80014776Y62343355D01*
X80030000Y62380109D01*
X80030000Y62419891D01*
X80024407Y62433393D01*
X80063122Y62430628D01*
X80107483Y62402122D01*
X80364692Y62144912D01*
X80399653Y62205466D01*
X80410225Y62244920D01*
X80446590Y62304581D01*
X80509437Y62335110D01*
X80578812Y62326815D01*
X80632690Y62282330D01*
X80649775Y62244920D01*
X80660347Y62205464D01*
X80660348Y62205461D01*
X80695306Y62144913D01*
X80952516Y62402122D01*
X80960461Y62406461D01*
X80965887Y62413708D01*
X80990646Y62422943D01*
X81013839Y62435607D01*
X81022868Y62434962D01*
X81031351Y62438125D01*
X81037040Y62436888D01*
G37*
%TD.AperFunction*%
%TD*%
%TA.AperFunction,Conductor*%
%TO.N,GND*%
G36*
X98692539Y56980315D02*
G01*
X98738294Y56927511D01*
X98749500Y56876000D01*
X98749500Y53502705D01*
X98749382Y53497296D01*
X98732615Y53113248D01*
X98731672Y53102472D01*
X98681851Y52724042D01*
X98679973Y52713389D01*
X98597357Y52340728D01*
X98594557Y52330279D01*
X98479778Y51966246D01*
X98476078Y51956080D01*
X98330006Y51603430D01*
X98325434Y51593626D01*
X98149187Y51255060D01*
X98143779Y51245692D01*
X97938689Y50923765D01*
X97932484Y50914903D01*
X97700110Y50612068D01*
X97693156Y50603781D01*
X97435294Y50322376D01*
X97427645Y50314727D01*
X97146213Y50056845D01*
X97137926Y50049892D01*
X96835109Y49817533D01*
X96826248Y49811328D01*
X96504318Y49606238D01*
X96494950Y49600830D01*
X96156371Y49424578D01*
X96146566Y49420006D01*
X95793926Y49273941D01*
X95783761Y49270241D01*
X95419725Y49155462D01*
X95409275Y49152662D01*
X95036612Y49070048D01*
X95025959Y49068170D01*
X94647531Y49018352D01*
X94636755Y49017409D01*
X94252130Y49000619D01*
X94246724Y49000501D01*
X94214422Y49000501D01*
X94184112Y49000501D01*
X94184108Y49000501D01*
X94176504Y49000500D01*
X94176503Y49000501D01*
X94176502Y49000500D01*
X91000000Y49000500D01*
X91000000Y51366741D01*
X91037443Y51341722D01*
X91081265Y51312440D01*
X91081271Y51312437D01*
X91081272Y51312436D01*
X91216999Y51256216D01*
X91353253Y51229114D01*
X91361081Y51227557D01*
X91361085Y51227556D01*
X91361086Y51227556D01*
X91507997Y51227556D01*
X91507998Y51227557D01*
X91652083Y51256216D01*
X91787810Y51312436D01*
X91909961Y51394055D01*
X92013842Y51497936D01*
X92095461Y51620087D01*
X92127332Y51697032D01*
X92171169Y51751431D01*
X92237463Y51773497D01*
X92289344Y51764137D01*
X92341291Y51742620D01*
X92341299Y51742618D01*
X92351974Y51740494D01*
X92351975Y51740495D01*
X92351975Y52477974D01*
X92371660Y52545013D01*
X92424464Y52590768D01*
X92475975Y52601974D01*
X92550613Y52601974D01*
X92580053Y52593330D01*
X92610040Y52586806D01*
X92615055Y52583052D01*
X92617652Y52582289D01*
X92638294Y52565655D01*
X92783359Y52420590D01*
X92816844Y52359267D01*
X92811860Y52289575D01*
X92798780Y52264018D01*
X92707573Y52127519D01*
X92707568Y52127510D01*
X92640163Y51964779D01*
X92640161Y51964771D01*
X92605800Y51792025D01*
X92605800Y51615874D01*
X92640161Y51443128D01*
X92640163Y51443120D01*
X92661699Y51391128D01*
X92669168Y51321658D01*
X92637893Y51259179D01*
X92594591Y51229114D01*
X92518116Y51197437D01*
X92518106Y51197432D01*
X92395962Y51115817D01*
X92395958Y51115814D01*
X92292083Y51011939D01*
X92292080Y51011935D01*
X92210465Y50889791D01*
X92210460Y50889782D01*
X92154243Y50754060D01*
X92154240Y50754050D01*
X92125582Y50609975D01*
X92125582Y50463056D01*
X92153565Y50322376D01*
X92154242Y50318973D01*
X92164626Y50293904D01*
X92210460Y50183249D01*
X92210465Y50183240D01*
X92292080Y50061096D01*
X92292083Y50061092D01*
X92395958Y49957217D01*
X92395962Y49957214D01*
X92518106Y49875599D01*
X92518112Y49875596D01*
X92518113Y49875595D01*
X92653840Y49819375D01*
X92797922Y49790716D01*
X92797926Y49790715D01*
X92797927Y49790715D01*
X92944838Y49790715D01*
X92944839Y49790716D01*
X93088924Y49819375D01*
X93224651Y49875595D01*
X93346802Y49957214D01*
X93450683Y50061095D01*
X93532302Y50183246D01*
X93588522Y50318973D01*
X93617182Y50463060D01*
X93617182Y50609970D01*
X93602039Y50686100D01*
X93608266Y50755688D01*
X93651128Y50810866D01*
X93699463Y50831906D01*
X93760829Y50844112D01*
X93923563Y50911519D01*
X94070019Y51009378D01*
X94194571Y51133930D01*
X94292430Y51280386D01*
X94359837Y51443120D01*
X94393282Y51611268D01*
X94425666Y51673175D01*
X94486381Y51707750D01*
X94490663Y51708683D01*
X94658855Y51742137D01*
X94821589Y51809544D01*
X94968045Y51907403D01*
X95092597Y52031955D01*
X95190456Y52178411D01*
X95257863Y52341145D01*
X95291309Y52509295D01*
X95323693Y52571203D01*
X95384409Y52605777D01*
X95388670Y52606705D01*
X95556880Y52640163D01*
X95719614Y52707570D01*
X95866070Y52805429D01*
X95990622Y52929981D01*
X96088481Y53076437D01*
X96155888Y53239171D01*
X96190251Y53411929D01*
X96190251Y53588071D01*
X96155888Y53760829D01*
X96088481Y53923563D01*
X96088480Y53923564D01*
X96088477Y53923570D01*
X96037156Y54000377D01*
X96016278Y54067055D01*
X96034762Y54134435D01*
X96086741Y54181125D01*
X96092780Y54183819D01*
X96098333Y54186118D01*
X96220484Y54267737D01*
X96324365Y54371618D01*
X96405984Y54493769D01*
X96462204Y54629496D01*
X96490864Y54773583D01*
X96490864Y54920493D01*
X96462204Y55064580D01*
X96405984Y55200307D01*
X96405983Y55200308D01*
X96405980Y55200314D01*
X96324365Y55322458D01*
X96324362Y55322462D01*
X96220487Y55426337D01*
X96220483Y55426340D01*
X96098339Y55507955D01*
X96098330Y55507960D01*
X95962608Y55564177D01*
X95962609Y55564177D01*
X95962606Y55564178D01*
X95962602Y55564179D01*
X95962598Y55564180D01*
X95818523Y55592838D01*
X95818519Y55592838D01*
X95671609Y55592838D01*
X95671604Y55592838D01*
X95527529Y55564180D01*
X95527519Y55564177D01*
X95391797Y55507960D01*
X95391788Y55507955D01*
X95269644Y55426340D01*
X95269640Y55426337D01*
X95165765Y55322462D01*
X95165762Y55322458D01*
X95084147Y55200314D01*
X95084140Y55200300D01*
X95081852Y55194776D01*
X95038010Y55140374D01*
X94971715Y55118312D01*
X94904016Y55135593D01*
X94898402Y55139131D01*
X94821595Y55190452D01*
X94821586Y55190457D01*
X94658856Y55257862D01*
X94634751Y55262657D01*
X94533454Y55282806D01*
X94516697Y55291571D01*
X94498221Y55295590D01*
X94473186Y55314331D01*
X94471546Y55315189D01*
X94469967Y55316741D01*
X94321788Y55464920D01*
X94306367Y55483710D01*
X94221789Y55610289D01*
X94221786Y55610293D01*
X94110289Y55721790D01*
X93979184Y55809391D01*
X93979181Y55809393D01*
X93979179Y55809394D01*
X93965589Y55815023D01*
X93944151Y55826482D01*
X93877867Y55870772D01*
X93877855Y55870779D01*
X93750383Y55923579D01*
X93750373Y55923582D01*
X93615047Y55950500D01*
X93615045Y55950500D01*
X93477057Y55950500D01*
X93477055Y55950500D01*
X93341728Y55923582D01*
X93341718Y55923579D01*
X93214243Y55870778D01*
X93099496Y55794107D01*
X93098443Y55793242D01*
X93097784Y55792963D01*
X93094442Y55790729D01*
X93094018Y55791364D01*
X93034129Y55765940D01*
X92965263Y55777743D01*
X92932114Y55801428D01*
X92773029Y55960513D01*
X92773027Y55960515D01*
X92707412Y55998398D01*
X92641798Y56036281D01*
X92568612Y56055891D01*
X92495428Y56075500D01*
X92495427Y56075500D01*
X91857997Y56075500D01*
X91790958Y56095185D01*
X91770316Y56111819D01*
X91093816Y56788319D01*
X91060331Y56849642D01*
X91065315Y56919334D01*
X91107187Y56975267D01*
X91172651Y56999684D01*
X91181497Y57000000D01*
X98625500Y57000000D01*
X98692539Y56980315D01*
G37*
%TD.AperFunction*%
%TA.AperFunction,Conductor*%
G36*
X91104181Y54167034D02*
G01*
X91130476Y54164681D01*
X91139724Y54158621D01*
X91146480Y54157021D01*
X91153886Y54149340D01*
X91172760Y54136971D01*
X91935243Y53374488D01*
X91968728Y53313165D01*
X91963744Y53243473D01*
X91935245Y53199127D01*
X91907792Y53171674D01*
X91809992Y53025307D01*
X91809987Y53025298D01*
X91742620Y52862658D01*
X91742619Y52862655D01*
X91730422Y52801340D01*
X91698036Y52739430D01*
X91637319Y52704857D01*
X91584615Y52703916D01*
X91536989Y52713389D01*
X91507996Y52719156D01*
X91361086Y52719156D01*
X91361081Y52719156D01*
X91217006Y52690498D01*
X91216996Y52690495D01*
X91081274Y52634278D01*
X91081265Y52634273D01*
X91000000Y52579973D01*
X91000000Y54162057D01*
X91016399Y54162057D01*
X91069614Y54172643D01*
X91078489Y54173115D01*
X91104181Y54167034D01*
G37*
%TD.AperFunction*%
%TD*%
M02*
