%TF.GenerationSoftware,KiCad,Pcbnew,9.0.3-9.0.3-0~ubuntu24.04.1*%
%TF.CreationDate,2025-07-10T11:07:13-04:00*%
%TF.ProjectId,tire_sensor,74697265-5f73-4656-9e73-6f722e6b6963,rev?*%
%TF.SameCoordinates,Original*%
%TF.FileFunction,Copper,L3,Inr*%
%TF.FilePolarity,Positive*%
%FSLAX46Y46*%
G04 Gerber Fmt 4.6, Leading zero omitted, Abs format (unit mm)*
G04 Created by KiCad (PCBNEW 9.0.3-9.0.3-0~ubuntu24.04.1) date 2025-07-10 11:07:13*
%MOMM*%
%LPD*%
G01*
G04 APERTURE LIST*
%TA.AperFunction,ComponentPad*%
%ADD10R,0.500000X0.900000*%
%TD*%
%TA.AperFunction,HeatsinkPad*%
%ADD11C,0.500000*%
%TD*%
%TA.AperFunction,ViaPad*%
%ADD12C,0.600000*%
%TD*%
%TA.AperFunction,ViaPad*%
%ADD13C,0.300000*%
%TD*%
G04 APERTURE END LIST*
D10*
%TO.N,GND*%
%TO.C,AE1*%
X90750000Y58400000D03*
%TD*%
D11*
%TO.N,GND*%
%TO.C,U1*%
X78730000Y64020000D03*
X78730000Y62820000D03*
X78730000Y61620000D03*
X78730000Y60420000D03*
X79930000Y64020000D03*
X79930000Y62820000D03*
X79930000Y61620000D03*
X79930000Y60420000D03*
X81130000Y64020000D03*
X81130000Y62820000D03*
X81130000Y61620000D03*
X81130000Y60420000D03*
X82330000Y64020000D03*
X82330000Y62820000D03*
X82330000Y61620000D03*
X82330000Y60420000D03*
%TD*%
D12*
%TO.N,VDD_NRF*%
X77230000Y54670000D03*
X75630000Y66320000D03*
X68050000Y61750000D03*
X88630000Y54820000D03*
X83630000Y65770000D03*
D13*
%TO.N,GND*%
X97600000Y56800000D03*
X96800000Y56800000D03*
X89200000Y66200000D03*
X90800000Y70200000D03*
X89800000Y61000000D03*
X85200000Y61400000D03*
D12*
X73400000Y72400000D03*
D13*
X93600000Y56800000D03*
X90800000Y67400000D03*
X90800000Y59600000D03*
D12*
X86600000Y50200000D03*
D13*
X90800000Y66200000D03*
D12*
X97400000Y55400000D03*
D13*
X89200000Y69000000D03*
X88400000Y66200000D03*
D12*
X71000000Y50600000D03*
D13*
X90800000Y65400000D03*
X85600000Y61400000D03*
X92400000Y56800000D03*
X90400000Y59800000D03*
X90800000Y64600000D03*
X96000000Y56800000D03*
X89200000Y67400000D03*
X89200000Y65400000D03*
X90800000Y69000000D03*
X87600000Y69000000D03*
X98400000Y56800000D03*
X98000000Y56800000D03*
X90000000Y70000000D03*
X90800000Y63400000D03*
X90800000Y61400000D03*
D12*
X86780000Y64120000D03*
X79200000Y52000000D03*
X89750000Y57750000D03*
D13*
X88400000Y69000000D03*
X90800000Y61000000D03*
X89800000Y63800000D03*
X89600000Y60200000D03*
X90800000Y66600000D03*
X89800000Y62600000D03*
X90200000Y61000000D03*
X94800000Y56800000D03*
X89800000Y61400000D03*
D12*
X95200000Y54200000D03*
X74000000Y54200000D03*
D13*
X88400000Y65000000D03*
X90800000Y57600000D03*
D12*
X68800000Y71000000D03*
X83500000Y68250000D03*
X82400000Y49600000D03*
X89730000Y65670000D03*
D13*
X88400000Y68200000D03*
X86800000Y69600000D03*
D12*
X76200000Y72200000D03*
X74130000Y64228552D03*
D13*
X88400000Y68600000D03*
D12*
X86730000Y60170000D03*
X77630000Y67820000D03*
X82500000Y68250000D03*
X88750000Y57750000D03*
D13*
X90800000Y56800000D03*
D12*
X84730000Y68670000D03*
D13*
X88800000Y60000000D03*
X87200000Y69200000D03*
X86000000Y69600000D03*
D12*
X85000000Y52000000D03*
D13*
X90800000Y70600000D03*
X94400000Y56800000D03*
D12*
X89730000Y68670000D03*
D13*
X90800000Y65800000D03*
X86000000Y61400000D03*
D12*
X70400000Y53800000D03*
D13*
X90800000Y59200000D03*
X89200000Y67000000D03*
X90800000Y63800000D03*
X93200000Y56800000D03*
X89400000Y69800000D03*
X85200000Y70000000D03*
X90800000Y71000000D03*
X88400000Y67000000D03*
X90800000Y68200000D03*
X90800000Y62600000D03*
X90800000Y73000000D03*
X97200000Y56800000D03*
X89200000Y65000000D03*
X90800000Y69800000D03*
X87200000Y61400000D03*
X92000000Y56800000D03*
X90800000Y65000000D03*
X89800000Y63400000D03*
X89800000Y62200000D03*
X90800000Y68600000D03*
X92800000Y56800000D03*
D12*
X71000000Y73000000D03*
D13*
X87200000Y60600000D03*
D12*
X77200000Y49600000D03*
X84000000Y71200000D03*
D13*
X90800000Y73400000D03*
D12*
X77230000Y57170000D03*
D13*
X88400000Y65400000D03*
D12*
X78130000Y56320000D03*
X67600000Y53400000D03*
D13*
X88400000Y60000000D03*
D12*
X71600000Y57200000D03*
D13*
X95600000Y56800000D03*
X90800000Y72200000D03*
D12*
X81500000Y68250000D03*
D13*
X89600000Y64200000D03*
X90800000Y71400000D03*
D12*
X79130000Y56320000D03*
X73380000Y59020000D03*
X71600000Y68400000D03*
X85400000Y60600000D03*
D13*
X90800000Y69400000D03*
X88000000Y60000000D03*
D12*
X89600000Y73200000D03*
D13*
X90800000Y71800000D03*
X94000000Y56800000D03*
X90800000Y63000000D03*
X91600000Y56800000D03*
X85600000Y69600000D03*
X96400000Y56800000D03*
X90800000Y62200000D03*
X87200000Y61000000D03*
D12*
X75400000Y70600000D03*
D13*
X95200000Y56800000D03*
D12*
X68800000Y55800000D03*
X81000000Y73200000D03*
D13*
X90800000Y72600000D03*
D12*
X80000000Y71400000D03*
D13*
X90000000Y60200000D03*
X88000000Y69000000D03*
D12*
X85000000Y65500000D03*
D13*
X90800000Y67000000D03*
D12*
X84380000Y57570000D03*
D13*
X86800000Y61400000D03*
D12*
X86730000Y68670000D03*
D13*
X89200000Y68200000D03*
X89800000Y63000000D03*
X91200000Y56800000D03*
X89200000Y66600000D03*
X88400000Y67400000D03*
X88400000Y65800000D03*
X89200000Y69400000D03*
X89200000Y60200000D03*
X88400000Y64600000D03*
X89800000Y61800000D03*
X90800000Y73800000D03*
X89200000Y68600000D03*
X90800000Y64200000D03*
D12*
X97200000Y52200000D03*
D13*
X88400000Y67800000D03*
D12*
X72400000Y70600000D03*
D13*
X86400000Y69600000D03*
X90800000Y57200000D03*
D12*
X91750000Y53250000D03*
X74230000Y62170000D03*
D13*
X89200000Y65800000D03*
X86400000Y61400000D03*
X90800000Y61800000D03*
X90800000Y67800000D03*
D12*
X74400000Y50400000D03*
D13*
X89200000Y64600000D03*
X89200000Y67800000D03*
X87600000Y60200000D03*
X88400000Y66600000D03*
D12*
X86780000Y63120000D03*
X68200000Y67600000D03*
%TO.N,/SWCLK*%
X85694058Y59255942D03*
X92507080Y53257080D03*
%TO.N,/nRESET*%
X86226087Y58723913D03*
X89250000Y51500000D03*
%TO.N,/SWDIO*%
X93500000Y50000000D03*
X85192703Y59813748D03*
%TO.N,/SDO*%
X81671956Y55342419D03*
X81671956Y57570000D03*
X83880000Y54720000D03*
%TO.N,/CS_DPS368*%
X80880000Y57320000D03*
%TO.N,/SDI*%
X83880000Y55765400D03*
%TO.N,/SCK*%
X83880000Y58170000D03*
%TO.N,/INT_LIS3DHTR*%
X86482403Y55170000D03*
X79730000Y58170000D03*
%TO.N,/CS_LIS3DHTR*%
X80601400Y58170000D03*
X85730000Y55170000D03*
%TD*%
M02*
