%TF.GenerationSoftware,KiCad,Pcbnew,9.0.3-9.0.3-0~ubuntu24.04.1*%
%TF.CreationDate,2025-07-10T17:18:30-04:00*%
%TF.ProjectId,tire_sensor,74697265-5f73-4656-9e73-6f722e6b6963,rev?*%
%TF.SameCoordinates,Original*%
%TF.FileFunction,Copper,L4,Bot*%
%TF.FilePolarity,Positive*%
%FSLAX46Y46*%
G04 Gerber Fmt 4.6, Leading zero omitted, Abs format (unit mm)*
G04 Created by KiCad (PCBNEW 9.0.3-9.0.3-0~ubuntu24.04.1) date 2025-07-10 17:18:30*
%MOMM*%
%LPD*%
G01*
G04 APERTURE LIST*
G04 Aperture macros list*
%AMRoundRect*
0 Rectangle with rounded corners*
0 $1 Rounding radius*
0 $2 $3 $4 $5 $6 $7 $8 $9 X,Y pos of 4 corners*
0 Add a 4 corners polygon primitive as box body*
4,1,4,$2,$3,$4,$5,$6,$7,$8,$9,$2,$3,0*
0 Add four circle primitives for the rounded corners*
1,1,$1+$1,$2,$3*
1,1,$1+$1,$4,$5*
1,1,$1+$1,$6,$7*
1,1,$1+$1,$8,$9*
0 Add four rect primitives between the rounded corners*
20,1,$1+$1,$2,$3,$4,$5,0*
20,1,$1+$1,$4,$5,$6,$7,0*
20,1,$1+$1,$6,$7,$8,$9,0*
20,1,$1+$1,$8,$9,$2,$3,0*%
G04 Aperture macros list end*
%TA.AperFunction,HeatsinkPad*%
%ADD10C,0.500000*%
%TD*%
%TA.AperFunction,HeatsinkPad*%
%ADD11R,4.100000X4.100000*%
%TD*%
%TA.AperFunction,SMDPad,CuDef*%
%ADD12RoundRect,0.200000X-1.100000X-1.550000X1.100000X-1.550000X1.100000X1.550000X-1.100000X1.550000X0*%
%TD*%
%TA.AperFunction,ComponentPad*%
%ADD13R,0.500000X0.900000*%
%TD*%
%TA.AperFunction,ViaPad*%
%ADD14C,0.600000*%
%TD*%
%TA.AperFunction,ViaPad*%
%ADD15C,0.300000*%
%TD*%
%TA.AperFunction,Conductor*%
%ADD16C,1.000000*%
%TD*%
%TA.AperFunction,Conductor*%
%ADD17C,0.150000*%
%TD*%
%TA.AperFunction,Conductor*%
%ADD18C,0.400000*%
%TD*%
%TA.AperFunction,Conductor*%
%ADD19C,0.152400*%
%TD*%
G04 APERTURE END LIST*
D10*
%TO.P,U1,49,GND*%
%TO.N,GND*%
X82330000Y60420000D03*
X82330000Y61620000D03*
X82330000Y62820000D03*
X82330000Y64020000D03*
X81130000Y60420000D03*
X81130000Y61620000D03*
X81130000Y62820000D03*
X81130000Y64020000D03*
D11*
X80530000Y62220000D03*
D10*
X79930000Y60420000D03*
X79930000Y61620000D03*
X79930000Y62820000D03*
X79930000Y64020000D03*
X78730000Y60420000D03*
X78730000Y61620000D03*
X78730000Y62820000D03*
X78730000Y64020000D03*
%TD*%
D12*
%TO.P,BT1,2,-*%
%TO.N,GND*%
X97450000Y61750000D03*
%TO.P,BT1,1,+*%
%TO.N,VDD_NRF*%
X68050000Y61750000D03*
%TD*%
D13*
%TO.P,AE1,2,Shield*%
%TO.N,GND*%
X90750000Y58400000D03*
%TD*%
D14*
%TO.N,GND*%
X97400000Y56100000D03*
D15*
X88000000Y69600000D03*
X87200000Y69600000D03*
D14*
%TO.N,VDD_NRF*%
X77230000Y54670000D03*
X75630000Y66320000D03*
X68050000Y61750000D03*
X88630000Y54820000D03*
X83630000Y65770000D03*
D15*
%TO.N,GND*%
X97600000Y56800000D03*
X96800000Y56800000D03*
X89570000Y66230000D03*
X90800000Y70200000D03*
X89800000Y61400000D03*
X85200000Y61400000D03*
D14*
X73400000Y72400000D03*
D15*
X93600000Y56800000D03*
X90800000Y67400000D03*
X90800000Y59600000D03*
D14*
X86600000Y50200000D03*
D15*
X90800000Y66200000D03*
D14*
X97400000Y55400000D03*
D15*
X89570000Y69030000D03*
X88400000Y66200000D03*
D14*
X71000000Y50600000D03*
D15*
X90800000Y65400000D03*
X85600000Y61400000D03*
X92400000Y56800000D03*
X90400000Y59800000D03*
X90800000Y64600000D03*
X96000000Y56800000D03*
X89570000Y67430000D03*
X89570000Y65430000D03*
X90800000Y69000000D03*
X98400000Y56800000D03*
X98000000Y56800000D03*
X90000000Y70000000D03*
X90800000Y63400000D03*
D14*
X86780000Y64120000D03*
X79200000Y52000000D03*
X89750000Y57750000D03*
D15*
X88400000Y69000000D03*
X90800000Y61400000D03*
X89800000Y63800000D03*
X89600000Y60000000D03*
X90800000Y66600000D03*
X89800000Y62600000D03*
X90300000Y61400000D03*
X94800000Y56800000D03*
D14*
X95200000Y54200000D03*
X74000000Y54200000D03*
D15*
X88400000Y65000000D03*
X90800000Y57600000D03*
D14*
X68800000Y71000000D03*
X83600000Y68400000D03*
X82400000Y49600000D03*
X90100000Y65700000D03*
D15*
X88400000Y68200000D03*
X86800000Y69600000D03*
D14*
X76200000Y72200000D03*
X74130000Y64228552D03*
D15*
X88400000Y68600000D03*
D14*
X86730000Y60170000D03*
X77630000Y67820000D03*
X82700000Y68400000D03*
X88750000Y57750000D03*
D15*
X90800000Y56800000D03*
D14*
X84600000Y68600000D03*
D15*
X88800000Y60000000D03*
X86000000Y69600000D03*
D14*
X85000000Y52000000D03*
D15*
X90800000Y70600000D03*
X94400000Y56800000D03*
D14*
X90100000Y68700000D03*
D15*
X90800000Y65800000D03*
X86000000Y61400000D03*
D14*
X70400000Y53800000D03*
D15*
X90800000Y59200000D03*
X89570000Y67030000D03*
X90800000Y63800000D03*
X93200000Y56800000D03*
X89400000Y69800000D03*
X85200000Y70000000D03*
X90800000Y71000000D03*
X88400000Y67000000D03*
X90800000Y68200000D03*
X90800000Y62600000D03*
X90800000Y73000000D03*
X97200000Y56800000D03*
X89570000Y65030000D03*
X90800000Y69800000D03*
X87200000Y61400000D03*
X92000000Y56800000D03*
X90800000Y65000000D03*
X89800000Y63400000D03*
X89800000Y62200000D03*
X90800000Y68600000D03*
X92800000Y56800000D03*
D14*
X71000000Y73000000D03*
D15*
X87200000Y60600000D03*
D14*
X77200000Y49600000D03*
X84000000Y71200000D03*
D15*
X90800000Y73400000D03*
D14*
X77230000Y57170000D03*
D15*
X88400000Y65400000D03*
D14*
X78130000Y56320000D03*
X67600000Y53400000D03*
D15*
X88400000Y60000000D03*
D14*
X71600000Y57200000D03*
D15*
X95600000Y56800000D03*
X90800000Y72200000D03*
D14*
X81700000Y68400000D03*
D15*
X89600000Y64200000D03*
X90800000Y71400000D03*
D14*
X79130000Y56320000D03*
X73380000Y59020000D03*
X71600000Y68400000D03*
X85400000Y60600000D03*
D15*
X90800000Y69400000D03*
X88000000Y60000000D03*
D14*
X89600000Y73200000D03*
D15*
X90800000Y71800000D03*
X94000000Y56800000D03*
X90800000Y63000000D03*
X91600000Y56800000D03*
X85600000Y69600000D03*
X96400000Y56800000D03*
X90800000Y62200000D03*
X87200000Y61000000D03*
D14*
X75400000Y70600000D03*
D15*
X95200000Y56800000D03*
D14*
X68800000Y55800000D03*
X81000000Y73200000D03*
D15*
X90800000Y72600000D03*
D14*
X80000000Y71400000D03*
D15*
X90000000Y60000000D03*
X87591994Y69578652D03*
D14*
X84700000Y65200000D03*
D15*
X90800000Y67000000D03*
D14*
X84380000Y57570000D03*
D15*
X86800000Y61400000D03*
X89570000Y68230000D03*
X89800000Y63000000D03*
X91200000Y56800000D03*
X89570000Y66630000D03*
X88400000Y67400000D03*
X88400000Y65800000D03*
X89570000Y69430000D03*
X89200000Y60000000D03*
X88400000Y64600000D03*
X89800000Y61800000D03*
X90800000Y73800000D03*
X89570000Y68630000D03*
X90800000Y64200000D03*
D14*
X97200000Y52200000D03*
D15*
X88400000Y67800000D03*
D14*
X72400000Y70600000D03*
D15*
X86400000Y69600000D03*
X90800000Y57200000D03*
D14*
X91750000Y53250000D03*
X74230000Y62170000D03*
D15*
X89570000Y65830000D03*
X86400000Y61400000D03*
X90800000Y61800000D03*
X90800000Y67800000D03*
D14*
X74400000Y50400000D03*
D15*
X89570000Y64630000D03*
X89570000Y67830000D03*
X87600000Y60200000D03*
X88400000Y66600000D03*
D14*
X86780000Y63120000D03*
X68200000Y67600000D03*
%TO.N,/SWCLK*%
X85694058Y59255942D03*
X92507080Y53257080D03*
%TO.N,/nRESET*%
X86226087Y58723913D03*
X89250000Y51500000D03*
%TO.N,/SWDIO*%
X93500000Y50000000D03*
X85192703Y59813748D03*
%TO.N,/SDO*%
X81671956Y55342419D03*
X81671956Y57570000D03*
X83880000Y54720000D03*
%TO.N,/CS_DPS368*%
X80880000Y57320000D03*
%TO.N,/SDI*%
X83880000Y55765400D03*
%TO.N,/SCK*%
X83880000Y58170000D03*
%TO.N,/INT_LIS3DHTR*%
X86482403Y55170000D03*
X79730000Y58170000D03*
%TO.N,/CS_LIS3DHTR*%
X80601400Y58170000D03*
X85730000Y55170000D03*
%TD*%
D16*
%TO.N,GND*%
X97450000Y61750000D02*
X97450000Y55450000D01*
D17*
X97450000Y55450000D02*
X97400000Y55400000D01*
D18*
%TO.N,VDD_NRF*%
X75309346Y56170000D02*
X69729346Y61750000D01*
X88630000Y53820000D02*
X88630000Y54820000D01*
X77230000Y56170000D02*
X77230000Y54670000D01*
X75630000Y66320000D02*
X83080000Y66320000D01*
X69729346Y61750000D02*
X68050000Y61750000D01*
X83080000Y66320000D02*
X83630000Y65770000D01*
X77230000Y54220000D02*
X78130000Y53320000D01*
X77230000Y54670000D02*
X77230000Y54220000D01*
X78130000Y53320000D02*
X88130000Y53320000D01*
X77230000Y56170000D02*
X75309346Y56170000D01*
X88130000Y53320000D02*
X88630000Y53820000D01*
D19*
%TO.N,/SWCLK*%
X91951837Y53812323D02*
X92507080Y53257080D01*
X86753287Y58942287D02*
X86753287Y58003287D01*
X86753287Y58003287D02*
X86750000Y58000000D01*
X86750000Y58000000D02*
X86750000Y57874646D01*
X85694058Y59255942D02*
X86439632Y59255942D01*
X90812323Y53812323D02*
X91951837Y53812323D01*
X86750000Y57874646D02*
X90812323Y53812323D01*
X86439632Y59255942D02*
X86753287Y58942287D01*
%TO.N,/nRESET*%
X86226087Y57969487D02*
X86226087Y58723913D01*
X89250000Y54945574D02*
X86226087Y57969487D01*
X89250000Y51500000D02*
X89250000Y54945574D01*
%TO.N,/SWDIO*%
X92365387Y54276859D02*
X90776859Y54276859D01*
X90776859Y54276859D02*
X87056687Y57997031D01*
X94250000Y52392246D02*
X92365387Y54276859D01*
X87056687Y59067959D02*
X86310898Y59813748D01*
X93500000Y50000000D02*
X94250000Y50750000D01*
X87056687Y57997031D02*
X87056687Y59067959D01*
X86310898Y59813748D02*
X85192703Y59813748D01*
X94250000Y50750000D02*
X94250000Y52392246D01*
%TO.N,/SDO*%
X81671956Y57570000D02*
X81671956Y55342419D01*
%TO.N,/INT_LIS3DHTR*%
X85380000Y55570000D02*
X85507200Y55697200D01*
X79730000Y58170000D02*
X80257200Y58697200D01*
X80257200Y58697200D02*
X82252800Y58697200D01*
X85507200Y55697200D02*
X85955203Y55697200D01*
X85955203Y55697200D02*
X86482403Y55170000D01*
X82252800Y58697200D02*
X85380000Y55570000D01*
%TO.N,/CS_LIS3DHTR*%
X85280000Y55170000D02*
X85730000Y55170000D01*
X82280000Y58170000D02*
X85280000Y55170000D01*
X80601400Y58170000D02*
X82280000Y58170000D01*
X80601400Y58170000D02*
X80701400Y58070000D01*
%TD*%
M02*
